<svg width="55" height="56" viewBox="0 0 55 56" fill="none" xmlns="http://www.w3.org/2000/svg">
<g clip-path="url(#clip0_4014_1318)">
<path d="M42.5668 37.2727C44.5267 39.922 46.5478 42.633 48.569 45.3439C44.5267 50.1497 39.5044 53.2303 33.4409 54.5242C26.7037 55.9413 20.334 54.8939 14.148 51.4436C19.6603 47.3155 25.0501 43.2491 30.5011 39.1827C31.726 40.3533 32.8897 41.524 34.0534 42.633C35.3396 43.8652 34.8496 43.9269 36.5033 43.0027C38.7694 41.7088 40.6681 39.922 42.138 37.7656C42.1993 37.6424 42.3218 37.5191 42.383 37.3959C42.3218 37.3959 42.383 37.3959 42.5668 37.2727ZM18.4966 42.6946C16.9654 43.8652 15.5567 44.9126 14.148 46.0217C13.1068 46.8226 12.0656 47.562 11.0244 48.3629C10.5957 48.7326 10.2895 48.7326 9.7995 48.3013C5.14471 44.1117 2.20484 38.9362 1.10239 32.775C-6.00002e-05 26.5521 0.979896 20.6373 3.91976 15.0306C3.98101 14.9074 4.1035 14.7225 4.16475 14.5993C4.16475 14.5377 4.226 14.5377 4.34849 14.4761C8.39081 19.8364 12.4944 25.1967 16.5367 30.5569C16.4142 30.7418 16.3529 30.865 16.2305 30.9882C15.0055 32.2821 13.7806 33.576 12.4944 34.8082C12.1269 35.1779 12.0656 35.4859 12.3106 35.9172C13.5968 38.3817 15.373 40.4149 17.5779 42.0785C17.8841 42.2633 18.1291 42.4482 18.4966 42.6946ZM41.3418 4.43325C39.3819 5.85034 37.422 7.26742 35.4621 8.6229C32.0935 11.0258 28.7249 13.4903 25.4175 15.8932C24.9888 16.2012 24.6826 16.2628 24.3151 15.8316C23.2126 14.6609 22.0489 13.6135 20.9465 12.4429C20.6403 12.1348 20.334 12.0732 19.9053 12.258C17.2717 13.6135 15.1893 15.5235 13.4743 17.9264C13.3518 18.0496 13.2293 18.2344 13.1068 18.4193C12.1269 17.1254 11.2082 15.9548 10.2895 14.7225C9.30952 13.4287 8.39081 12.1348 7.4721 10.9026C7.16587 10.4713 7.10462 10.1632 7.53335 9.73192C12.2494 4.49486 18.0679 1.41424 25.0501 0.67489C30.5623 0.0587656 35.8296 1.16779 40.7293 3.81713C40.9131 3.94035 41.0968 4.00196 41.2806 4.12519C41.2806 4.31003 41.2806 4.37164 41.3418 4.43325ZM51.3251 41.4007C50.0389 39.7372 48.8752 38.1969 47.7115 36.6566C45.0166 33.0831 42.3218 29.4479 39.5656 25.8744C39.1982 25.3815 39.1982 25.0734 39.6269 24.6421C40.7906 23.4715 41.893 22.3009 43.0567 21.1302C43.363 20.8222 43.4855 20.5141 43.2405 20.0828C41.893 17.4951 40.0556 15.3387 37.667 13.6135C37.4832 13.4903 37.2995 13.3054 37.0545 13.1822C37.2382 12.9974 37.422 12.8742 37.5445 12.7509C39.8719 10.9642 42.1993 9.23902 44.5267 7.45226C44.8941 7.1442 45.2004 7.02097 45.6291 7.45226C51.4476 12.7509 54.5712 19.3435 54.8774 27.2915C54.9999 31.9124 53.9587 36.2869 51.8763 40.4149C51.6926 40.6614 51.5089 40.9694 51.3251 41.4007Z" fill="#231815"/>
</g>
<defs>
<clipPath id="clip0_4014_1318">
<rect width="55" height="56" fill="white"/>
</clipPath>
</defs>
</svg>
