<svg width="56" height="56" viewBox="0 0 56 56" fill="none" xmlns="http://www.w3.org/2000/svg">
<rect width="56" height="56" rx="28" fill="#9391F7"/>
<path d="M21.8896 28.9911C24.4736 28.9911 26.5683 26.8964 26.5683 24.3125C26.5683 21.7285 24.4736 19.6338 21.8896 19.6338C19.3057 19.6338 17.2109 21.7285 17.2109 24.3125C17.2109 26.8964 19.3057 28.9911 21.8896 28.9911Z" fill="white"/>
<path d="M34.1158 28.9911C36.6998 28.9911 38.7945 26.8964 38.7945 24.3125C38.7945 21.7285 36.6998 19.6338 34.1158 19.6338C31.5317 19.6338 29.437 21.7285 29.437 24.3125C29.437 26.8964 31.5317 28.9911 34.1158 28.9911Z" fill="white"/>
<path d="M27.9999 5C15.2962 5 4.99668 15.4958 5 28.439H10.8758C10.8758 18.739 18.4819 10.8747 27.9999 10.8747C37.5182 10.8747 45.1242 18.739 45.1242 28.439H51C51.0023 15.4958 40.7026 5 27.9999 5Z" fill="white"/>
</svg>
