<svg width="38" height="38" viewBox="0 0 38 38" fill="none" xmlns="http://www.w3.org/2000/svg">
<path d="M29.7918 3.33089C28.107 3.79105 26.823 5.08988 26.3851 6.78949C26.2441 7.35355 26.2441 8.42972 26.3925 9.05316C26.6968 10.3594 27.6765 11.584 28.8789 12.1555C29.2203 12.3188 29.6508 12.4821 29.8363 12.5266C32.3894 13.1203 34.9277 11.6211 35.5957 9.12738C35.759 8.49652 35.7664 7.39066 35.6031 6.75238C35.2023 5.19378 34.0519 3.96917 32.4562 3.40511C31.8179 3.17503 30.4968 3.13792 29.7918 3.33089ZM33.1019 6.35902C33.2133 6.50003 33.2429 6.61878 33.2133 6.75238C33.1613 6.97503 30.534 9.63207 30.3113 9.69144C30.2222 9.71371 30.0515 9.68402 29.9402 9.62464C29.6879 9.49105 28.9308 8.71917 28.8047 8.47425C28.6859 8.2516 28.8343 7.93988 29.109 7.80628C29.3539 7.68753 29.5172 7.76175 29.9328 8.14769L30.2074 8.41488L31.3429 7.28675C32.3226 6.30707 32.5008 6.15863 32.7086 6.15863C32.8718 6.15863 32.9906 6.218 33.1019 6.35902Z" fill="#8A2BE2"/>
<path d="M16.1797 4.53477C10.784 5.14336 6.175 8.73555 4.275 13.8195C3.93359 14.7398 3.67383 15.7641 3.51797 16.8477C3.33242 18.1168 3.40664 20.4844 3.66641 21.709C4.80937 27.1195 8.88398 31.3871 14.2129 32.7602C15.8012 33.1684 15.868 33.1758 24.2918 33.1758H32.0625V33.9922C32.0625 34.4375 32.0848 34.8086 32.107 34.8086C32.159 34.8086 36.8422 30.8008 36.8719 30.7266C36.8941 30.6672 32.2184 26.6445 32.1219 26.6445C32.0922 26.6445 32.0625 26.9934 32.0625 27.4238V28.2105L24.2176 28.1883L16.3652 28.1586L15.6156 27.9656C11.9715 27.0008 9.33672 24.2547 8.55742 20.6105C8.37187 19.757 8.3793 17.8645 8.55742 17.0109C9.18086 14.1461 10.977 11.8008 13.5523 10.4871C14.9402 9.77461 16.2168 9.47031 17.7754 9.47031C19.3562 9.47031 20.6105 9.77461 22.043 10.5094C24.6109 11.823 26.3625 14.1535 26.9859 17.0777C27.1715 17.9387 27.1715 19.6977 26.9934 20.5586C26.7113 21.8797 26.2512 22.9855 25.4719 24.1582C24.9746 24.9078 23.698 26.1547 22.9187 26.6445C22.5625 26.8672 22.273 27.075 22.2656 27.1047C22.2656 27.1418 23.891 27.1641 25.8875 27.1641H29.502L29.9398 26.4812C30.7859 25.1676 31.5207 23.3715 31.8398 21.8203C32.352 19.3117 32.2109 16.677 31.4242 14.302L31.2312 13.7305H30.8305C29.8508 13.7305 28.5816 13.3074 27.7059 12.6988C25.791 11.348 24.8855 9.16602 25.2789 6.82812C25.3234 6.56836 25.316 6.56836 24.7742 6.27148C22.9781 5.2918 21.2488 4.74258 19.282 4.53477C18.4582 4.43828 16.9961 4.4457 16.1797 4.53477Z" fill="#8A2BE2"/>
<path d="M16.5434 12.6172L16.3801 13.352L16.0016 13.4781C15.7937 13.5449 15.4598 13.6859 15.2594 13.7824L14.9031 13.9605L14.2871 13.5895C13.9531 13.3816 13.6414 13.2109 13.6117 13.2109C13.5746 13.2109 13.2184 13.5375 12.825 13.9309L12.1051 14.6582L12.5059 15.3113L12.9066 15.957L12.6988 16.3875C12.5801 16.6176 12.4391 16.9516 12.3945 17.1223L12.298 17.434L11.5707 17.5973L10.8359 17.7605V18.8219V19.8758L11.5559 20.0539L12.2832 20.232L12.4762 20.7441C12.5801 21.0336 12.7211 21.3676 12.7805 21.4863C12.8992 21.709 12.8918 21.7164 12.5059 22.3473L12.1125 22.9855L12.8621 23.7352L13.6191 24.4848L14.25 24.0914L14.8809 23.698L15.2148 23.8613C15.4004 23.9504 15.7344 24.084 15.957 24.1582L16.3652 24.2844L16.5359 25.0191L16.7066 25.7539H17.768H18.8219L19 25.0191L19.1707 24.2918L19.5566 24.1656C19.7645 24.0988 20.091 23.9652 20.284 23.8762L20.6328 23.698L21.2785 24.0914L21.9316 24.4848L22.659 23.7648C23.0523 23.3715 23.3789 23.0152 23.3789 22.9855C23.3789 22.9484 23.2082 22.6367 23.0078 22.2953L22.6293 21.6793L22.8148 21.323C22.9113 21.1227 23.0523 20.7961 23.1117 20.5957L23.2379 20.2246L23.9727 20.0539L24.7148 19.8832V18.8219V17.768L23.9801 17.6047L23.2379 17.434L23.1117 17.048C23.0449 16.8328 22.9039 16.4988 22.8074 16.3059L22.6293 15.9496L23.0078 15.3484C23.2082 15.0145 23.3789 14.7027 23.3789 14.6582C23.3789 14.5691 22.0355 13.2109 21.9391 13.2109C21.9094 13.2109 21.5977 13.3816 21.2562 13.582L20.6402 13.9605L20.284 13.7824C20.091 13.6859 19.757 13.5449 19.5418 13.4781L19.1633 13.352L18.9926 12.6172L18.8293 11.875H17.768H16.7066L16.5434 12.6172ZM18.8219 16.5508C19.2895 16.7809 19.809 17.3004 20.0391 17.768C20.2988 18.3023 20.3285 19.1188 20.1133 19.6828C19.8906 20.284 19.3562 20.848 18.7625 21.1152C17.5676 21.6496 16.15 21.1301 15.5266 19.9277C15.2594 19.4008 15.2148 18.5324 15.4301 17.9609C15.6898 17.2633 16.3207 16.6621 17.0258 16.432C17.4934 16.2762 18.3766 16.3355 18.8219 16.5508Z" fill="#8A2BE2"/>
<path d="M1.11328 30.7266V33.25H6.53125C9.51484 33.25 11.9492 33.2277 11.9492 33.1906C11.9418 33.1609 11.5188 32.9309 10.9992 32.6859C8.99531 31.7137 6.94688 30.0883 5.78906 28.552L5.5293 28.2105L3.325 28.2031H1.11328V30.7266Z" fill="#8A2BE2"/>
</svg>
