<?xml version="1.0" encoding="UTF-8"?>
<svg xmlns="http://www.w3.org/2000/svg" width="28" height="30" viewBox="0 0 28 30" fill="none">
  <path d="M18.5265 15.7462C17.809 14.503 16.8349 13.4433 15.5793 12.7452C14.078 14.3292 12.0097 15.2191 9.8269 15.2191C7.71857 15.2191 5.71373 14.3885 4.22217 12.8983L4.21803 12.8942C1.6116 14.7169 0 17.7014 0 20.9508V23.3792H0.00137979C0.00137979 23.64 0.212488 23.8511 0.47327 23.8511L12.9301 23.8925C12.8362 23.7297 12.7824 23.5393 12.7824 23.3378L12.7838 21.9056C12.7852 21.3344 13.2212 20.857 13.791 20.8059L14.6313 20.7314C14.7155 20.4831 14.8149 20.2416 14.9308 20.0056L14.4009 19.3709C14.0311 18.928 14.0394 18.2781 14.4506 17.8656L15.444 16.868C15.8525 16.4582 16.5051 16.4085 16.9522 16.7852L17.5993 17.3288C17.8311 17.2143 18.0684 17.115 18.314 17.0322L18.3885 16.1933C18.4023 16.0332 18.4506 15.8828 18.5237 15.749L18.5265 15.7462ZM4.67061 2.13592C7.5185 -0.711974 12.1367 -0.711974 14.9846 2.13592C17.8325 4.98382 17.8325 9.60199 14.9846 12.4499C12.1367 15.2978 7.5185 15.2978 4.67061 12.4499C1.82271 9.60199 1.82271 4.98382 4.67061 2.13592ZM20.9356 15.8042C21.1798 15.8042 21.3868 15.9904 21.4075 16.2374L21.5207 17.5124C22.0105 17.6365 22.4741 17.8297 22.9032 18.0863L23.8801 17.2654C24.0664 17.1095 24.3437 17.1191 24.519 17.2943L25.529 18.3071C25.6987 18.4782 25.7139 18.7528 25.5566 18.9418L24.737 19.9242C24.9936 20.3575 25.1882 20.8252 25.3123 21.3164L26.539 21.4255H26.5403C26.8025 21.4255 27.015 21.6379 27.015 21.9001V23.3323H27.0136C27.0136 23.5752 26.8287 23.7808 26.5817 23.8028L25.3137 23.916C25.1895 24.4072 24.995 24.8749 24.7383 25.3082L25.5428 26.2727C25.7139 26.4576 25.7097 26.7459 25.5303 26.9267L24.5369 27.9243C24.3672 28.1119 24.0788 28.1326 23.8829 27.9698L22.906 27.1488C22.4755 27.4055 22.0132 27.5987 21.5234 27.7228L21.4117 28.9895C21.3951 29.2365 21.1895 29.431 20.9384 29.431H19.4965C19.2523 29.431 19.0453 29.2447 19.0246 28.9978L18.9115 27.7228C18.4216 27.5987 17.958 27.4055 17.5289 27.1488L16.552 27.9698C16.3657 28.1257 16.0884 28.1161 15.9132 27.9408L14.9032 26.9281C14.7334 26.757 14.7183 26.4824 14.8756 26.2934L15.6952 25.311C15.4385 24.8777 15.244 24.4099 15.1198 23.9187L13.8932 23.8097H13.8918C13.6296 23.8097 13.4171 23.5972 13.4171 23.3351L13.4185 21.9029C13.4185 21.66 13.6034 21.4544 13.8504 21.4324L15.1184 21.3192C15.2426 20.828 15.4371 20.3603 15.6938 19.927L14.8894 18.9625C14.7183 18.7776 14.7224 18.4892 14.9018 18.3085L15.8952 17.3109C16.0649 17.1233 16.3533 17.1026 16.5493 17.2654L17.5262 18.0863C17.9566 17.8297 18.4189 17.6365 18.9087 17.5124L19.0205 16.2457C19.037 15.9987 19.2426 15.8042 19.4937 15.8042H20.9356ZM21.3772 24.2678C22.3968 23.5434 22.5196 22.074 21.6393 21.1909C21.2751 20.8252 20.7728 20.599 20.2181 20.599V20.6003C19.0991 20.6003 18.2023 21.5013 18.2023 22.6176C18.2023 23.7352 19.0964 24.6321 20.2154 24.6321C20.6266 24.6321 21.035 24.5107 21.3785 24.2664L21.3772 24.2678Z" fill="#8E27E0"></path>
</svg>
