<?xml version="1.0" encoding="UTF-8"?>
<svg xmlns="http://www.w3.org/2000/svg" width="28" height="27" viewBox="0 0 28 27" fill="none">
  <path d="M13.9955 8.53953e-05C13.1991 8.53953e-05 12.545 0.654236 12.545 1.45062C12.545 2.09494 12.9738 2.64626 13.559 2.83333V5.9992H12.5581V4.10237C12.5581 3.95578 12.4837 3.81796 12.3612 3.73809L11.0113 2.84327H11.0102C10.915 2.77982 10.7969 2.75685 10.6842 2.77873C10.5704 2.8017 10.4709 2.86952 10.4064 2.96579C10.3418 3.06315 10.3188 3.18129 10.3418 3.29506C10.3648 3.40992 10.4326 3.50947 10.53 3.57401L11.683 4.33866V6.15457L8.3443 9.49323H4.36462L4.36352 7.66091C4.95861 7.47823 5.39727 6.92143 5.39727 6.27056C5.39727 5.47418 4.74091 4.82003 3.94455 4.82003C3.1482 4.82003 2.49402 5.47418 2.49402 6.27056C2.49402 6.9083 2.91299 7.45637 3.48839 7.64999V9.93407V9.93298C3.48839 10.0489 3.53543 10.1605 3.61747 10.2426C3.69952 10.3246 3.8111 10.3706 3.92706 10.3695H8.08401V11.4349H6.25278C6.13683 11.4349 6.02525 11.4809 5.9432 11.5618C5.86115 11.6439 5.81411 11.7555 5.81411 11.8714C5.81302 11.9874 5.85896 12.1 5.9421 12.1821C6.02414 12.2652 6.13682 12.3112 6.25278 12.3101H8.084V13.101H5.37986L4.2761 12.0475V12.0486C4.19406 11.9721 4.08576 11.9283 3.9731 11.9294H2.82338C2.62867 11.3573 2.085 10.9416 1.45053 10.9416C0.65415 10.9416 0 11.5958 0 12.3921C0 13.1885 0.65415 13.8449 1.45053 13.8449C2.10359 13.8449 2.6604 13.4029 2.83979 12.8046H3.79807L4.90292 13.8547C4.98387 13.9324 5.09108 13.9761 5.20374 13.9772H8.0851V14.8075H4.95114C4.83628 14.8075 4.72689 14.8524 4.64483 14.9333L3.16257 16.4035H3.16148C3.07943 16.4856 3.03349 16.5971 3.03349 16.7131C3.03349 16.8291 3.07943 16.9406 3.16148 17.0227C3.33213 17.1933 3.60781 17.1955 3.77844 17.026L5.1316 15.6826H8.08408V16.7033H5.61621C5.50135 16.7033 5.39087 16.7492 5.3099 16.8302L4.09567 18.028H2.8322C2.64514 17.4427 2.09491 17.0139 1.45059 17.0139C0.654205 17.0139 5.43282e-05 17.6681 5.43282e-05 18.4645C5.43282e-05 19.2608 0.654205 19.9183 1.45059 19.9183C2.09382 19.9183 2.64404 19.4883 2.83111 18.9042H4.27288V18.9031C4.38774 18.9031 4.49823 18.8583 4.58028 18.7773L5.79782 17.5795H8.08521V18.6964H6.22774C6.09647 18.6953 5.97177 18.7533 5.88864 18.8539L4.25653 20.8514C4.10994 20.8011 3.95243 20.7737 3.78942 20.7737C2.99303 20.7737 2.33888 21.4279 2.33888 22.2242C2.33888 23.0206 2.99303 23.677 3.78942 23.677C4.5858 23.677 5.24323 23.0206 5.24323 22.2242C5.24323 21.9059 5.13712 21.6095 4.95991 21.3699L6.4345 19.5693H8.08521V20.4805L8.08411 20.4794C8.08411 20.5965 8.13006 20.7081 8.21319 20.7912C8.29524 20.8733 8.40682 20.9192 8.52387 20.9192H11.566V22.8631L9.64723 23.829C9.54331 23.8815 9.46564 23.9723 9.42845 24.0828C9.39235 24.1933 9.4011 24.3136 9.45361 24.4175C9.56191 24.6319 9.82335 24.7184 10.0388 24.6112L12.1993 23.526C12.3481 23.4516 12.4411 23.2996 12.4411 23.1344V20.9192H13.5591V24.0851C12.9738 24.2721 12.545 24.8224 12.545 25.4667C12.545 26.2631 13.1991 26.9172 13.9955 26.9172C14.7919 26.9172 15.4493 26.2631 15.4493 25.4667C15.4493 24.8235 15.0194 24.2732 14.4353 24.0862L14.4342 20.9192H15.4647V23.1344C15.4647 23.2503 15.5117 23.3619 15.5937 23.4439C15.6769 23.526 15.7884 23.5719 15.9044 23.5708C16.1451 23.5697 16.3398 23.375 16.3398 23.1344V20.9192H19.4805C19.7222 20.9181 19.9169 20.7212 19.9158 20.4794V19.5944H21.5567L23.0379 21.3775C22.876 21.6116 22.7819 21.8939 22.7819 22.1969C22.7819 22.9932 23.4361 23.6474 24.2325 23.6474C25.0288 23.6474 25.6863 22.9932 25.6863 22.1969C25.6863 21.4005 25.0288 20.7463 24.2325 20.7463C24.0563 20.7463 23.8857 20.7791 23.7292 20.8382L22.1004 18.8768L22.0993 18.8779C22.0162 18.7773 21.8937 18.7193 21.7635 18.7193H19.9159V17.8114H21.7383C21.8543 17.8124 21.9658 17.7665 22.0479 17.6845C22.131 17.6024 22.177 17.4908 22.177 17.3749C22.1781 17.2589 22.131 17.1462 22.049 17.0642C21.9669 16.9811 21.8543 16.9351 21.7383 16.9362H19.9159V16.142H22.5872L23.6921 17.1823C23.773 17.2589 23.8813 17.3016 23.9929 17.3016H25.0529C25.24 17.8868 25.7902 18.3156 26.4345 18.3156C27.2309 18.3156 27.885 17.6615 27.885 16.8651C27.885 16.0687 27.2309 15.4146 26.4345 15.4146C25.7902 15.4146 25.2389 15.8434 25.0529 16.4286H24.1679L23.0641 15.385H23.0631C22.981 15.3084 22.8738 15.2658 22.7622 15.2658H19.9159V14.4322H22.9613C23.0784 14.4322 23.19 14.3863 23.272 14.3031L24.7422 12.8395V12.8406C24.8243 12.7585 24.8713 12.6469 24.8713 12.5299C24.8713 12.4139 24.8243 12.3023 24.7422 12.2203C24.6602 12.1371 24.5486 12.0912 24.4316 12.0912C24.3167 12.0912 24.2062 12.1382 24.1253 12.2203L22.7819 13.5581H19.916V12.5244H22.2843C22.3926 12.5244 22.4976 12.4839 22.5786 12.4106L23.8891 11.2128H25.1689C25.3571 11.7969 25.9062 12.2236 26.5495 12.2236C27.3458 12.2236 28 11.5694 28 10.773C28 9.97666 27.3458 9.32251 26.5495 9.32251C25.9051 9.32251 25.3538 9.75131 25.1678 10.3366H23.7173L23.7184 10.3377C23.6101 10.3366 23.5051 10.377 23.4241 10.4503L22.1125 11.6482H19.9159V10.4044H21.8029C21.9495 10.4044 22.0874 10.3311 22.1683 10.2086L23.7654 7.79539C23.8628 7.81618 23.9634 7.82821 24.0673 7.82821C24.8637 7.82821 25.5179 7.17406 25.5179 6.37768C25.5179 5.58129 24.8637 4.92714 24.0673 4.92714C23.271 4.92714 22.6135 5.58129 22.6135 6.37768C22.6135 6.75618 22.7623 7.10293 23.004 7.36219L21.5677 9.53033H19.917L19.9159 6.43783C19.917 6.19717 19.7223 6.00026 19.4806 5.99917H16.434V4.33861L17.587 3.57395C17.6843 3.50941 17.7522 3.40986 17.7751 3.295C17.7981 3.18124 17.7751 3.06309 17.7106 2.96573C17.646 2.86947 17.5465 2.80164 17.4327 2.77867C17.3179 2.7557 17.1997 2.77867 17.1024 2.84321L15.7558 3.73803C15.6332 3.81898 15.5589 3.95572 15.5589 4.10231V5.99915H14.4343V2.83215C15.0195 2.64509 15.4484 2.09376 15.4484 1.45053C15.4484 0.65415 14.7909 0 13.9946 0L13.9955 8.53953e-05ZM12.8228 8.03701H17.6558C17.7717 8.03701 17.8844 8.08296 17.9665 8.165C18.0485 8.24814 18.0955 8.35972 18.0944 8.47677V18.5583V18.5572C18.0934 18.7989 17.8975 18.9948 17.6558 18.9937H10.3461C10.1044 18.9948 9.90747 18.7989 9.90638 18.5572V10.9577C9.90638 10.8406 9.95232 10.7291 10.0355 10.647L12.5132 8.16601C12.5952 8.08396 12.7058 8.03701 12.8228 8.03701ZM13.0077 8.91214L10.7827 11.1372L10.7816 18.1217H17.2181V8.91195L13.0077 8.91214Z" fill="white"></path>
</svg>
