<?xml version="1.0" encoding="UTF-8"?>
<!DOCTYPE svg  PUBLIC '-//W3C//DTD SVG 1.1//EN'  'http://www.w3.org/Graphics/SVG/1.1/DTD/svg11.dtd'>
<svg enable-background="new 0 0 2620.712 1249.92" version="1.1" viewBox="0 0 2620.7 1249.9" xml:space="preserve" xmlns="http://www.w3.org/2000/svg">

	
		
			
				
					<path d="m577.39 138.9c15.357-0.7 17.095 0.928 20.414-2.501 3.168-3.207 3.387-8.246 0.145-11.486-7.872-7.87-33.603 6.4-38.384-15.211-2.602-9.11 4.738-18.77 14.588-19.593 8.317-0.509 14.772-0.438 22.058-0.218 9.111 0.442 23.699-2.524 28.317 10.489 1.824 4.012-0.101 9.442 4.07 12.317 4.493 3.955 12.485 1.1 13.676-4.716 2.127-17.612-13.316-34.298-31.223-34.413-31.134 0.02-47.031-3.272-60.17 10.087-21.551 21.826-0.311 57.58 26.509 55.245z" fill="#525252"/>
				
				
					<path d="m650.93 89.968c14.426-0.018 24.957-1.759 30.56 7.62 6.108 9.252 0.585 25.171-16.373 24.923-10.727-0.087-21.471 0.154-32.185-0.116-8.413-0.174-15.638-7.591-15.431-15.837 0.974-11.523-17.729-11.079-16.9-0.068-0.805 16.406 13.214 31.413 29.872 32.359l38.262 0.03c22.618-0.701 38.473-25.224 29.961-44.745-4.697-12.52-17.953-21.278-31.654-20.563-6.127 0.251-12.381-0.521-18.433 0.406-9.25 2.77-6.834 16.415 2.321 15.991z" fill="#424242"/>
				
			
			
				
					<path d="m884.48 123.86c11.304 17.618 28.473 14.988 46.1 14.972 10.363-0.93 9.766-18.15-3.659-16.322-7.122-0.415-14.68 1.186-21.39-1.708-6.747-3.087-10.707-11.132-8.695-18.261 3.387-13.219 16.289-12.491 22.603-12.598 23.405 0.098 38.926-2.801 42.718 11.827 1.187 3.463-0.084 7.92 3.277 10.467 4.2 4.476 12.529 1.968 14.045-3.82 2.27-17.676-13.655-36.019-34.275-34.844-12.414 0.232-24.895-0.492-37.276 0.377-23.477 3.289-36.262 30.447-23.448 49.91z" fill="#B3B3B3"/>
				
				
					<path d="m987.28 89.946c15.166 9e-3 25.329-1.673 31.095 7.254 7.208 10.16-0.193 25.064-13.761 25.255-11.33 0.067-22.67 0.135-33.998-0.039-8.485-0.106-16.003-7.476-15.823-15.85 0.44-10.633-15.721-11.75-17.047-1.129-0.626 18.897 15.443 34.149 33.362 33.436 29.733-0.016 51.245 4.208 62.954-17.21 11.703-20.826-3.035-46.826-27.047-48.109-21.042 0-20.269-0.223-22.204 0.656-8.16 3.279-5.949 15.391 2.469 15.736z" fill="#ABABAB"/>
				
			
			
				
					<polygon points="789.26 162.05 740.3 134.12 741.26 78.257 790.12 106.19" fill="#505050"/>
					<path d="m790.2 163.69-50.872-29.022 0.989-58.06 50.772 29.021-0.889 58.061zm-48.924-30.133 47.044 26.839 0.822-53.658-46.952-26.838-0.914 53.657z" fill="#D9D9D9"/>
				
				
					<polygon points="839.08 134.12 789.26 162.05 790.12 106.19 839.84 78.255" fill="#606060"/>
					<path d="m788.27 163.71 0.89-58.09 51.662-29.023-0.79 58.092-51.762 29.021zm2.802-56.951-0.822 53.629 47.867-26.837 0.73-53.631-47.775 26.839z" fill="#D9D9D9"/>
				
				
					<polygon points="790.12 106.19 741.26 78.257 790.98 50.326 839.84 78.255" fill="#4C4C4C"/>
					<path d="m790.11 107.3-50.814-29.045 51.679-29.033 50.815 29.045-51.68 29.033zm-46.901-29.031 46.91 26.813 47.757-26.829-46.91-26.814-47.757 26.83z" fill="#353535"/>
				
			
			
				
					<polygon points="1127.3 162.05 1078 134.12 1078.3 78.253 1127.5 106.19" fill="#4A4A4A"/>
					<path d="m1128.2 163.7-51.211-29.026 0.309-58.079 51.111 29.025-0.209 58.08zm-49.276-30.147 47.359 26.842 0.194-53.653-47.267-26.841-0.286 53.652z" fill="#525252"/>
				
				
					<path d="m1174.8 135.15c-11.933 6.037-9.66 5.522-47.575 26.906l0.202-55.866c16.235-9.174 30.925-17.808 51.251-26.772l-3.878 55.732z" fill="#A6A6A6"/>
					<path d="m1126.3 163.71 0.21-58.085c17.688-9.998 30.714-17.777 53.288-27.736l-4.028 57.874c-14.074 7.118-15.214 8.622-49.47 27.947zm2.135-56.958-0.194 53.647c32.717-18.53 34.165-20.039 45.679-25.864l3.729-53.591c-19.442 8.581-38.044 19.494-49.214 25.808z" fill="#606060"/>
				
				
					<path d="m1127.5 106.19-49.189-27.933 49.391-27.933c37.844 21.507 37.993 20.834 51.05 29.094-20.396 8.996-35.135 17.665-51.252 26.772z" fill="#616161"/>
					<path d="m1127.5 107.3-51.144-29.044 51.348-29.04c35.215 19.896 38.131 20.894 53.094 30.355-23.02 10.155-36.456 18.209-53.298 27.729zm-47.231-29.04 47.234 26.822c27.261-15.409 27.425-15.609 49.205-25.815-11.69-7.402-18.317-10.396-49.006-27.833l-47.433 26.826z" fill="#393939"/>
				
			
		
		
			
				
					<path d="m1226.4 143.03c6.989 5.926 12.518 6.264 21.367 8.51 5.164 1.307 14.9 5.293 17.106-4.034 1.298-4.082-1.329-8.789-5.379-9.883-5.61-1.411-11.222-2.823-16.828-4.233-11.927-3.446-16.758-19.872-5.802-28.289 7.618-5.809 13.235-3.869 38.425 3.144 33.047 9.479 15.25 22.956 20.78 30.409 3.081 5.282 11.24 5.154 14.264 0.177 4.534-9.038 3.528-19.579-1.499-28.343-7.158-12.071-15.517-15.459-50.416-23.606-43.373-9.775-56.97 35.27-32.018 56.148z" fill="#484848"/>
				
				
					<path d="m1319.9 120.46c3.298 7.434 19.941 7.506 27.153 16.274 4.682 5.673 4.873 13.019 1.069 18.764-9.057 13.665-23.2 4.706-36.558-0.595-14.016-5.757-19.304-5.891-23.034-13.765-1.745-3.679-2.273-7.97-0.996-11.877 4.652-11.684-20.089-20.482-17.29 7.032 1.251 12.283 9.185 23.599 19.404 27.777 34.221 12.502 38.415 18.611 54.123 13.9 30.806-9.412 38.856-55.561-15.671-68.749-5.758-0.642-11.026 4.975-8.2 11.239z" fill="#939393"/>
				
			
			
				
					<path d="m1496.2 299.06c1.987 11.551 7.547 14.887 17.901 28.372 3.587 3.812 11.186 2.227 13.109-2.896 5.288-11.231-21.273-19.677-13.764-37.894 4.032-9.748 15.389-12.172 22.878-7.434 4.28 2.338 14.669 15.94 17.584 19.764 6.655 8.601 17.244 19.97 8.04 30.873-2.142 2.977-6.503 4.522-6.677 8.707-1.341 5.989 5.217 11.348 10.898 9.439 10.741-5.264 18.449-18.66 15.492-33.78-1.877-9.319-5.486-13.103-13.234-23.163-15.45-20.016-21.661-29.145-37.418-31.031-21.825-2.388-38.563 17.6-34.809 39.043z" fill="#505050"/>
				
				
					<path d="m1585.9 344.6c8.599 13.48 14.768 21.915 9.947 31.162-5.37 11.341-22.097 11.823-28.612 0.708-17.689-29.162-21.32-30.549-19.689-39.637 0.722-4.025 2.856-7.838 6.287-10.237 3.622-2.408 4.791-7.794 2.198-11.52-7.589-12.601-27.642 6.76-25.042 28.996 1.221 10.887 4.241 10.361 23.423 43.023 20.781 30.646 81.044 8.706 51.074-41.921-5.852-9.763-6.092-10.155-7.737-11.282-7.324-5.5-16.183 3.203-11.849 10.708z" fill="#8F8F8F"/>
				
			
			
				
					<path d="m1406 253.37c-6.368-17.055-13.665-33.219-21.655-48.747l29.488-47.45c9.672 16.873 18.289 33.937 25.898 51.663l-33.731 44.534z" fill="#C5C5C5"/>
					<path d="m1405.7 255.35c-6.786-18.179-13.664-33.656-22.473-50.773l30.629-49.287c10.268 17.907 18.719 34.448 26.972 53.68l-35.128 46.38zm-20.257-50.683c8.453 16.434 15.999 33.77 20.837 46.722l32.332-42.689c-6.92-16.135-16.087-34.405-24.823-49.647l-28.346 45.614z" fill="#B6B6B6"/>
				
				
					<path d="m1458.8 261c-17.713-3.695-34.838-5.979-52.855-7.637l33.731-44.534c19.167 2.691 37.561 5.989 56.743 10.868l-37.619 41.303z" fill="#626262"/>
					<path d="m1459.2 262.06c-22.918-4.776-40.502-6.556-55.014-7.892l35.121-46.37c13.769 1.933 33.094 4.785 58.965 11.363l-39.072 42.899zm-51.38-9.495c20.929 1.927 33.073 4.036 50.696 7.382l36.164-39.707c-17.259-4.393-36.441-7.834-54.52-10.373l-32.34 42.698z" fill="#6F6F6F"/>
				
				
					<path d="m1439.7 208.83c-7.622-17.765-16.285-34.893-25.898-51.663 20.311 1.292 40.014 3.642 59.628 7.129 8.728 18.44 16.392 36.289 23.012 55.403-19.197-4.884-37.598-8.181-56.742-10.869z" fill="#ABABAB"/>
					<path d="m1497.9 221.08c-23.081-5.733-37.616-8.374-58.912-11.364-8.277-19.301-16.819-35.949-26.954-53.62 20.646 1.311 39.956 3.418 62.018 7.343 6.344 13.406 14.942 31.915 23.848 57.641zm-57.567-13.123c23.335 3.277 34.966 5.788 54.572 10.372-7.171-20.702-15.962-40.042-22.173-53.164-17.358-3.087-38.467-5.722-57.239-6.915 8.771 15.327 17.848 33.42 24.84 49.707z" fill="#B9B9B9"/>
				
			
			
				
					<path d="m1576.2 496.35c5.164-17.769 8.912-34.844 11.506-51.773l51.773-20.991c-1.964 18.726-5.107 37.468-9.663 57.065l-53.616 15.699z" fill="#AFAFAF"/>
					<path d="m1574.8 497.77c5.123-17.671 9.008-34.037 12.052-53.882l53.771-21.8c-2.191 20.85-5.241 38.902-9.981 59.331l-55.842 16.351zm13.793-52.506c-2.48 16.157-6.439 34.031-10.959 49.665l51.386-15.046c4.55-19.644 7.735-39.392 9.349-54.8l-49.776 20.181z" fill="#585858"/>
				
				
					<path d="m1613.7 533.64c-12.157-13.824-24.611-26.046-37.525-37.296l53.615-15.699c13.457 13.077 26.346 27.149 38.868 42.964l-54.958 10.031z" fill="#9E9E9E"/>
					<path d="m1613.4 534.69c-13.714-15.586-25.8-27.166-39.125-38.774l55.847-16.352c14.737 14.315 27.155 28.024 40.352 44.709l-57.074 10.417zm-35.199-37.913c11.198 9.738 24.663 23.01 35.926 35.818l52.842-9.644c-9.772-12.347-23.21-27.444-37.384-41.22l-51.384 15.046z" fill="#BFBFBF"/>
				
				
					<path d="m1629.8 480.65c4.51-19.386 7.681-38.162 9.664-57.065 15.754 13.022 30.164 26.749 43.952 41.366-3.706 19.812-8.477 39.17-14.748 58.663-12.445-15.718-25.326-29.805-38.868-42.964z" fill="#6D6D6D"/>
					<path d="m1669.1 525.63c-12.86-16.234-24.939-29.745-40.297-44.667 4.74-20.433 7.77-38.41 9.956-59.266 16.578 13.706 30.481 26.748 45.762 42.95-4.233 22.642-9.05 41.178-15.421 60.983zm-38.172-45.292c14.218 13.81 27.885 29.183 37.44 41.262 4.733-14.695 10.1-35.138 14.075-56.344-14.835-15.727-30.347-30.037-42.142-39.781-1.629 15.517-4.809 35.169-9.373 54.863z" fill="#464646"/>
				
			
		
		
			
				
					<path d="m1617.5 589.19c-2.946 8.248-1.012 11.862-1.586 26.838-0.618 9.617 16.212 10.964 16.37 0.221 0.167-3.255-0.017-2.693 0.033-17.312 0.285-19.813 30.861-22.143 32.394-0.538 4.171 72.638-21.21 41.023-26.985 56.284-4.442 11.333 15.113 17.664 29.311 7.512 4.357-3.208 6.959-7.806 9.6-12.69 6.798-12.57 4.505-53.655 3.938-56.533-5.474-34.163-52.48-35.849-63.075-3.782z" fill="#646464"/>
				
				
					<path d="m1660.6 673.66c-7.926 5.057-8.253 26.665-22.969 31.312-13.209 4.171-25.449-12.217-17.418-25.621 9.163-16.752 7.688-25.308 12.573-30.97 9.959-11.284 14.341-4.339 20.056-8.604 7.169-5.399 3.975-20.93-16.614-13.514-15.704 5.588-20.284 18.523-22.243 22.782-4.958 20.512-9.191 22.362-11.135 28.921-5.017 16.586 7.27 46.937 31.406 45.534 26.07-1.657 41.08-39.326 36.697-47.377-2.012-3.658-6.202-4.976-10.353-2.463z" fill="#636363"/>
				
			
			
				
					<path d="m1449.2 698.76c-3.125-4.65-5.106-5.284-7.249-8.03-4.347-4.944-4.772-7.568-10.443-6.27-4.897 1.132-8.088 4.901-7.459 9.065 1.299 7.584 16.597 12.433 14.877 26.962-0.156 11.275-15.595 20.369-27.178 9.244-9.195-8.52-27.13-29.807-24.5-42.518 2.162-11.241 12.118-9.317 14.361-15.215 2.152-3.721 0.464-8.539-3.283-10.864-8.868-5.697-56.853 15.19-3.532 74.885 10.761 11.793 21.345 15.888 22.346 15.311 0.113-0.467 0.149-0.576 0.599-1.142 0 0 9.332 3.065 18.849-0.602 14.495-5.581 26.766-30.069 12.612-50.826z" fill="#8D8D8D"/>
				
				
					<path d="m1374.6 656.07c-2.909-14.877-5.792-26.078 2.499-32.963 9.212-8.37 24.75-2.735 26.706 10.258 4.106 29.196 7.381 30.454 6.455 36.575-1.687 12.877-12.327 12.522-14.722 18.269-1.405 3.256-0.278 7.252 2.119 9.527 10.952 10.269 33.869-19.62 27.939-38.463-6.669-25.243-3.109-45.226-25.89-54.608-14.819-6.289-33.76-0.297-41.562 16.205-4.844 10.362-3.004 17.802-1.634 27 1.939 11.565 1.973 12.231 3.23 14.157 5.002 8.277 16.2 3.256 14.86-5.957z" fill="#6E6E6E"/>
				
			
			
				
					<path d="m1526.6 700.03c11.368 8.474 27.535 13.003 41.73 14.792l26.846 48.994c-19.653 0.929-41.774-1.155-59.865-8.602l-8.711-55.184z" fill="#D1D1D1"/>
					<path d="m1534.5 755.9-9.166-58.056c13.025 9.696 27.727 14.013 43.662 16.084l27.825 50.78c-21.022 0.918-43.019-0.863-62.321-8.808zm1.735-1.38c14.764 5.754 34.798 9.343 57.41 8.405l-25.867-47.207c-15.26-1.997-26.655-5.618-39.823-13.65l8.28 52.452z" fill="#676767"/>
				
				
					<path d="m1492.5 726.6c13.767-5.752 25.002-15.127 34.17-26.572l8.711 55.183c-16.482 12.669-34.543 21.811-55.157 25.89l12.276-54.501z" fill="#E5E5E5"/>
					<path d="m1478.9 782.34 12.712-56.437c15.396-6.437 25.351-15.466 35.613-28.184l9.141 57.91c-17.814 13.562-34.831 22.202-57.466 26.711zm14.375-55.041-11.841 52.567c19.691-4.102 36.975-13.011 52.848-25.069l-8.283-52.466c-9.282 11.351-21.431 20.235-32.724 24.968z" fill="#ABABAB"/>
				
				
					<path d="m1535.3 755.22c18.094 7.45 40.205 9.531 59.865 8.602-15.828 21.306-34.497 37.204-51.153 46.581-23.019-5.67-45.154-14.588-63.868-29.294 20.444-4.04 38.556-13.127 55.156-25.889z" fill="#8D8D8D"/>
					<path d="m1544.2 811.43c-25.409-6.393-45.789-14.821-66.258-30.855 23.014-4.59 39.627-13.037 57.259-26.459 19.723 8.091 41.678 9.539 62.003 8.646-14.514 19.398-31.723 36.672-53.004 48.668zm-61.759-29.796c19.336 14.108 38.04 21.827 61.474 27.74 17.215-10.001 34.97-25.447 49.309-44.492-22.362 0.908-42.893-2.772-57.722-8.564-15.841 12.038-31.775 20.327-53.061 25.316z" fill="#818181"/>
				
			
			
				
					<path d="m1412.1 493.42c-0.074 8.353-0.045 9.772-0.886 21.722-0.575-0.36-0.587-0.616-1.511-0.806 0.378 16.474-1.008 26.836-4.597 42.426l-54.507 12.251c5.298-14.533 7.618-21.34 10.639-52.48l50.862-23.113z" fill="#7F7F7F"/>
					<path d="m1349 570.34c6.38-17.721 8.216-23.297 11.244-54.456l52.745-23.969c-0.098 10.881-0.051 11.307-1.016 24.898l-1.361-0.854c0.173 17.292-1.286 26.044-4.791 41.61l-56.821 12.771zm3.022-2.657 52.192-11.73c4.126-18.383 4.635-26.234 4.409-42.813 1.369 0.288 1.164 0.223 1.648 0.396 0.691-10.11 0.703-11.984 0.762-18.614l-48.976 22.256c-2.824 29.017-5.011 36.51-10.035 50.505z" fill="#585858"/>
				
				
					<path d="m1358.7 457.52c19.383 9.901 36.586 21.242 53.322 35.897l-50.861 23.113c-15-11.003-30.359-19.189-47.452-25.891l44.991-33.119z" fill="#363636"/>
					<path d="m1361.1 517.64c-16.31-11.961-30.899-19.48-49.316-26.744l46.878-34.507c19.811 10.172 36.348 20.803 55.175 37.287l-52.737 23.964zm-45.357-27.263c16.326 6.479 31.871 14.982 45.586 25.04l48.985-22.26c-15.566-13.625-32.907-24.96-51.469-34.508l-43.102 31.728z" fill="#ACACAC"/>
				
				
					<path d="m1361.2 516.53c-2.828 29.114-4.75 36.319-10.639 52.48-8.038-7.513-13.814-12.229-23.947-16.877-1.795-2.422-1.856-2.573-3.003-4.379-7.284-4.78-7.875-5.077-13.273-8.111 3.608-16.235 4.406-32.183 3.41-49.004 17.021 6.673 32.387 14.842 47.452 25.891z" fill="#969696"/>
					<path d="m1351 570.71c-9.011-8.353-13.698-12.482-24.981-17.805-2.252-3.1-1.565-2.104-3.079-4.46-7.157-4.69-7.411-4.797-13.667-8.314 3.98-17.895 4.478-33.124 3.455-50.942 18.357 7.238 33.124 14.866 49.518 26.887-2.992 30.714-4.94 37.33-11.246 54.634zm-23.726-19.35c9.765 4.626 15.062 8.713 22.912 15.949 5.252-14.711 7.261-21.756 10.032-50.326-12.957-9.507-28.246-18.106-45.386-24.896 0.871 15.622-0.019 31.99-3.365 47.065 4.83 2.712 5.664 3.167 12.879 7.909 2.176 3.321 1.527 2.375 2.928 4.299z" fill="#C7C7C7"/>
				
			
		
		
			
				
					<path d="m1306.1 397.21c-10.281-7.725-22.069-18.386-27.263-8.874-8.287 12.449 21.629 16.799 23.955 32.906 2.39 15.221-15.665 22.702-25.724 15.324-27.231-20.435-39.575-20.304-32.532-40.679 3.991-11.599-16.447-20.178-18.27 4.342-0.911 12.289 4.848 26.033 14.913 31.914 26.265 15.336 32.619 28.037 54.391 22.246 27.628-7.046 33.613-40.206 10.53-57.179z" fill="#818181"/>
				
				
					<path d="m1219.7 405.8c-2.422-7.346-18.323-6.95-25.272-13.942-12.111-12.325-0.944-33.431 18.474-26.232 7.008 2.442 31.56 11.197 36.561 17.011 3.941 4.713 5.26 11.807 2.121 17.454-6.163 9.802 9.738 18.14 14.519 8.686 4.733-7.045 5.777-15.835 3.581-23.573-4.544-16.779-18.059-24.075-55.659-36.444-16.918-4.866-33.867 3.723-39.095 17.952-7.41 23.119 7.636 41.451 21.324 44.939 5.635 1.741 10.75 4.413 15.384 5.368 5.094 0.289 10.085-5.286 8.062-11.219z" fill="#717171"/>
				
			
			
				
					<path d="m990.03 348.84c-11.481-17.63-28.532-15.035-46.184-15.052-10.333 0.908-9.614 18.132 3.793 16.331 7.121 0.431 14.657-1.159 21.389 1.746 6.771 3.098 10.812 11.151 8.873 18.277-3.253 13.214-16.172 12.465-22.495 12.562-23.364-0.147-38.93 2.732-42.831-11.918-1.212-3.466 0.027-7.92-3.352-10.475-4.23-4.486-12.539-1.996-14.017 3.789-2.178 17.874 14.069 36.044 34.544 34.921 12.43-0.206 24.933 0.547 37.329-0.303 23.641-3.271 35.871-30.533 22.951-49.878z" fill="#727272"/>
				
				
					<path d="m887.53 382.56c-15.45-0.04-25.352 1.587-31.147-7.316-7.271-10.177 0.063-25.065 13.613-25.23 11.326-0.045 22.661-0.091 33.984 0.109 8.48 0.125 16.049 7.512 15.932 15.885-0.362 10.63 15.816 11.791 17.056 1.165 0.474-18.928-15.737-34.182-33.592-33.509-29.719-0.045-51.19-4.372-62.814 17.093-11.592 20.82 3.284 46.819 27.325 48.155 21.074 0.042 20.291 0.261 22.216-0.612 8.129-3.253 5.864-15.379-2.573-15.74z" fill="#717171"/>
				
			
			
				
					<path d="m1084.4 310.62c34.94 19.722 50.914 28.25 50.914 28.25l-2.899 55.791c-11.297-7.954-11.925-7.993-47.881-28.175l-0.134-55.866z" fill="#575757"/>
					<path d="m1133.3 396.46c-13.109-9.216-13.146-8.888-49.717-29.403l-0.14-58.087c26.241 14.805 52.674 29.247 52.877 29.364l-3.02 58.126zm-47.79-30.534c30.223 16.955 36.001 19.906 46.045 26.946l2.778-53.456s-17.581-9.441-48.952-27.137l0.129 53.647z" fill="#474747"/>
				
				
					<polygon points="1035.2 338.61 1084.4 310.62 1084.6 366.49 1035.2 394.48" fill="#5F5F5F"/>
					<path d="m1034.3 396.14-0.011-58.084 51.134-29.084 0.14 58.084-51.263 29.084zm1.918-56.962 0.01 53.649 47.402-26.894-0.13-53.649-47.282 26.894z" fill="#A2A2A2"/>
				
				
					<path d="m1084.6 366.49c35.987 20.199 36.555 20.202 47.881 28.175 0 0-9.569 6.01-47.746 27.691l-49.468-27.878 49.333-27.988z" fill="#A7A7A7"/>
					<path d="m1084.7 423.47-51.43-28.983 51.29-29.1c42.021 23.573 39.429 22.162 49.684 29.37 0 1e-3 -15.062 9.119-49.544 28.713zm-47.51-28.988 47.506 26.772c32.83-18.655 45.947-26.67 45.947-26.67-11.057-7.756-17.732-11.079-46.078-26.98l-47.375 26.878z" fill="#353535"/>
				
			
			
				
					<polygon points="747.13 310.38 796.59 338.27 796.58 394.13 747.25 366.25" fill="#8A8A8A"/>
					<path d="m797.54 395.79-51.263-28.977-0.118-58.083 51.388 28.976-7e-3 58.084zm-49.335-30.104 47.406 26.797 8e-3 -53.65-47.523-26.796 0.109 53.649z" fill="#D5D5D5"/>
				
				
					<polygon points="697.77 338.48 747.13 310.38 747.25 366.25 698.04 394.34" fill="#5A5A5A"/>
					<path d="m697.09 396-0.285-58.082 51.29-29.195 0.118 58.082-51.123 29.195zm1.65-56.964 0.264 53.65 47.278-26.999-0.109-53.65-47.433 26.999z" fill="#8C8C8C"/>
				
				
					<polygon points="747.25 366.25 796.58 394.13 747.36 422.11 698.04 394.34" fill="#B0B0B0"/>
					<path d="m747.36 423.22-51.272-28.873 51.153-29.211 51.293 28.994-51.174 29.09zm-47.361-28.884 47.356 26.668 47.266-26.869-47.375-26.78-47.247 26.981z" fill="#AEAEAE"/>
				
			
		
		
			
				
					<path d="m654.25 348.51c-11.568-16.795-28.121-14.254-45.308-14.052-10.706-0.261-10.776 16.597 0.339 16.368 12.531 0.013 31.42-3.167 33.606 13.684 1.748 9.095-6.129 18.195-15.421 18.617-33.314 0.824-43.196 2.839-48.917-8.509-2.329-3.712-1.21-12.873-10.113-12.908-15.383 0.696-8.072 23.265 8.658 33.769 9.466 5.943 10.915 4.531 50.506 4.087 1.565 0.048 3.139-0.16 4.7-0.443 23.491-3.637 35.74-31.106 21.95-50.613z" fill="#B9B9B9"/>
				
				
					<path d="m561.76 390.38c-6.018-4.699-18.105 4.664-28.411 3.213-15.853-2.235-21.46-25.946-0.278-32.036 20.288-6.171 49.814-15.397 51.614 6.156 0.36 11.665 18.171 9.577 16.901-0.779 0.081-17.419-15.193-32.984-40.578-28.692-37.901 6.902-48.257 11.529-55.436 24.533-10.759 19.935 3.346 41.597 22.929 46.39 10.359 2.885 16.544-0.238 23.56-2.219 8.306-1.794 10.876-2.559 12.432-6.267 1.445-3.454 0.615-7.78-2.733-10.299z" fill="#5C5C5C"/>
				
			
			
				
					<path d="m332.77 533.14c-4.987 14.942-7.632 20.014-2.742 24.66 4.882 4.658 13.037 1.299 14.278-7.453 1.71-4.54 2.848-9.498 4.526-13.71 6.072-14.032 18.671-13.558 24.953-8.537 13.137 9.968 3.8 19.677-2.824 49.417-1.399 5.306-6.696 11.475-14.166 12.329-3.614 0.706-7.834-1.169-10.888 1.918-7.507 5.482-1.407 24.541 24.715 10.204 8.291-4.625 15.391-13.221 16.756-22.66 5.156-25.924 16.864-36.785 3.11-57.083-14.659-21.628-46.734-20.644-57.718 10.915z" fill="#BABABA"/>
				
				
					<path d="m366.43 614.68c-0.607 14.199 2.248 23.024-6.238 29.608-9.147 7.749-23.151 3.72-25.996-9.672-1.462-8.655 0.022-29.257 1.006-38.555 0.705-8.157 9.022-15.859 17.969-14.147 10.221 2.142 14.59-12.684 4.695-16.42-15.32-4.263-31.046 3.723-37.235 20.514-3.099 8.784-5.448 47.055-0.429 59.568 13.66 34.058 63.553 19.433 62.669-13.594-0.019-0.835-0.271-18.244-0.634-18.996-3.039-7.107-15.138-6.291-15.807 1.694z" fill="#F3F3F3"/>
				
			
			
				
					<path d="m392.7 399.58c23.588-7.767 40.964-11.225 61.704-13.762l30.808 46.604c-19.64 0.878-32.319 2.175-53.862 7.496l-38.65-40.338z" fill="#CACACA"/>
					<path d="m431.04 440.98-40.095-41.846c25.321-8.339 41.896-11.657 63.935-14.355l32.076 48.522c-21.324 0.953-33.664 2.184-55.916 7.679zm-36.581-40.967 37.203 38.827c20.137-4.913 33.281-6.486 51.807-7.315l-29.54-44.685c-20.62 2.594-36.808 5.836-59.47 13.173z" fill="#E3E3E3"/>
				
				
					<path d="m376.37 460.62c3.396-21.892 9.287-43.049 16.332-61.046l38.651 40.338c-4.965 16.086-8.553 34.822-9.784 53.543l-45.199-32.835z" fill="#A9A9A9"/>
					<path d="m422.42 495.27-47.09-34.209c3.269-20.594 8.14-40.535 17.028-63.238l40.088 41.838c-6.263 20.294-8.822 37.744-10.026 55.609zm-45.003-35.077 43.307 31.461c1.256-17.685 4.963-36.632 9.543-51.477l-37.214-38.838c-6.042 15.433-12.116 36.755-15.636 58.854z" fill="#666"/>
				
				
					<path d="m431.35 439.92c21.616-5.34 34.389-6.626 53.862-7.496-8.142 18.74-11.396 29.713-15.211 47.834-14.129 1.972-31.096 6.279-48.435 13.204 1.223-18.623 4.793-37.375 9.784-53.542z" fill="#909090"/>
					<path d="m420.51 494.92c1.015-13.142 2.496-31.217 10.086-55.811 22.326-5.522 34.906-6.774 56.123-7.723-8.78 20.207-11.849 30.457-15.906 49.729-18.262 2.548-33.963 7.309-50.303 13.805zm11.607-54.199c-4.499 14.574-8.273 33.725-9.482 51.272 16.638-6.551 33.828-10.825 46.568-12.603 3.759-17.852 7.096-28.591 14.521-45.941-18.439 0.826-31.383 2.343-51.607 7.272z" fill="#7B7B7B"/>
				
			
			
				
					<path d="m333.75 776.27c-1.981-26.114-9e-3 -51.517 2.398-63.962l53.227-16.969c-2.983 9.709-6.77 30.739-6.892 53.615l-48.733 27.316z" fill="#A2A2A2"/>
					<path d="m332.91 777.86c-2.329-30.764 0.515-56.601 2.408-66.287 0.884-0.284 54.618-17.414 55.518-17.701-5.127 16.989-7.288 37.983-7.383 55.658-0.804 0.449-49.703 27.858-50.543 28.33zm4.106-64.805c-3.029 19.686-4.016 40.433-2.411 61.643l46.924-26.303c0.123-22.328 3.071-37.094 6.498-51.604l-51.011 16.264z" fill="#D1D1D1"/>
				
				
					<path d="m389.21 807.48c-20.973-9.026-37.136-18.038-55.46-31.203l48.733-27.315c16.908 10.176 31.261 16.514 49.395 22.456l-42.668 36.062z" fill="#C1C1C1"/>
					<path d="m389.38 808.6c-23.458-10.077-38.994-19.187-57.42-32.425l50.544-28.331c18.124 10.913 31.867 16.821 51.321 23.194l-44.445 37.562zm-53.833-32.223c18.391 13.201 35.058 21.962 53.5 29.979l40.899-34.566c-17.169-5.749-31.274-11.96-47.477-21.715l-46.922 26.302z" fill="#AEAEAE"/>
				
				
					<path d="m382.49 748.96c0.12-22.415 3.857-43.74 6.892-53.615 7.837 6.974 24.344 18.231 41.841 26.299-2.088 18.092-1.482 32.681 0.662 49.772-18.604-6.096-32.911-12.536-49.395-22.456z" fill="#999"/>
					<path d="m433.03 772.8c-18.803-6.156-32.929-12.118-51.51-23.304 0.126-22.898 3.564-43.563 7.381-55.871 10.101 8.947 25.81 19.331 43.358 27.429-2.226 19.329-1.568 33.13 0.771 51.746zm-49.575-24.391c16.594 9.995 30.696 16.048 47.286 21.605-1.94-16.242-2.53-30.705-0.558-47.794-16.106-7.425-27.394-15.178-40.233-25.19-4.137 17.505-6.386 31.655-6.495 51.379z" fill="#4F4F4F"/>
				
			
		
		
			
				
					<path d="m445.08 864.29c5.096 3.601 10.451 6.841 15.739 10.157 4.297 2.655 10.127 1.178 11.987-2.734 5.29-9-7.964-13.09-19.552-21.807-10.416-7.599-8.386-24.871 5.998-28.32 8.725-2.122 11.772 1.519 25.898 10.358 13.493 8.287 16.522 7.624 20.632 14.217 6.433 10.69-2.429 16.704 1.45 22.506 2.857 5.541 11.532 5.836 14.569 0.63 6.254-13.039 2.842-34.882-17.322-45.233-23.596-12.064-29.949-24.268-52.033-17.435-28.37 8.949-30.233 43.637-7.366 57.661z" fill="#7E7E7E"/>
				
				
					<path d="m535.26 854.87c14.181 4.434 22.648 4.57 26.334 14.647 4.924 11.717-5.386 25.481-21.189 20.73-11.072-2.859-21.995-6.351-32.484-10.818-8.77-3.808-12.006-13.835-8.545-21.026 2.074-3.74 0.363-8.648-2.523-10.715-11.519-9.244-25.481 18.102-8.187 37.879 10.52 11.908 52.202 23.75 64.567 21.948 37.93-6.602 31.547-57.345 0.253-64.439-6.81-1.47-10.251-3.437-15.494-4.102-8.795-0.064-10.74 13.764-2.732 15.896z" fill="#525252"/>
				
			
			
				
					<path d="m763.19 901.46c11.625 17.501 28.643 14.793 46.225 14.685 10.225-0.963 9.513-18.191-3.88-16.309-7.108-0.386-14.623 1.269-21.371-1.586-6.795-3.038-10.906-11.055-9.028-18.198 3.153-13.296 16.183-12.603 22.406-12.745 23.519-0.024 39.075-2.881 42.954 11.742 1.211 3.468-0.03 7.92 3.34 10.481 4.212 4.496 12.501 2.014 14.017-3.744 2.253-18.14-14.193-36.142-34.651-34.946-12.509 0.25-25.07-0.407-37.483 0.541-23.477 3.454-35.72 30.705-22.529 50.079z" fill="#9E9E9E"/>
				
				
					<path d="m865.57 867.39c10.168 0.14 7.281 0.094 13.146 0.203 31.428 0.646 22.724 32.274 4.742 32.742 0 0 1.3-0.088-34.417-0.604-8.43-0.152-15.98-7.534-15.882-15.899 0.352-10.625-15.873-11.766-17.06-1.111-0.38 18.756 15.681 34.081 33.49 33.471 3.051 2e-3 26.935 0.202 27.942 0.309 34.588 2.68 58.009-44.698 21.104-61.651-10.867-4.992-33.662-4.085-35.586-3.22-8.022 3.173-5.922 15.329 2.521 15.76z" fill="#636363"/>
				
			
			
				
					<path d="m667.92 939.77c-20.717-11.799-34.571-19.907-49.66-28.952l1.796-55.838c17.862 11.024 32.368 19.597 48.429 28.926l-0.565 55.864z" fill="#B5B5B5"/>
					<path d="m668.87 941.42c-18.654-10.624-32.448-18.59-51.591-30.066l1.868-58.07c18.063 11.15 31.106 18.916 50.309 30.07l-0.586 58.066zm-49.626-31.139c19.408 11.637 27.601 16.267 47.729 27.837l0.542-53.661c-15.85-9.207-30.779-18.049-46.547-27.783l-1.724 53.607z" fill="#C0C0C0"/>
				
				
					<path d="m717.91 911.98c-15.62 8.868-34.04 19.164-49.988 27.79l0.564-55.864c17.55-9.691 28.758-16.125 49.251-27.793l0.173 55.867z" fill="#7C7C7C"/>
					<path d="m666.94 941.4 0.586-58.065c17.644-9.716 33.145-18.613 51.17-28.876l0.179 58.083c-16.426 9.342-35.004 19.697-51.935 28.858zm2.504-56.92-0.542 53.662c16.301-8.848 31.856-17.549 48.04-26.721l-0.165-53.65c-19.299 10.989-29.308 16.744-47.333 26.709z" fill="#ECECEC"/>
				
				
					<path d="m668.49 883.9c-16.249-9.438-30.72-17.997-48.429-28.926 18.469-9.861 33.13-18.005 48.993-26.938 15.288 9.056 33.379 19.427 48.687 28.071-19.996 11.386-31.467 17.973-49.251 27.793z" fill="#909090"/>
					<path d="m668.48 885.01c-19.251-11.182-32.233-18.912-50.352-30.095 18.721-9.996 31.838-17.233 50.939-27.992 16.001 9.494 34.554 20.103 50.63 29.182-25.765 14.671-31.106 17.77-51.217 28.905zm-46.482-29.975c15.749 9.722 30.765 18.614 46.506 27.757 18.162-10.046 26.626-14.919 47.284-26.681-16.016-9.065-31.162-17.748-46.744-26.96-15.881 8.89-27.758 15.587-47.046 25.884z" fill="#969696"/>
				
			
			
				
					<path d="m934.47 976.82c3.605-14.279 2.342-29.38-1.687-43.487l34.623-43.844c10.047 20.388 14.694 40.1 15.076 58.767l-48.012 28.564z" fill="#6E6E6E"/>
					<path d="m932.96 978.83c3.516-13.933 3.978-27.443-1.247-45.714l35.877-45.432c9.68 19.64 15.403 38.823 15.863 61.107l-50.493 30.039zm0.88-45.293c4.177 14.616 4.705 28.093 2.097 41.278l45.564-27.107c-0.36-17.485-5.149-37.875-14.291-56.429l-33.37 42.258z" fill="#B9B9B9"/>
				
				
					<path d="m970.99 998.04c-9.366-9.775-21.593-17.221-36.523-21.225l48.013-28.563c18.709 10.911 33.346 25.286 43.92 42.661l-55.41 7.127z" fill="#ABABAB"/>
					<path d="m970.63 999.06c-11.552-12.013-23.588-17.869-38.622-21.904l50.466-30.023c19.444 11.342 33.83 25.346 45.521 44.548l-57.365 7.379zm-33.706-22.583c12.178 3.385 25.223 10.982 34.423 20.546l53.454-6.875c-9.228-15.269-24.168-30.188-42.318-40.775l-45.559 27.104z" fill="#797979"/>
				
				
					<path d="m982.48 948.25c-0.383-18.754-5.074-38.473-15.076-58.767 23.896 5.704 44.746 16.048 63.089 30.204 3.642 23.841 3.175 48.121-4.093 71.224-10.521-17.289-25.112-31.69-43.92-42.661z" fill="#DCDCDC"/>
					<path d="m1026.7 993.24c-11.45-18.859-25.284-32.835-45.154-44.424-0.462-22.468-6.355-41.379-15.896-60.743 22.821 5.449 43.813 14.166 65.757 31.091 3.957 25.914 3.12 49.174-4.707 74.076zm-43.247-45.545c17.83 10.393 32.438 24.663 42.68 40.903 6.571-22.027 6.938-45.779 3.484-68.379-18.392-14.188-40.239-24.513-60.421-29.316 8.488 17.217 13.867 38.002 14.257 56.792z" fill="#8F8F8F"/>
				
			
		
		
			
				
					<path d="m967.26 1041.7c-7.943 6.416-7.626 12.66-13.216 21.348-4.402 6.361 9.018 16.759 14.138 8.256 2.236-3.462 6.113-12.025 7.117-14.05 7.076-13.523 29.759-11.922 30.846 5.195 0.716 9.601-17.483 42.978-28.585 46.573-14.155 4.573-16.615-10.703-25.895-4.448-15.914 10.607 23.654 45.589 52.849 0.784 13.808-20.982 27.797-46.136 10.799-64.783-12.956-13.976-36.47-8.896-48.053 1.125z" fill="#5E5E5E"/>
				
				
					<path d="m952.65 1135.2c-4.477 3.071-14.534 9.837-19.801 11.15-15.229 3.811-23.754-10.437-18.401-22.241 2.59-7.033 7.897-7.53 20.398-16.17 13.251-9.948 13.384-12.262 21.486-12.359 10.425 0.033 10.546 6.188 16.658 6.014 12.114-0.344 15.035-21.998-17.826-21.627-16.443 0.315-18.61 6.506-30.411 15.061-10.475 7.519-21.772 8.416-26.814 30.52-6.321 27.627 15.937 50.46 52.312 30.613 2.24-1.32 10.263-5.781 14.274-9.793 7.228-8.753-3.275-17.363-11.875-11.168z" fill="#737373"/>
				
			
			
				
					<path d="m713.76 1126.1c-11.626-17.617-28.823-14.988-46.532-14.97-10.4 0.932-9.363 18.148 4.034 16.322 7.143 0.415 14.685-1.187 21.464 1.707 6.821 3.087 10.93 11.132 9.051 18.261-3.164 13.317-16.289 12.496-22.326 12.598-23.585-0.1-38.779 2.769-42.948-11.827-1.278-3.463-0.123-7.919-3.553-10.466-4.323-4.475-12.596-1.967-13.947 3.82-1.764 17.607 14.583 36.017 35.127 34.842 12.362-0.231 24.811 0.494 37.128-0.374 23.457-3.309 35.553-30.634 22.502-49.913z" fill="#AFAFAF"/>
				
				
					<path d="m611.7 1160c-10.194 0.189-7.393 0.133-12.743 0.251-22.061 0.483-25.076-16.344-18.608-25.324 5.718-8.155 10.672-7.806 47.134-7.427 8.507 0.106 16.226 7.475 16.255 15.848-0.169 10.635 15.995 11.743 17.074 1.129 0.187-19.008-16.383-34.144-34.27-33.432-10.796 1e-3 -35.217 0.271-35.32 0.268-28.698 1.898-43.776 41.962-16.396 59.842 10.032 6.74 19.077 5.594 36.213 5.253 11.298 0.493 10.961-16.164 0.661-16.408z" fill="#7B7B7B"/>
				
			
			
				
					<polygon points="808.93 1087.9 858.22 1115.8 857.3 1171.7 808.42 1143.7" fill="#797979"/>
					<path d="m858.24 1173.3-50.786-29.02 0.524-58.068 51.217 29.025-0.955 58.063zm-48.846-30.133 46.971 26.84 0.882-53.656-47.369-26.845-0.484 53.661z" fill="#7A7A7A"/>
				
				
					<polygon points="759.13 1115.8 808.93 1087.9 808.42 1143.7 759.04 1171.7" fill="#606060"/>
					<path d="m758.07 1173.3 0.094-58.087 51.741-29.021-0.524 58.085-51.311 29.023zm2.021-56.957-0.086 53.646 47.456-26.843 0.484-53.644-47.854 26.841z" fill="#565656"/>
				
				
					<polygon points="808.42 1143.7 857.3 1171.7 807.92 1199.6 759.04 1171.7" fill="#C0C0C0"/>
					<path d="m807.92 1200.7-50.828-29.045 51.337-29.038 50.828 29.043-51.337 29.04zm-46.924-29.036 46.929 26.816 47.428-26.828-46.929-26.816-47.428 26.828z" fill="#BCBCBC"/>
				
			
			
				
					<path d="m487 1073.6c12.504 13.367 23.805 24.658 38.225 36.738l-8.941 55.146c-16.31-12.334-29.212-23.934-43.746-37.922l14.462-53.962z" fill="#4E4E4E"/>
					<path d="m516.98 1167.3c-17.924-13.593-29.591-24.026-45.521-39.358l15.059-56.19c13.686 14.626 24.044 25.081 39.747 38.279l-9.285 57.269zm-43.363-39.959c13.723 13.209 26.624 24.822 41.971 36.488l8.596-53.023c-14.7-12.556-24.1-21.728-36.702-35.198l-13.865 51.733z" fill="#C6C6C6"/>
				
				
					<path d="m435.42 1086.4c3.635-0.707 27.238-4.869 51.584-12.734l-14.462 53.962c-21.957 5.825-41.535 8.844-56.785 11.063l19.663-52.291z" fill="#B0B0B0"/>
					<path d="m414.28 1139.9 20.428-54.326c14.845-2.991 30.824-5.971 53.688-13.351l-15.065 56.212c-25.063 6.658-47.504 9.785-59.051 11.465zm21.854-52.638-18.898 50.258c12.47-1.911 32.547-4.828 54.519-10.664l13.858-51.709c-15.984 5.162-33.217 8.923-49.479 12.115z" fill="#616161"/>
				
				
					<path d="m472.54 1127.6c14.492 13.949 27.413 25.571 43.746 37.922-20.03 6.971-37.722 11.478-58.207 16.041-17.877-15.901-31.519-30.828-42.323-42.899 17.045-2.482 35.612-5.451 56.784-11.064z" fill="#D9D9D9"/>
					<path d="m457.81 1182.6c-16.692-14.842-29.34-28.299-43.968-44.642 13.671-2.077 34.31-4.89 58.979-11.441 16.106 15.503 27.676 25.809 45.489 39.312-22.04 7.636-37.823 11.722-60.5 16.771zm-40.133-43.251c12.51 13.764 24.537 26.799 40.678 41.154 19.381-4.318 37.045-8.801 55.915-15.31-15.272-11.609-28.283-23.326-42.003-36.532-18.278 4.848-37.241 8.161-54.59 10.688z" fill="#4B4B4B"/>
				
			
		
		
			
				
					<path d="m382.51 1058.4c-4.686-4.133-10.304-6.052-20.066-12.045-6.907-4.472-20.55 6.804-4.496 16.38 9.72 5.518 15.388 7.24 18.163 14.826 4.667 12.778-6.551 24.02-19.088 21.206-5.178-1.306-28.719-15.792-33.185-18.567-4.297-2.684-7.702-7.385-8.302-12.566-1.073-8.924 5.806-11.965 3.558-17.705-1.466-5.662-9.485-7.936-13.744-3.844-9.445 10.712-9.347 27.516 0.26 39.917 4.412 5.432 7.702 7.168 27.901 19.124 12.364 7.184 21.962 13.36 36.067 9.967 26.671-6.508 31.559-40.358 12.932-56.693z" fill="#515151"/>
				
				
					<path d="m287.92 1055.7c-1.492-1.098-13.346-10.079-14.685-11.362-11.546-11.657-2.9-27.953 10.172-28.119 7.107-0.658 12.44 4.566 18.649 9.374 18.35 14.098 23.312 14.696 25.013 23.926 0.719 4.037 0.166 8.239-2.102 11.709-2.426 3.247-1.686 8.265 1.466 10.984 11.596 10.863 24.613-16.297 12.986-36.334-4.068-7.258-6.266-7.82-22.101-19.277-11.595-8.159-14.828-13.123-23.709-15.6-18.254-5.165-36.723 5.701-41.155 20.442-5.089 14.144 1.945 30.136 12.379 37.236 6.005 4.278 9.78 8.332 15.831 11.515 9.56 3.501 15.07-9.356 7.256-14.494z" fill="#8A8A8A"/>
				
			
			
				
					<path d="m166.42 836.82c-0.634-5.514-1.128-5.293-9.524-24.656-4.395-8.526-20.535-1.65-13.627 9.655 3.418 9.406 11.636 19.052 3.366 29.73-4.519 5.831-11.352 7.167-17.077 5.461-8.398-2.484-11.245-10.891-13.072-15.078-8.736-20.235-17.999-36.273-4.955-45.007 2.885-2.285 7.489-2.579 8.833-6.57 2.859-5.299-1.966-12.351-7.896-12.055-11.355 2.047-22.785 12.338-24.178 28.306-0.741 8.998 1.351 13.929 10.237 35.174 6.118 14.411 12.699 31.714 33.835 33.029 19.31 1.213 36.57-16.612 34.058-37.989z" fill="#989898"/>
				
				
					<path d="m92.499 776.19c-4.025-14.677-3.983-14.345-4.515-16.622-3.711-15.023 9.638-24.573 20.944-20.238 9.64 3.619 10.518 12.275 12.483 19.258 6.888 24.685 9.835 27.519 5.869 35.554-1.79 3.673-4.821 6.741-8.785 8.121-4.118 1.324-6.716 6.197-5.274 10.508 3.656 14.446 28.8 0.498 31.995-21.11 1.258-9.025-0.235-11.159-5.143-27.223-4.898-16.006-4.685-21.003-9.041-27.448-19.257-29.99-66.881-13.422-59.674 23.651 0.695 2.806 4.93 20.294 6.844 22.595 5.63 7.299 16.494 1.327 14.297-7.046z" fill="#646464"/>
				
			
			
				
					<path d="m241.84 911.23c2.056 20.172 4.372 33.81 8.494 52.485l-40.456 38.527c-5.566-20.619-8.701-35.083-12.024-56.57l43.986-34.442z" fill="#717171"/>
					<path d="m209.37 1004.1c-5.895-21.836-8.931-35.358-12.554-58.798l45.808-35.87c2.188 21.475 4.212 33.991 8.771 54.647l-42.025 40.021zm-10.475-57.976c3.215 20.799 6.566 36.093 11.493 54.343l38.888-37.034c-3.91-17.717-6.364-32.156-8.217-50.324l-42.164 33.015z" fill="#535353"/>
				
				
					<path d="m192.73 890.26c18.863 9.157 29.032 13.805 49.112 20.967l-43.986 34.443c-20.156-8.392-32.904-14.805-51.995-25.006l46.869-30.404z" fill="#D6D6D6"/>
					<path d="m198.01 946.78c-21.812-9.083-34.112-15.384-54.042-26.034l48.698-31.589c28.106 13.644 36.234 16.431 51.154 21.752l-45.81 35.871zm-50.249-26.194c18.518 9.895 31.781 16.417 49.949 23.978l42.162-33.014c-17.709-6.419-26.61-10.25-47.07-20.182l-45.041 29.218z" fill="#707070"/>
				
				
					<path d="m197.86 945.67c3.371 21.803 6.584 36.418 12.024 56.57-21.453-7.142-35.673-12.777-56.01-22.127-4.435-23.085-5.918-35.483-8.009-59.449 19.18 10.25 31.919 16.648 51.995 25.006z" fill="#858585"/>
					<path d="m211.28 1003.7c-21.226-7.066-34.964-12.229-58.263-22.941-4.808-25.252-6.032-36.136-8.27-61.809 20.144 10.766 32.372 17.02 53.981 26.013 3.64 23.549 6.751 37.249 12.552 58.737zm-56.556-24.279c18.888 8.683 33.949 14.719 53.757 21.313-5.432-20.121-8.583-35.574-11.495-54.405-18.95-7.89-32.285-14.528-50.008-23.998 2.361 27.079 4.287 39.082 7.746 57.09z" fill="#6A6A6A"/>
				
			
			
				
					<path d="m143.16 632.42c-9.786 16.386-15.287 26.214-24.981 47.047l-55.531 6.117c9.373-22.812 14.779-33.728 24.653-52.279l55.859-0.885z" fill="#949494"/>
					<path d="m61.138 686.72c10.033-24.415 15.079-34.647 25.579-54.371l58.159-0.922c-10.554 17.734-15.694 26.68-26.052 48.938l-57.686 6.355zm26.747-52.46c-9.376 17.694-15.177 29.377-23.727 50.186l53.375-5.88c9.154-19.673 14.806-29.838 23.911-45.155l-53.559 0.849z" fill="#888"/>
				
				
					<path d="m116.71 586.22c7.486 15.238 17.874 33.298 26.453 46.204l-55.859 0.886c-8.649-14.539-18.926-34.581-26.286-51.495l55.692 4.405z" fill="#7A7A7A"/>
					<path d="m86.757 634.28c-9.18-15.43-19.062-34.695-27.268-53.558l57.842 4.575c7.445 15.163 17.375 32.656 27.608 48.06l-58.182 0.923zm-24.217-51.38c6.196 14.236 16.735 35.029 25.304 49.434l53.534-0.849c-8.156-12.291-18.879-31.284-25.295-44.35l-53.543-4.235z" fill="#666"/>
				
				
					<path d="m87.301 633.3c-9.532 17.909-15.045 28.895-24.653 52.279-14.188-20.885-20.585-31.886-31.207-51.392 8.03-16.548 19.53-36.894 29.574-52.381 7.347 16.883 17.619 36.925 26.286 51.494z" fill="#B1B1B1"/>
					<path d="m62.859 687.61c-14.938-21.99-20.912-32.111-32.503-53.393 7.944-16.371 18.791-35.875 30.826-54.44 8.5 19.537 18.279 38.455 27.225 53.502-11.055 20.857-15.633 30.198-25.548 54.331zm-30.333-53.444c9.541 17.445 16.368 29.452 29.912 49.391 9.159-22.289 15.389-34.435 23.756-50.225-8.565-14.405-19.175-35.304-25.347-49.49-8.586 13.235-20.594 34.391-28.321 50.324z" fill="#DEDEDE"/>
				
			
		
		
			
				
					<path d="m124.73 534.25c6.179-7.32 6.061-12.059 10.337-29.065 1.212-3.982-1.909-8.608-6.089-9.577-14.451-4.391-8.372 22.626-20.179 31.19-11.003 7.973-24.905 0.354-25.621-12.527-0.202-5.393 7.329-31.807 8.821-36.969 1.866-6.734 7.895-12.178 14.675-12.57 4.39-0.631 9.045 2.719 13.011-0.416 2.433-1.492 3.758-4.399 3.73-7.187-0.106-11.127-18.436-11.674-29.308-6.439-15.781 7.657-17.769 21.177-22.263 38.1-4.495 17.308-8.43 28.78-0.9 42.074 11.04 19.509 38.135 21.585 53.786 3.386z" fill="#6F6F6F"/>
				
				
					<path d="m105.32 436.01c6.538-16.767 6.68-18.681 11.127-22.563 12.041-10.381 30.301 1.136 25.695 17.293 0 0-11.916 32.325-11.916 32.326-2.585 7.723-11.77 12.479-19.679 10.106-10.849-4.06-15.776 14.32-4.827 16.189 15.786 4.804 34.274-4.966 39.539-19.252 2.763-9.529 11.938-32.418 12.333-33.418 7.49-18.787-7.89-43.95-29.027-44.302-13.424-0.92-26.008 7.717-31.498 19.662-0.43 1-6.889 16.692-7.68 21.078-0.649 10.233 13.237 11.869 15.933 2.881z" fill="#3F3F3F"/>
				
			
			
				
					<path d="m268.85 262.43c15.855 0.602 21.914-7.642 35.648-18.59 7.012-6.731-3.949-20.029-13.07-10.476-5.335 3.597-9.833 9.886-17.029 12.029-9.604 2.865-20.731-4.118-20.556-15.568 0.18-8.967 4.418-11.79 27.502-30.007 22.397-18.023 27.224 2.493 34.014 2.811 6.363 1.384 17.01-7.749 2.098-19.963-7.009-5.741-16.423-8.319-26.632-6.357-13.028 2.725-43.804 29.796-47.455 34.553-16.219 22.378-0.84 50.574 25.48 51.568z" fill="#C4C4C4"/>
				
				
					<path d="m321.24 171.97c10.051-6.355 6.265-4.009 14.683-8.993 20.246-11.911 35.374 16.541 17.293 27.535-6.417 3.822-6.173 3.481-27.833 17.584-6.579 4.389-17.11 2.918-21.975-3.955-4.016-5.97-13.689-3.977-15.274 3.059-2.004 8.981 15.308 22.056 32.87 19.672 9.682-1.316 12.105-4.42 28.357-14.792 11.098-7.303 23.239-11.046 27.404-28.08 5.609-23.175-12.659-45.048-38.222-39.771-7.903 1.726-26.344 13.405-28.073 15.945-5.493 7.353 3.288 16.144 10.77 11.796z" fill="#494949"/>
				
			
			
				
					<path d="m231.79 352.43c-23.649 9.45-41.262 18.183-48.34 22.292l-47.989-28.604c7.576-4.878 26.142-15.221 51.305-26.763l45.024 33.075z" fill="#929292"/>
					<path d="m183.44 375.84-49.813-29.691c2.133-1.374 20.848-12.978 53.249-27.908l46.881 34.439c-14.715 5.908-36.533 15.176-50.317 23.16zm-46.109-29.729 46.131 27.497c14.671-8.036 31.583-15.492 46.353-21.43l-43.166-31.71c-12.005 5.534-24.837 11.309-49.318 25.643z" fill="#9F9F9F"/>
				
				
					<path d="m238.67 299.61c-3.484 18.019-5.807 36.271-6.877 52.82l-45.023-33.075c2.063-17.863 5.498-37.441 10.178-56.898l41.722 37.153z" fill="#BABABA"/>
					<path d="m232.64 354.25-46.895-34.45c2.348-20.308 5.814-39.096 10.641-59.135l43.334 38.589c-3.64 18.814-5.84 35.788-7.08 54.996zm-44.85-35.342 43.152 31.7c0.873-13.522 3.233-32.862 6.675-50.644l-40.11-35.717c-4.115 17.093-7.739 37.535-9.717 54.661z" fill="#5D5D5D"/>
				
				
					<path d="m186.77 319.36c-25.164 11.543-43.763 21.907-51.305 26.763 0.247-16.302 3.708-43.178 6.281-59.838 17.659-8.923 36.752-17.132 55.202-23.823-4.68 19.459-8.115 39.037-10.178 56.898z" fill="#676767"/>
					<path d="m134.47 347.9c0.16-10.724 1.677-31.713 6.395-62.259 19.188-9.699 37.215-17.37 57.437-24.704-4.829 20.069-8.288 38.715-10.64 59.066-27.321 12.59-45.526 22.968-53.192 27.897zm8.151-60.985c-2.891 18.948-4.479 29.926-6.118 57.446 23.312-13.554 33.13-18.173 49.368-25.659 1.985-17.171 5.622-37.726 9.717-54.728-16.429 5.953-36.293 14.513-52.967 22.941z" fill="#ccc"/>
				
			
			
				
					<path d="m473.06 180.9c-16.791-4.925-34.499-8.532-51.856-11.212l-21.226-51.677c19.007 2.016 38.376 4.958 57.091 9.36l15.991 53.529z" fill="#3B3B3B"/>
					<path d="m474.5 182.33c-19.021-5.546-34.718-8.794-53.973-11.766l-22.048-53.678c20.895 2.216 38.561 4.827 59.363 9.679l16.658 55.765zm-52.603-13.507c15.906 2.456 33.523 5.952 49.738 10.657l-15.323-51.292c-18.066-4.208-36.652-7.115-54.82-9.041l20.405 49.676z" fill="#585858"/>
				
				
					<path d="m510.18 143.08c-13.785 12.759-20.065 18.493-37.117 37.818l-15.991-53.529c19.528-19.882 26.68-25.813 42.693-39.176l10.415 54.887z" fill="#474747"/>
					<path d="m472.64 182.84-16.651-55.74c21.111-21.418 26.497-25.74 44.422-40.699l10.821 57.025c-19.243 17.875-21.485 20.027-38.592 39.414zm-14.476-55.201 15.33 51.318c16.136-18.206 21.807-23.415 35.642-36.221l-10.009-52.749c-19.616 16.517-22.898 19.331-40.963 37.652z" fill="#656565"/>
				
				
					<path d="m457.07 127.37c-18.979-4.464-38.344-7.372-57.091-9.36 12.376-14.941 26.056-30.029 41.1-44.169 28.794 5.547 37.865 8.218 58.683 14.353-15.8 13.187-22.966 19.092-42.692 39.176z" fill="#999"/>
					<path d="m457.38 128.44c-20.626-4.811-38.135-7.41-59.289-9.653 14.147-17.079 26.497-30.702 42.689-45.979 31.121 6.053 38.064 8.223 60.988 14.978-18.016 15.035-24.108 20.007-44.388 40.654zm-55.509-11.193c18.034 1.913 37.225 4.955 54.893 9.066 18.805-19.071 24.746-24.135 40.997-37.697-26.937-7.892-33.989-9.416-56.379-13.728-14.17 13.378-27.404 27.744-39.511 42.359z" fill="#CDCDCD"/>
				
			
		
	
	
		
			
				
					<path d="m1789 139.6c12.469-0.771 24.36 0.716 23.496-9.452-0.052-10.56-12.471-7.205-25.857-6.9-12.318 0.345-21.838-14.274-13.585-25.478 5.815-7.913 12.619-6.998 28.76-7.874 13.815-0.819 28.466-3.065 33.399 9.553 1.957 3.987 0.211 9.443 4.443 12.261 4.571 3.904 12.43 1.092 13.524-4.737 1.278-12.402-6.328-25.561-19.52-31.374-7.741-3.359-11.708-3.02-31.549-2.106-15.872 0.879-28.88-0.507-40 10.95-21.946 22.283-0.833 58.44 26.889 55.157z" fill="#393939"/>
				
				
					<path d="m1861.6 88.982c14.274 0.141 25.094-1.521 30.769 8.064 6.044 9.247 0.705 25.138-16.289 24.648-13.195-0.253-22.849-0.068-31.868-0.308-8.286-0.134-15.679-7.402-15.819-15.665 0.189-4.027-3.207-7.879-7.304-8.351-18.793-3.027-8.728 39.041 21.122 40.473 8.691 0.023 24.12 0.026 37.521 0.283 22.386-0.33 38.323-24.501 29.876-44.175-4.666-12.634-17.916-21.663-31.839-21.189-6.229 0.185-12.592-0.668-18.744 0.206-9.32 2.731-6.741 16.356 2.575 16.014z" fill="#4F4F4F"/>
				
			
			
				
					<path d="m2102.8 137.41c7.61 6.353 12.255 6.249 31.829 9.789 7.03 0.876 12.286-9.985 4.843-15.026-3.699-2.467-14.008-2.441-20.605-4.718-18.123-5.778-14.845-31.196 4.426-31.673 3.165-0.022 21.97 3.677 23.208 3.972 14.387 3.178 18.053 3.362 22.594 8.95 7.373 9.14 0.247 15.564 4.022 20.449 1.402 2.643 4.393 4.007 7.099 4.029 10.965 0.185 11.154-16.784 7.31-26.605-7.1-18.447-25.946-20.117-39.94-23.351-19.548-4.289-31.623-6.56-44.029 1.845-18.219 12.758-17.43 38.601-0.757 52.339z" fill="#9B9B9B"/>
				
				
					<path d="m2200.5 114.06c2.177 0.646 2.391 0.751 16.294 5.608 13.476 4.488 15.698 21.211 4.975 28.706-8.321 5.938-12.621 2.926-46.412-8.079-8.183-2.406-13.089-11.592-11.029-19.349 3.024-10.486-12.954-15.076-16.354-4.992-2.19 9.075-0.323 19.232 5.13 27.117 8.998 12.959 13.213 10.797 50.502 23.787 36.808 9.612 67.08-45.696 12.281-64.88-10.236-3.58-10.919-3.947-13.198-3.707-9.187 0.565-10.374 12.906-2.189 15.789z" fill="#DEDEDE"/>
				
			
			
				
					<path d="m2002.1 162.65c-15.921-8.308-22.402-11.618-50.827-27.895l0.785-55.861c28.454 16.738 35.545 20.553 48.946 27.901l1.096 55.855z" fill="#747474"/>
					<path d="m2003.1 164.26c-21.596-11.323-23.433-12.169-52.796-28.948l0.816-58.089c31.468 18.474 33.464 19.425 50.841 28.996l1.139 58.041zm-50.852-30.058c16.069 9.181 24.087 13.85 48.858 26.842l-1.053-53.67c-12.879-7.096-19.013-10.345-47.051-26.805l-0.754 53.633z" fill="#A4A4A4"/>
				
				
					<path d="m2050.1 133.6c-43.388 25.702-0.952 2.54-47.977 29.053l-1.096-55.856c14.349-8.293 25.147-16.245 49.57-29.062l-0.497 55.865z" fill="#C4C4C4"/>
					<path d="m2001.2 164.28-1.14-58.039c12.318-7.111 26.397-16.926 51.524-30.115l-0.514 58.02c-46.313 27.435 1.226 1.326-49.87 30.134zm0.813-56.941 1.053 53.674c52.084-29.592-4.677 2.101 46.085-27.972l0.477-53.708c-20.133 10.565-36.229 21.342-47.615 28.006z" fill="#A4A4A4"/>
				
				
					<path d="m2001 106.79c-15.334-8.407-21.529-11.773-48.946-27.901 28.083-15.723 34.514-19.766 47.85-27.955 38.486 22.018 16.607 8.295 50.666 26.794-22.931 12.034-38.164 22.47-49.57 29.062z" fill="#666"/>
					<path d="m2001 107.9c-16.133-8.886-19.992-10.881-50.896-29.028 31.193-17.5 33.514-19.121 49.769-29.056 42.02 23.805 16.444 8.22 52.732 27.931-25.24 13.245-38.982 22.855-51.605 30.153zm-47.021-28.987c28.55 16.754 32.459 18.764 46.994 26.772 11.328-6.63 27.552-17.479 47.536-27.968-31.06-16.869-11.055-4.18-48.6-25.658-11.727 7.164-17.992 11.18-45.93 26.854z" fill="#777"/>
				
			
			
				
					<path d="m2291.1 236.73c-7.563-15.873-11.886-25.187-25.021-47.073l26.13-49.379c15.612 23.539 20.875 33.696 29.453 49.687l-30.562 46.765z" fill="#474747"/>
					<path d="m2291 238.7c-7.819-16.363-11.846-25.406-25.995-49.009l27.143-51.295c16.357 24.688 21.321 34.197 30.668 51.622-0.531 0.81-31.28 47.861-31.816 48.682zm-23.781-49.068c13.383 22.325 18.119 32.749 24.045 45.137l29.31-44.848c-6.799-12.636-13.025-24.781-28.24-47.752l-25.115 47.463z" fill="#5B5B5B"/>
				
				
					<path d="m2344.3 240.75c-20.209-2.668-40.77-3.981-53.173-4.018l30.562-46.766c13.491 0.701 35.341 3.109 57.326 7.012l-34.715 43.772z" fill="#BCBCBC"/>
					<path d="m2344.7 241.78c-17.18-2.269-37.146-4.016-55.367-4.089l31.836-48.715c18.601 0.976 40.325 3.918 59.591 7.337l-36.06 45.467zm-51.815-5.996c20.906 0.535 36.648 2.048 50.983 3.941l33.371-42.076c-19.826-3.521-42.598-6.025-55.061-6.688l-29.293 44.823z" fill="#E7E7E7"/>
				
				
					<path d="m2321.7 189.96c-9.01-16.796-14.144-26.603-29.453-49.687 28.901-0.053 40.873 1.192 60.015 2.921 7.302 12.468 17.808 33.041 26.764 53.778-21.938-3.895-43.971-6.319-57.326-7.012z" fill="#D1D1D1"/>
					<path d="m2380.6 198.24c-18.447-3.276-40.722-6.377-59.516-7.339-9.522-17.702-13.77-26.101-30.657-51.584 30.134-0.055 39.756 0.922 62.394 2.966 10.019 17.145 19.827 37.549 27.779 55.957zm-58.33-9.21c11.689 0.618 34.627 3.043 55.136 6.684-8.072-18.69-19.265-40.592-25.75-51.598-35.936-3.2-46.411-2.896-57.638-2.876 15.034 22.696 21.388 35.033 28.252 47.79z" fill="#8B8B8B"/>
				
			
		
		
			
				
					<path d="m2391.2 289.62c11.989 12.93 11.306 12.461 13.129 13.259 6.039 2.707 13.367-3.058 11.215-10.127-0.983-3.062-4.154-4.796-13.356-15.474-8.217-9.068-3.243-25.82 10.613-26.789 9.936-0.709 13.715 5.238 24.688 17.07 10.826 11.827 20.436 20.888 13.677 32.254-1.948 4.004-10.216 7.837-5.962 15.11 8.838 15.019 34.293-11.231 21.38-37.539-1.846-3.762-3.457-5.34-10.035-12.989-16.371-18.811-25.267-30.101-40.711-30.958-31.472-2.097-44.685 37.56-24.638 56.183z" fill="#868686"/>
				
				
					<path d="m2475.6 314.86c10.808 14.73 11.982 17.49 12.579 21.737 1.363 12.47-10.491 20.356-20.359 17.201-8.864-2.184-10.098-9.112-28.563-33.532-4.984-6.547-3.489-16.906 2.754-21.992 3.191-2.292 4.255-7.205 1.93-10.907-6.481-11.307-21.545 1.35-23.835 18.911-2.244 19.193 5.847 21.27 25.687 51.545 25.354 35.01 91.129-3.564 41.143-54.553-8.035-6.278-17.204 4.295-11.336 11.59z" fill="#616161"/>
				
			
			
				
					<path d="m2521.7 567.17c0.698 7.153-0.145-3.299 1.523 19.334 1.466 9.759 18.716 8.198 16.032-4.646-0.075-6.705-2.132-14.548-0.049-20.858 2.357-6.765 9.894-11.861 17.23-10.806 15.867 1.9 14.766 19.71 15.731 35.666 0.61 14.286 1.411 18.127-2.777 24.012-6.834 9.49-14.937 4.376-18.615 9.322-4.44 4.203-2.099 12.372 3.69 13.955 7.714 1.061 15.639-1.497 21.901-6.234 15.622-11.901 13.188-29.983 11.712-49.143-1.014-15.836-1.241-27.084-12.559-37.008-21.834-19.046-55.009 0.197-53.819 26.406z" fill="#868686"/>
				
				
					<path d="m2572.8 641.27c-0.663 14.7 0.892 25.767-8.731 31.273-5.161 3.28-12.539 3.055-17.839-0.987-8.943-6.754-6.43-13.123-5.636-47.194 0.334-8.943 7.881-15.818 15.732-15.878 4.37 0.058 8.479-3.779 8.389-8.23 0.664-12.559-16.633-9.886-26.969-2.181-17.016 12.462-12.853 25.66-14.656 61.495 0.667 30.081 40.46 44.919 59.229 18.558 6.895-9.641 6.166-17.328 6.831-35.431 1.04-11.134-15.471-12.419-16.35-1.425z" fill="#bbb"/>
				
			
			
				
					<path d="m2475.4 467.68c5.229-33.085 6.352-44.458 7.408-53.853l50.562-23.762c-1.024 16.62-0.365 12.257-5.941 57.265l-52.029 20.35z" fill="#848484"/>
					<path d="m2474.1 469.19c5.873-37.726 6.734-47.191 7.725-56.008l52.523-24.684c-1.424 22.157-0.103 9.781-6.118 59.52l-54.13 21.172zm9.523-54.721c-1.932 16.35-2.431 21.657-7.092 51.698l49.927-19.528c5.39-43.49 4.764-38.784 5.766-55.011l-48.601 22.841z" fill="#5C5C5C"/>
				
				
					<path d="m2515.3 501.13c-18.593-17.879-25.177-22.536-39.961-33.457l52.029-20.35c14.931 11.807 29.176 26.124 42.096 40.117l-54.164 13.69z" fill="#818181"/>
					<path d="m2515 502.2c-18.772-18.049-23.787-21.584-41.658-34.785l54.171-21.188c15.97 12.629 29.965 26.836 43.743 41.755l-56.256 14.218zm-37.701-34.262c15.186 11.22 21.052 15.577 38.266 32.129l52.071-13.16c-11.931-12.923-26.611-27.544-40.451-38.48l-49.886 19.511z" fill="#A2A2A2"/>
				
				
					<path d="m2527.4 447.33c5.671-45.77 4.976-41.588 5.941-57.265 8.983 6.829 17.402 13.004 46.087 36.915-2.666 27.394-5.236 40.302-9.933 60.467-12.975-14.053-27.215-28.353-42.095-40.117z" fill="#7B7B7B"/>
					<path d="m2570 489.44c-13.594-14.724-27.683-29.075-43.647-41.689 5.571-44.946 4.823-38.607 6.114-59.545 17.389 13.358 22.025 16.749 47.948 38.361-2.892 29.703-5.5 41.775-10.415 62.873zm-41.598-42.53c13.837 10.946 28.479 25.475 40.545 38.545 5.955-25.557 7.02-35.248 9.449-58.06-27.437-22.874-36.253-29.411-44.225-35.471-1.156 17.822 0.071 6.639-5.769 54.986z" fill="#323232"/>
				
			
			
				
					<path d="m2482.6 762.64c17.397-14.518 27.934-25.962 38.121-36.742l54.812 10.802c-10.549 12.401-21.373 25.455-39.546 42.398l-53.387-16.458z" fill="#9E9E9E"/>
					<path d="m2536.2 780.19c-0.875-0.268-54.732-16.871-55.621-17.145 18.171-15.193 27.141-24.825 39.769-38.19l56.948 11.223c-13.05 15.157-21.993 26.264-41.096 44.112zm-51.654-17.942 51.155 15.77c17.448-16.313 28.656-29.709 37.994-40.683l-52.676-10.381c-9.792 10.227-20.29 21.734-36.473 35.294z" fill="#797979"/>
				
				
					<path d="m2493.3 814.54c-3.969-27.161-7.275-38.822-10.738-51.898l53.387 16.458c3.112 14.976 5.913 27.396 8.806 57.199l-51.455-21.759z" fill="#959595"/>
					<path d="m2545.9 837.82-53.448-22.601c-4.246-28.73-7.566-40.135-11.239-54.009l55.594 17.138c3.346 16.246 5.963 27.203 9.093 59.472zm-51.695-23.956 49.462 20.917c-2.89-29.129-6.178-43.672-8.518-54.925l-51.181-15.777c2.829 10.679 6.234 22.755 10.237 49.785z" fill="#989898"/>
				
				
					<path d="m2535.9 779.1c18.131-16.902 29.006-30.008 39.546-42.398 4.412 15.552 9.493 32.647 13.842 58.855-11.764 11.907-20.945 21.487-44.582 40.741-2.93-30.186-6.035-43.863-8.806-57.198z" fill="#8E8E8E"/>
					<path d="m2544 838.18c-3.202-32.47-5.934-44.314-9.073-59.419 18.594-17.373 28.999-29.913 41.036-44.063 5.391 19.006 10.034 34.832 14.438 61.184-12.212 12.324-20.476 21.181-46.401 42.298zm-6.963-58.749c2.073 10.09 5.555 24.907 8.536 54.979 22.792-18.649 33.595-29.904 42.763-39.185-3.958-23.635-8.048-38.217-13.244-56.527-9.76 11.425-20.399 24.232-38.055 40.733z" fill="#4A4A4A"/>
				
			
		
		
			
				
					<path d="m2472.8 859.4c-11.22 5.504-12.779 10.979-18.324 19.678-2.582 4.015-9.897 12.521-1.43 17.619 8.076 5.74 12.726-4.777 20.276-16.907 6.721-10.304 24.229-9.733 28.703 3.294 3.227 9.353-1.62 14.946-10.102 28.257-7.393 11.432-14.261 25.35-27.441 21.699-4.4-0.854-7.681-5.5-12.533-3.893-5.909 1.208-8.35 9.094-4.446 13.564 10.057 9.705 25.766 9.882 36.984 3.37 6.89-4.115 10.086-8.866 15.557-17.1 13.834-21.535 22.513-31.786 19.188-47.461-4.273-21.537-27.758-31.195-46.432-22.12z" fill="#E6E6E6"/>
				
				
					<path d="m2456.3 960.52c-10.969 13.199-10.953 13.275-11.953 14.198-12.27 11.042-28.124 1.537-27.692-11.403-0.336-7.194 4.433-11.323 15.144-24.25 8.331-9.698 9.699-14.87 17.146-17.195 5.428-1.786 10.755-0.807 14.486 1.873 5.226 4.275 14.214-0.093 13.497-7.842-0.738-8.276-21.206-16.545-38.189-7.716-9.549 4.899-8.926 8.443-31.732 35.026-25.979 30.634 24.713 88.552 63.503 25.233 0.737-1.608 0.813-3.466 0.43-5.141-1.617-7.019-10.515-8.046-14.64-2.783z" fill="#9E9E9E"/>
				
			
			
				
					<path d="m2225.9 1075.5c-17.912 7.156-21.283 7.242-21.847 13.368-0.479 5.089 3.229 8.952 7.865 9.134 4.913 0.157 16.292-7.744 25.124-7.723 16.358 0.308 22.88 23.416 5.167 31.34-0.505 0.226-15.667 6.31-18.997 7.571-13.084 4.602-17.501 6.808-23.896 4.452-11.135-3.906-8.494-13.089-14.301-15.27-5.399-3.148-12.39 1.877-12.309 7.508 1.614 11.266 11.234 23.165 27.436 25.104 6.533 0.741 11.419 1.253 44.786-12.779 50.299-21.154 15.485-75.631-19.028-62.705z" fill="#898989"/>
				
				
					<path d="m2169.8 1145.6c-12.822 3.182-9.348 2.39-16.822 3.913-23.585 4.78-27.805-27.233-7.624-31.616 9.456-1.968 26.121-6.224 31.858-7.866 7.936-2.272 17.221 2.829 19.651 10.654 2.947 10.35 18.971 5.819 16.488-4.524-3.457-10.288-12.455-19.273-24.285-22.113-10.31-2.79-15.101 0.08-25.104 2.573-26.64 6.659-25.87 5.315-31.702 8.925-29.155 18.047-21.011 69.835 30.867 58.611 11.263-2.808 11.485-2.673 13.189-3.97 7.601-5.277 1.957-16.358-6.516-14.587z" fill="#5E5E5E"/>
				
			
			
				
					<path d="m2309.9 1001c27.138-1.968 40.11-4.468 52.954-6.73l36.94 41.91c-15.144 3.368-27.83 6.394-56.927 9.922l-32.967-45.102z" fill="#A7A7A7"/>
					<path d="m2342.4 1047.2-34.327-46.964c29.071-2.155 39.541-4.194 55.125-6.939l38.377 43.541c-17.861 3.974-28.808 6.628-59.175 10.362zm-30.715-45.293 31.607 43.241c28.292-3.481 39.416-6.09 54.677-9.483l-35.502-40.28c-13.77 2.425-25.104 4.607-50.782 6.522z" fill="#4A4A4A"/>
				
				
					<path d="m2287.4 1049.4c6.299-12.074 12.757-23.996 22.458-48.388l32.967 45.103c-11.53 25.347-18.862 37.644-26.77 51.244l-28.655-47.959z" fill="#565656"/>
					<path d="m2316.1 1099.3-29.771-49.826c7.931-15.332 12.903-24.229 23.311-50.399l34.33 46.967c-11.79 25.917-17.81 35.957-27.87 53.258zm-27.561-49.89 27.539 46.089c7.217-12.411 14.325-24.295 25.669-49.229l-31.604-43.238c-8.935 22.454-15.579 34.827-21.604 46.378z" fill="#B4B4B4"/>
				
				
					<path d="m2342.9 1046.1c29.292-3.551 43.178-6.865 56.927-9.922-5.729 15.031-10.264 27.464-23.959 55.025-29.701 4.636-44.686 5.276-59.737 6.141 7.472-12.853 14.987-25.345 26.769-51.244z" fill="#6E6E6E"/>
					<path d="m2314.3 1098.4c10.331-17.903 15.72-26.535 27.851-53.202 30.463-3.745 41.08-6.349 59.12-10.36-6.592 17.288-10.769 28.883-24.857 57.231-29.572 4.615-41.532 5.148-62.114 6.331zm29.159-51.418c-11.027 24.24-17.6 35.378-25.688 49.285 16.738-0.96 29.85-1.658 57.36-5.951 13.741-27.772 18.882-41.848 23.062-52.818-31.447 6.866-42.195 7.941-54.734 9.484z" fill="#282828"/>
				
			
			
				
					<path d="m2026.1 1087.8c46.182 26.094 40.444 22.848 48.901 27.535l2.142 55.825c-9.879-4.6-1.596-0.042-50.4-27.498l-0.643-55.862z" fill="#585858"/>
					<path d="m2078.2 1172.7c-12.964-6.038-1.723 0.027-52.383-28.471l-0.669-58.095c49.789 28.111 40.999 23.171 50.828 28.618l2.224 57.948zm-50.466-29.607c48.247 27.144 39.612 22.428 48.417 26.525l-2.061-53.704c-8.615-4.774-0.476-0.199-46.975-26.451l0.619 53.63z" fill="#4F4F4F"/>
				
				
					<polygon points="1977.2 1115.7 2026.1 1087.8 2026.7 1143.7 1977.6 1171.6" fill="#DCDCDC"/>
					<path d="m1976.7 1173.2-0.451-58.072 50.829-28.985 0.669 58.07-51.047 28.987zm1.488-56.956 0.416 53.657 47.201-26.803-0.618-53.656-46.999 26.802z" fill="#3E3E3E"/>
				
				
					<path d="m2026.7 1143.7c48.517 27.295 39.938 22.626 50.4 27.498-10.002 5.822-3.441 2.093-49.756 28.365l-49.768-27.969 49.124-27.894z" fill="#C5C5C5"/>
					<path d="m2027.4 1200.7-51.732-29.071 51.084-29.007c48.912 27.469 39.522 22.479 52.483 28.511-12.704 7.394-2.539 1.582-51.835 29.567zm-47.809-29.081 47.805 26.865c47.229-26.812 39.047-22.138 47.676-27.162-8.958-4.173 0.261 0.842-48.317-26.485l-47.164 26.782z" fill="#BEBEBE"/>
				
			
		
		
			
				
					<path d="m1933.8 1125.4c-11.351-16.765-27.669-14.531-44.795-14.544-10.495-0.394-11.007 16.461 0.046 16.371 12.398 0.169 31.248-2.768 33.331 14.062 1.697 9.108-6.227 18.141-15.577 18.462-31.589 0.384-44.731 2.436-49.543-10.419-1.903-4.015-0.085-9.445-4.309-12.323-4.565-3.959-12.494-1.109-13.583 4.707-1.83 17.614 13.958 34.316 31.948 34.446 40.337 0.031 37.067 0.178 40.23-0.365 23.723-3.42 35.916-30.778 22.252-50.397z" fill="#949494"/>
				
				
					<path d="m1831 1159.8c-14.462 6e-3 -24.986 1.74-30.719-7.645-6.212-9.221-0.951-25.176 16.014-24.916 10.71 0.095 21.431-0.138 32.131 0.141 8.399 0.18 15.762 7.604 15.727 15.853-0.739 11.494 17.982 11.113 16.902 0.081 0.429-16.409-13.879-31.431-30.484-32.39l-38.126-0.058c-22.467 0.683-38.089 25.208-29.347 44.73 4.841 12.526 18.261 21.296 32.007 20.592 6.146-0.246 12.435 0.531 18.494-0.391 9.269-2.773 6.529-16.412-2.599-15.997z" fill="#252525"/>
				
			
			
				
					<path d="m1597.3 1125.7c-11.122-17.624-28.201-15.006-45.795-15.002-10.338 0.922-10.017 18.139 3.416 16.321 7.105 0.42 14.668-1.175 21.333 1.723 6.699 3.091 10.574 11.138 8.487 18.264-3.528 13.214-16.451 12.476-22.779 12.578-23.742-0.119-39.066 2.731-42.587-11.858-1.125-3.463 0.225-7.917-3.088-10.466-4.115-4.478-12.48-1.977-14.113 3.808-2.629 17.721 13.018 36.016 33.711 34.86 12.462-0.221 24.981 0.513 37.419-0.345 23.734-3.286 36.544-30.504 23.996-49.883z" fill="#737373"/>
				
				
					<path d="m1494 1159.5c-18.368-0.025-18.235 0.114-20.912-0.494-10.884-2.21-16.797-15.399-9.291-25.301 5.692-7.605 10.829-7.242 47.511-6.652 8.465 0.112 15.844 7.486 15.525 15.856-0.254 4.32 3.288 8.441 7.745 8.58 12.282 1.181 11.066-16.241 3.815-26.846-11.594-17.297-26.882-14.042-63.418-14.048-37.623 3.292-44.882 57.897-3.215 65.087 1.255 0.153 21.8 0.709 24.394-0.453 8.264-3.27 6.255-15.378-2.154-15.729z" fill="#BEBEBE"/>
				
			
			
				
					<polygon points="1692.3 1087.6 1741.2 1115.6 1740.6 1171.4 1691.5 1143.4" fill="#3B3B3B"/>
					<path d="m1741.5 1173.1-50.972-29.065c0.013-0.966 0.806-57.089 0.82-58.067l50.753 29.062-0.601 58.07zm-49.028-30.177 47.132 26.875 0.555-53.657-46.93-26.873-0.757 53.655z" fill="#AEAEAE"/>
				
				
					<polygon points="1642.7 1115.5 1692.3 1087.6 1691.5 1143.4 1641.7 1171.3" fill="#A8A8A8"/>
					<path d="m1640.7 1173 1.039-58.09c0.77-0.434 50.807-28.555 51.573-28.986l-0.82 58.093-51.792 28.983zm2.948-56.95-0.958 53.626 47.889-26.799 0.757-53.629-47.688 26.802z" fill="#727272"/>
				
				
					<polygon points="1691.5 1143.4 1740.6 1171.4 1690.7 1199.3 1641.7 1171.3" fill="#5A5A5A"/>
					<path d="m1690.7 1200.4-51.009-29.085 51.807-28.991 51.009 29.085-51.807 28.991zm-47.086-29.071 47.096 26.855 47.875-26.791-47.096-26.855-47.875 26.791z" fill="#818181"/>
				
			
			
				
					<path d="m1373.8 1068.1c13.571 16.152 26.691 29.943 36.245 38.563l-11.599 54.649c-14.352-11.685-29.322-26.689-41.846-40.059l17.2-53.153z" fill="#B1B1B1"/>
					<path d="m1399 1163.1c-17.081-13.904-32.234-29.477-43.554-41.561l17.911-55.351c5.293 6.3 20.449 24.629 37.685 40.173-0.189 0.893-11.844 55.803-12.042 56.739zm-41.369-42.049c10.024 10.699 22.87 24.043 40.14 38.54l11.154-52.547c-12.259-11.262-24.139-24.251-34.805-36.949l-16.489 50.956z" fill="#878787"/>
				
				
					<path d="m1321.7 1078.2c16.743-2.342 33.079-4.964 52.09-10.053l-17.2 53.153c-22.385 4.698-41.295 6.612-57.319 8.067l22.429-51.167z" fill="#9E9E9E"/>
					<path d="m1297.7 1130.4 23.301-53.157c14.068-1.996 30.88-4.305 54.222-10.564l-17.919 55.374c-23.399 4.912-41.938 6.741-59.604 8.347zm24.634-51.396-21.556 49.178c26.479-2.467 35.604-4.056 55.034-7.787l16.481-50.934c-17.352 4.657-35.379 7.504-49.959 9.543z" fill="#7C7C7C"/>
				
				
					<path d="m1356.6 1121.3c15.81 16.878 30.909 31.154 41.846 40.059-18.372 5.633-40.302 9.948-59.045 13.094-17.283-17.033-29.686-32.106-40.119-45.086 18.232-1.655 36.188-3.63 57.318-8.067z" fill="#515151"/>
					<path d="m1339 1175.5c-17.872-17.616-29.861-32.223-41.672-46.917 19.319-1.791 36.533-3.503 59.531-8.324 13.763 14.692 27.77 28.671 43.521 41.507-24.702 7.574-49.692 11.773-61.38 13.734zm-37.913-45.321c17.028 21.078 23.764 28.174 38.565 43.256 16.072-2.697 34.777-6.119 56.715-12.474-16.808-14.132-29.537-27.237-40.173-38.59-20.557 4.305-38.607 6.269-55.107 7.808z" fill="#A4A4A4"/>
				
			
		
		
			
				
					<path d="m1275.2 1053.5c-5.861-9.461-10.837-10.18-24.2-19.292-3.381-2.457-8.771-1.053-11.042 2.626-8.992 12.358 18.654 15.087 22.952 29.313 2.381 7.707-0.965 16.805-9.914 19.845-8.51 2.942-13.575 0.239-42.407-20.128-2.821-1.957-5.047-4.616-6.428-8.072-4.847-12.123 5.586-15.543 3.345-22.402-1.18-5.895-9.115-8.385-13.512-4.596-11.025 11.212-10.628 30.131 0.263 42.55 4.388 5.028 24.064 17.581 28.586 20.448 7.438 4.661 16.5 12.045 31.5 9.441 22.866-4.198 32.679-30.251 20.857-49.733z" fill="#C6C6C6"/>
				
				
					<path d="m1176.1 1039.4c-12.928-10.922-15.642-12.741-17.627-17.824-6.115-15.445 12.668-30.039 27.463-16.581 6.689 5.962 15.476 13.107 23.989 19.948 6.104 4.881 7.83 15.233 2.867 21.986-2.608 3.132-2.167 8.267 0.839 11.076 9.168 9.434 20.495-6.807 18.342-24.272-2.463-19.087-12.08-20.152-38.021-43.497-33.714-27.244-86.864 26.799-25.899 63.262 9.217 3.933 15.628-8.371 8.047-14.098z" fill="#BFBFBF"/>
				
			
			
				
					<path d="m1064.7 822.32c1.439-10.068-1.68-15.271-6.595-27.82-1.419-3.849-2.078-7.915-7.916-8.505-6.866-0.702-11.531 6.084-7.814 13.07 2.616 8.372 8.578 16.144 4.926 25.187-4.78 11.958-19.441 13.425-26.863 4.747-3.051-3.205-4.247-7.567-5.654-10.975-10.388-26.767-11.587-30.441-9.252-37.243 3.873-11.051 13.074-8.322 15.344-14.119 3.153-5.248-1.459-12.418-7.32-12.404-11.462 1.505-23.442 11.375-25.451 27.193-1.042 9.457 1.169 14.704 5.384 26.286 8.453 23.854 11.904 34.678 26.184 41.209 20.246 8.947 42.061-5.219 45.027-26.626z" fill="#626262"/>
				
				
					<path d="m993.73 751.17c-3.398-15.274-7.243-25.279 0.72-32.804 8.266-8.537 24.224-4.65 27.284 8.652 6.446 32.24 10.728 34.645 5.897 43.725-4.959 9.193-10.712 5.789-14.068 11.648-3.758 6.52 2.416 14.192 9.168 12.642 13.602-4.419 23.887-17.808 23.533-33.576-0.219-6.959-3.463-11.957-8.983-40.296-10.045-33.292-59.469-32.299-64.017 4.391-1.056 8.972 4.411 30.18 5.811 31.978 5.27 7.565 16.315 2.245 14.655-6.36z" fill="#A6A6A6"/>
				
			
			
				
					<path d="m1137 892.62c0.955 14.461 2.386 31.721 6.266 53.009l-42.255 36.546c-4.627-20.302-7.158-37.291-9.414-57.002l45.403-32.553z" fill="#B2B2B2"/>
					<path d="m1100.4 983.96c-5.218-22.882-7.689-40.322-9.854-59.236l47.273-33.895c1.107 16.747 2.464 33.216 6.467 55.173l-43.886 37.958zm-7.807-58.328c2.113 18.466 4.474 34.282 8.981 54.762l40.618-35.13c-3.259-18.338-4.99-34.512-6.069-50.843l-43.53 31.211z" fill="#3A3A3A"/>
				
				
					<path d="m1088.8 869.71c14.8 7.96 32.497 16.849 48.158 22.916l-45.402 32.553c-16.687-7.419-35.384-17.927-50.976-27.257l48.22-28.212z" fill="#C2C2C2"/>
					<path d="m1091.7 926.28c-21.911-9.729-43.679-22.805-52.983-28.372l50.094-29.309c16.283 8.757 32.872 17.057 50.19 23.766l-47.301 33.915zm-49.194-28.354c15.421 9.227 32.443 18.644 48.971 26.14l43.518-31.202c-18.393-7.452-33.105-15.039-46.144-22.053l-46.345 27.115z" fill="#0D0D0D"/>
				
				
					<path d="m1091.6 925.18c1.791 15.65 4.22 34.213 9.414 57.002-21.56-8.187-37.737-15.817-54.816-24.449-3.099-18.886-4.719-40.821-5.573-59.81 15.558 9.31 34.264 19.827 50.975 27.257z" fill="#373737"/>
					<path d="m1102.3 983.72c-22.599-8.572-37.417-15.435-57.029-25.348-4.11-24.954-5.253-51.247-5.745-62.199 7.5 4.488 29.897 18.108 52.916 28.349 1.971 17.222 4.323 34.891 9.858 59.198zm-55.281-26.626c17.021 8.602 34.268 16.582 52.611 23.551-4.6-20.942-6.925-36.851-8.98-54.812-16.411-7.441-33.502-16.867-49.035-26.161 0.846 18.796 2.489 38.916 5.404 57.422z" fill="#C6C6C6"/>
				
			
			
				
					<path d="m1052.7 613.54c-2.973 2.232-5.806 4.248-10.621 9.898-0.848 5.02-1.405 5.349-2.107 8.403-3.534 5.461-8.784 13.564-14.833 24.542l-55.829 2.055c5.86-12.118 11.058-21.286 14.809-27.862 0.656-0.571 1.629-2.219 2.093-2.959 0 0 3.076-7.861 10.886-19.51l55.602 5.433z" fill="#4F4F4F"/>
					<path d="m967.7 659.46c6.829-14.114 11.105-21.573 15.62-29.506 2.292-1.978 3.753-7.712 9.037-16.459l4.219-6.406 58.645 5.731c-6.058 4.625-7.288 5.304-12.266 11.026-0.302 2.701-1.62 6.092-2.123 8.375-3.646 5.649-8.56 13.14-15.154 25.104l-57.978 2.135zm17.132-28.263s-7.993 13.794-13.998 26.217l53.681-1.976c6.292-11.415 12.601-21.018 14.512-23.979 0.608-2.735 1.183-3.007 2.102-8.445 2.279-2.628 3.967-4.82 8.982-8.754l-52.575-5.138c-7.625 11.614-10.65 19.169-10.65 19.169-0.505 0.805-1.374 2.258-2.054 2.906zm0.888-4.441c-2e-3 1e-3 -5e-3 3e-3 -8e-3 5e-3l8e-3 -5e-3z" fill="#2D2D2D"/>
				
				
					<path d="m1036.4 575.38c1.712 13.96 6.498 28.247 16.237 38.157l-55.602-5.433c-8.549-18.454-10.661-40.066-9.147-60.431l48.512 27.707z" fill="#414141"/>
					<path d="m1055.2 614.76-58.794-5.746c-10.042-21.684-10.714-43.603-9.353-62.934l50.259 28.706c2.049 16.151 6.429 28.307 17.888 39.974zm-57.507-7.559 52.596 5.14c-8.974-10.749-12.986-22.415-14.774-36.359l-46.764-26.71c-1.338 19.703 1.064 40.848 8.942 57.929z" fill="#4F4F4F"/>
				
				
					<path d="m997.06 608.1c-7.811 11.652-10.886 19.51-10.886 19.51-0.464 0.74-1.437 2.388-2.093 2.959-3.875 6.797-8.947 15.741-14.809 27.862-7.097-12.144-12.001-22.061-14.207-26.465-2.696-6.411-2.85 8.098-13.607-29.3 9.715-20.396 25.113-39.486 46.455-54.998-1.531 20.592 0.675 42.132 9.147 60.432z" fill="#BFBFBF"/>
					<path d="m969.35 660.48c-7.87-13.459-11.899-21.589-15.151-28.081-1.355-3.21-3.41 0.17-5.417-6.243-4.188-9.133-6.43-16.877-8.355-23.573 12.719-26.718 29.965-43.268 48.599-56.918-1.161 16.418-1.641 39.182 9.133 62.523-8.563 13.005-11.273 20.098-11.273 20.098-0.512 0.816-1.366 2.248-2.055 2.91-4.363 7.672-8.665 15.185-15.481 29.284zm-26.866-57.729c10.988 37.324 10.323 21.364 13.467 28.841 5.999 11.961 10.611 20.297 13.237 24.79 5.556-11.506 12.33-23.265 14.134-26.433 2.309-2.008 3.565-7.416 9.037-16.461l3.595-5.476c-6.615-14.406-10.736-34.814-9.16-58.34-20.072 14.816-35.301 34.105-44.31 53.079zm43.239 23.998c-2e-3 1e-3 -5e-3 3e-3 -8e-3 6e-3l8e-3 -6e-3z" fill="#A8A8A8"/>
				
			
		
		
			
				
					<path d="m1078.7 539.66c10.314-5.835 17.989-6.726 14.239-15.877-4.407-13.148-19.605 2.53-28.374 3.723-12.84 1.786-24.752-11.263-16.801-24.101 5.063-8.167 36.127-21.252 45.143-21.297 10.84 0.015 13.983 6.875 15.959 13.364 3.016 10.008 15.128 7.437 16.443-0.397 1.325-15.923-11.746-30.246-32.219-29.793-5.137 0.042-68.932 13.791-65.617 49.735 2.27 24.362 35.904 34.794 51.227 24.643z" fill="#454545"/>
				
				
					<path d="m1127.6 474.48c6.76 6.136 27.32-0.122 36.486 11.765 8.02 10.871-1.976 28.007-18.5 25.047-8.28-1.418-15.455-2.207-27.837-1.373-7.376 0.47-15.307-5.873-16.964-13.346-1.9-12.184-28.507-7.184-10.218 15.113 15.621 18.965 31.703 13.976 37.543 14.25 13.94 0.506 14.992 2.162 21.467 2.275 14.001-0.024 39.305-17.609 34.709-40.068-6.131-28.93-52.034-30.266-57.491-24.268-2.894 3.092-2.794 7.486 0.805 10.605z" fill="#717171"/>
				
			
			
				
					<path d="m1234 686.09c0.453 6.48 4.857 20.732 6.817 26.903 2.553 5.845 10.327 7.147 13.689 2.424 6.29-7.376-5.625-20.267-3.511-33.841 3.684-16.848 26.966-16.465 31.802 0.408 0.287 1 3.028 13.179 9.548 29.825 1.961 5.604 0.538 13.545-4.948 18.151-2.624 2.582-7.179 3.347-8.023 7.596-1.06 2.928 0.038 6.035 2.054 8.223 10.937 11.845 36.358-19.296 25.549-41.608-9.695-21.002-5.12-39.33-28.979-49.028-24.469-9.883-45.743 8.544-43.998 30.947z" fill="#CACACA"/>
				
				
					<path d="m1309.1 745.63c6.251 11.542 14.543 17.588 10.656 28.617-2.192 6.868-9.513 12.52-18.174 10.692-10.812-2.294-24.492-29.005-28.798-37.935-3.988-7.913-0.767-18.303 7.212-21.658 11.083-4.497 4.138-25.646-14.268-11.465-6.993 5.397-10.724 13.131-11.551 21.748-0.751 11.542 3.287 17.634 7.835 26.311 1.431 2.483 9.594 16.816 14.654 23.86 19.074 26.822 48.917 18.811 57.744-4.211 7.715-19.411-3.059-31.41-8.681-40.143-2.733-4.243-2.546-4.759-4.253-5.844-6.405-4.511-16.115 2.866-12.376 10.028z" fill="#6F6F6F"/>
				
			
			
				
					<path d="m1196.3 591.93c4.042-14.779 3.812-28.873 0.431-43.903l37.187-41.692c8.723 20.836 12.059 39.482 11.742 59.426l-49.36 26.169z" fill="#737373"/>
					<path d="m1194.8 593.83c4.124-15.12 5.018-27.763 0.899-46.072l38.535-43.204c8.856 21.152 12.648 38.451 12.398 61.796l-51.832 27.48zm2.999-45.527c3.629 16.144 2.933 30.923 0.034 41.735l46.888-24.859c0.19-19.743-3.343-38.566-11.085-57.057l-35.837 40.181z" fill="#828282"/>
				
				
					<path d="m1232.2 615.24c-2.744-3.487-16.37-17.151-35.814-23.31l49.359-26.168c21.308 13.392 37.033 34.259 42.083 44.315l-55.628 5.163z" fill="#bbb"/>
					<path d="m1231.7 616.25c-6.174-7.832-19.371-18.217-37.863-24.095l51.881-27.506c19.463 12.251 36.088 31.297 43.531 46.256-2.274 0.217-54.647 5.076-57.549 5.345zm-32.951-24.515c13.068 4.793 23.487 11.544 33.78 22.5l53.628-4.978c-10.733-17.416-23.437-31.571-40.52-42.381l-46.888 24.859z" fill="#808080"/>
				
				
					<path d="m1245.7 565.76c0.312-19.598-2.883-38.259-11.742-59.427 23.59 7.108 42.453 17.804 61.1 33.258 3.471 30.925-2.65 59.078-7.276 70.483-3.508-6.987-18.361-29.403-42.082-44.314z" fill="#C3C3C3"/>
					<path d="m1287.9 612.39c-8.168-16.082-24.101-34.107-43.149-46.101 0.257-23.807-3.733-40.643-12.447-61.467 22.516 6.786 41.045 15.542 63.695 34.277 3.191 28.59-1.181 56.419-8.099 73.291zm-41.203-47.157c17.018 10.745 30.105 25.113 40.859 42.535 6.794-21.622 9.299-43.566 6.612-67.681-19.205-15.877-39.041-26.373-58.506-32.239 7.33 17.531 11.231 36.644 11.035 57.385z" fill="#515151"/>
				
			
			
				
					<path d="m1367.2 899.53c-12.771-17.608-22.844-35.77-31.198-55.291l35.832-42.862c5.653 17.304 12.927 33.501 22.64 49.397l-27.274 48.756z" fill="#727272"/>
					<path d="m1367.3 901.31c-12.833-17.801-22.603-34.356-32.423-57.243l37.328-44.651c6.086 18.617 12.623 33.592 23.382 51.33l-28.287 50.564zm-30.182-56.914c7.98 18.487 17.515 35.987 29.971 53.339l26.263-46.946c-9.588-15.836-16.458-31.219-21.894-47.472l-34.34 41.079z" fill="#DBDBDB"/>
				
				
					<path d="m1431 897.09c-19.868 3.132-40.34 4.163-63.807 2.438l27.274-48.756c20.428-0.141 37.579-2.606 53.715-6.84l-17.182 53.158z" fill="#BDBDBD"/>
					<path d="m1365.6 900.38 28.288-50.567c22.17-0.149 37.752-2.556 55.743-7.259l-17.906 55.399c-21.787 3.411-41.134 4.265-66.125 2.427zm3.166-1.707c22.438 1.536 42.193 0.579 61.487-2.442l16.458-50.918c-16.95 4.413-34.531 6.245-51.686 6.419l-26.259 46.941z" fill="#383838"/>
				
				
					<path d="m1394.5 850.77c-9.643-15.78-16.935-31.937-22.64-49.397 12.66 1.502 29.087 3.13 49.915 0.64 7.112 15.241 15.626 28.769 26.44 41.916-16.343 4.29-33.5 6.701-53.715 6.841z" fill="#999"/>
					<path d="m1393.9 851.74c-10.678-17.611-17.354-32.731-23.488-51.502 17.565 2.084 31.519 3.097 51.88 0.737 8.226 17.634 16.293 29.783 27.562 43.507-17.516 4.584-33.579 7.103-55.954 7.258zm-20.71-49.23c5.531 16.592 12.436 31.849 21.786 47.292 17.22-0.177 34.531-2.008 51.475-6.422-10.073-12.287-18.513-25.902-25.315-40.325-16.58 1.904-31.487 1.408-47.946-0.545z" fill="#868686"/>
				
			
		
		
			
				
					<path d="m1500.5 913.53c5.023 1.295 5.564 1.049 25.498 1.503 4.479 0.266 8.472-3.802 8.331-8.128 0.505-10.602-12.534-7.828-26.016-8.766-19.458-1.379-19.992-27.81-2.394-31.947 3.974-0.96 6.373-0.158 36.844 0.24 6.818 0.07 13.486 4.286 15.781 10.713 1.842 4.046-0.057 9.445 4.131 12.393 4.519 4.048 12.504 1.281 13.653-4.521 1.005-8.797-2.386-17.413-8.241-23.88-12.178-13.502-22.727-11.026-58.325-11.811-31.619-2.071-51.997 53.201-9.262 64.204z" fill="#282828"/>
				
				
					<path d="m1584.9 867.1c14.514 0.16 24.918-1.447 30.593 7.937 6.215 9.322 0.848 25.186-16.128 24.795-10.747-0.223-21.508-0.109-32.243-0.523-8.435-0.32-15.701-7.865-15.523-16.112 0.928-11.498-17.744-11.388-16.899-0.373-0.793 16.423 13.304 31.663 30.05 32.904 12.802 0.231 25.603 0.344 38.399 0.507 22.818-0.526 38.209-25.023 29.496-44.517-4.851-12.551-18.165-21.429-31.816-20.825-6.104 0.182-12.34-0.673-18.364 0.18-9.179 2.652-6.722 16.337 2.435 16.027z" fill="#868686"/>
				
			
			
				
					<path d="m1818.9 901.32c11.576 17.574 28.646 14.884 46.256 14.811 10.313-0.959 9.53-18.181-3.873-16.312-7.12-0.396-14.647 1.231-21.396-1.636-6.788-3.062-10.871-11.092-8.97-18.229 3.086-12.826 14.982-12.535 22.43-12.68 23.377 0.029 38.946-2.921 42.903 11.721 1.225 3.462 3e-3 7.92 3.39 10.462 4.245 4.47 12.54 1.947 14.003-3.84 2.13-17.878-14.192-36.001-34.702-34.79-12.437 0.271-24.966-0.425-37.352 0.493-23.669 3.407-35.687 30.763-22.689 50z" fill="#979797"/>
				
				
					<path d="m1921.3 867.15c15.235 0.016 25.371-1.658 31.19 7.292 7.264 10.179-0.076 25.028-13.611 25.228-11.311 0.069-22.627 0.108-33.943-0.039-8.472-0.093-16.065-7.452-15.984-15.826 0.319-10.641-15.874-11.717-17.062-1.089-0.384 18.938 15.926 34.113 33.703 33.371 29.811-0.014 51.052 4.235 62.673-17.131 11.776-21.07-3.424-46.88-27.3-48.187-21.149-0.01-20.356-0.229-22.279 0.645-8.13 3.26-5.845 15.386 2.613 15.736z" fill="#949494"/>
				
			
			
				
					<polygon points="1724.3 939.81 1674.8 911.86 1674.9 856 1724.2 883.94" fill="#909090"/>
					<path d="m1725.3 941.46-51.417-29.038 0.118-58.083 51.21 29.038 0.089 58.083zm-49.486-30.163 47.551 26.855-0.082-53.65-47.36-26.855-0.109 53.65z" fill="#5A5A5A"/>
				
				
					<polygon points="1773.7 911.74 1724.3 939.81 1724.2 883.94 1773.5 855.88" fill="#595959"/>
					<path d="m1723.3 941.47-0.089-58.084 51.17-29.163 0.198 58.083-51.279 29.164zm1.842-56.964 0.082 53.649 47.422-26.97-0.183-53.649-47.321 26.97z" fill="#7F7F7F"/>
				
				
					<polygon points="1724.2 883.94 1674.9 856 1724.1 828.08 1773.5 855.88" fill="#B6B6B6"/>
					<path d="m1724.2 885.05-51.241-29.056 51.151-29.028c0.812 0.457 50.462 28.437 51.291 28.905l-51.201 29.179zm-47.331-29.057 47.329 26.837 47.29-26.951-47.374-26.698-47.245 26.812z" fill="#080808"/>
				
			
			
				
					<path d="m2068.3 936.32c-22.091-7.685-45.162-18.401-56.11-24.647l0.094-55.866c15.982 9.598 30.961 17.488 49.179 25.067l6.837 55.446z" fill="#C7C7C7"/>
					<path d="m2069.4 937.74c-23.948-8.337-46.239-18.682-58.224-25.507l0.098-58.13c17.897 10.631 31.449 17.977 51.029 26.094l7.097 57.543zm-56.292-26.635c14.851 8.08 33.936 16.663 53.997 23.787l-6.579-53.346c-18.46-7.768-31.496-14.682-47.328-24.039l-0.09 53.598z" fill="#848484"/>
				
				
					<path d="m2117.4 898.11c-9.529 9.241-26.57 23.262-49.117 38.206l-6.837-55.447c18.906-14.26 33.134-27.719 40.729-36.511l15.225 53.752z" fill="#7A7A7A"/>
					<path d="m2067.5 937.98-7.098-57.549c14.551-10.997 30.177-24.147 42.195-38.062l15.871 56.027c-10.333 10.027-27.237 23.811-50.968 39.584zm-5.046-56.68 6.579 53.347c16.111-10.727 32.987-23.357 47.263-36.838l-14.591-51.511c-12.685 13.732-24.666 23.97-39.251 35.002z" fill="#7B7B7B"/>
				
				
					<path d="m2061.5 880.87c-17.947-7.466-32.927-15.307-49.179-25.067 1.005-0.565 21.843-12.737 42.341-30.38 18.77 9.301 36.197 15.858 47.566 18.935-7.357 8.519-21.425 21.954-40.728 36.512z" fill="#767676"/>
					<path d="m2061.6 881.97c-20.647-8.609-33.917-15.908-51.239-26.198 11.869-6.676 29.276-18.711 44.116-31.501 15.869 7.843 33.174 15.147 49.441 19.553-11.358 13.19-27.031 26.587-42.318 38.146zm-47.435-26.165c16.232 9.593 29.252 16.435 47.157 23.958 14.322-10.834 26.874-21.547 39.122-34.909-16.334-4.864-30.718-10.899-45.678-18.287-11.961 10.187-24.474 19.387-40.601 29.238z" fill="#7F7F7F"/>
				
			
		
		
			
				
					<path d="m2192.8 870c3.726-2.325 11.687-7.826 15.834-11.024 4.358-3.162 5.051-9.133 2.125-12.285-9.067-11.713-22.898 15.163-39.55 12.065-8.188-1.628-13.822-9.316-12.141-18.59 1.766-9.36 6.317-10.262 19.291-19.649 10.239-7.83 16.886-15.974 25.97-14.396 8.924 1.602 9.956 8.815 16.185 7.913 3.016-0.063 5.6-2.217 6.927-4.849 6.478-12.969-26.597-28.885-46.847-11.734-21.551 19.443-35.389 20.012-37.857 42.789-3.223 29.795 26.955 45.394 50.063 29.76z" fill="#555"/>
				
				
					<path d="m2219.3 782.85c1.436-1.482 8.21-9.601 9.411-11.301 9.828-13.385 31.924-6.132 29.803 10.892-0.938 6.31-5.956 11.487-10.222 16.605-38.596 46.432-36.047 7.074-51.258 16.521-10.467 5.949 1.426 22.691 19.655 23.207 6.731 0.199 10.542-1.698 11.542-1.797 0.206 0.22-0.067-0.059 0.682 0.721 6.789 1.282 38.105-32.685 43.719-44.29 15.738-34.404-26.231-57.18-50.72-38.191-3.853 2.882-14.981 16.927-16.069 18.629-3.316 7.707 7.905 15.633 13.457 9.004z" fill="#282828"/>
				
			
			
				
					<path d="m2314.6 557.87c3.153-11.268-0.614-19.727-4.371-30.895-2.751-7.172-3.681-12.34-10.015-12.999-7.116-0.745-10.815 7.307-6.866 14.628 2.586 8.003 6.316 14.423 5.457 22.15-1.379 10.424-12.717 16.833-23.06 11.532-7.495-3.655-8.567-10.1-10.401-15.314-6.919-21.073-16.999-31.416-5.873-42.172 1.904-2.163 10.051-5.508 7.3-12.553-7.339-20.036-39.25 13.846-25.114 39.479 10.664 21.67 8.374 33.629 23.539 43.112 18.182 11.78 43.397 5.859 49.404-16.968z" fill="#A0A0A0"/>
				
				
					<path d="m2236.7 490.23c-6.448-10.836-15.289-16.698-11.985-27.863 2.378-9.163 12.374-14.727 21.508-10.554 4.284 1.948 7.319 3.997 22.052 27.441 4.387 7.122 8.489 11.757 6.361 20.158-0.992 4.071-3.7 7.618-7.429 9.49-3.884 1.894-5.965 6.953-4.177 10.827 6.582 16.189 39.843-7.614 25.824-38.195-0.442-1.002-20.739-36.199-32.03-43.13-26.218-16.385-52.126 7.12-48.608 33.312 1.117 10.532 4.938 13.111 14.311 26.761 0.554 1.025 1.329 1.839 2.319 2.451 6.822 4.67 15.956-3.543 11.854-10.698z" fill="#5A5A5A"/>
				
			
			
				
					<path d="m2345.4 678.64c-11.281 16.463-27.152 34.775-41.708 47.906l-52.333-19.552c12.498-9.283 27.622-23.669 38.978-37.794l55.063 9.44z" fill="#6E6E6E"/>
					<path d="m2303.9 727.65-54.543-20.377c15.707-11.669 29.751-25.652 40.58-39.125l57.107 9.79c-12.074 17.612-27.152 35.278-43.144 49.712zm-50.547-20.944 50.125 18.726c16.199-14.614 27.953-29.243 40.272-46.101l-53.021-9.089c-12.915 16.059-25.433 26.856-37.376 36.464z" fill="#848484"/>
				
				
					<path d="m2322 619.66c9.696 18.425 16.865 35.912 23.342 58.982l-55.063-9.44c-7.171-19.514-14.472-33.779-24.139-48.698l55.86-0.844z" fill="#B2B2B2"/>
					<path d="m2346.7 679.85-57.119-9.792c-7.952-21.673-15.068-34.879-25.182-50.493l58.195-0.879c10.502 19.972 17.224 36.653 24.106 61.164zm-55.694-11.505 53.005 9.087c-6.15-21.497-12.977-38.561-22.573-56.799l-53.525 0.808c9.762 15.042 16.863 30.089 23.093 46.904z" fill="#202020"/>
				
				
					<path d="m2290.3 669.2c-10.702 13.317-25.748 27.971-38.978 37.794-3.023-14.941-9.169-33.284-16.085-47.234 11.219-11.5 19.934-21.466 30.924-39.258 9.675 14.93 16.966 29.18 24.139 48.698z" fill="#B0B0B0"/>
					<path d="m2250.7 708.67c-3.541-16.857-8.84-33.448-16.608-49.1 13.177-13.507 20.698-22.465 32.073-40.879 10.62 16.387 17.57 29.786 25.252 50.682-12.211 15.184-26.666 28.856-40.717 39.297zm-14.272-48.732c7.573 15.284 11.75 29.566 15.561 45.371 10.86-8.055 26.552-22.987 37.24-36.293-6.204-16.737-13.187-31.539-23.025-46.716-10.384 16.811-19.936 27.552-29.776 37.638z" fill="#868686"/>
				
			
			
				
					<path d="m2167.5 341.34c13.408 15.786 25.494 33.28 35.636 52.396l-32.094 45.728c-7.056-16.958-16.216-32.878-26.735-47.299l23.193-50.825z" fill="#3F3F3F"/>
					<path d="m2170.8 441.45c-6.995-16.823-15.227-32.174-27.628-49.176 0.385-0.847 23.491-51.483 24.056-52.72 15.625 18.399 27.01 35.395 37.013 54.248l-33.441 47.648zm-25.404-49.402c10.558 14.474 19.952 31.313 25.84 45.423l30.746-43.81c-9.991-18.834-22.714-36.947-34.26-50.544l-22.326 48.931z" fill="#CDCDCD"/>
				
				
					<path d="m2104.9 348.64c19.018-4.596 41.762-6.921 62.592-7.304l-23.192 50.825c-20.92 1.957-39.804 5.987-53.475 10.543l14.075-54.064z" fill="#C2C2C2"/>
					<path d="m2089.4 404.18 14.667-56.343c21.872-5.303 44.095-7.11 64.894-7.495l-24.058 52.727c-19.064 1.781-37.319 5.056-55.503 11.111zm16.242-54.733-13.49 51.821c18.363-5.445 33.019-8.292 51.458-10.016l22.325-48.924c-19.956 0.367-40.317 2.629-60.293 7.119z" fill="#8E8E8E"/>
				
				
					<path d="m2144.3 392.16c10.56 14.478 19.701 30.394 26.735 47.299-16.896-0.763-33.727 0.396-49.926 3.526-9.324-15.799-20.363-30.115-30.283-40.283 16.01-5.334 35.574-8.868 53.474-10.542z" fill="#B2B2B2"/>
					<path d="m2120.6 444.06c-8.974-15.197-18.927-28.803-31.561-41.787 18.205-6.074 36.829-9.363 55.694-11.125 12.373 16.965 20.716 32.429 27.751 49.342-17.391-0.782-33.359-9e-3 -51.884 3.57zm-28.042-40.895c12.775 13.925 21.169 25.47 29.012 38.743 15.386-2.978 33.28-4.148 47.966-3.482-5.808-13.981-15.132-30.735-25.716-45.256-17.308 1.619-32.822 4.43-51.262 9.995z" fill="#6D6D6D"/>
				
			
		
		
			
				
					<path d="m2040.7 336.05c-7.837-2.97-10.974-2.351-30.659-2.352-10.544-0.373-10.903 16.483 0.185 16.37 15.637 0.191 19.145-0.697 24.052 1.518 13.145 5.86 12.557 23.196-0.052 29.384-4.194 2.065-5.855 1.611-22.744 1.671-13.681 0.011-27.89 2.349-32.833-10.404-1.955-4.011-0.207-9.444-4.473-12.313-4.624-3.949-12.525-1.084-13.523 4.734-1.54 17.616 14.443 34.285 32.333 34.379 34.349-0.056 47.539 3.402 60.615-13.547 13.425-17.462 8.093-41.049-12.901-49.44z" fill="#727272"/>
				
				
					<path d="m1952.5 382.68c-14.412 0.035-24.882 1.795-30.809-7.583-6.41-9.224-1.476-25.172 15.528-24.945 10.736 0.073 21.478-0.181 32.207 0.075 8.424 0.163 15.893 7.572 15.953 15.82-0.596 11.445 18.088 11.104 16.903 0.047 0.285-16.41-14.226-31.402-30.935-32.326l-38.303 0.02c-22.649 0.731-37.615 25.291-28.435 44.784 5.132 12.514 18.677 21.256 32.34 20.526 6.113-0.258 12.387 0.506 18.403-0.428 9.151-2.782 6.285-16.425-2.852-15.99z" fill="#9C9C9C"/>
				
			
			
				
					<path d="m1714.9 312.91c-9.4-8.066-8.729-8.852-11.759-9.039-7.769-0.478-13.864 9.259-6.254 14.88 1.61 1.911 6.14 5.446 7.18 6.309 14.13 12.245 7.813 28.5-3.674 30.907-9.396 2.021-15.835-4.766-19.73-7.899-48.792-42.597-9.468-41.001-13.372-54.923-5.526-19.87-63.576 13.753 4.927 69.205 46.682 37.013 73.209-24.058 42.682-49.44z" fill="#6E6E6E"/>
				
				
					<path d="m1637.5 292.95c2.36-7.113-8.513-22.671-5.411-33.919 4.261-15.473 23.898-14.143 30.233-1.919 0 0 3.681 14.19 9.822 27.675 2.032 4.189 2.785 5.239 3.063 8.715 0.471 5.282-2.014 12.14-7.203 15.641-9.296 5.956 0.634 20.455 9.624 14.143 7.82-6.618 12.881-17.812 13.484-27.593 1.074-11.312-3.494-15.496-5.948-21.808-6.544-15.356-4.599-18.421-8.629-24.604-12.06-18.503-40.736-25.756-53.974-9.267-16.401 19.53-0.304 53.293 1.373 55.095 4.373 5.125 11.476 4.173 13.566-2.159z" fill="#4D4D4D"/>
				
			
			
				
					<polygon points="1811.6 310.78 1861.6 338.65 1862.7 394.5 1812.8 366.64" fill="#9A9A9A"/>
					<path d="m1863.7 396.17-51.82-28.956-1.286-58.088 52.004 28.952 1.102 58.092zm-49.915-30.101 47.922 26.778-1.017-53.622-48.093-26.774 1.188 53.618z" fill="#606060"/>
				
				
					<path d="m1765.3 338.67c14.6-10.15-1.543-0.497 46.258-27.883l1.237 55.853c-43.41 24.958-39.912 23.326-51.175 27.776l3.68-55.746z" fill="#7C7C7C"/>
					<path d="m1760.6 395.87 3.811-57.729c15.68-10.896-1.642-0.479 48.119-29l1.285 58.048c-44.502 25.595-40.09 23.496-53.215 28.681zm5.674-56.675-3.549 53.761c10.246-4.046 10.833-4.838 49.135-26.869l-1.189-53.658c-42.806 24.537-32.014 17.904-44.397 26.766z" fill="#4E4E4E"/>
				
				
					<path d="m1812.8 366.64 49.871 27.867-48.634 27.986c-60.411-33.788-24.554-13.906-52.411-28.078 11.26-4.448 7.763-2.817 51.174-27.775z" fill="#A7A7A7"/>
					<path d="m1814.1 423.6c-60.381-33.756-25.179-14.249-54.765-29.298 13.999-5.528 9.142-3.252 53.515-28.773l51.833 28.964-50.583 29.107zm-50.074-29.077c23.358 11.884-8.964-6.14 50.06 26.858l46.685-26.865-47.909-26.77c-38.61 22.207-39.427 23.063-48.836 26.777z" fill="#919191"/>
				
			
			
				
					<path d="m1720 186.68c-13.989 0.649-29.141 7.086-40.934 14.745l-52.375-19.44c14.226-13.737 32.684-26.413 51.47-32.326l41.839 37.021z" fill="#A2A2A2"/>
					<path d="m1679.2 202.49-54.268-20.142c15.185-14.653 33.266-27.428 53.475-33.78l44.026 38.955c-16.214 0.769-29.963 6.35-43.233 14.967zm-50.721-20.884 50.484 18.737c11.993-7.793 24.601-12.807 38.754-14.417l-39.763-35.184c-17.266 5.938-34.589 16.489-49.475 30.864z" fill="#8D8D8D"/>
				
				
					<path d="m1729.4 144.68c-5.975 10.886-9.859 25.907-9.397 41.998l-41.839-37.021c5.13-22.697 15.47-42.194 26.36-54.999l24.876 50.022z" fill="#737373"/>
					<path d="m1721 188.87-43.935-38.874c5.253-23.219 15.117-42.362 27.64-57.082l25.752 51.783c-7.587 13.861-9.906 28.585-9.457 44.173zm-41.801-39.562 39.744 35.166c-0.289-12.919 2.998-27.324 9.344-39.81l-23.987-48.233c-12.501 16.043-20.592 32.949-25.101 52.877z" fill="#C9C9C9"/>
				
				
					<path d="m1678.1 149.66c-18.786 5.913-37.244 18.588-51.47 32.326-1.769-25.852 2.612-51.037 9.63-69.346 20.919-10.212 45.956-17.808 68.199-17.979-11.016 12.953-21.27 32.501-26.359 54.999z" fill="#515151"/>
					<path d="m1625.9 184.12c-1.893-27.733 2.116-52.411 9.687-72.18 22.46-10.966 46.374-18.072 71.065-18.259-13.201 15.529-22.574 34.312-27.641 56.733-20.168 6.345-37.903 19.022-53.111 33.706zm11.221-70.782c-7.374 20.269-11.103 44.227-9.578 66.514 14.624-14.124 32.385-24.944 49.828-30.935 4.553-20.171 12.569-36.877 25.116-53.212-21.751 1.183-42.156 6.305-65.366 17.633z" fill="#B8B8B8"/>
				
			
		
	

</svg>
