<svg width="24" height="24" viewBox="0 0 24 24" fill="none" xmlns="http://www.w3.org/2000/svg">
<g clip-path="url(#clip0_1084_16902)">
<path d="M4.3125 0.820314C2.65313 1.18125 1.35938 2.4 0.88125 4.05938L0.773438 4.42969V10.5V16.5703L0.88125 16.9406C1.33125 18.4969 2.46563 19.6406 4.03594 20.1188C4.37344 20.2172 4.45313 20.2219 6.68906 20.2406L9 20.2547L10.2609 21.6938C10.9547 22.4859 11.5781 23.1609 11.6438 23.1938C11.7141 23.2266 11.8734 23.25 12 23.25C12.1266 23.25 12.2859 23.2266 12.3563 23.1938C12.4219 23.1609 13.0453 22.4859 13.7391 21.6938L15 20.2547L17.3109 20.2406C19.5469 20.2219 19.6266 20.2172 19.9641 20.1188C21.5344 19.6406 22.6688 18.4969 23.1188 16.9406L23.2266 16.5703V10.5V4.42969L23.1188 4.05938C22.7391 2.75156 21.8484 1.70156 20.6531 1.14844C20.4656 1.05938 20.1562 0.942188 19.9641 0.88125L19.6172 0.773439L12.1172 0.764065C5.83125 0.759377 4.56563 0.768751 4.3125 0.820314ZM12.3609 5.39063C12.4453 5.4375 12.5484 5.53594 12.5953 5.60625C12.6375 5.67656 12.7875 6.22031 12.9234 6.81563C13.2141 8.07188 13.3359 8.36719 13.7344 8.76563C14.1328 9.16406 14.4281 9.28594 15.6656 9.56719C16.2563 9.70313 16.8 9.84844 16.875 9.9C17.3109 10.1625 17.3109 10.8375 16.875 11.1C16.8 11.1516 16.2563 11.2969 15.6656 11.4328C14.4281 11.7141 14.1328 11.8359 13.7344 12.2344C13.3359 12.6328 13.2141 12.9281 12.9234 14.1844C12.7875 14.7797 12.6375 15.3234 12.5953 15.3938C12.3234 15.8063 11.6766 15.8063 11.4047 15.3938C11.3625 15.3234 11.2125 14.7797 11.0766 14.1844C10.7859 12.9281 10.6641 12.6328 10.2656 12.2344C9.86719 11.8359 9.57188 11.7141 8.31563 11.4234C7.72031 11.2875 7.17656 11.1375 7.10625 11.0953C6.69375 10.8234 6.69375 10.1766 7.10625 9.90469C7.17656 9.8625 7.72031 9.7125 8.31563 9.57656C9.57188 9.28594 9.86719 9.16406 10.2656 8.76563C10.6641 8.36719 10.7859 8.07188 11.0766 6.81563C11.2125 6.22031 11.3625 5.67656 11.4047 5.60625C11.5312 5.41406 11.7609 5.29688 12 5.29688C12.1266 5.29688 12.2719 5.33438 12.3609 5.39063Z" fill="white"/>
</g>
<defs>
<clipPath id="clip0_1084_16902">
<rect width="24" height="24" fill="white"/>
</clipPath>
</defs>
</svg>
