<?xml version="1.0" encoding="UTF-8"?>
<svg xmlns="http://www.w3.org/2000/svg" width="56" height="56" viewBox="0 0 56 56" fill="none">
  <rect width="56" height="56" rx="5" fill="url(#paint0_linear_4010_977)"></rect>
  <path d="M41.3277 32.7485L28.6547 11.3565C28.5896 11.2593 28.4919 11.1621 28.3941 11.0972C28.2964 11.0324 28.1661 11 28.0358 11C27.9054 11 27.7751 11.0324 27.6774 11.0972C27.5797 11.1621 27.4819 11.2593 27.4168 11.3565L23.6377 17.7741C23.5074 17.9686 23.4422 18.2279 23.4422 18.4548C23.4422 18.6817 23.5074 18.9409 23.6377 19.1354L31.9126 33.105C32.0429 33.2995 32.2058 33.494 32.4338 33.6236C32.6619 33.7533 32.8899 33.8181 33.1506 33.8181H40.7088C40.8391 33.8181 40.9694 33.7857 41.0671 33.7208C41.1649 33.656 41.2626 33.5588 41.3277 33.4616C41.3929 33.3643 41.4255 33.2347 41.4255 33.105C41.4255 32.9754 41.3929 32.8781 41.3277 32.7485Z" fill="white"></path>
  <path d="M8.13031 43.9306L20.8033 22.5387C20.8685 22.4414 20.9662 22.3442 21.0639 22.2794C21.1617 22.2145 21.292 22.1821 21.4223 22.1821C21.5526 22.1821 21.6829 22.2145 21.7807 22.2794C21.8784 22.3442 21.9761 22.4414 22.0413 22.5387L25.8204 28.9562C25.9507 29.1507 26.0159 29.41 26.0159 29.6369C26.0159 29.8638 25.9507 30.1231 25.8204 30.3175L17.5455 44.2871C17.4152 44.4816 17.2523 44.6761 17.0242 44.8057C16.7962 44.9354 16.5681 45.0002 16.3075 45.0002H8.71673C8.58641 45.0002 8.4561 44.9678 8.35836 44.903C8.26063 44.8381 8.16289 44.7409 8.09774 44.6437C8.03258 44.5464 8 44.4168 8 44.2871C8.03258 44.1575 8.06516 44.0603 8.13031 43.9306Z" fill="white"></path>
  <path d="M22.0087 44.9678H47.3547C47.485 44.9678 47.6154 44.9354 47.7131 44.8706C47.8108 44.8058 47.9086 44.7085 47.9737 44.6113C48.0389 44.5141 48.0715 44.3844 48.0715 44.2548C48.0715 44.1251 48.0389 44.0279 47.9737 43.8982L44.1946 37.4806C44.0643 37.2862 43.9014 37.0917 43.6734 36.962C43.4453 36.8324 43.2173 36.7676 42.9567 36.7676H26.4394C26.1788 36.7676 25.9507 36.8324 25.7227 36.962C25.4946 37.0917 25.3317 37.2538 25.2014 37.4806L21.4223 43.8982C21.3572 43.9955 21.3246 44.1251 21.3246 44.2548C21.3246 44.3844 21.3572 44.4816 21.4223 44.6113C21.4875 44.7085 21.5852 44.8058 21.6829 44.8706C21.7807 44.9354 21.911 44.9678 22.0087 44.9678Z" fill="white"></path>
  <defs>
    <linearGradient id="paint0_linear_4010_977" x1="28" y1="0" x2="28" y2="56" gradientUnits="userSpaceOnUse">
      <stop stop-color="#10B6F7"></stop>
      <stop offset="1" stop-color="#0153F7"></stop>
    </linearGradient>
  </defs>
</svg>
