<?xml version="1.0" encoding="UTF-8"?>
<svg xmlns="http://www.w3.org/2000/svg" width="56" height="56" viewBox="0 0 56 56" fill="none">
  <g clip-path="url(#clip0_2992_7911)">
    <path d="M9.71327 56L17.8407 41.9753L25.9681 28L34.046 13.9753L35.3841 11.7531L35.9788 13.9753L38.4566 23.2099L35.6814 28L27.554 41.9753L19.4761 56H29.1894L37.3168 41.9753L41.5292 34.7161L43.5115 41.9753L47.2779 56H56L52.2336 41.9753L48.4673 28L47.4761 24.3951L53.5221 13.9753H44.7009L44.4035 12.9383L41.331 1.48148L40.9345 0H32.4602L32.2619 0.296296L24.3327 13.9753L16.2053 28L8.12743 41.9753L0 56H9.71327Z" fill="black"></path>
  </g>
  <defs>
    <clipPath id="clip0_2992_7911">
      <rect width="56" height="56" fill="white"></rect>
    </clipPath>
  </defs>
</svg>
