<svg width="30" height="30" viewBox="0 0 30 30" fill="none" xmlns="http://www.w3.org/2000/svg">
<g clip-path="url(#clip0_2005_788)">
<path d="M15.0147 4.81046C14.826 4.80942 14.6389 4.82905 14.4643 4.8682C14.2897 4.90735 14.131 4.96524 13.9977 5.03846L0.41458 12.492C0.282875 12.5642 0.178398 12.65 0.107116 12.7444C0.0358344 12.8388 -0.000854492 12.94 -0.000854492 13.0422C-0.000854492 13.1444 0.0358344 13.2455 0.107116 13.3399C0.178398 13.4344 0.282875 13.5201 0.41458 13.5924L13.9971 21.0459C14.1287 21.1181 14.285 21.1755 14.457 21.2146C14.6291 21.2537 14.8135 21.2739 14.9997 21.2739C15.1859 21.2739 15.3703 21.2537 15.5423 21.2146C15.7143 21.1755 15.8706 21.1181 16.0023 21.0459L29.5851 13.593C29.7168 13.5207 29.8213 13.435 29.8925 13.3405C29.9638 13.2461 30.0005 13.145 30.0005 13.0428C30.0005 12.9406 29.9638 12.8394 29.8925 12.745C29.8213 12.6506 29.7168 12.5648 29.5851 12.4926L16.0026 5.03846C15.7403 4.89445 15.3857 4.81259 15.0147 4.81046ZM1.41808 15.8571L0.41488 16.4073C0.283175 16.4795 0.178698 16.5653 0.107416 16.6597C0.0361344 16.7541 -0.000554492 16.8553 -0.000554492 16.9575C-0.000554492 17.0597 0.0361344 17.1608 0.107416 17.2552C0.178698 17.3497 0.283175 17.4354 0.41488 17.5077L13.9974 24.9615C14.129 25.0337 14.2853 25.0911 14.4573 25.1302C14.6294 25.1693 14.8138 25.1895 15 25.1895C15.1862 25.1895 15.3706 25.1693 15.5426 25.1302C15.7146 25.0911 15.8709 25.0337 16.0026 24.9615L29.5851 17.508C29.7167 17.4357 29.8212 17.3499 29.8924 17.2555C29.9636 17.1611 30.0003 17.0599 30.0002 16.9577C30.0002 16.8555 29.9634 16.7543 29.8921 16.6599C29.8207 16.5655 29.7162 16.4798 29.5845 16.4076L28.5819 15.8574L26.577 16.9572L26.5782 16.9578L15 23.3115L3.42118 16.9575L3.42238 16.9569L1.41808 15.8571Z" fill="black"/>
</g>
<defs>
<clipPath id="clip0_2005_788">
<rect width="30" height="30" fill="white"/>
</clipPath>
</defs>
</svg>
