<?xml version="1.0" encoding="UTF-8"?>
<svg xmlns="http://www.w3.org/2000/svg" width="138" height="48" viewBox="0 0 138 48" fill="none">
  <mask id="mask0_137_18" style="mask-type:luminance" maskUnits="userSpaceOnUse" x="0" y="0" width="138" height="48">
    <path d="M137.143 0H0V48H137.143V0Z" fill="white"></path>
  </mask>
  <g mask="url(#mask0_137_18)">
    <path fill-rule="evenodd" clip-rule="evenodd" d="M19.8962 48L19.6362 47.8902C15.1529 45.997 11.8394 44.4636 9.50388 43.2015C6.65708 41.6681 3.16028 39.3528 1.37038 35.0497C0.407283 32.7366 -0.0509168 29.9884 0.0044832 26.8849L0.100383 4.8933L0.816384 4.4884C5.94538 1.5938 12.8217 0 20.1775 0C27.5332 0 34.4117 1.5959 39.5428 4.4905L40.2588 4.8954L40.3526 26.9043C40.408 29.9927 39.9498 32.7409 38.9867 35.0518C37.1967 39.355 33.7 41.6681 30.8553 43.2037C28.5007 44.4722 25.1872 46.0057 20.7208 47.8902L20.4609 48H19.8962Z" fill="white"></path>
    <path fill-rule="evenodd" clip-rule="evenodd" d="M20.1795 46.5793C24.8418 44.6108 28.0253 43.1183 30.1945 41.9488C33.442 40.1979 36.2143 38.0592 37.6931 34.4991C38.5582 32.4208 39.0036 29.916 38.9482 26.9072C38.9183 19.8452 38.8885 12.7853 38.8587 5.72754C28.6752 -0.0185561 11.6815 -0.0185561 1.50018 5.72754C1.47038 12.7874 1.43838 19.8473 1.40858 26.9094C1.35528 29.9181 1.80068 32.4229 2.66368 34.5013C4.14468 38.0614 6.91688 40.2 10.1644 41.951C12.3315 43.1226 15.5171 44.613 20.1773 46.5815L20.1795 46.5793Z" fill="#1A315D"></path>
    <path fill-rule="evenodd" clip-rule="evenodd" d="M20.178 45.0005C23.3104 43.6738 26.528 42.2761 29.5155 40.6651C32.471 39.0692 35.028 37.1524 36.3684 33.9369C37.2804 31.7422 37.5553 29.2999 37.5126 26.9351V26.9157L37.4338 15.1822C26.903 13.0457 9.47889 14.6201 2.88169 24.1417L2.84759 26.9179V26.9373C2.80709 29.2999 3.0799 31.7465 3.9919 33.939C5.3301 37.1567 7.88709 39.0735 10.8427 40.6672C13.8301 42.2804 17.0478 43.6803 20.1801 45.0027L20.178 45.0005Z" fill="#FFCC04"></path>
    <path fill-rule="evenodd" clip-rule="evenodd" d="M25.6602 26.4179C23.8596 27.2643 23.3397 29.8983 23.4633 31.7548C23.508 32.4698 23.589 33.1999 23.2928 33.8719C22.4341 35.8146 19.4913 34.6322 20.1263 31.9293C20.7677 29.1833 22.1123 26.7216 22.1166 23.491C22.1166 20.8268 21.0724 18.4577 18.9416 16.3105C19.5979 18.6472 18.4941 19.8813 17.239 21.2942C16.555 22.0631 15.8667 22.819 15.5343 23.8291C15.0804 25.2075 15.2168 26.7495 16.2354 28.115C16.1224 27.2514 16.1011 26.4394 16.2481 25.7158C16.6786 23.59 19.4061 22.6079 20.0667 20.7514C20.772 21.9231 20.5568 23.6245 19.9388 25.2183C18.7967 27.6649 16.4442 30.9988 17.0536 33.8396C17.4265 35.5712 18.2703 36.788 19.8408 37.4428C21.7842 38.2547 24.2091 37.4342 25.1424 35.47C25.6027 34.5029 25.6368 33.4153 25.332 32.2329C24.2943 28.6018 24.9485 27.4689 25.6581 26.4179H25.6602Z" fill="white"></path>
    <path fill-rule="evenodd" clip-rule="evenodd" d="M25.5881 26.2976L25.5987 26.289L25.7735 26.4936C25.4283 27.0062 25.0958 27.5382 24.9765 28.3738C24.855 29.2245 24.9531 30.3962 25.4645 32.1902V32.1945C25.6179 32.8019 25.6861 33.3834 25.6563 33.9369C25.6307 34.4947 25.5007 35.0288 25.2642 35.5285C24.5695 36.993 23.0758 37.8416 21.5458 37.889C21.2475 37.8976 20.947 37.8782 20.6551 37.8243C20.361 37.7705 20.0712 37.6887 19.7878 37.5702V37.5659C18.9781 37.2278 18.3559 36.7453 17.8871 36.1251C17.4226 35.5048 17.1093 34.7488 16.9218 33.8637C16.4317 31.5829 17.7933 29.0242 18.9568 26.8339C19.27 26.2438 19.5705 25.6774 19.8155 25.1562C20.2481 24.0341 20.4804 22.8646 20.3227 21.8696C20.2929 21.6801 20.246 21.4948 20.1863 21.3204C20.1565 21.2342 20.1224 21.1524 20.0862 21.0705C19.726 21.8287 19.0463 22.4382 18.3623 23.0563C17.495 23.8381 16.6086 24.6393 16.3848 25.7398C16.3145 26.093 16.2826 26.4656 16.2847 26.8576C16.2847 27.2517 16.3188 27.6652 16.3742 28.0917L16.127 28.1929C15.3748 27.185 15.0893 26.0801 15.1638 25.0097C15.1788 24.8008 15.2043 24.594 15.2448 24.3894C15.2832 24.1913 15.3386 23.9867 15.4046 23.7842L15.4089 23.7756C15.7413 22.7655 16.4061 22.016 17.0859 21.2558L17.1434 21.189L17.1498 21.1804C18.3751 19.8042 19.449 18.5959 18.8119 16.3388L19.042 16.2031C20.1181 17.2865 20.9236 18.4301 21.4584 19.6405C21.9954 20.853 22.2575 22.1302 22.2575 23.4806C22.2575 25.6558 21.6545 27.48 21.0621 29.2719C20.768 30.1593 20.4782 31.038 20.2652 31.949C20.0435 32.9031 20.2843 33.6569 20.719 34.1286C20.9087 34.3332 21.1367 34.4861 21.3711 34.5787C21.6076 34.6691 21.859 34.7036 22.0956 34.6735C22.5303 34.6175 22.9351 34.3396 23.1738 33.8055C23.4338 33.2154 23.3869 32.5607 23.3421 31.9124L23.3315 31.753C23.242 30.394 23.4913 28.628 24.3223 27.4133C24.4864 27.172 24.6739 26.9545 24.8849 26.765C25.098 26.5733 25.3324 26.4118 25.5966 26.2869L25.5902 26.2933L25.5881 26.2976ZM25.2216 26.849C25.1662 26.8921 25.1108 26.9373 25.0596 26.9847C24.8657 27.1591 24.6931 27.3616 24.5418 27.5834C23.7491 28.74 23.5147 30.4371 23.6021 31.7465L23.6127 31.9059C23.6575 32.5865 23.7065 33.2757 23.421 33.9304C23.1397 34.5636 22.6539 34.891 22.1275 34.9621C21.8441 34.9987 21.5479 34.9577 21.2688 34.8522C20.9918 34.7445 20.7297 34.5679 20.5145 34.331C20.0222 33.799 19.7473 32.9591 19.9924 31.8995C20.2076 30.9798 20.5017 30.0925 20.7957 29.1987C21.3817 27.4262 21.9762 25.6257 21.9784 23.4956C21.9784 22.184 21.7227 20.9456 21.2027 19.7697C20.7403 18.723 20.0712 17.7301 19.1912 16.7782C19.5875 18.8651 18.537 20.0475 17.3501 21.3828L17.3416 21.3915L17.2841 21.4561C16.6256 22.1948 15.9778 22.9227 15.6646 23.8768V23.8855C15.6028 24.0685 15.5517 24.2602 15.5133 24.4584C15.475 24.6522 15.4494 24.846 15.4366 25.0399C15.3791 25.882 15.5581 26.7521 16.0375 27.5726C16.0162 27.3314 16.0055 27.0967 16.0034 26.8684C16.0034 26.457 16.0375 26.0629 16.11 25.6967C16.3529 24.5014 17.2713 23.6744 18.1726 22.8581C18.9142 22.1883 19.6429 21.5293 19.9349 20.7109L20.0329 20.4395L20.1842 20.685V20.6893C20.2865 20.8638 20.3738 21.0469 20.4399 21.2385C20.5059 21.4302 20.5528 21.6284 20.589 21.8351C20.7574 22.8818 20.5166 24.1094 20.0649 25.2746V25.2832L20.0606 25.2875C19.8134 25.8152 19.5108 26.3838 19.1955 26.9804C18.0512 29.1276 16.7194 31.6389 17.186 33.8184C17.3672 34.6627 17.6634 35.3842 18.1044 35.9678C18.5434 36.5493 19.1294 37.0038 19.888 37.3225H19.8922C20.1522 37.4324 20.425 37.5121 20.702 37.5616C20.9811 37.6111 21.2603 37.6327 21.5373 37.6219C22.9714 37.5767 24.3692 36.7841 25.0149 35.4208C25.2343 34.9556 25.3558 34.4581 25.3792 33.9347C25.4069 33.4092 25.3409 32.8579 25.196 32.2807C24.6718 30.4435 24.5759 29.2332 24.7016 28.348C24.7911 27.7234 24.985 27.2603 25.2194 26.8554L25.2152 26.849H25.2216Z" fill="#A8AAAD"></path>
    <path fill-rule="evenodd" clip-rule="evenodd" d="M10.6747 7.79386H12.1876L11.4354 5.41826L10.6726 7.79386H10.6747ZM9.37695 9.85496V9.60946C9.53885 9.60076 9.66675 9.55346 9.75625 9.46946C9.84355 9.38546 9.92885 9.21956 10.0077 8.97186L11.3182 4.90136L11.8573 4.72266L13.317 9.12486C13.3489 9.22606 13.383 9.30576 13.4214 9.37246C13.4597 9.43926 13.5045 9.49096 13.5535 9.52976C13.5876 9.55346 13.6302 9.57066 13.6835 9.58576C13.7367 9.59866 13.8156 9.60726 13.9243 9.60946V9.85496H12.1045V9.60946H12.1535C12.3453 9.60946 12.4795 9.58576 12.5584 9.53836C12.6351 9.49096 12.6734 9.40916 12.6734 9.29716C12.6734 9.27556 12.6671 9.24546 12.6564 9.20236C12.6457 9.15926 12.633 9.10976 12.6138 9.05376L12.3027 8.11476H10.5724L10.3423 8.89436C10.3274 8.93526 10.3188 8.98056 10.3103 9.02786C10.3018 9.07526 10.2997 9.12486 10.2997 9.17436C10.2997 9.32516 10.338 9.43496 10.4126 9.50606C10.4893 9.57706 10.6044 9.61156 10.7621 9.61156H10.8302V9.85706H9.37695V9.85496ZM18.544 5.17916L16.8798 9.85496H16.6944L15.0046 5.23516V8.69196C15.0046 9.00206 15.0558 9.22386 15.1559 9.35956C15.2561 9.49316 15.4223 9.56636 15.6545 9.58356V9.85706H14.0521V9.58356C14.2886 9.56416 14.457 9.49096 14.555 9.35746C14.653 9.22386 14.702 9.00426 14.702 8.69196V5.78656C14.702 5.46346 14.6679 5.26966 14.5998 5.19856C14.5337 5.12966 14.3952 5.09526 14.1885 5.09526H14.05V4.84536H15.4649L16.9331 8.84056L18.3757 4.84536H19.8523V5.09526H19.7288C19.5114 5.09526 19.3708 5.13396 19.3047 5.20716C19.2387 5.27826 19.2067 5.46136 19.2067 5.74996V8.99986C19.2067 9.26046 19.2408 9.42416 19.3068 9.49956C19.375 9.57276 19.5114 9.60946 19.7266 9.60946H19.8502V9.85496H17.8941V9.60946H18.0091C18.2265 9.60946 18.3693 9.57276 18.4375 9.50176C18.5056 9.42846 18.5397 9.26046 18.5397 8.99986V5.18136L18.544 5.17916ZM22.1771 4.84326V5.09306H22.0471C21.8277 5.09306 21.6849 5.13186 21.6167 5.20506C21.5485 5.27616 21.5166 5.45056 21.5166 5.71976V8.96326C21.5166 9.23686 21.5528 9.41346 21.6231 9.49096C21.6956 9.56846 21.8405 9.60726 22.0599 9.60726H22.1771V9.85276H20.2082V9.60726H20.2913C20.5172 9.60726 20.6685 9.57066 20.7409 9.50176C20.8155 9.43066 20.8517 9.25836 20.8517 8.99126V5.71766C20.8517 5.43976 20.8198 5.26106 20.7494 5.19426C20.6813 5.12966 20.5321 5.09306 20.3041 5.09306H20.2061V4.84326H22.175H22.1771ZM26.4623 4.84326L26.8693 6.04716L26.6541 6.12686C26.3089 5.67886 26.0383 5.39026 25.8508 5.25886C25.6654 5.12966 25.4587 5.06506 25.2307 5.06506C25.1305 5.06506 25.0559 5.08226 25.0176 5.12106C24.9771 5.15766 24.9558 5.22446 24.9558 5.32346V9.00426C24.9558 9.25406 24.992 9.41776 25.0602 9.49526C25.1305 9.56846 25.2754 9.60726 25.4928 9.60726H25.6164V9.85276H23.6389V9.60726H23.7625C23.9777 9.60726 24.1205 9.57066 24.1865 9.49746C24.2569 9.42416 24.291 9.26046 24.291 9.01066V5.32136C24.291 5.22226 24.2696 5.15556 24.2292 5.11886C24.1908 5.08016 24.1184 5.06286 24.0161 5.06286C23.7902 5.06286 23.5835 5.12966 23.396 5.25676C23.2085 5.38816 22.9421 5.67676 22.5948 6.12466L22.3774 6.04496L22.7844 4.84106H26.4623V4.84326ZM28.6656 7.80886L27.4723 5.42046C27.4042 5.29116 27.336 5.20716 27.2635 5.16196C27.1889 5.11886 27.076 5.09306 26.9226 5.08876L26.9311 4.84536H28.6337V5.08876H28.5719C28.4121 5.08876 28.297 5.10166 28.2245 5.12966C28.1521 5.15766 28.1137 5.20286 28.1137 5.26106C28.1137 5.28476 28.1201 5.31706 28.135 5.35366C28.1478 5.39026 28.1755 5.44846 28.2181 5.52596L29.1877 7.40396L30.0379 5.68536C30.0635 5.62936 30.0848 5.57976 30.0976 5.52806C30.1082 5.48076 30.1168 5.43766 30.1168 5.39246C30.1168 5.29116 30.0763 5.21156 29.991 5.16416C29.9058 5.11246 29.7737 5.08876 29.599 5.08876L29.6075 4.84536H31.0352V5.08876C30.7837 5.11676 30.5855 5.28046 30.4343 5.57116C30.4215 5.60136 30.4108 5.62286 30.4044 5.63796L29.3305 7.72056V9.02786C29.3305 9.26486 29.3667 9.42206 29.437 9.49956C29.5073 9.57276 29.6522 9.61156 29.8696 9.61156H29.9953V9.85706H28.0242V9.61156H28.15C28.3588 9.61156 28.4973 9.57496 28.5676 9.50606C28.6358 9.43496 28.6678 9.27126 28.6678 9.02146V7.81316L28.6656 7.80886Z" fill="white"></path>
    <path fill-rule="evenodd" clip-rule="evenodd" d="M10.8585 11.0474V10.9225H11.6107V11.0474C11.4999 11.056 11.4232 11.0883 11.3763 11.1508C11.3315 11.2133 11.3081 11.3188 11.3081 11.4674V12.4064C11.3081 12.7273 11.242 12.9642 11.1121 13.1128C10.9821 13.2658 10.7775 13.3411 10.5048 13.3411C10.232 13.3411 10.0274 13.2701 9.88889 13.1279C9.75039 12.9836 9.68219 12.7726 9.68219 12.4926V11.3188C9.68219 11.2025 9.66519 11.1271 9.62899 11.0905C9.59699 11.0539 9.52879 11.0345 9.42649 11.0345H9.37109V10.9182H10.3023V11.0345H10.2448C10.1425 11.0345 10.0764 11.0517 10.0424 11.0883C10.0125 11.125 9.99549 11.2025 9.99549 11.3296V12.5486C9.99549 12.7618 10.0424 12.9276 10.1382 13.0353C10.2341 13.143 10.3769 13.1968 10.5687 13.1968C10.7605 13.1968 10.9181 13.1344 11.0162 13.0138C11.1142 12.891 11.1632 12.7058 11.1632 12.456V11.4674C11.1632 11.3188 11.1398 11.2111 11.095 11.1486C11.0503 11.0883 10.9714 11.0539 10.8585 11.0474ZM12.3906 10.9182L13.6584 12.7596V11.4674C13.6584 11.3145 13.6329 11.2068 13.5817 11.1443C13.5306 11.0819 13.4454 11.0496 13.3218 11.0474V10.9182H14.1358V11.0474C14.0143 11.0474 13.9291 11.0819 13.8779 11.1443C13.8246 11.2068 13.7969 11.3145 13.7969 11.4674V13.3411H13.6861L12.3117 11.3274V12.7402C12.3117 12.8932 12.3352 13.0008 12.3884 13.0633C12.4396 13.1258 12.5248 13.1581 12.6484 13.1602V13.2894H11.8344V13.1602C11.958 13.1602 12.0432 13.1258 12.0944 13.0633C12.1455 12.9987 12.1711 12.8932 12.1711 12.7402V11.1745C12.1327 11.1314 12.088 11.0991 12.0326 11.0754C11.9793 11.0517 11.9111 11.0388 11.8365 11.0345V10.916H12.3906V10.9182ZM15.3227 10.9182V11.0367H15.2609C15.1564 11.0367 15.0883 11.0539 15.0606 11.0905C15.0265 11.1271 15.0115 11.2068 15.0115 11.3339V12.8695C15.0115 13.0008 15.0286 13.0827 15.0627 13.1193C15.0946 13.1581 15.1628 13.1753 15.2672 13.1753H15.3227V13.2916H14.3936V13.1753H14.4319C14.5385 13.1753 14.6088 13.1581 14.645 13.1236C14.6813 13.0892 14.6983 13.0073 14.6983 12.8802V11.3317C14.6983 11.1982 14.6813 11.1163 14.6472 11.084C14.6152 11.0539 14.5449 11.0367 14.4383 11.0367H14.3915V10.9182H15.3205H15.3227ZM16.6012 13.3691L15.9385 11.4006C15.9385 11.4006 15.9321 11.3899 15.9321 11.3834C15.8554 11.1637 15.7424 11.0453 15.5847 11.0302V10.9139H16.4435V11.0302C16.3455 11.0345 16.2752 11.0474 16.2389 11.0647C16.2006 11.0862 16.1814 11.112 16.1814 11.1508C16.1814 11.1616 16.1814 11.1831 16.192 11.2111C16.2006 11.2391 16.2091 11.2714 16.2219 11.3102L16.7354 12.8135L17.2149 11.3576C17.2234 11.3274 17.2298 11.3016 17.234 11.2779C17.2404 11.2542 17.2426 11.2305 17.2426 11.209C17.2426 11.1508 17.2213 11.1077 17.185 11.0797C17.1467 11.0539 17.0828 11.0345 16.9911 11.0302V10.9139H17.6879V11.0302C17.6091 11.0388 17.5494 11.0603 17.5089 11.0991C17.4642 11.1379 17.428 11.2046 17.3939 11.3059L16.6949 13.3691H16.6012ZM17.9905 13.2873V13.171H18.0438C18.1461 13.171 18.2142 13.1538 18.2462 13.1171C18.2803 13.0805 18.2952 12.9987 18.2952 12.8716V11.3274C18.2952 11.1939 18.2803 11.1142 18.2483 11.084C18.2164 11.0539 18.1461 11.0367 18.0331 11.0367H17.9905V10.9182H19.6121L19.8401 11.476L19.7506 11.5105C19.6078 11.3231 19.48 11.1939 19.3628 11.125C19.2477 11.0539 19.1049 11.0194 18.9387 11.0194C18.8066 11.0194 18.7171 11.0367 18.6745 11.0754C18.6319 11.1099 18.6085 11.1831 18.6085 11.2929V11.9929H18.7704C18.9174 11.9929 19.0282 11.9628 19.1007 11.9024C19.171 11.8443 19.2179 11.7431 19.2392 11.6031H19.35V12.5206H19.2392C19.22 12.3763 19.1753 12.2729 19.1049 12.2104C19.0325 12.1458 18.9217 12.1178 18.7725 12.1178H18.6106V12.9298C18.6106 13.0202 18.6319 13.0805 18.6681 13.115C18.7065 13.1473 18.7789 13.1645 18.8769 13.1645C19.0772 13.1645 19.252 13.1236 19.4075 13.0375C19.5631 12.9513 19.7016 12.8199 19.8252 12.6369L19.9189 12.6692L19.6973 13.2894H17.9884L17.9905 13.2873ZM21.7941 13.2873L21.174 12.1351H20.9354V12.8953C20.9354 13.0095 20.9524 13.0848 20.9844 13.1215C21.0185 13.1559 21.0845 13.1753 21.1868 13.1753H21.2422V13.2916H20.3153V13.1753H20.3686C20.4708 13.1753 20.539 13.1581 20.571 13.1215C20.6051 13.0848 20.62 13.0008 20.62 12.8673V11.3166C20.62 11.1982 20.603 11.1206 20.571 11.0883C20.539 11.056 20.4708 11.0388 20.3622 11.0388H20.3132V10.9204H21.2358C21.5235 10.9204 21.743 10.9742 21.8921 11.0819C22.0392 11.1874 22.1159 11.3446 22.1159 11.5514C22.1159 11.7065 22.0626 11.8314 21.9603 11.924C21.8602 12.0166 21.7003 12.0812 21.4851 12.12L21.9092 12.8824C21.9774 13.0052 22.0392 13.0827 22.0946 13.1193C22.15 13.1581 22.2245 13.1753 22.3162 13.1753H22.3396V13.2916H21.7898V13.2851L21.7941 13.2873ZM20.9332 12.0123H21.1911C21.3935 12.0123 21.5405 11.9735 21.6322 11.8981C21.7217 11.8228 21.7685 11.7022 21.7685 11.5363C21.7685 11.3705 21.7259 11.2326 21.6407 11.1508C21.5576 11.0668 21.4233 11.028 21.2401 11.028C21.1122 11.028 21.0291 11.0453 20.9908 11.0797C20.9524 11.1142 20.9332 11.1896 20.9332 11.308V12.0144V12.0123ZM22.8212 13.3347L22.5889 12.7015L22.6976 12.6606C22.8254 12.8372 22.9618 12.975 23.1046 13.0698C23.2474 13.1667 23.3859 13.2141 23.5201 13.2141C23.648 13.2141 23.7524 13.171 23.8376 13.0827C23.9228 12.9965 23.9655 12.8867 23.9655 12.7575C23.9655 12.6283 23.925 12.5184 23.8483 12.443C23.7694 12.3655 23.6096 12.2901 23.3646 12.2147C23.3496 12.2104 23.3262 12.204 23.2964 12.1954C23.1025 12.1415 22.9597 12.0704 22.8723 11.9821C22.8105 11.9132 22.7615 11.8443 22.7274 11.7625C22.6955 11.6806 22.6784 11.5966 22.6784 11.5062C22.6784 11.3253 22.736 11.1723 22.8531 11.0539C22.9703 10.9354 23.1195 10.873 23.2964 10.873C23.3667 10.873 23.4413 10.8859 23.5286 10.9117C23.6117 10.9376 23.6629 10.9505 23.6799 10.9505C23.7076 10.9505 23.7417 10.944 23.7779 10.9311C23.8142 10.9204 23.8547 10.9031 23.9015 10.8794L24.1189 11.4803L24.0273 11.532C23.8994 11.3446 23.7779 11.2068 23.6544 11.1142C23.5329 11.0237 23.4178 10.9763 23.2985 10.9763C23.1792 10.9763 23.0897 11.0173 23.0151 11.0948C22.9405 11.1745 22.9022 11.2757 22.9022 11.3963C22.9022 11.4652 22.9128 11.5234 22.9384 11.5772C22.9618 11.6311 23.0002 11.6785 23.0513 11.7258C23.1216 11.7861 23.2665 11.8443 23.4839 11.9046C23.5372 11.9197 23.5755 11.9283 23.6032 11.9369C23.7993 11.9929 23.9463 12.0791 24.0422 12.1975C24.1402 12.316 24.1871 12.4646 24.1871 12.6433C24.1871 12.8393 24.1253 13.0052 23.9996 13.1387C23.876 13.2744 23.7247 13.3433 23.5457 13.3433C23.4413 13.3433 23.3347 13.3239 23.2261 13.2873C23.1174 13.2464 23.0598 13.2291 23.0535 13.2291C23.03 13.2291 22.998 13.2378 22.9597 13.255C22.9213 13.2701 22.8745 13.2981 22.8084 13.339L22.8148 13.3347H22.8212ZM25.4976 10.9182V11.0367H25.4358C25.3335 11.0367 25.2653 11.0539 25.2333 11.0905C25.2014 11.1271 25.1843 11.2068 25.1843 11.3339V12.8695C25.1843 13.0008 25.2035 13.0827 25.2355 13.1193C25.2696 13.1581 25.3377 13.1753 25.44 13.1753H25.4954V13.2916H24.5685V13.1753H24.609C24.7155 13.1753 24.7837 13.1581 24.8199 13.1236C24.8562 13.0892 24.8732 13.0073 24.8732 12.8802V11.3317C24.8732 11.1982 24.8562 11.1163 24.8242 11.084C24.7922 11.0539 24.7219 11.0367 24.6132 11.0367H24.5685V10.9182H25.4976ZM27.6817 10.9182L27.8714 11.4911L27.7712 11.5277C27.6114 11.3145 27.4835 11.181 27.394 11.1185C27.3067 11.056 27.2108 11.0259 27.1 11.0259C27.0531 11.0259 27.0211 11.0345 27.002 11.0496C26.9828 11.0668 26.9743 11.0991 26.9743 11.1465V12.8867C26.9743 13.0052 26.9913 13.0827 27.0254 13.1171C27.0574 13.1538 27.1255 13.171 27.2278 13.171H27.2854V13.2873H26.352V13.171H26.4117C26.5119 13.171 26.58 13.1538 26.612 13.1193C26.644 13.0827 26.6631 13.0073 26.6631 12.8889V11.1465C26.6631 11.0991 26.6546 11.0668 26.6333 11.0496C26.6163 11.0323 26.5822 11.0259 26.5332 11.0259C26.4266 11.0259 26.3307 11.056 26.2434 11.1185C26.1539 11.181 26.0281 11.3145 25.8662 11.5299L25.7661 11.4911L25.9557 10.9182H27.686H27.6817ZM28.8835 12.3224L28.3231 11.1917C28.2911 11.1314 28.257 11.0905 28.2229 11.069C28.1867 11.0496 28.1356 11.0388 28.0631 11.0345L28.0674 10.9182H28.8686V11.0345H28.8409C28.7663 11.0345 28.7109 11.0431 28.679 11.056C28.6449 11.069 28.6257 11.0905 28.6257 11.1163C28.6257 11.1293 28.6257 11.1443 28.6342 11.1594C28.6406 11.1766 28.6534 11.2025 28.6726 11.2413L29.1286 12.1286L29.5292 11.3166C29.542 11.2908 29.5526 11.2649 29.5569 11.2434C29.5633 11.2197 29.5675 11.1982 29.5675 11.1788C29.5675 11.1293 29.5462 11.0927 29.5057 11.0711C29.4652 11.0474 29.4056 11.0323 29.3203 11.0323L29.3246 10.916H29.998V11.0323C29.8808 11.0474 29.787 11.1228 29.7167 11.2606C29.7103 11.2736 29.706 11.2843 29.7018 11.2908L29.1989 12.275V12.8953C29.1989 13.0095 29.2159 13.0805 29.2479 13.1193C29.282 13.1559 29.348 13.1731 29.4503 13.1731H29.5079V13.2894H28.5788V13.1731H28.6385C28.7365 13.1731 28.8025 13.1559 28.8345 13.1215C28.8665 13.087 28.8814 13.0095 28.8814 12.8932V12.3203L28.8835 12.3224Z" fill="white"></path>
    <path fill-rule="evenodd" clip-rule="evenodd" d="M17.4151 36.3004C19.2775 40.1599 27.1617 38.6825 26.2582 33.3477C26.889 33.5674 27.2363 34.179 27.3215 35.0793C27.4217 36.1152 27.1319 37.0995 27.0083 38.1203C26.857 39.3997 26.8357 40.6079 26.955 41.9733C26.3094 42.2878 25.6573 42.5958 25.0031 42.893C24.8923 42.4709 24.7837 42.0487 24.6856 41.6395C24.5343 41.6977 24.3596 41.7429 24.1977 41.7687C24.3063 42.2146 24.4193 42.6604 24.5322 43.1084L23.9931 43.3517C23.8248 42.9382 23.6543 42.5247 23.4924 42.122C23.2814 42.1112 22.998 42.0983 22.8019 42.0681C23.0236 42.5656 23.2473 43.0761 23.471 43.5843L22.8552 43.8535C22.5569 43.2763 22.2543 42.6841 21.9581 42.1155C21.7408 42.1069 21.5341 42.081 21.3316 42.0509C21.6918 42.7013 22.0668 43.3776 22.4312 44.0388L21.7706 44.3252L18.8684 40.1556C20.5539 41.6654 24.0933 41.7063 25.7042 39.9747C26.1709 39.5827 25.8534 38.7406 25.0564 39.4126C24.3916 39.9661 23.5179 40.3193 22.623 40.4657C21.2464 40.694 19.8102 40.4356 18.6617 39.6043C17.7283 38.928 17.055 37.8554 17.4151 36.3069V36.3004ZM19.4394 39.0701C19.5076 39.0852 19.5524 39.1455 19.5375 39.2058C19.5268 39.2661 19.4629 39.3049 19.3947 39.292C19.3265 39.279 19.2817 39.2166 19.2967 39.1563C19.3073 39.096 19.3734 39.0572 19.4416 39.0701H19.4394ZM20.0489 39.18C20.1852 39.208 20.2747 39.3307 20.2534 39.4556C20.2279 39.5784 20.0957 39.6559 19.9594 39.6279C19.8251 39.5999 19.7314 39.4772 19.7569 39.3523C19.7804 39.2295 19.9125 39.152 20.051 39.1821L20.0489 39.18ZM20.5667 39.335C20.5304 39.4449 20.5496 39.5956 20.6647 39.6926C20.7968 39.8067 20.9651 39.7895 21.1271 39.7959C22.7977 39.8412 24.1721 39.3243 25.2567 38.2431C25.4101 38.0751 25.3824 37.8468 25.2205 37.8684C23.991 38.7665 22.6016 39.264 21.1356 39.1563C20.9673 39.1455 20.6498 39.096 20.5667 39.3372V39.335Z" fill="#1A315D"></path>
    <path fill-rule="evenodd" clip-rule="evenodd" d="M49.3714 13.7174H55.8876L52.6509 3.39672L49.3693 13.7174H49.3714ZM43.7758 22.6639V21.5978C44.4811 21.5591 45.0245 21.3588 45.4038 20.984C45.7831 20.6157 46.1474 19.8964 46.4926 18.8217L52.1331 1.13322L54.4557 0.353516L60.746 19.4893C60.8782 19.9222 61.0337 20.2798 61.1999 20.5662C61.3683 20.8548 61.56 21.0766 61.7731 21.2468C61.9159 21.3523 62.1034 21.4342 62.3335 21.488C62.5658 21.5462 62.9089 21.5806 63.3734 21.5978V22.6639H55.5275V21.5978H55.7278C56.5546 21.5978 57.1385 21.4945 57.4794 21.2856C57.8161 21.0788 57.9823 20.7342 57.9823 20.2367C57.9823 20.1527 57.9567 20.017 57.9077 19.8232C57.863 19.6358 57.799 19.4204 57.7202 19.1792L56.3778 15.1022H48.9197L47.9225 18.4836C47.8628 18.6602 47.818 18.8497 47.7839 19.0586C47.7499 19.2654 47.7349 19.4786 47.7349 19.694C47.7349 20.3444 47.8969 20.8225 48.2272 21.1369C48.5511 21.4428 49.0539 21.5978 49.7273 21.5978H50.0192V22.6639H43.7715H43.7758ZM83.2953 2.34792L76.1203 22.6618H75.3253L68.0443 2.58262V17.6091C68.0443 18.9617 68.2595 19.9244 68.6942 20.5081C69.1289 21.0874 69.8427 21.4105 70.8443 21.4815L70.8593 22.6618H63.9381V21.4815C64.9609 21.3997 65.679 21.0723 66.103 20.4994C66.5271 19.9244 66.7402 18.9638 66.7402 17.6091V4.97762C66.7402 3.57552 66.5974 2.73122 66.3076 2.42762C66.0178 2.13032 65.4276 1.97962 64.5283 1.97962H63.936V0.885516H70.0345L76.3653 18.2466L82.5853 0.887716H88.9483V1.97962H88.4153C87.4783 1.97962 86.8723 2.14112 86.5913 2.45992C86.3123 2.78292 86.1713 3.56902 86.1713 4.82902V18.9445C86.1713 20.0665 86.3143 20.788 86.6063 21.1154C86.8963 21.4385 87.4993 21.5978 88.4173 21.5978H88.9503V22.6639H80.5203V21.5978H81.0123C81.9463 21.5978 82.5623 21.4406 82.8583 21.1305C83.1503 20.8117 83.2973 20.0881 83.2973 18.9423V2.34792H83.2953ZM98.9593 0.887716V1.97962H98.3963C97.4503 1.97962 96.8323 2.14112 96.5463 2.45992C96.2553 2.78292 96.1123 3.52812 96.1123 4.69762V18.7915C96.1123 19.9869 96.2653 20.7514 96.5743 21.0896C96.8813 21.4277 97.5083 21.5978 98.4493 21.5978H98.9573V22.6639H90.4613V21.5978H90.8213C91.8033 21.5978 92.4533 21.4406 92.7713 21.1369C93.0923 20.8225 93.2483 20.0838 93.2483 18.9143V4.69542C93.2483 3.46572 93.1013 2.70542 92.8003 2.41252C92.5063 2.12392 91.8633 1.97962 90.8813 1.97962H90.4613V0.885516H98.9573L98.9593 0.887716ZM117.429 0.887716L119.181 6.12982L118.254 6.48302C116.762 4.53392 115.611 3.27832 114.8 2.70752C113.992 2.14112 113.101 1.86112 112.125 1.86112C111.682 1.86112 111.375 1.94302 111.205 2.09592C111.03 2.25312 110.943 2.55252 110.943 2.98322V18.9746C110.943 20.0622 111.096 20.773 111.397 21.1046C111.701 21.432 112.319 21.5978 113.255 21.5978H113.787V22.6639H105.262V21.5978H105.794C106.721 21.5978 107.333 21.4385 107.629 21.1219C107.93 20.7967 108.079 20.0924 108.079 19.0005V2.98322C108.079 2.55032 107.989 2.25312 107.819 2.09592C107.644 1.94082 107.339 1.86112 106.896 1.86112C105.92 1.86112 105.032 2.14332 104.222 2.70752C103.414 3.27612 102.259 4.53172 100.768 6.48302L99.8413 6.12982L101.59 0.887716H117.427H117.429ZM126.926 13.7734L121.78 3.39892C121.486 2.83892 121.186 2.46632 120.875 2.27252C120.553 2.08512 120.069 1.98172 119.415 1.94942L119.443 0.885516H126.786V1.94942H126.524C125.837 1.94942 125.339 2.01192 125.028 2.13682C124.714 2.25742 124.555 2.44912 124.555 2.70322C124.555 2.81522 124.582 2.94452 124.644 3.10172C124.697 3.26322 124.821 3.51732 125.002 3.85762L129.181 12.0224L132.85 4.55332C132.965 4.31642 133.053 4.09022 133.112 3.87702C133.166 3.66382 133.197 3.46782 133.197 3.28262C133.197 2.83892 133.014 2.50722 132.65 2.28332C132.283 2.06362 131.717 1.95162 130.958 1.95162L130.988 0.887716H137.144V1.95162C136.063 2.07652 135.205 2.77862 134.557 4.04722C134.499 4.17212 134.455 4.26902 134.425 4.32932L129.803 13.3749V19.0608C129.803 20.0945 129.956 20.7751 130.259 21.1046C130.564 21.432 131.18 21.5978 132.117 21.5978H132.65V22.6639H124.15V21.5978H124.689C125.592 21.5978 126.191 21.4406 126.489 21.1369C126.781 20.8225 126.926 20.1225 126.926 19.0306V13.7712V13.7734Z" fill="#1A315D"></path>
    <path d="M43.9453 40.4609H95.4033V41.2879H43.9453V40.4609Z" fill="#1A315D"></path>
    <path d="M98.2654 47.1161V40.3147H100.667C102.766 40.3147 104.157 41.762 104.157 43.7197C104.157 45.6775 102.766 47.1161 100.667 47.1161H98.2654ZM99.2734 46.218H100.665C102.218 46.218 103.115 45.096 103.115 43.7197C103.115 42.3435 102.248 41.2106 100.665 41.2106H99.2734V46.218ZM107.241 40.3147H108.259V44.424C108.259 45.587 108.894 46.33 110.075 46.33C111.255 46.33 111.879 45.5848 111.879 44.424V40.3147H112.898V44.4434C112.898 46.1362 111.96 47.2368 110.073 47.2368C108.185 47.2368 107.238 46.1254 107.238 44.452V40.3125L107.241 40.3147ZM115.574 47.1161V40.3147H118.732C119.932 40.3147 120.629 41.0599 120.629 42.0484C120.629 42.9056 120.075 43.4764 119.459 43.6077C120.175 43.7197 120.761 44.4541 120.761 45.279C120.761 46.3494 120.056 47.114 118.813 47.114H115.574V47.1161ZM116.582 43.2007H118.541C119.216 43.2007 119.589 42.7721 119.589 42.2121C119.589 41.6522 119.216 41.2128 118.541 41.2128H116.582V43.2007ZM116.582 46.218H118.59C119.295 46.218 119.719 45.811 119.719 45.1476C119.719 44.5877 119.335 44.0966 118.59 44.0966H116.582V46.218ZM128.47 47.1161L127.925 45.7098H124.626L124.081 47.1161H122.971L125.645 40.3147H126.906L129.581 47.1161H128.47ZM126.271 41.202L124.92 44.8009H127.635L126.274 41.202H126.271ZM131.927 47.1161V40.3147H132.935V47.1161H131.927Z" fill="#1A315D"></path>
    <path d="M43.2715 26.4702H44.9187V33.0133C44.9187 34.8655 45.9458 36.05 47.8529 36.05C49.76 36.05 50.7701 34.8655 50.7701 33.0133V26.4702H52.4172V33.0456C52.4172 35.7399 50.9 37.4951 47.8529 37.4951C44.8057 37.4951 43.2715 35.7248 43.2715 33.0628V26.4702ZM62.492 37.2992L56.4765 28.9858V37.2992H54.8464V26.4681H56.5255L62.443 34.5876V26.4681H64.0731V37.2992H62.492ZM66.4852 37.2992V26.4681H68.1153V37.2992H66.4852ZM73.7413 37.2992L69.4216 26.4681H71.2793L74.7533 35.5288L78.2413 26.4681H80.0993L75.7803 37.2992H73.7433H73.7413ZM81.4033 37.2992V26.4681H88.7083V27.896H83.0353V31.062H88.5953V32.4899H83.0353V35.8669H88.7083V37.2949H81.4033V37.2992ZM97.0033 37.2992L94.4123 33.1252H92.3753V37.2992H90.7453V26.4681H95.3263C97.3973 26.4681 98.8143 27.7991 98.8143 29.7977C98.8143 31.7964 97.4933 32.785 96.1083 32.9637L98.8953 37.2992H97.0033ZM95.1133 27.8982H92.3753V31.6973H95.1133C96.2873 31.6973 97.1353 30.9349 97.1353 29.7977C97.1353 28.6606 96.2873 27.8982 95.1133 27.8982ZM101.08 34.523C101.813 35.335 102.987 36.05 104.504 36.05C106.264 36.05 106.884 35.1562 106.884 34.3766C106.884 33.2394 105.646 32.9142 104.259 32.5588C102.514 32.1044 100.494 31.6004 100.494 29.3928C100.494 27.6074 102.075 26.3066 104.342 26.3066C106.021 26.3066 107.342 26.8428 108.303 27.8163L107.357 29.0181C106.526 28.1415 105.384 27.7517 104.21 27.7517C103.036 27.7517 102.173 28.3677 102.173 29.2787C102.173 30.2522 103.347 30.5623 104.7 30.9026C106.477 31.3743 108.548 31.9256 108.548 34.2323C108.548 35.9208 107.374 37.4951 104.44 37.4951C102.501 37.4951 101.082 36.7973 100.153 35.7743L101.082 34.523H101.08ZM110.438 37.2992V26.4681H112.069V37.2992H110.438ZM117.155 37.2992V27.8982H113.78V26.4702H122.143V27.8982H118.785V37.2992H117.155ZM126.968 37.2992V32.7677L122.712 26.4681H124.587L127.784 31.3075L130.946 26.4681H132.838L128.6 32.7677V37.2992H126.97H126.968Z" fill="#1A315D"></path>
  </g>
</svg>
