<?xml version="1.0" encoding="UTF-8"?>
<svg xmlns="http://www.w3.org/2000/svg" width="142" height="46" viewBox="0 0 142 46" fill="none">
  <mask id="mask0_137_172" style="mask-type:luminance" maskUnits="userSpaceOnUse" x="0" y="0" width="142" height="46">
    <path d="M142 0H0V45.4173H142V0Z" fill="white"></path>
  </mask>
  <g mask="url(#mask0_137_172)">
    <path fill-rule="evenodd" clip-rule="evenodd" d="M47.8181 16.2142H54.8106L51.3387 5.74781L47.8181 16.2142ZM41.8125 25.286V24.2054C42.5693 24.1664 43.1525 23.9635 43.5601 23.5832C43.9678 23.2087 44.3579 22.4792 44.7285 21.3908L50.7789 3.45211L53.2717 2.66211L60.0223 22.0657C60.1647 22.5045 60.3305 22.8673 60.508 23.158C60.6874 23.4505 60.8942 23.6748 61.1243 23.8484C61.2765 23.9557 61.4793 24.0376 61.7271 24.0922C61.9767 24.1508 62.3454 24.1859 62.8447 24.2034V25.284H54.4244V24.2034H54.639C55.5264 24.2034 56.1525 24.0981 56.5173 23.8855C56.8781 23.6768 57.0556 23.3257 57.0556 22.8225C57.0556 22.7367 57.0283 22.6001 56.9756 22.4031C56.9269 22.2139 56.8606 21.9935 56.7747 21.7497L55.3333 17.6147H47.3304L46.2596 21.0436C46.1972 21.2211 46.1484 21.4162 46.1114 21.6268C46.0743 21.8355 46.0587 22.052 46.0587 22.2705C46.0587 22.9298 46.2343 23.4154 46.5873 23.7334C46.9364 24.0435 47.4748 24.2015 48.1965 24.2015H48.5085V25.282H41.8047H41.8066L41.8125 25.286ZM85.164 4.68681L77.466 25.286H76.613L68.7996 4.92471V20.162C68.7996 21.5351 69.0297 22.5084 69.4959 23.1014C69.962 23.6885 70.7286 24.0181 71.8033 24.0883L71.8189 25.284H64.3914V24.0883C65.4876 24.0064 66.26 23.6729 66.7145 23.0916C67.1709 22.5084 67.3971 21.5332 67.3971 20.162V7.35311C67.3971 5.93121 67.2431 5.07491 66.9329 4.76671C66.6228 4.46441 65.9889 4.31231 65.0234 4.31231H64.3895V3.20241H70.9334L77.725 20.8076L84.4 3.20441H91.228V4.31231H90.657C89.65 4.31231 89.001 4.47611 88.699 4.79991C88.398 5.12761 88.248 5.92341 88.248 7.20101V21.5156C88.248 22.6528 88.402 23.3842 88.714 23.7178C89.026 24.0454 89.674 24.2073 90.657 24.2073H91.228V25.2879H82.182V24.2073H82.709C83.709 24.2073 84.37 24.0493 84.688 23.7334C85.002 23.4096 85.16 22.6762 85.16 21.5156V4.68681H85.164ZM101.972 3.20441V4.31231H101.367C100.351 4.31231 99.69 4.47611 99.381 4.79991C99.069 5.12761 98.915 5.88241 98.915 7.06831V21.3616C98.915 22.5728 99.079 23.3491 99.413 23.6904C99.74 24.0337 100.413 24.2054 101.425 24.2054H101.972V25.286H92.855V24.2054H93.241C94.294 24.2054 94.993 24.0474 95.332 23.7373C95.677 23.4174 95.845 22.6684 95.845 21.4844V7.06641C95.845 5.82001 95.687 5.04761 95.365 4.75111C95.049 4.45861 94.359 4.31231 93.306 4.31231H92.855V3.20241H101.972H101.97L101.972 3.20441ZM120.847 3.20441L122.727 8.51951L121.732 8.87841C120.133 6.90061 118.898 5.62891 118.026 5.04961C117.158 4.47611 116.204 4.18941 115.155 4.18941C114.679 4.18941 114.351 4.27131 114.168 4.42731C113.981 4.58731 113.887 4.88961 113.887 5.32851V21.5449C113.887 22.6469 114.051 23.3686 114.373 23.7041C114.699 24.0376 115.362 24.2054 116.368 24.2054H116.94V25.286H107.792V24.2054H108.363C109.358 24.2054 110.015 24.0435 110.331 23.7217C110.653 23.392 110.813 22.6781 110.813 21.5703V5.33041C110.813 4.89161 110.718 4.59121 110.534 4.42931C110.347 4.27331 110.019 4.19131 109.545 4.19131C108.498 4.19131 107.544 4.47811 106.674 5.05151C105.806 5.62891 104.568 6.90061 102.968 8.88031L101.974 8.52141L103.85 3.20631H120.845L120.847 3.20441ZM131.036 16.2708L125.514 5.74981C125.2 5.18221 124.876 4.80381 124.541 4.60871C124.196 4.41951 123.677 4.31231 122.975 4.28111L123.006 3.20241H130.884V4.28111H130.603C129.868 4.28111 129.331 4.34351 128.998 4.47031C128.662 4.59121 128.491 4.78821 128.491 5.04371C128.491 5.15681 128.522 5.28751 128.586 5.44751C128.643 5.61131 128.775 5.86881 128.97 6.21401L133.455 14.4919L137.393 6.91811C137.516 6.67821 137.609 6.44811 137.674 6.23351C137.73 6.01901 137.763 5.81811 137.763 5.63081C137.763 5.18021 137.568 4.84481 137.176 4.61651C136.782 4.39421 136.174 4.27911 135.36 4.27911L135.391 3.20051H141.996V4.27911C140.837 4.40591 139.917 5.11781 139.22 6.40521C139.158 6.53191 139.111 6.62951 139.078 6.69191L134.118 15.8651V21.6307C134.118 22.6781 134.282 23.3686 134.607 23.7041C134.935 24.0376 135.596 24.2054 136.601 24.2054H137.172V25.286H128.05V24.2054H128.629C129.598 24.2054 130.242 24.0474 130.56 23.7373C130.874 23.4174 131.03 22.7093 131.03 21.6015V16.2688L131.036 16.2708Z" fill="#092A48"></path>
    <path d="M102.061 41.393L101.679 42.5652H101.023L102.746 37.3203H103.464L105.18 42.5652H104.525L104.142 41.393H102.061ZM103.961 40.8332L103.099 38.1688L102.239 40.8332H103.961Z" fill="#092A48"></path>
    <path d="M109.473 40.0841C109.615 40.2108 109.73 40.3669 109.814 40.5541C109.898 40.7414 109.941 40.9403 109.941 41.151C109.941 41.4182 109.881 41.6601 109.756 41.8746C109.631 42.0892 109.453 42.2569 109.219 42.3818C108.983 42.5046 108.708 42.567 108.389 42.567H106.612V37.291H108.32C108.644 37.291 108.919 37.3514 109.147 37.4685C109.375 37.5855 109.545 37.7474 109.66 37.9483C109.773 38.1492 109.832 38.3774 109.832 38.629C109.832 38.943 109.756 39.2005 109.604 39.4053C109.452 39.6101 109.249 39.7583 108.999 39.8481C109.173 39.8773 109.331 39.9573 109.475 40.0821L109.473 40.0841ZM107.234 39.5691H108.279C108.57 39.5691 108.796 39.4931 108.956 39.3429C109.116 39.1907 109.196 38.982 109.196 38.7148C109.196 38.4476 109.116 38.2389 108.956 38.0868C108.796 37.9346 108.566 37.8585 108.266 37.8585H107.234V39.5691ZM109.059 41.7576C109.233 41.5957 109.319 41.3714 109.319 41.0847C109.319 40.7979 109.227 40.5619 109.046 40.3922C108.864 40.2226 108.621 40.1387 108.314 40.1387H107.234V42.0014H108.334C108.644 42.0014 108.886 41.9214 109.058 41.7595L109.059 41.7576Z" fill="#092A48"></path>
    <path d="M112.094 37.291V40.6302C112.094 41.0983 112.198 41.4475 112.407 41.6757C112.613 41.9019 112.902 42.017 113.271 42.017C113.639 42.017 113.92 41.9039 114.129 41.6757C114.336 41.4475 114.439 41.1003 114.439 40.6302V37.291H115.061V40.6224C115.061 41.0613 114.981 41.4319 114.821 41.7322C114.661 42.0326 114.447 42.255 114.176 42.4013C113.905 42.5475 113.6 42.6217 113.263 42.6217C112.925 42.6217 112.621 42.5495 112.35 42.4013C112.079 42.255 111.864 42.0326 111.708 41.7322C111.552 41.4319 111.472 41.0613 111.472 40.6224V37.291H112.094Z" fill="#092A48"></path>
    <path d="M122.124 37.6129C122.504 37.8274 122.795 38.1337 122.998 38.5335C123.201 38.9314 123.302 39.4015 123.302 39.9418C123.302 40.4821 123.201 40.9502 122.998 41.3461C122.795 41.7421 122.502 42.0444 122.124 42.2551C121.744 42.4638 121.293 42.5691 120.774 42.5691H119.292V37.293H120.774C121.293 37.293 121.744 37.4003 122.124 37.6148V37.6129ZM122.18 41.4573C122.504 41.0965 122.666 40.5913 122.666 39.9398C122.666 39.2884 122.502 38.7715 122.179 38.4028C121.853 38.0342 121.385 37.8508 120.774 37.8508H119.912V41.9996H120.774C121.389 41.9996 121.859 41.8182 122.182 41.4573H122.18Z" fill="#092A48"></path>
    <path d="M128.475 37.291V42.567H127.853V40.1757H125.426V42.567H124.804V37.291H125.426V39.6081H127.853V37.291H128.475Z" fill="#092A48"></path>
    <path d="M130.956 41.393L130.573 42.5652H129.918L131.64 37.3203H132.358L134.075 42.5652H133.419L133.037 41.393H130.956ZM132.856 40.8332L131.993 38.1688L131.133 40.8332H132.856Z" fill="#092A48"></path>
    <path d="M138.368 40.0841C138.51 40.2108 138.625 40.3669 138.709 40.5541C138.793 40.7414 138.836 40.9403 138.836 41.151C138.836 41.4182 138.775 41.6601 138.65 41.8746C138.526 42.0892 138.348 42.2569 138.114 42.3818C137.878 42.5046 137.603 42.567 137.283 42.567H135.506V37.291H137.215C137.539 37.291 137.814 37.3514 138.042 37.4685C138.27 37.5855 138.44 37.7474 138.555 37.9483C138.668 38.1492 138.727 38.3774 138.727 38.629C138.727 38.943 138.65 39.2005 138.498 39.4053C138.346 39.6101 138.143 39.7583 137.894 39.8481C138.067 39.8773 138.225 39.9573 138.37 40.0821L138.368 40.0841ZM136.128 39.5691H137.174C137.465 39.5691 137.691 39.4931 137.851 39.3429C138.011 39.1907 138.091 38.982 138.091 38.7148C138.091 38.4476 138.011 38.2389 137.851 38.0868C137.691 37.9346 137.461 37.8585 137.16 37.8585H136.128V39.5691ZM137.954 41.7576C138.128 41.5957 138.214 41.3714 138.214 41.0847C138.214 40.7979 138.122 40.5619 137.94 40.3922C137.759 40.2226 137.515 40.1387 137.209 40.1387H136.128V42.0014H137.229C137.539 42.0014 137.781 41.9214 137.952 41.7595L137.954 41.7576Z" fill="#092A48"></path>
    <path d="M141.003 37.291V42.567H140.381V37.291H141.003Z" fill="#092A48"></path>
    <path d="M99.514 36.916H41.7734V37.4934H99.514V36.916Z" fill="#092A48"></path>
    <path d="M43.1933 32.8699C43.1933 33.0454 43.2069 33.1781 43.2342 33.2697C43.2615 33.3614 43.3161 33.4219 43.3961 33.4511C43.4761 33.4804 43.6029 33.496 43.7706 33.496C43.7862 33.496 43.796 33.5136 43.796 33.5506C43.796 33.5877 43.7882 33.6052 43.7706 33.6052C43.6302 33.6052 43.4722 33.6033 43.2986 33.5955C43.125 33.5896 42.9338 33.5857 42.729 33.5857C42.534 33.5857 42.3467 33.5896 42.1673 33.5955C41.9879 33.6013 41.8279 33.6052 41.6875 33.6052C41.6758 33.6052 41.6699 33.5877 41.6699 33.5506C41.6699 33.5136 41.6758 33.496 41.6875 33.496C41.8552 33.496 41.982 33.4804 42.0659 33.4511C42.1497 33.4219 42.2063 33.3595 42.2375 33.2697C42.2668 33.1781 42.2824 33.0454 42.2824 32.8699V28.6666C42.2824 28.491 42.2668 28.3603 42.2375 28.2726C42.2083 28.1848 42.1497 28.1243 42.0659 28.0912C41.982 28.058 41.8552 28.0405 41.6875 28.0405C41.6758 28.0405 41.6699 28.0229 41.6699 27.9859C41.6699 27.9488 41.6758 27.9312 41.6875 27.9312C41.8279 27.9312 41.9879 27.9371 42.1673 27.9449C42.3467 27.9546 42.534 27.9585 42.729 27.9585C42.9358 27.9585 43.1269 27.9546 43.3025 27.9449C43.48 27.9351 43.636 27.9312 43.7706 27.9312C43.7862 27.9312 43.796 27.9488 43.796 27.9859C43.796 28.0229 43.7882 28.0405 43.7706 28.0405C43.6087 28.0405 43.4839 28.058 43.4 28.0951C43.3161 28.1321 43.2615 28.1946 43.2342 28.2862C43.2069 28.3779 43.1933 28.5105 43.1933 28.6861V32.8718V32.8699ZM49.312 33.7398C49.312 33.7574 49.3003 33.7691 49.2749 33.771C49.2515 33.7749 49.2339 33.771 49.2222 33.7671L45.2101 28.6744C45.015 28.4267 44.8492 28.2589 44.7146 28.1711C44.5781 28.0834 44.4435 28.0405 44.307 28.0405C44.2972 28.0405 44.2914 28.0229 44.2914 27.9859C44.2914 27.9488 44.2972 27.9312 44.307 27.9312C44.4162 27.9312 44.5274 27.9351 44.6405 27.941C44.7556 27.9468 44.8609 27.9507 44.9585 27.9507C45.1535 27.9507 45.331 27.9488 45.487 27.941C45.645 27.9351 45.766 27.9312 45.8537 27.9312C45.924 27.9312 45.9766 27.9663 46.0117 28.0366C46.0468 28.1068 46.1307 28.2297 46.2594 28.4052L49.2456 32.2457L49.31 33.7437L49.312 33.7398ZM45.1633 32.4525V28.1399L45.4071 28.1575V32.4505C45.4071 32.7724 45.4675 33.0259 45.5865 33.2132C45.7055 33.4004 45.8713 33.4941 46.0819 33.4941C46.0917 33.4941 46.0975 33.5116 46.0975 33.5487C46.0975 33.5857 46.0917 33.6033 46.0819 33.6033C45.963 33.6033 45.8381 33.6013 45.7113 33.5935C45.5846 33.5857 45.4441 33.5838 45.292 33.5838C45.1301 33.5838 44.9702 33.5877 44.8161 33.5935C44.662 33.5994 44.5196 33.6033 44.3889 33.6033C44.3733 33.6033 44.3655 33.5857 44.3655 33.5487C44.3655 33.5116 44.3733 33.4941 44.3889 33.4941C44.6288 33.4941 44.8161 33.4004 44.9546 33.2132C45.093 33.0259 45.1613 32.7724 45.1613 32.4505L45.1633 32.4525ZM49.312 29.0937V33.7418L49.076 33.4706V29.0957C49.076 28.7758 49.0155 28.5183 48.8965 28.3291C48.7775 28.1399 48.6117 28.0424 48.4011 28.0424C48.3894 28.0424 48.3855 28.0249 48.3855 27.9878C48.3855 27.9507 48.3913 27.9332 48.4011 27.9332C48.5201 27.9332 48.6449 27.939 48.7717 27.9468C48.8985 27.9566 49.0389 27.9605 49.191 27.9605C49.3432 27.9605 49.4817 27.9566 49.6221 27.9468C49.7625 27.9371 49.8932 27.9332 50.0122 27.9332C50.0239 27.9332 50.0297 27.9507 50.0297 27.9878C50.0297 28.0249 50.0239 28.0424 50.0122 28.0424C49.7957 28.0424 49.624 28.138 49.4992 28.3291C49.3744 28.5203 49.312 28.7758 49.312 29.0957V29.0937ZM51.9159 28.1399C51.5843 28.1399 51.3034 28.2628 51.0733 28.5086C50.8431 28.7543 50.6598 29.0996 50.5232 29.5482C50.5174 29.5658 50.5018 29.5736 50.4745 29.5716C50.4472 29.5677 50.4335 29.558 50.4335 29.5404C50.4452 29.4565 50.455 29.3356 50.4667 29.1815C50.4764 29.0274 50.4901 28.8597 50.5037 28.6783C50.5174 28.4969 50.5291 28.3213 50.5369 28.1516C50.5447 27.982 50.5486 27.8435 50.5486 27.7342C50.5486 27.705 50.5642 27.6894 50.5934 27.6894C50.6227 27.6894 50.6383 27.705 50.6383 27.7342C50.6383 27.7947 50.6676 27.8376 50.7241 27.8649C50.7807 27.8922 50.847 27.9098 50.9192 27.9195C50.9933 27.9293 51.0538 27.9332 51.1025 27.9332C51.5687 27.9507 52.1148 27.9605 52.739 27.9605C53.1193 27.9605 53.4217 27.9566 53.6499 27.9468C53.8781 27.9371 54.0985 27.9332 54.3091 27.9332C54.5042 27.9332 54.6524 27.9195 54.7519 27.8922C54.8514 27.8649 54.9157 27.8025 54.943 27.7069C54.9489 27.6835 54.9665 27.6699 54.9957 27.6699C55.025 27.6699 55.0406 27.6816 55.0406 27.7069C55.0308 27.8045 55.0211 27.939 55.0113 28.1107C55.0035 28.2843 54.9957 28.4657 54.986 28.6549C54.9782 28.846 54.9704 29.0216 54.9665 29.1815C54.9606 29.3414 54.9586 29.4624 54.9586 29.5404C54.9586 29.558 54.945 29.5677 54.9177 29.5677C54.8904 29.5677 54.8748 29.558 54.8689 29.5404C54.787 29.0625 54.6329 28.7095 54.4086 28.4832C54.1843 28.257 53.9112 28.1419 53.5914 28.1419C53.4821 28.1419 53.4002 28.1594 53.3436 28.1926C53.2871 28.2258 53.2481 28.2823 53.2286 28.3603C53.2091 28.4403 53.1993 28.5476 53.1993 28.688V32.8738C53.1993 33.0493 53.2149 33.182 53.2481 33.2736C53.2812 33.3653 53.3436 33.4258 53.4392 33.455C53.5348 33.4843 53.6791 33.4999 53.8742 33.4999C53.8917 33.4999 53.8995 33.5175 53.8995 33.5545C53.8995 33.5916 53.8917 33.6091 53.8742 33.6091C53.722 33.6091 53.5523 33.6072 53.3612 33.5994C53.17 33.5916 52.9633 33.5896 52.7351 33.5896C52.5069 33.5896 52.3138 33.5935 52.1246 33.5994C51.9354 33.6052 51.7598 33.6091 51.6038 33.6091C51.5882 33.6091 51.5784 33.5916 51.5784 33.5545C51.5784 33.5175 51.5862 33.4999 51.6038 33.4999C51.793 33.4999 51.9373 33.4843 52.0349 33.455C52.1324 33.4258 52.1987 33.3634 52.2338 33.2736C52.2689 33.182 52.2865 33.0493 52.2865 32.8738V28.6705C52.2865 28.5378 52.2767 28.4325 52.2572 28.3564C52.2377 28.2804 52.2006 28.2258 52.148 28.1926C52.0934 28.1594 52.0154 28.1419 51.912 28.1419L51.9159 28.1399ZM59.2731 33.6052H55.6764C55.6608 33.6052 55.6511 33.5877 55.6511 33.5506C55.6511 33.5136 55.6589 33.496 55.6764 33.496C55.8442 33.496 55.969 33.4804 56.0509 33.4511C56.1328 33.4219 56.1855 33.3595 56.2128 33.2697C56.2401 33.18 56.2538 33.0454 56.2538 32.8699V28.6666C56.2538 28.491 56.2401 28.3603 56.2128 28.2726C56.1855 28.1848 56.1309 28.1243 56.0509 28.0912C55.969 28.058 55.8442 28.0405 55.6764 28.0405C55.6608 28.0405 55.6511 28.0229 55.6511 27.9859C55.6511 27.9488 55.6589 27.9312 55.6764 27.9312H59.1269C59.1815 27.9312 59.2088 27.9585 59.2088 28.0132L59.2244 29.2205C59.2244 29.2322 59.2107 29.242 59.1834 29.2478C59.1561 29.2537 59.1366 29.2478 59.1269 29.2303C59.0391 28.8733 58.8928 28.612 58.688 28.4442C58.4832 28.2765 58.2101 28.1946 57.8746 28.1946H57.6308C57.5216 28.1946 57.4319 28.2121 57.3617 28.2453C57.2914 28.2784 57.2388 28.3311 57.2076 28.4033C57.1744 28.4754 57.1588 28.5671 57.1588 28.6763V32.8348C57.1588 32.9499 57.1725 33.0474 57.1998 33.1254C57.2271 33.2054 57.268 33.2619 57.3227 33.299C57.3773 33.3361 57.4475 33.3536 57.5333 33.3536H57.8025C58.2257 33.3536 58.5651 33.2561 58.8206 33.063C59.0761 32.8699 59.2614 32.5695 59.3824 32.1638C59.3882 32.1463 59.4058 32.1404 59.435 32.1502C59.4643 32.1599 59.4799 32.1697 59.4799 32.1814C59.4584 32.3569 59.4389 32.5637 59.4233 32.8036C59.4077 33.0435 59.3999 33.2639 59.3999 33.4706C59.3999 33.5623 59.359 33.6072 59.277 33.6072L59.2731 33.6052ZM58.8187 31.5806C58.8187 31.3329 58.7348 31.1379 58.5671 30.9955C58.3993 30.8531 58.1516 30.7829 57.8259 30.7829H56.7277V30.5293H57.8356C58.1555 30.5293 58.3974 30.4669 58.5632 30.344C58.729 30.2211 58.8109 30.0514 58.8109 29.8408C58.8109 29.8232 58.8265 29.8135 58.8557 29.8135C58.885 29.8135 58.9006 29.8232 58.9006 29.8408C58.9006 30.0417 58.9006 30.1977 58.8967 30.3089C58.8928 30.4201 58.8928 30.5371 58.8928 30.658C58.8928 30.8102 58.8967 30.9584 58.9045 31.1027C58.9123 31.249 58.9162 31.409 58.9162 31.5845C58.9162 31.5962 58.9006 31.6021 58.8674 31.6021C58.8343 31.6021 58.8187 31.5962 58.8187 31.5845V31.5806ZM62.3978 27.9039C62.8972 27.9039 63.2814 28.0054 63.5486 28.2082C63.8178 28.4111 63.9524 28.6939 63.9524 29.0567C63.9524 29.4195 63.8627 29.7296 63.6832 30.0046C63.5038 30.2796 63.2756 30.4922 62.9966 30.6444C62.7177 30.7946 62.4232 30.8706 62.1131 30.8706H61.881C61.8029 30.8706 61.7308 30.8687 61.6645 30.8609V32.866C61.6645 33.0415 61.6781 33.1742 61.7054 33.2658C61.7327 33.3575 61.7873 33.418 61.8673 33.4472C61.9473 33.4765 62.0741 33.4921 62.2418 33.4921C62.2516 33.4921 62.2574 33.5097 62.2574 33.5467C62.2574 33.5838 62.2516 33.6013 62.2418 33.6013C62.1014 33.6013 61.9434 33.5994 61.7698 33.5916C61.5962 33.5857 61.405 33.5818 61.2002 33.5818C61.0052 33.5818 60.8199 33.5857 60.6424 33.5916C60.4669 33.5974 60.3069 33.6013 60.1665 33.6013C60.1509 33.6013 60.1411 33.5838 60.1411 33.5467C60.1411 33.5097 60.1489 33.4921 60.1665 33.4921C60.3342 33.4921 60.4591 33.4765 60.541 33.4472C60.6229 33.418 60.6775 33.3556 60.7068 33.2658C60.736 33.1742 60.7516 33.0415 60.7516 32.866V28.6627C60.7516 28.4871 60.738 28.3564 60.7107 28.2687C60.6834 28.1809 60.6287 28.1204 60.5468 28.0873C60.4649 28.0541 60.3401 28.0366 60.1723 28.0366C60.1606 28.0366 60.1548 28.019 60.1548 27.982C60.1548 27.9449 60.1606 27.9273 60.1723 27.9273C60.3128 27.9273 60.4708 27.9332 60.6443 27.941C60.8179 27.9507 61.0032 27.9546 61.1983 27.9546C61.3777 27.9546 61.5747 27.9449 61.7873 27.9273C62.0019 27.9098 62.2028 27.9 62.3939 27.9L62.3978 27.9039ZM63.0239 29.4019C63.0239 29.045 62.9908 28.7739 62.9264 28.5847C62.8621 28.3955 62.7723 28.2687 62.6573 28.1985C62.5422 28.1282 62.4134 28.0951 62.2672 28.0951C62.0507 28.0951 61.8946 28.1399 61.8029 28.2316C61.7113 28.3233 61.6645 28.4735 61.6645 28.6861V30.6112C61.7405 30.6229 61.8224 30.6327 61.9083 30.6385C61.996 30.6444 62.0702 30.6483 62.1365 30.6483C62.4564 30.6483 62.6846 30.5488 62.8191 30.3538C62.9537 30.1587 63.022 29.8408 63.022 29.4058L63.0239 29.4019ZM64.1474 33.6052C64.0655 33.6052 63.9348 33.4921 63.7534 33.2639C63.572 33.0376 63.3536 32.708 63.0981 32.2789C62.8426 31.8498 62.5558 31.3349 62.2359 30.7361L62.9849 30.4805C63.418 31.2139 63.7885 31.801 64.0967 32.2418C64.4049 32.6826 64.676 33.0025 64.914 33.1995C65.1539 33.3965 65.3801 33.4941 65.5967 33.4941C65.6084 33.4941 65.6123 33.5116 65.6123 33.5487C65.6123 33.5857 65.6064 33.6033 65.5967 33.6033H64.1474V33.6052ZM70.6972 33.7398C70.6972 33.7574 70.6855 33.7691 70.6601 33.771C70.6367 33.7749 70.6192 33.771 70.6075 33.7671L66.5953 28.6744C66.4003 28.4267 66.2345 28.2589 66.0999 28.1711C65.9634 28.0834 65.8288 28.0405 65.6922 28.0405C65.6825 28.0405 65.6766 28.0229 65.6766 27.9859C65.6766 27.9488 65.6825 27.9312 65.6922 27.9312C65.8015 27.9312 65.9126 27.9351 66.0258 27.941C66.1408 27.9468 66.2462 27.9507 66.3437 27.9507C66.5387 27.9507 66.7162 27.9488 66.8723 27.941C67.0303 27.9351 67.1512 27.9312 67.239 27.9312C67.3092 27.9312 67.3619 27.9663 67.397 28.0366C67.4321 28.1068 67.5159 28.2297 67.6447 28.4052L70.6309 32.2457L70.6953 33.7437L70.6972 33.7398ZM66.5485 32.4525V28.1399L66.7923 28.1575V32.4505C66.7923 32.7724 66.8528 33.0259 66.9718 33.2132C67.0907 33.4004 67.2565 33.4941 67.4672 33.4941C67.4769 33.4941 67.4828 33.5116 67.4828 33.5487C67.4828 33.5857 67.4769 33.6033 67.4672 33.6033C67.3482 33.6033 67.2234 33.6013 67.0966 33.5935C66.9698 33.5857 66.8294 33.5838 66.6772 33.5838C66.5153 33.5838 66.3554 33.5877 66.2013 33.5935C66.0472 33.5994 65.9048 33.6033 65.7741 33.6033C65.7585 33.6033 65.7507 33.5857 65.7507 33.5487C65.7507 33.5116 65.7585 33.4941 65.7741 33.4941C66.0141 33.4941 66.2013 33.4004 66.3398 33.2132C66.4783 33.0259 66.5465 32.7724 66.5465 32.4505L66.5485 32.4525ZM70.6972 29.0937V33.7418L70.4612 33.4706V29.0957C70.4612 28.7758 70.4007 28.5183 70.2817 28.3291C70.1628 28.1399 69.997 28.0424 69.7863 28.0424C69.7746 28.0424 69.7707 28.0249 69.7707 27.9878C69.7707 27.9507 69.7766 27.9332 69.7863 27.9332C69.9053 27.9332 70.0301 27.939 70.1569 27.9468C70.2837 27.9566 70.4241 27.9605 70.5763 27.9605C70.7284 27.9605 70.8669 27.9566 71.0073 27.9468C71.1478 27.9371 71.2784 27.9332 71.3974 27.9332C71.4091 27.9332 71.415 27.9507 71.415 27.9878C71.415 28.0249 71.4091 28.0424 71.3974 28.0424C71.1809 28.0424 71.0093 28.138 70.8845 28.3291C70.7596 28.5203 70.6972 28.7758 70.6972 29.0957V29.0937ZM77.331 33.496C77.358 33.496 77.372 33.5136 77.372 33.5506C77.372 33.5877 77.358 33.6052 77.331 33.6052C77.169 33.6052 76.997 33.5994 76.822 33.5877C76.644 33.576 76.477 33.5701 76.313 33.5701C76.127 33.5701 75.967 33.576 75.833 33.5877C75.696 33.5994 75.546 33.6052 75.376 33.6052C75.355 33.6052 75.343 33.5877 75.343 33.5506C75.343 33.5136 75.355 33.496 75.376 33.496C75.599 33.496 75.728 33.4472 75.763 33.3458C75.798 33.2463 75.747 33.0474 75.612 32.7509L73.96 29.1113L74.358 28.3311L72.7394 32.316C72.5931 32.6787 72.5892 32.9674 72.7316 33.1781C72.874 33.3907 73.096 33.496 73.399 33.496C73.426 33.496 73.44 33.5136 73.44 33.5506C73.44 33.5877 73.426 33.6052 73.399 33.6052C73.237 33.6052 73.087 33.5994 72.952 33.5877C72.8154 33.576 72.6457 33.5701 72.439 33.5701C72.2322 33.5701 72.0586 33.576 71.9319 33.5877C71.8051 33.5994 71.649 33.6052 71.4637 33.6052C71.4423 33.6052 71.4306 33.5877 71.4306 33.5506C71.4306 33.5136 71.4423 33.496 71.4637 33.496C71.61 33.496 71.7368 33.4609 71.8421 33.3926C71.9475 33.3244 72.0547 33.1956 72.1601 33.0123C72.2654 32.827 72.3863 32.5656 72.5229 32.2262L74.288 27.8961C74.294 27.8786 74.317 27.8669 74.362 27.8649C74.405 27.863 74.43 27.8727 74.434 27.8961L76.469 32.3628C76.599 32.6475 76.713 32.8718 76.806 33.0396C76.902 33.2054 76.991 33.3244 77.075 33.3926C77.159 33.4628 77.245 33.496 77.331 33.496ZM72.8876 31.526L73.01 31.2724H75.355L75.412 31.526H72.8896H72.8876ZM78.56 28.1399C78.228 28.1399 77.947 28.2628 77.717 28.5086C77.487 28.7543 77.304 29.0996 77.167 29.5482C77.161 29.5658 77.146 29.5736 77.118 29.5716C77.091 29.5677 77.077 29.558 77.077 29.5404C77.089 29.4565 77.099 29.3356 77.11 29.1815C77.12 29.0274 77.134 28.8597 77.147 28.6783C77.161 28.4969 77.173 28.3213 77.181 28.1516C77.188 27.982 77.192 27.8435 77.192 27.7342C77.192 27.705 77.208 27.6894 77.237 27.6894C77.266 27.6894 77.282 27.705 77.282 27.7342C77.282 27.7947 77.311 27.8376 77.368 27.8649C77.424 27.8922 77.491 27.9098 77.563 27.9195C77.637 27.9293 77.698 27.9332 77.746 27.9332C78.212 27.9507 78.759 27.9605 79.383 27.9605C79.763 27.9605 80.065 27.9566 80.294 27.9468C80.522 27.9371 80.742 27.9332 80.953 27.9332C81.148 27.9332 81.296 27.9195 81.396 27.8922C81.495 27.8649 81.56 27.8025 81.587 27.7069C81.593 27.6835 81.61 27.6699 81.639 27.6699C81.669 27.6699 81.684 27.6816 81.684 27.7069C81.675 27.8045 81.665 27.939 81.655 28.1107C81.647 28.2843 81.639 28.4657 81.63 28.6549C81.622 28.846 81.614 29.0216 81.61 29.1815C81.604 29.3414 81.602 29.4624 81.602 29.5404C81.602 29.558 81.589 29.5677 81.561 29.5677C81.534 29.5677 81.519 29.558 81.513 29.5404C81.431 29.0625 81.277 28.7095 81.052 28.4832C80.828 28.257 80.555 28.1419 80.235 28.1419C80.126 28.1419 80.044 28.1594 79.987 28.1926C79.931 28.2258 79.892 28.2823 79.872 28.3603C79.853 28.4403 79.843 28.5476 79.843 28.688V32.8738C79.843 33.0493 79.859 33.182 79.892 33.2736C79.925 33.3653 79.987 33.4258 80.083 33.455C80.179 33.4843 80.323 33.4999 80.518 33.4999C80.536 33.4999 80.543 33.5175 80.543 33.5545C80.543 33.5916 80.536 33.6091 80.518 33.6091C80.366 33.6091 80.196 33.6072 80.005 33.5994C79.814 33.5916 79.607 33.5896 79.379 33.5896C79.151 33.5896 78.958 33.5935 78.768 33.5994C78.579 33.6052 78.404 33.6091 78.248 33.6091C78.232 33.6091 78.222 33.5916 78.222 33.5545C78.222 33.5175 78.23 33.4999 78.248 33.4999C78.437 33.4999 78.581 33.4843 78.679 33.455C78.776 33.4258 78.842 33.3634 78.878 33.2736C78.913 33.182 78.93 33.0493 78.93 32.8738V28.6705C78.93 28.5378 78.92 28.4325 78.901 28.3564C78.881 28.2804 78.844 28.2258 78.792 28.1926C78.737 28.1594 78.659 28.1419 78.556 28.1419L78.56 28.1399ZM83.832 32.8699C83.832 33.0454 83.845 33.1781 83.873 33.2697C83.9 33.3614 83.955 33.4219 84.035 33.4511C84.115 33.4804 84.241 33.496 84.409 33.496C84.425 33.496 84.435 33.5136 84.435 33.5506C84.435 33.5877 84.427 33.6052 84.409 33.6052C84.269 33.6052 84.111 33.6033 83.937 33.5955C83.764 33.5896 83.572 33.5857 83.368 33.5857C83.173 33.5857 82.985 33.5896 82.806 33.5955C82.626 33.6013 82.466 33.6052 82.326 33.6052C82.314 33.6052 82.309 33.5877 82.309 33.5506C82.309 33.5136 82.314 33.496 82.326 33.496C82.494 33.496 82.621 33.4804 82.704 33.4511C82.788 33.4219 82.845 33.3595 82.876 33.2697C82.905 33.1781 82.921 33.0454 82.921 32.8699V28.6666C82.921 28.491 82.905 28.3603 82.876 28.2726C82.847 28.1848 82.788 28.1243 82.704 28.0912C82.621 28.058 82.494 28.0405 82.326 28.0405C82.314 28.0405 82.309 28.0229 82.309 27.9859C82.309 27.9488 82.314 27.9312 82.326 27.9312C82.466 27.9312 82.626 27.9371 82.806 27.9449C82.985 27.9546 83.173 27.9585 83.368 27.9585C83.574 27.9585 83.766 27.9546 83.941 27.9449C84.119 27.9351 84.275 27.9312 84.409 27.9312C84.425 27.9312 84.435 27.9488 84.435 27.9859C84.435 28.0229 84.427 28.0405 84.409 28.0405C84.247 28.0405 84.122 28.058 84.039 28.0951C83.955 28.1321 83.9 28.1946 83.873 28.2862C83.845 28.3779 83.832 28.5105 83.832 28.6861V32.8718V32.8699ZM87.746 33.7145C87.356 33.7145 87.001 33.6364 86.685 33.4823C86.369 33.3283 86.096 33.1137 85.872 32.8426C85.648 32.5715 85.474 32.2574 85.351 31.9024C85.228 31.5475 85.168 31.171 85.168 30.7712C85.168 30.2816 85.254 29.8505 85.423 29.4819C85.593 29.1132 85.821 28.8051 86.102 28.5612C86.385 28.3155 86.693 28.1321 87.031 28.0112C87.368 27.8903 87.702 27.8298 88.031 27.8298C88.433 27.8298 88.792 27.9098 89.11 28.0697C89.428 28.2297 89.697 28.4462 89.919 28.7192C90.142 28.9923 90.311 29.3005 90.428 29.6457C90.545 29.991 90.604 30.344 90.604 30.7087C90.604 31.132 90.528 31.526 90.376 31.8888C90.224 32.2516 90.015 32.5695 89.754 32.8426C89.492 33.1157 89.186 33.3283 88.843 33.4823C88.499 33.6364 88.133 33.7145 87.748 33.7145H87.746ZM88.016 33.4862C88.32 33.4862 88.591 33.3907 88.829 33.1956C89.069 33.0025 89.256 32.7178 89.395 32.3413C89.533 31.9649 89.603 31.5084 89.603 30.9701C89.603 30.4318 89.527 29.9168 89.375 29.4819C89.223 29.0469 89.007 28.7017 88.724 28.452C88.441 28.2004 88.103 28.0756 87.706 28.0756C87.212 28.0756 86.832 28.2843 86.566 28.7017C86.301 29.1191 86.169 29.6964 86.169 30.4357C86.169 30.8765 86.213 31.2841 86.307 31.6567C86.399 32.0292 86.527 32.353 86.693 32.628C86.859 32.9031 87.054 33.1157 87.278 33.2639C87.503 33.4121 87.748 33.4862 88.016 33.4862ZM96.184 33.7398C96.184 33.7574 96.173 33.7691 96.147 33.771C96.124 33.7749 96.106 33.771 96.095 33.7671L92.082 28.6744C91.887 28.4267 91.722 28.2589 91.587 28.1711C91.45 28.0834 91.316 28.0405 91.179 28.0405C91.17 28.0405 91.164 28.0229 91.164 27.9859C91.164 27.9488 91.17 27.9312 91.179 27.9312C91.289 27.9312 91.4 27.9351 91.513 27.941C91.628 27.9468 91.733 27.9507 91.831 27.9507C92.026 27.9507 92.203 27.9488 92.359 27.941C92.517 27.9351 92.638 27.9312 92.726 27.9312C92.796 27.9312 92.849 27.9663 92.884 28.0366C92.919 28.1068 93.003 28.2297 93.132 28.4052L96.118 32.2457L96.182 33.7437L96.184 33.7398ZM92.036 32.4525V28.1399L92.279 28.1575V32.4505C92.279 32.7724 92.34 33.0259 92.459 33.2132C92.578 33.4004 92.744 33.4941 92.954 33.4941C92.964 33.4941 92.97 33.5116 92.97 33.5487C92.97 33.5857 92.964 33.6033 92.954 33.6033C92.835 33.6033 92.711 33.6013 92.584 33.5935C92.457 33.5857 92.316 33.5838 92.164 33.5838C92.002 33.5838 91.843 33.5877 91.688 33.5935C91.534 33.5994 91.392 33.6033 91.261 33.6033C91.246 33.6033 91.238 33.5857 91.238 33.5487C91.238 33.5116 91.246 33.4941 91.261 33.4941C91.501 33.4941 91.688 33.4004 91.827 33.2132C91.965 33.0259 92.034 32.7724 92.034 32.4505L92.036 32.4525ZM96.184 29.0937V33.7418L95.948 33.4706V29.0957C95.948 28.7758 95.888 28.5183 95.769 28.3291C95.65 28.1399 95.484 28.0424 95.273 28.0424C95.262 28.0424 95.258 28.0249 95.258 27.9878C95.258 27.9507 95.264 27.9332 95.273 27.9332C95.392 27.9332 95.517 27.939 95.644 27.9468C95.771 27.9566 95.911 27.9605 96.063 27.9605C96.216 27.9605 96.354 27.9566 96.494 27.9468C96.635 27.9371 96.766 27.9332 96.885 27.9332C96.896 27.9332 96.902 27.9507 96.902 27.9878C96.902 28.0249 96.896 28.0424 96.885 28.0424C96.668 28.0424 96.496 28.138 96.372 28.3291C96.247 28.5203 96.184 28.7758 96.184 29.0957V29.0937ZM102.818 33.496C102.845 33.496 102.859 33.5136 102.859 33.5506C102.859 33.5877 102.845 33.6052 102.818 33.6052C102.656 33.6052 102.484 33.5994 102.309 33.5877C102.131 33.576 101.964 33.5701 101.8 33.5701C101.615 33.5701 101.455 33.576 101.32 33.5877C101.183 33.5994 101.033 33.6052 100.864 33.6052C100.842 33.6052 100.83 33.5877 100.83 33.5506C100.83 33.5136 100.842 33.496 100.864 33.496C101.086 33.496 101.215 33.4472 101.25 33.3458C101.285 33.2463 101.234 33.0474 101.1 32.7509L99.448 29.1113L99.845 28.3311L98.227 32.316C98.08 32.6787 98.076 32.9674 98.219 33.1781C98.361 33.3907 98.583 33.496 98.886 33.496C98.913 33.496 98.927 33.5136 98.927 33.5506C98.927 33.5877 98.913 33.6052 98.886 33.6052C98.724 33.6052 98.574 33.5994 98.439 33.5877C98.303 33.576 98.133 33.5701 97.926 33.5701C97.719 33.5701 97.546 33.576 97.419 33.5877C97.292 33.5994 97.136 33.6052 96.951 33.6052C96.929 33.6052 96.918 33.5877 96.918 33.5506C96.918 33.5136 96.929 33.496 96.951 33.496C97.097 33.496 97.224 33.4609 97.329 33.3926C97.435 33.3244 97.542 33.1956 97.647 33.0123C97.753 32.827 97.873 32.5656 98.01 32.2262L99.775 27.8961C99.781 27.8786 99.804 27.8669 99.849 27.8649C99.892 27.863 99.918 27.8727 99.921 27.8961L101.956 32.3628C102.087 32.6475 102.2 32.8718 102.293 33.0396C102.389 33.2054 102.479 33.3244 102.562 33.3926C102.646 33.4628 102.732 33.496 102.818 33.496ZM98.375 31.526L98.498 31.2724H100.842L100.899 31.526H98.377H98.375ZM104.542 28.6763V32.8348C104.542 32.9811 104.554 33.0903 104.575 33.1664C104.597 33.2424 104.642 33.2912 104.71 33.3166C104.778 33.34 104.876 33.3536 105.006 33.3536H105.283C105.707 33.3536 106.073 33.2268 106.382 32.9713C106.692 32.7178 106.896 32.3784 107 31.9551C107.006 31.9376 107.021 31.9317 107.049 31.9376C107.076 31.9434 107.09 31.9551 107.09 31.9746C107.072 32.1736 107.056 32.4154 107.041 32.6963C107.025 32.9772 107.015 33.2366 107.015 33.4726C107.015 33.5643 106.974 33.6091 106.893 33.6091H103.052C103.042 33.6091 103.036 33.5916 103.036 33.5545C103.036 33.5175 103.042 33.4999 103.052 33.4999C103.22 33.4999 103.345 33.4843 103.427 33.455C103.508 33.4258 103.563 33.3634 103.594 33.2736C103.624 33.182 103.639 33.0493 103.639 32.8738V28.6705C103.639 28.4949 103.624 28.3642 103.594 28.2765C103.565 28.1887 103.508 28.1282 103.427 28.0951C103.345 28.0619 103.22 28.0444 103.052 28.0444C103.042 28.0444 103.036 28.0268 103.036 27.9898C103.036 27.9527 103.042 27.9351 103.052 27.9351C103.183 27.9351 103.339 27.941 103.52 27.9488C103.702 27.9566 103.891 27.9624 104.086 27.9624C104.293 27.9624 104.482 27.9585 104.655 27.9488C104.829 27.939 104.983 27.9351 105.12 27.9351C105.135 27.9351 105.143 27.9527 105.143 27.9898C105.143 28.0268 105.135 28.0444 105.12 28.0444C104.956 28.0444 104.833 28.0619 104.749 28.0951C104.665 28.1282 104.609 28.1907 104.581 28.2804C104.554 28.372 104.54 28.5047 104.54 28.6802L104.542 28.6763ZM110.565 28.848C110.565 29.0781 110.618 29.279 110.723 29.4526C110.829 29.6243 110.967 29.7803 111.139 29.9207C111.308 30.0592 111.49 30.1997 111.679 30.3381C111.886 30.4825 112.081 30.6366 112.268 30.7965C112.455 30.9565 112.609 31.1418 112.732 31.3505C112.855 31.5592 112.916 31.8088 112.916 32.0994C112.916 32.4213 112.84 32.7022 112.684 32.944C112.529 33.1859 112.321 33.3751 112.057 33.5116C111.794 33.6481 111.496 33.7164 111.158 33.7164C110.996 33.7164 110.825 33.6989 110.649 33.6618C110.474 33.6247 110.312 33.5799 110.169 33.5253C110.025 33.4706 109.922 33.4141 109.855 33.3536C109.834 33.3361 109.814 33.3166 109.799 33.2951C109.781 33.2736 109.773 33.2366 109.773 33.182L109.748 31.7386C109.742 31.7093 109.754 31.6918 109.785 31.6898C109.814 31.6859 109.832 31.6976 109.838 31.7211C109.92 31.9083 110.007 32.1072 110.107 32.316C110.204 32.5247 110.314 32.7178 110.437 32.8933C110.559 33.0688 110.696 33.2132 110.848 33.3244C111 33.4355 111.174 33.4921 111.369 33.4921C111.494 33.4921 111.613 33.4687 111.728 33.4199C111.841 33.3712 111.935 33.2834 112.009 33.1566C112.081 33.0298 112.118 32.8543 112.118 32.63C112.118 32.3452 112.061 32.1014 111.946 31.8985C111.833 31.6957 111.687 31.5182 111.507 31.3641C111.328 31.21 111.141 31.0637 110.946 30.9233C110.756 30.7848 110.573 30.6405 110.401 30.4922C110.228 30.344 110.087 30.1743 109.978 29.9832C109.869 29.792 109.816 29.5638 109.816 29.2985C109.816 28.9591 109.902 28.6822 110.072 28.4676C110.244 28.2531 110.46 28.0931 110.723 27.9917C110.987 27.8883 111.254 27.8376 111.525 27.8376C111.72 27.8376 111.915 27.8571 112.11 27.8961C112.305 27.9351 112.459 27.9819 112.574 28.0366C112.629 28.06 112.662 28.0873 112.676 28.1185C112.689 28.1497 112.697 28.1829 112.697 28.218V29.5521C112.697 29.5697 112.686 29.5833 112.66 29.5931C112.635 29.6028 112.619 29.597 112.608 29.5794C112.574 29.5072 112.529 29.3863 112.469 29.2205C112.409 29.0547 112.331 28.8792 112.233 28.6978C112.135 28.5164 112.011 28.3603 111.859 28.2297C111.706 28.099 111.521 28.0346 111.305 28.0346C111.17 28.0346 111.045 28.0639 110.934 28.1263C110.823 28.1868 110.733 28.2765 110.665 28.3935C110.597 28.5105 110.563 28.6646 110.563 28.8519L110.565 28.848ZM116.815 27.8318C116.977 27.8318 117.146 27.8415 117.322 27.8591C117.499 27.8766 117.665 27.9039 117.823 27.941C117.981 27.9781 118.114 28.0229 118.221 28.0775C118.27 28.0951 118.301 28.1185 118.315 28.1458C118.328 28.1731 118.338 28.2199 118.344 28.2862L118.449 29.5482C118.449 29.5658 118.436 29.5775 118.408 29.5853C118.381 29.5911 118.361 29.5833 118.352 29.558C118.2 29.0684 117.985 28.69 117.704 28.4228C117.425 28.1555 117.084 28.0229 116.682 28.0229C116.313 28.0229 115.984 28.1341 115.693 28.3545C115.403 28.5749 115.174 28.8889 115.011 29.2946C114.847 29.7003 114.763 30.1841 114.763 30.7478C114.763 31.171 114.812 31.5553 114.909 31.8966C115.007 32.2379 115.145 32.5305 115.325 32.7724C115.504 33.0142 115.715 33.2015 115.96 33.3302C116.204 33.4609 116.473 33.5253 116.766 33.5253C117.15 33.5253 117.47 33.4082 117.722 33.1761C117.973 32.944 118.211 32.5715 118.434 32.0643C118.445 32.0468 118.463 32.0409 118.486 32.0468C118.512 32.0526 118.523 32.0643 118.523 32.0838L118.4 33.2093C118.395 33.2814 118.385 33.3283 118.371 33.3497C118.358 33.3712 118.326 33.3946 118.278 33.418C118.016 33.5214 117.759 33.5955 117.501 33.6442C117.244 33.693 116.998 33.7164 116.764 33.7164C116.179 33.7164 115.656 33.5935 115.202 33.3478C114.747 33.102 114.388 32.7607 114.127 32.3218C113.868 31.8829 113.737 31.3797 113.737 30.8102C113.737 30.3752 113.815 29.9734 113.969 29.6067C114.123 29.24 114.341 28.926 114.62 28.6627C114.899 28.3994 115.227 28.1946 115.602 28.0502C115.976 27.9059 116.38 27.8318 116.815 27.8318ZM119.768 32.8699V28.6666C119.768 28.491 119.752 28.3603 119.723 28.2726C119.694 28.1848 119.633 28.1243 119.543 28.0912C119.454 28.058 119.319 28.0405 119.14 28.0405C119.124 28.0405 119.116 28.0229 119.116 27.9859C119.116 27.9488 119.124 27.9312 119.14 27.9312C119.282 27.9312 119.442 27.9371 119.62 27.9449C119.799 27.9546 119.986 27.9585 120.181 27.9585C120.431 27.9585 120.649 27.9546 120.837 27.9449C121.024 27.9351 121.194 27.9312 121.346 27.9312C121.357 27.9312 121.361 27.9488 121.361 27.9859C121.361 28.0229 121.355 28.0405 121.346 28.0405C121.157 28.0405 121.012 28.058 120.915 28.0951C120.817 28.1321 120.753 28.1946 120.72 28.2862C120.686 28.3779 120.671 28.5105 120.671 28.6861V32.8718C120.671 33.0474 120.686 33.18 120.72 33.2717C120.753 33.3634 120.817 33.4238 120.915 33.4531C121.012 33.4823 121.157 33.498 121.346 33.498C121.357 33.498 121.361 33.5155 121.361 33.5526C121.361 33.5896 121.355 33.6072 121.346 33.6072C121.188 33.6072 121.018 33.6052 120.833 33.5974C120.647 33.5896 120.431 33.5877 120.181 33.5877C119.986 33.5877 119.797 33.5916 119.612 33.5974C119.426 33.6033 119.265 33.6072 119.124 33.6072C119.114 33.6072 119.108 33.5896 119.108 33.5526C119.108 33.5155 119.114 33.498 119.124 33.498C119.309 33.498 119.446 33.4823 119.536 33.4531C119.625 33.4238 119.686 33.3614 119.719 33.2717C119.752 33.18 119.768 33.0474 119.768 32.8718V32.8699ZM120.191 30.7809V30.5273H123.714V30.7809H120.191ZM123.3 28.6841C123.3 28.5086 123.285 28.376 123.255 28.2843C123.226 28.1926 123.162 28.1302 123.064 28.0931C122.967 28.0561 122.82 28.0385 122.625 28.0385C122.608 28.0385 122.6 28.021 122.6 27.9839C122.6 27.9468 122.608 27.9293 122.625 27.9293C122.766 27.9293 122.928 27.9351 123.109 27.9429C123.29 27.9527 123.507 27.9566 123.757 27.9566C123.952 27.9566 124.147 27.9527 124.338 27.9429C124.531 27.9332 124.699 27.9293 124.839 27.9293C124.855 27.9293 124.864 27.9468 124.864 27.9839C124.864 28.021 124.857 28.0385 124.839 28.0385C124.66 28.0385 124.525 28.0561 124.431 28.0892C124.34 28.1224 124.277 28.1829 124.248 28.2706C124.219 28.3584 124.203 28.491 124.203 28.6646V32.8679C124.203 33.0435 124.219 33.1761 124.248 33.2678C124.277 33.3595 124.34 33.4199 124.431 33.4492C124.523 33.4784 124.66 33.4941 124.839 33.4941C124.855 33.4941 124.864 33.5116 124.864 33.5487C124.864 33.5857 124.857 33.6033 124.839 33.6033C124.699 33.6033 124.531 33.6013 124.338 33.5935C124.145 33.5877 123.952 33.5838 123.757 33.5838C123.507 33.5838 123.292 33.5877 123.109 33.5935C122.928 33.5994 122.766 33.6033 122.625 33.6033C122.608 33.6033 122.6 33.5857 122.6 33.5487C122.6 33.5116 122.608 33.4941 122.625 33.4941C122.82 33.4941 122.967 33.4784 123.064 33.4492C123.162 33.4199 123.226 33.3575 123.255 33.2678C123.285 33.1761 123.3 33.0435 123.3 32.8679V28.6822V28.6841ZM128.077 33.7145C127.687 33.7145 127.332 33.6364 127.016 33.4823C126.7 33.3283 126.427 33.1137 126.202 32.8426C125.978 32.5715 125.805 32.2574 125.682 31.9024C125.559 31.5475 125.498 31.171 125.498 30.7712C125.498 30.2816 125.584 29.8505 125.754 29.4819C125.924 29.1132 126.152 28.8051 126.433 28.5612C126.715 28.3155 127.024 28.1321 127.361 28.0112C127.698 27.8903 128.032 27.8298 128.362 27.8298C128.763 27.8298 129.122 27.9098 129.44 28.0697C129.758 28.2297 130.027 28.4462 130.25 28.7192C130.472 28.9923 130.642 29.3005 130.759 29.6457C130.876 29.991 130.934 30.344 130.934 30.7087C130.934 31.132 130.858 31.526 130.706 31.8888C130.554 32.2516 130.345 32.5695 130.084 32.8426C129.823 33.1157 129.516 33.3283 129.173 33.4823C128.83 33.6364 128.463 33.7145 128.079 33.7145H128.077ZM128.344 33.4862C128.648 33.4862 128.919 33.3907 129.157 33.1956C129.397 33.0025 129.585 32.7178 129.723 32.3413C129.862 31.9649 129.932 31.5084 129.932 30.9701C129.932 30.4318 129.856 29.9168 129.704 29.4819C129.551 29.0469 129.335 28.7017 129.052 28.452C128.769 28.2004 128.432 28.0756 128.034 28.0756C127.54 28.0756 127.16 28.2843 126.895 28.7017C126.63 29.1191 126.497 29.6964 126.497 30.4357C126.497 30.8765 126.542 31.2841 126.635 31.6567C126.727 32.0292 126.856 32.353 127.022 32.628C127.187 32.9031 127.383 33.1157 127.607 33.2639C127.831 33.4121 128.077 33.4862 128.344 33.4862ZM134.309 33.7145C133.919 33.7145 133.564 33.6364 133.248 33.4823C132.932 33.3283 132.659 33.1137 132.434 32.8426C132.21 32.5715 132.036 32.2574 131.914 31.9024C131.791 31.5475 131.73 31.171 131.73 30.7712C131.73 30.2816 131.816 29.8505 131.986 29.4819C132.155 29.1132 132.384 28.8051 132.664 28.5612C132.947 28.3155 133.255 28.1321 133.593 28.0112C133.93 27.8903 134.264 27.8298 134.593 27.8298C134.995 27.8298 135.354 27.9098 135.672 28.0697C135.99 28.2297 136.259 28.4462 136.482 28.7192C136.704 28.9923 136.874 29.3005 136.991 29.6457C137.108 29.991 137.166 30.344 137.166 30.7087C137.166 31.132 137.09 31.526 136.938 31.8888C136.786 32.2516 136.577 32.5695 136.316 32.8426C136.054 33.1157 135.748 33.3283 135.405 33.4823C135.062 33.6364 134.695 33.7145 134.311 33.7145H134.309ZM134.578 33.4862C134.882 33.4862 135.153 33.3907 135.391 33.1956C135.631 33.0025 135.818 32.7178 135.957 32.3413C136.095 31.9649 136.166 31.5084 136.166 30.9701C136.166 30.4318 136.09 29.9168 135.937 29.4819C135.785 29.0469 135.569 28.7017 135.286 28.452C135.003 28.2004 134.666 28.0756 134.268 28.0756C133.774 28.0756 133.394 28.2843 133.129 28.7017C132.863 29.1191 132.731 29.6964 132.731 30.4357C132.731 30.8765 132.776 31.2841 132.869 31.6567C132.961 32.0292 133.09 32.353 133.255 32.628C133.421 32.9031 133.616 33.1157 133.841 33.2639C134.065 33.4121 134.311 33.4862 134.578 33.4862ZM139.298 28.6763V32.8348C139.298 32.9811 139.31 33.0903 139.331 33.1664C139.353 33.2424 139.398 33.2912 139.466 33.3166C139.534 33.34 139.632 33.3536 139.762 33.3536H140.039C140.463 33.3536 140.829 33.2268 141.137 32.9713C141.448 32.7178 141.652 32.3784 141.756 31.9551C141.762 31.9376 141.777 31.9317 141.804 31.9376C141.832 31.9434 141.845 31.9551 141.845 31.9746C141.828 32.1736 141.812 32.4154 141.797 32.6963C141.781 32.9772 141.771 33.2366 141.771 33.4726C141.771 33.5643 141.73 33.6091 141.648 33.6091H137.808C137.798 33.6091 137.792 33.5916 137.792 33.5545C137.792 33.5175 137.798 33.4999 137.808 33.4999C137.976 33.4999 138.1 33.4843 138.182 33.455C138.264 33.4258 138.319 33.3634 138.35 33.2736C138.379 33.182 138.395 33.0493 138.395 32.8738V28.6705C138.395 28.4949 138.379 28.3642 138.35 28.2765C138.321 28.1887 138.264 28.1282 138.182 28.0951C138.1 28.0619 137.976 28.0444 137.808 28.0444C137.798 28.0444 137.792 28.0268 137.792 27.9898C137.792 27.9527 137.798 27.9351 137.808 27.9351C137.939 27.9351 138.095 27.941 138.276 27.9488C138.457 27.9566 138.647 27.9624 138.842 27.9624C139.048 27.9624 139.238 27.9585 139.411 27.9488C139.585 27.939 139.739 27.9351 139.875 27.9351C139.891 27.9351 139.899 27.9527 139.899 27.9898C139.899 28.0268 139.891 28.0444 139.875 28.0444C139.712 28.0444 139.589 28.0619 139.505 28.0951C139.421 28.1282 139.364 28.1907 139.337 28.2804C139.31 28.372 139.296 28.5047 139.296 28.6802L139.298 28.6763Z" fill="#092A48"></path>
    <path d="M18.9506 44.9599C-4.04772 33.5359 0.311683 8.78987 0.358483 8.54027L0.645184 7.01888C0.680284 6.83748 0.838283 6.70288 1.02358 6.70098L2.57028 6.67947C13.4873 6.53127 18.2504 1.67057 18.2972 1.62187L19.6801 0.125775C19.8342 -0.041925 20.0994 -0.041925 20.2535 0.125775L21.6423 1.62968C21.6754 1.66278 26.5263 6.53318 37.3613 6.68148L38.9081 6.70288C39.0934 6.70488 39.2514 6.83748 39.2865 7.02078L39.5732 8.54027C39.62 8.78987 43.9794 33.5359 20.9811 44.9599L20.1404 45.3773C20.0312 45.432 19.9024 45.432 19.7932 45.3773L18.9506 44.958V44.9599Z" fill="white"></path>
    <path d="M19.4582 43.9382C-2.78722 32.8886 1.43558 8.99306 1.48048 8.75116L1.59358 8.14656C1.62868 7.96516 1.78668 7.83056 1.97198 7.82866L2.58638 7.82086C14.1372 7.66286 19.0798 2.45696 19.1286 2.40236L19.6805 1.80546C19.8346 1.63776 20.0999 1.63776 20.254 1.80546L20.806 2.40236C20.8528 2.45106 25.8812 7.66476 37.3481 7.82086L37.9625 7.82866C38.1478 7.83056 38.3058 7.96316 38.3409 8.14656L38.4541 8.75116C38.4989 8.99116 42.7198 32.8886 20.4763 43.9382L20.1428 44.104C20.0336 44.1586 19.9048 44.1586 19.7956 44.104L19.4621 43.9382H19.4582Z" fill="#092A48"></path>
    <path d="M32.7438 31.7245C30.0852 35.9063 26.0458 39.8931 19.9661 42.9164C13.8844 39.8931 9.84689 35.9063 7.18839 31.7245C0.336287 20.9714 2.60079 8.96406 2.60079 8.96406C13.2037 8.81976 18.511 4.53846 19.7027 3.43636C19.851 3.29986 20.0792 3.29986 20.2294 3.43636C21.4211 4.53846 26.7284 8.81976 37.3313 8.96406C37.3313 8.96406 39.5958 20.9714 32.7457 31.7245H32.7438Z" fill="#FECD06"></path>
    <path d="M33.4344 30.582C33.2179 30.9585 32.9897 31.3349 32.7498 31.7114L7.18855 31.7231C6.94865 31.3466 6.72045 30.9643 6.49805 30.582H33.4344Z" fill="#898989"></path>
    <path d="M32.7449 31.7246C30.0863 35.9065 26.0468 39.8933 19.9672 42.9166C13.8855 39.8933 9.84795 35.9065 7.18945 31.7246H32.7449Z" fill="#13395F"></path>
    <path d="M19.9641 42.915C14.9026 40.2096 10.9294 36.5486 8.14802 32.0254C2.67692 23.135 3.25032 13.2928 3.59362 10.2637C12.5113 9.91654 17.6411 6.62804 19.7184 4.92714C19.8627 4.80814 20.0675 4.80814 20.2099 4.92714C22.2872 6.62804 27.417 9.91654 36.3327 10.2637C36.6721 13.2948 37.2377 23.1584 31.7783 32.0254C28.9988 36.5486 25.0237 40.2116 19.9622 42.9169L19.9641 42.915Z" fill="url(#paint0_linear_137_172)" style="mix-blend-mode:overlay"></path>
    <path fill-rule="evenodd" clip-rule="evenodd" d="M30.209 29.391C29.9418 29.3402 29.7175 29.2544 29.5498 29.1452C29.302 28.9736 29.0777 28.7453 28.8788 28.4547C28.6857 28.1641 28.5062 27.7994 28.3502 27.3644L20.9949 7.95703L18.2778 8.75083L11.6813 26.6856C11.2775 27.7759 10.8543 28.5054 10.4056 28.8819C9.96481 29.2583 9.32311 29.4631 8.50391 29.5041V30.5827H15.8105V29.5041H15.4691C14.6792 29.5041 14.096 29.3441 13.7156 29.036C13.3294 28.7161 13.1383 28.2324 13.1383 27.5692C13.1383 27.3527 13.1578 27.1362 13.1948 26.9255C13.2378 26.7149 13.2885 26.5198 13.3567 26.3443L14.5251 22.9153H23.2477L24.814 27.0504C24.9076 27.2961 24.9817 27.5126 25.0383 27.6999C25.0948 27.8988 25.1182 28.0373 25.1182 28.1212C25.1182 28.6225 24.9251 28.9716 24.5331 29.1823C24.1352 29.3929 23.4506 29.5021 22.4812 29.5021H22.251V30.5808H31.4281V29.5021C30.8819 29.4846 30.4821 29.4456 30.209 29.389V29.391ZM15.0439 21.5129L18.8864 11.0446L22.6665 21.5129H15.0439Z" fill="white"></path>
  </g>
  <defs>
    <linearGradient id="paint0_linear_137_172" x1="8.56152" y1="8.95494" x2="33.2138" y2="32.158" gradientUnits="userSpaceOnUse">
      <stop stop-color="white" stop-opacity="0.7"></stop>
      <stop offset="0.02" stop-color="white" stop-opacity="0.65"></stop>
      <stop offset="0.08" stop-color="white" stop-opacity="0.48"></stop>
      <stop offset="0.14" stop-color="white" stop-opacity="0.33"></stop>
      <stop offset="0.2" stop-color="white" stop-opacity="0.21"></stop>
      <stop offset="0.27" stop-color="white" stop-opacity="0.12"></stop>
      <stop offset="0.33" stop-color="white" stop-opacity="0.05"></stop>
      <stop offset="0.41" stop-color="white" stop-opacity="0.01"></stop>
      <stop offset="0.5" stop-color="white" stop-opacity="0"></stop>
      <stop offset="0.71" stop-color="white" stop-opacity="0"></stop>
      <stop offset="0.78" stop-color="white" stop-opacity="0.03"></stop>
      <stop offset="0.83" stop-color="white" stop-opacity="0.08"></stop>
      <stop offset="0.88" stop-color="white" stop-opacity="0.15"></stop>
      <stop offset="0.91" stop-color="white" stop-opacity="0.23"></stop>
      <stop offset="0.95" stop-color="white" stop-opacity="0.34"></stop>
      <stop offset="0.97" stop-color="white" stop-opacity="0.46"></stop>
      <stop offset="1" stop-color="white" stop-opacity="0.6"></stop>
    </linearGradient>
  </defs>
</svg>
