<svg width="56" height="56" viewBox="0 0 56 56" fill="none" xmlns="http://www.w3.org/2000/svg">
<rect width="56" height="56" fill="#E15919"/>
<g clip-path="url(#clip0_4003_25)">
<path d="M25.7165 5.00155C24.9011 5.02455 24.0958 5.41231 23.4223 6.15981C23.0521 6.57165 22.7377 7.06184 22.4771 7.5452C21.7979 8.81739 21.6642 10.2574 21.4127 11.6529L20.0284 19.4908C19.9752 19.7985 19.8372 19.9257 19.5612 20.0137L9.40235 23.2409C8.66204 23.4828 7.91993 23.7954 7.26515 24.2112C5.26774 25.4798 4.97234 27.5671 6.47201 29.3999C7.13398 30.2106 7.98713 30.781 8.93373 31.1953L15.2598 34.0139C15.3126 34.0426 15.3691 34.0613 15.4262 34.0721L16.762 35.036C16.762 35.036 15.4323 49.7516 17.9285 50.7697C17.9066 50.7662 17.7812 50.7403 17.7812 50.7403C17.7812 50.7403 18.0342 51.0138 18.7166 50.9333C19.2392 51.0303 19.1702 51.0145 18.7432 50.9297C19.6715 50.8096 21.38 50.0323 24.3416 47.0542C24.5595 46.8589 24.7723 46.6581 24.9798 46.4519L31.3767 39.5457L32.8728 40.0722C32.9267 40.1466 33.0047 40.1944 33.1294 40.2314L40.2533 42.3988C41.2268 42.6993 42.1899 42.9192 43.2278 42.7675C45.0807 42.4962 46.4446 40.9707 46.4262 39.1048C46.4191 38.2854 46.1316 37.5455 45.7542 36.8321L41.0363 27.8844C40.8861 27.6016 40.8908 27.4186 41.1068 27.1656L49.0324 17.8499C49.5456 17.2379 50.0089 16.5817 50.2777 15.8212C50.8681 14.143 50.1044 12.809 48.3622 12.483C47.5611 12.34 46.7712 12.4155 45.9903 12.6214L34.6351 15.6383C34.3009 15.7282 34.1356 15.6653 33.9541 15.3609L29.3182 7.65805C28.9678 7.07765 28.5491 6.5102 28.0686 6.03115C27.3574 5.31995 26.532 4.9789 25.7165 5.00155ZM26.0558 12.0942C26.2391 12.2228 26.3318 12.3554 26.4188 12.4985L31.4069 20.8108C31.5442 21.0365 31.6674 21.1163 31.9406 21.0437L40.7248 18.7088L42.8397 18.1554C42.8084 18.3326 42.7311 18.4393 42.6467 18.5392L35.4017 27.0463C35.1969 27.2936 35.1778 27.4668 35.332 27.7565L39.9115 36.439L40.1217 36.8835L40.1163 36.8907L31.9488 34.6396L31.9467 34.6331L30.4021 34.2L21.2405 44.3545L22.9163 31.0038L21.4127 30.3497L21.4155 30.3472L12.9077 26.9691C13.0709 26.8206 13.2168 26.7588 13.3695 26.7114L23.7112 23.4425C23.9542 23.367 24.0925 23.2736 24.1155 22.9962L24.2604 22.1498L25.6529 14.313L26.0558 12.0942Z" fill="white"/>
</g>
<defs>
<clipPath id="clip0_4003_25">
<rect width="46" height="46" fill="white" transform="translate(5 5)"/>
</clipPath>
</defs>
</svg>
