<?xml version="1.0" encoding="UTF-8"?>
<svg xmlns="http://www.w3.org/2000/svg" width="56" height="56" viewBox="0 0 56 56" fill="none">
  <path d="M11.2039 50.0814H44.7966C50.8945 45.1695 54.7974 37.6426 54.7974 29.2029C54.7974 14.4032 42.8 2.40576 28.0003 2.40576C13.2007 2.40576 1.20312 14.4032 1.20312 29.2029C1.20312 37.6426 5.10595 45.1695 11.2039 50.0814Z" fill="#FFC839"></path>
  <path d="M14.1571 21.7428L2.86416 28.7888C1.55374 29.6064 1.55374 31.5145 2.86416 32.332L14.1571 39.3781V21.7428Z" fill="#49B1F7"></path>
  <path d="M53.1362 28.7887L41.8433 21.7427V39.378L53.1362 32.3319C54.4467 31.5143 54.4467 29.6063 53.1362 28.7887Z" fill="#73C3F9"></path>
  <path d="M39.9223 0H22.8474C22.5661 0.263047 21.9885 0.907266 21.928 1.80709C21.8753 2.59262 22.2298 3.37236 22.9819 4.12431C24.178 5.32055 24.6614 21.9873 24.843 31.816C24.9893 39.7289 25.033 47.6003 25.0447 52.5956H41.0776C42.3852 51.8628 43.6292 51.0219 44.7966 50.0816V4.8743C44.7966 2.19341 42.6032 0 39.9223 0Z" fill="#3C58A0"></path>
  <path d="M25.2091 52.5955C25.1786 39.3557 24.9208 5.83122 23.0979 4.00827C20.8234 1.73381 23.0979 0 23.0979 0H16.0784C13.3975 0 11.2041 2.19341 11.2041 4.8743V50.0815C12.3718 51.0219 13.6162 51.8628 14.9243 52.5955H25.2091Z" fill="#2A428C"></path>
  <path d="M39.9222 2.95313H38.2283C37.8861 2.95312 37.549 3.03592 37.2457 3.19446C36.9425 3.353 36.6821 3.58257 36.4868 3.86356C36.2915 4.14452 36.0311 4.37405 35.7279 4.53257C35.4246 4.69109 35.0875 4.77388 34.7453 4.77389H22.655L23.0389 5.54269C22.8153 6.04395 21.6467 8.88048 22.5856 11.4644C23.0784 12.8205 24.0728 13.8679 25.5423 14.5795C25.3137 15.0744 24.6835 16.6515 25.2225 17.9922C25.522 18.737 26.1317 19.2794 27.0359 19.6054L27.8324 41.6513C27.4951 41.8446 26.3662 42.578 25.9948 43.9241C25.7104 44.9551 25.9421 46.0892 26.6832 47.2969C26.2578 47.7042 24.7055 49.3587 24.6119 51.8899C24.5628 53.2207 24.9262 54.5624 25.6954 55.9019C26.4619 55.9672 27.2309 56 28.0002 56C33.0659 56 37.803 54.5938 41.8433 52.1513V4.8743C41.8433 3.81762 40.9788 2.95313 39.9222 2.95313Z" fill="#DEEEFF"></path>
  <path d="M26.895 47.3255C24.4649 43.518 28.0004 41.7468 28.0004 41.7468L27.1961 19.4871C23.7436 18.3365 25.7628 14.5017 25.7628 14.5017C20.177 11.9409 23.2209 5.53952 23.2209 5.53952L22.8385 4.77389H21.2552C20.913 4.7739 20.5759 4.69111 20.2727 4.53259C19.9694 4.37407 19.7091 4.14453 19.5138 3.86356C19.3185 3.58257 19.0581 3.353 18.7548 3.19446C18.4516 3.03592 18.1145 2.95312 17.7723 2.95313H16.0784C15.0217 2.95313 14.1572 3.81762 14.1572 4.8743V52.1512C17.6326 54.2522 21.6238 55.5854 25.896 55.9174C22.8778 50.7892 26.895 47.3255 26.895 47.3255Z" fill="#BEC8F7"></path>
  <path d="M29.1054 13.7952C28.7738 13.5883 28.3909 13.4786 28.0001 13.4786C27.6092 13.4786 27.2263 13.5883 26.8947 13.7952L25.505 14.6623C25.2534 15.2323 24.7106 16.7185 25.2226 17.992C25.5221 18.7369 26.1318 19.2793 27.036 19.6052L27.8325 41.6512C27.4952 41.8444 26.3663 42.5779 25.9949 43.924C25.7234 44.9082 25.9233 45.9867 26.5868 47.1333L26.8947 47.3253C27.2263 47.5322 27.6092 47.6419 28.0001 47.6419C28.3909 47.6419 28.7738 47.5322 29.1054 47.3253L41.8432 39.3778V21.7426L29.1054 13.7952Z" fill="#73C3F9"></path>
  <path d="M28.0004 41.7468L27.1961 19.4871C23.7437 18.3366 25.7628 14.5017 25.7628 14.5017L14.1572 21.7427V39.378L26.895 47.3255C24.4649 43.518 28.0004 41.7468 28.0004 41.7468Z" fill="#49B1F7"></path>
  <path d="M23.2209 4.00827H21.2552C21.0366 4.00823 20.8212 3.95531 20.6274 3.85403C20.4337 3.75275 20.2673 3.60611 20.1424 3.42661C19.8766 3.04425 19.5222 2.73186 19.1095 2.5161C18.6968 2.30033 18.238 2.1876 17.7723 2.1875H16.0784C14.5969 2.1875 13.3916 3.3927 13.3916 4.8743V51.6694C13.8916 51.995 14.4023 52.3039 14.9229 52.5955V4.8743C14.9229 4.23708 15.4413 3.71875 16.0784 3.71875H17.7723C18.2159 3.71875 18.6319 3.93619 18.8852 4.30052C19.1511 4.68286 19.5055 4.99522 19.9182 5.21097C20.3309 5.42671 20.7896 5.53943 21.2553 5.53952H23.221C23.4241 5.5395 23.6188 5.45882 23.7624 5.31523C23.906 5.17164 23.9866 4.97689 23.9866 4.77384C23.9866 4.57078 23.9059 4.37605 23.7623 4.23247C23.6187 4.0889 23.424 4.00825 23.2209 4.00827Z" fill="#3C58A0"></path>
  <path d="M41.8433 28.8465C41.6403 28.8465 41.4455 28.9272 41.3019 29.0707C41.1584 29.2143 41.0777 29.4091 41.0777 29.6121V52.5955C41.5983 52.304 42.109 51.9951 42.609 51.6694V29.6121C42.609 29.4091 42.5283 29.2143 42.3847 29.0707C42.2411 28.9272 42.0464 28.8465 41.8433 28.8465ZM32.9141 5.53955H23.2207C23.0176 5.53955 22.8229 5.45889 22.6793 5.3153C22.5357 5.17172 22.4551 4.97698 22.4551 4.77393C22.4551 4.57087 22.5357 4.37613 22.6793 4.23255C22.8229 4.08896 23.0176 4.0083 23.2207 4.0083H32.9141C33.1171 4.0083 33.3119 4.08896 33.4554 4.23255C33.599 4.37613 33.6797 4.57087 33.6797 4.77393C33.6797 4.97698 33.599 5.17172 33.4554 5.3153C33.3119 5.45889 33.1171 5.53955 32.9141 5.53955Z" fill="#5071B3"></path>
  <path d="M41.8432 30.3777C41.6402 30.3777 41.4454 30.297 41.3018 30.1535C41.1583 30.0099 41.0776 29.8151 41.0776 29.6121V4.8743C41.0776 4.23708 40.5592 3.71875 39.922 3.71875H38.2282C38.0095 3.71879 37.7941 3.77172 37.6003 3.87302C37.4066 3.97432 37.2402 4.12099 37.1154 4.30052C36.8495 4.68286 36.4951 4.99522 36.0824 5.21097C35.6697 5.42671 35.2109 5.53943 34.7452 5.53952H32.9141C32.8135 5.53952 32.714 5.51971 32.6211 5.48124C32.5282 5.44276 32.4438 5.38636 32.3727 5.31527C32.3016 5.24417 32.2452 5.15977 32.2067 5.06688C32.1682 4.97399 32.1484 4.87443 32.1484 4.77389C32.1484 4.67335 32.1682 4.57379 32.2067 4.4809C32.2452 4.38801 32.3016 4.30361 32.3727 4.23251C32.4438 4.16142 32.5282 4.10502 32.6211 4.06655C32.714 4.02807 32.8135 4.00827 32.9141 4.00827H34.7452C35.1888 4.00827 35.6048 3.79083 35.8581 3.42661C36.1239 3.04424 36.4783 2.73185 36.891 2.51608C37.3037 2.30032 37.7625 2.18759 38.2282 2.1875H39.922C41.4035 2.1875 42.6088 3.39281 42.6088 4.8743V29.6121C42.6088 29.8151 42.5282 30.0099 42.3846 30.1535C42.241 30.297 42.0463 30.3777 41.8432 30.3777Z" fill="#6389C6"></path>
  <path d="M32.2272 27.7236C32.0903 28.1153 31.7881 29.0578 31.6122 30.202C31.3082 32.1812 31.5427 33.8046 32.2908 34.8972C33.0586 36.0185 34.3572 36.6105 36.1504 36.6616L36.4053 36.5026C36.624 36.3661 36.8045 36.1761 36.9296 35.9506C37.0547 35.7251 37.1203 35.4715 37.1204 35.2136V24.6757L31.9825 27.686C32.0633 27.6989 32.1448 27.7116 32.2272 27.7236Z" fill="#9181F2"></path>
  <path d="M36.4052 36.5026C28.9935 36.5026 32.4508 27.5891 32.4508 27.5891C32.3681 27.5781 32.2888 27.5656 32.2082 27.5537L27.7812 30.1473L28 41.7468L36.4052 36.5026Z" fill="#816AE2"></path>
  <path d="M18.88 24.6758L28.0002 30.1474V41.7468L19.595 36.5026C19.3762 36.3661 19.1958 36.1761 19.0707 35.9506C18.9455 35.7251 18.8799 35.4715 18.8799 35.2136V24.6758H18.88Z" fill="#FC90CE"></path>
  <path d="M26.3611 21.0827C25.9984 22.3839 26.0563 23.5922 26.5283 24.5771C27.3212 26.231 29.2381 27.2892 32.2273 27.7237C32.2266 27.7258 32.2258 27.728 32.225 27.7301L37.1203 24.6758L28.8043 19.4873C28.5631 19.3368 28.2845 19.257 28.0001 19.257C27.7158 19.257 27.4372 19.3368 27.1959 19.4873L26.9131 19.6637C26.683 20.1175 26.4981 20.5928 26.3611 21.0827Z" fill="#FFDD40"></path>
  <path d="M18.8799 24.6756L28.0001 30.3661L32.4509 27.5891C23.0584 26.3319 27.196 19.4872 27.196 19.4872L18.8799 24.6756Z" fill="#FFC839"></path>
  <path d="M52.0605 14.7371C51.3603 14.4831 50.8349 13.8971 50.655 13.1696C50.3761 12.0414 49.7308 10.4716 48.2396 9.40058C47.5874 8.93224 47.2073 8.36207 47.1102 7.70614C46.9898 6.89403 47.3281 6.12053 47.5708 5.69003C46.6764 5.39149 45.7396 5.2394 44.7967 5.23963C43.4264 5.2383 42.0751 5.55952 40.8521 6.1773L40.8986 6.189C40.836 6.82491 40.6988 9.33277 42.185 11.0418C43.0779 12.0686 44.3876 12.603 46.0793 12.6316L46.6572 17.0984C46.5637 17.3636 46.1099 18.8132 46.8723 20.0856C47.3093 20.8153 48.0595 21.338 49.1072 21.6488C51.5675 20.2574 53.2888 17.7131 53.536 14.7489C53.0648 14.9156 52.5511 14.915 52.0605 14.7371Z" fill="#9181F2"></path>
  <path d="M47.4119 5.63623C46.9762 6.41968 46.2945 8.20545 48.1441 9.53381C49.607 10.5845 50.2309 12.1364 50.496 13.209C50.8387 14.5959 52.2612 15.3245 53.5207 14.9264C53.552 14.6255 53.5681 14.3201 53.5681 14.0109C53.5681 10.0774 50.9788 6.7489 47.4119 5.63623Z" fill="#9D93F9"></path>
  <path d="M44.7966 22.7821C46.4452 22.7821 47.9871 22.3264 49.3046 21.5353C45.5084 20.5116 46.8251 17.1171 46.8251 17.1171L46.2235 12.4687C40.2164 12.4687 41.0674 6.14168 41.0776 6.06665C38.0931 7.46632 36.0254 10.4963 36.0254 14.0108C36.0254 18.855 39.9524 22.7821 44.7966 22.7821Z" fill="#816AE2"></path>
  <path d="M39.6827 17.5806C39.5685 17.5806 39.4561 17.5528 39.355 17.4996C39.2539 17.4465 39.1672 17.3696 39.1025 17.2755C39.0377 17.1815 38.9967 17.0731 38.9831 16.9598C38.9694 16.8464 38.9835 16.7314 39.0242 16.6247L41.1757 10.9757L41.182 10.9597C41.2444 10.8062 41.3512 10.6748 41.4887 10.5824C41.6262 10.49 41.7882 10.4408 41.9539 10.441H41.9544C42.12 10.4406 42.282 10.4896 42.4195 10.5818C42.5571 10.6739 42.664 10.805 42.7266 10.9583C42.7293 10.9646 42.7317 10.971 42.7342 10.9774L44.8661 16.6266C44.8988 16.7132 44.9141 16.8054 44.9112 16.8979C44.9082 16.9904 44.8871 17.0815 44.849 17.1658C44.8108 17.2502 44.7565 17.3262 44.689 17.3895C44.6215 17.4528 44.5421 17.5022 44.4555 17.5349C44.3689 17.5676 44.2767 17.5829 44.1842 17.58C44.0917 17.577 44.0007 17.5559 43.9163 17.5178C43.832 17.4796 43.756 17.4253 43.6927 17.3578C43.6293 17.2902 43.5799 17.2109 43.5473 17.1243L41.9522 12.8977L40.3417 17.1263C40.2909 17.2599 40.2006 17.3748 40.0829 17.456C39.9652 17.5371 39.8257 17.5806 39.6827 17.5806Z" fill="#DEEEFF"></path>
  <path d="M43.5463 16.1737H40.3537C40.1668 16.1737 39.9875 16.0994 39.8554 15.9672C39.7232 15.835 39.6489 15.6558 39.6489 15.4688C39.6489 15.2819 39.7232 15.1026 39.8554 14.9705C39.9875 14.8383 40.1668 14.764 40.3537 14.764H43.5463C43.7332 14.764 43.9125 14.8383 44.0447 14.9705C44.1768 15.1026 44.2511 15.2819 44.2511 15.4688C44.2511 15.6558 44.1768 15.835 44.0447 15.9672C43.9125 16.0994 43.7332 16.1737 43.5463 16.1737ZM49.692 17.5804C49.5918 17.5806 49.4927 17.5593 49.4014 17.5181C49.3101 17.4768 49.2287 17.4165 49.1626 17.3412L46.7558 14.6065C46.6323 14.4662 46.5696 14.2826 46.5815 14.096C46.5934 13.9095 46.6789 13.7353 46.8192 13.6118C46.9595 13.4883 47.1432 13.4256 47.3297 13.4375C47.5163 13.4494 47.6905 13.5349 47.814 13.6752L50.2208 16.4099C50.3104 16.5117 50.3688 16.6371 50.3889 16.7712C50.409 16.9053 50.39 17.0423 50.3342 17.1659C50.2784 17.2894 50.1881 17.3943 50.0742 17.4678C49.9603 17.5413 49.8275 17.5805 49.692 17.5804Z" fill="#DEEEFF"></path>
  <path d="M46.594 17.5804C46.407 17.5804 46.2278 17.5061 46.0956 17.374C45.9634 17.2418 45.8892 17.0625 45.8892 16.8756V11.1459C45.8924 10.9611 45.9681 10.785 46.0999 10.6555C46.2317 10.5259 46.4092 10.4534 46.594 10.4534C46.7788 10.4534 46.9562 10.5259 47.088 10.6555C47.2198 10.785 47.2955 10.9611 47.2988 11.1459V16.8756C47.2988 17.0625 47.2245 17.2418 47.0924 17.374C46.9602 17.5061 46.7809 17.5804 46.594 17.5804Z" fill="#DEEEFF"></path>
  <path d="M46.6065 14.8354C46.4204 14.8354 46.2418 14.7618 46.1097 14.6306C45.9777 14.4993 45.9029 14.3212 45.9017 14.1351C45.9017 14.1351 45.8949 13.0507 45.8949 12.635C45.8949 12.2951 45.8911 11.1483 45.8911 11.1483C45.8908 11.0555 45.9088 10.9636 45.9441 10.8778C45.9794 10.792 46.0313 10.7141 46.0967 10.6484C46.1622 10.5827 46.24 10.5305 46.3257 10.4949C46.4113 10.4594 46.5032 10.4411 46.5959 10.441H48.1185C49.3747 10.441 50.3967 11.4252 50.3967 12.6349C50.3967 13.8446 49.3747 14.8288 48.1185 14.8288C47.6971 14.8288 46.6108 14.8354 46.6108 14.8354H46.6065ZM47.303 11.8508C47.3039 12.1567 47.3047 12.4797 47.3047 12.635C47.3047 12.8176 47.306 13.1301 47.3075 13.4221C47.6066 13.4206 47.9293 13.4193 48.1186 13.4193C48.5895 13.4193 48.9872 13.0602 48.9872 12.6351C48.9872 12.2101 48.5895 11.8509 48.1186 11.8509L47.303 11.8508Z" fill="#DEEEFF"></path>
  <path d="M48.4976 46.4612C51.1338 43.3341 53.0663 39.5953 54.054 35.4883C50.5422 36.6175 44.9617 39.5696 48.4976 46.4612ZM7.50279 46.4612C4.86663 43.3341 2.93409 39.5953 1.94643 35.4883C5.45824 36.6175 11.0388 39.5696 7.50279 46.4612ZM7.49787 11.9497C4.32884 15.7116 2.17688 20.3573 1.46387 25.4646C5.38966 24.0576 11.0016 20.6803 7.49787 11.9497Z" fill="#FFDD40"></path>
</svg>
