<svg width="30" height="30" viewBox="0 0 30 30" fill="none" xmlns="http://www.w3.org/2000/svg">
<g clip-path="url(#clip0_2005_737)">
<path d="M2.71198 9.11996V20.88C2.71198 21.636 3.10798 22.32 3.76798 22.704L13.956 28.584C14.604 28.956 15.408 28.956 16.056 28.584L26.244 22.704C26.892 22.332 27.3 21.636 27.3 20.88V9.11996C27.3 8.36396 26.904 7.67996 26.244 7.29596L16.056 1.41596C15.408 1.04396 14.604 1.04396 13.956 1.41596L3.76798 7.29596C3.11998 7.66796 2.72398 8.36396 2.72398 9.11996H2.71198Z" fill="#213147"/>
<path d="M17.22 17.28L15.768 21.264C15.732 21.372 15.732 21.492 15.768 21.612L18.264 28.464L21.156 26.796L17.688 17.28C17.604 17.064 17.304 17.064 17.22 17.28Z" fill="#12AAFF"/>
<path d="M20.136 10.584C20.052 10.368 19.752 10.368 19.668 10.584L18.216 14.568C18.18 14.676 18.18 14.796 18.216 14.916L22.308 26.136L25.2 24.468L20.136 10.596V10.584Z" fill="#12AAFF"/>
<path d="M15 1.86C15.072 1.86 15.144 1.884 15.204 1.92L26.22 8.28C26.352 8.352 26.424 8.496 26.424 8.64V21.36C26.424 21.504 26.34 21.648 26.22 21.72L15.204 28.08C15.144 28.116 15.072 28.14 15 28.14C14.928 28.14 14.856 28.116 14.796 28.08L3.77998 21.72C3.64798 21.648 3.57598 21.504 3.57598 21.36V8.628C3.57598 8.484 3.65998 8.34 3.77998 8.268L14.796 1.908C14.856 1.872 14.928 1.848 15 1.848V1.86ZM15 0C14.604 0 14.22 0.096 13.86 0.3L2.84398 6.66C2.13598 7.068 1.70398 7.812 1.70398 8.628V21.348C1.70398 22.164 2.13598 22.908 2.84398 23.316L13.86 29.676C14.208 29.88 14.604 29.976 15 29.976C15.396 29.976 15.78 29.88 16.14 29.676L27.156 23.316C27.864 22.908 28.296 22.164 28.296 21.348V8.628C28.296 7.812 27.864 7.068 27.156 6.66L16.128 0.3C15.78 0.096 15.384 0 14.988 0H15Z" fill="#9DCCED"/>
<path d="M7.70398 26.148L8.72398 23.364L10.764 25.056L8.85598 26.808L7.70398 26.148Z" fill="#213147"/>
<path d="M14.064 7.72794H11.268C11.064 7.72794 10.872 7.85994 10.8 8.05194L4.81195 24.4679L7.70395 26.1359L14.304 8.05194C14.364 7.88394 14.244 7.71594 14.076 7.71594L14.064 7.72794Z" fill="white"/>
<path d="M18.96 7.72794H16.164C15.96 7.72794 15.768 7.85994 15.696 8.05194L8.85596 26.7959L11.748 28.4639L19.188 8.05194C19.248 7.88394 19.128 7.71594 18.96 7.71594V7.72794Z" fill="white"/>
</g>
<defs>
<clipPath id="clip0_2005_737">
<rect width="30" height="30" fill="white"/>
</clipPath>
</defs>
</svg>
