<svg width="30" height="30" viewBox="0 0 30 30" fill="none" xmlns="http://www.w3.org/2000/svg">
<g clip-path="url(#clip0_2006_2)">
<path d="M24 0.75H6C3.10051 0.75 0.75 3.10051 0.75 6V24C0.75 26.8995 3.10051 29.25 6 29.25H24C26.8995 29.25 29.25 26.8995 29.25 24V6C29.25 3.10051 26.8995 0.75 24 0.75Z" fill="white"/>
<path d="M24 0.75H6C3.10051 0.75 0.75 3.10051 0.75 6V24C0.75 26.8995 3.10051 29.25 6 29.25H24C26.8995 29.25 29.25 26.8995 29.25 24V6C29.25 3.10051 26.8995 0.75 24 0.75Z" stroke="#E1E1E1"/>
<path d="M21.8291 9.97681L15.6705 6.19075C15.2569 5.93641 14.7431 5.93641 14.3295 6.19075L8.17049 9.97681C7.75689 10.2312 7.5 10.7048 7.5 11.2135V18.786C7.5 19.2948 7.75689 19.7684 8.17049 20.0228L14.3295 23.8092C14.5363 23.9364 14.768 24 15 24C15.232 24 15.4636 23.9364 15.6705 23.8092L21.8295 20.0228C22.2431 19.7684 22.5 19.2948 22.5 18.786V11.2135C22.5 10.7048 22.2426 10.2312 21.8291 9.97681ZM15.1338 22.8192C15.0513 22.8701 14.9487 22.8701 14.8661 22.8192L8.70712 19.0332C8.62457 18.9823 8.57326 18.8877 8.57326 18.786V13.3199H15C15.4104 13.3199 15.7851 13.4876 16.066 13.7629C16.3803 14.0701 16.5779 14.511 16.5779 15C16.5779 15.489 16.3803 15.9298 16.066 16.2372H17.3822C17.5541 15.8632 17.6507 15.4434 17.6507 15C17.6507 14.5566 17.5541 14.1367 17.3822 13.7629C17.3105 13.6067 17.2254 13.4586 17.1285 13.3199C16.6452 12.6269 15.8709 12.1771 14.9996 12.1771H8.57326V11.7346H15C16.1142 11.7346 17.0916 12.3708 17.6286 13.3199C17.7084 13.4607 17.7786 13.6088 17.8379 13.7629C17.9853 14.1444 18.0668 14.5626 18.0668 15C18.0668 15.4374 17.9853 15.8551 17.8379 16.2372H18.9753C19.0839 15.8403 19.1395 15.4247 19.1395 15C19.1395 13.8226 18.7091 12.7157 17.9272 11.8831C17.1453 11.0505 16.1056 10.5922 15 10.5922H9.3167L14.8661 7.18036C14.9074 7.15519 14.9535 7.14238 15 7.14238C15.0465 7.14238 15.0925 7.15519 15.1338 7.18036L21.2929 10.9664C21.3755 11.0172 21.4268 11.112 21.4268 11.2135V16.6797H15C14.5896 16.6797 14.2149 16.512 13.9339 16.2367C13.6197 15.9294 13.4222 15.4885 13.4222 14.9996C13.4222 14.5105 13.6197 14.0697 13.9339 13.7624H12.6178C12.4459 14.1363 12.3493 14.5562 12.3493 14.9996C12.3493 16.5559 13.5384 17.8221 15 17.8221H21.4268V18.265H15C13.3092 18.265 11.9333 16.8 11.9333 14.9996C11.9333 14.5622 12.0147 14.1444 12.1617 13.7624H11.0244C10.9158 14.1593 10.8597 14.575 10.8597 14.9996C10.8597 16.1769 11.2901 17.2839 12.072 18.1165C12.8539 18.949 13.8935 19.4078 14.9992 19.4078H20.6821L15.1338 22.8192Z" fill="#12AAFF"/>
</g>
<defs>
<clipPath id="clip0_2006_2">
<rect width="30" height="30" fill="white"/>
</clipPath>
</defs>
</svg>
