<svg width="30" height="30" viewBox="0 0 30 30" fill="none" xmlns="http://www.w3.org/2000/svg">
<path d="M11.555 7.125H9.495C9.42465 7.12516 9.35612 7.14729 9.29897 7.1883C9.24182 7.22931 9.19891 7.28716 9.17625 7.35375L3.76 22.6413C3.75071 22.6673 3.74772 22.6951 3.75127 22.7225C3.75481 22.7499 3.7648 22.7761 3.78041 22.7989C3.79602 22.8217 3.8168 22.8405 3.84106 22.8537C3.86533 22.8669 3.89237 22.8742 3.92 22.875H5.98C6.05034 22.8748 6.11888 22.8527 6.17603 22.8117C6.23317 22.7707 6.27608 22.7128 6.29875 22.6463L11.715 7.35875C11.7243 7.33273 11.7273 7.30487 11.7237 7.27747C11.7202 7.25006 11.7102 7.22389 11.6946 7.20109C11.679 7.17828 11.6582 7.1595 11.6339 7.14628C11.6097 7.13305 11.5826 7.12576 11.555 7.125ZM14.0612 13.53C14.0501 13.4968 14.0287 13.4679 14.0002 13.4474C13.9718 13.4269 13.9376 13.4159 13.9025 13.4159C13.8674 13.4159 13.8332 13.4269 13.8048 13.4474C13.7763 13.4679 13.7549 13.4968 13.7437 13.53L12.675 16.5463C12.6493 16.6233 12.6493 16.7067 12.675 16.7838L14.7525 22.6463C14.7751 22.7126 14.8178 22.7703 14.8747 22.8113C14.9316 22.8523 14.9999 22.8746 15.07 22.875H17.1312C17.2487 22.875 17.3312 22.755 17.29 22.6413L14.0612 13.53ZM19.315 16.4813C19.3259 16.5149 19.3472 16.5443 19.3758 16.5652C19.4045 16.586 19.439 16.5972 19.4744 16.5972C19.5098 16.5972 19.5443 16.586 19.5729 16.5652C19.6016 16.5443 19.6229 16.5149 19.6337 16.4813L22.865 7.35875C22.8743 7.33282 22.8773 7.30508 22.8738 7.27777C22.8703 7.25046 22.8604 7.22435 22.845 7.20158C22.8295 7.1788 22.8089 7.16 22.7848 7.14669C22.7607 7.13338 22.7338 7.12595 22.7062 7.125H20.6462C20.5759 7.12516 20.5074 7.14729 20.4502 7.1883C20.3931 7.22931 20.3502 7.28716 20.3275 7.35375L18.2462 13.2275C18.2205 13.3046 18.2205 13.3879 18.2462 13.465L19.315 16.4813ZM15.2525 7.3525C15.2298 7.28654 15.1871 7.22925 15.1305 7.18851C15.0739 7.14777 15.006 7.12558 14.9362 7.125H12.8687C12.7986 7.12542 12.7304 7.14767 12.6735 7.18866C12.6166 7.22966 12.5738 7.28736 12.5512 7.35375L7.135 22.6413C7.12574 22.6672 7.12273 22.6949 7.12621 22.7222C7.12969 22.7495 7.13957 22.7756 7.15503 22.7984C7.1705 22.8212 7.19112 22.84 7.21523 22.8533C7.23933 22.8666 7.26623 22.874 7.29375 22.875H9.35375C9.42409 22.8748 9.49263 22.8527 9.54978 22.8117C9.60692 22.7707 9.64983 22.7128 9.6725 22.6463L13.82 10.9413C13.8256 10.9246 13.8363 10.9102 13.8505 10.9C13.8647 10.8897 13.8818 10.8842 13.8994 10.8842C13.9169 10.8842 13.934 10.8897 13.9482 10.9C13.9625 10.9102 13.9732 10.9246 13.9787 10.9413L18.1262 22.6463C18.1489 22.7128 18.1918 22.7707 18.249 22.8117C18.3061 22.8527 18.3747 22.8748 18.445 22.875H20.505C20.6225 22.875 20.705 22.755 20.6637 22.6413L15.2525 7.3525ZM26.08 7.125H24.02C23.9497 7.12516 23.8811 7.14729 23.824 7.1883C23.7668 7.22931 23.7239 7.28716 23.7012 7.35375L19.9337 17.9888C19.908 18.0658 19.908 18.1492 19.9337 18.2263L21.0025 21.2425C21.0137 21.2757 21.035 21.3046 21.0635 21.3251C21.092 21.3456 21.1262 21.3566 21.1612 21.3566C21.1963 21.3566 21.2305 21.3456 21.259 21.3251C21.2875 21.3046 21.3088 21.2757 21.32 21.2425L25.05 10.7163L26.24 7.35875C26.2493 7.33273 26.2523 7.30487 26.2487 7.27747C26.2452 7.25006 26.2352 7.22389 26.2196 7.20109C26.204 7.17828 26.1832 7.1595 26.1589 7.14628C26.1347 7.13305 26.1076 7.12576 26.08 7.125Z" fill="#EF8220"/>
</svg>
