<?xml version="1.0" encoding="UTF-8"?>
<svg xmlns="http://www.w3.org/2000/svg" width="24" height="24" viewBox="0 0 24 24" fill="none">
  <path d="M2.97 12.92C2.67476 13.0974 2.43033 13.348 2.26039 13.6476C2.09045 13.9472 2.00075 14.2856 2 14.63V17.87C2.00075 18.2144 2.09045 18.5528 2.26039 18.8524C2.43033 19.152 2.67476 19.4026 2.97 19.58L5.97 21.38C6.28106 21.5669 6.63711 21.6656 7 21.6656C7.36289 21.6656 7.71894 21.5669 8.03 21.38L12 19V13.5L7 10.5L2.97 12.92Z" stroke="#3B82F6" stroke-width="1.5" stroke-linecap="round" stroke-linejoin="round"></path>
  <path d="M7.00001 16.5004L2.26001 13.6504" stroke="#3B82F6" stroke-width="1.5" stroke-linecap="round" stroke-linejoin="round"></path>
  <path d="M7 16.5L12 13.5" stroke="#3B82F6" stroke-width="1.5" stroke-linecap="round" stroke-linejoin="round"></path>
  <path d="M7 16.5V21.67" stroke="#3B82F6" stroke-width="1.5" stroke-linecap="round" stroke-linejoin="round"></path>
  <path d="M12 13.5V19L15.97 21.38C16.2811 21.5669 16.6371 21.6656 17 21.6656C17.3629 21.6656 17.7189 21.5669 18.03 21.38L21.03 19.58C21.3252 19.4026 21.5697 19.152 21.7396 18.8524C21.9096 18.5528 21.9992 18.2144 22 17.87V14.63C21.9992 14.2856 21.9096 13.9472 21.7396 13.6476C21.5697 13.348 21.3252 13.0974 21.03 12.92L17 10.5L12 13.5Z" stroke="#3B82F6" stroke-width="1.5" stroke-linecap="round" stroke-linejoin="round"></path>
  <path d="M17 16.5L12 13.5" stroke="#3B82F6" stroke-width="1.5" stroke-linecap="round" stroke-linejoin="round"></path>
  <path d="M17 16.5004L21.74 13.6504" stroke="#3B82F6" stroke-width="1.5" stroke-linecap="round" stroke-linejoin="round"></path>
  <path d="M17 16.5V21.67" stroke="#3B82F6" stroke-width="1.5" stroke-linecap="round" stroke-linejoin="round"></path>
  <path d="M7.97 4.4196C7.67476 4.59698 7.43033 4.84761 7.26039 5.14719C7.09045 5.44678 7.00075 5.78518 7 6.1296V10.4996L12 13.4996L17 10.4996V6.1296C16.9992 5.78518 16.9096 5.44678 16.7396 5.14719C16.5697 4.84761 16.3252 4.59698 16.03 4.4196L13.03 2.6196C12.7189 2.43272 12.3629 2.33398 12 2.33398C11.6371 2.33398 11.2811 2.43272 10.97 2.6196L7.97 4.4196Z" stroke="#3B82F6" stroke-width="1.5" stroke-linecap="round" stroke-linejoin="round"></path>
  <path d="M12 8.00039L7.26001 5.15039" stroke="#3B82F6" stroke-width="1.5" stroke-linecap="round" stroke-linejoin="round"></path>
  <path d="M12 8.00039L16.74 5.15039" stroke="#3B82F6" stroke-width="1.5" stroke-linecap="round" stroke-linejoin="round"></path>
  <path d="M12 13.5V8" stroke="#3B82F6" stroke-width="1.5" stroke-linecap="round" stroke-linejoin="round"></path>
</svg>
