<svg width="56" height="52" viewBox="0 0 56 52" fill="none" xmlns="http://www.w3.org/2000/svg">
<path d="M35.2071 0.439453H20.7929C20.2978 0.439453 19.9127 0.852073 19.9127 1.34722C19.6101 15.3212 12.5405 28.5801 0.354534 37.9603C-0.0305772 38.2629 -0.113102 38.813 0.161977 39.2256L8.60691 51.2466C8.88199 51.6592 9.45966 51.7417 9.84477 51.4391C17.4645 45.6075 23.5987 38.5654 28 30.7807C32.4013 38.593 38.5355 45.6075 46.1552 51.4391C46.5403 51.7417 47.118 51.6592 47.3931 51.2466L55.838 39.2256C56.1131 38.813 56.0306 38.2629 55.6455 37.9603C43.4595 28.5801 36.3899 15.3212 36.0873 1.34722C36.0873 0.824565 35.7022 0.439453 35.2071 0.439453Z" fill="#FF875B"/>
</svg>
