<svg width="56" height="56" viewBox="0 0 56 56" fill="none" xmlns="http://www.w3.org/2000/svg">
<g clip-path="url(#clip0_4006_855)">
<path d="M28 53.8869C42.2969 53.8869 53.8868 42.297 53.8868 28.0001C53.8868 13.7032 42.2969 2.11328 28 2.11328C13.7031 2.11328 2.11322 13.7032 2.11322 28.0001C2.11322 42.297 13.7031 53.8869 28 53.8869Z" stroke="#222326" stroke-width="2.5"/>
<path d="M32.9308 37.3334C32.7547 37.1573 32.7547 36.8051 32.5786 36.4529C32.5786 36.1007 32.4025 35.7485 32.4025 35.3963C32.0503 35.7485 31.6981 35.9246 31.3459 36.2768C30.9937 36.629 30.4654 36.8051 30.1132 36.9812C29.5849 37.1573 29.2327 37.3334 28.5283 37.5095C28 37.6856 27.2956 37.6856 26.7673 37.6856C25.7107 37.6856 24.8302 37.5095 23.9497 37.1573C23.0692 36.8051 22.3648 36.4529 21.6604 35.9246C20.956 35.3963 20.6038 34.6919 20.2516 33.9875C19.8994 33.2831 19.7233 32.4026 19.7233 31.5221C19.7233 29.4089 20.6038 27.6479 22.1887 26.5913C23.7736 25.3586 26.239 24.8303 29.4088 24.8303H32.4025V23.5976C32.4025 22.541 32.0503 21.8366 31.522 21.3083C30.8176 20.78 29.9371 20.4278 28.7044 20.4278C27.6478 20.4278 26.9434 20.6039 26.4151 21.1322C25.8868 21.6605 25.7107 22.1888 25.7107 22.8932H20.4277C20.4277 22.0127 20.6038 21.1322 20.956 20.4278C21.3082 19.7234 21.8365 19.0189 22.717 18.3145C23.4214 17.7862 24.3019 17.2579 25.3585 16.9057C26.4151 16.5535 27.6478 16.3774 29.0566 16.3774C30.2893 16.3774 31.3459 16.5535 32.4025 16.9057C33.4591 17.2579 34.3396 17.6101 35.2201 18.3145C35.9245 18.8428 36.6289 19.7234 36.9811 20.6039C37.3333 21.4844 37.6855 22.541 37.6855 23.7737V32.5787C37.6855 33.6353 37.6855 34.5158 37.8616 35.2202C38.0377 35.9246 38.2138 36.629 38.3899 36.9812V37.3334H32.9308ZM27.8239 33.6353C28.3522 33.6353 28.8805 33.6353 29.2327 33.4592C29.761 33.2831 30.1132 33.107 30.4654 32.9309C30.8176 32.7548 31.1698 32.5787 31.3459 32.2265C31.522 32.0504 31.8742 31.6982 32.0503 31.5221V28.0001H29.4088C28.5283 28.0001 27.8239 28.0001 27.2956 28.1762C26.7673 28.3523 26.239 28.5284 25.8868 28.8806C25.5346 29.2328 25.1824 29.4089 25.0063 29.9372C24.8302 30.2894 24.8302 30.8177 24.8302 31.1699C24.8302 31.8743 25.0063 32.4026 25.5346 32.9309C26.0629 33.4592 26.9434 33.6353 27.8239 33.6353Z" fill="#222326"/>
</g>
<defs>
<clipPath id="clip0_4006_855">
<rect width="56" height="56" fill="white"/>
</clipPath>
</defs>
</svg>
