<?xml version="1.0" encoding="UTF-8"?>
<svg xmlns="http://www.w3.org/2000/svg" width="22" height="22" viewBox="0 0 22 22" fill="none">
  <path d="M4.68869 21.9995C4.55847 21.9476 4.43636 21.9122 4.31734 21.8343C4.03565 21.6499 3.88952 21.3565 3.88493 21.0221C3.88082 20.7226 3.88391 20.4209 3.88417 20.1204L3.8842 18.397L3.88412 13.0818L3.8841 6.97015L3.88411 4.94357C3.88411 4.58874 3.88268 4.23218 3.88598 3.87731C3.8871 3.75614 3.91468 3.62099 3.96093 3.50888C4.05636 3.27312 4.24221 3.08538 4.47701 2.98757C4.56213 2.95333 4.65138 2.93048 4.74249 2.91963C4.89215 2.90083 5.09858 2.90552 5.25411 2.90654C5.43911 2.90774 5.64325 2.90444 5.82643 2.91398L5.82566 3.78671C5.82566 4.12205 5.80324 4.45208 5.92976 4.77026C6.21419 5.48555 6.80041 5.82073 7.54765 5.82173L12.5809 5.8206L13.9375 5.82106C14.6213 5.82179 15.1753 5.88074 15.7052 5.34421C16.1539 4.88988 16.1794 4.47005 16.1793 3.87117L16.1785 3.17384L16.1781 2.91158C16.3819 2.90728 16.5856 2.9056 16.7895 2.90656C17.0776 2.9065 17.3509 2.88717 17.6128 3.03199C17.9335 3.20935 18.1154 3.52182 18.1174 3.88869C18.1196 4.30803 18.1185 4.72965 18.1185 5.15013L18.1186 7.58973L18.1188 14.9314L18.1184 19.1053L18.1192 20.3912C18.1194 20.6246 18.1249 20.8772 18.1119 21.1078C18.0996 21.3252 17.9993 21.5408 17.8495 21.6959C17.7536 21.7949 17.62 21.8944 17.4869 21.9374C17.4435 21.9513 17.3543 21.9774 17.3179 21.9995H4.68869ZM15.248 10.3441C15.5766 10.2684 15.5274 10.004 15.5302 9.739C15.5334 9.42412 15.5807 9.05372 15.1508 9.06475C14.8683 9.06216 14.5852 9.06134 14.3047 9.06133L12.7469 9.06144L11.5898 9.0617C11.399 9.06174 11.1142 9.0538 10.9316 9.07001C10.8417 9.0961 10.7666 9.14153 10.7216 9.22672C10.6581 9.34702 10.6584 9.98774 10.7022 10.1251C10.7278 10.2053 10.774 10.2759 10.8524 10.312C10.9124 10.3397 10.9779 10.347 11.0432 10.3495C11.3413 10.3611 11.6429 10.3521 11.9414 10.352L13.624 10.3514L14.6722 10.3518C14.8194 10.352 15.1091 10.3597 15.248 10.3441ZM8.84194 8.42441C8.61715 8.51443 8.00341 9.22351 7.76249 9.4338C7.44465 9.11903 7.28206 8.84955 6.87526 9.29901C6.73193 9.45737 6.35661 9.71094 6.51304 9.98598C6.70347 10.2356 7.01804 10.5104 7.24266 10.7418C7.40238 10.8995 7.5317 10.9922 7.76736 10.9954C8.06033 10.9993 8.21757 10.8146 8.40859 10.6231C8.79122 10.2393 9.17838 9.8555 9.55991 9.47036C9.8831 9.14781 9.6087 8.95448 9.3647 8.71643C9.21961 8.57487 9.12151 8.41002 8.89353 8.42105C8.87632 8.42192 8.85912 8.42304 8.84194 8.42441ZM8.82269 12.6353C8.62268 12.7336 8.16532 13.2655 7.97467 13.4356C7.91039 13.4928 7.83783 13.5843 7.75817 13.6404C7.42224 13.2867 7.27267 13.0752 6.86574 13.5141C6.61355 13.786 6.25148 13.9951 6.65941 14.3668C6.84145 14.5419 7.06676 14.7639 7.24395 14.9485C7.40829 15.1114 7.52944 15.1957 7.76887 15.2008C8.06639 15.2073 8.2273 15.0079 8.42211 14.8164C8.80293 14.4366 9.18412 14.0548 9.56365 13.6741C9.88848 13.3483 9.59556 13.1525 9.35834 12.9187C9.1697 12.733 9.12278 12.6011 8.82269 12.6353ZM7.76114 17.8484C7.63568 17.7174 7.45961 17.4802 7.26139 17.4799C7.00677 17.4795 6.8196 17.7991 6.63565 17.9518C6.55022 18.0227 6.46941 18.1552 6.47758 18.2671C6.4851 18.4399 6.6697 18.5792 6.78308 18.6957C6.93444 18.8511 7.09379 18.9994 7.24392 19.1563C7.4485 19.3554 7.63214 19.4526 7.92757 19.3866C8.13055 19.3412 8.26756 19.1706 8.41142 19.0336C8.79371 18.6517 9.1772 18.2674 9.5589 17.8853C9.88783 17.556 9.6014 17.3617 9.35863 17.1244C9.18301 16.9527 9.13751 16.8235 8.8602 16.8376C8.72211 16.8626 8.56758 17.0461 8.46755 17.1464L8.02076 17.5951C7.9477 17.6685 7.83834 17.7845 7.76114 17.8484ZM11.1006 17.4821C11.0445 17.4825 10.9626 17.4811 10.9057 17.4955C10.5581 17.5835 10.7141 18.145 10.6808 18.4074C10.661 18.5636 10.8094 18.7584 10.9679 18.7551C11.1324 18.7704 11.3055 18.7644 11.4712 18.7641L12.3173 18.7627L15.1407 18.7631C15.6621 18.7352 15.5045 18.3265 15.5297 17.9589C15.5453 17.7301 15.5002 17.4868 15.218 17.4837C15.0352 17.4767 14.8472 17.479 14.6614 17.479L13.5906 17.4795H11.9817C11.6969 17.4795 11.3836 17.4731 11.1006 17.4821ZM11.1301 13.2712C11.0177 13.2731 10.8478 13.2701 10.7688 13.3659C10.6186 13.5481 10.6989 13.955 10.6805 14.1832C10.6661 14.3625 10.7915 14.541 10.9671 14.5489C11.1186 14.562 11.2782 14.5565 11.4313 14.5563L12.2572 14.5553L15.0897 14.5554C15.1977 14.5559 15.3518 14.555 15.4334 14.46C15.6064 14.2494 15.502 13.8766 15.5295 13.6205C15.5379 13.5414 15.4786 13.3756 15.4158 13.339C15.2378 13.2356 14.7915 13.2695 14.5989 13.2696H13.5538H11.9695C11.6987 13.2696 11.3982 13.2636 11.1301 13.2712Z" fill="white"></path>
  <path d="M10.7021 0H11.2838C11.3681 0.0333373 11.4997 0.0463271 11.5924 0.070951C11.8778 0.146851 12.1464 0.279622 12.3785 0.460929C12.6065 0.640621 12.7992 0.860938 12.9469 1.11075C12.9755 1.1583 13.0363 1.2795 13.09 1.28404C13.4214 1.31201 13.782 1.28204 14.1138 1.29284C14.4144 1.30263 14.726 1.23966 14.9732 1.44649C15.2579 1.68478 15.2087 2.04679 15.2078 2.38006L15.2062 3.15772L15.208 3.83105C15.2085 3.97229 15.2152 4.18058 15.1911 4.31495C15.1701 4.4354 15.1162 4.54765 15.0352 4.6392C14.9198 4.7669 14.7585 4.84356 14.5866 4.85232C14.4251 4.86168 14.2223 4.85664 14.0579 4.85657L13.131 4.85605L10.2859 4.85597L8.33751 4.85616L7.75227 4.85741C7.478 4.85793 7.22552 4.88455 7.00393 4.6846C6.72916 4.43665 6.79106 4.05196 6.79127 3.70834L6.79208 2.80257L6.79134 2.24313C6.79073 1.83243 6.80017 1.40096 7.33442 1.30617C7.5103 1.27497 7.74546 1.29287 7.92849 1.29305C8.26653 1.29456 8.60459 1.29419 8.94264 1.29193C9.23324 0.747196 9.64785 0.321456 10.2409 0.118743C10.39 0.067747 10.5638 0.052357 10.7021 0Z" fill="white"></path>
</svg>
