<?xml version="1.0" encoding="UTF-8"?>
<svg xmlns="http://www.w3.org/2000/svg" width="30" height="30" viewBox="0 0 30 30" fill="none">
  <path d="M30 0H0V30H30V0Z" fill="url(#paint0_linear_2004_14)"></path>
  <path fill-rule="evenodd" clip-rule="evenodd" d="M20.2628 9.76259C20.2628 9.97259 20.0917 10.1436 19.8814 10.1436C19.6717 10.1436 19.5007 9.97259 19.5007 9.76259C19.5007 9.55259 19.6717 9.3816 19.8814 9.3816C20.0917 9.3816 20.2628 9.55259 20.2628 9.76259ZM18.0007 13.5002C18.0007 13.2935 18.1687 13.1252 18.3757 13.1252C18.5827 13.1252 18.7507 13.2935 18.7507 13.5002C18.7507 13.7068 18.5827 13.8752 18.3757 13.8752C18.1687 13.8752 18.0007 13.7068 18.0007 13.5002ZM18.0007 20.6251C18.0007 20.4184 18.1687 20.2501 18.3757 20.2501C18.5827 20.2501 18.7507 20.4184 18.7507 20.6251C18.7507 20.8317 18.5827 21.0001 18.3757 21.0001C18.1687 21.0001 18.0007 20.8317 18.0007 20.6251ZM21.7507 15.7501C21.7507 15.9568 21.5828 16.1251 21.3757 16.1251C21.1687 16.1251 21.0007 15.9568 21.0007 15.7501C21.0007 15.5435 21.1687 15.3751 21.3757 15.3751C21.5828 15.3751 21.7507 15.5435 21.7507 15.7501ZM24.375 16.9771L22.4861 15.8934C22.4921 15.8461 22.5007 15.7993 22.5007 15.7501C22.5007 15.1299 21.996 14.6251 21.3757 14.6251C20.7551 14.6251 20.2507 15.1299 20.2507 15.7501C20.2507 16.3704 20.7551 16.8751 21.3757 16.8751C21.6754 16.8751 21.9461 16.7555 22.1479 16.5642L23.9573 17.6022L22.3331 18.4145C22.206 18.4782 22.1257 18.608 22.1257 18.7501V21.9154L17.6186 24.6889L15.3761 23.4075V21.0001H17.3197C17.475 21.4354 17.8875 21.7501 18.3757 21.7501C18.996 21.7501 19.5007 21.2453 19.5007 20.6251C19.5007 20.0045 18.996 19.5001 18.3757 19.5001C17.8875 19.5001 17.475 19.8143 17.3197 20.2501H15.3761V15.0001C15.3761 14.8685 15.3067 14.7463 15.1939 14.6784L13.3185 13.5534L12.9326 14.1965L14.6261 15.2124V16.3153L12.3757 18.0462V16.5001C12.3757 16.3861 12.324 16.2781 12.2351 16.2073L10.5008 14.8198V12.9508L12.5835 11.5622C12.6881 11.4924 12.7507 11.3754 12.7507 11.2502V9.00023H12.0007V11.0496L10.1299 12.2964L8.25075 11.0488V8.09049L10.1258 6.997V10.1252H10.8758V6.55938L12.3769 5.68377L14.6254 6.98088L14.6257 11.6252C14.6257 11.7598 14.6978 11.8839 14.8148 11.9507L17.2657 13.3513C17.259 13.4004 17.2507 13.4492 17.2507 13.5002C17.2507 14.1204 17.7551 14.6251 18.3757 14.6251C18.996 14.6251 19.5007 14.1204 19.5007 13.5002C19.5007 12.8799 18.996 12.3752 18.3757 12.3752C18.078 12.3752 17.8087 12.4933 17.6074 12.6827L15.3757 11.4073L15.3754 6.98163L17.6115 5.69127L21.7507 8.45086V9.37522H20.9441C20.7859 8.94173 20.3692 8.63161 19.8814 8.63161C19.2577 8.63161 18.7507 9.13897 18.7507 9.76259C18.7507 10.3862 19.2577 10.8936 19.8814 10.8936C20.3786 10.8936 20.8016 10.5715 20.9531 10.1252H21.7507V11.2502C21.7507 11.3848 21.8228 11.5089 21.9398 11.5757L24.375 12.9677V16.9771ZM12.3825 24.6889L11.2001 23.9614L13.3436 22.4303L12.9079 21.8198L10.5068 23.5347L7.87575 21.9154V18.9623L9.5685 17.9465L9.18262 17.3034L7.48425 18.3226L5.62575 17.3934L5.62538 15.2315L7.66837 14.2104L7.33313 13.5395L5.62538 14.393L5.62575 12.9677L7.86112 11.6904L9.75075 12.9448V14.8051L7.66837 16.1878L8.08313 16.8125L10.1093 15.467L11.6258 16.6801V18.6233L9.897 19.9527L10.3541 20.5471L14.6261 17.2614V23.4072L12.3825 24.6889ZM24.936 12.4247L22.5007 11.0327V8.25024C22.5007 8.12461 22.4381 8.00761 22.3335 7.93824L17.8335 4.93828C17.715 4.85953 17.562 4.85428 17.4382 4.92553L15.0015 6.33176L12.5632 4.92553C12.4462 4.85803 12.3026 4.85803 12.1868 4.92628L7.68675 7.55125C7.57125 7.61837 7.50075 7.74174 7.50075 7.87524V11.0327L5.06475 12.4247C4.94775 12.4911 4.87575 12.6156 4.87575 12.7502V12.9065C4.87537 12.9144 4.875 12.9219 4.875 12.9298V17.0112C4.875 17.0187 4.87537 17.0262 4.87575 17.0334V17.6251C4.87575 17.7672 4.956 17.897 5.08313 17.9604L7.12575 18.9818V22.125C7.12575 22.2552 7.19287 22.3759 7.30387 22.4442L12.1789 25.4441C12.2393 25.4813 12.3075 25.5 12.3757 25.5C12.4399 25.5 12.504 25.4835 12.5618 25.4505L15.0011 24.057L17.4398 25.4505C17.5579 25.5184 17.7049 25.5158 17.8223 25.4441L22.6973 22.4442C22.8083 22.3759 22.8757 22.2552 22.8757 22.125V18.9818L24.9176 17.9604C25.0448 17.897 25.125 17.7672 25.125 17.6251V12.7502C25.125 12.6156 25.0526 12.4914 24.936 12.4247Z" fill="white"></path>
  <defs>
    <linearGradient id="paint0_linear_2004_14" x1="0" y1="3000" x2="3000" y2="0" gradientUnits="userSpaceOnUse">
      <stop stop-color="#055F4E"></stop>
      <stop offset="1" stop-color="#56C0A7"></stop>
    </linearGradient>
  </defs>
</svg>
