<svg width="30" height="30" viewBox="0 0 30 30" fill="none" xmlns="http://www.w3.org/2000/svg">
<g clip-path="url(#clip0_2005_715)">
<path d="M15 30C23.2843 30 30 23.2843 30 15C30 6.71573 23.2843 0 15 0C6.71573 0 0 6.71573 0 15C0 23.2843 6.71573 30 15 30Z" fill="url(#paint0_linear_2005_715)"/>
<path d="M15.852 13.8495L20.3265 9.39905L18.63 7.71155L15 11.3175L11.3745 7.71755L9.67949 9.39905L14.154 13.8495C14.2654 13.9611 14.3978 14.0496 14.5435 14.11C14.6891 14.1704 14.8453 14.2015 15.003 14.2015C15.1607 14.2015 15.3168 14.1704 15.4625 14.11C15.6082 14.0496 15.7405 13.9611 15.852 13.8495ZM22.3305 18.6L18.7035 15L22.3305 11.4L20.6325 9.70355L16.158 14.1525C16.0463 14.263 15.9577 14.3945 15.8972 14.5395C15.8367 14.6845 15.8056 14.84 15.8056 14.997C15.8056 15.1541 15.8367 15.3096 15.8972 15.4546C15.9577 15.5996 16.0463 15.7311 16.158 15.8415L20.6325 20.2905L22.3305 18.6ZM14.997 18.6795L18.6225 22.2795L20.3205 20.592L15.846 16.1415C15.6199 15.918 15.3149 15.7927 14.997 15.7927C14.6791 15.7927 14.374 15.918 14.148 16.1415L9.67349 20.601L11.37 22.2885L14.997 18.6885V18.6795ZM13.842 15.8445C13.9537 15.7341 14.0423 15.6026 14.1028 15.4576C14.1633 15.3126 14.1944 15.1571 14.1944 15C14.1944 14.843 14.1633 14.6875 14.1028 14.5425C14.0423 14.3975 13.9537 14.266 13.842 14.1555L9.36749 9.70955L7.66949 11.4L11.2965 15L7.66949 18.6L9.36749 20.2875L13.842 15.8385V15.8445Z" fill="url(#paint1_linear_2005_715)"/>
</g>
<defs>
<linearGradient id="paint0_linear_2005_715" x1="15" y1="30" x2="15" y2="0" gradientUnits="userSpaceOnUse">
<stop stop-color="#BBE2F2"/>
<stop offset="1" stop-color="#EAF7FC"/>
</linearGradient>
<linearGradient id="paint1_linear_2005_715" x1="9.53099" y1="20.469" x2="20.469" y2="9.53105" gradientUnits="userSpaceOnUse">
<stop stop-color="#0175C7"/>
<stop offset="1" stop-color="#4FB6FF"/>
</linearGradient>
<clipPath id="clip0_2005_715">
<rect width="30" height="30" fill="white"/>
</clipPath>
</defs>
</svg>
