<?xml version="1.0" encoding="UTF-8"?>
<svg xmlns="http://www.w3.org/2000/svg" width="25" height="26" viewBox="0 0 25 26" fill="none">
  <path d="M24.4639 8.64505H0.535827C0.239997 8.64505 0 8.89546 0 9.20399V15.9112C0 16.2197 0.23972 16.4701 0.535827 16.4701H24.4642C24.76 16.4701 25 16.2197 25 15.9112V9.20399C24.9997 8.89546 24.76 8.64505 24.4639 8.64505ZM4.28884 13.7685C3.62413 13.7685 3.08524 13.2266 3.08524 12.5576C3.08524 11.8886 3.62413 11.3467 4.28884 11.3467C4.95383 11.3467 5.49272 11.8886 5.49272 12.5576C5.49272 13.2266 4.95383 13.7685 4.28884 13.7685ZM8.82574 13.7685C8.16102 13.7685 7.62214 13.2266 7.62214 12.5576C7.62214 11.8886 8.16102 11.3467 8.82574 11.3467C9.49073 11.3467 10.0296 11.8886 10.0296 12.5576C10.0296 13.2266 9.49073 13.7685 8.82574 13.7685ZM22.5756 13.4659C22.5756 13.6204 22.4511 13.7453 22.2978 13.7453H16.9273C16.774 13.7453 16.6495 13.6204 16.6495 13.4659V11.6493C16.6495 11.4948 16.774 11.3699 16.9273 11.3699H22.2978C22.4511 11.3699 22.5756 11.4948 22.5756 11.6493V13.4659ZM24.4639 0H0.535827C0.23972 0 0 0.250403 0 0.558935V7.26616C0 7.57469 0.23972 7.8251 0.535827 7.8251H24.4642C24.76 7.8251 25 7.57469 25 7.26616V0.558935C24.9997 0.250403 24.76 0 24.4639 0ZM4.28884 5.12348C3.62413 5.12348 3.08524 4.58159 3.08524 3.91255C3.08524 3.2435 3.62413 2.70161 4.28884 2.70161C4.95383 2.70161 5.49272 3.2435 5.49272 3.91255C5.49272 4.58159 4.95383 5.12348 4.28884 5.12348ZM8.82574 5.12348C8.16102 5.12348 7.62214 4.58159 7.62214 3.91255C7.62214 3.2435 8.16102 2.70161 8.82574 2.70161C9.49073 2.70161 10.0296 3.2435 10.0296 3.91255C10.0296 4.58159 9.49073 5.12348 8.82574 5.12348ZM22.5756 4.82082C22.5756 4.97536 22.4511 5.10029 22.2978 5.10029H16.9273C16.774 5.10029 16.6495 4.97536 16.6495 4.82082V3.00428C16.6495 2.84973 16.774 2.72481 16.9273 2.72481H22.2978C22.4511 2.72481 22.5756 2.84973 22.5756 3.00428V4.82082ZM24.4639 17.2901H0.535827C0.239997 17.2901 0 17.5405 0 17.849V24.5563C0 24.8648 0.23972 25.1152 0.535827 25.1152H3.63413V25.7205C3.63413 25.8751 3.75829 26 3.9119 26H8.07852C8.23213 26 8.3563 25.8751 8.3563 25.7205V25.1152H16.6431V25.7205C16.6431 25.8751 16.7673 26 16.9209 26H21.0875C21.2412 26 21.3653 25.8751 21.3653 25.7205V25.1152H24.4639C24.7597 25.1152 24.9997 24.8648 24.9997 24.5563V17.849C24.9997 17.5402 24.76 17.2901 24.4639 17.2901ZM4.28884 22.4136C3.62413 22.4136 3.08524 21.8717 3.08524 21.2027C3.08524 20.5336 3.62413 19.9917 4.28884 19.9917C4.95383 19.9917 5.49272 20.5336 5.49272 21.2027C5.49272 21.8717 4.95383 22.4136 4.28884 22.4136ZM8.82574 22.4136C8.16102 22.4136 7.62214 21.8717 7.62214 21.2027C7.62214 20.5336 8.16102 19.9917 8.82574 19.9917C9.49073 19.9917 10.0296 20.5336 10.0296 21.2027C10.0296 21.8717 9.49073 22.4136 8.82574 22.4136ZM22.5756 22.1109C22.5756 22.2655 22.4511 22.3904 22.2978 22.3904H16.9273C16.774 22.3904 16.6495 22.2655 16.6495 22.1109V20.2944C16.6495 20.1398 16.774 20.0149 16.9273 20.0149H22.2978C22.4511 20.0149 22.5756 20.1398 22.5756 20.2944V22.1109Z" fill="#10011A"></path>
</svg>
