<svg width="56" height="56" viewBox="0 0 56 56" fill="none" xmlns="http://www.w3.org/2000/svg">
<g clip-path="url(#clip0_4014_1322)">
<path fill-rule="evenodd" clip-rule="evenodd" d="M28 0C43.4616 0 56 12.5384 56 28C56 43.4616 43.4616 56 28 56C12.5384 56 0 43.4616 0 28C0 12.5384 12.5384 0 28 0Z" fill="#1E1E1E"/>
<path d="M28.42 39.7041C19.4656 39.7041 12.208 37.1169 12.208 33.6505C12.208 31.8417 14.1848 30.2121 17.3488 29.0641C19.8184 30.6489 23.9624 31.4609 28.6608 31.4609C33.2472 31.4609 37.3016 30.4697 39.7936 28.9521C42.7784 30.0889 44.632 31.6737 44.632 33.4209C44.632 36.8929 37.3744 39.7041 28.42 39.7041Z" fill="white"/>
<path d="M28.5151 30.6825C21.7279 30.6825 16.2231 28.5545 16.2231 25.9281C16.2231 24.4721 17.9199 23.1673 20.5799 22.2993C22.4783 23.2905 25.3231 23.9233 28.5151 23.9233C31.7071 23.9233 34.5519 23.2905 36.4503 22.2993C39.1159 23.1729 40.8071 24.4721 40.8071 25.9281C40.8127 28.5545 35.3079 30.6825 28.5151 30.6825Z" fill="white"/>
<path d="M28.4704 23.1335C23.2232 23.1335 18.9672 21.3751 18.9672 19.2135C18.9672 17.0519 23.2232 15.2935 28.4704 15.2935C33.7176 15.2935 37.9736 17.0519 37.9736 19.2135C37.9736 21.3751 33.7176 23.1335 28.4704 23.1335Z" fill="white"/>
</g>
<defs>
<clipPath id="clip0_4014_1322">
<rect width="56" height="56" fill="white"/>
</clipPath>
</defs>
</svg>
