<svg width="30" height="30" viewBox="0 0 30 30" fill="none" xmlns="http://www.w3.org/2000/svg">
<path d="M14.75 3C21.6534 3 27.25 8.59661 27.25 15.5C27.2474 22.4033 21.6508 28 14.75 28C7.84668 28 2.25011 22.4033 2.25 15.5C2.25 8.59661 7.84661 3 14.75 3ZM18.5361 9.28613L17.1055 10.7168C16.8402 10.6276 16.5577 10.5801 16.2627 10.5801H11.3379V17.5557L17.2666 11.627C17.7997 11.9617 18.1572 12.5565 18.1572 13.2334C18.1572 14.2773 17.3066 15.1279 16.2627 15.1279H16.1064L9.50781 21.7266H10.5791L11.874 20.4316H16.2627C17.7256 20.4316 18.9131 19.2417 18.9131 17.7812C18.9131 16.8167 18.3952 15.9735 17.624 15.5098C18.395 15.0412 18.9129 14.1958 18.9131 13.2314C18.9131 12.3462 18.4795 11.5621 17.8125 11.0811L19.6123 9.28125L18.5361 9.28613ZM16.4043 15.8965C17.3811 15.971 18.1572 16.7821 18.1572 17.7764C18.1572 18.8202 17.3066 19.6709 16.2627 19.6709H12.6299L16.4043 15.8965ZM16.4736 11.3486L12.0947 15.7256V11.3369H16.2627C16.3346 11.3369 16.4042 11.3412 16.4736 11.3486Z" fill="#4520E6"/>
</svg>
