<svg width="30" height="30" viewBox="0 0 30 30" fill="none" xmlns="http://www.w3.org/2000/svg">
<path d="M19.4792 13.9583C19.7831 13.9583 20.0745 13.8376 20.2894 13.6227C20.5043 13.4078 20.625 13.1164 20.625 12.8125C20.625 12.5086 20.5043 12.2172 20.2894 12.0023C20.0745 11.7874 19.7831 11.6667 19.4792 11.6667C19.1753 11.6667 18.8838 11.7874 18.6689 12.0023C18.4541 12.2172 18.3333 12.5086 18.3333 12.8125C18.3333 13.1164 18.4541 13.4078 18.6689 13.6227C18.8838 13.8376 19.1753 13.9583 19.4792 13.9583ZM14.8958 13.9583C15.1997 13.9583 15.4912 13.8376 15.7061 13.6227C15.9209 13.4078 16.0417 13.1164 16.0417 12.8125C16.0417 12.5086 15.9209 12.2172 15.7061 12.0023C15.4912 11.7874 15.1997 11.6667 14.8958 11.6667C14.5919 11.6667 14.3005 11.7874 14.0856 12.0023C13.8707 12.2172 13.75 12.5086 13.75 12.8125C13.75 13.1164 13.8707 13.4078 14.0856 13.6227C14.3005 13.8376 14.5919 13.9583 14.8958 13.9583ZM8.40625 2.5C8.09166 2.49966 7.78851 2.61794 7.55729 2.83125L2.90208 7.12917C2.77539 7.24613 2.67427 7.38804 2.60507 7.54597C2.53587 7.70391 2.5001 7.87445 2.5 8.04688V25.8333C2.5 26.2754 2.67559 26.6993 2.98816 27.0118C3.30072 27.3244 3.72464 27.5 4.16667 27.5H21.925C22.1054 27.4999 22.2836 27.4607 22.4474 27.3852C22.6112 27.3096 22.7567 27.1996 22.874 27.0625L27.199 22.0177C27.3932 21.7912 27.5 21.5026 27.5 21.2042V4.16667C27.5 3.72464 27.3244 3.30072 27.0118 2.98816C26.6993 2.6756 26.2754 2.5 25.8333 2.5H8.40625ZM8.75 3.125H25.625C25.9565 3.125 26.2745 3.2567 26.5089 3.49112C26.7433 3.72554 26.875 4.04348 26.875 4.375V20.8333C26.875 21.0522 26.8319 21.2689 26.7481 21.4711C26.6644 21.6733 26.5416 21.8571 26.3868 22.0118C26.2321 22.1666 26.0483 22.2894 25.8461 22.3731C25.6439 22.4569 25.4272 22.5 25.2083 22.5H8.75C8.58585 22.5 8.4233 22.4677 8.27165 22.4049C8.11999 22.342 7.98219 22.25 7.86612 22.1339C7.75004 22.0178 7.65797 21.88 7.59515 21.7284C7.53233 21.5767 7.5 21.4142 7.5 21.25V4.375C7.5 4.04348 7.6317 3.72554 7.86612 3.49112C8.10054 3.2567 8.41848 3.125 8.75 3.125Z" fill="black"/>
</svg>
