<svg width="56" height="56" viewBox="0 0 56 56" fill="none" xmlns="http://www.w3.org/2000/svg">
<path d="M39.7699 24.1811C40.6089 22.4973 41.1942 20.3854 41.1942 17.757C41.1942 14.1511 39.7399 10.8872 37.0985 8.56579C34.4923 6.27518 30.9664 5.06468 26.9018 5.06468L12.8953 5C10.1918 5 8 7.17254 8 9.85227V51H32.5025C41.652 51 47 43.4352 47 36.6116C47 31.4277 44.0956 26.6843 39.7699 24.1811ZM26.9008 8.61301C33.4762 8.61301 37.6144 12.5197 37.6144 17.757C37.6144 24.7859 32.2705 28.0006 26.8635 28.0006C21.7838 28.0006 17.6001 23.8537 17.6001 17.4264V13.878C17.6001 11.5484 16.1944 9.45698 14.0192 8.76805V8.61301H26.9008Z" fill="#F2561D"/>
</svg>
