<svg width="30" height="30" viewBox="0 0 30 30" fill="none" xmlns="http://www.w3.org/2000/svg">
<path fill-rule="evenodd" clip-rule="evenodd" d="M7.91251 13.0376V16.3251C8.43068 17.2184 9.16587 17.9665 10.05 18.5001V13.0376H7.91251Z" fill="#AECBFA"/>
<path fill-rule="evenodd" clip-rule="evenodd" d="M11.8625 10.0125V19.4249C12.3226 19.4837 12.7863 19.5088 13.25 19.5C13.6663 19.526 14.0837 19.526 14.5 19.5V10.0125H11.8625Z" fill="#669DF6"/>
<path fill-rule="evenodd" clip-rule="evenodd" d="M16.55 14.325V18.4375C17.4389 17.8705 18.1699 17.0879 18.675 16.1625V14.325H16.55Z" fill="#AECBFA"/>
<path fill-rule="evenodd" clip-rule="evenodd" d="M21.675 19.9L19.9 21.675C19.8501 21.7239 19.8105 21.7822 19.7834 21.8466C19.7564 21.911 19.7424 21.9802 19.7424 22.05C19.7424 22.1199 19.7564 22.189 19.7834 22.2534C19.8105 22.3178 19.8501 22.3761 19.9 22.425L24.325 26.85C24.4233 26.947 24.5557 27.0013 24.6938 27.0013C24.8318 27.0013 24.9643 26.947 25.0625 26.85L26.85 25.0625C26.947 24.9643 27.0013 24.8318 27.0013 24.6938C27.0013 24.5557 26.947 24.4233 26.85 24.325L22.425 19.9C22.3761 19.8501 22.3178 19.8105 22.2534 19.7834C22.189 19.7564 22.1199 19.7424 22.05 19.7424C21.9802 19.7424 21.911 19.7564 21.8466 19.7834C21.7822 19.8105 21.7239 19.8501 21.675 19.9Z" fill="#4285F4"/>
<path fill-rule="evenodd" clip-rule="evenodd" d="M13.25 2C11.025 2 8.84989 2.6598 6.99984 3.89597C5.14979 5.13213 3.70785 6.88914 2.85636 8.94481C2.00487 11.0005 1.78209 13.2625 2.21617 15.4448C2.65025 17.6271 3.72171 19.6316 5.29505 21.205C6.86839 22.7783 8.87295 23.8498 11.0552 24.2838C13.2375 24.7179 15.4995 24.4951 17.5552 23.6436C19.6109 22.7922 21.3679 21.3502 22.604 19.5002C23.8402 17.6501 24.5 15.475 24.5 13.25C24.5 11.7726 24.209 10.3097 23.6437 8.94481C23.0783 7.5799 22.2496 6.33971 21.205 5.29505C20.1603 4.25039 18.9201 3.42172 17.5552 2.85636C16.1903 2.29099 14.7274 2 13.25 2ZM13.25 21.6125C11.5996 21.61 9.98694 21.1185 8.61571 20.2001C7.24447 19.2816 6.17617 17.9774 5.54573 16.4521C4.91529 14.9269 4.75098 13.249 5.07357 11.6304C5.39615 10.0119 6.19116 8.52518 7.35817 7.35817C8.52519 6.19115 10.0119 5.39615 11.6304 5.07356C13.249 4.75098 14.9269 4.91528 16.4521 5.54572C17.9774 6.17617 19.2816 7.24447 20.2001 8.6157C21.1185 9.98693 21.61 11.5996 21.6125 13.25C21.6142 14.3486 21.399 15.4368 20.9793 16.4521C20.5596 17.4675 19.9437 18.39 19.1669 19.1669C18.39 19.9437 17.4675 20.5596 16.4521 20.9793C15.4368 21.399 14.3486 21.6141 13.25 21.6125Z" fill="#669DF6"/>
</svg>
