<svg width="30" height="30" viewBox="0 0 30 30" fill="none" xmlns="http://www.w3.org/2000/svg">
<g clip-path="url(#clip0_2018_370)">
<path d="M15.5 28C22.4036 28 28 22.4036 28 15.5C28 8.59644 22.4036 3 15.5 3C8.59644 3 3 8.59644 3 15.5C3 22.4036 8.59644 28 15.5 28Z" fill="#009FE8"/>
<path d="M16.5034 14.4014C16.5107 13.6739 15.417 13.7739 15.0752 13.7739V15.002C15.417 15.0117 16.4937 15.0947 16.5034 14.4014ZM15.0654 15.6221V16.9746C15.4756 16.9746 16.7695 17.0674 16.7793 16.3057C16.7866 15.5122 15.4756 15.6221 15.0654 15.6221Z" fill="white"/>
<path d="M20.3804 10.3657C19.4111 10.3242 17.1138 10.124 15.5 9.26221C13.8862 10.124 11.5889 10.3242 10.6196 10.3657C10.3608 10.3828 10.1606 10.6001 10.1606 10.8589V13.2563C10.1606 19.9238 15.5 21.7378 15.5 21.7378C15.5 21.7378 20.8394 19.9238 20.8394 13.2563V10.8589C20.8394 10.6001 20.6392 10.3828 20.3804 10.3657ZM17.9902 16.4326C17.8901 17.4019 17.1724 17.6606 16.1348 17.7119V18.7324H15.5171V17.729C15.3584 17.729 15.1924 17.729 15.0239 17.7217V18.7324H14.4136V17.7119C14.272 17.7046 13.293 17.7119 13.293 17.7119L13.3003 16.9673H13.9937V13.7153H13.2075V13.0708C13.2075 13.0708 14.311 13.0635 14.4453 13.0635L14.438 12.0527H15.0557V13.0464H15.5562V12.0601H16.1738V13.0806C16.9673 13.1562 17.585 13.4053 17.6533 14.1328C17.7046 14.6675 17.4775 14.9849 17.1187 15.1533C17.707 15.2949 18.0659 15.6538 17.9902 16.4326Z" fill="white"/>
</g>
<defs>
<clipPath id="clip0_2018_370">
<rect width="25" height="25" fill="white" transform="translate(3 3)"/>
</clipPath>
</defs>
</svg>
