<svg width="24" height="24" viewBox="0 0 24 24" fill="none" xmlns="http://www.w3.org/2000/svg">
<path d="M11.4844 0.792187C10.9922 0.951561 10.5375 1.35 10.3266 1.80469C10.2094 2.05781 10.1953 2.1375 10.1906 2.61562V3.15L7.8 4.53281C6.4875 5.29219 5.36719 5.93437 5.31563 5.9625C5.23594 6 5.17969 5.98125 5.00625 5.85C4.62656 5.55937 4.34531 5.46562 3.84375 5.46094C3.44063 5.46094 3.37031 5.475 3.08438 5.61094C2.68594 5.79844 2.37656 6.10781 2.18906 6.50625C2.05313 6.79219 2.03906 6.85781 2.03906 7.28906C2.03906 7.70156 2.05313 7.79062 2.16563 8.02969C2.39531 8.51719 2.775 8.87344 3.23906 9.02344L3.46875 9.10312V12V14.8969L3.23906 14.9766C2.775 15.1266 2.39531 15.4828 2.16563 15.9703C2.05313 16.2094 2.03906 16.2984 2.03906 16.7109C2.03906 17.1422 2.05313 17.2078 2.18906 17.4937C2.37656 17.8922 2.68594 18.2016 3.08438 18.3891C3.37031 18.525 3.44063 18.5391 3.84375 18.5391C4.22813 18.5391 4.32656 18.5203 4.56094 18.4125C4.71094 18.3422 4.92188 18.2156 5.02031 18.1359C5.17969 18.0141 5.22656 17.9953 5.31094 18.0375C5.36719 18.0609 6.4875 18.7078 7.8 19.4672L10.1906 20.8453V21.3797C10.1953 21.8578 10.2094 21.9422 10.3219 22.1812C10.4859 22.5375 10.8328 22.8984 11.1797 23.0812C11.4469 23.2219 11.4844 23.2266 12 23.2266C12.5156 23.2266 12.5531 23.2219 12.8203 23.0812C13.1672 22.8984 13.5141 22.5375 13.6781 22.1812C13.7906 21.9422 13.8047 21.8578 13.8094 21.3797V20.8453L16.2 19.4672C17.5125 18.7078 18.6328 18.0656 18.6844 18.0375C18.7641 18 18.8203 18.0187 18.9938 18.15C19.3734 18.4406 19.6547 18.5344 20.1562 18.5391C20.5594 18.5391 20.6297 18.525 20.9156 18.3891C21.3141 18.2016 21.6234 17.8922 21.8109 17.4937C21.9469 17.2078 21.9609 17.1422 21.9609 16.7109C21.9609 16.2984 21.9469 16.2094 21.8344 15.9703C21.6047 15.4828 21.225 15.1266 20.7609 14.9766L20.5312 14.8969V12V9.10312L20.7656 9.02344C21.0234 8.93906 21.3891 8.68125 21.5813 8.45156C21.6469 8.37187 21.7641 8.17969 21.8344 8.02969C21.9469 7.79062 21.9609 7.70156 21.9609 7.28906C21.9609 6.85781 21.9469 6.79219 21.8109 6.50625C21.6234 6.10781 21.3141 5.79844 20.9156 5.61094C20.6297 5.475 20.5594 5.46094 20.1562 5.46094C19.7672 5.46094 19.6734 5.47969 19.4297 5.59219C19.275 5.6625 19.0688 5.78906 18.9703 5.86875C18.8203 5.98594 18.7688 6.00469 18.6891 5.9625C18.6328 5.93906 17.5125 5.29219 16.2 4.53281L13.8094 3.14531V2.61562C13.8047 2.1375 13.7906 2.05781 13.6734 1.80469C13.5047 1.44844 13.1813 1.11094 12.8203 0.923437C12.5672 0.792187 12.4875 0.778124 12.0703 0.764061C11.8125 0.759375 11.55 0.768749 11.4844 0.792187ZM10.8422 4.00781C11.4141 4.5 12.4688 4.52812 13.0781 4.06875C13.1859 3.98438 13.3031 3.89531 13.3313 3.87656C13.3641 3.85312 14.3391 4.3875 15.8672 5.27344L18.3516 6.7125V7.26094C18.3516 7.76719 18.3609 7.82344 18.4875 8.08594C18.7172 8.54531 19.1109 8.87812 19.6547 9.06094C19.7297 9.08906 19.7344 9.27187 19.7344 12C19.7344 14.7281 19.7297 14.9109 19.6547 14.9391C19.1109 15.1219 18.7172 15.4547 18.4875 15.9141C18.3609 16.1766 18.3516 16.2328 18.3516 16.7437V17.2875L15.8953 18.7125C14.5453 19.4906 13.4203 20.1422 13.3969 20.1469C13.3781 20.1562 13.2797 20.0953 13.1859 20.0109C13.0922 19.9312 12.8953 19.8094 12.7547 19.7437C12.525 19.6359 12.4313 19.6219 12 19.6219C11.5688 19.6219 11.475 19.6359 11.2453 19.7437C11.1047 19.8094 10.9078 19.9312 10.8141 20.0109C10.7203 20.0953 10.6219 20.1562 10.6031 20.1469C10.5797 20.1422 9.45469 19.4906 8.10469 18.7125L5.64844 17.2875V16.7437C5.64844 16.2328 5.63906 16.1766 5.5125 15.9141C5.28281 15.4547 4.88906 15.1219 4.35 14.9391C4.27031 14.9109 4.26562 14.7281 4.26562 12C4.26562 9.27187 4.27031 9.08906 4.34531 9.06562C4.86563 8.89219 5.29219 8.53594 5.5125 8.08594C5.63906 7.82344 5.64844 7.76719 5.64844 7.25625V6.7125L8.10938 5.28281C9.46406 4.49531 10.5891 3.84844 10.6078 3.84844C10.6313 3.84375 10.7344 3.91875 10.8422 4.00781Z" fill="white"/>
<path d="M11.6906 6.59535C11.0578 6.94223 7.55156 8.98129 7.54688 9.00473C7.54688 9.03285 11.8875 11.5454 11.9766 11.5688C12.0328 11.5829 16.4203 9.07035 16.4391 9.00941C16.4531 8.96254 12.1969 6.51566 12.0469 6.48754C11.9719 6.47348 11.8406 6.51098 11.6906 6.59535Z" fill="white"/>
<path d="M7.17188 12.1828C7.17188 14.5219 7.17656 14.7141 7.25625 14.8031C7.32188 14.8828 11.5359 17.3438 11.6016 17.3438C11.6156 17.3438 11.6203 16.1812 11.6156 14.7562L11.6016 12.1687L9.42188 10.9125C8.22656 10.2234 7.22813 9.65625 7.20938 9.65625C7.19063 9.65625 7.17188 10.7953 7.17188 12.1828Z" fill="white"/>
<path d="M14.5547 10.9172L12.3984 12.1687L12.3844 14.7562C12.3797 16.1812 12.3844 17.3438 12.3984 17.3438C12.4688 17.3438 16.6734 14.8875 16.7484 14.8031C16.8235 14.7141 16.8281 14.5219 16.8281 12.1828C16.8281 10.1906 16.8141 9.65625 16.7719 9.66094C16.7391 9.66562 15.7406 10.2281 14.5547 10.9172Z" fill="white"/>
</svg>
