<?xml version="1.0" encoding="UTF-8"?>
<svg xmlns="http://www.w3.org/2000/svg" width="28" height="28" viewBox="0 0 28 28" fill="none">
  <path d="M13.6562 20.5V17L18.3047 21.6484L13.6562 26.3516V22.8516C11.1042 22.8516 8.89844 21.9401 7.03906 20.1172C5.21615 18.2578 4.30469 16.0521 4.30469 13.5C4.30469 11.6771 4.79688 10.0182 5.78125 8.52344L7.47656 10.2188C6.92969 11.2031 6.65625 12.2969 6.65625 13.5C6.65625 15.4323 7.33073 17.0911 8.67969 18.4766C10.0651 19.8255 11.724 20.5 13.6562 20.5ZM13.6562 4.14844C16.2083 4.14844 18.3958 5.07812 20.2188 6.9375C22.0781 8.76042 23.0078 10.9479 23.0078 13.5C23.0078 15.3229 22.5156 16.9818 21.5312 18.4766L19.8359 16.7812C20.3828 15.7969 20.6562 14.7031 20.6562 13.5C20.6562 11.5677 19.9635 9.92708 18.5781 8.57812C17.2292 7.19271 15.5885 6.5 13.6562 6.5V10L9.00781 5.35156L13.6562 0.648438V4.14844Z" fill="white"></path>
</svg>
