<?xml version="1.0" encoding="UTF-8"?>
<svg xmlns="http://www.w3.org/2000/svg" width="28" height="28" viewBox="0 0 28 28" fill="none">
  <path d="M15.1484 10.0078C15.6224 10.0078 16.0234 10.1719 16.3516 10.5C16.6797 10.8281 16.8438 11.2109 16.8438 11.6484C16.8438 12.1224 16.6797 12.5234 16.3516 12.8516C16.0234 13.1797 15.6224 13.3438 15.1484 13.3438C14.7109 13.3438 14.3281 13.1797 14 12.8516C13.6719 12.5234 13.5078 12.1224 13.5078 11.6484C13.5078 11.2109 13.6719 10.8281 14 10.5C14.3281 10.1719 14.7109 10.0078 15.1484 10.0078ZM15.1484 3.5C16.2786 3.5 17.3359 3.71875 18.3203 4.15625C19.3047 4.55729 20.1615 5.14062 20.8906 5.90625C21.6562 6.63542 22.2578 7.49219 22.6953 8.47656C23.1328 9.46094 23.3516 10.5182 23.3516 11.6484C23.3516 13.2891 22.9141 14.7656 22.0391 16.0781C21.1641 17.3906 20.0339 18.375 18.6484 19.0312V24.5H10.5V21H9.35156C8.69531 21 8.13021 20.7812 7.65625 20.3438C7.21875 19.8698 7 19.3047 7 18.6484V15.1484H5.25C4.99479 15.1484 4.8125 15.0573 4.70312 14.875C4.59375 14.6562 4.61198 14.4375 4.75781 14.2188L7 11.2656C7.07292 10.1719 7.32812 9.16927 7.76562 8.25781C8.20312 7.3099 8.78646 6.48958 9.51562 5.79688C10.2812 5.06771 11.138 4.5026 12.0859 4.10156C13.0339 3.70052 14.0547 3.5 15.1484 3.5ZM18.6484 11.6484C18.6484 11.4661 18.6302 11.3203 18.5938 11.2109L19.6328 10.4453C19.7422 10.3724 19.7604 10.263 19.6875 10.1172L18.7578 8.53125C18.6849 8.42188 18.5755 8.38542 18.4297 8.42188L17.2812 8.91406C17.026 8.69531 16.7708 8.53125 16.5156 8.42188L16.3516 7.21875C16.3151 7.07292 16.224 7 16.0781 7H14.2188C14.1094 7 14.0365 7.07292 14 7.21875L13.8359 8.42188C13.5807 8.53125 13.3255 8.69531 13.0703 8.91406L11.8672 8.42188C11.7578 8.38542 11.6667 8.42188 11.5938 8.53125L10.6641 10.1172C10.5911 10.263 10.6094 10.3724 10.7188 10.4453L11.7031 11.2109C11.7031 11.2839 11.6849 11.3568 11.6484 11.4297C11.6484 11.5026 11.6484 11.5755 11.6484 11.6484C11.6484 11.7214 11.6484 11.8125 11.6484 11.9219C11.6849 11.9948 11.7031 12.0677 11.7031 12.1406L10.7188 12.9062C10.6094 12.9792 10.5911 13.0703 10.6641 13.1797L11.5938 14.8203C11.6667 14.9297 11.7578 14.9661 11.8672 14.9297L13.0156 14.4375C13.2708 14.6198 13.5443 14.7656 13.8359 14.875L14 16.1328C14.0365 16.2786 14.1094 16.3516 14.2188 16.3516H16.0781C16.224 16.3516 16.3151 16.2786 16.3516 16.1328L16.5156 14.875C16.8073 14.7656 17.0625 14.6198 17.2812 14.4375L18.4297 14.9297C18.5755 14.9661 18.6849 14.9297 18.7578 14.8203L19.6875 13.1797C19.724 13.0703 19.7057 12.9792 19.6328 12.9062L18.6484 12.1406C18.6484 12.0677 18.6484 11.9948 18.6484 11.9219C18.6484 11.8125 18.6484 11.7214 18.6484 11.6484Z" fill="white"></path>
</svg>
