<?xml version="1.0" encoding="UTF-8"?>
<svg xmlns="http://www.w3.org/2000/svg" width="22" height="22" viewBox="0 0 22 22" fill="none">
  <path d="M16.1851 10.5923L10.9949 13.5888L5.80469 10.5923" stroke="#3B82F6" stroke-width="1.2" stroke-miterlimit="10"></path>
  <path d="M10.9949 19.5819L5.80469 16.5854V10.5923L10.9949 7.5957L16.1851 10.5923V16.5854L10.9949 19.5819ZM10.9949 19.5819V13.5888" stroke="#3B82F6" stroke-width="1.2" stroke-miterlimit="10"></path>
  <path d="M10.9972 4.78633C11.8283 4.78633 12.5021 4.11253 12.5021 3.28135C12.5021 2.45017 11.8283 1.77637 10.9972 1.77637C10.166 1.77637 9.49219 2.45017 9.49219 3.28135C9.49219 4.11253 10.166 4.78633 10.9972 4.78633Z" stroke="#3B82F6" stroke-width="1.2" stroke-miterlimit="10"></path>
  <path d="M11 4.8667V7.86325" stroke="#3B82F6" stroke-width="1.2" stroke-miterlimit="10"></path>
  <path d="M2.38217 20.2053C3.20334 20.0767 3.7648 19.3068 3.63623 18.4856C3.50765 17.6644 2.73772 17.103 1.91655 17.2315C1.09538 17.3601 0.53392 18.13 0.662498 18.9512C0.791075 19.7724 1.561 20.3339 2.38217 20.2053Z" stroke="#3B82F6" stroke-width="1.2" stroke-miterlimit="10"></path>
  <path d="M3.52344 17.9227L6.1151 16.4185" stroke="#3B82F6" stroke-width="1.2" stroke-miterlimit="10"></path>
  <path d="M21.3374 18.9467C21.4644 18.1253 20.9014 17.3565 20.08 17.2295C19.2586 17.1025 18.4898 17.6654 18.3628 18.4868C18.2358 19.3082 18.7987 20.0771 19.6201 20.2041C20.4415 20.3311 21.2104 19.7681 21.3374 18.9467Z" stroke="#3B82F6" stroke-width="1.2" stroke-miterlimit="10"></path>
  <path d="M18.4745 17.9227L15.8828 16.4185" stroke="#3B82F6" stroke-width="1.2" stroke-miterlimit="10"></path>
</svg>
