<?xml version="1.0" encoding="UTF-8"?>
<svg xmlns="http://www.w3.org/2000/svg" width="28" height="28" viewBox="0 0 28 28" fill="none">
  <path d="M24.8281 13.7734C25.1562 13.9557 25.4297 14.2109 25.6484 14.5391C25.8672 14.8672 25.9766 15.2318 25.9766 15.6328V18.3125C25.9766 18.75 25.8672 19.1328 25.6484 19.4609C25.4297 19.7891 25.1562 20.0443 24.8281 20.2266V21.6484C24.8281 22.3047 24.5911 22.8698 24.1172 23.3438C23.6797 23.7812 23.1328 24 22.4766 24H13.1797V21.6484H22.4766V13.3906C22.4766 12.2604 22.2578 11.2031 21.8203 10.2188C21.4193 9.23438 20.8359 8.3776 20.0703 7.64844C19.3411 6.88281 18.4844 6.29948 17.5 5.89844C16.5156 5.46094 15.4583 5.24219 14.3281 5.24219C13.1979 5.24219 12.1406 5.46094 11.1562 5.89844C10.1719 6.29948 9.29688 6.88281 8.53125 7.64844C7.80208 8.3776 7.21875 9.23438 6.78125 10.2188C6.38021 11.2031 6.17969 12.2604 6.17969 13.3906V20.5H4.97656C4.35677 20.5 3.8099 20.2812 3.33594 19.8438C2.89844 19.3698 2.67969 18.8047 2.67969 18.1484V15.8516C2.67969 15.4141 2.77083 15.013 2.95312 14.6484C3.17188 14.2839 3.46354 14.0104 3.82812 13.8281C3.82812 12.1875 4.10156 10.7109 4.64844 9.39844C5.23177 8.04948 6.01562 6.90104 7 5.95312C8.02083 5.00521 9.15104 4.27604 10.3906 3.76562C11.6302 3.25521 12.9427 3 14.3281 3C15.7135 3 17.026 3.25521 18.2656 3.76562C19.5417 4.27604 20.6719 5.02344 21.6562 6.00781C22.6406 6.95573 23.4062 8.08594 23.9531 9.39844C24.5365 10.7109 24.8281 12.1693 24.8281 13.7734ZM9.67969 14.6484C9.67969 14.9766 9.78906 15.2682 10.0078 15.5234C10.2266 15.7422 10.5 15.8516 10.8281 15.8516C11.1562 15.8516 11.4297 15.7422 11.6484 15.5234C11.8672 15.2682 11.9766 14.9766 11.9766 14.6484C11.9766 14.3203 11.8672 14.0469 11.6484 13.8281C11.4297 13.6094 11.1562 13.5 10.8281 13.5C10.5 13.5 10.2266 13.6094 10.0078 13.8281C9.78906 14.0469 9.67969 14.3203 9.67969 14.6484ZM16.6797 14.6484C16.6797 14.9766 16.7891 15.2682 17.0078 15.5234C17.2266 15.7422 17.5 15.8516 17.8281 15.8516C18.1562 15.8516 18.4297 15.7422 18.6484 15.5234C18.8672 15.2682 18.9766 14.9766 18.9766 14.6484C18.9766 14.3203 18.8672 14.0469 18.6484 13.8281C18.4297 13.6094 18.1562 13.5 17.8281 13.5C17.5 13.5 17.2266 13.6094 17.0078 13.8281C16.7891 14.0469 16.6797 14.3203 16.6797 14.6484ZM21.3281 12.3516C20.125 12.3516 18.9766 12.1328 17.8828 11.6953C16.8255 11.2578 15.8776 10.6562 15.0391 9.89062C14.2005 9.08854 13.526 8.17708 13.0156 7.15625C12.724 8.72396 12.0677 10.1094 11.0469 11.3125C10.026 12.5156 8.78646 13.4271 7.32812 14.0469C7.25521 12.8802 7.40104 11.8411 7.76562 10.9297C8.16667 9.98177 8.71354 9.17969 9.40625 8.52344C10.099 7.86719 10.8828 7.375 11.7578 7.04688C12.6328 6.68229 13.5078 6.5 14.3828 6.5C15.5495 6.5 16.625 6.75521 17.6094 7.26562C18.5938 7.77604 19.4141 8.48698 20.0703 9.39844C20.7266 10.2734 21.1458 11.2578 21.3281 12.3516Z" fill="white"></path>
</svg>
