<svg width="30" height="30" viewBox="0 0 30 30" fill="none" xmlns="http://www.w3.org/2000/svg">
<path d="M15 2.5C21.9036 2.5 27.5 8.09644 27.5 15C27.5 21.9036 21.9036 27.5 15 27.5C8.09644 27.5 2.5 21.9036 2.5 15C2.5 8.09644 8.09644 2.5 15 2.5ZM15 19.7803L11.6104 16.3926L9.63672 18.3613L15 23.7246L20.3613 18.3623L20.3633 18.3613L18.3896 16.3906L15 19.7803ZM12.999 14.999L15.001 17.001L17.0029 14.999H17.001L15 12.998L12.999 14.999ZM19.7812 15.001L21.7529 16.9736L23.7246 15.001L21.7529 13.0293L19.7812 15.001ZM6.27539 15L8.24707 16.9717L10.2188 15L8.24707 13.0283L6.27539 15ZM9.63965 11.6357L11.6104 13.6074L15 10.2188L18.3896 13.6094L20.3613 11.6377L15 6.27539L9.63965 11.6357Z" fill="#F3BA2C"/>
</svg>
