<?xml version="1.0" encoding="UTF-8"?>
<svg xmlns="http://www.w3.org/2000/svg" width="31" height="30" viewBox="0 0 31 30" fill="none">
  <path d="M8.43602 25.627H0.665474C0.298537 25.627 0 25.9242 0 26.2924V29.2604C0 29.6273 0.298537 29.9258 0.665474 29.9258H8.43602C8.80296 29.9258 9.1015 29.6286 9.1015 29.2604V26.2912C9.1015 25.9243 8.80421 25.627 8.43602 25.627Z" fill="#8B5CF6"></path>
  <path d="M29.5845 25.627H21.8139C21.447 25.627 21.1484 25.9242 21.1484 26.2924V29.2604C21.1484 29.6273 21.447 29.9258 21.8139 29.9258H29.5845C29.9514 29.9258 30.2499 29.6286 30.2499 29.2604V26.2912C30.2499 25.9243 29.9526 25.627 29.5845 25.627Z" fill="#8B5CF6"></path>
  <path d="M18.9998 25.627H11.228C10.861 25.627 10.5625 25.9242 10.5625 26.2924V29.2604C10.5625 29.6273 10.8598 29.9258 11.228 29.9258H18.9985C19.3655 29.9258 19.664 29.6286 19.664 29.2604V26.2912C19.6652 25.9243 19.3667 25.627 18.9998 25.627Z" fill="#8B5CF6"></path>
  <path d="M0.662965 18.376H6.9359L6.16219 17.5898C5.27778 16.7054 5.17951 15.3433 5.91714 14.3729L6.13855 14.0781L0.66299 14.0794C0.294811 14.0794 0 14.3866 0 14.7548V17.7128C0 18.0823 0.294779 18.376 0.662965 18.376Z" fill="#8B5CF6"></path>
  <path d="M24.3469 14.3728C25.0708 15.3667 24.9726 16.73 24.1018 17.5897L23.3281 18.3758H29.5886C29.9568 18.3758 30.2516 18.081 30.2516 17.7128V14.7548C30.2516 14.3866 29.9568 14.0794 29.5886 14.0794L24.1255 14.0781L24.3469 14.3728Z" fill="#8B5CF6"></path>
  <path d="M0.665474 24.1544H3.14955C3.51649 24.1544 3.81503 23.8571 3.81503 23.4889V20.5209C3.81503 20.154 3.51649 19.8555 3.14955 19.8555H0.665474C0.298537 19.8555 0 20.154 0 20.5209V23.4889C0 23.8571 0.298537 24.1544 0.665474 24.1544Z" fill="#8B5CF6"></path>
  <path d="M18.596 19.8496C18.3509 20.9542 17.3558 21.7652 16.1903 21.7652H15.8594V23.4843C15.8594 23.8525 16.1542 24.1597 16.5224 24.1597H24.2929C24.6611 24.1597 24.9559 23.8525 24.9559 23.4843V20.5263C24.9559 20.1581 24.6611 19.8508 24.2929 19.8508L18.596 19.8496Z" fill="#8B5CF6"></path>
  <path d="M29.5871 19.8555H27.103C26.736 19.8555 26.4375 20.154 26.4375 20.5209V23.4889C26.4375 23.8558 26.736 24.1544 27.103 24.1544H29.5871C29.954 24.1544 30.2525 23.8571 30.2525 23.4889V20.5209C30.2525 20.154 29.9552 19.8555 29.5871 19.8555Z" fill="#8B5CF6"></path>
  <path d="M11.6572 19.8496H5.94888C5.5807 19.8496 5.27344 20.1569 5.27344 20.5251V23.4831C5.27344 23.8512 5.58068 24.1585 5.94888 24.1585H13.7194C14.0876 24.1585 14.3824 23.8513 14.3824 23.4831V21.764H14.0391C12.8848 21.764 11.9023 20.9791 11.6572 19.8496Z" fill="#8B5CF6"></path>
  <path d="M5.83701 12.2064L7.68048 12.4751C7.91185 13.0361 7.97404 13.1829 8.2054 13.7452L7.09459 15.2465C6.78983 15.6483 6.83834 16.1981 7.19285 16.5526L8.70668 18.0665C9.0612 18.421 9.60974 18.4695 10.0128 18.1635L11.5142 17.0527C12.0752 17.284 12.222 17.3462 12.7842 17.5776L13.0529 19.4211C13.1263 19.9211 13.5405 20.2881 14.0418 20.2881H16.19C16.6901 20.2881 17.118 19.9224 17.1789 19.4211L17.4476 17.5776C18.0098 17.3462 18.1678 17.284 18.7288 17.0527L20.2178 18.1635C20.6208 18.4695 21.1818 18.4197 21.5363 18.0665L23.0501 16.5526C23.4046 16.1981 23.4407 15.6483 23.1472 15.2465L22.0239 13.7452C22.2553 13.1829 22.3175 13.0374 22.5488 12.4751L24.4047 12.2064C24.8936 12.133 25.2593 11.7188 25.2593 11.2175V9.0693C25.2593 8.56926 24.8936 8.14134 24.4047 8.08039L22.5488 7.80051C22.3175 7.2507 22.2553 7.09272 22.0239 6.53048L23.1472 5.04028C23.4407 4.63727 23.4034 4.07627 23.0501 3.72175L21.5351 2.20917C21.1805 1.85465 20.6196 1.81857 20.2165 2.1109L18.7276 3.23413C18.1666 3.00152 18.0074 2.94057 17.4464 2.70922L17.1777 0.853321C17.1155 0.365727 16.6888 0 16.1888 0H14.0405C13.5405 0 13.125 0.365695 13.0516 0.854563L12.783 2.71046C12.2207 2.94182 12.0752 3.00278 11.5129 3.23537L10.0115 2.11214C9.60853 1.81983 9.05996 1.8559 8.70544 2.21041L7.19161 3.72424C6.83709 4.07876 6.78859 4.63975 7.09334 5.04277L8.20415 6.53297C7.97154 7.09396 7.91059 7.25318 7.67924 7.803L5.83576 8.08288C5.33572 8.14383 4.96875 8.57174 4.96875 9.07179V11.22C4.96999 11.7188 5.33569 12.133 5.83701 12.2064ZM15.1141 6.1561C17.3171 6.1561 19.1019 7.94111 19.1019 10.1452C19.1019 12.3481 17.3169 14.133 15.1141 14.133C12.9113 14.133 11.1263 12.348 11.1263 10.1452C11.1263 7.94098 12.9113 6.1561 15.1141 6.1561Z" fill="#8B5CF6"></path>
</svg>
