<?xml version="1.0" encoding="UTF-8"?>
<svg xmlns="http://www.w3.org/2000/svg" width="27" height="22" viewBox="0 0 27 22" fill="none">
  <path d="M16.7969 11.1999C17.5666 10.6316 18.1924 9.89059 18.6239 9.03655C19.0554 8.18251 19.2806 7.23919 19.2814 6.28234C19.2814 2.901 16.5308 0.150391 13.1495 0.150391C9.76813 0.150391 7.01752 2.901 7.01752 6.28234C7.01838 7.23919 7.24359 8.18251 7.67508 9.03655C8.10657 9.89059 8.73231 10.6316 9.50206 11.1999C6.82124 12.1011 4.88281 14.6327 4.88281 17.6128V18.4677C4.88281 19.4814 5.60252 20.3555 6.59442 20.5457C10.9262 21.373 15.3754 21.373 19.7071 20.5457C20.1892 20.4518 20.6235 20.193 20.9356 19.8139C21.2477 19.4347 21.4182 18.9588 21.4179 18.4677V17.6128C21.4161 14.6327 19.4768 12.1011 16.7969 11.1999ZM8.58693 6.28234C8.58693 3.76727 10.6335 1.72067 13.1486 1.72067C15.6637 1.72067 17.7103 3.76727 17.7103 6.28234C17.7103 8.79741 15.6637 10.844 13.1486 10.844C10.6335 10.844 8.58693 8.79828 8.58693 6.28234ZM19.845 18.4677C19.845 18.7294 19.6618 18.9554 19.4097 19.0034C15.273 19.7903 11.0251 19.7903 6.88841 19.0034C6.76488 18.9785 6.65384 18.9115 6.57427 18.8137C6.49471 18.716 6.45156 18.5937 6.45222 18.4677V17.6128C6.45361 16.2346 7.00163 14.9133 7.97605 13.9387C8.95047 12.9641 10.2717 12.4159 11.6499 12.4143H14.6473C16.0255 12.4159 17.3467 12.9641 18.3211 13.9387C19.2956 14.9133 19.8436 16.2346 19.845 17.6128V18.4677Z" fill="#8B5CF6" stroke="#06B6D4" stroke-width="0.3"></path>
  <path d="M22.7945 10.9172C23.3145 10.4459 23.7305 9.87142 24.0161 9.23035C24.3016 8.58927 24.4504 7.89571 24.4529 7.19392C24.4565 6.18669 24.1551 5.20196 23.5883 4.36934C23.0215 3.53672 22.2159 2.89524 21.2774 2.52931C21.0838 2.45296 20.8677 2.45666 20.6768 2.53961C20.4859 2.62256 20.3357 2.77795 20.2594 2.97161C20.183 3.16526 20.1867 3.38132 20.2697 3.57224C20.3526 3.76317 20.508 3.91332 20.7017 3.98967C21.3461 4.24096 21.8993 4.68151 22.2884 5.25332C22.6776 5.82513 22.8844 6.50139 22.8817 7.19305C22.8791 7.8893 22.667 8.56865 22.2731 9.14275C21.8791 9.71686 21.3216 10.1592 20.6729 10.4121C20.5095 10.4743 20.3715 10.5892 20.2809 10.7387C20.1903 10.8883 20.1522 11.0638 20.1728 11.2374C20.1933 11.411 20.2713 11.5728 20.3943 11.697C20.5173 11.8213 20.6783 11.9008 20.8517 11.9231C22.7997 12.1804 24.575 14.2009 24.575 16.1611V16.8328C24.575 16.9611 24.4843 17.0771 24.3604 17.1015C24.206 17.1321 24.0455 17.16 23.8797 17.1888L23.5448 17.2472C23.3455 17.2902 23.1708 17.4089 23.0575 17.5784C22.9443 17.7478 22.9013 17.9547 22.9378 18.1552C22.9743 18.3558 23.0873 18.5342 23.253 18.6529C23.4187 18.7716 23.6241 18.8213 23.8257 18.7913L24.145 18.7355C24.3247 18.7041 24.5 18.6744 24.6658 18.6413C25.0834 18.5572 25.4589 18.3311 25.7287 18.0014C25.9984 17.6717 26.1456 17.2588 26.1453 16.8328V16.1611C26.1453 13.9967 24.7268 11.9056 22.7945 10.9172ZM2.749 17.249L2.414 17.1905C2.24912 17.1617 2.08773 17.1347 1.93071 17.1024C1.87019 17.0885 1.8162 17.0544 1.77767 17.0057C1.73913 16.957 1.71834 16.8967 1.71872 16.8346V16.1628C1.71872 14.2026 3.49314 12.1822 5.44203 11.9248C5.61495 11.9019 5.77529 11.822 5.89775 11.6977C6.02022 11.5735 6.09782 11.412 6.11833 11.2388C6.13883 11.0656 6.10106 10.8905 6.01098 10.7411C5.9209 10.5917 5.78364 10.4766 5.62087 10.4139C4.97212 10.161 4.4145 9.71873 4.02054 9.1446C3.62659 8.57048 3.41455 7.89108 3.41201 7.19479C3.41201 5.77107 4.26694 4.5131 5.59208 3.99142C5.78585 3.91507 5.94135 3.76487 6.02438 3.57386C6.10741 3.38285 6.11116 3.16669 6.03481 2.97292C5.95846 2.77914 5.80826 2.62364 5.61725 2.54061C5.42625 2.45758 5.21008 2.45383 5.01631 2.53018C4.07789 2.89611 3.27226 3.5376 2.70545 4.37022C2.13864 5.20283 1.83722 6.18756 1.84085 7.19479C1.84085 8.63073 2.46896 9.98117 3.49924 10.9181C1.56692 11.9056 0.148438 13.9967 0.148438 16.1628V16.8346C0.148438 17.7139 0.771316 18.4746 1.62537 18.6421C1.79287 18.6762 1.96909 18.7058 2.1488 18.7372L2.46809 18.7931C2.56958 18.8121 2.67383 18.8108 2.77481 18.7892C2.8758 18.7677 2.97152 18.7264 3.05644 18.6677C3.14137 18.6089 3.21382 18.534 3.2696 18.4471C3.32539 18.3602 3.36341 18.2631 3.38147 18.1615C3.41859 17.9566 3.37281 17.7454 3.2542 17.5742C3.13559 17.4031 2.95387 17.2861 2.749 17.249Z" fill="#8B5CF6" stroke="#06B6D4" stroke-width="0.3"></path>
</svg>
