<svg width="30" height="30" viewBox="0 0 30 30" fill="none" xmlns="http://www.w3.org/2000/svg">
<g clip-path="url(#clip0_2018_388)">
<path fill-rule="evenodd" clip-rule="evenodd" d="M28 3V28H3V3H28Z" fill="black"/>
<path d="M6.32125 11.8437C6.35625 12.17 6.45 12.775 6.5275 13.1875C6.605 13.6 6.8175 14.3025 6.99875 14.75C7.18125 15.1975 7.5775 15.9275 7.88125 16.375C8.18375 16.8225 8.7425 17.4875 9.1225 17.855C9.50125 18.2212 10.1225 18.725 10.5 18.9725C10.8775 19.22 11.4688 19.545 11.8125 19.6937C12.1563 19.8437 12.8025 20.0575 13.25 20.1687C13.6975 20.28 14.4 20.4075 14.8125 20.4525C15.2313 20.4975 16.0325 20.465 16.625 20.3775C17.2088 20.2925 18.025 20.1112 18.4375 19.9762C18.85 19.8412 19.5813 19.5012 20.0625 19.22C20.5525 18.9337 21.3813 18.265 21.9488 17.6987C22.5325 17.1137 23.1513 16.345 23.4138 15.875C23.6625 15.4275 23.9888 14.725 24.1363 14.3125C24.2838 13.9 24.48 13.0562 24.5725 12.4375C24.665 11.8187 24.7113 11.285 24.675 11.25C24.6388 11.215 24.1488 11.2537 23.5863 11.3337C23.0225 11.415 22.2813 11.575 21.9375 11.6912C21.5938 11.8062 20.955 12.0775 20.5175 12.2937C20.08 12.51 19.3625 12.9825 18.9238 13.3437C18.485 13.705 17.8713 14.3237 17.5613 14.7187C17.2513 15.1137 16.7763 15.8875 16.5063 16.4375C16.2363 16.9875 15.9275 17.775 15.8225 18.1875C15.7163 18.6 15.6175 19.1912 15.6025 19.5C15.5888 19.8087 15.545 18.6837 15.5075 17C15.4388 14.0125 15.4288 13.92 15.1063 13.25C14.9238 12.8712 14.5525 12.365 14.2813 12.125C14.0088 11.885 13.4838 11.5875 13.1125 11.4662C12.5388 11.2787 11.9713 11.245 9.34625 11.2475L6.85244 11.2495C6.5337 11.2498 6.28591 11.527 6.32125 11.8437Z" fill="white"/>
</g>
<defs>
<clipPath id="clip0_2018_388">
<rect width="25" height="25" fill="white" transform="translate(3 3)"/>
</clipPath>
</defs>
</svg>
