<?xml version="1.0" encoding="UTF-8"?>
<svg xmlns="http://www.w3.org/2000/svg" width="26" height="32" viewBox="0 0 26 32" fill="none">
  <path d="M8.47775 28.5564H1.72056C0.771875 28.5564 0 29.3283 0 30.2776C0 31.2263 0.771875 31.9982 1.72056 31.9982H11.5151C10.2583 31.1007 9.21525 29.9226 8.47775 28.5564ZM1.72056 26.6815H7.69906C7.42094 25.7603 7.27219 24.7847 7.27219 23.7747C7.27219 23.5953 7.27719 23.4172 7.28594 23.2403H1.72056C0.771875 23.2403 0 24.0122 0 24.9609C0 25.9097 0.771875 26.6815 1.72056 26.6815ZM1.72056 21.3655H7.56281C7.87094 20.1105 8.41463 18.9462 9.144 17.9238H1.72056C0.771875 17.9238 0 18.6957 0 19.6443C0 20.5936 0.771875 21.3655 1.72056 21.3655ZM1.72056 16.0488H10.8739C12.3807 14.7795 14.2624 13.9427 16.3261 13.7296C16.0824 13.0753 15.4512 12.6078 14.7131 12.6078H1.72056C0.771875 12.6078 0 13.3797 0 14.3283C0 15.277 0.771875 16.0488 1.72056 16.0488ZM11.5976 17.9237C10.6396 18.8693 9.91206 20.0473 9.50706 21.3654C7.82088 26.8513 12.1742 32.3447 17.8779 31.983C22.1777 31.7205 25.5951 28.1395 25.5951 23.7747C25.5951 16.5888 16.8533 12.7338 11.5976 17.9237ZM20.3391 25.9946C20.1697 27.0027 19.4347 28.0245 18.2848 28.4032V28.6532C18.2848 29.2055 17.8076 29.6334 17.2805 29.5882C16.7942 29.5538 16.4099 29.1488 16.4099 28.6532V28.5126C15.7934 28.431 15.3156 28.2054 14.7869 27.8589C14.6892 27.7954 14.6044 27.7139 14.5369 27.6189C13.9581 26.8089 14.8792 25.7797 15.7462 26.2496H15.7468C16.2432 26.5122 16.2336 26.6902 17.3167 26.6815C17.573 26.6796 17.7905 26.6077 17.9654 26.4933V26.4927C18.5732 26.0961 18.838 25.0059 17.8511 24.6565C17.0554 24.3762 15.6808 23.8612 15.1349 23.2153H15.1343C14.0299 21.945 14.6711 19.6575 16.4099 19.1499C16.4099 18.9092 16.3543 18.3966 16.8693 18.09C17.3979 17.7762 18.2848 17.9834 18.2848 19.1049C18.5008 19.1619 18.7929 19.2785 19.0851 19.4135C19.6647 19.6812 19.8162 20.4354 19.3834 20.9047C19.2478 21.0515 19.0689 21.1514 18.8727 21.1897C18.6765 21.228 18.4732 21.2028 18.2924 21.1177C18.0069 20.9833 17.6093 20.7439 16.9617 20.9411C16.4351 21.1005 16.3616 21.844 16.5723 22.0079C17.0287 22.3678 17.9237 22.6933 18.476 22.8885C19.8223 23.3648 20.5716 24.6128 20.3391 25.9946ZM4.40731 6.37928H5.57038C5.99225 6.37928 6.33413 6.72116 6.33413 7.14297V9.96909C6.33413 10.391 6.676 10.7328 7.09719 10.7328H9.33644C9.75769 10.7328 10.0996 10.3909 10.0996 9.96909V7.14297C10.0996 6.72109 10.4414 6.37928 10.8632 6.37928H12.0263C12.6363 6.37928 13 5.69866 12.6607 5.19122L8.8515 0.338906C8.549 -0.112969 7.88469 -0.112969 7.58219 0.338906L3.773 5.19122C3.43363 5.69866 3.79737 6.37928 4.40731 6.37928Z" fill="#F7185E"></path>
</svg>
