<svg width="30" height="30" viewBox="0 0 30 30" fill="none" xmlns="http://www.w3.org/2000/svg">
<g clip-path="url(#clip0_2008_311)">
<path d="M14.5 28C21.4036 28 27 22.4036 27 15.5C27 8.59644 21.4036 3 14.5 3C7.59644 3 2 8.59644 2 15.5C2 22.4036 7.59644 28 14.5 28Z" fill="url(#paint0_linear_2008_311)"/>
<path d="M11.145 15.4488C11.131 15.7126 11.222 15.9713 11.3981 16.1683C11.5743 16.3653 11.8212 16.4845 12.085 16.5H12.1437C12.3392 16.4997 12.5302 16.4422 12.6933 16.3345C12.8564 16.2268 12.9844 16.0737 13.0614 15.8941C13.1384 15.7145 13.1611 15.5162 13.1267 15.3239C13.0922 15.1315 13.0022 14.9534 12.8677 14.8117C12.7331 14.6699 12.56 14.5707 12.3697 14.5262C12.1794 14.4818 11.9802 14.4941 11.7968 14.5616C11.6134 14.6291 11.4538 14.7489 11.3378 14.9061C11.2217 15.0633 11.1543 15.2511 11.1437 15.4463L11.145 15.4488ZM7.3825 15.1963C7.30312 15.1973 7.227 15.228 7.16915 15.2824C7.11131 15.3368 7.07593 15.4109 7.07 15.49V15.5C7.06689 15.5849 7.09702 15.6677 7.15398 15.7307C7.21093 15.7937 7.29023 15.832 7.375 15.8375C7.45112 15.8259 7.52061 15.7875 7.57111 15.7294C7.6216 15.6713 7.64982 15.5971 7.65072 15.5201C7.65162 15.4431 7.62515 15.3683 7.57603 15.309C7.5269 15.2497 7.45832 15.2097 7.3825 15.1963ZM11.0825 9.64127C11.1585 9.60157 11.2157 9.53344 11.2417 9.45172C11.2677 9.37001 11.2603 9.28134 11.2212 9.20502C11.1816 9.12888 11.114 9.07108 11.0327 9.0438C10.9513 9.01652 10.8625 9.02189 10.785 9.05877C10.7125 9.10083 10.6588 9.1691 10.6351 9.24952C10.6114 9.32994 10.6195 9.4164 10.6576 9.49107C10.6957 9.56574 10.7611 9.62293 10.8401 9.65088C10.9192 9.67882 11.0059 9.67539 11.0825 9.64127ZM12.025 11.4438C12.0493 11.4341 12.0727 11.4224 12.095 11.4088C12.1595 11.3866 12.2188 11.3514 12.2692 11.3055C12.3195 11.2595 12.36 11.2037 12.3881 11.1416C12.4161 11.0794 12.4311 11.0121 12.4322 10.9439C12.4333 10.8758 12.4204 10.8081 12.3944 10.745C12.3683 10.682 12.3296 10.625 12.2807 10.5774C12.2318 10.5299 12.1737 10.4929 12.1099 10.4686C12.0462 10.4444 11.9782 10.4335 11.91 10.4365C11.8419 10.4395 11.7751 10.4565 11.7137 10.4863C11.6899 10.4959 11.6669 10.5076 11.645 10.5213C11.5343 10.5786 11.449 10.6752 11.4058 10.7922C11.3626 10.9092 11.3647 11.0381 11.4117 11.1536C11.4586 11.2691 11.5471 11.3629 11.6596 11.4166C11.7721 11.4703 11.9007 11.48 12.02 11.4438H12.025ZM9.26375 12.57C9.3334 12.4846 9.36634 12.375 9.35532 12.2654C9.34431 12.1557 9.29025 12.0549 9.205 11.985C9.18136 11.9658 9.15581 11.949 9.12875 11.935C9.05868 11.8997 8.98006 11.8849 8.90194 11.8923C8.82383 11.8998 8.74941 11.9291 8.68726 11.977C8.62511 12.0249 8.57776 12.0894 8.55069 12.1631C8.52361 12.2367 8.5179 12.3165 8.53422 12.3933C8.55053 12.47 8.58821 12.5406 8.64291 12.5969C8.69761 12.6531 8.76709 12.6928 8.84335 12.7113C8.91961 12.7297 8.99954 12.7263 9.07393 12.7013C9.14831 12.6763 9.21411 12.6308 9.26375 12.57ZM9.29 15.0125C9.19122 15.007 9.09302 15.0309 9.00782 15.0812C8.92263 15.1314 8.85426 15.2059 8.81138 15.295C8.7685 15.3842 8.75304 15.4841 8.76694 15.582C8.78085 15.68 8.8235 15.7716 8.8895 15.8453C8.9555 15.919 9.04188 15.9715 9.13771 15.996C9.23353 16.0206 9.3345 16.0162 9.42783 15.9834C9.52116 15.9506 9.60266 15.8908 9.66201 15.8117C9.72136 15.7325 9.7559 15.6376 9.76125 15.5388C9.76479 15.4731 9.75533 15.4074 9.73342 15.3453C9.71152 15.2833 9.67759 15.2262 9.63358 15.1773C9.58957 15.1285 9.53635 15.0887 9.47696 15.0605C9.41757 15.0322 9.35319 15.0159 9.2875 15.0125H9.29ZM8.73375 18.3675C8.63677 18.4161 8.56298 18.5011 8.52854 18.6039C8.4941 18.7068 8.50182 18.8191 8.55 18.9163C8.59973 19.0136 8.68607 19.0871 8.79004 19.1208C8.894 19.1544 9.00707 19.1454 9.10437 19.0956C9.20168 19.0459 9.27524 18.9596 9.30888 18.8556C9.34252 18.7516 9.33348 18.6386 9.28375 18.5413C9.23249 18.4467 9.14648 18.3756 9.04387 18.3432C8.94126 18.3108 8.83006 18.3195 8.73375 18.3675ZM10.6737 13.98C10.7996 14.073 10.9572 14.1122 11.1119 14.089C11.2666 14.0658 11.4058 13.9821 11.4987 13.8563C11.5917 13.7305 11.6309 13.5729 11.6077 13.4181C11.5845 13.2634 11.5008 13.1243 11.375 13.0313C11.3579 13.0185 11.3399 13.0068 11.3212 12.9963C11.2587 12.9539 11.1884 12.9243 11.1145 12.9091C11.0405 12.8939 10.9642 12.8934 10.89 12.9077C10.8158 12.9219 10.7452 12.9507 10.6821 12.9923C10.6191 13.0339 10.5648 13.0875 10.5225 13.15L10.51 13.1688C10.4244 13.2973 10.3932 13.4545 10.4235 13.6059C10.4537 13.7573 10.5428 13.8905 10.6713 13.9763L10.6737 13.98ZM16.8362 11.375C16.8912 11.411 16.9528 11.4358 17.0173 11.448C17.0819 11.4602 17.1482 11.4595 17.2126 11.4461C17.2769 11.4326 17.3379 11.4066 17.3922 11.3695C17.4464 11.3324 17.4928 11.285 17.5287 11.23C17.6021 11.1199 17.6289 10.9852 17.6031 10.8554C17.5773 10.7256 17.5011 10.6113 17.3912 10.5375C17.2806 10.465 17.1457 10.4393 17.0162 10.466C16.8866 10.4927 16.7729 10.5697 16.7 10.68C16.6631 10.7331 16.6371 10.7929 16.6234 10.856C16.6097 10.9191 16.6087 10.9844 16.6203 11.0479C16.6319 11.1114 16.656 11.1721 16.6911 11.2263C16.7262 11.2805 16.7717 11.3272 16.825 11.3638L16.8362 11.375ZM17.8612 9.60627C17.895 9.62952 17.9331 9.64587 17.9732 9.65437C18.0133 9.66287 18.0547 9.66336 18.095 9.65581C18.1353 9.64826 18.1737 9.63282 18.2081 9.61037C18.2424 9.58793 18.2719 9.55892 18.295 9.52502L18.305 9.51003C18.3283 9.47523 18.3446 9.43618 18.3528 9.39511C18.361 9.35403 18.3611 9.31173 18.353 9.27064C18.3449 9.22954 18.3287 9.19045 18.3055 9.1556C18.2822 9.12074 18.2523 9.09082 18.2175 9.06752C18.1855 9.03673 18.1476 9.01277 18.1061 8.99713C18.0645 8.98149 18.0203 8.97449 17.9759 8.97655C17.9316 8.97862 17.8881 8.98972 17.8482 9.00916C17.8083 9.0286 17.7728 9.05597 17.7439 9.08961C17.7149 9.12325 17.6931 9.16245 17.6798 9.2048C17.6665 9.24715 17.662 9.29177 17.6666 9.33592C17.6711 9.38007 17.6847 9.42283 17.7063 9.46158C17.728 9.50033 17.7573 9.53425 17.7925 9.56128C17.8135 9.57907 17.8366 9.59419 17.8612 9.60627ZM15.8587 15.435C15.8441 15.6997 15.9351 15.9594 16.1119 16.157C16.2886 16.3546 16.5366 16.4739 16.8012 16.4888H16.8562C17.0517 16.4885 17.2427 16.431 17.4058 16.3233C17.5689 16.2156 17.6969 16.0625 17.7739 15.8828C17.8509 15.7032 17.8736 15.505 17.8392 15.3126C17.8047 15.1202 17.7147 14.9422 17.5802 14.8004C17.4456 14.6587 17.2725 14.5594 17.0822 14.515C16.8919 14.4705 16.6927 14.4828 16.5093 14.5503C16.3259 14.6179 16.1663 14.7376 16.0503 14.8949C15.9342 15.0521 15.8668 15.2399 15.8562 15.435H15.8587ZM12.4212 13.9038C12.5208 14.108 12.687 14.2723 12.8924 14.3694C13.0978 14.4666 13.3302 14.4909 13.5513 14.4384C13.7724 14.3858 13.969 14.2596 14.1087 14.0804C14.2484 13.9012 14.3229 13.6797 14.32 13.4525C14.3203 13.2957 14.2821 13.1412 14.2087 13.0025C14.0892 12.7655 13.8805 12.5856 13.6283 12.5025C13.3762 12.4194 13.1014 12.4399 12.8644 12.5594C12.6273 12.6789 12.4475 12.8877 12.3644 13.1398C12.2813 13.3919 12.3017 13.6667 12.4212 13.9038ZM19.885 11.89C19.7873 11.9402 19.7136 12.0271 19.6798 12.1316C19.6461 12.2361 19.6551 12.3497 19.705 12.4475C19.7573 12.5441 19.8451 12.6165 19.9498 12.6496C20.0545 12.6827 20.1679 12.6739 20.2662 12.625C20.3204 12.6039 20.3695 12.5717 20.4105 12.5305C20.4514 12.4893 20.4833 12.44 20.504 12.3857C20.5248 12.3314 20.5339 12.2734 20.5309 12.2153C20.5278 12.1573 20.5127 12.1006 20.4864 12.0487C20.4601 11.9969 20.4232 11.9512 20.3781 11.9145C20.3331 11.8778 20.2809 11.8509 20.2248 11.8356C20.1688 11.8203 20.1101 11.8169 20.0527 11.8256C19.9952 11.8344 19.9402 11.855 19.8912 11.8863L19.885 11.89ZM17.7387 12.9425H17.73C17.6613 12.9761 17.5999 13.0229 17.5494 13.0803C17.4989 13.1376 17.4602 13.2044 17.4356 13.2768C17.4109 13.3492 17.4009 13.4257 17.4059 13.502C17.411 13.5783 17.431 13.6528 17.465 13.7213C17.516 13.8259 17.5968 13.9131 17.6973 13.9719C17.7978 14.0306 17.9134 14.0582 18.0296 14.0512C18.1458 14.0443 18.2573 14.003 18.3501 13.9327C18.4428 13.8623 18.5127 13.7661 18.5507 13.6561C18.5888 13.5461 18.5934 13.4273 18.5639 13.3146C18.5345 13.202 18.4723 13.1007 18.3853 13.0234C18.2983 12.9461 18.1903 12.8963 18.075 12.8803C17.9597 12.8644 17.8422 12.883 17.7375 12.9338L17.7387 12.9425ZM14.4587 9.45377C14.5391 9.45752 14.6188 9.43747 14.6878 9.39612C14.7569 9.35477 14.8122 9.29396 14.8468 9.22133C14.8814 9.14869 14.8938 9.06746 14.8825 8.9878C14.8711 8.90814 14.8365 8.8336 14.783 8.77353C14.7294 8.71346 14.6594 8.67052 14.5815 8.6501C14.5037 8.62968 14.4216 8.63269 14.3454 8.65874C14.2693 8.68479 14.2026 8.73274 14.1536 8.79656C14.1046 8.86038 14.0755 8.93725 14.07 9.01752C14.0664 9.12624 14.1048 9.23216 14.1772 9.31337C14.2495 9.39458 14.3503 9.44485 14.4587 9.45377ZM14.45 12.0313H14.4587C14.5748 12.0377 14.6902 12.0096 14.7903 11.9506C14.8905 11.8916 14.9709 11.8042 15.0215 11.6995C15.072 11.5948 15.0905 11.4775 15.0745 11.3624C15.0585 11.2473 15.0087 11.1394 14.9316 11.0525C14.8544 10.9656 14.7532 10.9034 14.6407 10.8739C14.5283 10.8444 14.4096 10.8489 14.2997 10.8867C14.1898 10.9246 14.0935 10.9941 14.0231 11.0866C13.9526 11.179 13.9111 11.2903 13.9037 11.4063C13.898 11.4833 13.9076 11.5607 13.932 11.634C13.9564 11.7073 13.9952 11.775 14.046 11.8331C14.0969 11.8913 14.1588 11.9388 14.2281 11.9728C14.2975 12.0068 14.3729 12.0267 14.45 12.0313ZM11.2612 18.0525H11.27C11.3386 18.0187 11.3999 17.9717 11.4504 17.9142C11.5008 17.8567 11.5394 17.7898 11.564 17.7174C11.5887 17.645 11.5988 17.5684 11.5938 17.4921C11.5888 17.4157 11.5688 17.3411 11.535 17.2725C11.484 17.1679 11.4032 17.0807 11.3027 17.0219C11.2022 16.9632 11.0866 16.9356 10.9704 16.9426C10.8542 16.9495 10.7427 16.9908 10.6499 17.0611C10.5572 17.1315 10.4873 17.2277 10.4493 17.3377C10.4112 17.4477 10.4066 17.5665 10.4361 17.6792C10.4655 17.7918 10.5277 17.8931 10.6147 17.9704C10.7017 18.0477 10.8097 18.0975 10.925 18.1135C11.0403 18.1294 11.1578 18.1108 11.2625 18.06L11.2612 18.0525ZM14.84 12.905C14.7175 13.0911 14.6606 13.3128 14.6784 13.5349C14.6962 13.757 14.7876 13.9668 14.9383 14.131C15.0889 14.2952 15.29 14.4044 15.5098 14.4412C15.7295 14.4781 15.9553 14.4405 16.1512 14.3344C16.3472 14.2283 16.5021 14.0599 16.5914 13.8557C16.6807 13.6516 16.6992 13.4235 16.6441 13.2076C16.5889 12.9917 16.4633 12.8004 16.287 12.6641C16.1108 12.5277 15.8941 12.4542 15.6712 12.455C15.5061 12.4543 15.3434 12.4952 15.1981 12.5738C15.0529 12.6524 14.9297 12.7663 14.84 12.905ZM16.58 17.1V17.0925C16.4917 16.9154 16.3528 16.7685 16.181 16.6704C16.0091 16.5723 15.812 16.5273 15.6146 16.5413C15.4172 16.5553 15.2284 16.6275 15.072 16.7488C14.9157 16.8701 14.7989 17.0351 14.7363 17.2228C14.6738 17.4106 14.6684 17.6127 14.7208 17.8035C14.7732 17.9944 14.881 18.1654 15.0306 18.2949C15.1802 18.4244 15.3649 18.5066 15.5613 18.5311C15.7577 18.5556 15.9569 18.5213 16.1337 18.4325C16.2506 18.3744 16.3549 18.2939 16.4407 18.1954C16.5264 18.097 16.5918 17.9826 16.6333 17.8588C16.6747 17.7351 16.6914 17.6043 16.6822 17.4741C16.6731 17.3439 16.6383 17.2168 16.58 17.1ZM18.3262 17.015C18.2004 16.9224 18.043 16.8835 17.8885 16.9069C17.734 16.9304 17.5952 17.0142 17.5025 17.14C17.4098 17.2658 17.371 17.4233 17.3944 17.5778C17.4178 17.7323 17.5017 17.8711 17.6275 17.9638C17.6446 17.977 17.6626 17.9891 17.6812 18C17.7439 18.0423 17.8142 18.0719 17.8882 18.087C17.9623 18.1021 18.0386 18.1025 18.1128 18.0881C18.1869 18.0737 18.2576 18.0448 18.3206 18.0031C18.3836 17.9614 18.4378 17.9077 18.48 17.845L18.4925 17.8263C18.5781 17.6978 18.6093 17.5406 18.579 17.3891C18.5488 17.2377 18.4597 17.1045 18.3312 17.0188L18.3262 17.015ZM19.7125 16.025C19.7791 16.0286 19.8457 16.0187 19.9084 15.9961C19.9712 15.9735 20.0288 15.9386 20.0778 15.8934C20.1268 15.8482 20.1663 15.7937 20.194 15.733C20.2216 15.6723 20.2368 15.6067 20.2387 15.54C20.24 15.5259 20.24 15.5117 20.2387 15.4975C20.2333 15.4013 20.2001 15.3086 20.1432 15.2308C20.0863 15.1529 20.0081 15.0932 19.918 15.0588C19.8279 15.0244 19.7298 15.0168 19.6355 15.0368C19.5412 15.0569 19.4547 15.1038 19.3864 15.1719C19.3182 15.24 19.271 15.3264 19.2508 15.4207C19.2305 15.5149 19.2379 15.6131 19.2721 15.7032C19.3063 15.7934 19.3658 15.8717 19.4435 15.9288C19.5212 15.9859 19.6137 16.0193 19.71 16.025H19.7125ZM21.625 15.1575C21.5832 15.1548 21.5413 15.1604 21.5017 15.1738C21.462 15.1873 21.4255 15.2085 21.394 15.2361C21.3625 15.2637 21.3368 15.2973 21.3183 15.3348C21.2999 15.3724 21.289 15.4132 21.2862 15.455V15.4625C21.2834 15.5044 21.2888 15.5464 21.3022 15.5862C21.3156 15.626 21.3367 15.6627 21.3644 15.6943C21.392 15.7259 21.4256 15.7517 21.4633 15.7703C21.5009 15.7889 21.5419 15.7998 21.5837 15.8025H21.5912C21.6768 15.8072 21.7607 15.7776 21.8244 15.7204C21.8882 15.6632 21.9266 15.5831 21.9312 15.4975C21.9359 15.412 21.9064 15.3281 21.8492 15.2644C21.792 15.2006 21.7118 15.1622 21.6262 15.1575H21.625ZM19.7362 18.425C19.6666 18.5104 19.6337 18.62 19.6447 18.7297C19.6557 18.8393 19.7098 18.9402 19.795 19.01C19.8183 19.0297 19.8439 19.0465 19.8712 19.06C19.9413 19.0953 20.0199 19.1101 20.0981 19.1027C20.1762 19.0953 20.2506 19.0659 20.3127 19.018C20.3749 18.9701 20.4222 18.9056 20.4493 18.832C20.4764 18.7583 20.4821 18.6785 20.4658 18.6018C20.4495 18.525 20.4118 18.4544 20.3571 18.3982C20.3024 18.3419 20.2329 18.3023 20.1566 18.2838C20.0804 18.2653 20.0005 18.2688 19.9261 18.2938C19.8517 18.3187 19.7859 18.3643 19.7362 18.425ZM11.1387 21.3888C11.0669 21.3411 10.9791 21.3238 10.8946 21.3407C10.81 21.3575 10.7356 21.4072 10.6875 21.4788C10.6419 21.5513 10.6259 21.6386 10.6429 21.7227C10.6599 21.8067 10.7085 21.8809 10.7788 21.93C10.8514 21.9766 10.9395 21.9925 11.0239 21.9742C11.1082 21.9559 11.1819 21.905 11.2287 21.8325C11.2755 21.7622 11.2926 21.6761 11.2762 21.5932C11.2598 21.5103 11.2113 21.4373 11.1412 21.39L11.1387 21.3888ZM17.9175 21.3538C17.8414 21.3937 17.7842 21.4621 17.7582 21.544C17.7322 21.6259 17.7396 21.7148 17.7787 21.7913C17.8186 21.8672 17.8863 21.9247 17.9676 21.9518C18.049 21.9788 18.1377 21.9733 18.215 21.9363C18.2875 21.8942 18.3412 21.826 18.3649 21.7455C18.3886 21.6651 18.3805 21.5787 18.3424 21.504C18.3043 21.4293 18.2389 21.3721 18.1599 21.3442C18.0808 21.3162 17.9941 21.3197 17.9175 21.3538ZM14.16 18.09C14.2678 17.9243 14.324 17.7304 14.3217 17.5328C14.3193 17.3352 14.2584 17.1427 14.1467 16.9796C14.035 16.8166 13.8775 16.6903 13.6941 16.6167C13.5107 16.5431 13.3095 16.5255 13.1161 16.5661C12.9227 16.6068 12.7457 16.7038 12.6073 16.845C12.469 16.9862 12.3757 17.1652 12.339 17.3594C12.3024 17.5536 12.3242 17.7544 12.4015 17.9362C12.4789 18.1181 12.6084 18.273 12.7737 18.3813C12.9375 18.485 13.1274 18.54 13.3212 18.54C13.488 18.5437 13.6528 18.5041 13.7998 18.4253C13.9468 18.3465 14.0708 18.231 14.16 18.09ZM12.1637 19.6563C12.1088 19.6203 12.0472 19.5955 11.9827 19.5833C11.9181 19.5711 11.8518 19.5718 11.7874 19.5852C11.7231 19.5987 11.6621 19.6247 11.6078 19.6618C11.5536 19.6989 11.5072 19.7463 11.4712 19.8013C11.3979 19.9114 11.3711 20.0461 11.3969 20.1759C11.4227 20.3057 11.4989 20.42 11.6087 20.4938C11.7194 20.5663 11.8542 20.592 11.9838 20.5653C12.1134 20.5386 12.2271 20.4616 12.3 20.3513C12.3369 20.2982 12.3629 20.2384 12.3766 20.1753C12.3903 20.1122 12.3913 20.0469 12.3797 19.9834C12.3681 19.9199 12.344 19.8592 12.3089 19.805C12.2738 19.7508 12.2283 19.7041 12.175 19.6675L12.1637 19.6563ZM14.5087 21.5425H14.5C14.3916 21.5371 14.2855 21.5748 14.2049 21.6474C14.1243 21.7201 14.0758 21.8217 14.07 21.93C14.0658 22.0107 14.0855 22.0908 14.1266 22.1603C14.1677 22.2298 14.2284 22.2856 14.3012 22.3207C14.3739 22.3558 14.4554 22.3687 14.5354 22.3576C14.6154 22.3466 14.6903 22.3122 14.7508 22.2588C14.8114 22.2053 14.8548 22.1352 14.8756 22.0572C14.8964 21.9791 14.8937 21.8967 14.8679 21.8202C14.842 21.7437 14.7941 21.6765 14.7302 21.6271C14.6663 21.5777 14.5893 21.5483 14.5087 21.5425ZM14.5087 18.9638H14.5C14.3839 18.9571 14.2684 18.9849 14.1681 19.0438C14.0678 19.1027 13.9872 19.19 13.9365 19.2946C13.8857 19.3992 13.8671 19.5166 13.8829 19.6318C13.8988 19.747 13.9484 19.8549 14.0255 19.942C14.1026 20.029 14.2038 20.0913 14.3163 20.1209C14.4287 20.1505 14.5475 20.1461 14.6574 20.1084C14.7674 20.0706 14.8638 20.0011 14.9343 19.9086C15.0048 19.8161 15.0464 19.7048 15.0537 19.5888C15.0595 19.5118 15.05 19.4345 15.0256 19.3613C15.0013 19.2881 14.9626 19.2205 14.9119 19.1623C14.8612 19.1042 14.7995 19.0567 14.7303 19.0226C14.661 18.9885 14.5858 18.9685 14.5087 18.9638ZM16.905 19.5875C16.817 19.6328 16.7444 19.7033 16.6965 19.7899C16.6486 19.8764 16.6274 19.9753 16.6357 20.0739C16.644 20.1726 16.6814 20.2665 16.7431 20.3439C16.8048 20.4213 16.8881 20.4786 16.9825 20.5085C17.0768 20.5385 17.1779 20.5398 17.273 20.5123C17.3681 20.4848 17.4528 20.4297 17.5165 20.3539C17.5803 20.2782 17.6201 20.1852 17.6309 20.0869C17.6418 19.9885 17.6232 19.8891 17.5775 19.8013C17.5165 19.6839 17.4114 19.5956 17.2854 19.5555C17.1594 19.5155 17.0226 19.527 16.905 19.5875Z" fill="white"/>
</g>
<defs>
<linearGradient id="paint0_linear_2008_311" x1="14.5" y1="28" x2="14.5" y2="3" gradientUnits="userSpaceOnUse">
<stop stop-color="#072D8C"/>
<stop offset="1" stop-color="#0C4EF5"/>
</linearGradient>
<clipPath id="clip0_2008_311">
<rect width="25" height="25" fill="white" transform="translate(2 3)"/>
</clipPath>
</defs>
</svg>
