<?xml version="1.0" encoding="UTF-8"?>
<svg xmlns="http://www.w3.org/2000/svg" width="56" height="56" viewBox="0 0 56 56" fill="none">
  <g clip-path="url(#clip0_2584_7485)">
    <path d="M15.812 27.8196C15.6968 29.8254 17.2385 31.5425 19.2413 31.658C19.3133 31.658 19.3854 31.658 19.4574 31.658C21.4746 31.658 23.1028 30.0274 23.0884 28.0072C23.0884 25.987 21.4602 24.3564 19.443 24.3708C17.5122 24.3708 15.9129 25.886 15.812 27.8196Z" fill="#0033AD"></path>
    <path d="M2.23913 26.8817C1.59074 26.8384 1.02881 27.3434 0.999988 27.9928C0.971171 28.6421 1.46106 29.2049 2.10945 29.2338C2.75784 29.2771 3.30536 28.772 3.34859 28.1227C3.39182 27.4733 2.88751 26.925 2.23913 26.8817Z" fill="#0033AD"></path>
    <path d="M15.5815 6.66523C16.1578 6.37663 16.3884 5.65513 16.1002 5.07793C15.812 4.50073 15.0916 4.26985 14.5153 4.55845C13.9389 4.84705 13.7084 5.55412 13.9966 6.13132C14.2847 6.72295 14.9908 6.96826 15.5815 6.66523Z" fill="#0033AD"></path>
    <path d="M19.2701 13.1154C20.1635 12.6681 20.5237 11.5714 20.077 10.6768C19.6303 9.78211 18.5353 9.42135 17.642 9.86869C16.7486 10.316 16.3884 11.4127 16.8351 12.3074C17.2817 13.202 18.3768 13.5628 19.2701 13.1154Z" fill="#0033AD"></path>
    <path d="M6.84989 17.5454C7.5415 17.9928 8.46365 17.8052 8.92473 17.1125C9.3714 16.4199 9.18408 15.4964 8.49247 15.0346C7.80086 14.5873 6.87871 14.7749 6.41763 15.4675C5.95656 16.1602 6.15828 17.0981 6.84989 17.5454Z" fill="#0033AD"></path>
    <path d="M9.05441 26.2323C8.04581 26.1746 7.1957 26.9394 7.13807 27.9495C7.08043 28.9596 7.84409 29.811 8.85269 29.8687C9.86129 29.9264 10.7114 29.1616 10.769 28.1515C10.8267 27.1558 10.063 26.29 9.05441 26.2323Z" fill="#0033AD"></path>
    <path d="M7.05162 38.4546C6.31679 38.8297 6.0142 39.7244 6.38883 40.4748C6.76345 41.2107 7.65679 41.5137 8.40603 41.1385C9.14087 40.7634 9.44345 39.8687 9.06883 39.1183C8.6942 38.3824 7.78646 38.0794 7.05162 38.4546Z" fill="#0033AD"></path>
    <path d="M14.1118 22.4661C15.106 23.1155 16.4316 22.8413 17.0656 21.8456C17.7139 20.8499 17.4402 19.5224 16.446 18.8875C15.4518 18.2381 14.1262 18.5123 13.4922 19.508C12.8438 20.4892 13.1176 21.8168 14.1118 22.4661Z" fill="#0033AD"></path>
    <path d="M36.5172 12.9711C37.3529 13.5195 38.4912 13.2886 39.0387 12.4516C39.5862 11.6147 39.3557 10.4747 38.52 9.92639C37.6843 9.37805 36.546 9.60893 35.9985 10.4459C35.4366 11.2972 35.6671 12.4228 36.5172 12.9711Z" fill="#0033AD"></path>
    <path d="M40.2346 6.54978C40.7822 6.91053 41.5026 6.7518 41.8628 6.20346C42.223 5.65512 42.0645 4.93361 41.517 4.57286C40.9695 4.21211 40.249 4.37084 39.8888 4.90475C39.543 5.4531 39.7015 6.18903 40.2346 6.54978Z" fill="#0033AD"></path>
    <path d="M36.791 24.342C34.7882 24.2266 33.0591 25.7706 32.9583 27.7764C32.843 29.7821 34.3847 31.5137 36.3875 31.6147C36.4596 31.6147 36.5316 31.6147 36.5892 31.6147C38.592 31.6147 40.2202 29.9841 40.2202 27.9639C40.2346 26.0448 38.7217 24.443 36.791 24.342Z" fill="#0033AD"></path>
    <path d="M20.466 22.2064C21.0856 23.4329 22.3391 24.2121 23.7224 24.2121C25.7252 24.2121 27.3533 22.5815 27.3533 20.5613C27.3533 19.9986 27.2236 19.4358 26.9643 18.9163C26.0566 17.1126 23.8664 16.3911 22.0798 17.3002C20.2787 18.2237 19.5583 20.417 20.466 22.2064Z" fill="#0033AD"></path>
    <path d="M48.9806 17.5455C49.7155 17.1703 50.0037 16.2612 49.629 15.5253C49.2544 14.7893 48.3467 14.5007 47.6118 14.8759C46.877 15.2511 46.5888 16.1458 46.949 16.8817C47.3381 17.6176 48.2314 17.9206 48.9806 17.5455Z" fill="#0033AD"></path>
    <path d="M39.7591 18.6999C38.7073 19.2338 38.275 20.518 38.8082 21.5714C39.3413 22.6248 40.6236 23.0577 41.6755 22.5238C42.7273 21.9899 43.1596 20.7056 42.6264 19.6522C42.0933 18.5989 40.811 18.1804 39.7591 18.6999Z" fill="#0033AD"></path>
    <path d="M27.872 6.00144C28.6933 6.04473 29.3993 5.40981 29.457 4.5873C29.5146 3.76479 28.8662 3.05772 28.0449 3C27.2236 2.95671 26.5176 3.5772 26.46 4.39971C26.4167 5.23665 27.0507 5.94372 27.872 6.00144Z" fill="#0033AD"></path>
    <path d="M27.8576 15.4242C29.0391 15.4964 30.0477 14.5873 30.1054 13.404C30.1774 12.2208 29.2697 11.2107 28.0882 11.1529C26.9066 11.0808 25.898 11.9899 25.8404 13.1731C25.7828 14.3564 26.6761 15.3665 27.8576 15.4242Z" fill="#0033AD"></path>
    <path d="M16.2731 37.3001C17.325 36.7662 17.7572 35.4819 17.2241 34.4285C16.691 33.3751 15.4086 32.9422 14.3568 33.4762C13.305 34.0101 12.8727 35.2943 13.4058 36.3477C13.9389 37.4011 15.2213 37.834 16.2731 37.3001Z" fill="#0033AD"></path>
    <path d="M29.2408 18.5555C28.1458 20.2439 28.6069 22.4949 30.2927 23.5916C31.9785 24.6883 34.2262 24.2265 35.3213 22.5382C36.4163 20.8499 35.9552 18.5988 34.2694 17.5022C33.6787 17.1125 32.9871 16.9105 32.2811 16.9105C31.0563 16.9105 29.918 17.531 29.2408 18.5555Z" fill="#0033AD"></path>
    <path d="M35.5662 33.7936C34.6585 31.9899 32.4684 31.2684 30.6817 32.1775C28.8806 33.0866 28.1602 35.2799 29.0679 37.0693C29.9757 38.873 32.1658 39.5945 33.9525 38.6854C35.7391 37.7908 36.474 35.6263 35.5806 33.8225C35.5806 33.8081 35.5806 33.8081 35.5662 33.7936Z" fill="#0033AD"></path>
    <path d="M41.9204 33.5339C40.9262 32.8845 39.6006 33.1587 38.9667 34.1544C38.3183 35.15 38.592 36.4776 39.5862 37.1125C40.5804 37.7619 41.906 37.4877 42.54 36.492C43.1884 35.5108 42.9146 34.1832 41.9204 33.5339Z" fill="#0033AD"></path>
    <path d="M48.8942 28.065C48.9518 27.0549 48.1881 26.2035 47.1795 26.1458C46.1709 26.088 45.3208 26.8528 45.2632 27.8629C45.2056 28.873 45.9692 29.7244 46.9778 29.7821C47.972 29.8398 48.8365 29.0606 48.8942 28.065Z" fill="#0033AD"></path>
    <path d="M53.9228 26.7663C53.2744 26.723 52.7125 27.228 52.6836 27.8774C52.6548 28.5267 53.1447 29.0895 53.7931 29.1184C54.4415 29.1616 54.989 28.6566 55.0322 28.0072C55.0611 27.3579 54.5712 26.8096 53.9228 26.7663Z" fill="#0033AD"></path>
    <path d="M49.1824 38.4545C48.4908 38.0072 47.5686 38.1948 47.1076 38.8874C46.6609 39.5801 46.8482 40.5036 47.5398 40.9654C48.2314 41.4127 49.1536 41.2251 49.6147 40.5325C50.0757 39.8398 49.874 38.9019 49.1824 38.4545Z" fill="#0033AD"></path>
    <path d="M15.7832 49.4502C15.2357 49.0895 14.5153 49.2482 14.1551 49.7821C13.7949 50.3304 13.9533 51.0519 14.4865 51.4127C15.034 51.7734 15.7544 51.6147 16.1146 51.0808C16.4893 50.5469 16.3308 49.811 15.7832 49.4502Z" fill="#0033AD"></path>
    <path d="M40.4508 49.3348C39.8744 49.6234 39.6439 50.3449 39.932 50.9221C40.2202 51.4993 40.9406 51.7301 41.517 51.4415C42.0933 51.1529 42.3239 50.4459 42.0357 49.8687C41.7475 49.277 41.0415 49.0317 40.4508 49.3348Z" fill="#0033AD"></path>
    <path d="M26.7914 37.4444C27.8864 35.7561 27.4254 33.5051 25.7396 32.3939C24.0537 31.2973 21.806 31.759 20.6965 33.4473C19.5871 35.1356 20.0626 37.3867 21.7484 38.4978C22.3391 38.8875 23.0307 39.0895 23.7368 39.0895C24.9759 39.1039 26.1142 38.4834 26.7914 37.4444Z" fill="#0033AD"></path>
    <path d="M19.5151 43.0289C18.6794 42.4805 17.5411 42.7114 16.9936 43.5484C16.4461 44.3853 16.6766 45.5253 17.5123 46.0736C18.348 46.6219 19.4863 46.3911 20.0338 45.5541C20.5957 44.7172 20.3652 43.5772 19.5151 43.0289Z" fill="#0033AD"></path>
    <path d="M28.0017 49.9985C27.1804 49.9553 26.4744 50.5902 26.4168 51.4127C26.3591 52.2352 27.0075 52.9423 27.8288 53C28.6501 53.0433 29.3561 52.4228 29.4138 51.6003C29.457 50.7633 28.823 50.0563 28.0017 49.9985Z" fill="#0033AD"></path>
    <path d="M28.0162 40.5758C26.8347 40.5036 25.826 41.4127 25.7684 42.596C25.6964 43.7793 26.6041 44.7894 27.7856 44.8471C28.9671 44.9048 29.9757 44.0101 30.0334 42.8269C30.1054 41.658 29.1977 40.6335 28.0162 40.5758Z" fill="#0033AD"></path>
    <path d="M36.7622 42.8845C35.8689 43.3463 35.5086 44.443 35.9697 45.3376C36.4308 46.2323 37.5258 46.5931 38.4192 46.1313C39.3125 45.684 39.6727 44.5873 39.2261 43.6926C38.765 42.798 37.6699 42.4228 36.7622 42.8845Z" fill="#0033AD"></path>
  </g>
  <defs>
    <clipPath id="clip0_2584_7485">
      <rect width="54.0323" height="50" fill="white" transform="translate(1 3)"></rect>
    </clipPath>
  </defs>
</svg>
