<svg width="30" height="30" viewBox="0 0 30 30" fill="none" xmlns="http://www.w3.org/2000/svg">
<g clip-path="url(#clip0_2018_376)">
<mask id="mask0_2018_376" style="mask-type:luminance" maskUnits="userSpaceOnUse" x="3" y="3" width="25" height="25">
<path d="M28 3H3V28H28V3Z" fill="white"/>
</mask>
<g mask="url(#mask0_2018_376)">
<path d="M25.0703 3H5.92969C4.31167 3 3 4.31167 3 5.92969V25.0703C3 26.6883 4.31167 28 5.92969 28H25.0703C26.6883 28 28 26.6883 28 25.0703V5.92969C28 4.31167 26.6883 3 25.0703 3Z" fill="#0052FF"/>
<path d="M15.4756 4.95312C21.3139 4.95312 26.0469 9.68613 26.0469 15.5244C26.0469 21.3627 21.3139 26.0957 15.4756 26.0957C9.6373 26.0957 4.9043 21.3627 4.9043 15.5244C4.9043 9.68613 9.6373 4.95312 15.4756 4.95312Z" fill="#0052FF"/>
<path d="M15.4801 19.198C13.4255 19.198 11.7653 17.5332 11.7653 15.4832C11.7653 13.4331 13.4301 11.7683 15.4801 11.7683C17.3192 11.7683 18.8464 13.1075 19.14 14.864H22.8823C22.5659 11.0482 19.3739 8.04883 15.4756 8.04883C11.3709 8.04883 8.04126 11.3785 8.04126 15.4832C8.04126 19.5878 11.3709 22.9174 15.4756 22.9174C19.3739 22.9174 22.5659 19.9181 22.8823 16.1023H19.1354C18.8418 17.8588 17.3192 19.198 15.4801 19.198Z" fill="white"/>
</g>
</g>
<defs>
<clipPath id="clip0_2018_376">
<rect width="25" height="25" fill="white" transform="translate(3 3)"/>
</clipPath>
</defs>
</svg>
