<svg width="30" height="30" viewBox="0 0 30 30" fill="none" xmlns="http://www.w3.org/2000/svg">
<g clip-path="url(#clip0_2021_7614)">
<path d="M15.5 28C22.4037 28 28 22.4037 28 15.5C28 8.59625 22.4037 3 15.5 3C8.59625 3 3 8.59625 3 15.5C3 22.4037 8.59625 28 15.5 28Z" fill="#070A0E"/>
<path fill-rule="evenodd" clip-rule="evenodd" d="M10.2213 19.6912C9.84752 19.4625 9.61877 19.0562 9.61877 18.6187V16.1762C9.61877 15.8862 9.85502 15.6512 10.145 15.6525C10.2375 15.6525 10.3288 15.6775 10.4088 15.7237L15.92 18.9375C16.2425 19.125 16.4413 19.47 16.4413 19.8437V22.3737C16.4425 22.7212 16.1613 23.0037 15.8138 23.0037C15.6975 23.0037 15.5825 22.9712 15.4838 22.9112L10.2213 19.6912ZM18.4363 15.055C18.7588 15.2425 18.9563 15.5887 18.9575 15.9612V21.0962C18.9575 21.2475 18.8763 21.3875 18.7438 21.4612L17.5375 22.14C17.5225 22.1487 17.5063 22.155 17.4888 22.16V19.3087C17.4888 18.94 17.295 18.5975 16.9775 18.4075L12.1375 15.5125V12.2937C12.1375 12.0037 12.3738 11.7687 12.6638 11.77C12.7563 11.77 12.8475 11.795 12.9275 11.8412L18.4363 15.055ZM20.8488 11.2625C21.1725 11.45 21.3713 11.7962 21.3713 12.17V19.67C21.37 19.8237 21.285 19.965 21.15 20.0387L20.0063 20.6562V15.435C20.0063 15.0662 19.8125 14.725 19.4975 14.535L14.55 11.5675V8.51497C14.55 8.42247 14.575 8.33122 14.62 8.25122C14.7663 8.00122 15.0875 7.91622 15.3375 8.06122L20.8488 11.2625Z" fill="#00D395"/>
</g>
<defs>
<clipPath id="clip0_2021_7614">
<rect width="25" height="25" fill="white" transform="translate(3 3)"/>
</clipPath>
</defs>
</svg>
