<?xml version="1.0" encoding="UTF-8"?>
<svg xmlns="http://www.w3.org/2000/svg" width="30" height="32" viewBox="0 0 30 32" fill="none">
  <path fill-rule="evenodd" clip-rule="evenodd" d="M22.0756 19.7951L25.4521 25.6434L26.6052 24.4902L25.5141 22.0333C26.434 20.6631 27.0944 19.1041 27.4239 17.4262L29.931 16.4611V13.47L27.4245 12.5052C27.0949 10.8271 26.4347 9.26744 25.5144 7.89706L26.6052 5.44088L24.4902 3.32588L22.0333 4.41706C20.663 3.49719 19.104 2.83681 17.4261 2.50725L16.461 0H13.4699L12.5049 2.50712C10.8269 2.83669 9.26794 3.49706 7.89769 4.41694L5.44081 3.32575L3.32575 5.44081L4.41681 7.89756C3.49675 9.26775 2.83644 10.827 2.50694 12.505L0 13.4699V16.4611L2.50656 17.4259C2.83625 19.104 3.49638 20.6637 4.41663 22.0341L3.32575 24.4902L4.47887 25.6434L7.85538 19.7951C6.9185 18.4186 6.37075 16.7561 6.37075 14.9655C6.37075 10.2188 10.2188 6.37075 14.9655 6.37075C19.7122 6.37075 23.5602 10.2188 23.5602 14.9655C23.5602 16.7561 23.0125 18.4186 22.0756 19.7951ZM16.8899 14.0673L25.3189 28.6668C25.7213 29.3638 25.7213 30.192 25.3189 30.8889C24.9166 31.5859 24.1993 32 23.3946 32H6.53644C5.73169 32 5.01444 31.5858 4.61206 30.8889C4.20969 30.1921 4.20969 29.3638 4.61206 28.6668L13.0411 14.0673C13.4435 13.3704 14.1607 12.9563 14.9655 12.9563C15.7702 12.9563 16.4875 13.3704 16.8899 14.0673ZM14.9655 27.6318C14.3534 27.6318 13.8572 28.128 13.8572 28.7401C13.8572 29.3523 14.3534 29.8484 14.9655 29.8484C15.5776 29.8484 16.0738 29.3523 16.0738 28.7401C16.0738 28.128 15.5776 27.6318 14.9655 27.6318ZM14.9656 25.6534C14.5 25.6534 14.1178 25.2848 14.1009 24.8196L13.8822 18.7638C13.8734 18.5202 13.9549 18.3074 14.1241 18.1319C14.2933 17.9565 14.5031 17.8674 14.7467 17.8674H15.1841C15.4279 17.8674 15.6376 17.9566 15.8068 18.1319C15.976 18.3074 16.0574 18.5202 16.0487 18.7638L15.83 24.8196C15.8132 25.2847 15.4311 25.6534 14.9656 25.6534Z" fill="#9810FA"></path>
</svg>
