<svg width="30" height="30" viewBox="0 0 30 30" fill="none" xmlns="http://www.w3.org/2000/svg">
<g clip-path="url(#clip0_2023_7707)">
<path d="M19.3118 8.25926L15.5 15H22.9176C20.6168 15.3111 18.8654 17.2123 18.8654 19.6666C18.8654 20.3926 19.0027 21.084 19.2775 21.6716L15.5 15L11.7225 21.6716C11.9972 21.084 12.1346 20.3926 12.1346 19.6666C12.1346 17.2123 10.3832 15.3111 8.08242 15H15.5L11.6882 8.25926C12.5124 9.50373 13.886 10.3334 15.5 10.3334C17.114 10.3334 18.4876 9.50373 19.3118 8.25926ZM20.0673 24.3334C20.0673 23.6074 19.8956 22.8815 19.5865 22.2247C20.4107 23.5037 21.75 24.3334 23.4327 24.3334C26.0082 24.3334 28 22.2593 28 19.6666C28 17.0741 26.0426 15.0346 23.5014 15C26.0426 14.9654 28 12.9259 28 10.3334C28 7.74074 26.0082 5.66666 23.4327 5.66666C21.7844 5.66666 20.3764 6.4963 19.5522 7.80987C19.8956 7.18766 20.0673 6.46173 20.0673 5.66666C20.0673 3.07407 18.0755 1 15.5 1C12.9245 1 10.9327 3.07407 10.9327 5.66666C10.9327 6.46173 11.1044 7.18766 11.4478 7.84445C10.658 6.53087 9.25 5.66666 7.56731 5.66666C4.99176 5.66666 3 7.74074 3 10.3334C3 12.9259 4.95741 14.9654 7.49863 15C4.95741 15.0346 3 17.0741 3 19.6666C3 22.2593 4.99176 24.3334 7.56731 24.3334C9.25 24.3334 10.5893 23.5037 11.4135 22.2247C11.1044 22.8815 10.9327 23.6074 10.9327 24.3334C10.9327 26.9259 12.9245 29 15.5 29C18.0755 29 20.0673 26.9259 20.0673 24.3334Z" fill="black"/>
</g>
<defs>
<clipPath id="clip0_2023_7707">
<rect width="25" height="28" fill="white" transform="translate(3 1)"/>
</clipPath>
</defs>
</svg>
