<?xml version="1.0" encoding="UTF-8"?>
<svg xmlns="http://www.w3.org/2000/svg" width="32" height="32" viewBox="0 0 32 32" fill="none">
  <path d="M7.72266 17.6393L7.72272 17.6396C7.74253 17.6196 7.74122 17.6208 7.72266 17.6393Z" fill="white"></path>
  <path d="M31.2905 13.2142L29.6993 12.8316C29.3533 11.3212 28.7573 9.88581 27.9243 8.55119L28.7308 7.19731C28.8374 7.01813 28.8813 6.8085 28.8554 6.60158C28.8296 6.39467 28.7355 6.20229 28.588 6.05487L25.9452 3.41206C25.7976 3.26477 25.6053 3.17078 25.3984 3.14492C25.1915 3.11906 24.982 3.16281 24.8027 3.26925L23.4488 4.07569C22.1142 3.24269 20.6788 2.64675 19.1684 2.30075L18.7858 0.7095C18.735 0.506845 18.618 0.32696 18.4533 0.198415C18.2886 0.0698706 18.0857 3.51254e-05 17.8768 0H14.1273C13.9184 2.42546e-05 13.7154 0.0698556 13.5507 0.198402C13.3861 0.326949 13.269 0.506839 13.2183 0.7095L12.8357 2.30075C11.3252 2.64675 9.88984 3.24269 8.55522 4.07569L7.20134 3.26925C7.02216 3.16259 6.81253 3.11873 6.60562 3.14459C6.3987 3.17046 6.20632 3.26458 6.05891 3.41206L3.41597 6.05481C3.2685 6.20224 3.1744 6.39462 3.14853 6.60153C3.12267 6.80843 3.16652 7.01806 3.27316 7.19725L4.07959 8.55112C3.24659 9.88575 2.65066 11.3211 2.30466 12.8316L0.713406 13.2142C0.510751 13.265 0.330867 13.382 0.202322 13.5467C0.0737768 13.7114 0.00394138 13.9143 0.00390625 14.1232V17.8727C0.00390625 18.3029 0.296844 18.6782 0.714281 18.7817L2.30553 19.1643C2.53622 20.1652 2.88341 21.1267 3.32928 22.049C4.01772 21.3577 7.47534 17.8853 7.72384 17.6371C7.71159 17.574 7.57766 16.3733 7.57409 16.1394C7.49434 11.3627 11.3418 7.56238 16.0056 7.56238C20.7013 7.56238 24.4458 11.3487 24.4281 16.0272C24.408 20.3539 21.1787 24.0372 16.6684 24.3741C16.4733 24.3891 15.5912 24.5192 14.3616 24.2769L9.96216 28.6763C10.8809 29.1195 11.8388 29.4644 12.8356 29.6943L13.2182 31.2864C13.269 31.4891 13.386 31.669 13.5507 31.7975C13.7154 31.9261 13.9183 31.9959 14.1272 31.9959H17.8767C18.0856 31.9959 18.2886 31.9261 18.4533 31.7975C18.6179 31.669 18.735 31.4891 18.7857 31.2864L19.1683 29.6952C20.6788 29.3492 22.1142 28.7533 23.4488 27.9202L24.8027 28.7267C25.1697 28.9464 25.6412 28.886 25.9451 28.5839L28.5879 25.9411C28.7354 25.7936 28.8295 25.6013 28.8553 25.3943C28.8812 25.1874 28.8374 24.9778 28.7307 24.7986L27.9243 23.4447C28.7582 22.1101 29.3532 20.6747 29.6992 19.1634L31.2895 18.7817C31.707 18.6782 31.9999 18.3029 31.9999 17.8727V14.1232C31.9999 13.9143 31.9301 13.7114 31.8016 13.5467C31.673 13.382 31.4932 13.265 31.2905 13.2142Z" fill="white"></path>
  <path d="M22.3449 14.2871C22.3045 14.1286 22.2228 13.9835 22.1081 13.8668C21.9935 13.75 21.8499 13.6658 21.6921 13.6225C21.5343 13.5794 21.368 13.5788 21.2099 13.6208C21.0518 13.6628 20.9077 13.7459 20.7922 13.8617L18.6531 16.0009C17.9219 16.7321 16.7333 16.7321 16.002 16.0009C15.2715 15.2704 15.2715 14.0804 16.002 13.3498L18.142 11.2098C18.2577 11.0941 18.3407 10.9499 18.3825 10.7918C18.4244 10.6337 18.4236 10.4673 18.3803 10.3095C18.3371 10.1518 18.2528 10.0083 18.1361 9.8937C18.0195 9.77906 17.8745 9.69736 17.716 9.65688C13.7607 8.65169 10.2012 11.2281 9.54836 14.7861C9.33873 15.9578 9.43211 17.1249 9.81561 18.1996C9.28223 18.7331 1.04386 26.9713 0.822419 27.1929C-0.277018 28.2923 -0.277018 30.081 0.839794 31.1978C1.94617 32.2466 3.64061 32.2907 4.80992 31.1804L13.8032 22.1872C15.2434 22.7012 16.8495 22.6908 18.4214 22.1361C21.2535 21.1368 23.2357 17.7828 22.3449 14.2871Z" fill="white"></path>
</svg>
