<?xml version="1.0" encoding="UTF-8"?>
<svg xmlns="http://www.w3.org/2000/svg" width="27" height="28" viewBox="0 0 27 28" fill="none">
  <path d="M26.982 15.2393C26.9672 15.037 26.8826 14.8461 26.7426 14.6992C26.6027 14.5524 26.416 14.4587 26.2146 14.4343C24.1923 14.1899 22.2516 13.4908 20.538 12.3894C20.3969 12.2984 20.2325 12.25 20.0646 12.25C19.8967 12.25 19.7324 12.2984 19.5913 12.3894C17.8787 13.4923 15.9379 14.1915 13.9155 14.4343C13.7303 14.4566 13.5571 14.5374 13.4211 14.6651C13.2851 14.7927 13.1934 14.9605 13.1595 15.1439C12.9627 16.2149 12.4981 19.9967 14.8001 23.6988C15.9718 25.5773 17.6887 27.0536 19.7216 27.9303C19.83 27.9764 19.9465 28.0001 20.0642 28.0001C20.1819 28.0001 20.2984 27.9764 20.4067 27.9303C22.4399 27.0537 24.1573 25.5775 25.3292 23.6988C27.3328 20.4762 26.9863 15.2918 26.982 15.2393ZM20.9991 20.7579V21.8753C20.9991 22.1074 20.9069 22.3299 20.7428 22.494C20.5787 22.6581 20.3562 22.7503 20.1241 22.7503C19.8921 22.7503 19.6695 22.6581 19.5054 22.494C19.3414 22.3299 19.2492 22.1074 19.2492 21.8753V20.7571C18.7286 20.4534 18.3742 19.8952 18.3742 19.2503C18.3742 18.2852 19.159 17.5003 20.1241 17.5003C21.0892 17.5003 21.874 18.2852 21.874 19.2503C21.874 19.8952 21.5197 20.4543 20.9991 20.7579Z" fill="#F91F6E"></path>
  <path d="M18.3739 0H2.62485C1.18118 0 0 1.18125 0 2.625V25.375C0 26.8188 1.18118 28 2.62485 28H16.4053C14.865 26.8464 13.6164 25.3481 12.7594 23.625H4.37474C4.14269 23.625 3.92015 23.5328 3.75606 23.3687C3.59198 23.2046 3.4998 22.9821 3.4998 22.75C3.4998 22.5179 3.59198 22.2954 3.75606 22.1313C3.92015 21.9672 4.14269 21.875 4.37474 21.875H12.0165C11.8066 21.2651 11.6447 20.6675 11.5283 20.0944C11.4758 20.1031 11.4286 20.125 11.3743 20.125H4.37474C4.14269 20.125 3.92015 20.0328 3.75606 19.8687C3.59198 19.7046 3.4998 19.4821 3.4998 19.25C3.4998 19.0179 3.59198 18.7954 3.75606 18.6313C3.92015 18.4672 4.14269 18.375 4.37474 18.375H11.2868C11.2343 17.7301 11.2282 17.1413 11.2475 16.625H4.37474C4.14269 16.625 3.92015 16.5328 3.75606 16.3687C3.59198 16.2046 3.4998 15.9821 3.4998 15.75C3.4998 15.5179 3.59198 15.2954 3.75606 15.1313C3.92015 14.9672 4.14269 14.875 4.37474 14.875H11.3743C11.3918 14.875 11.4076 14.8837 11.4251 14.8855L11.4356 14.8225C11.5677 14.1111 11.9781 13.51 12.552 13.125H4.37474C4.14269 13.125 3.92015 13.0328 3.75606 12.8687C3.59198 12.7046 3.4998 12.4821 3.4998 12.25C3.4998 12.0179 3.59198 11.7954 3.75606 11.6313C3.92015 11.4672 4.14269 11.375 4.37474 11.375H16.624C16.8795 11.375 17.1053 11.4887 17.2645 11.6637C17.7401 11.4455 18.2013 11.1971 18.6452 10.92C19.3451 10.465 20.2288 10.3775 20.9988 10.6838V2.625C20.9988 1.18125 19.8176 0 18.3739 0ZM16.624 9.625H4.37474C4.14269 9.625 3.92015 9.53281 3.75606 9.36872C3.59198 9.20462 3.4998 8.98206 3.4998 8.75C3.4998 8.51794 3.59198 8.29538 3.75606 8.13128C3.92015 7.96719 4.14269 7.875 4.37474 7.875H16.624C16.8561 7.875 17.0786 7.96719 17.2427 8.13128C17.4068 8.29538 17.499 8.51794 17.499 8.75C17.499 8.98206 17.4068 9.20462 17.2427 9.36872C17.0786 9.53281 16.8561 9.625 16.624 9.625ZM16.624 6.125H4.37474C4.14269 6.125 3.92015 6.03281 3.75606 5.86872C3.59198 5.70462 3.4998 5.48206 3.4998 5.25C3.4998 5.01794 3.59198 4.79538 3.75606 4.63128C3.92015 4.46719 4.14269 4.375 4.37474 4.375H16.624C16.8561 4.375 17.0786 4.46719 17.2427 4.63128C17.4068 4.79538 17.499 5.01794 17.499 5.25C17.499 5.48206 17.4068 5.70462 17.2427 5.86872C17.0786 6.03281 16.8561 6.125 16.624 6.125Z" fill="#F91F6E"></path>
</svg>
