<?xml version="1.0" encoding="UTF-8"?>
<svg xmlns="http://www.w3.org/2000/svg" width="32" height="32" viewBox="0 0 32 32" fill="none">
  <path d="M30.6897 6.14392L25.2757 1.19242C25.0201 0.956314 24.6849 0.825195 24.337 0.825195C23.989 0.825195 23.6538 0.956314 23.3982 1.19242L17.9847 6.14392C17.8112 6.30269 17.6897 6.51019 17.6361 6.73921C17.5826 6.96823 17.5995 7.2081 17.6846 7.42735C17.7697 7.6466 17.9191 7.83501 18.1132 7.96788C18.3073 8.10074 18.537 8.17187 18.7722 8.17192H20.9212C20.9856 8.17205 21.0472 8.19771 21.0927 8.24327C21.1382 8.28882 21.1637 8.35056 21.1637 8.41492V22.8724C21.164 23.1755 21.2845 23.4661 21.4988 23.6803C21.7131 23.8946 22.0036 24.0152 22.3067 24.0154H26.2482C26.5513 24.0152 26.8418 23.8946 27.0561 23.6803C27.2704 23.4661 27.3909 23.1755 27.3912 22.8724V8.41542C27.3912 8.35106 27.4167 8.28932 27.4622 8.24377C27.5077 8.19821 27.5693 8.17255 27.6337 8.17242H29.9022C30.1374 8.17236 30.3671 8.10124 30.5612 7.96838C30.7553 7.83551 30.9047 7.6471 30.9898 7.42785C31.0749 7.2086 31.0918 6.96873 31.0383 6.73971C30.9847 6.51069 30.8632 6.30319 30.6897 6.14442V6.14392ZM26.8912 28.5319H21.6637C21.4316 28.5319 21.2091 28.6241 21.045 28.7882C20.8809 28.9523 20.7887 29.1749 20.7887 29.4069C20.7887 29.639 20.8809 29.8615 21.045 30.0256C21.2091 30.1897 21.4316 30.2819 21.6637 30.2819H26.8912C27.1233 30.2819 27.3458 30.1897 27.5099 30.0256C27.674 29.8615 27.7662 29.639 27.7662 29.4069C27.7662 29.1749 27.674 28.9523 27.5099 28.7882C27.3458 28.6241 27.1233 28.5319 26.8912 28.5319ZM26.8912 25.7684H21.6637C21.4316 25.7684 21.2091 25.8606 21.045 26.0247C20.8809 26.1888 20.7887 26.4114 20.7887 26.6434C20.7887 26.8755 20.8809 27.098 21.045 27.2621C21.2091 27.4262 21.4316 27.5184 21.6637 27.5184H26.8912C27.1233 27.5184 27.3458 27.4262 27.5099 27.2621C27.674 27.098 27.7662 26.8755 27.7662 26.6434C27.7662 26.4114 27.674 26.1888 27.5099 26.0247C27.3458 25.8606 27.1233 25.7684 26.8912 25.7684Z" fill="white"></path>
  <path d="M7.24891 18.5664H3.48641C2.80572 18.5664 2.25391 19.1182 2.25391 19.7989V29.1749C2.25391 29.8556 2.80572 30.4074 3.48641 30.4074H7.24891C7.9296 30.4074 8.48141 29.8556 8.48141 29.1749V19.7989C8.48141 19.1182 7.9296 18.5664 7.24891 18.5664Z" fill="white"></path>
  <path d="M12.4864 13.0215H16.2494C16.5763 13.0215 16.8898 13.1513 17.1209 13.3825C17.3521 13.6136 17.4819 13.9271 17.4819 14.254V29.1755C17.4818 29.5023 17.3519 29.8156 17.1207 30.0467C16.8896 30.2777 16.5762 30.4075 16.2494 30.4075H12.4864C12.1596 30.4075 11.8462 30.2777 11.6151 30.0467C11.384 29.8156 11.254 29.5023 11.2539 29.1755V14.254C11.2538 14.0921 11.2857 13.9318 11.3476 13.7822C11.4095 13.6327 11.5003 13.4968 11.6148 13.3823C11.7292 13.2679 11.8651 13.1771 12.0147 13.1152C12.1642 13.0533 12.3245 13.0214 12.4864 13.0215Z" fill="white"></path>
</svg>
