<?xml version="1.0" encoding="UTF-8"?>
<svg xmlns="http://www.w3.org/2000/svg" width="17" height="19" viewBox="0 0 17 19" fill="none">
  <path d="M14.6523 1.84766C15.168 1.84766 15.5977 2.03385 15.9414 2.40625C16.3138 2.75 16.5 3.17969 16.5 3.69531V16.5C16.5 17.0156 16.3138 17.4596 15.9414 17.832C15.5977 18.1758 15.168 18.3477 14.6523 18.3477H1.84766C1.70443 18.3477 1.57552 18.3333 1.46094 18.3047C1.11719 18.2474 0.816406 18.0898 0.558594 17.832C0.358073 17.6315 0.214844 17.431 0.128906 17.2305C0.0429688 17.0013 0 16.7578 0 16.5V3.69531C0 3.4375 0.0429688 3.19401 0.128906 2.96484C0.24349 2.76432 0.386719 2.57812 0.558594 2.40625C0.816406 2.11979 1.11719 1.94792 1.46094 1.89062C1.57552 1.86198 1.70443 1.84766 1.84766 1.84766H5.67188C5.8724 1.30339 6.20182 0.859375 6.66016 0.515625C7.11849 0.171875 7.64844 0 8.25 0C8.85156 0 9.38151 0.171875 9.83984 0.515625C10.2982 0.859375 10.6276 1.30339 10.8281 1.84766H14.6523ZM7.34766 12.0742L5.32812 10.0977L7.34766 8.12109L6.05859 6.78906L2.75 10.0977L6.05859 13.4062L7.34766 12.0742ZM8.25 3.00781C8.45052 3.00781 8.60807 2.9362 8.72266 2.79297C8.86589 2.64974 8.9375 2.49219 8.9375 2.32031C8.9375 2.11979 8.86589 1.96224 8.72266 1.84766C8.60807 1.70443 8.45052 1.63281 8.25 1.63281C8.04948 1.63281 7.8776 1.70443 7.73438 1.84766C7.61979 1.96224 7.5625 2.11979 7.5625 2.32031C7.5625 2.49219 7.61979 2.64974 7.73438 2.79297C7.8776 2.9362 8.04948 3.00781 8.25 3.00781ZM10.4414 13.4062L13.75 10.0977L10.4414 6.78906L9.15234 8.12109L11.1719 10.0977L9.15234 12.0742L10.4414 13.4062Z" fill="#10B981"></path>
</svg>
