<svg width="38" height="38" viewBox="0 0 38 38" fill="none" xmlns="http://www.w3.org/2000/svg">
<path d="M16.818 3.37693C12.3352 4.01521 8.32734 6.54607 5.84102 10.3164C5.3957 10.9992 4.89844 11.8675 4.89844 11.9789C4.89844 12.0011 4.9875 11.9863 5.09141 11.9492C5.41055 11.823 5.87813 11.8675 6.27891 12.0531C6.60547 12.209 6.78359 12.3871 7.68164 13.5375L8.71328 14.8437L9.12891 14.0422C9.74492 12.8547 10.257 12.157 11.207 11.1996C13.4336 8.9656 16.2762 7.84489 19.4082 7.96364C22.2879 8.07497 24.7445 9.15114 26.8004 11.207C28.7152 13.1218 29.8434 15.5636 30.0289 18.1984L30.0809 18.9258H29.1383C28.2996 18.9258 28.1883 18.9406 28.0547 19.0742C27.7355 19.3933 27.7875 19.4898 29.9176 22.1988C31.0234 23.6015 31.9957 24.8113 32.0773 24.8781C32.3 25.0711 32.5969 25.0414 32.827 24.8039C32.9309 24.6925 33.8883 23.4976 34.9496 22.1543C36.6566 19.9945 36.8793 19.6754 36.8867 19.4379C36.8867 18.9851 36.7531 18.9258 35.677 18.9258H34.7344V18.3394C34.7344 17.0035 34.3039 14.8437 33.7473 13.3965C31.9438 8.68357 27.9285 5.05427 23.1266 3.78513C21.6422 3.39177 21.0855 3.32497 19.2598 3.29528C18.0723 3.28044 17.3301 3.30271 16.818 3.37693Z" fill="#F6339A"/>
<path d="M12.8992 12.6839C12.6766 12.8249 12.5133 13.0105 12.402 13.2257C12.2461 13.5523 12.2461 13.6191 12.2461 17.523C12.2461 21.4937 12.2461 21.4937 12.4168 21.8202C12.5133 22.0132 12.7137 22.2433 12.8992 22.3769C13.2035 22.5847 13.2703 22.5995 14.0719 22.6292L14.918 22.6515V23.7128C14.918 24.5812 14.9402 24.7964 15.0367 24.8929C15.2965 25.1601 15.4598 25.0562 16.6398 23.8241L17.7754 22.6366H21.1152C23.1859 22.6366 24.559 22.607 24.7297 22.5624C25.1008 22.4585 25.4496 22.1542 25.6129 21.7831C25.7391 21.5085 25.7539 21.2042 25.7539 17.523C25.7539 13.6191 25.7539 13.5523 25.598 13.2257C25.4867 13.0105 25.3234 12.8249 25.1008 12.6839L24.7594 12.4687H19H13.2406L12.8992 12.6839ZM23.1117 14.8585C23.3863 15.1109 23.4012 15.4226 23.1414 15.6601C22.9855 15.8085 22.9039 15.8085 18.9332 15.8085H14.8883L14.7176 15.6452C14.4875 15.43 14.4949 15.1109 14.7324 14.8808L14.9105 14.6952H18.9184H22.9262L23.1117 14.8585ZM23.1266 17.1667C23.3715 17.382 23.3863 17.6788 23.1562 17.9312L22.9855 18.1093H18.9629C15.007 18.1093 14.9328 18.1093 14.7398 17.9534C14.4875 17.753 14.4801 17.4265 14.7324 17.1816L14.9105 16.996H18.9184H22.9262L23.1266 17.1667ZM23.1414 19.4452C23.4012 19.6827 23.3863 19.9945 23.1117 20.2394L22.9262 20.4101H18.9184H14.9105L14.7324 20.2245C14.4801 19.9796 14.4875 19.653 14.7398 19.4527C14.9328 19.2968 15.007 19.2968 18.9555 19.2968C22.9039 19.2968 22.9855 19.2968 23.1414 19.4452Z" fill="#F6339A"/>
<path d="M5.17305 13.1886C5.06914 13.3074 4.11172 14.4949 3.05039 15.8457C1.34336 18.0054 1.1207 18.3246 1.11328 18.5621C1.11328 19.0148 1.24688 19.0742 2.32305 19.0742H3.26562V19.6605C3.26562 20.5289 3.45859 21.8351 3.74062 22.9558C5.17305 28.4925 9.51484 32.8417 15.0441 34.2593C15.5859 34.3929 16.4172 34.5562 16.8848 34.623C17.9906 34.764 20.0094 34.764 21.1152 34.623C25.5758 34.0367 29.6578 31.4761 32.1516 27.691C32.6043 27.0082 33.1016 26.1324 33.1016 26.021C33.1016 25.9988 33.0125 26.0136 32.9086 26.0507C32.5895 26.1769 32.1219 26.1324 31.7211 25.9468C31.3945 25.791 31.2164 25.6128 30.3184 24.4625L29.2867 23.1562L28.8711 23.9578C28.2551 25.1453 27.743 25.8429 26.793 26.7929C25.2195 28.3738 23.3715 29.3832 21.1895 29.8507C20.2023 30.0585 18.5102 30.1105 17.4637 29.9546C12.2906 29.1902 8.33477 24.9523 7.97109 19.7792L7.91914 19.0742H8.8543C9.72266 19.0742 9.8043 19.0593 9.94531 18.9109C10.2496 18.5769 10.2051 18.4953 8.08242 15.8011C6.97656 14.3984 6.0043 13.1886 5.92266 13.1144C5.7 12.9289 5.40312 12.9585 5.17305 13.1886Z" fill="#F6339A"/>
</svg>
