<svg width="30" height="30" viewBox="0 0 30 30" fill="none" xmlns="http://www.w3.org/2000/svg">
<rect width="25" height="25" transform="translate(3 3)" fill="black"/>
<path d="M21.7665 21.9363C23.2102 20.2943 24.0037 18.1857 24 16C24 15.3902 23.9388 14.7853 23.8163 14.1853C23.8065 14.1094 23.7894 14.0335 23.7649 13.9575C23.7673 13.9673 23.7698 13.9759 23.7722 13.9833C22.8612 9.98285 19.2796 7 15 7C10.0298 7 6 11.0298 6 16C6 16.5363 6.04653 17.069 6.13959 17.5979C6.13959 17.5979 6.13959 17.5992 6.13959 17.6016C6.15673 17.6849 6.18122 17.7657 6.21306 17.8441C6.18122 17.7633 6.15673 17.68 6.13959 17.5943C6.89265 21.8041 10.5698 25 14.9963 25C16.5539 25.0036 18.0857 24.5996 19.4375 23.8281L19.9335 24.4416C20.0584 24.5959 20.209 24.7208 20.3853 24.8163C20.5592 24.9094 20.7453 24.9669 20.9437 24.989C21.1396 25.0085 21.333 24.9902 21.5241 24.9339C21.7151 24.8775 21.8877 24.7869 22.042 24.662C22.3506 24.4122 22.5453 24.0485 22.5894 23.6518C22.6298 23.2588 22.5122 22.862 22.2624 22.5534L21.7665 21.9363ZM23.7392 13.8914C23.7318 13.8743 23.7245 13.8571 23.7171 13.84C23.7269 13.8571 23.7343 13.8743 23.7392 13.8914ZM23.6914 13.7739C23.6841 13.7567 23.6755 13.7396 23.6657 13.7224C23.6779 13.7396 23.6877 13.7567 23.6951 13.7739H23.6914ZM23.6326 13.6637C23.6228 13.6465 23.613 13.6294 23.6033 13.6122C23.6155 13.6294 23.6265 13.6465 23.6363 13.6637H23.6326ZM23.5665 13.5571C23.5543 13.54 23.542 13.5228 23.5298 13.5057C23.5445 13.5228 23.5579 13.54 23.5702 13.5571H23.5665ZM22.4571 12.9106C22.413 12.9057 22.369 12.9033 22.3249 12.9033C22.3714 12.9057 22.4167 12.9082 22.4608 12.9106H22.4571ZM23.3755 13.3294C23.3584 13.3122 23.34 13.2951 23.3204 13.278C23.3375 13.2951 23.3559 13.3122 23.3755 13.3294ZM22.8428 12.9914C22.8184 12.9841 22.7951 12.9767 22.773 12.9694C22.7951 12.9792 22.8184 12.9877 22.8428 12.9951V12.9914ZM22.7216 12.951C22.6971 12.9461 22.6714 12.9412 22.6445 12.9363C22.6739 12.9437 22.6996 12.9498 22.7216 12.9547V12.951ZM22.5967 12.9216C22.5673 12.9167 22.5379 12.9131 22.5086 12.9106C22.5379 12.9155 22.5673 12.9204 22.5967 12.9253V12.9216ZM6.27184 17.9579C6.25714 17.9237 6.24245 17.8894 6.22775 17.8551C6.24 17.8918 6.25592 17.9261 6.27551 17.9579H6.27184ZM6.33061 18.0681C6.32082 18.0461 6.3098 18.0253 6.29755 18.0057C6.3098 18.0277 6.32082 18.0486 6.33061 18.0681ZM19.8379 19.5522L19.2024 18.7661V18.7624C19.0751 18.6081 18.9245 18.4845 18.7506 18.3914C18.5767 18.2959 18.3906 18.2384 18.1922 18.2188C17.9939 18.1992 17.7992 18.2175 17.6082 18.2739C17.4196 18.3326 17.2482 18.4245 17.0939 18.5494C16.7853 18.7992 16.5869 19.1628 16.5465 19.5559C16.5061 19.9526 16.62 20.3457 16.8698 20.6543L17.5163 21.4551C16.6935 21.8334 15.7898 22.0208 14.8824 22.0061C13.9714 21.9877 13.0788 21.7637 12.2706 21.3486C11.4624 20.9371 10.7571 20.3457 10.2098 19.6183C9.66245 18.8947 9.28775 18.0571 9.1151 17.1645C8.78081 15.6143 9.07837 13.9906 9.94163 12.6571C10.8049 11.3237 12.1641 10.3869 13.718 10.0526C15.2755 9.71836 16.8992 10.0159 18.2363 10.8755C19.5735 11.7388 20.5139 13.0943 20.8482 14.6445C20.8482 14.6445 20.8482 14.642 20.8482 14.6371C20.8555 14.6837 20.8653 14.7302 20.8775 14.7767C21.0465 15.5996 21.0428 16.4518 20.8665 17.2747C20.6865 18.0939 20.3375 18.8726 19.8379 19.5522ZM20.8335 14.5122C20.8335 14.522 20.8335 14.5318 20.8335 14.5416C20.8359 14.5318 20.8359 14.522 20.8335 14.5122Z" fill="white"/>
</svg>
