<svg width="196" height="36" viewBox="0 0 196 36" fill="none" xmlns="http://www.w3.org/2000/svg" role="img" aria-label="CoreBlock Labs">
  <defs>
    <linearGradient id="cbl-mark-grad" x1="2" y1="4" x2="30" y2="32" gradientUnits="userSpaceOnUse">
      <stop stop-color="#B921DB"/>
      <stop offset="1" stop-color="#2F178F"/>
    </linearGradient>
    <linearGradient id="cbl-labs-grad" x1="128" y1="10" x2="196" y2="28" gradientUnits="userSpaceOnUse">
      <stop stop-color="#D946EF"/>
      <stop offset="1" stop-color="#B921DB"/>
    </linearGradient>
  </defs>

  <!-- Mark: interconnected blocks (blockchain + core infrastructure) -->
  <path d="M16 3L28 10V22L16 29L4 22V10L16 3Z" stroke="url(#cbl-mark-grad)" stroke-width="1.75" fill="none"/>
  <path d="M16 11L22 14.5V21.5L16 25L10 21.5V14.5L16 11Z" fill="url(#cbl-mark-grad)"/>
  <circle cx="16" cy="18" r="2.25" fill="#FFFFFF"/>
  <circle cx="16" cy="6.5" r="1.35" fill="#B921DB"/>
  <circle cx="25.5" cy="11.5" r="1.35" fill="#B921DB"/>
  <circle cx="25.5" cy="24.5" r="1.35" fill="#7C3AED"/>
  <circle cx="6.5" cy="24.5" r="1.35" fill="#7C3AED"/>
  <circle cx="6.5" cy="11.5" r="1.35" fill="#B921DB"/>
  <path d="M16 15.75V11.5M16 20.25V24.5M13.25 16.75L10.5 15.25M18.75 16.75L21.5 15.25M13.25 19.25L10.5 20.75M18.75 19.25L21.5 20.75" stroke="#FFFFFF" stroke-width="0.9" stroke-linecap="round" opacity="0.85"/>

  <!-- Wordmark -->
  <text x="38" y="24.5" font-family="Inter, system-ui, -apple-system, sans-serif" font-size="16.5" font-weight="700" letter-spacing="-0.02em" fill="#FFFFFF">CoreBlock</text>
  <text x="132" y="24.5" font-family="Inter, system-ui, -apple-system, sans-serif" font-size="16.5" font-weight="600" letter-spacing="-0.01em" fill="url(#cbl-labs-grad)">Labs</text>
</svg>
