<?xml version="1.0" encoding="UTF-8"?>
<svg xmlns="http://www.w3.org/2000/svg" width="56" height="56" viewBox="0 0 56 56" fill="none">
  <g clip-path="url(#clip0_2603_1486)">
    <path d="M28 56C43.464 56 56 43.464 56 28C56 12.536 43.464 0 28 0C12.536 0 0 12.536 0 28C0 43.464 12.536 56 28 56Z" fill="#2E3148"></path>
    <path d="M28 44.2469C36.9729 44.2469 44.2469 36.9729 44.2469 28C44.2469 19.0271 36.9729 11.7531 28 11.7531C19.0271 11.7531 11.7531 19.0271 11.7531 28C11.7531 36.9729 19.0271 44.2469 28 44.2469Z" fill="#1B1E36"></path>
    <path d="M28.0576 3.57214C25.0351 3.57214 22.5844 14.5347 22.5844 28.0578C22.5844 41.5809 25.0351 52.5435 28.0576 52.5435C31.08 52.5435 33.5308 41.5809 33.5308 28.0578C33.5308 14.5347 31.08 3.57214 28.0576 3.57214ZM28.4355 51.1616C28.0898 51.6226 27.7442 51.2768 27.7442 51.2768C26.3523 49.664 25.6563 46.6677 25.6563 46.6677C23.2216 38.8324 23.8011 22.0094 23.8011 22.0094C24.9453 8.65358 27.0267 5.49854 27.735 4.7981C27.8073 4.72661 27.9026 4.68292 28.0039 4.67473C28.1053 4.66653 28.2063 4.69435 28.2892 4.7533C29.3169 5.48152 30.1788 8.52702 30.1788 8.52702C32.7242 17.9756 32.4937 26.848 32.4937 26.848C32.7242 34.5681 31.2182 43.2101 31.2182 43.2101C30.059 49.7777 28.4355 51.1616 28.4355 51.1616Z" fill="#6F7390"></path>
    <path d="M49.2961 15.8725C47.7913 13.2499 37.0637 16.5799 25.3281 23.3093C13.5925 30.0387 5.31436 37.6204 6.81808 40.2419C8.32179 42.8633 19.0505 39.5345 30.7861 32.8051C42.5217 26.0757 50.7998 18.4939 49.2961 15.8725ZM8.20643 39.8821C7.6303 39.8096 7.76044 39.336 7.76044 39.336C8.46716 37.3265 10.7161 35.2317 10.7161 35.2317C16.3034 29.2204 31.185 21.3515 31.185 21.3515C43.3379 15.6973 47.1128 15.9359 48.0704 16.1995C48.1687 16.2269 48.2541 16.2883 48.3115 16.3727C48.3689 16.457 48.3946 16.559 48.384 16.6605C48.2688 17.9149 46.0506 20.1773 46.0506 20.1773C39.1263 27.0897 31.3152 31.3058 31.3152 31.3058C24.7334 35.349 16.4879 38.3415 16.4879 38.3415C10.2139 40.6023 8.20665 39.8821 8.20665 39.8821H8.20643Z" fill="#6F7390"></path>
    <path d="M49.2431 40.3292C50.7596 37.7135 42.5023 30.0971 30.8079 23.317C19.1135 16.537 8.38728 13.1658 6.87214 15.7859C5.35701 18.4061 13.613 26.018 25.3141 32.7981C37.0151 39.5781 47.728 42.9495 49.2431 40.3292ZM7.87701 16.7966C7.65301 16.2655 8.12587 16.1376 8.12587 16.1376C10.2194 15.7423 13.16 16.6432 13.16 16.6432C21.1602 18.465 35.4256 27.4008 35.4256 27.4008C46.409 35.0865 48.0935 38.4718 48.346 39.4327C48.3716 39.5313 48.3617 39.6358 48.3178 39.7277C48.274 39.8196 48.199 39.8931 48.1063 39.9352C46.961 40.4595 43.8935 39.6782 43.8935 39.6782C34.4391 37.1432 26.878 32.4986 26.878 32.4986C20.0843 28.8344 13.3666 23.1963 13.3666 23.1963C8.26206 18.8984 7.87857 16.8025 7.87857 16.8025L7.87701 16.7966Z" fill="#6F7390"></path>
    <path d="M28 30.8807C29.591 30.8807 30.8807 29.591 30.8807 28C30.8807 26.4091 29.591 25.1194 28 25.1194C26.4091 25.1194 25.1194 26.4091 25.1194 28C25.1194 29.591 26.4091 30.8807 28 30.8807Z" fill="#B7B9C8"></path>
    <path d="M39.8106 18.6666C40.7334 18.6666 41.4814 17.8928 41.4814 16.9382C41.4814 15.9837 40.7334 15.2098 39.8106 15.2098C38.8878 15.2098 38.1398 15.9837 38.1398 16.9382C38.1398 17.8928 38.8878 18.6666 39.8106 18.6666Z" fill="#B7B9C8"></path>
    <path d="M12.3868 24.5432C13.3095 24.5432 14.0576 23.7694 14.0576 22.8148C14.0576 21.8603 13.3095 21.0864 12.3868 21.0864C11.464 21.0864 10.7159 21.8603 10.7159 22.8148C10.7159 23.7694 11.464 24.5432 12.3868 24.5432Z" fill="#B7B9C8"></path>
    <path d="M24.6007 45.7449C25.5235 45.7449 26.2716 44.971 26.2716 44.0165C26.2716 43.0619 25.5235 42.2881 24.6007 42.2881C23.678 42.2881 22.9299 43.0619 22.9299 44.0165C22.9299 44.971 23.678 45.7449 24.6007 45.7449Z" fill="#B7B9C8"></path>
  </g>
  <defs>
    <clipPath id="clip0_2603_1486">
      <rect width="56" height="56" fill="white"></rect>
    </clipPath>
  </defs>
</svg>
