<svg width="30" height="30" viewBox="0 0 30 30" fill="none" xmlns="http://www.w3.org/2000/svg">
<path d="M15.375 28C22.2786 28 27.875 22.4036 27.875 15.5C27.875 8.59644 22.2786 3 15.375 3C8.47144 3 2.875 8.59644 2.875 15.5C2.875 22.4036 8.47144 28 15.375 28Z" fill="#2E3148"/>
<path d="M15.375 22.753C19.3808 22.753 22.6281 19.5057 22.6281 15.4999C22.6281 11.4941 19.3808 8.24683 15.375 8.24683C11.3692 8.24683 8.1219 11.4941 8.1219 15.4999C8.1219 19.5057 11.3692 22.753 15.375 22.753Z" fill="#1B1E36"/>
<path d="M15.4007 4.59473C14.0514 4.59473 12.9573 9.48873 12.9573 15.5258C12.9573 21.5629 14.0514 26.4569 15.4007 26.4569C16.75 26.4569 17.8441 21.5629 17.8441 15.5258C17.8441 9.48873 16.75 4.59473 15.4007 4.59473ZM15.5694 25.84C15.4151 26.0458 15.2608 25.8914 15.2608 25.8914C14.6394 25.1714 14.3287 23.8338 14.3287 23.8338C13.2418 20.3359 13.5005 12.8256 13.5005 12.8256C14.0113 6.86323 14.9405 5.45473 15.2567 5.14203C15.289 5.11011 15.3315 5.09061 15.3768 5.08695C15.422 5.08329 15.4671 5.09571 15.5041 5.12203C15.9629 5.44713 16.3477 6.80673 16.3477 6.80673C17.484 11.0248 17.3811 14.9857 17.3811 14.9857C17.484 18.4322 16.8117 22.2902 16.8117 22.2902C16.2942 25.2222 15.5694 25.84 15.5694 25.84Z" fill="#6F7390"/>
<path d="M24.8822 10.0858C24.2104 8.91501 19.4213 10.4016 14.1822 13.4058C8.9431 16.41 5.2475 19.7947 5.9188 20.965C6.5901 22.1353 11.3797 20.6492 16.6188 17.645C21.8579 14.6408 25.5535 11.2561 24.8822 10.0858ZM6.5386 20.8044C6.2814 20.772 6.3395 20.5606 6.3395 20.5606C6.655 19.6635 7.659 18.7283 7.659 18.7283C10.1533 16.0447 16.7969 12.5318 16.7969 12.5318C22.2223 10.0076 23.9075 10.1141 24.335 10.2318C24.3789 10.2441 24.417 10.2714 24.4426 10.3091C24.4683 10.3468 24.4797 10.3923 24.475 10.4376C24.4236 10.9976 23.4333 12.0076 23.4333 12.0076C20.3421 15.0935 16.855 16.9757 16.855 16.9757C13.9167 18.7807 10.2357 20.1166 10.2357 20.1166C7.4348 21.1259 6.5387 20.8044 6.5387 20.8044H6.5386Z" fill="#6F7390"/>
<path d="M24.8585 21.0041C25.5355 19.8364 21.8492 16.4362 16.6285 13.4094C11.4078 10.3826 6.6193 8.87758 5.9429 10.0473C5.2665 11.217 8.9522 14.6152 14.1759 17.642C19.3996 20.6688 24.1821 22.1739 24.8585 21.0041ZM6.3915 10.4985C6.2915 10.2614 6.5026 10.2043 6.5026 10.2043C7.4372 10.0278 8.75 10.43 8.75 10.43C12.3215 11.2433 18.69 15.2325 18.69 15.2325C23.5933 18.6636 24.3453 20.1749 24.458 20.6039C24.4695 20.6479 24.465 20.6945 24.4454 20.7356C24.4259 20.7766 24.3924 20.8094 24.351 20.8282C23.8397 21.0623 22.4703 20.7135 22.4703 20.7135C18.2496 19.5818 14.8741 17.5083 14.8741 17.5083C11.8412 15.8725 8.8422 13.3555 8.8422 13.3555C6.5634 11.4368 6.3922 10.5011 6.3922 10.5011L6.3915 10.4985Z" fill="#6F7390"/>
<path d="M15.375 16.7861C16.0852 16.7861 16.661 16.2103 16.661 15.5001C16.661 14.7899 16.0852 14.2141 15.375 14.2141C14.6648 14.2141 14.089 14.7899 14.089 15.5001C14.089 16.2103 14.6648 16.7861 15.375 16.7861Z" fill="#B7B9C8"/>
<path d="M20.6476 11.3332C21.0596 11.3332 21.3935 10.9878 21.3935 10.5616C21.3935 10.1355 21.0596 9.79004 20.6476 9.79004C20.2357 9.79004 19.9017 10.1355 19.9017 10.5616C19.9017 10.9878 20.2357 11.3332 20.6476 11.3332Z" fill="#B7B9C8"/>
<path d="M8.4048 13.9568C8.81675 13.9568 9.1507 13.6113 9.1507 13.1852C9.1507 12.759 8.81675 12.4136 8.4048 12.4136C7.99285 12.4136 7.6589 12.759 7.6589 13.1852C7.6589 13.6113 7.99285 13.9568 8.4048 13.9568Z" fill="#B7B9C8"/>
<path d="M13.8575 23.4219C14.2694 23.4219 14.6034 23.0764 14.6034 22.6503C14.6034 22.2241 14.2694 21.8787 13.8575 21.8787C13.4455 21.8787 13.1116 22.2241 13.1116 22.6503C13.1116 23.0764 13.4455 23.4219 13.8575 23.4219Z" fill="#B7B9C8"/>
</svg>
