<svg width="56" height="56" viewBox="0 0 56 56" fill="none" xmlns="http://www.w3.org/2000/svg">
<g clip-path="url(#clip0_4013_1096)">
<mask id="mask0_4013_1096" style="mask-type:luminance" maskUnits="userSpaceOnUse" x="0" y="0" width="56" height="56">
<path d="M56 0H0V56H56V0Z" fill="white"/>
</mask>
<g mask="url(#mask0_4013_1096)">
<path d="M56 0H0V56H56V0Z" fill="#181818"/>
<path d="M44.632 19.3201L34.888 10.9761C34.16 10.3601 33.264 10.0801 32.368 10.0801H13.944C13.44 10.0801 12.936 10.1921 12.488 10.3601C12.04 10.5281 11.592 10.8081 11.256 11.1441C10.92 11.4801 10.64 11.9281 10.416 12.3761C10.248 12.8241 10.136 13.3281 10.136 13.8321V33.8801C10.136 34.4401 10.248 34.9441 10.472 35.4481C10.696 35.9521 11.032 36.3441 11.424 36.7361L21.168 45.0241C21.896 45.6401 22.792 45.9761 23.688 45.9761H42.112C43.12 45.9761 44.128 45.5841 44.856 44.8561C45.584 44.1281 45.976 43.1761 45.976 42.2241V22.1201C45.976 21.5601 45.864 21.0561 45.64 20.5521C45.36 20.1041 45.024 19.6561 44.632 19.3201ZM28 34.8881C26.6 34.8881 25.256 34.4961 24.08 33.7121C22.904 32.9281 22.008 31.8641 21.448 30.6321C20.888 29.4001 20.776 28.0001 21.056 26.6561C21.336 25.3121 22.008 24.0801 23.016 23.1281C24.024 22.1761 25.256 21.5041 26.656 21.2241C28.056 20.9441 29.456 21.1121 30.744 21.6161C32.032 22.1201 33.152 23.0161 33.936 24.1361C34.72 25.2561 35.112 26.6001 35.112 27.9441C35.112 28.8401 34.944 29.7361 34.552 30.5761C34.216 31.4161 33.656 32.1441 33.04 32.8161C32.368 33.4321 31.584 33.9361 30.744 34.3281C29.848 34.7201 28.952 34.8881 28 34.8881Z" fill="#54FE6D"/>
</g>
</g>
<defs>
<clipPath id="clip0_4013_1096">
<rect width="56" height="56" fill="white"/>
</clipPath>
</defs>
</svg>
