<svg width="24" height="24" viewBox="0 0 24 24" fill="none" xmlns="http://www.w3.org/2000/svg">
<path d="M12.1406 1.64059C11.7187 1.69215 11.5781 1.80934 11.5781 2.10465C11.5781 2.36247 11.7328 2.47497 12.2578 2.57809C12.9469 2.71872 13.5422 2.92028 14.2266 3.25778C15.5906 3.9234 16.7344 4.88903 17.7047 6.19215C17.9531 6.52497 18.3891 7.21872 18.4453 7.36872C18.4687 7.42497 18.3281 7.51872 17.8781 7.76247C17.4094 8.02028 17.2734 8.11403 17.2266 8.22653C17.1422 8.4234 17.1891 8.6109 17.3625 8.73747C17.4422 8.7984 18.4969 9.4734 19.7016 10.2422C21.7781 11.5593 21.9047 11.6343 22.0687 11.6062C22.425 11.55 22.4062 11.714 22.4062 8.59215V5.80778L22.2891 5.69528C22.1156 5.51715 21.9469 5.54528 21.4172 5.8359C21.1594 5.97653 20.9437 6.09372 20.9344 6.09372C20.925 6.09372 20.8172 5.93434 20.7 5.74215C19.3172 3.52965 17.0203 2.03434 14.4328 1.66403C13.9266 1.59371 12.6141 1.57965 12.1406 1.64059Z" fill="white"/>
<path d="M7.04528 2.01558C5.37653 2.22652 3.84372 3.11714 2.82653 4.45308C2.39528 5.02496 1.95465 5.93433 1.77653 6.63277C1.58903 7.36402 1.53747 8.46558 1.65934 9.21089C1.87028 10.4906 2.47497 11.6671 3.3984 12.5859C4.31715 13.5093 5.43747 14.0953 6.70309 14.3296C7.23278 14.4234 8.40934 14.4281 8.82653 14.3343L9.09841 14.2734L9.22966 13.8937C9.51091 13.0921 10.0359 12.2156 10.65 11.5218C11.3625 10.7156 12.5437 9.93746 13.5562 9.60464C13.739 9.54839 13.8843 9.47339 13.8984 9.42652C13.9593 9.22496 14.0156 8.64371 14.0156 8.17964C14.0156 6.07027 12.9609 4.13902 11.1703 2.96714C10.514 2.53589 9.77341 2.24527 8.94841 2.08589C8.46559 1.99683 7.49997 1.95933 7.04528 2.01558ZM8.09997 3.32808C8.3109 3.45933 8.39059 3.67027 8.39059 4.11558V4.49058L8.61559 4.54683C9.23903 4.70152 9.89997 5.22652 10.1718 5.77964C10.364 6.17339 10.4156 6.63746 10.289 6.87183C10.1812 7.06871 9.93278 7.19058 9.70778 7.15308C9.49216 7.12027 9.23434 6.85308 9.23434 6.67027C9.23434 6.27652 8.98122 5.93902 8.53122 5.72339C8.30622 5.61558 8.21247 5.60152 7.80466 5.60152C7.36403 5.60152 7.31247 5.61089 7.01716 5.75621C6.36559 6.07964 6.18278 6.67496 6.59528 7.12964C6.89059 7.45777 7.39216 7.64058 7.98747 7.64058C8.32497 7.64058 8.91091 7.81402 9.23434 8.01089C9.57184 8.21246 9.94215 8.56871 10.0968 8.83121C10.4156 9.38902 10.4484 10.0593 10.1812 10.6078C9.90466 11.1609 9.32341 11.6343 8.66247 11.8406L8.39059 11.925L8.38591 12.2765C8.38591 12.7312 8.31559 12.9281 8.11403 13.064C7.91716 13.1953 7.71091 13.2 7.50934 13.0781C7.29841 12.9468 7.21872 12.7359 7.21872 12.2906V11.925L6.95153 11.8406C5.94841 11.5265 5.25465 10.7343 5.24528 9.88589C5.24059 9.70777 5.26872 9.58121 5.32028 9.49683C5.47965 9.25777 5.7984 9.16871 6.04684 9.29527C6.20153 9.37496 6.37497 9.64214 6.37497 9.80621C6.37497 10.3593 6.98903 10.7953 7.78122 10.8C8.30622 10.8046 8.61091 10.7015 8.90622 10.4109C9.29997 10.0312 9.32341 9.62808 8.97653 9.23902C8.71872 8.95777 8.35778 8.82183 7.72028 8.77027C7.09215 8.71871 6.63747 8.57808 6.2484 8.32027C4.79997 7.35933 4.93122 5.53121 6.50622 4.74371C6.72184 4.63589 6.96559 4.53746 7.05466 4.51871L7.21872 4.49058V4.07808C7.21872 3.73121 7.23278 3.64683 7.32653 3.51089C7.51872 3.22496 7.81872 3.15464 8.09997 3.32808Z" fill="white"/>
<path d="M14.8359 10.0547C12.8578 10.3641 11.1469 11.6016 10.2609 13.3734C9.77343 14.3344 9.59062 15.1359 9.5953 16.2422C9.59999 17.9391 10.2141 19.4062 11.4141 20.6016C12.3516 21.5344 13.5234 22.1344 14.8125 22.3406C15.4078 22.4344 16.5656 22.4062 17.1094 22.2891C20.4187 21.5578 22.5375 18.3562 21.9094 15.0469C21.4172 12.4312 19.3641 10.4531 16.7344 10.0547C16.2 9.9703 15.3516 9.9703 14.8359 10.0547ZM14.9766 12.075C15.0937 12.1219 15.1875 12.3516 15.1875 12.6094V12.8437H15.6094H16.0312V12.5672C16.0312 12.3609 16.0547 12.2625 16.1297 12.1687C16.2609 12.0047 16.5047 12 16.6641 12.1641C16.7672 12.2625 16.7812 12.3187 16.7812 12.5859C16.7812 12.8437 16.7953 12.8906 16.8656 12.8906C16.9969 12.8906 17.4422 13.1156 17.6625 13.2984C18.075 13.6359 18.375 14.2641 18.375 14.7844C18.375 15.2156 18.1969 15.7078 17.925 16.0312C17.8359 16.1344 17.8078 16.2 17.8406 16.2375C18.4219 17.0062 18.525 17.7609 18.1453 18.5062C17.9344 18.9187 17.4984 19.2937 17.0484 19.4531L16.8047 19.5375L16.7812 19.8469C16.7578 20.1797 16.6734 20.3109 16.4484 20.3672C16.3594 20.3906 16.2891 20.3672 16.1812 20.2734C16.0453 20.1562 16.0312 20.1234 16.0312 19.8703V19.5937H15.6094H15.1875V19.8141C15.1875 20.0906 15.1078 20.2547 14.9391 20.3344C14.7891 20.4047 14.6578 20.3766 14.5312 20.2359C14.4609 20.1609 14.4375 20.0719 14.4375 19.8703V19.6031L13.9406 19.5844C13.4625 19.5703 13.4391 19.5656 13.3312 19.4391L13.2187 19.3031L13.2281 16.1625L13.2422 13.0219L13.3547 12.9328C13.4437 12.8578 13.5422 12.8437 13.95 12.8437H14.4375V12.5531C14.4375 12.3187 14.4562 12.2437 14.5406 12.1547C14.6391 12.0469 14.8172 12.0141 14.9766 12.075Z" fill="white"/>
<path d="M14.3906 14.789V15.614L15.5578 15.6C16.6594 15.5859 16.7344 15.5812 16.8609 15.4875C17.0953 15.314 17.2031 15.1078 17.2031 14.8265C17.2031 14.4937 17.0953 14.2734 16.8609 14.1187L16.6734 13.9921L15.5297 13.9781L14.3906 13.964V14.789Z" fill="white"/>
<path d="M14.3906 17.6016V18.4219H15.4828C16.7063 18.4219 16.8516 18.3891 17.0672 18.0891C17.1609 17.9578 17.1797 17.8734 17.1797 17.5922C17.1797 17.2031 17.1 17.0578 16.8 16.8891C16.6266 16.7859 16.5703 16.7812 15.5063 16.7812H14.3906V17.6016Z" fill="white"/>
<path d="M1.69219 12.9187C1.59375 13.0406 1.59375 13.0828 1.59375 15.8203V18.5953L1.70156 18.689C1.89375 18.8672 2.025 18.8625 2.42344 18.6515C2.625 18.5437 2.85469 18.4172 2.93438 18.3703L3.07969 18.2812L3.32344 18.6844C4.52344 20.6484 6.62813 22.125 8.925 22.6219C9.72188 22.7906 10.6922 22.8562 11.4703 22.7906C11.9672 22.7484 12.1453 22.7156 12.2344 22.65C12.4547 22.4859 12.4781 22.1765 12.2812 21.9937C12.225 21.9422 12.0188 21.8765 11.7563 21.825C9.43125 21.3844 7.18594 19.7344 5.78906 17.4422C5.64844 17.2078 5.53125 17.0015 5.53125 16.9828C5.53125 16.964 5.78438 16.8094 6.09375 16.6453C6.39844 16.4812 6.68438 16.3125 6.72656 16.2656C6.83906 16.1437 6.83438 15.8719 6.72656 15.75C6.65156 15.6656 2.52188 13.0078 2.21719 12.8531C2.03438 12.7547 1.8 12.7828 1.69219 12.9187Z" fill="white"/>
</svg>
