<?xml version="1.0" encoding="UTF-8"?>
<svg xmlns="http://www.w3.org/2000/svg" width="56" height="56" viewBox="0 0 56 56" fill="none">
  <path fill-rule="evenodd" clip-rule="evenodd" d="M10.0415 12.8046L13.4085 49.2821L27.9998 53.2111L42.5907 49.2821L45.9583 12.8046H10.0415Z" fill="#1758A7"></path>
  <path fill-rule="evenodd" clip-rule="evenodd" d="M27.9995 15.7592V50.0775L28.0324 50.0864L39.8404 46.9069L42.5659 15.7592H27.9995Z" fill="#379AD6"></path>
  <path fill-rule="evenodd" clip-rule="evenodd" d="M27.9588 40.7462L27.951 40.7485L23.0761 39.5059L22.7807 35.9274H18.2505L18.8413 42.836L28.0002 45.5696V40.7345L27.9588 40.7462Z" fill="#E8E8E7"></path>
  <path fill-rule="evenodd" clip-rule="evenodd" d="M28 29.1793V33.5684H28.013L33.4273 33.5743L33.0798 39.3115L28.013 40.7389L28 40.7427V45.5647L28.013 45.5686L28.0166 45.5697L37.1999 42.8875L38.3913 29.1793H28Z" fill="#FBFBFA"></path>
  <path fill-rule="evenodd" clip-rule="evenodd" d="M17.6094 29.1793L17.9541 33.5638L17.9547 33.5706L27.9999 33.5713V29.1793H17.6094Z" fill="#E5E4E2"></path>
  <path fill-rule="evenodd" clip-rule="evenodd" d="M17.6104 29.1793H27.9747L28.0002 29.1683V24.7863L17.6104 29.1793Z" fill="#EEEEEE"></path>
  <path fill-rule="evenodd" clip-rule="evenodd" d="M28.6073 24.573L28 24.8273V29.1783L38.7137 24.573H28.6073Z" fill="white"></path>
  <path fill-rule="evenodd" clip-rule="evenodd" d="M16.6465 20.1813L17.1894 24.5729H28.0002V20.1813H16.6465Z" fill="#E7E7E6"></path>
  <path fill-rule="evenodd" clip-rule="evenodd" d="M28 24.5729L39.139 20.1813H28V24.5729ZM28.003 24.5729H38.6955L39.1391 20.1813L28.003 24.5729Z" fill="#F8F8F7"></path>
  <path fill-rule="evenodd" clip-rule="evenodd" d="M17.3428 9.61317H22.8862V7.44514H19.7186V5.27405H22.8862V2.89832H17.3428V9.61317ZM25.2553 5.27416C25.997 6.01583 26.3837 6.37075 27.4565 7.44361C26.8295 7.44361 25.2553 7.44591 25.2553 7.44569V9.61317H30.7992V7.44514L28.5848 5.27405H30.7992V2.89832H25.2553V5.27416ZM38.6569 2.89832H33.1127V5.27416C33.8544 6.01583 34.2413 6.37075 35.3141 7.44361C34.6873 7.44361 33.1127 7.44591 33.1127 7.44569V9.61317H38.6569V7.44514L36.4424 5.27405H38.6569V2.89832Z" fill="#1B1B1B"></path>
</svg>
