<?xml version="1.0" encoding="UTF-8"?>
<svg xmlns="http://www.w3.org/2000/svg" width="35" height="35" viewBox="0 0 35 35" fill="none">
  <path d="M27.4736 31.9102C27.3164 31.9102 27.166 31.8691 27.0225 31.7803L23.9258 29.8389C23.5293 29.5928 23.4062 29.0664 23.6592 28.6699C23.9053 28.2734 24.4316 28.1504 24.8281 28.4033L27.3574 29.9893L30.0029 27.3438L28.4375 24.8555C28.2666 24.582 28.2666 24.2402 28.4307 23.9668C29.0596 22.9209 29.5312 21.7998 29.832 20.6309C29.9141 20.3232 30.1533 20.084 30.4609 20.0156L33.3115 19.3594V15.6201L30.4609 14.9639C30.1533 14.8955 29.9072 14.6563 29.832 14.3486C29.5312 13.1797 29.0596 12.0518 28.4307 11.0127C28.2666 10.7393 28.2666 10.3975 28.4375 10.124L29.9961 7.62891L27.3506 4.9834L24.8213 6.56934C24.5547 6.7334 24.2197 6.74023 23.9463 6.58301C22.9141 5.98145 21.8066 5.53027 20.6582 5.24316C20.3506 5.16797 20.1113 4.92188 20.0361 4.61426L19.3594 1.68164H15.6201L14.9297 4.67578C14.8613 4.9834 14.6289 5.22266 14.3213 5.30469C13.207 5.60547 12.1406 6.05664 11.1426 6.65137C10.8691 6.81543 10.5273 6.80859 10.2607 6.64453L7.62891 4.99707L4.9834 7.64258L6.67871 10.3086C6.84277 10.5752 6.84961 10.9102 6.69238 11.1836C6.11816 12.168 5.6875 13.2207 5.40039 14.3076C5.31836 14.6152 5.0791 14.8477 4.77148 14.916L1.69531 15.6201V19.3594L4.77148 20.0635C5.0791 20.1318 5.3252 20.3711 5.40039 20.6719C5.68066 21.7588 6.11816 22.8047 6.69238 23.7959C6.84961 24.0693 6.84277 24.4043 6.67871 24.6709L5.00391 27.3438L7.64941 29.9893L10.2812 28.3418C10.6777 28.0957 11.1973 28.2119 11.4502 28.6084C11.6963 29.0049 11.5801 29.5244 11.1836 29.7773L7.97754 31.7871C7.64258 31.999 7.20508 31.9443 6.93164 31.6709L3.33594 28.0752C3.05566 27.7949 3.00781 27.3643 3.21973 27.0293L4.9834 24.2129C4.53906 23.3789 4.17676 22.5107 3.91016 21.6152L0.65625 20.8633C0.273438 20.7744 0 20.4326 0 20.0361V14.9502C0 14.5537 0.273438 14.2119 0.65625 14.123L3.90332 13.3779C4.16992 12.4824 4.53223 11.6143 4.97656 10.7803L3.21289 7.96387C3.00098 7.62891 3.05566 7.19141 3.3291 6.91797L6.9248 3.32227C7.20508 3.04199 7.63574 2.99414 7.9707 3.20605L10.7461 4.94238C11.5938 4.47754 12.4824 4.10156 13.4053 3.82129L14.1299 0.65625C14.2188 0.273438 14.5605 0 14.957 0H20.043C20.4395 0 20.7812 0.273438 20.8701 0.65625L21.5811 3.74609C22.5381 4.02637 23.4678 4.40234 24.3496 4.88086L27.0293 3.19922C27.3643 2.9873 27.8018 3.04199 28.0752 3.31543L31.6709 6.91113C31.9512 7.19141 31.999 7.62207 31.7871 7.95703L30.1396 10.5889C30.6387 11.4912 31.0352 12.4414 31.3291 13.4258L34.3438 14.1162C34.7266 14.2051 35 14.5469 35 14.9434V20.0293C35 20.4258 34.7266 20.7676 34.3438 20.8564L31.3291 21.5469C31.0352 22.5312 30.6387 23.4814 30.1396 24.3838L31.7871 27.0156C31.999 27.3506 31.9443 27.7881 31.6709 28.0615L28.0752 31.6572C27.9111 31.8281 27.6924 31.9102 27.4736 31.9102Z" fill="#9810FA"></path>
  <path d="M20.0908 34.7063C19.626 34.7063 19.2432 34.3303 19.2432 33.8586V24.6916C19.2432 23.8508 19.6943 23.0715 20.4258 22.6682C22.3193 21.6154 23.502 19.6193 23.502 17.4524C23.502 15.4631 22.5312 13.6516 20.9385 12.551V16.468C20.9385 17.4797 20.1182 18.3 19.1064 18.3H15.9619C14.9502 18.3 14.1299 17.4797 14.1299 16.468V12.551C12.5439 13.6516 11.5664 15.4631 11.5664 17.4524C11.5664 19.6193 12.7422 21.6154 14.6426 22.6682C15.374 23.0715 15.8252 23.844 15.8252 24.6916V33.8586C15.8252 34.3234 15.4492 34.7063 14.9775 34.7063C14.5059 34.7063 14.1299 34.3303 14.1299 33.8586V24.6916C14.1299 24.466 14.0137 24.2541 13.8223 24.1516C11.3887 22.7981 9.87793 20.2346 9.87793 17.4524C9.87793 14.3147 11.7578 11.5324 14.6631 10.3498C14.9229 10.2404 15.2236 10.2746 15.4561 10.4318C15.6885 10.5891 15.832 10.8557 15.832 11.1359V16.468C15.832 16.5432 15.8936 16.6047 15.9688 16.6047H19.1133C19.1885 16.6047 19.25 16.5432 19.25 16.468V11.1359C19.25 10.8557 19.3867 10.5891 19.626 10.4318C19.8584 10.2746 20.1592 10.2404 20.4189 10.3498C23.3242 11.5256 25.2041 14.3147 25.2041 17.4524C25.2041 20.2346 23.6934 22.7981 21.2598 24.1516C21.0684 24.2541 20.9521 24.466 20.9521 24.6916V33.8586C20.9385 34.3303 20.5625 34.7063 20.0908 34.7063Z" fill="#9810FA"></path>
  <path d="M27.5146 18.3408C27.0498 18.3408 26.667 17.9648 26.667 17.4932C26.667 12.4414 22.5586 8.32617 17.5 8.32617C17.0352 8.32617 16.6523 7.9502 16.6523 7.47852C16.6523 7.00684 17.0283 6.63086 17.5 6.63086C23.4883 6.63086 28.3623 11.5049 28.3623 17.4932C28.3623 17.958 27.9795 18.3408 27.5146 18.3408ZM10.7256 25.71C10.5205 25.71 10.3154 25.6348 10.1514 25.4844C7.92285 23.4336 6.64453 20.5215 6.64453 17.4932C6.64453 17.0283 7.02051 16.6455 7.49219 16.6455C7.96387 16.6455 8.33984 17.0215 8.33984 17.4932C8.33984 20.0498 9.41992 22.5107 11.2998 24.2402C11.6416 24.5547 11.6689 25.0947 11.3477 25.4365C11.1768 25.6211 10.9512 25.71 10.7256 25.71Z" fill="#9810FA"></path>
</svg>
