<?xml version="1.0" encoding="UTF-8"?>
<svg xmlns="http://www.w3.org/2000/svg" width="26" height="26" viewBox="0 0 26 26" fill="none">
  <path fill-rule="evenodd" clip-rule="evenodd" d="M25.0833 5.54167C25.0833 4.07193 24.4995 2.66238 23.4602 1.62312C22.421 0.583852 21.0114 0 19.5417 0H5.54167C4.07193 0 2.66238 0.583852 1.62312 1.62312C0.583852 2.66238 0 4.07193 0 5.54167V19.5417C0 21.0114 0.583852 22.421 1.62312 23.4602C2.66238 24.4995 4.07193 25.0833 5.54167 25.0833H19.5417C21.0114 25.0833 22.421 24.4995 23.4602 23.4602C24.4995 22.421 25.0833 21.0114 25.0833 19.5417V5.54167ZM23.3333 5.54167V19.5417C23.3338 20.0397 23.236 20.533 23.0456 20.9932C22.8553 21.4535 22.576 21.8716 22.2238 22.2238C21.8716 22.576 21.4535 22.8553 20.9932 23.0456C20.533 23.236 20.0397 23.3338 19.5417 23.3333H5.54167C5.04361 23.3338 4.55035 23.236 4.09011 23.0456C3.62988 22.8553 3.21171 22.576 2.85953 22.2238C2.50735 21.8716 2.22807 21.4535 2.03769 20.9932C1.8473 20.533 1.74954 20.0397 1.75 19.5417V5.54167C1.74954 5.04361 1.8473 4.55035 2.03769 4.09011C2.22807 3.62988 2.50735 3.21171 2.85953 2.85953C3.21171 2.50735 3.62988 2.22807 4.09011 2.03769C4.55035 1.8473 5.04361 1.74954 5.54167 1.75H19.5417C20.0397 1.74954 20.533 1.8473 20.9932 2.03769C21.4535 2.22807 21.8716 2.50735 22.2238 2.85953C22.576 3.21171 22.8553 3.62988 23.0456 4.09011C23.236 4.55035 23.3338 5.04361 23.3333 5.54167Z" fill="white"></path>
  <path fill-rule="evenodd" clip-rule="evenodd" d="M13.111 8.06522L10.311 16.4652C10.2481 16.6827 10.2718 16.916 10.3771 17.1164C10.4824 17.3167 10.6612 17.4686 10.876 17.5401C11.0907 17.6115 11.3248 17.5971 11.5292 17.4999C11.7336 17.4026 11.8924 17.23 11.9724 17.0182L14.7724 8.61822C14.8353 8.40078 14.8116 8.16743 14.7063 7.96707C14.601 7.7667 14.4222 7.61487 14.2074 7.54338C13.9927 7.47189 13.7586 7.4863 13.5542 7.58357C13.3498 7.68085 13.191 7.85345 13.111 8.06522ZM16.1234 10.36L18.3039 12.5417L16.1234 14.7234C16.0422 14.8046 15.9778 14.901 15.9338 15.0071C15.8899 15.1132 15.8673 15.2269 15.8673 15.3417C15.8673 15.4566 15.8899 15.5703 15.9338 15.6764C15.9778 15.7825 16.0422 15.8788 16.1234 15.96C16.2046 16.0413 16.301 16.1057 16.4071 16.1496C16.5132 16.1936 16.6269 16.2162 16.7417 16.2162C16.8565 16.2162 16.9703 16.1936 17.0763 16.1496C17.1824 16.1057 17.2788 16.0413 17.36 15.96L20.16 13.16C20.2413 13.0789 20.3058 12.9825 20.3498 12.8764C20.3938 12.7703 20.4164 12.6566 20.4164 12.5417C20.4164 12.4269 20.3938 12.3131 20.3498 12.207C20.3058 12.1009 20.2413 12.0045 20.16 11.9234L17.36 9.12338C17.2788 9.04218 17.1824 8.97777 17.0763 8.93382C16.9703 8.88988 16.8565 8.86726 16.7417 8.86726C16.6269 8.86726 16.5132 8.88988 16.4071 8.93382C16.301 8.97777 16.2046 9.04218 16.1234 9.12338C16.0422 9.20458 15.9778 9.30098 15.9338 9.40708C15.8899 9.51317 15.8673 9.62688 15.8673 9.74172C15.8673 9.85655 15.8899 9.97026 15.9338 10.0764C15.9778 10.1824 16.0422 10.2788 16.1234 10.36ZM7.72337 9.12338L4.92337 11.9234C4.8421 12.0045 4.77762 12.1009 4.73363 12.207C4.68964 12.3131 4.66699 12.4269 4.66699 12.5417C4.66699 12.6566 4.68964 12.7703 4.73363 12.8764C4.77762 12.9825 4.8421 13.0789 4.92337 13.16L7.72337 15.96C7.80457 16.0413 7.90097 16.1057 8.00707 16.1496C8.11316 16.1936 8.22687 16.2162 8.34171 16.2162C8.45654 16.2162 8.57025 16.1936 8.67635 16.1496C8.78244 16.1057 8.87884 16.0413 8.96004 15.96C9.04124 15.8788 9.10565 15.7825 9.1496 15.6764C9.19354 15.5703 9.21616 15.4566 9.21616 15.3417C9.21616 15.2269 9.19354 15.1132 9.1496 15.0071C9.10565 14.901 9.04124 14.8046 8.96004 14.7234L6.77954 12.5417L8.96004 10.36C9.04124 10.2788 9.10565 10.1824 9.1496 10.0764C9.19354 9.97026 9.21616 9.85655 9.21616 9.74172C9.21616 9.62688 9.19354 9.51317 9.1496 9.40708C9.10565 9.30098 9.04124 9.20458 8.96004 9.12338C8.87884 9.04218 8.78244 8.97777 8.67635 8.93382C8.57025 8.88988 8.45654 8.86726 8.34171 8.86726C8.22687 8.86726 8.11316 8.88988 8.00707 8.93382C7.90097 8.97777 7.80457 9.04218 7.72337 9.12338Z" fill="white"></path>
</svg>
