<?xml version="1.0" encoding="UTF-8"?>
<svg xmlns="http://www.w3.org/2000/svg" width="22" height="22" viewBox="0 0 22 22" fill="none">
  <mask id="mask0_3827_749" style="mask-type:luminance" maskUnits="userSpaceOnUse" x="2" y="2" width="18" height="18">
    <path d="M2 2H20V20H2V2Z" fill="white"></path>
  </mask>
  <g mask="url(#mask0_3827_749)">
    <path fill-rule="evenodd" clip-rule="evenodd" d="M12.4922 5.75049C12.4922 5.55158 12.5712 5.36081 12.7119 5.22016C12.8525 5.07951 13.0433 5.00049 13.2422 5.00049H16.2422C16.4411 5.00049 16.6319 5.07951 16.7725 5.22016C16.9132 5.36081 16.9922 5.55158 16.9922 5.75049V8.75049C16.9922 8.9494 16.9132 9.14017 16.7725 9.28082C16.6319 9.42147 16.4411 9.50049 16.2422 9.50049C16.0433 9.50049 15.8525 9.42147 15.7119 9.28082C15.5712 9.14017 15.4922 8.9494 15.4922 8.75049V6.50049H13.2422C13.0433 6.50049 12.8525 6.42147 12.7119 6.28082C12.5712 6.14017 12.4922 5.9494 12.4922 5.75049Z" fill="#10B981"></path>
    <path fill-rule="evenodd" clip-rule="evenodd" d="M16.771 5.22057C16.9116 5.36121 16.9906 5.55194 16.9906 5.75082C16.9906 5.94969 16.9116 6.14042 16.771 6.28107L13.771 9.28107C13.6296 9.41768 13.4401 9.49328 13.2435 9.49157C13.0468 9.48986 12.8587 9.41099 12.7197 9.27193C12.5806 9.13287 12.5017 8.94476 12.5 8.74812C12.4983 8.55147 12.5739 8.36202 12.7105 8.22057L15.7105 5.22057C15.8512 5.07996 16.0419 5.00098 16.2408 5.00098C16.4397 5.00098 16.6304 5.07996 16.771 5.22057Z" fill="#10B981"></path>
    <path fill-rule="evenodd" clip-rule="evenodd" d="M2 5.75C2 3.686 3.686 2 5.75 2H16.25C18.314 2 20 3.686 20 5.75V16.25C20 18.314 18.314 20 16.25 20H14.675C14.4761 20 14.2853 19.921 14.1447 19.7803C14.004 19.6397 13.925 19.4489 13.925 19.25C13.925 19.0511 14.004 18.8603 14.1447 18.7197C14.2853 18.579 14.4761 18.5 14.675 18.5H16.25C17.486 18.5 18.5 17.486 18.5 16.25V5.75C18.5 4.514 17.486 3.5 16.25 3.5H5.75C4.514 3.5 3.5 4.514 3.5 5.75V7.325C3.5 7.52391 3.42098 7.71468 3.28033 7.85533C3.13968 7.99598 2.94891 8.075 2.75 8.075C2.55109 8.075 2.36032 7.99598 2.21967 7.85533C2.07902 7.71468 2 7.52391 2 7.325V5.75Z" fill="#10B981"></path>
    <path fill-rule="evenodd" clip-rule="evenodd" d="M5.75 11.0005C4.514 11.0005 3.5 12.0145 3.5 13.2505V16.2505C3.5 17.4865 4.514 18.5005 5.75 18.5005H8.75C9.986 18.5005 11 17.4865 11 16.2505V13.2505C11 12.0145 9.986 11.0005 8.75 11.0005H5.75ZM2 13.2505C2 11.1865 3.686 9.50049 5.75 9.50049H8.75C10.814 9.50049 12.5 11.1865 12.5 13.2505V16.2505C12.5 18.3145 10.814 20.0005 8.75 20.0005H5.75C3.686 20.0005 2 18.3145 2 16.2505V13.2505Z" fill="#10B981"></path>
  </g>
</svg>
