<?xml version="1.0" encoding="UTF-8"?>
<svg xmlns="http://www.w3.org/2000/svg" width="20" height="20" viewBox="0 0 20 20" fill="none">
  <path d="M3.79037 19.095L3.4375 16.4147L6.11782 16.0618M16.0612 0.757812L16.414 3.43813L13.7337 3.791" stroke="#3B82F6" stroke-width="1.5" stroke-miterlimit="10" stroke-linecap="round" stroke-linejoin="round"></path>
  <path d="M16.414 3.43751C14.7536 1.77704 12.4596 0.75 9.92578 0.75C4.85816 0.75 0.75 4.85812 0.75 9.92578C0.75 11.3423 1.07146 12.6835 1.64466 13.8814M3.43751 16.414C5.09799 18.0745 7.39197 19.1016 9.92578 19.1016C14.9934 19.1016 19.1016 14.9934 19.1016 9.92578C19.1016 8.50925 18.7801 7.16798 18.2069 5.97018" stroke="#3B82F6" stroke-width="1.5" stroke-miterlimit="10" stroke-linecap="round" stroke-linejoin="round"></path>
  <path d="M15.2095 8.42078L13.877 6.11267L13.5916 6.27742C12.5552 6.87582 11.2596 6.12783 11.2596 4.93101V4.60156H8.59446V4.93101C8.59446 6.12779 7.29888 6.87579 6.26244 6.27742L5.97711 6.11267L4.64453 8.42078L4.92982 8.58549C5.96626 9.18389 5.96626 10.6799 4.92982 11.2783L4.64453 11.443L5.97711 13.7511L6.26244 13.5864C7.29888 12.988 8.59446 13.736 8.59446 14.9328V15.2622H11.2596V14.9328C11.2596 13.736 12.5552 12.988 13.5916 13.5864L13.877 13.7511L15.2095 11.443L14.9243 11.2783C13.8878 10.6799 13.8878 9.18389 14.9243 8.58549L15.2095 8.42078Z" stroke="#3B82F6" stroke-width="1.5" stroke-miterlimit="10" stroke-linecap="round" stroke-linejoin="round"></path>
  <path d="M9.92753 11.8238C10.9791 11.8238 11.8316 10.9713 11.8316 9.91972C11.8316 8.86812 10.9791 8.01562 9.92753 8.01562C8.87593 8.01562 8.02344 8.86812 8.02344 9.91972C8.02344 10.9713 8.87593 11.8238 9.92753 11.8238Z" stroke="#3B82F6" stroke-width="1.5" stroke-miterlimit="10" stroke-linecap="round" stroke-linejoin="round"></path>
</svg>
