<?xml version="1.0" encoding="UTF-8"?>
<svg xmlns="http://www.w3.org/2000/svg" width="24" height="24" viewBox="0 0 24 24" fill="none">
  <path d="M7 8.75754H1C0.734784 8.75754 0.48043 8.65218 0.292894 8.46465C0.105357 8.27711 3.09801e-07 8.02276 3.09801e-07 7.75754V1.75754C-0.000155428 1.55964 0.0584092 1.36615 0.16828 1.20156C0.278151 1.03696 0.434387 0.90867 0.61721 0.832917C0.800033 0.757165 1.00122 0.73736 1.19531 0.776011C1.38939 0.814661 1.56764 0.910028 1.7075 1.05004L4 3.34504C6.21525 1.20711 9.17136 0.00853618 12.25 3.96094e-05H12.3162C15.4514 -0.00803702 18.4634 1.21933 20.7 3.41629C20.8826 3.60312 20.9849 3.85399 20.9849 4.11525C20.9849 4.3765 20.8827 4.62739 20.7001 4.81423C20.5175 5.00108 20.269 5.10905 20.0078 5.11504C19.7466 5.12103 19.4935 5.02457 19.3025 4.84629C17.4382 3.01639 14.9285 1.99392 12.3162 2.00004H12.26C9.71022 2.00726 7.26082 2.99454 5.41875 4.75754L7.7075 7.05004C7.84751 7.18989 7.94288 7.36815 7.98153 7.56223C8.02018 7.75632 8.00038 7.95751 7.92462 8.14033C7.84887 8.32315 7.72058 8.47939 7.55598 8.58926C7.39139 8.69913 7.1979 8.7577 7 8.75754ZM23 14.7575H17C16.8021 14.7574 16.6086 14.8159 16.444 14.9258C16.2794 15.0357 16.1511 15.1919 16.0754 15.3748C15.9996 15.5576 15.9798 15.7588 16.0185 15.9528C16.0571 16.1469 16.1525 16.3252 16.2925 16.465L18.5812 18.7575C16.7401 20.5216 14.2911 21.5102 11.7413 21.5188H11.685C9.07272 21.5249 6.56302 20.5024 4.69875 18.6725C4.60561 18.5773 4.49436 18.5015 4.37155 18.4499C4.24874 18.3982 4.11683 18.3715 3.98358 18.3715C3.85034 18.3716 3.71843 18.3982 3.59563 18.4499C3.47282 18.5016 3.36158 18.5773 3.26845 18.6726C3.17532 18.7679 3.10217 18.8809 3.05331 19.0048C3.00444 19.1288 2.98085 19.2613 2.9839 19.3945C2.98696 19.5277 3.0166 19.659 3.0711 19.7805C3.1256 19.9021 3.20385 20.0116 3.30125 20.1025C5.53783 22.2995 8.5499 23.5269 11.685 23.5188H11.75C14.8286 23.5103 17.7848 22.3117 20 20.1738L22.295 22.4688C22.4352 22.6082 22.6136 22.7029 22.8076 22.7409C23.0016 22.7789 23.2025 22.7586 23.385 22.6825C23.5675 22.6064 23.7233 22.4779 23.8327 22.3133C23.9422 22.1486 24.0004 21.9552 24 21.7575V15.7575C24 15.4923 23.8946 15.238 23.7071 15.0504C23.5196 14.8629 23.2652 14.7575 23 14.7575Z" fill="white"></path>
</svg>
