<?xml version="1.0" encoding="UTF-8"?>
<svg xmlns="http://www.w3.org/2000/svg" width="19" height="21" viewBox="0 0 19 21" fill="none">
  <path d="M10.6094 6.50781C11.0833 6.50781 11.4844 6.67188 11.8125 7C12.1406 7.32812 12.3047 7.71094 12.3047 8.14844C12.3047 8.6224 12.1406 9.02344 11.8125 9.35156C11.4844 9.67969 11.0833 9.84375 10.6094 9.84375C10.1719 9.84375 9.78906 9.67969 9.46094 9.35156C9.13281 9.02344 8.96875 8.6224 8.96875 8.14844C8.96875 7.71094 9.13281 7.32812 9.46094 7C9.78906 6.67188 10.1719 6.50781 10.6094 6.50781ZM10.6094 0C11.7396 0 12.7969 0.21875 13.7812 0.65625C14.7656 1.05729 15.6224 1.64062 16.3516 2.40625C17.1172 3.13542 17.7188 3.99219 18.1562 4.97656C18.5938 5.96094 18.8125 7.01823 18.8125 8.14844C18.8125 9.78906 18.375 11.2656 17.5 12.5781C16.625 13.8906 15.4948 14.875 14.1094 15.5312V21H5.96094V17.5H4.8125C4.15625 17.5 3.59115 17.2812 3.11719 16.8438C2.67969 16.3698 2.46094 15.8047 2.46094 15.1484V11.6484H0.710938C0.455729 11.6484 0.273438 11.5573 0.164062 11.375C0.0546875 11.1562 0.0729167 10.9375 0.21875 10.7188L2.46094 7.76562C2.53385 6.67188 2.78906 5.66927 3.22656 4.75781C3.66406 3.8099 4.2474 2.98958 4.97656 2.29688C5.74219 1.56771 6.59896 1.0026 7.54688 0.601562C8.49479 0.200521 9.51562 0 10.6094 0ZM14.1094 8.14844C14.1094 7.96615 14.0911 7.82031 14.0547 7.71094L15.0938 6.94531C15.2031 6.8724 15.2214 6.76302 15.1484 6.61719L14.2188 5.03125C14.1458 4.92188 14.0365 4.88542 13.8906 4.92188L12.7422 5.41406C12.487 5.19531 12.2318 5.03125 11.9766 4.92188L11.8125 3.71875C11.776 3.57292 11.6849 3.5 11.5391 3.5H9.67969C9.57031 3.5 9.4974 3.57292 9.46094 3.71875L9.29688 4.92188C9.04167 5.03125 8.78646 5.19531 8.53125 5.41406L7.32812 4.92188C7.21875 4.88542 7.1276 4.92188 7.05469 5.03125L6.125 6.61719C6.05208 6.76302 6.07031 6.8724 6.17969 6.94531L7.16406 7.71094C7.16406 7.78385 7.14583 7.85677 7.10938 7.92969C7.10938 8.0026 7.10938 8.07552 7.10938 8.14844C7.10938 8.22135 7.10938 8.3125 7.10938 8.42188C7.14583 8.49479 7.16406 8.56771 7.16406 8.64062L6.17969 9.40625C6.07031 9.47917 6.05208 9.57031 6.125 9.67969L7.05469 11.3203C7.1276 11.4297 7.21875 11.4661 7.32812 11.4297L8.47656 10.9375C8.73177 11.1198 9.00521 11.2656 9.29688 11.375L9.46094 12.6328C9.4974 12.7786 9.57031 12.8516 9.67969 12.8516H11.5391C11.6849 12.8516 11.776 12.7786 11.8125 12.6328L11.9766 11.375C12.2682 11.2656 12.5234 11.1198 12.7422 10.9375L13.8906 11.4297C14.0365 11.4661 14.1458 11.4297 14.2188 11.3203L15.1484 9.67969C15.1849 9.57031 15.1667 9.47917 15.0938 9.40625L14.1094 8.64062C14.1094 8.56771 14.1094 8.49479 14.1094 8.42188C14.1094 8.3125 14.1094 8.22135 14.1094 8.14844Z" fill="white"></path>
</svg>
