<?xml version="1.0" encoding="UTF-8"?>
<svg xmlns="http://www.w3.org/2000/svg" width="28" height="28" viewBox="0 0 28 28" fill="none">
  <path fill-rule="evenodd" clip-rule="evenodd" d="M2.84652 0C2.41563 0 2.06798 0.347995 2.06798 0.776064L2.06652 6.61034H3.62509V0.776064C3.62509 0.346545 3.27595 0 2.84652 0ZM10.283 0C9.85212 0 9.50447 0.347995 9.50447 0.776064L9.50301 9.72503H11.0616V0.776064C11.0616 0.346545 10.7124 0 10.283 0ZM17.721 0C17.2901 0 16.9425 0.347995 16.9425 0.776064L16.941 5.06119H18.4981V0.776064C18.4981 0.346545 18.149 0 17.7196 0H17.721ZM25.1575 0C24.7266 0 24.3789 0.347995 24.3789 0.776064V2.72282H25.9375L25.9346 0.776064C25.9346 0.346545 25.5855 0 25.1561 0H25.1575ZM23.8692 4.27655C23.0176 4.27655 22.3106 4.98127 22.3106 5.83017V16.7215C22.3106 17.5704 23.0176 18.2752 23.8692 18.2752H26.4414C27.293 18.2752 28 17.5704 28 16.7215V5.83017C28 4.98131 27.293 4.27655 26.4414 4.27655H23.8692ZM16.4327 6.61496C15.5811 6.61496 14.8741 7.31968 14.8741 8.16858V15.1781C14.8741 16.027 15.5811 16.7317 16.4327 16.7317H19.0079C19.8594 16.7317 20.5664 16.027 20.5664 15.1781L20.565 8.16709C20.565 7.31822 19.858 6.61347 19.0064 6.61347L16.4327 6.61496ZM1.55857 8.16273C0.707003 8.16273 0 8.86745 0 9.71635V16.7184C0 17.5673 0.706965 18.2721 1.55857 18.2721H4.13085C4.98241 18.2721 5.68942 17.5673 5.68942 16.7184V9.71635C5.68942 8.86748 4.98245 8.16273 4.13085 8.16273H1.55857ZM8.99506 11.2816C8.14349 11.2816 7.43649 11.9863 7.43649 12.8352V22.173C7.43649 23.0218 8.14345 23.7266 8.99506 23.7266H11.5703C12.4218 23.7266 13.1288 23.0219 13.1288 22.173L13.1274 12.8337C13.1274 11.9849 12.4204 11.2801 11.5688 11.2801L8.99506 11.2816ZM16.9412 18.2822V27.2237C16.9412 27.6532 17.2903 27.9998 17.7198 27.9998C18.1506 27.9998 18.4983 27.6518 18.4983 27.2237V18.2822H16.9412ZM2.06712 19.8256V27.2239C2.06712 27.6535 2.41623 28 2.84566 28C3.27655 28 3.6242 27.652 3.6242 27.2239L3.62566 19.8256H2.06712ZM24.3762 19.8256V27.221C24.3762 27.6505 24.7253 27.997 25.1547 27.997C25.5856 27.997 25.9333 27.649 25.9333 27.221L25.9347 19.8256H24.3762ZM9.50361 25.2726V27.2208C9.50361 27.6503 9.85272 27.9969 10.2822 27.9969C10.713 27.9969 11.0607 27.6489 11.0607 27.2208L11.0621 25.2726H9.50361Z" fill="#FF9E2B"></path>
</svg>
