<?xml version="1.0" encoding="UTF-8"?>
<svg xmlns="http://www.w3.org/2000/svg" width="22" height="22" viewBox="0 0 22 22" fill="none">
  <g clip-path="url(#clip0_3134_582)">
    <path d="M1.67188 21.9999C1.72015 21.9709 1.96764 21.9402 2.04099 21.9183C2.21253 21.8674 2.3522 21.8186 2.51404 21.7405C3.18567 21.4219 3.69577 20.8398 3.92358 20.1321C4.09718 19.5848 4.049 18.7836 4.04868 18.1856L4.04832 16.5164L4.04849 11.7247L4.04783 10.7168C4.04777 10.5121 4.02492 10.1858 4.09076 9.99598C4.19171 9.7049 4.45131 9.57254 4.75181 9.57225C5.09513 9.5719 5.44359 9.57096 5.78947 9.571L7.78413 9.57134L13.7631 9.57158L18.7953 9.57154L20.4256 9.57105C20.7211 9.57083 21.0198 9.56405 21.3151 9.57289C21.7256 9.58518 21.8506 9.75919 21.9987 10.0989V20.2035L21.9954 20.2134C21.9529 20.3409 21.9366 20.4893 21.892 20.6207C21.7192 21.1253 21.3563 21.5426 20.8806 21.7839C20.7407 21.8552 20.6594 21.8885 20.5088 21.9254C20.4527 21.9391 20.2658 21.9797 20.2248 21.9999H1.67188Z" fill="white"></path>
    <path d="M6.02563 0H18.7218C18.7581 0.0227024 18.8223 0.0456801 18.8639 0.0648461C19.3184 0.273668 19.2369 0.737491 19.2369 1.1598L19.237 2.20313C19.237 3.29397 19.2552 4.43981 19.2337 5.52675C18.9806 5.54674 18.5733 5.53336 18.3037 5.5333L16.5682 5.53306L11.0946 5.53311L9.56824 5.53281C9.28978 5.53242 8.81586 5.51811 8.56118 5.56456C8.18013 5.63424 7.82969 5.8193 7.55728 6.09469C6.9039 6.74472 6.99326 7.45264 6.99349 8.28774C6.51637 8.30535 6.00046 8.2777 5.51625 8.29223C5.52892 8.09972 5.51955 7.81205 5.51954 7.6091L5.51955 6.28613L5.5194 2.17058L5.51909 1.22041C5.519 1.01331 5.49975 0.638954 5.55292 0.452358C5.63618 0.160095 5.81278 0.115459 6.02563 0ZM15.7573 4.04986C16.1578 4.04255 16.4869 3.81105 16.471 3.37909C16.4643 3.20703 16.3886 3.0449 16.2608 2.92946C16.1497 2.82792 16.0443 2.78629 15.8962 2.77574C15.6416 2.75761 15.3679 2.76471 15.112 2.76468L13.6488 2.76464L9.01974 2.76594C8.86765 2.77223 8.75247 2.77407 8.6141 2.84656C8.39541 2.96111 8.27221 3.20186 8.28705 3.44594C8.29741 3.61839 8.37701 3.77932 8.50777 3.89221C8.6092 3.97821 8.73447 4.03119 8.86683 4.04406C9.02702 4.06098 9.42014 4.05034 9.59778 4.05033L11.0533 4.05015L15.7573 4.04986Z" fill="white"></path>
    <path d="M0 4.65288L0.00492382 4.64414C0.0317507 4.59568 0.0550144 4.54097 0.077999 4.49005C0.276499 4.05027 0.821267 4.14019 1.22725 4.14075L2.19815 4.14062L2.96349 4.14059C3.14116 4.14065 3.43885 4.12845 3.59859 4.17392C3.79496 4.22981 4.10183 4.55443 4.22922 4.70438C4.25141 5.3023 4.23375 5.9963 4.23394 6.6035L4.23414 7.67775C4.23414 7.88631 4.23885 8.12631 4.22954 8.33291L4.21876 8.33793C4.09231 8.39544 3.973 8.42114 3.83744 8.48727C3.40507 8.70124 3.06824 9.06902 2.89299 9.51849C2.82525 9.69408 2.78374 9.8787 2.7698 10.0664C2.74785 10.3464 2.75926 10.7266 2.75924 11.0166L2.75933 12.6611L2.75929 17.7821L2.75997 18.7203C2.76017 19.0242 2.78449 19.4482 2.70044 19.7315C2.58743 20.1122 2.29725 20.4311 1.9362 20.5945C1.60558 20.7416 1.23021 20.7519 0.892033 20.6232C0.550564 20.4943 0.283917 20.2401 0.123712 19.9107C0.0829412 19.827 0.0251556 19.5786 0 19.54V4.65288Z" fill="white"></path>
    <path d="M8.28294 8.29279C8.31804 7.95193 8.23067 7.55383 8.33288 7.22255C8.40916 6.97531 8.67942 6.81285 8.93209 6.81118C9.19207 6.80945 9.45151 6.80936 9.71128 6.80947L11.1163 6.80952L15.4439 6.80955L19.3881 6.80992L20.6202 6.80949C20.9108 6.80887 21.3212 6.77584 21.5982 6.86169C21.824 6.93165 21.9137 7.13607 22.0013 7.33784V8.39413C21.5174 8.25085 21.0834 8.28846 20.5815 8.28857L19.4266 8.28888L16.0504 8.28886L10.9392 8.28877L9.24682 8.28883C8.93435 8.2889 8.5937 8.28307 8.28294 8.29279Z" fill="white"></path>
  </g>
  <defs>
    <clipPath id="clip0_3134_582">
      <rect width="22" height="22" fill="white"></rect>
    </clipPath>
  </defs>
</svg>
