<svg width="38" height="38" viewBox="0 0 38 38" fill="none" xmlns="http://www.w3.org/2000/svg">
<path d="M4.43066 0.0890636C4.36386 0.141016 4.2748 0.282032 4.23027 0.39336C4.11894 0.697657 4.12636 28.2402 4.23769 28.5668C4.28222 28.693 4.37871 28.834 4.45292 28.8711C4.54199 28.9156 8.6166 28.9453 15.7639 28.9453C26.8447 28.9453 26.9412 28.9453 27.0896 28.7969C27.2307 28.6559 27.2381 28.552 27.2381 27.2754C27.2381 26.5184 27.2232 25.9023 27.2084 25.9023C27.1935 25.9023 26.9635 25.9988 26.6963 26.125C25.724 26.5629 25.108 26.6816 23.7498 26.6816C22.7033 26.6816 22.4287 26.652 21.8943 26.5109C20.9072 26.2363 20.076 25.8133 19.0369 25.0563C18.9701 25.0043 18.7771 25.123 18.3986 25.4645C17.5303 26.2289 17.4635 26.2734 17.0775 26.2734C16.8697 26.2734 16.6471 26.2141 16.4986 26.1324C16.3725 26.0508 15.4447 24.982 14.4353 23.7574C13.426 22.5254 12.5799 21.5086 12.5428 21.4863C12.5057 21.4641 11.7709 22.0875 10.91 22.8742C10.0416 23.6609 9.26972 24.3438 9.18066 24.3957C8.95058 24.5219 8.49042 24.5145 8.19355 24.3734C7.63691 24.1063 7.41425 23.4086 7.71855 22.8816C7.94121 22.4957 11.9342 18.8441 12.2756 18.7105C12.617 18.5844 12.9881 18.6512 13.2924 18.9109C13.426 19.0148 14.324 20.0836 15.3037 21.2785C16.276 22.4734 17.1072 23.468 17.1518 23.4977C17.1963 23.5199 17.2853 23.4902 17.3596 23.4234C17.4857 23.3047 17.4783 23.275 17.174 22.6516C16.9959 22.2953 16.7584 21.7016 16.6471 21.3379C16.4689 20.7293 16.4467 20.5586 16.4467 19.4082C16.4393 18.3098 16.4615 18.0648 16.61 17.5156C17.3744 14.725 19.6158 12.632 22.4361 12.0902C23.0373 11.9715 24.4846 11.9715 25.0486 12.0902C25.6572 12.2164 26.392 12.4539 26.8076 12.6617C27.0006 12.7582 27.1787 12.8398 27.201 12.8398C27.2232 12.8398 27.2381 12.3426 27.2381 11.7266V10.6133L27.0451 10.6875C26.9338 10.732 25.0115 10.7617 22.0947 10.7617C16.7807 10.7617 17.0033 10.784 16.6471 10.2496L16.4764 9.99727V5.14336C16.4764 1.93711 16.506 0.237501 16.5506 0.141016C16.6322 0 16.5357 0 10.5908 0C5.87792 0 4.52714 0.0222664 4.43066 0.0890636ZM14.3685 3.22109C14.4799 3.31016 14.4947 3.35469 14.4279 3.46602C14.3463 3.59219 14.1236 3.59961 10.3162 3.59961C6.50878 3.59961 6.28613 3.59219 6.20449 3.46602C6.13769 3.35469 6.15253 3.31016 6.26386 3.22109C6.4791 3.06524 14.1533 3.06524 14.3685 3.22109ZM14.3685 6.11563C14.4799 6.20469 14.4947 6.24922 14.4279 6.36055C14.3463 6.48672 14.1236 6.49414 10.3162 6.49414C6.50878 6.49414 6.28613 6.48672 6.20449 6.36055C6.13769 6.24922 6.15253 6.20469 6.26386 6.11563C6.4791 5.95977 14.1533 5.95977 14.3685 6.11563ZM14.3685 9.01016C14.4799 9.09922 14.4947 9.14375 14.4279 9.25508C14.3463 9.38125 14.1236 9.38867 10.3162 9.38867C6.50878 9.38867 6.28613 9.38125 6.20449 9.25508C6.13769 9.14375 6.15253 9.09922 6.26386 9.01016C6.4791 8.8543 14.1533 8.8543 14.3685 9.01016ZM14.3685 11.9047C14.4799 11.9937 14.4947 12.0383 14.4279 12.1496C14.3463 12.2758 14.1236 12.2832 10.3162 12.2832C6.50878 12.2832 6.28613 12.2758 6.20449 12.1496C6.13769 12.0383 6.15253 11.9937 6.26386 11.9047C6.4791 11.7488 14.1533 11.7488 14.3685 11.9047Z" fill="#009689"/>
<path d="M17.1445 0.148438C16.9961 0.296875 16.9961 0.393359 16.9961 5.10625V9.92305L17.1668 10.0789L17.3375 10.2422H22.1246H26.9191L27.075 10.0715C27.1863 9.95273 27.2383 9.8043 27.2383 9.60391C27.2457 9.31445 27.1938 9.26992 22.5477 4.66094C18.0129 0.163281 17.8422 0 17.575 0C17.3895 0 17.241 0.0519533 17.1445 0.148438Z" fill="#009689"/>
<path d="M1.84805 2.66626L1.66992 2.80728L1.64766 16.946L1.63281 31.092L1.81094 31.2999L1.98906 31.5077L10.1977 31.5299L18.4062 31.5448V32.7323V33.9198H17.1297C16.2391 33.9272 15.8086 33.9495 15.727 34.0163C15.5266 34.1721 15.4375 34.417 15.4375 34.8401V35.2557H13.2258H11.0141L10.8582 34.9292C10.4574 34.1127 9.75234 33.66 8.86914 33.6674C7.22891 33.6749 6.18984 35.3002 6.8875 36.7772C7.26602 37.5788 7.82266 37.935 8.74297 37.987C9.31445 38.0167 9.38867 38.0018 9.83398 37.7866C10.3313 37.5417 10.6801 37.1854 10.873 36.7104L10.9844 36.4432H13.2035H15.4227L15.4523 36.9256C15.4746 37.3042 15.5191 37.4452 15.6453 37.5788L15.816 37.742H19.0074H22.2062L22.3473 37.5639C22.4512 37.4377 22.4883 37.2745 22.4883 36.9182V36.4432H24.7371H26.9934L27.2086 36.8663C27.4535 37.3413 27.9582 37.7792 28.4258 37.9202C28.8191 38.0389 29.5316 38.0241 29.925 37.8831C30.7117 37.6159 31.3203 36.7401 31.3203 35.8866C31.3203 35.2706 31.1496 34.8104 30.7563 34.3725C29.732 33.2295 27.8098 33.4967 27.1641 34.8772L26.9934 35.2557H24.7371H22.4883V34.751C22.4883 34.3131 22.466 34.2167 22.3176 34.0831C22.1543 33.9272 22.0801 33.9198 20.8703 33.9198H19.5938V32.7323V31.5448H21.85C24.1656 31.5448 24.4996 31.5077 24.6406 31.2479C24.6852 31.1737 24.7148 30.7581 24.7148 30.3276V29.5409H14.7918C8.08984 29.5409 4.77227 29.5112 4.5793 29.4592C4.19336 29.3553 3.82969 29.0139 3.72578 28.6651C3.65898 28.4499 3.63672 25.1174 3.63672 15.4467V2.52525H2.82773C2.14492 2.52525 1.99648 2.54751 1.84805 2.66626Z" fill="#009689"/>
<path d="M22.9332 12.5456C20.2688 12.8796 18.057 14.6979 17.2332 17.2214C16.9883 17.9635 16.9141 18.446 16.9141 19.3589C16.9141 20.2792 16.9883 20.7616 17.2629 21.6003C17.4484 22.1717 17.8047 22.8991 17.9012 22.8991C17.9754 22.8991 22.0426 19.3737 22.0426 19.3143C22.0426 19.2846 21.8719 19.0917 21.6641 18.8913C20.9961 18.2381 20.8328 17.6296 21.1965 17.1174C21.4785 16.7241 21.7383 16.6573 23.9203 16.4049L25.9688 16.1674L26.2879 16.3456C26.518 16.4643 26.659 16.6202 26.7777 16.8651L26.9484 17.2065L26.7184 19.203C26.5922 20.294 26.4512 21.2811 26.4066 21.3999C26.2953 21.6819 25.8797 22.0307 25.5754 22.0827C25.1523 22.1643 24.7961 21.9936 24.2172 21.4296L23.6828 20.91L23.4379 21.1253C23.3043 21.244 22.332 22.0901 21.2781 23.003L19.3633 24.6655L19.5711 24.8362C19.9496 25.1405 20.8699 25.6303 21.4414 25.8381C22.3246 26.1424 22.9332 26.2241 24.091 26.187C24.9445 26.1499 25.234 26.1128 25.7535 25.9421C27.6906 25.3186 29.1379 24.0495 29.984 22.246C30.8227 20.4647 30.8227 18.2901 29.9914 16.5163C29.2566 14.9428 28.1805 13.8667 26.607 13.1319C25.5457 12.6346 24.0762 12.3971 22.9332 12.5456Z" fill="#009689"/>
<path d="M23.7499 16.9293C21.939 17.1371 21.8499 17.152 21.694 17.3375C21.3749 17.6937 21.4491 17.909 22.1839 18.6512L22.837 19.3191L19.9796 21.8055C17.6491 23.8316 17.1073 24.2695 17.0405 24.1805C16.996 24.1211 16.0683 22.9855 14.9698 21.657C12.8917 19.1187 12.8175 19.0445 12.387 19.2152C12.2237 19.2746 8.90616 22.2953 8.33467 22.8965C8.04522 23.2008 8.01553 23.4902 8.24561 23.7797C8.36436 23.9281 8.46085 23.9727 8.69092 23.9727C9.00264 23.9727 8.8542 24.0988 12.1124 21.0855C12.3573 20.8629 12.5726 20.7145 12.6097 20.7516C12.6394 20.7887 13.53 21.8723 14.5839 23.1562C15.6378 24.4402 16.5655 25.5535 16.6398 25.6203C16.7288 25.6945 16.9069 25.7539 17.0628 25.7539C17.3151 25.7539 17.5749 25.5387 20.5214 22.9781L23.7128 20.2023L24.4253 20.9C25.2194 21.6719 25.4198 21.7535 25.7835 21.427C25.969 21.2711 25.9839 21.182 26.1917 19.2746C26.4366 17.0629 26.4218 16.9145 26.0358 16.7809C25.9097 16.7363 25.7687 16.7066 25.7241 16.7066C25.6796 16.7141 24.789 16.8105 23.7499 16.9293Z" fill="#009689"/>
<path d="M29.8512 23.5273C29.354 24.2547 28.4559 25.1156 27.543 25.7316C27.5208 25.7465 27.595 25.8504 27.6989 25.9617C27.8696 26.1324 27.8919 26.2066 27.8547 26.5109L27.8176 26.8598L28.5747 27.6391C28.9977 28.0695 29.3762 28.4258 29.4208 28.4258C29.4653 28.4258 30.2669 27.6613 31.1946 26.7336L32.8794 25.0414L32.0629 24.2398L31.2465 23.4309L30.8829 23.4754C30.5637 23.5125 30.5044 23.4977 30.3485 23.3344C30.2594 23.2379 30.1629 23.1562 30.1407 23.1562C30.1184 23.1562 29.9848 23.327 29.8512 23.5273Z" fill="#009689"/>
<path d="M31.476 27.1195L29.8135 28.782L30.3553 29.3832C30.6521 29.7172 30.9193 29.9844 30.9416 29.9844C30.9639 29.9844 31.758 29.2199 32.6932 28.2773L34.4002 26.5703L33.8436 26.0137C33.5393 25.7094 33.2572 25.457 33.2127 25.457C33.1682 25.457 32.3889 26.2066 31.476 27.1195Z" fill="#009689"/>
<path d="M32.9902 28.6485L31.2832 30.3629L32.0625 31.1051C32.9605 31.9586 33.0867 32.0329 33.4207 31.8844C33.5543 31.825 34.2668 31.1645 35.0164 30.4149C36.716 28.7004 36.6789 28.8637 35.573 27.7504C35.1352 27.3051 34.7641 26.9415 34.7344 26.9415C34.7121 26.9415 33.9254 27.7133 32.9902 28.6485Z" fill="#009689"/>
</svg>
