<svg width="30" height="30" viewBox="0 0 30 30" fill="none" xmlns="http://www.w3.org/2000/svg">
<path d="M24.7302 13.3062L14.5115 19.1344L3.56771 12.9073L3.04167 13.1948V17.7156L14.5104 24.2323L24.7302 18.426V20.8188L14.5115 26.6479L3.56771 20.4198L3.04167 20.7083V21.4844L14.5104 28L25.9583 21.4844V16.9635L25.4323 16.675L14.5115 22.8802L4.26979 17.074V14.6802L14.5115 20.4865L25.9583 13.9708V9.51562L25.3885 9.18333L14.5115 15.3667L4.79583 9.87083L14.5115 4.35208L22.4937 8.89583L23.1948 8.49687V7.94271L14.5115 3L3.04167 9.51562V10.225L14.5104 16.7406L24.7302 10.9125V13.3062Z" fill="#EE3D2C"/>
</svg>
