<svg width="24" height="24" viewBox="0 0 24 24" fill="none" xmlns="http://www.w3.org/2000/svg">
<path d="M11.8453 1.55627C11.7844 1.60315 11.7656 1.71096 11.7563 2.01096L11.7422 2.40002L11.5078 2.48909C10.4625 2.87815 9.47344 4.97815 8.98125 7.82815C8.83125 8.69065 8.68125 10.0219 8.64844 10.7813C8.63438 11.1047 8.61094 11.5875 8.59688 11.8547L8.56875 12.3422L8.73281 12.3141C8.81719 12.3 9.06563 12.1688 9.28594 12.0188C10.0031 11.5313 10.5656 11.325 11.5688 11.1844L11.7656 11.1563V12.1828V13.2141L11.5078 13.4391C11.1938 13.711 10.7109 14.011 10.3594 14.1469C9.75 14.386 9.59063 14.4094 8.5875 14.4141H7.63125L7.52344 14.5406C7.37344 14.7188 7.33594 15.0328 7.33594 16.1485C7.34063 17.5125 7.50938 18.3047 8.01094 19.336C8.46094 20.25 9.04219 20.9438 9.85313 21.5203C10.2609 21.8063 11.0766 22.2094 11.6156 22.3828L12.0047 22.5094L12.4547 22.3594C15.2625 21.4313 16.8094 19.0078 16.6688 15.7547C16.6359 14.8781 16.5938 14.6578 16.4484 14.5031L16.3359 14.3813L15.6328 14.4141C14.2781 14.4797 13.4484 14.2172 12.5766 13.4485L12.2391 13.1485L12.2344 12.15V11.1563L12.4359 11.1844C13.4344 11.325 13.9969 11.5313 14.7328 12.0328C14.9391 12.1735 15.1781 12.3 15.2672 12.3141C15.45 12.3469 15.4359 12.4735 15.375 11.1797C15.2578 8.85471 14.9484 6.96565 14.4094 5.35315C13.8938 3.81096 13.1859 2.7469 12.4922 2.48909L12.2578 2.40002L12.2438 2.01096C12.2297 1.60315 12.1828 1.50002 12 1.50002C11.9578 1.50002 11.8875 1.52815 11.8453 1.55627ZM8.78906 15.5625C8.82656 15.675 8.70469 15.8906 8.60156 15.8906C8.40469 15.8906 8.32031 15.5719 8.49375 15.45C8.61094 15.3656 8.74219 15.4172 8.78906 15.5625ZM8.70469 16.1813C8.78438 16.2844 8.87344 17.3438 8.80781 17.4188C8.72813 17.5172 8.5875 17.4985 8.50781 17.3766C8.40938 17.2266 8.35313 16.2985 8.4375 16.1953C8.50781 16.111 8.64375 16.1016 8.70469 16.1813ZM13.8938 16.4531C14.1094 16.6453 14.1844 16.875 14.1141 17.1141C14.0672 17.2594 13.8891 17.4422 13.0641 18.1781C12.5203 18.6656 12.0234 19.0875 11.9672 19.1156C11.8266 19.1906 11.5547 19.186 11.4 19.1063C11.2266 19.0172 10.2281 17.9813 10.1719 17.8313C10.0078 17.4094 10.3078 16.9688 10.7484 16.9688C10.9969 16.9688 11.1469 17.0578 11.4516 17.3906L11.7188 17.6766L12.45 17.0297C12.8484 16.6735 13.2141 16.3688 13.2563 16.35C13.2984 16.3313 13.425 16.3172 13.5328 16.3172C13.6875 16.3125 13.7672 16.3406 13.8938 16.4531Z" fill="white"/>
<path d="M10.2421 2.53125C7.54209 3.01406 5.2124 4.50469 3.64209 6.75469C2.85928 7.87969 2.29209 9.24375 2.02021 10.6641C1.90303 11.2641 1.93115 11.4469 2.17959 11.6672C2.41396 11.8687 2.68115 11.8687 3.14521 11.6531C4.34521 11.1 5.53115 11.0156 6.70303 11.4C7.0499 11.5125 7.6124 11.7891 7.92178 11.9953C8.03896 12.075 8.14678 12.1406 8.17021 12.1406C8.18896 12.1406 8.20303 11.9859 8.20303 11.7984C8.20303 11.6156 8.22646 11.1422 8.2499 10.7578C8.49834 6.97969 9.35615 4.00781 10.5655 2.7C10.6827 2.57344 10.7812 2.46094 10.7812 2.45156C10.7812 2.43281 10.7812 2.43281 10.2421 2.53125ZM7.99209 4.57031C7.99209 4.6875 7.95459 4.73437 7.73896 4.86094C7.50928 4.99687 7.47178 5.00625 7.3874 4.95C7.1999 4.82812 7.2374 4.70625 7.50928 4.54687C7.82803 4.36406 7.99209 4.37344 7.99209 4.57031ZM6.55303 5.4C6.58584 5.43281 6.60928 5.48437 6.60928 5.51719C6.60928 5.54531 6.32803 5.85469 5.99053 6.19687C5.64834 6.53906 5.28271 6.94219 5.17959 7.0875C4.9874 7.36406 4.89834 7.42969 4.76709 7.37812C4.62646 7.32656 4.63584 7.20469 4.80459 6.95625C5.22178 6.35156 6.22959 5.34375 6.41709 5.34375C6.45928 5.34375 6.52021 5.36719 6.55303 5.4Z" fill="white"/>
<path d="M13.4813 2.75156C14.1797 3.57656 14.6953 4.725 15.1125 6.39844C15.4828 7.87031 15.7969 10.35 15.7969 11.7937C15.7969 11.9906 15.8156 12.1406 15.8438 12.1406C15.8672 12.1406 15.9891 12.0703 16.111 11.9812C16.95 11.3859 18.2063 11.0719 19.2563 11.1937C19.7766 11.2547 20.3344 11.4141 20.8547 11.6531C21.3188 11.8687 21.586 11.8687 21.8203 11.6672C22.0547 11.4609 22.0969 11.2594 22.0078 10.7766C21.5297 8.19375 20.2125 6.0375 18.1406 4.44375C16.8985 3.4875 15.2531 2.77031 13.7578 2.53125C13.5797 2.50312 13.3781 2.47031 13.3172 2.45625C13.2281 2.4375 13.2516 2.48438 13.4813 2.75156Z" fill="white"/>
</svg>
