<svg width="30" height="30" viewBox="0 0 30 30" fill="none" xmlns="http://www.w3.org/2000/svg">
<g clip-path="url(#clip0_2023_7744)">
<path fill-rule="evenodd" clip-rule="evenodd" d="M8.68993 16.1318C8.53993 16.2384 8.34827 16.2684 8.17493 16.2084L7.66827 16.0351C7.4666 15.9668 7.35827 15.7468 7.4266 15.5434C7.46493 15.4301 7.55493 15.3401 7.66827 15.3018L8.17493 15.1284C8.47327 15.0268 8.7966 15.1851 8.89827 15.4834C8.97993 15.7218 8.89493 15.9851 8.68993 16.1318Z" fill="#0DFF81"/>
<path fill-rule="evenodd" clip-rule="evenodd" d="M8.57832 20.3767C8.49666 20.2351 8.53499 20.0551 8.66665 19.9601L9.84666 19.1101C10.055 18.9601 10.3467 19.0067 10.4983 19.2151C10.5083 19.2284 10.5167 19.2417 10.5233 19.2551C10.6517 19.4767 10.5767 19.7617 10.355 19.8901C10.355 19.8901 10.355 19.8901 10.3533 19.8901L10.31 19.9117L8.98499 20.5084C8.83665 20.5751 8.65999 20.5184 8.57832 20.3767Z" fill="white"/>
<path fill-rule="evenodd" clip-rule="evenodd" d="M10.5233 12.245C10.4566 12.3584 10.3449 12.4384 10.2183 12.4667C10.0899 12.495 9.95495 12.4667 9.84828 12.39L8.66828 11.5384C8.52661 11.435 8.49495 11.2367 8.59828 11.0934C8.68661 10.9717 8.84994 10.9284 8.98661 10.99L10.3116 11.585C10.5466 11.69 10.6516 11.9634 10.5483 12.1984C10.5483 12.2134 10.5333 12.2267 10.5266 12.2417" fill="white"/>
<path d="M11.7166 22.1433L11.5833 26.1083H7.85993C6.81827 26.1083 5.97493 25.2633 5.97327 24.2216V23.3783C7.95327 23.3816 9.91327 22.96 11.7166 22.1433Z" fill="url(#paint0_linear_2023_7744)"/>
<path fill-rule="evenodd" clip-rule="evenodd" d="M21.7449 20.3766C21.6633 20.5183 21.4883 20.5749 21.3383 20.5083L20.0133 19.9116C19.7799 19.8083 19.6733 19.5349 19.7783 19.2999L19.8016 19.2533C19.9283 19.0316 20.2116 18.9533 20.4333 19.0799C20.4333 19.0799 20.4366 19.0816 20.4383 19.0833L20.4783 19.1083L21.6583 19.9583C21.7899 20.0533 21.8283 20.2333 21.7466 20.3749" fill="white"/>
<path fill-rule="evenodd" clip-rule="evenodd" d="M21.655 11.5401L20.475 12.3917C20.265 12.5417 19.9716 12.4917 19.8216 12.2817L19.8 12.2467C19.6683 12.0284 19.7383 11.7434 19.9583 11.6117C19.9733 11.6017 19.9883 11.5934 20.005 11.5884L21.33 10.9934C21.49 10.9217 21.6783 10.9934 21.7516 11.1517C21.8133 11.2901 21.7716 11.4517 21.6483 11.5401" fill="white"/>
<path fill-rule="evenodd" clip-rule="evenodd" d="M23.0766 15.6684C23.0766 15.8334 22.9716 15.9818 22.815 16.0351L22.3066 16.2084C22.0066 16.3068 21.6866 16.1418 21.5883 15.8434C21.4916 15.5501 21.6483 15.2318 21.94 15.1301C22.0583 15.0901 22.1866 15.0901 22.3066 15.1301L22.815 15.3034C22.9716 15.3568 23.0766 15.5034 23.0766 15.6701" fill="#B3D2FF"/>
<path d="M10.5616 11.8717C10.5999 11.9967 10.5866 12.1334 10.5216 12.2467C10.4549 12.36 10.3433 12.44 10.2166 12.4684C10.0883 12.4967 9.95327 12.4684 9.8466 12.3917L8.6666 11.54C8.52493 11.4367 8.49327 11.2384 8.5966 11.095C8.68493 10.9734 8.84827 10.93 8.98493 10.9917L10.3099 11.5867C10.4299 11.6417 10.5216 11.745 10.5616 11.87M10.5616 19.63C10.5216 19.755 10.4283 19.8584 10.3083 19.9117L8.98327 20.5084C8.82493 20.585 8.63493 20.5167 8.55827 20.3584C8.48993 20.2167 8.53493 20.0484 8.66493 19.9584L9.84493 19.1084C10.0533 18.9584 10.3449 19.005 10.4966 19.2134C10.5066 19.2267 10.5149 19.24 10.5216 19.2534C10.5866 19.3684 10.5999 19.5034 10.5616 19.6284M8.17493 16.2067L7.66827 16.0334C7.4666 15.965 7.35827 15.745 7.4266 15.5417C7.46493 15.4284 7.55493 15.3384 7.66827 15.3L8.17493 15.1267C8.4716 15.0217 8.7966 15.1784 8.9016 15.475C9.0066 15.7717 8.84993 16.0967 8.55327 16.2017C8.54827 16.2017 8.54493 16.205 8.53993 16.2067C8.4216 16.2467 8.29327 16.2467 8.17327 16.2067M14.0449 5.18669H11.1199C11.1199 8.02835 8.81493 10.3334 5.97327 10.335V23.3784C7.95327 23.3817 9.91327 22.96 11.7166 22.1434L11.9449 15.4017C11.5416 15.2034 11.2549 14.675 11.2549 14.0567C11.2549 13.3617 11.6183 12.7834 12.0966 12.6534C12.1616 12.235 12.3099 11.8334 12.5333 11.4717C12.3216 11.4467 12.1333 11.3234 12.0216 11.14C11.5883 10.5034 11.0049 9.85169 10.5566 8.79502C10.4733 8.61002 10.4966 8.39335 10.6166 8.23002C10.7099 8.10835 10.8849 8.08502 11.0066 8.17669C11.0183 8.18669 11.0299 8.19669 11.0416 8.20835C11.7333 8.86336 12.5666 9.06002 13.0266 9.68836C13.0599 9.61002 13.1049 9.53669 13.1583 9.47169C13.4266 9.12502 13.8933 9.00169 14.2983 9.17169C14.4533 8.65002 15.0016 8.35169 15.5233 8.50669C15.8433 8.60169 16.0933 8.85169 16.1883 9.17169C16.3966 9.07835 16.6333 9.06669 16.8499 9.14002C17.3833 8.12502 18.0399 7.18002 18.8083 6.32835C17.3349 5.57335 15.7016 5.18169 14.0466 5.18335" fill="url(#paint1_linear_2023_7744)"/>
<path fill-rule="evenodd" clip-rule="evenodd" d="M8.68993 16.1318C8.53993 16.2384 8.34827 16.2684 8.17493 16.2084L7.66827 16.0351C7.4666 15.9668 7.35827 15.7468 7.4266 15.5434C7.46493 15.4301 7.55493 15.3401 7.66827 15.3018L8.17493 15.1284C8.47327 15.0268 8.7966 15.1851 8.89827 15.4834C8.97993 15.7218 8.89493 15.9851 8.68993 16.1318Z" fill="#B3D2FF"/>
<path d="M22.815 16.0351L22.3066 16.2085C22.0066 16.3068 21.6866 16.1418 21.5883 15.8435C21.4916 15.5501 21.6483 15.2318 21.94 15.1301C22.0583 15.0901 22.1866 15.0901 22.3066 15.1301L22.815 15.3035C23.0166 15.3718 23.125 15.5918 23.0566 15.7951C23.0183 15.9085 22.9283 15.9985 22.815 16.0368M21.7433 20.3785C21.6616 20.5201 21.4866 20.5768 21.3366 20.5101L20.0116 19.9135C19.7783 19.8101 19.6716 19.5368 19.7766 19.3018L19.8 19.2551C19.9266 19.0335 20.21 18.9551 20.4316 19.0818C20.4316 19.0818 20.435 19.0835 20.4366 19.0851L20.4766 19.1101L21.6566 19.9601C21.7883 20.0551 21.8266 20.2351 21.745 20.3768M19.7583 11.8718C19.7983 11.7468 19.8916 11.6435 20.0116 11.5901L21.3366 10.9951C21.4966 10.9235 21.685 10.9951 21.7583 11.1535C21.82 11.2918 21.7783 11.4535 21.655 11.5418L20.475 12.3935C20.265 12.5435 19.9716 12.4935 19.8216 12.2835L19.8 12.2485C19.7333 12.1351 19.7166 11.9968 19.7566 11.8718M19.7033 6.85179C19.4116 6.66345 19.1133 6.49012 18.8033 6.33179C18.0366 7.18345 17.3783 8.12845 16.845 9.14345C17.0333 9.20345 17.2 9.31845 17.3216 9.47512C17.375 9.54179 17.4183 9.61512 17.4533 9.69179C17.885 9.10179 18.6433 8.96845 19.3083 8.33345C19.4416 8.19512 19.655 8.17345 19.8133 8.28345C19.8483 8.30679 19.8783 8.33512 19.9016 8.37012C19.99 8.48345 20.0083 8.63679 19.9483 8.76845L19.93 8.81345C19.485 9.84845 18.9033 10.5068 18.4733 11.1418C18.3616 11.3268 18.17 11.4485 17.955 11.4735C18.175 11.8335 18.3216 12.2351 18.3833 12.6551C18.815 12.7735 19.15 13.2501 19.2133 13.8518C19.2216 13.9201 19.225 13.9901 19.225 14.0585C19.225 14.6401 18.97 15.1418 18.6033 15.3635C18.5816 15.3785 18.5583 15.3918 18.535 15.4035V15.5035L18.8533 24.9351C22.32 23.1368 24.495 19.5551 24.495 15.6501C24.4983 12.0935 22.6933 8.78012 19.705 6.85345" fill="url(#paint2_linear_2023_7744)"/>
<path d="M17.23 15.0551C17.3466 15.2651 17.3333 15.5218 17.195 15.7184C16.7416 16.3801 16.1066 16.8834 15.2983 16.8834H15.1266C14.4283 16.8234 13.695 16.3668 13.24 15.8168C13.0716 15.6118 13.0483 15.3251 13.1816 15.0951C13.36 14.7984 13.4533 14.4584 13.4533 14.1134C13.4533 13.7884 13.3733 13.4684 13.2216 13.1818C13.1066 12.9734 13.1216 12.7184 13.2566 12.5251C13.2916 12.5718 13.3316 12.6134 13.3766 12.6501C13.7066 12.9084 14.1683 12.9151 14.505 12.6668C14.505 13.0284 14.87 13.3201 15.3166 13.3201C15.3566 13.3234 15.3983 13.3234 15.44 13.3201C15.8316 13.2718 16.13 13.0018 16.13 12.6734C16.4716 12.9284 16.9433 12.9201 17.275 12.6501L17.32 12.6101C17.38 12.7884 17.3583 12.9834 17.2616 13.1434C17.085 13.4384 16.9933 13.7751 16.995 14.1184C16.995 14.4468 17.0766 14.7684 17.2333 15.0568M19.905 8.36843C19.8816 8.3351 19.8516 8.3051 19.8166 8.28176C19.66 8.1751 19.45 8.19676 19.3183 8.33176C18.6533 8.96843 17.8866 9.09843 17.4633 9.6901C17.4283 9.61343 17.3833 9.5401 17.3316 9.47343C17.2083 9.31843 17.0433 9.20343 16.855 9.14176C16.6383 9.06843 16.4016 9.0801 16.1933 9.17343C16.0383 8.65176 15.49 8.35343 14.9683 8.50843C14.6483 8.60343 14.3983 8.85343 14.3033 9.17343C13.9 9.00343 13.4316 9.1251 13.1633 9.47343C13.1083 9.53843 13.065 9.61176 13.0316 9.6901C12.5716 9.06176 11.74 8.8651 11.0466 8.2101C10.945 8.0951 10.77 8.0851 10.655 8.18676C10.655 8.18676 10.655 8.18676 10.6533 8.18843C10.6383 8.2001 10.6266 8.2151 10.615 8.2301C10.4933 8.39343 10.47 8.6101 10.555 8.7951C11.0016 9.8501 11.5866 10.5001 12.02 11.1401C12.1316 11.3251 12.3233 11.4468 12.5366 11.4718C12.3133 11.8318 12.1666 12.2334 12.1 12.6534C11.6233 12.7834 11.2583 13.3618 11.2583 14.0568C11.2583 14.6751 11.5466 15.2034 11.9483 15.4018L11.72 22.1434L11.5866 26.1084H14.0466C15.7016 26.1118 17.335 25.7184 18.8083 24.9634L18.8633 24.9334L18.5466 15.5018V15.4018C18.57 15.3901 18.5933 15.3768 18.615 15.3618C18.9833 15.1401 19.2366 14.6384 19.2366 14.0568C19.2366 13.9884 19.2333 13.9184 19.225 13.8501C19.1616 13.2484 18.825 12.7718 18.395 12.6534C18.3316 12.2334 18.1833 11.8318 17.9583 11.4718C18.1733 11.4484 18.365 11.3251 18.4766 11.1401C18.9066 10.5034 19.4866 9.84676 19.9333 8.81176L19.9516 8.76676C20.0116 8.63676 19.995 8.48176 19.905 8.36843Z" fill="url(#paint3_linear_2023_7744)"/>
<path d="M11.1199 5.18677C11.1199 8.02843 8.81493 10.3334 5.97327 10.3351V7.07343C5.97327 6.03177 6.81827 5.18843 7.85993 5.18677H11.1216H11.1199Z" fill="url(#paint4_linear_2023_7744)"/>
<path fill-rule="evenodd" clip-rule="evenodd" d="M16.1866 14.2918L15.6566 14.7784C15.6116 14.8218 15.5783 14.8768 15.5633 14.9368C15.5283 15.0768 15.4599 15.3518 15.4049 15.6134C15.3866 15.6868 15.3199 15.7368 15.2466 15.7351C15.1716 15.7368 15.1049 15.6868 15.0883 15.6134L14.9199 14.9368C14.9049 14.8751 14.8716 14.8201 14.8266 14.7784L14.2966 14.2918C14.2349 14.2301 14.2349 14.1301 14.2966 14.0668C14.3316 14.0301 14.3816 14.0118 14.4316 14.0168L15.2266 14.1251H15.2699L15.3316 14.1168L16.0649 14.0168C16.1316 14.0101 16.1949 14.0451 16.2233 14.1051C16.2533 14.1684 16.2383 14.2434 16.1866 14.2901M16.9816 14.1118C16.9849 13.7701 17.0799 13.4351 17.2583 13.1418C17.3516 12.9818 17.3699 12.7901 17.3099 12.6151L17.2733 12.6484C16.9416 12.9101 16.4733 12.9134 16.1366 12.6584C16.1366 12.9834 15.8399 13.2568 15.4466 13.3018C15.4066 13.3051 15.3649 13.3051 15.3233 13.3018C14.8766 13.3018 14.5116 13.0084 14.5116 12.6484C14.1749 12.9034 13.7083 12.9001 13.3749 12.6384C13.3299 12.6018 13.2899 12.5584 13.2549 12.5134C13.1199 12.7084 13.1049 12.9634 13.2199 13.1701C13.3749 13.4601 13.4549 13.7834 13.4516 14.1118C13.4516 14.4534 13.3616 14.7901 13.1866 15.0834C13.0549 15.3134 13.0783 15.6001 13.2449 15.8051C13.7016 16.3534 14.4316 16.8118 15.1316 16.8718H15.3033C16.1116 16.8718 16.7466 16.3684 17.1999 15.7068C17.3316 15.5118 17.3416 15.2584 17.2266 15.0534C17.0699 14.7651 16.9883 14.4418 16.9883 14.1151" fill="#B3D2FF"/>
<path fill-rule="evenodd" clip-rule="evenodd" d="M16.1866 14.2917L15.6566 14.7783C15.6116 14.8217 15.5783 14.8767 15.5633 14.9367C15.5283 15.0767 15.4599 15.3517 15.4049 15.6133C15.3866 15.6867 15.32 15.7367 15.2466 15.735C15.1716 15.7367 15.1049 15.6867 15.0883 15.6133L14.9199 14.9367C14.9049 14.875 14.8716 14.82 14.8266 14.7783L14.2966 14.2917C14.2349 14.23 14.2349 14.13 14.2966 14.0667C14.3316 14.03 14.3816 14.0117 14.4316 14.0167L15.2266 14.125H15.27L15.3316 14.1167L16.0649 14.0167C16.1316 14.01 16.1949 14.045 16.2233 14.105C16.2533 14.1683 16.2383 14.2433 16.1866 14.29" fill="#003580"/>
</g>
<defs>
<linearGradient id="paint0_linear_2023_7744" x1="9.36993" y1="27.54" x2="8.9766" y2="24.325" gradientUnits="userSpaceOnUse">
<stop offset="0.29" stop-color="#3A8BFF"/>
<stop offset="1" stop-color="#81B5FF"/>
</linearGradient>
<linearGradient id="paint1_linear_2023_7744" x1="14.4466" y1="3.03169" x2="6.68993" y2="23.015" gradientUnits="userSpaceOnUse">
<stop offset="0.29" stop-color="#0062EE"/>
<stop offset="1" stop-color="#00398A"/>
</linearGradient>
<linearGradient id="paint2_linear_2023_7744" x1="18.3766" y1="25.9751" x2="21.005" y2="10.9585" gradientUnits="userSpaceOnUse">
<stop offset="0.29" stop-color="#0062EE"/>
<stop offset="1" stop-color="#00398A"/>
</linearGradient>
<linearGradient id="paint3_linear_2023_7744" x1="15.245" y1="31.0534" x2="15.245" y2="17.1068" gradientUnits="userSpaceOnUse">
<stop offset="0.29" stop-color="#B3D2FF"/>
<stop offset="1" stop-color="white"/>
</linearGradient>
<linearGradient id="paint4_linear_2023_7744" x1="11.5049" y1="9.6001" x2="6.64993" y2="6.58343" gradientUnits="userSpaceOnUse">
<stop offset="0.29" stop-color="#3A8BFF"/>
<stop offset="1" stop-color="#81B5FF"/>
</linearGradient>
<clipPath id="clip0_2023_7744">
<rect width="25" height="25" fill="white" transform="translate(2.16663 3)"/>
</clipPath>
</defs>
</svg>
