<?xml version="1.0" encoding="UTF-8"?>
<svg xmlns="http://www.w3.org/2000/svg" width="32" height="20" viewBox="0 0 32 20" fill="none">
  <path d="M10.001 13.9876C8.44797 13.9876 7.18939 15.2457 7.18939 16.7989C7.18939 18.3522 8.44797 19.6103 10.001 19.6103C11.5546 19.6103 12.8128 18.3522 12.8128 16.7989C12.8128 15.2457 11.5546 13.9876 10.001 13.9876ZM10.001 18.0211C9.32588 18.0211 8.77884 17.474 8.77884 16.7989C8.77884 16.1235 9.32588 15.5767 10.001 15.5767C10.6762 15.5767 11.2236 16.1235 11.2236 16.7989C11.2236 17.474 10.6762 18.0211 10.001 18.0211ZM24.827 13.9876C23.274 13.9876 22.0155 15.2457 22.0155 16.7989C22.0155 18.3522 23.274 19.6103 24.827 19.6103C26.3807 19.6103 27.6389 18.3522 27.6389 16.7989C27.6389 15.2457 26.3807 13.9876 24.827 13.9876ZM24.827 18.0211C24.1519 18.0211 23.6049 17.474 23.6049 16.7989C23.6049 16.1235 24.1519 15.5767 24.827 15.5767C25.5023 15.5767 26.0497 16.1235 26.0497 16.7989C26.0497 17.474 25.5023 18.0211 24.827 18.0211ZM13.1641 5.34905C13.1641 5.74301 12.8417 6.06531 12.4478 6.06531H2.56383C2.16987 6.06531 1.84766 5.74301 1.84766 5.34905V4.9193C1.84766 4.52542 2.16995 4.20312 2.56383 4.20312H12.4478C12.8418 4.20312 13.1641 4.52542 13.1641 4.9193V5.34905Z" fill="white"></path>
  <path d="M30.3368 9.54455C29.3059 9.27653 28.716 9.10803 28.3112 8.32625L26.9576 5.5856C26.5526 4.80382 25.5009 4.16411 24.6207 4.16411H22.7693C22.7693 4.16411 22.5202 4.1693 22.5202 3.91867V1.62013C22.5202 0.729077 22.0159 0 20.9433 0H5.85456C4.31892 0 3.58984 0.729155 3.58984 1.62013V3.06058C3.58984 3.06058 3.58984 3.48899 4.00449 3.48899H12.4483C13.2382 3.48899 13.8808 4.13154 13.8808 4.92142V5.35118C13.8808 6.14106 13.2382 6.78361 12.4483 6.78361H4.00449C4.00449 6.78361 3.58984 6.74915 3.58984 7.19676V7.69212C3.58984 8.08608 4.12981 8.08584 4.12981 8.08584H9.81374C10.6036 8.08584 11.2463 8.72847 11.2463 9.51827V9.94803C11.2463 10.7379 10.6036 11.3805 9.81374 11.3805H4.21949C4.21949 11.3805 3.58984 11.3688 3.58984 11.8702V15.3508C3.58984 16.2418 4.31892 16.9709 5.20997 16.9709H6.10487C6.30783 16.9709 6.33773 16.8579 6.33773 16.8011C6.33773 14.781 7.98137 13.1378 10.0015 13.1378C12.0218 13.1378 13.6654 14.7812 13.6654 16.8011C13.6654 16.8581 13.6492 16.9709 13.8044 16.9709H21.0264C21.1696 16.9709 21.1638 16.8503 21.1638 16.8011C21.1638 14.781 22.8073 13.1378 24.8275 13.1378C26.8478 13.1378 28.4913 14.7812 28.4913 16.8011C28.4913 16.8581 28.4899 16.9709 28.5795 16.9709H30.4003C31.281 16.9709 32.0013 16.2506 32.0013 15.37V12.3285C32.0014 9.76701 31.1926 9.76701 30.3368 9.54455ZM27.2903 9.40208H22.7334C22.5451 9.40208 22.5201 9.21879 22.5201 9.21879V5.42276C22.5201 5.42276 22.5095 5.277 22.7512 5.277H24.0515C24.8349 5.277 25.7708 5.84622 26.131 6.54187L27.3355 8.98051C27.3826 9.0726 27.4371 9.16071 27.4985 9.24396C27.5413 9.30123 27.4695 9.40208 27.2903 9.40208Z" fill="white"></path>
  <path d="M10.5285 9.95062C10.5285 10.3446 10.2062 10.6669 9.81233 10.6669H0.716175C0.322216 10.6669 0 10.3446 0 9.95062V9.52086C0 9.12698 0.322295 8.80469 0.716175 8.80469H9.81233C10.2063 8.80469 10.5285 9.12698 10.5285 9.52086V9.95062Z" fill="white"></path>
</svg>
