<?xml version="1.0" encoding="UTF-8"?>
<svg xmlns="http://www.w3.org/2000/svg" width="30" height="30" viewBox="0 0 30 30" fill="none">
  <path fill-rule="evenodd" clip-rule="evenodd" d="M9.11958 30H13.5495C13.8301 30 14.0606 29.771 14.0606 29.4889V13.7046C14.0606 13.424 13.8316 13.1936 13.5495 13.1936H9.11958C8.83893 13.1936 8.60849 13.4225 8.60849 13.7046V29.4889C8.60849 29.7696 8.83744 30 9.11958 30ZM4.07672 0C6.32782 0 8.15343 1.82569 8.15343 4.07671C8.15343 6.32773 6.32774 8.15342 4.07672 8.15342C1.82569 8.15342 0 6.32773 0 4.07671C0 1.82569 1.82569 0 4.07672 0ZM5.20229 2.30872C5.07969 2.12261 4.91278 1.96752 4.71483 1.86116C4.61291 1.80651 4.5036 1.76367 4.38986 1.73709V1.4845C4.38986 1.31168 4.24954 1.17136 4.07672 1.17136C3.9039 1.17136 3.76357 1.31168 3.76357 1.4845V1.73709C3.5169 1.79617 3.29827 1.92172 3.12546 2.09454C2.88174 2.33827 2.73106 2.67506 2.73106 3.04579C2.73106 3.41652 2.88173 3.75332 3.12546 3.99703C3.36918 4.24076 3.70598 4.39143 4.07671 4.39143C4.27612 4.39143 4.45632 4.47267 4.58633 4.60266C4.71633 4.73264 4.79755 4.91285 4.79755 5.11227C4.79755 5.31168 4.71631 5.49189 4.58633 5.62189C4.45634 5.7519 4.27614 5.83312 4.07671 5.83312C3.95263 5.83312 3.83447 5.8021 3.73402 5.74744C3.62915 5.69131 3.53904 5.6086 3.47405 5.50816C3.37952 5.3634 3.18601 5.32352 3.04127 5.41805C2.89653 5.51259 2.85663 5.70609 2.95117 5.85083C3.07377 6.03695 3.24068 6.19204 3.43863 6.2984C3.54055 6.35305 3.64985 6.39588 3.76359 6.42247V6.67506C3.76359 6.84788 3.90392 6.9882 4.07674 6.9882C4.24956 6.9882 4.38988 6.84788 4.38988 6.67506V6.42247C4.63656 6.36339 4.85518 6.23783 5.02799 6.06501C5.27171 5.82129 5.42239 5.48601 5.42239 5.11377C5.42239 4.74301 5.27172 4.40623 5.02799 4.16252C4.78427 3.9188 4.44898 3.76812 4.07674 3.76812C3.87734 3.76812 3.69713 3.68689 3.56713 3.5569C3.43712 3.42691 3.3559 3.24671 3.3559 3.04728C3.3559 2.84786 3.43714 2.66767 3.56713 2.53767C3.69711 2.40766 3.87732 2.32644 4.07674 2.32644C4.20082 2.32644 4.31899 2.35746 4.41943 2.41211C4.5243 2.46824 4.61441 2.55096 4.6794 2.6514C4.77394 2.79616 4.96744 2.83604 5.11218 2.7415C5.25694 2.64549 5.29682 2.45199 5.20229 2.30872ZM19.3042 10.4784C20.2924 10.4784 21.093 11.279 21.093 12.2672C21.093 13.2554 20.2924 14.056 19.3042 14.056C18.316 14.056 17.5154 13.2554 17.5154 12.2672C17.5154 11.279 18.316 10.4784 19.3042 10.4784ZM11.3338 5.66017C12.322 5.66017 13.1226 6.46076 13.1226 7.44895C13.1226 8.43714 12.322 9.23774 11.3338 9.23774C10.3456 9.23774 9.54502 8.43714 9.54502 7.44895C9.54502 6.46076 10.3471 5.66017 11.3338 5.66017ZM3.36491 15.2951C4.3531 15.2951 5.15369 16.0957 5.15369 17.0839C5.15369 18.0721 4.3531 18.8727 3.36491 18.8727C2.37672 18.8727 1.57612 18.0721 1.57612 17.0839C1.57612 16.0957 2.37672 15.2951 3.36491 15.2951ZM4.6485 15.0411L9.56733 9.09409C9.70913 9.24623 9.87162 9.38065 10.0474 9.49291L5.13006 15.4384C4.98826 15.2862 4.82574 15.1519 4.6485 15.0411ZM13.5435 8.42062L17.4164 10.7618C17.2864 10.9243 17.1771 11.103 17.0929 11.2966L13.22 8.95535C13.35 8.79139 13.4593 8.61266 13.5435 8.42062ZM20.6676 10.2744C20.8389 10.3925 20.9955 10.5314 21.1314 10.6895L27.6441 3.40272L27.7608 5.50465C27.7697 5.67599 27.9174 5.80893 28.0887 5.79859C28.2601 5.78973 28.393 5.64202 28.3827 5.47067L28.2231 2.61395C28.2143 2.44261 28.0666 2.30966 27.8952 2.32001L25.0385 2.47953C24.8672 2.4884 24.7342 2.63611 24.7446 2.80745C24.7534 2.9788 24.9011 3.11174 25.0725 3.10139L27.1832 2.98323L20.6676 10.2744ZM17.0886 29.9996H21.5185C21.7991 29.9996 22.0296 29.7706 22.0296 29.4885V18.521C22.0296 18.2403 21.8006 18.0099 21.5185 18.0099H17.0886C16.8079 18.0099 16.5775 18.2388 16.5775 18.521V29.4885C16.579 29.7691 16.8079 29.9996 17.0886 29.9996ZM25.059 29.9996C24.7784 29.9996 24.5479 29.7706 24.5479 29.4885V9.52543C24.5479 9.24478 24.7769 9.01434 25.059 9.01434H29.4889C29.7696 9.01434 30 9.24329 30 9.52543V29.4885C30 29.7691 29.771 29.9996 29.4889 29.9996H25.059ZM1.14928 29.9996H5.57918C5.85983 29.9996 6.09027 29.7706 6.09027 29.4885V23.3392C6.09027 23.0586 5.86132 22.8281 5.57918 22.8281H1.14928C0.868627 22.8281 0.638185 23.0571 0.638185 23.3392V29.4885C0.638185 29.7691 0.868616 29.9996 1.14928 29.9996Z" fill="white"></path>
</svg>
