<?xml version="1.0" encoding="UTF-8"?>
<svg xmlns="http://www.w3.org/2000/svg" width="28" height="28" viewBox="0 0 28 28" fill="none">
  <path d="M26.6147 19.9294L24.9652 18.2796L21.6224 21.623L20.6673 20.6682L24.0104 17.3248L23.055 16.37L20.6673 18.7572L19.7125 17.8024L22.1002 15.4149L21.1454 14.4601L17.8025 17.8021L16.8477 16.8473L20.1903 13.505L19.2355 12.5502L16.848 14.9376L15.8929 13.9828L18.2806 11.5953L17.3255 10.6402L14.9375 13.028L13.9827 12.0732L16.371 9.68569L15.4156 8.73033L12.0731 12.0729L11.118 11.1181L14.4605 7.7755L13.5054 6.82014L11.118 9.20841L10.1631 8.25359L12.5506 5.86531L11.5952 4.91022L9.20752 7.29741L8.25269 6.34259L10.6402 3.9554L9.68506 3.0003L6.34305 6.34232L5.38822 5.3875L8.73051 2.04521L7.08097 0.395677C6.55292 -0.13184 5.69803 -0.13184 5.17052 0.395677L0.3964 5.17141C-0.144622 5.71108 -0.119232 6.56624 0.39559 7.08106L19.9302 26.6148C20.4577 27.1423 21.3123 27.1423 21.8398 26.6148L26.6153 21.8404C27.1428 21.3132 27.1417 20.4561 26.6147 19.9294ZM20.6673 23.5327C20.4034 23.7965 19.9761 23.7965 19.7125 23.5327C19.4488 23.2688 19.4486 22.8412 19.7125 22.5776C19.9764 22.3139 20.4037 22.3139 20.6673 22.5778C20.9309 22.8417 20.9309 23.2688 20.6673 23.5327ZM26.3833 6.12543C26.9108 5.59791 26.9108 4.74249 26.3833 4.21578L22.5637 0.395677C22.0256 -0.142374 21.171 -0.121306 20.6541 0.395677L14.8352 6.35232L20.5646 12.0815L26.3833 6.12543ZM21.6075 1.3505C21.6089 1.3505 21.6089 1.3505 21.6089 1.3505L25.4284 5.17087L22.5637 8.03588L18.7433 4.21551L21.6075 1.3505ZM2.15317 19.3344L0.231365 27.0105L7.85861 25.0868L12.1889 20.6547L6.46 14.9257L2.15317 19.3344ZM3.70249 24.7506L2.49107 23.5391L2.87192 22.0168L5.22994 24.3689L3.70249 24.7506Z" fill="#3876DB"></path>
</svg>
