<?xml version="1.0" encoding="UTF-8"?>
<svg xmlns="http://www.w3.org/2000/svg" width="26" height="31" viewBox="0 0 26 31" fill="none">
  <path d="M8.26556 7.28643H17.5669L20.5127 1.84793C20.6075 1.67297 20.6442 1.47238 20.6174 1.27521C20.5906 1.07804 20.5017 0.894507 20.3637 0.751171C20.2257 0.607835 20.0457 0.51213 19.8496 0.477908C19.6536 0.443685 19.4518 0.47272 19.2734 0.560809C17.1652 1.60168 15.3218 1.1575 13.1872 0.643434C11.0763 0.134996 8.68413 -0.441254 5.84406 0.512684C5.71444 0.55623 5.59592 0.627603 5.4968 0.721798C5.39768 0.815994 5.32037 0.930732 5.27028 1.05797C5.22019 1.1852 5.19854 1.32185 5.20685 1.45834C5.21516 1.59482 5.25322 1.72784 5.31838 1.84806L8.26556 7.28643ZM18.5476 9.54218C18.4257 9.41598 18.303 9.28889 18.1796 9.16093H7.65294C7.52965 9.28872 7.40696 9.41581 7.28487 9.54218C5.38419 11.5087 3.58881 13.3662 2.25237 15.4455C0.71575 17.8364 0 20.1802 0 22.8218C0 25.8868 1.65256 28.2268 4.77888 29.5888C7.45281 30.7537 10.6795 30.9982 12.9155 30.9982C15.1678 30.9982 18.4124 30.7536 21.0786 29.5883C24.1887 28.229 25.8327 25.8892 25.8327 22.8218C25.8327 20.1802 25.117 17.8364 23.5804 15.4455C22.2439 13.3662 20.4486 11.5087 18.5476 9.54218ZM13.1083 18.2256C13.7797 18.3669 14.4739 18.5131 15.0694 18.9056C15.8432 19.4156 16.2356 20.2039 16.2356 21.2486C16.2356 22.6277 15.2284 23.7948 13.8527 24.1665V24.6501C13.8527 24.8988 13.754 25.1372 13.5782 25.313C13.4023 25.4888 13.1639 25.5876 12.9152 25.5876C12.6666 25.5876 12.4282 25.4888 12.2523 25.313C12.0765 25.1372 11.9777 24.8988 11.9777 24.6501V24.1665C10.6021 23.7948 9.59494 22.6277 9.59494 21.2486C9.59494 21 9.69371 20.7615 9.86952 20.5857C10.0453 20.4099 10.2838 20.3111 10.5324 20.3111C10.7811 20.3111 11.0195 20.4099 11.1954 20.5857C11.3712 20.7615 11.4699 21 11.4699 21.2486C11.4699 21.8924 12.1183 22.4158 12.9152 22.4158C13.7122 22.4158 14.3606 21.8922 14.3606 21.2486C14.3606 20.5236 14.1309 20.3568 12.7222 20.0604C12.0508 19.9192 11.3565 19.7729 10.7611 19.3806C9.98725 18.8704 9.59494 18.0821 9.59494 17.0374C9.59494 15.6574 10.6021 14.4897 11.9777 14.1179V13.6359C11.9777 13.3873 12.0765 13.1488 12.2523 12.973C12.4282 12.7972 12.6666 12.6984 12.9152 12.6984C13.1639 12.6984 13.4023 12.7972 13.5782 12.973C13.754 13.1488 13.8527 13.3873 13.8527 13.6359V14.1177C15.2284 14.4896 16.2356 15.6572 16.2356 17.0372C16.2356 17.2859 16.1368 17.5243 15.961 17.7002C15.7852 17.876 15.5467 17.9747 15.2981 17.9747C15.0494 17.9747 14.811 17.876 14.6351 17.7002C14.4593 17.5243 14.3606 17.2859 14.3606 17.0372C14.3606 16.3927 13.7122 15.8685 12.9152 15.8685C12.1183 15.8685 11.4699 16.3929 11.4699 17.0372C11.4702 17.7626 11.6999 17.9292 13.1085 18.2256H13.1083Z" fill="#009E7A"></path>
</svg>
