<svg width="31" height="30" viewBox="0 0 31 30" fill="none" xmlns="http://www.w3.org/2000/svg">
<path d="M13.6687 10.3674V7.72119H16.9775L21.9412 11.6912L22.9337 15.6612C22.9337 23.6037 14.9925 26.2499 12.015 26.2499C9.03624 26.2499 7.05249 24.5962 7.05249 24.2649L12.015 23.6024C14.22 22.1687 18.6987 18.5737 18.9637 15.6612C18.9637 12.6837 15.5437 10.9187 13.6687 10.3674Z" fill="url(#paint0_linear_2023_7755)"/>
<path d="M13.6701 20.9562H10.3613V3.75H13.3388C17.9276 3.75 23.2651 7.72 22.9338 16.3237C22.2726 10.3675 16.2063 7.72 13.6701 7.72V20.9562Z" fill="url(#paint1_linear_2023_7755)"/>
<path d="M10.36 3.75L7.05127 6.06625V24.265H10.0288C14.6188 24.265 19.625 20.625 18.9638 15.6613C17.6388 20.2938 12.8975 20.9562 10.36 20.9562V3.75Z" fill="url(#paint2_linear_2023_7755)"/>
<defs>
<linearGradient id="paint0_linear_2023_7755" x1="15" y1="3.74994" x2="15" y2="26.2499" gradientUnits="userSpaceOnUse">
<stop stop-color="#5A3B90"/>
<stop offset="0.292" stop-color="#614397"/>
<stop offset="0.615" stop-color="#8071B3"/>
<stop offset="0.857" stop-color="#AEBADE"/>
<stop offset="1" stop-color="#C2DCF1"/>
</linearGradient>
<linearGradient id="paint1_linear_2023_7755" x1="22.9301" y1="14.125" x2="7.05133" y2="14.125" gradientUnits="userSpaceOnUse">
<stop stop-color="#6C5DF4"/>
<stop offset="0.437" stop-color="#8093D6"/>
<stop offset="1" stop-color="#9DE2AE"/>
</linearGradient>
<linearGradient id="paint2_linear_2023_7755" x1="7.05127" y1="15" x2="23.595" y2="15" gradientUnits="userSpaceOnUse">
<stop stop-color="#5B51EF"/>
<stop offset="0.19" stop-color="#8367D3"/>
<stop offset="0.45" stop-color="#B483AA"/>
<stop offset="0.715" stop-color="#E7A081"/>
</linearGradient>
</defs>
</svg>
