<svg width="24" height="24" viewBox="0 0 24 24" fill="none" xmlns="http://www.w3.org/2000/svg">
<path d="M1.26091 1.56094C1.14841 1.62187 0.993727 1.7625 0.914039 1.87031C0.726539 2.1375 0.689039 2.64844 0.834352 2.93437C1.0781 3.40312 1.63591 3.64219 2.0906 3.46875C2.21716 3.41719 2.25466 3.45 3.37498 4.57031L4.52341 5.71875H5.89685C6.64685 5.71875 7.2656 5.70937 7.2656 5.7C7.2656 5.69062 7.23279 5.60625 7.19529 5.51719C7.15779 5.42344 7.12498 5.27344 7.12498 5.17969V5.01562H5.96248H4.80466L3.75935 3.97031C2.74685 2.95781 2.71404 2.92031 2.7656 2.79375C2.88279 2.475 2.78435 2.025 2.5406 1.76719C2.22654 1.43437 1.66873 1.34531 1.26091 1.56094Z" fill="white"/>
<path d="M21.7734 1.53281C21.3047 1.77656 21.0656 2.33906 21.2344 2.79375C21.2859 2.92031 21.2531 2.95781 20.2406 3.97031L19.1953 5.01562H18.0375H16.875V5.17969C16.875 5.27344 16.8422 5.42344 16.8047 5.51719C16.7672 5.60625 16.7344 5.69062 16.7344 5.7C16.7344 5.70937 17.3531 5.71875 18.1031 5.71875H19.4766L20.625 4.57031C21.7453 3.45 21.7828 3.41719 21.9094 3.46875C22.3641 3.64219 22.9219 3.40312 23.1656 2.93437C23.3109 2.64844 23.2734 2.1375 23.0859 1.87031C22.8844 1.58437 22.6078 1.45312 22.2234 1.45312C22.0359 1.45781 21.8578 1.48594 21.7734 1.53281Z" fill="white"/>
<path d="M11.2313 3.01398C11.1797 3.05148 11.1234 3.20148 11.0813 3.4218C10.9641 4.05461 10.5797 4.41086 9.98438 4.44367C9.64688 4.46242 9.40781 4.37805 9.12656 4.14367C8.87344 3.93273 8.76094 3.97961 8.22188 4.5093C7.67344 5.04836 7.63594 5.1468 7.85625 5.44211C8.18438 5.87336 8.24531 6.31867 8.03438 6.74055C7.96875 6.87648 7.8375 7.04992 7.74375 7.12492C7.56094 7.27492 7.2 7.40617 6.975 7.40617C6.90469 7.40617 6.80156 7.44836 6.75 7.49992C6.66563 7.5843 6.65625 7.65461 6.65625 8.2968C6.65625 9.11711 6.67031 9.15461 7.07813 9.20617C8.07656 9.33742 8.49375 10.4015 7.85156 11.1655C7.63125 11.428 7.67344 11.5452 8.21719 12.0843C8.75625 12.6234 8.85469 12.6609 9.14531 12.4405C9.40781 12.239 9.66094 12.1405 9.92813 12.1405H10.1719V11.1374V10.1296L9.94219 9.82492C9.01406 8.5968 9.39375 6.81555 10.7484 6.05617C11.1891 5.80773 11.4563 5.74211 12.0234 5.7468C12.45 5.7468 12.5906 5.77023 12.8438 5.86398C14.3344 6.42648 14.9859 8.03898 14.2922 9.45461C14.2172 9.61398 14.0484 9.86242 13.9219 10.003L13.6875 10.2562V11.2124V12.1734L13.9172 12.1499C14.2594 12.1171 14.4469 12.1687 14.7563 12.3749C15.1781 12.6562 15.2203 12.6468 15.7828 12.0843C16.3266 11.5452 16.3688 11.428 16.1484 11.1655C15.5063 10.4015 15.9234 9.33742 16.9219 9.20617C17.3297 9.15461 17.3438 9.11711 17.3438 8.2968C17.3438 7.65461 17.3344 7.5843 17.25 7.49992C17.1984 7.44836 17.0953 7.40617 17.025 7.40617C16.95 7.40617 16.7859 7.37336 16.6594 7.33586C15.8531 7.0968 15.5859 6.09836 16.1484 5.42805C16.3734 5.16086 16.3266 5.04836 15.7781 4.5093C15.225 3.96555 15.1359 3.93273 14.8406 4.16711C14.4234 4.49992 13.8891 4.54211 13.4719 4.2843C13.1531 4.09211 12.9984 3.84367 12.9188 3.4218C12.8766 3.20148 12.8203 3.05148 12.7688 3.01398C12.6516 2.92961 11.3484 2.92961 11.2313 3.01398Z" fill="white"/>
<path d="M2.82654 7.38279C2.09998 7.74373 2.07654 8.78435 2.78435 9.18748C3.22966 9.44529 3.80623 9.34685 4.12498 8.96248C4.20466 8.86873 4.2656 8.7656 4.2656 8.73279C4.2656 8.68592 4.46716 8.67185 5.15623 8.67185H6.04685V8.32029V7.96873H5.17966H4.31716L4.23748 7.80467C4.00779 7.31248 3.35623 7.12029 2.82654 7.38279Z" fill="white"/>
<path d="M20.2734 7.33121C20.0625 7.42496 19.8469 7.62184 19.7625 7.80465L19.6828 7.96871H18.8203H17.9531V8.32027V8.67183H18.8438C19.5328 8.67183 19.7344 8.6859 19.7344 8.73277C19.7344 8.76558 19.7953 8.86871 19.875 8.96246C20.1844 9.33746 20.7563 9.44058 21.1922 9.20621C21.9422 8.7984 21.9 7.7109 21.1172 7.35465C20.8969 7.25152 20.4797 7.24215 20.2734 7.33121Z" fill="white"/>
<path d="M11.4609 7.70154C11.2031 7.82342 11.0016 8.03436 10.8797 8.29685C10.8141 8.44217 10.8047 8.9531 10.7906 12.9047L10.7766 17.3531L10.65 17.3203C9.7125 17.0672 9.18281 17.2453 8.88281 17.9109C8.77031 18.1687 8.75625 18.2437 8.775 18.5578C8.80781 19.1297 8.93437 19.3031 9.77344 19.95C10.0078 20.1281 10.5422 20.5594 10.9687 20.9062C12.1031 21.8344 12.4687 22.05 13.275 22.2844C14.2641 22.5703 15.8437 22.6312 16.5703 22.4109C18.1266 21.9422 19.2328 20.789 19.6828 19.1719L19.8047 18.7265L19.7953 16.6406C19.7859 15.2578 19.7672 14.489 19.7297 14.3578C19.6641 14.1094 19.4062 13.8094 19.1531 13.6781C18.8906 13.5422 18.4266 13.5375 18.1641 13.6734C17.9156 13.8 17.7234 13.9969 17.625 14.2172L17.5453 14.3953L17.3953 14.1375C17.025 13.4765 16.1344 13.3687 15.6047 13.9219C15.4828 14.0437 15.3703 14.2125 15.3516 14.2922L15.3234 14.4328L15.1922 14.189C14.8781 13.5844 14.1844 13.3969 13.5797 13.7484C13.3828 13.8656 13.2797 13.9828 13.1391 14.25C13.0875 14.3484 13.0781 13.875 13.0781 11.414C13.0781 8.12342 13.0875 8.26873 12.75 7.93123C12.5297 7.71092 12.3422 7.62654 12 7.60779C11.7469 7.59373 11.6531 7.60779 11.4609 7.70154Z" fill="white"/>
<path d="M3.37499 12.0234C2.57343 12.8249 2.20311 13.1624 2.15624 13.1437C2.01093 13.0827 1.65468 13.0687 1.46249 13.1202C1.21874 13.1859 0.965615 13.4062 0.834365 13.6546C0.759365 13.8046 0.745302 13.9077 0.759365 14.1843C0.773427 14.4702 0.796865 14.5546 0.914052 14.7234C1.37811 15.3796 2.42811 15.2624 2.73749 14.5218C2.82186 14.3202 2.83593 13.9874 2.76561 13.7999C2.71405 13.6734 2.74686 13.6359 3.75936 12.6234L4.80468 11.578H5.96249H7.12499V11.414C7.12499 11.3202 7.1578 11.1702 7.1953 11.0765C7.2328 10.9874 7.26561 10.903 7.26561 10.8937C7.26561 10.8843 6.64686 10.8749 5.89218 10.8749H4.52343L3.37499 12.0234Z" fill="white"/>
<path d="M16.7344 10.8937C16.7344 10.903 16.7672 10.9874 16.8047 11.0765C16.8422 11.1702 16.875 11.3202 16.875 11.414V11.578H18.0375H19.1953L20.2406 12.6234C21.2531 13.6359 21.2859 13.6734 21.2344 13.7999C21.1641 13.9874 21.1781 14.3202 21.2625 14.5218C21.5719 15.2624 22.6266 15.3796 23.0859 14.7234C23.2031 14.5546 23.2266 14.4702 23.2406 14.1843C23.2641 13.7859 23.175 13.5609 22.9031 13.3218C22.65 13.0968 22.2094 13.0124 21.9094 13.1249C21.7828 13.1765 21.7453 13.1437 20.625 12.0234L19.4766 10.8749H18.1031C17.3531 10.8749 16.7344 10.8843 16.7344 10.8937Z" fill="white"/>
</svg>
