<?xml version="1.0" encoding="UTF-8"?>
<svg xmlns="http://www.w3.org/2000/svg" width="29" height="29" viewBox="0 0 29 29" fill="none">
  <path d="M16.9987 0H11.6654C10.3767 0 9.33203 1.04467 9.33203 2.33333V7.66667C9.33203 8.95533 10.3767 10 11.6654 10H16.9987C18.2874 10 19.332 8.95533 19.332 7.66667V2.33333C19.332 1.04467 18.2874 0 16.9987 0Z" fill="#3B82F6"></path>
  <path d="M7.66667 18.668H2.33333C1.04467 18.668 0 19.7126 0 21.0013V26.3346C0 27.6233 1.04467 28.668 2.33333 28.668H7.66667C8.95533 28.668 10 27.6233 10 26.3346V21.0013C10 19.7126 8.95533 18.668 7.66667 18.668Z" fill="#3B82F6"></path>
  <path d="M26.3346 18.668H21.0013C19.7126 18.668 18.668 19.7126 18.668 21.0013V26.3346C18.668 27.6233 19.7126 28.668 21.0013 28.668H26.3346C27.6233 28.668 28.668 27.6233 28.668 26.3346V21.0013C28.668 19.7126 27.6233 18.668 26.3346 18.668Z" fill="#3B82F6"></path>
  <path d="M23.6667 17.9987C23.4015 17.9987 23.1471 17.8933 22.9596 17.7058C22.772 17.5183 22.6667 17.2639 22.6667 16.9987V15.6654C22.6667 15.577 22.6315 15.4922 22.569 15.4297C22.5065 15.3672 22.4217 15.332 22.3333 15.332H6.33333C6.24493 15.332 6.16014 15.3672 6.09763 15.4297C6.03512 15.4922 6 15.577 6 15.6654V16.9987C6 17.2639 5.89464 17.5183 5.70711 17.7058C5.51957 17.8933 5.26522 17.9987 5 17.9987C4.73478 17.9987 4.48043 17.8933 4.29289 17.7058C4.10536 17.5183 4 17.2639 4 16.9987V15.6654C4.00071 15.0467 4.24677 14.4537 4.6842 14.0162C5.12163 13.5788 5.71471 13.3327 6.33333 13.332H22.3333C22.952 13.3327 23.545 13.5788 23.9825 14.0162C24.4199 14.4537 24.666 15.0467 24.6667 15.6654V16.9987C24.6667 17.2639 24.5613 17.5183 24.3738 17.7058C24.1862 17.8933 23.9319 17.9987 23.6667 17.9987Z" fill="#3B82F6"></path>
  <path d="M14.332 15.3333C14.0668 15.3333 13.8125 15.228 13.6249 15.0404C13.4374 14.8529 13.332 14.5985 13.332 14.3333V9C13.332 8.73478 13.4374 8.48043 13.6249 8.29289C13.8125 8.10536 14.0668 8 14.332 8C14.5972 8 14.8516 8.10536 15.0391 8.29289C15.2267 8.48043 15.332 8.73478 15.332 9V14.3333C15.332 14.5985 15.2267 14.8529 15.0391 15.0404C14.8516 15.228 14.5972 15.3333 14.332 15.3333Z" fill="#3B82F6"></path>
</svg>
