<svg width="30" height="30" viewBox="0 0 30 30" fill="none" xmlns="http://www.w3.org/2000/svg">
<path d="M24.5811 13.2067C24.803 12.2221 24.5289 11.0616 23.1624 9.80176C20.9412 11.8124 21.5763 13.903 22.3112 14.9092C22.3112 14.9092 22.217 15.4767 20.0412 15.4767C17.8654 15.4767 3.01636 15.4767 3.01636 15.4767C3.01636 15.4767 1.97614 24.5566 12.0963 24.5566C20.9452 24.5566 23.4308 17.745 23.916 16.0011C24.1169 16.0283 24.3422 16.0459 24.5811 16.0442C25.7996 16.0345 27.3789 15.3797 27.9861 12.9321C26.3756 12.3742 25.341 12.6267 24.5811 13.2067Z" fill="#03A9F4"/>
<path d="M3.10999 17.7466C3.52709 20.4359 5.27668 24.5565 12.0963 24.5565C19.0112 24.5565 22.0405 20.3968 23.2657 17.7466H3.10999Z" fill="#0288D1"/>
<path d="M13.1246 24.5215C12.6025 24.3388 10.2463 23.9029 9.82632 20.5842C7.43773 21.6415 5.32155 21.3645 4.39029 21.1563C5.61721 22.9887 7.89173 24.5567 12.0963 24.5567C12.4498 24.5567 12.7909 24.5431 13.1246 24.5215Z" fill="#81D4FA"/>
<path d="M12.0963 18.8816C11.7953 18.8816 11.5066 19.0012 11.2937 19.214C11.0809 19.4269 10.9613 19.7156 10.9613 20.0166C10.9613 20.3176 11.0809 20.6063 11.2937 20.8191C11.5066 21.032 11.7953 21.1516 12.0963 21.1516C12.3973 21.1516 12.686 21.032 12.8989 20.8191C13.1117 20.6063 13.2313 20.3176 13.2313 20.0166C13.2313 19.7156 13.1117 19.4269 12.8989 19.214C12.686 19.0012 12.3973 18.8816 12.0963 18.8816Z" fill="white"/>
<path d="M10.345 20.9231C10.4721 21.2097 10.3563 21.5825 10.0556 21.671C8.18226 22.2232 6.56774 22.2964 5.34706 22.2964C4.98159 21.9451 4.66947 21.5706 4.40729 21.1824C5.87426 21.1824 8.21517 21.1143 9.59646 20.6342C9.89269 20.5309 10.2179 20.6354 10.345 20.9231ZM3.01636 17.1793C3.01636 17.1793 4.08041 17.2502 4.71884 16.6118C5.78289 17.5697 8.08976 17.2293 8.6913 16.6118C9.29455 17.5697 12.6286 17.3921 13.2313 16.6118C13.9406 17.4279 16.9909 17.6049 17.7712 16.6118C18.043 17.4409 21.641 17.6753 22.3112 16.6118C22.9133 17.2293 25.1844 17.7116 26.4601 16.6118C26.7802 17.286 27.9861 17.1793 27.9861 17.1793V17.7468H3.01636M11.5288 20.0168C11.5288 20.33 11.783 20.5843 12.0963 20.5843C12.4095 20.5843 12.6638 20.33 12.6638 20.0168C12.6638 19.7035 12.4095 19.4493 12.0963 19.4493C11.783 19.4493 11.5288 19.7035 11.5288 20.0168Z" fill="#37474F"/>
<path d="M8.12382 15.4767H5.28635V12.6392H8.12382V15.4767ZM13.7988 12.6392H10.9613V15.4767H13.7988V12.6392ZM19.4737 12.6392H16.6362V15.4767H19.4737V12.6392ZM10.9613 9.80176H8.12382V12.6392H10.9613V9.80176ZM16.6362 9.80176H13.7988V12.6392H16.6362V9.80176Z" fill="#01579B"/>
<path d="M10.9613 15.4768H8.12381V12.6393H10.9613V15.4768ZM16.6362 12.6393H13.7988V15.4768H16.6362V12.6393ZM16.6362 6.96436H13.7988V9.80183H16.6362V6.96436ZM13.7988 9.80183H10.9613V12.6393H13.7988V9.80183Z" fill="#0288D1"/>
</svg>
