<svg width="30" height="30" viewBox="0 0 30 30" fill="none" xmlns="http://www.w3.org/2000/svg">
<g clip-path="url(#clip0_2023_7723)">
<path d="M18.9937 19.3942C17.8359 18.2483 17.2997 16.8596 17.2997 15.2217C17.2997 13.5746 17.8329 12.1796 18.9937 11.0245C19.5452 10.4626 20.2049 10.0185 20.9329 9.7188C21.6568 9.42117 22.4342 9.27526 23.2168 9.29009C24.6907 9.26538 26.1195 9.81021 27.2172 10.8158C27.3848 10.9715 27.3879 11.1272 27.2356 11.2767L25.9467 12.6062C25.8036 12.7371 25.6633 12.7371 25.5324 12.6062C24.9156 12.0532 24.1194 11.7546 23.299 11.7686C22.3727 11.7686 21.6019 12.0987 20.9834 12.765C20.6878 13.0837 20.458 13.4576 20.3072 13.8652C20.1553 14.2749 20.0849 14.7103 20.0998 15.147C20.0998 16.0687 20.374 16.8534 20.9956 17.5042C21.2937 17.8213 21.655 18.0723 22.0561 18.2411C22.4549 18.4087 22.8848 18.4897 23.3172 18.4788C24.1244 18.4973 24.9109 18.2176 25.5324 17.691C25.6847 17.5602 25.8279 17.5665 25.9589 17.7065L27.2508 19.0704C27.394 19.2136 27.3879 19.3599 27.2356 19.5126C26.1544 20.5648 24.7094 21.1369 23.2168 21.1037C22.436 21.119 21.6602 20.9755 20.9366 20.6817C20.209 20.386 19.5483 19.9471 18.9937 19.3911V19.3942Z" fill="url(#paint0_linear_2023_7723)"/>
<path d="M2.97936 20.7612V9.61392C2.97794 9.57161 2.98536 9.52947 3.00113 9.49019C3.01686 9.45103 3.04059 9.41568 3.07076 9.38667C3.09594 9.35719 3.12724 9.33355 3.16249 9.31741C3.19775 9.30127 3.23609 9.29301 3.27487 9.29322H7.25719C8.89029 9.41773 10.109 9.88472 11.2303 11.0369C12.3577 12.189 12.8055 13.4967 12.9487 15.1782C13.0858 16.7973 12.4247 18.1985 11.3034 19.3506C10.7845 19.9067 10.1559 20.349 9.45729 20.6498C8.7627 20.9484 8.0131 21.0977 7.25709 21.088H3.27496C3.23639 21.0878 3.1983 21.0794 3.16324 21.0633C3.128 21.0471 3.09653 21.0238 3.07086 20.9947C3.04053 20.9648 3.01678 20.929 3.00113 20.8894C2.98537 20.8496 2.97799 20.807 2.97945 20.7642V20.7612H2.97936ZM5.52653 12.3229V18.5909H7.09264C8.0067 18.5909 8.76842 18.2608 9.37174 17.6038C9.97496 16.9479 10.3003 16.075 10.2766 15.1751C10.2766 14.2192 9.97194 13.4127 9.37174 12.7557C9.08419 12.4358 8.73114 12.1816 8.33658 12.0103C7.94444 11.8402 7.51993 11.7578 7.09264 11.7686H5.52653V12.3229Z" fill="url(#paint1_linear_2023_7723)"/>
<path d="M17.6196 13.1917L15.1516 18.7342H15.051L12.4155 12.8057C12.7141 13.5155 12.8725 14.294 12.9487 15.1752C13.0493 16.3584 12.7233 17.4233 12.1047 18.3637L14.725 24.1023C14.792 24.2269 14.8834 24.2892 15.0053 24.2892H15.1699C15.2917 24.2892 15.3832 24.23 15.4471 24.1055L18.1163 18.2983C17.5608 17.373 17.2773 16.3041 17.2997 15.2188C17.2997 14.4964 17.4033 13.8176 17.6196 13.1917Z" fill="url(#paint2_linear_2023_7723)"/>
</g>
<defs>
<linearGradient id="paint0_linear_2023_7723" x1="22.3269" y1="15.2051" x2="22.3269" y2="21.105" gradientUnits="userSpaceOnUse">
<stop stop-color="#F46837"/>
<stop offset="1" stop-color="#DD5236"/>
</linearGradient>
<linearGradient id="paint1_linear_2023_7723" x1="7.97291" y1="15.2051" x2="7.97291" y2="21.0885" gradientUnits="userSpaceOnUse">
<stop stop-color="#13ADC7"/>
<stop offset="1" stop-color="#1497B8"/>
</linearGradient>
<linearGradient id="paint2_linear_2023_7723" x1="12.8815" y1="18.6305" x2="12.8815" y2="24.2352" gradientUnits="userSpaceOnUse">
<stop stop-color="#7E51C2"/>
<stop offset="1" stop-color="#945DD6"/>
</linearGradient>
<clipPath id="clip0_2023_7723">
<rect width="25" height="25" fill="white" transform="translate(2.66666 3)"/>
</clipPath>
</defs>
</svg>
