<?xml version="1.0" encoding="UTF-8"?>
<svg xmlns="http://www.w3.org/2000/svg" width="27" height="28" viewBox="0 0 27 28" fill="none">
  <path d="M25.0446 13.8438H22.0161C21.99 14.1796 21.9466 14.5139 21.8861 14.8453C21.7215 15.8979 21.3487 16.9073 20.7896 17.8142L19.9536 19.0107C19.8858 19.1138 19.8462 19.2327 19.8386 19.3558C19.791 19.9519 19.6194 20.5315 19.3348 21.0575C19.0503 21.5835 18.659 22.0442 18.1861 22.4103L16.5441 23.6818C16.2394 23.9132 15.8884 24.0764 15.515 24.16C15.1416 24.2437 14.7546 24.2459 14.3803 24.1666C14.0059 24.0873 13.6531 23.9282 13.3457 23.7003C13.0384 23.4724 12.7837 23.1809 12.5991 22.8457C12.3945 22.4808 12.3205 22.057 12.3891 21.6442C12.4302 20.7741 12.3474 19.9026 12.1431 19.0557C12.0301 18.5676 11.8847 18.0876 11.7081 17.6188H9.89059C7.89359 17.8193 6.41059 16.9048 6.61659 14.8453C6.63817 14.5066 6.69515 14.1711 6.78659 13.8442H2.37109C2.53523 14.1882 2.71903 14.5224 2.92159 14.8453C3.22231 15.4277 3.68462 15.911 4.25309 16.2373C4.55738 16.3411 4.8217 16.5373 5.00927 16.7984C5.19685 17.0596 5.29833 17.3727 5.29959 17.6942V20.1172C5.29966 20.422 5.20916 20.72 5.03959 20.9733L3.27709 23.5817C11.1276 32.5327 26.1086 26.9877 26.1416 14.9402C26.1408 14.6497 26.025 14.3713 25.8195 14.166C25.6141 13.9606 25.3356 13.8449 25.0451 13.8442L25.0446 13.8438Z" fill="white"></path>
  <path d="M4.3005 20.1186V17.6951C4.29654 17.5787 4.25697 17.4664 4.18714 17.3732C4.11731 17.2801 4.02058 17.2106 3.91 17.1741C2.7145 16.7251 1.777 14.9916 1.2715 13.8451C1.11431 13.8244 0.954513 13.8371 0.802589 13.8825C0.650664 13.9278 0.510052 14.0048 0.389979 14.1084C0.269906 14.2119 0.173088 14.3397 0.105879 14.4833C0.0386701 14.6269 0.00258926 14.7831 4.6567e-06 14.9416C-0.00238471 17.7676 0.91478 20.5177 2.613 22.7766C2.979 22.2471 3.838 20.9586 4.21 20.4136C4.26956 20.3267 4.30098 20.2235 4.3 20.1181L4.3005 20.1186ZM9.2915 7.44711C8.04766 6.83018 6.87147 6.08532 5.782 5.22461C5.68369 5.13843 5.62292 5.01727 5.61264 4.88693C5.60235 4.7566 5.64337 4.62741 5.72695 4.52688C5.81053 4.42635 5.93006 4.36243 6.06008 4.34874C6.1901 4.33506 6.32032 4.37268 6.423 4.45361C7.9555 5.73711 10.6745 7.06611 12.3355 7.81261C12.3375 9.39661 12.334 12.2476 12.3355 13.8456H7.825C7.474 14.9586 7.35851 16.5696 8.96651 16.6241L12.06 16.6191C12.47 16.6021 12.567 17.0576 12.681 17.3551C13.2436 18.8551 13.4808 20.4575 13.377 22.0561C13.4518 22.3102 13.5872 22.5424 13.7717 22.7325C13.9562 22.9226 14.1842 23.0649 14.436 23.1472C14.6878 23.2295 14.9559 23.2493 15.217 23.2048C15.4782 23.1604 15.7246 23.0531 15.935 22.8921L17.5775 21.6206C17.9392 21.3378 18.2384 20.9832 18.4564 20.5791C18.6744 20.175 18.8063 19.7302 18.844 19.2726C18.8315 18.6331 19.66 17.7451 19.9705 17.2396C20.5721 16.2026 20.9282 15.0416 21.0115 13.8456H13.3365V12.2686C15.5095 10.5336 18.13 8.54861 20.6865 7.62761C20.7471 7.59271 20.8143 7.57078 20.8838 7.56322C20.9533 7.55566 21.0236 7.56262 21.0902 7.58367C21.1569 7.60472 21.2185 7.63939 21.271 7.68549C21.3236 7.73159 21.366 7.78811 21.3955 7.85147C21.4251 7.91482 21.4412 7.98363 21.4427 8.05352C21.4443 8.12341 21.4313 8.19287 21.4046 8.25748C21.3779 8.32209 21.338 8.38044 21.2876 8.42883C21.2371 8.47723 21.1772 8.51461 21.1115 8.53861C19.5806 9.14914 18.1326 9.94976 16.8015 10.9216C17.5107 11.2159 18.2744 11.3556 19.0418 11.3314C19.8093 11.3073 20.5627 11.1199 21.252 10.7816C22.2549 10.266 23.0946 9.48165 23.6772 8.51617C24.2598 7.5507 24.5623 6.44219 24.551 5.31461V2.90661C24.5502 2.81759 24.5258 2.73038 24.4804 2.65385C24.4349 2.57733 24.3699 2.51422 24.2921 2.47098C24.2143 2.42773 24.1265 2.40588 24.0375 2.40766C23.9485 2.40944 23.8615 2.43478 23.7855 2.48111C22.7451 3.12173 21.5717 3.51563 20.3555 3.63261C19.1973 3.66349 18.0857 4.09573 17.2109 4.85544C16.3361 5.61515 15.7524 6.65514 15.5595 7.79761L15.2795 9.53011C14.6209 10.0006 13.9732 10.4862 13.337 10.9866V2.58111C13.337 2.4483 13.2842 2.32093 13.1903 2.22702C13.0964 2.13312 12.9691 2.08036 12.8363 2.08036C12.7034 2.08036 12.5761 2.13312 12.4822 2.22702C12.3883 2.32093 12.3355 2.4483 12.3355 2.58111V6.75611C11.9655 6.58111 11.4995 6.35611 10.999 6.10061C10.9785 4.46361 9.4005 1.23561 6.0025 1.22911C5.527 1.21411 4.44551 1.04411 2.573 0.0376079C1.236 -0.318392 1.43351 1.91661 2.22301 4.05261C3.21601 6.80111 6.5205 8.29211 9.2915 7.44761V7.44711Z" fill="white"></path>
</svg>
