<?xml version="1.0" encoding="UTF-8"?>
<svg xmlns="http://www.w3.org/2000/svg" width="20" height="20" viewBox="0 0 20 20" fill="none">
  <g clip-path="url(#clip0_2348_3537)">
    <path d="M19.8285 13.7263L18.2794 12.1771V6.86341L19.2907 6.4988C19.4041 6.45798 19.5021 6.38319 19.5714 6.28464C19.6408 6.18608 19.678 6.06854 19.6781 5.94805C19.6782 5.82756 19.6411 5.70997 19.5719 5.61132C19.5027 5.51266 19.4048 5.43774 19.2915 5.39676L10.0385 2.04575C9.90959 1.99907 9.76841 1.99907 9.63951 2.04575L0.386525 5.39676C0.273694 5.43765 0.176142 5.51221 0.107059 5.61035C0.037975 5.70848 0.000691209 5.82547 0.000248136 5.94548C-0.000194937 6.06549 0.036224 6.18275 0.104581 6.28139C0.172938 6.38004 0.269937 6.45531 0.382463 6.49704L3.79733 7.76204V11.6232C3.79733 11.7431 3.83405 11.86 3.90259 11.9583C3.94029 12.0124 4.29732 12.4999 5.21145 12.9601C6.3663 13.5414 7.881 13.8362 9.71341 13.8362C11.5445 13.8362 13.0668 13.542 14.2382 12.9618C15.1613 12.5046 15.5302 12.0221 15.5693 11.9686C15.6424 11.8683 15.6818 11.7474 15.6818 11.6233V7.79985L17.1077 7.28579V12.1771L15.5585 13.7263C15.4487 13.8361 15.3869 13.9852 15.3869 14.1405C15.3869 14.2959 15.4487 14.4449 15.5585 14.5548L17.1077 16.1039V17.4037C17.1077 17.7272 17.37 17.9895 17.6935 17.9895C18.0171 17.9895 18.2794 17.7272 18.2794 17.4037V16.1039L19.8285 14.5548C20.0573 14.3261 20.0573 13.955 19.8285 13.7263ZM9.83902 3.21974L17.368 5.94639L9.71618 8.70507L2.28939 5.95385L9.83902 3.21974ZM14.51 11.3897C12.5071 13.192 6.55543 12.9853 4.96909 11.3956V8.19614L9.50987 9.87824C9.58193 9.88965 9.64997 9.95179 9.9121 9.88004L14.5101 8.22238L14.51 11.3897ZM17.6935 15.0327L16.8013 14.1405L17.6935 13.2483L18.5857 14.1405L17.6935 15.0327Z" fill="white"></path>
  </g>
  <defs>
    <clipPath id="clip0_2348_3537">
      <rect width="20" height="20" fill="white"></rect>
    </clipPath>
  </defs>
</svg>
