<?xml version="1.0" encoding="UTF-8"?>
<svg xmlns="http://www.w3.org/2000/svg" width="20" height="20" viewBox="0 0 20 20" fill="none">
  <g clip-path="url(#clip0_2421_183)">
    <path fill-rule="evenodd" clip-rule="evenodd" d="M3.03835 6.12857L3.87168 6.9619C3.91034 7.00063 3.95626 7.03135 4.00681 7.05232C4.05736 7.07328 4.11154 7.08407 4.16627 7.08407C4.22099 7.08407 4.27517 7.07328 4.32572 7.05232C4.37627 7.03135 4.42219 7.00063 4.46085 6.9619L6.12793 5.29523C6.20383 5.21665 6.24583 5.1114 6.24488 5.00215C6.24393 4.8929 6.20011 4.7884 6.12286 4.71114C6.0456 4.63389 5.9411 4.59007 5.83185 4.58912C5.7226 4.58817 5.61735 4.63017 5.53877 4.70607L4.16627 6.07815L3.62752 5.5394C3.54893 5.4635 3.44368 5.4215 3.33443 5.42245C3.22518 5.4234 3.12068 5.46722 3.04343 5.54448C2.96617 5.62173 2.92235 5.72624 2.9214 5.83548C2.92045 5.94473 2.96245 6.04998 3.03835 6.12857ZM7.4996 5.41732H9.9996C10.1101 5.41732 10.2161 5.37342 10.2942 5.29528C10.3724 5.21714 10.4163 5.11116 10.4163 5.00065C10.4163 4.89014 10.3724 4.78416 10.2942 4.70602C10.2161 4.62788 10.1101 4.58398 9.9996 4.58398H7.4996C7.38909 4.58398 7.28311 4.62788 7.20497 4.70602C7.12683 4.78416 7.08293 4.89014 7.08293 5.00065C7.08293 5.11116 7.12683 5.21714 7.20497 5.29528C7.28311 5.37342 7.38909 5.41732 7.4996 5.41732ZM7.4996 7.08398H13.3329C13.4434 7.08398 13.5494 7.04009 13.6276 6.96195C13.7057 6.88381 13.7496 6.77782 13.7496 6.66732C13.7496 6.55681 13.7057 6.45083 13.6276 6.37269C13.5494 6.29455 13.4434 6.25065 13.3329 6.25065H7.4996C7.38909 6.25065 7.28311 6.29455 7.20497 6.37269C7.12683 6.45083 7.08293 6.55681 7.08293 6.66732C7.08293 6.77782 7.12683 6.88381 7.20497 6.96195C7.28311 7.04009 7.38909 7.08398 7.4996 7.08398ZM3.03835 10.2952L3.87168 11.1286C3.91034 11.1673 3.95626 11.198 4.00681 11.219C4.05736 11.2399 4.11154 11.2507 4.16627 11.2507C4.22099 11.2507 4.27517 11.2399 4.32572 11.219C4.37627 11.198 4.42219 11.1673 4.46085 11.1286L6.12793 9.4619C6.20383 9.38332 6.24583 9.27807 6.24488 9.16882C6.24393 9.05957 6.20011 8.95506 6.12286 8.87781C6.0456 8.80056 5.9411 8.75674 5.83185 8.75579C5.7226 8.75484 5.61735 8.79684 5.53877 8.87273L4.16627 10.2448L3.62752 9.70607C3.54893 9.63017 3.44368 9.58817 3.33443 9.58912C3.22518 9.59007 3.12068 9.63389 3.04343 9.71114C2.96617 9.7884 2.92235 9.8929 2.9214 10.0022C2.92045 10.1114 2.96245 10.2167 3.03835 10.2952ZM3.03835 14.4619L3.87168 15.2952C3.91034 15.334 3.95626 15.3647 4.00681 15.3857C4.05736 15.4066 4.11154 15.4174 4.16627 15.4174C4.22099 15.4174 4.27517 15.4066 4.32572 15.3857C4.37627 15.3647 4.42219 15.334 4.46085 15.2952L6.12793 13.6286C6.20383 13.55 6.24583 13.4447 6.24488 13.3355C6.24393 13.2262 6.20011 13.1217 6.12286 13.0445C6.0456 12.9672 5.9411 12.9234 5.83185 12.9225C5.7226 12.9215 5.61735 12.9635 5.53877 13.0394L4.16627 14.4115L3.62752 13.8727C3.54893 13.7968 3.44368 13.7548 3.33443 13.7558C3.22518 13.7567 3.12068 13.8006 3.04343 13.8778C2.96617 13.9551 2.92235 14.0596 2.9214 14.1688C2.92045 14.2781 2.96245 14.3833 3.03835 14.4619ZM7.4996 9.58398H13.3329C13.4434 9.58398 13.5494 9.54009 13.6276 9.46195C13.7057 9.38381 13.7496 9.27783 13.7496 9.16732C13.7496 9.05681 13.7057 8.95083 13.6276 8.87269C13.5494 8.79455 13.4434 8.75065 13.3329 8.75065H7.4996C7.38909 8.75065 7.28311 8.79455 7.20497 8.87269C7.12683 8.95083 7.08293 9.05681 7.08293 9.16732C7.08293 9.27783 7.12683 9.38381 7.20497 9.46195C7.28311 9.54009 7.38909 9.58398 7.4996 9.58398ZM7.4996 11.2507H10.8334C10.9439 11.2507 11.0498 11.2068 11.128 11.1286C11.2061 11.0505 11.25 10.9445 11.25 10.834C11.25 10.7235 11.2061 10.6175 11.128 10.5394C11.0498 10.4612 10.9439 10.4173 10.8334 10.4173H7.4996C7.38909 10.4173 7.28311 10.4612 7.20497 10.5394C7.12683 10.6175 7.08293 10.7235 7.08293 10.834C7.08293 10.9445 7.12683 11.0505 7.20497 11.1286C7.28311 11.2068 7.38909 11.2507 7.4996 11.2507ZM12.9092 15.3082L14.0875 16.4865C14.1657 16.5646 14.2716 16.6085 14.3821 16.6085C14.4926 16.6085 14.5985 16.5646 14.6767 16.4865L17.0334 14.1298C17.1093 14.0512 17.1512 13.946 17.1503 13.8367C17.1493 13.7275 17.1055 13.623 17.0283 13.5457C16.951 13.4685 16.8465 13.4247 16.7373 13.4237C16.628 13.4228 16.5228 13.4648 16.4442 13.5407L14.3821 15.6027L13.4984 14.719C13.4198 14.6431 13.3145 14.6011 13.2053 14.602C13.096 14.603 12.9915 14.6468 12.9143 14.7241C12.837 14.8013 12.7932 14.9058 12.7922 15.0151C12.7913 15.1243 12.8333 15.2296 12.9092 15.3082ZM7.4996 13.7507H9.16668C9.27719 13.7507 9.38317 13.7068 9.46131 13.6286C9.53945 13.5505 9.58335 13.4445 9.58335 13.334C9.58335 13.2235 9.53945 13.1175 9.46131 13.0394C9.38317 12.9612 9.27719 12.9173 9.16668 12.9173H7.4996C7.38909 12.9173 7.28311 12.9612 7.20497 13.0394C7.12683 13.1175 7.08293 13.2235 7.08293 13.334C7.08293 13.4445 7.12683 13.5505 7.20497 13.6286C7.28311 13.7068 7.38909 13.7507 7.4996 13.7507ZM7.4996 15.4173H9.16668C9.27719 15.4173 9.38317 15.3734 9.46131 15.2953C9.53945 15.2171 9.58335 15.1112 9.58335 15.0007C9.58335 14.8901 9.53945 14.7842 9.46131 14.706C9.38317 14.6279 9.27719 14.584 9.16668 14.584H7.4996C7.38909 14.584 7.28311 14.6279 7.20497 14.706C7.12683 14.7842 7.08293 14.8901 7.08293 15.0007C7.08293 15.1112 7.12683 15.2171 7.20497 15.2953C7.28311 15.3734 7.38909 15.4173 7.4996 15.4173Z" fill="#9810FA"></path>
    <path fill-rule="evenodd" clip-rule="evenodd" d="M15 19.5837H2.49959C1.94706 19.5837 1.41715 19.3642 1.02645 18.9735C0.635753 18.5828 0.41626 18.0529 0.41626 17.5003V2.50033C0.41626 1.94779 0.635753 1.41789 1.02645 1.02719C1.41715 0.636486 1.94706 0.416992 2.49959 0.416992H10.9763C11.5288 0.416992 12.0588 0.636576 12.4496 1.02699L15.6396 4.21741C16.0301 4.60814 16.2495 5.13791 16.2496 5.69033V10.5899C18.1725 11.1341 19.5833 12.9037 19.5833 15.0003C19.5833 17.5299 17.5296 19.5837 15 19.5837ZM15.4163 10.4357V5.69033C15.4163 5.59783 15.4058 5.50616 15.3858 5.41699H13.3333C12.7808 5.41699 12.2509 5.1975 11.8602 4.8068C11.4695 4.4161 11.25 3.88619 11.25 3.33366V1.28074C11.1602 1.26034 11.0684 1.25014 10.9763 1.25033H2.49959C2.16807 1.25033 1.85013 1.38202 1.61571 1.61644C1.38129 1.85086 1.24959 2.1688 1.24959 2.50033V17.5003C1.24959 17.8318 1.38129 18.1498 1.61571 18.3842C1.85013 18.6186 2.16807 18.7503 2.49959 18.7503H12.3658C11.7635 18.3279 11.2719 17.7665 10.9326 17.1137C10.5933 16.4609 10.4163 15.736 10.4167 15.0003C10.4167 12.4707 12.4704 10.417 15 10.417C15.1404 10.417 15.2792 10.4232 15.4163 10.4357ZM15 11.2503C17.0696 11.2503 18.75 12.9307 18.75 15.0003C18.75 17.0699 17.0696 18.7503 15 18.7503C12.9304 18.7503 11.25 17.0699 11.25 15.0003C11.25 12.9307 12.9304 11.2503 15 11.2503ZM12.0833 1.83949V3.33366C12.0833 3.66518 12.215 3.98312 12.4495 4.21754C12.6839 4.45196 13.0018 4.58366 13.3333 4.58366H14.8271L12.0833 1.83949Z" fill="#9810FA" stroke="#9810FA" stroke-width="0.4"></path>
  </g>
  <defs>
    <clipPath id="clip0_2421_183">
      <rect width="20" height="20" fill="white"></rect>
    </clipPath>
  </defs>
</svg>
