<?xml version="1.0" encoding="UTF-8"?>
<svg xmlns="http://www.w3.org/2000/svg" width="28" height="28" viewBox="0 0 28 28" fill="none">
  <path d="M21 17V19.3516H18.6484V17H21ZM21 12.3516V14.6484H18.6484V12.3516H21ZM23.3516 21.6484V10H14V12.3516H16.3516V14.6484H14V17H16.3516V19.3516H14V21.6484H23.3516ZM11.6484 7.64844V5.35156H9.35156V7.64844H11.6484ZM11.6484 12.3516V10H9.35156V12.3516H11.6484ZM11.6484 17V14.6484H9.35156V17H11.6484ZM11.6484 21.6484V19.3516H9.35156V21.6484H11.6484ZM7 7.64844V5.35156H4.64844V7.64844H7ZM7 12.3516V10H4.64844V12.3516H7ZM7 17V14.6484H4.64844V17H7ZM7 21.6484V19.3516H4.64844V21.6484H7ZM14 7.64844H25.6484V24H2.35156V3H14V7.64844Z" fill="white"></path>
</svg>
