<svg width="30" height="30" viewBox="0 0 30 30" fill="none" xmlns="http://www.w3.org/2000/svg">
<rect x="2" y="2" width="25" height="25" rx="3" fill="black"/>
<g clip-path="url(#clip0_2024_15548)">
<rect width="20" height="20" transform="translate(5 5)" fill="black"/>
<path d="M25 19.5108C14.5438 20.8773 7.08069 22.5187 6.9703 15.7817C6.9703 15.7817 7.19842 13.1714 10.4001 13.007C10.4001 13.007 10.508 10.6886 12.954 10.4261C14.269 10.2837 15.7631 11.638 15.9251 13.0634C15.9251 13.0634 19.161 12.4648 19.3008 15.6198C19.3499 16.7189 19.1021 18.5883 15.9815 18.5073C15.9815 18.5073 14.1758 18.262 13.9305 15.4701C13.4226 20.8748 21.2365 20.5608 21.3494 15.6517C21.3985 13.5295 20.0393 11.3461 16.9776 11.7558C15.2994 7.53358 10.8319 7.77647 9.1685 11.692C6.79116 11.692 4.97327 13.5222 5.0003 15.9118C5.09108 23.603 15.795 21.2846 25 19.5108Z" fill="white"/>
</g>
<defs>
<clipPath id="clip0_2024_15548">
<rect width="20" height="20" fill="white" transform="translate(5 5)"/>
</clipPath>
</defs>
</svg>
