<?xml version="1.0" encoding="UTF-8"?>
<svg xmlns="http://www.w3.org/2000/svg" width="28" height="28" viewBox="0 0 28 28" fill="none">
  <path d="M21.9844 23.2422C21.0682 23.2422 20.2823 23.8085 19.9571 24.6094H18.0469V26.25H19.9571C20.2823 27.0508 21.0682 27.6172 21.9844 27.6172C23.1906 27.6172 24.1719 26.6359 24.1719 25.4297C24.1719 24.2235 23.1906 23.2422 21.9844 23.2422ZM25.8125 18.5938C25.4651 18.5935 25.1228 18.6765 24.8141 18.8359L22.783 17.1432C22.6355 17.0204 22.4497 16.9531 22.2578 16.9531H18.0469V18.5938H21.9608L23.7417 20.0779C23.6644 20.3043 23.625 20.542 23.625 20.7812C23.625 21.9874 24.6063 22.9688 25.8125 22.9688C27.0187 22.9688 28 21.9874 28 20.7812C28 19.5751 27.0187 18.5938 25.8125 18.5938ZM25.8125 11.7578C24.8963 11.7578 24.1104 12.3242 23.7852 13.125H18.0469V14.7656H23.7852C24.1104 15.5665 24.8963 16.1328 25.8125 16.1328C27.0187 16.1328 28 15.1515 28 13.9453C28 12.7391 27.0187 11.7578 25.8125 11.7578ZM22.783 10.7474L24.8141 9.05472C25.1228 9.2141 25.4651 9.29714 25.8125 9.29688C27.0187 9.29688 28 8.31556 28 7.10938C28 5.90319 27.0187 4.92188 25.8125 4.92188C24.6063 4.92188 23.625 5.90319 23.625 7.10938C23.625 7.35547 23.6665 7.59188 23.7417 7.81277L21.9608 9.29688H18.0469V10.9375H22.2578C22.4497 10.9375 22.6355 10.8702 22.783 10.7474ZM21.9844 4.64844C23.1906 4.64844 24.1719 3.66712 24.1719 2.46094C24.1719 1.25475 23.1906 0.273438 21.9844 0.273438C21.0682 0.273438 20.2823 0.839781 19.9571 1.64062H18.0469V3.28125H19.9571C20.2823 4.08209 21.0682 4.64844 21.9844 4.64844ZM8.20312 13.9453C8.20312 17.1116 10.7791 19.6875 13.9453 19.6875C14.8255 19.6875 15.6599 19.4882 16.4062 19.1327V8.75793C15.6599 8.40246 14.8255 8.20312 13.9453 8.20312C10.7791 8.20312 8.20312 10.7791 8.20312 13.9453Z" fill="#9810FA"></path>
  <path d="M15.5859 0H12.3047C11.8517 0 11.4844 0.367281 11.4844 0.820312V1.88809C9.94156 2.20313 8.47353 2.8113 7.15991 3.67959L6.40467 2.92441C6.08431 2.60405 5.56495 2.60405 5.24459 2.92441L2.92441 5.24459C2.60405 5.56489 2.60405 6.08431 2.92441 6.40467L3.67959 7.15991C2.8113 8.47353 2.20313 9.94156 1.88809 11.4844H0.820312C0.367281 11.4844 0 11.8517 0 12.3047V15.5859C0 16.039 0.367281 16.4062 0.820312 16.4062H1.88809C2.20314 17.9491 2.8113 19.4171 3.67959 20.7308L2.92436 21.486C2.77054 21.6398 2.68413 21.8485 2.68413 22.066C2.68413 22.2835 2.77054 22.4922 2.92436 22.646L5.24459 24.9662C5.56495 25.2866 6.08431 25.2866 6.40467 24.9662L7.15991 24.211C8.47354 25.0793 9.94157 25.6875 11.4844 26.0025V27.0703C11.4844 27.5233 11.8517 27.8906 12.3047 27.8906H15.5859C16.039 27.8906 16.4062 27.5233 16.4062 27.0703V20.9058C15.6361 21.1789 14.8079 21.3281 13.9453 21.3281C9.87443 21.3281 6.5625 18.0162 6.5625 13.9453C6.5625 9.87443 9.87443 6.5625 13.9453 6.5625C14.8079 6.5625 15.6361 6.71169 16.4062 6.9848V0.820312C16.4062 0.367281 16.039 0 15.5859 0Z" fill="#9810FA"></path>
</svg>
