<?xml version="1.0" encoding="UTF-8"?>
<svg xmlns="http://www.w3.org/2000/svg" width="56" height="56" viewBox="0 0 56 56" fill="none">
  <g clip-path="url(#clip0_2992_7917)">
    <path d="M28 56C43.464 56 56 43.464 56 28C56 12.536 43.464 0 28 0C12.536 0 0 12.536 0 28C0 43.464 12.536 56 28 56Z" fill="#1969FF"></path>
    <path d="M26.3047 8.90315C27.2453 8.40549 28.6836 8.40549 29.6242 8.90315L39.2492 13.9781C39.818 14.2789 40.1297 14.7219 40.1844 15.1867H40.1953V40.693C40.1844 41.1961 39.8672 41.6938 39.2492 42.0219L29.6242 47.0969C28.6836 47.5946 27.2453 47.5946 26.3047 47.0969L16.6797 42.0219C16.0672 41.6992 15.7719 41.1961 15.7555 40.693C15.7555 40.6438 15.7555 40.6 15.7555 40.5672V15.3617C15.7555 15.3289 15.7555 15.2906 15.7555 15.2578V15.1922H15.7609C15.8047 14.7274 16.1 14.2899 16.6797 13.9836L26.3047 8.90315ZM38.6641 29.3672L29.6187 34.1524C28.6781 34.65 27.2453 34.65 26.2992 34.1524L17.2758 29.3782V40.6164L26.2992 45.3633C26.8352 45.6477 27.3875 45.9266 27.9289 45.9375H27.9617C28.5031 45.9375 29.0227 45.6641 29.5531 45.4071L38.6641 40.5727V29.3672ZM14.2406 40.1407C14.2406 41.1196 14.3555 41.7594 14.5742 42.2133C14.7602 42.5907 15.0391 42.875 15.5477 43.225L15.575 43.2469C15.6844 43.3235 15.8102 43.4 15.9578 43.493L16.1328 43.6024L16.6742 43.9305L15.9031 45.2266L15.2961 44.8602L15.1922 44.7946C15.0172 44.6852 14.8695 44.5922 14.7383 44.4992C13.2891 43.5149 12.7531 42.443 12.7422 40.2063V40.1407H14.2406ZM27.2344 22.586C27.1633 22.6078 27.0977 22.6406 27.0375 22.668L17.4289 27.7594C17.418 27.7649 17.407 27.7703 17.4016 27.7758L17.3906 27.7813L17.407 27.7922L17.4289 27.8032L27.0375 32.8946C27.0977 32.9274 27.1633 32.9547 27.2344 32.9766V22.586ZM28.7656 22.586V32.9766C28.8367 32.9547 28.9023 32.9219 28.9625 32.8946L38.5711 27.8032C38.582 27.7977 38.593 27.7922 38.5984 27.7867L38.6039 27.7813L38.5875 27.7703L38.5656 27.7594L28.957 22.668C28.9023 22.6406 28.8367 22.6078 28.7656 22.586ZM38.6641 17.0078L30.0234 21.5469L38.6641 26.086V17.0078ZM17.2812 17.0078V26.086L25.9219 21.5469L17.2812 17.0078ZM28.9516 10.2594C28.4539 9.9969 27.5461 9.9969 27.0484 10.2594L17.4289 15.3453C17.418 15.3508 17.407 15.3563 17.4016 15.3617L17.3906 15.3672L17.407 15.3781L17.4289 15.3891L27.0484 20.475C27.5461 20.7375 28.4539 20.7375 28.9516 20.475L38.5711 15.3891C38.582 15.3836 38.593 15.3781 38.5984 15.3727L38.6039 15.3672L38.5875 15.3563L38.5656 15.3453L28.9516 10.2594ZM40.0969 10.7735L40.7039 11.1399L40.8078 11.2055C40.9828 11.3149 41.1305 11.4078 41.2617 11.5008C42.7109 12.4852 43.2469 13.5571 43.2578 15.7938V15.8594H41.7594C41.7594 14.8805 41.6445 14.2406 41.4258 13.7867C41.2398 13.4094 40.9609 13.125 40.4523 12.775L40.425 12.7531C40.3156 12.6766 40.1898 12.6 40.0422 12.5071L39.8672 12.3977L39.3258 12.0696L40.0969 10.7735Z" fill="white"></path>
  </g>
  <defs>
    <clipPath id="clip0_2992_7917">
      <rect width="56" height="56" fill="white"></rect>
    </clipPath>
  </defs>
</svg>
