<?xml version="1.0" encoding="UTF-8"?>
<svg xmlns="http://www.w3.org/2000/svg" width="20" height="20" viewBox="0 0 20 20" fill="none">
  <path d="M5.74134 6.65328C6.37364 5.985 7.13612 5.45332 7.98178 5.09103C8.82744 4.72874 9.73835 4.54352 10.6583 4.54678H10.6638C14.4176 4.54816 17.4715 7.60616 17.4715 11.3647C17.4715 15.1205 14.4162 18.1758 10.6611 18.1758C9.74116 18.1791 8.83023 17.9945 7.98414 17.6334C7.13806 17.2722 6.37463 16.7421 5.74066 16.0755C5.67631 16.009 5.59914 15.9562 5.51382 15.9204C5.4285 15.8846 5.33681 15.8665 5.24428 15.8672C5.10939 15.8661 4.97718 15.9049 4.86429 15.9787C4.75139 16.0526 4.66286 16.1582 4.60981 16.2822C4.55675 16.4062 4.54156 16.5432 4.56613 16.6758C4.5907 16.8084 4.65395 16.9309 4.74791 17.0277C5.51369 17.8234 6.43183 18.4569 7.4476 18.8904C8.46338 19.3239 9.55601 19.5485 10.6604 19.5508C15.1745 19.5508 18.8465 15.8782 18.8465 11.3647C18.8465 9.35309 18.1157 7.51197 16.9098 6.08472L17.9582 5.03628C18.0239 4.97286 18.0763 4.897 18.1123 4.81312C18.1483 4.72924 18.1673 4.63903 18.1681 4.54774C18.1689 4.45646 18.1515 4.36593 18.1169 4.28144C18.0823 4.19695 18.0313 4.12019 17.9667 4.05563C17.9022 3.99108 17.8254 3.94003 17.7409 3.90547C17.6564 3.8709 17.5659 3.8535 17.4746 3.8543C17.3833 3.85509 17.2931 3.87406 17.2093 3.91009C17.1254 3.94612 17.0495 3.99849 16.9861 4.06416L15.939 5.11122C14.6451 4.0133 13.0404 3.34723 11.3493 3.20616V1.67578H12.4369C12.6192 1.67578 12.7941 1.60335 12.923 1.47442C13.052 1.34549 13.1244 1.17062 13.1244 0.988281C13.1244 0.805945 13.052 0.631077 12.923 0.502145C12.7941 0.373214 12.6192 0.300781 12.4369 0.300781H8.88597C8.70363 0.300781 8.52876 0.373214 8.39983 0.502145C8.2709 0.631077 8.19847 0.805945 8.19847 0.988281C8.19847 1.17062 8.2709 1.34549 8.39983 1.47442C8.52876 1.60335 8.70363 1.67578 8.88597 1.67578H9.97428V3.20684C7.98649 3.37619 6.12838 4.26357 4.74722 5.70316C4.68491 5.76852 4.63609 5.84551 4.60354 5.92974C4.571 6.01397 4.55536 6.10379 4.55753 6.19406C4.5597 6.28433 4.57964 6.3733 4.61619 6.45587C4.65275 6.53843 4.70522 6.61299 4.77059 6.67528C4.89872 6.79649 5.0686 6.8637 5.24497 6.86297C5.33792 6.86383 5.43005 6.8456 5.51567 6.80941C5.60128 6.77322 5.67856 6.71985 5.74272 6.65259L5.74134 6.65328Z" fill="#06B6D4" stroke="#06B6D4" stroke-width="0.6"></path>
  <path d="M12.038 12.0507H13.6481C13.8305 12.0507 14.0053 11.9783 14.1343 11.8494C14.2632 11.7204 14.3356 11.5456 14.3356 11.3632C14.3356 11.1809 14.2632 11.006 14.1343 10.8771C14.0053 10.7482 13.8305 10.6757 13.6481 10.6757H12.038C11.8557 10.6757 11.6808 10.6033 11.5519 10.4744C11.4229 10.3454 11.3505 10.1706 11.3505 9.98822V8.24609C11.3505 8.06376 11.2781 7.88889 11.1491 7.75996C11.0202 7.63103 10.8453 7.55859 10.663 7.55859C10.4807 7.55859 10.3058 7.63103 10.1769 7.75996C10.0479 7.88889 9.9755 8.06376 9.9755 8.24609V9.98822C9.9755 11.1253 10.9009 12.0507 12.038 12.0507ZM7.50669 11.3632C7.50669 11.1809 7.43425 11.006 7.30532 10.8771C7.17639 10.7482 7.00152 10.6757 6.81919 10.6757H2.46594C2.2836 10.6757 2.10873 10.7482 1.9798 10.8771C1.85087 11.006 1.77844 11.1809 1.77844 11.3632C1.77844 11.5456 1.85087 11.7204 1.9798 11.8494C2.10873 11.9783 2.2836 12.0507 2.46594 12.0507H6.81919C7.00152 12.0507 7.17639 11.9783 7.30532 11.8494C7.43425 11.7204 7.50669 11.5456 7.50669 11.3632ZM6.02513 8.39872C6.02513 8.21638 5.95269 8.04151 5.82376 7.91258C5.69483 7.78365 5.51996 7.71122 5.33763 7.71122H0.984375C0.802039 7.71122 0.62717 7.78365 0.498239 7.91258C0.369308 8.04151 0.296875 8.21638 0.296875 8.39872C0.296875 8.58106 0.369308 8.75592 0.498239 8.88485C0.62717 9.01379 0.802039 9.08622 0.984375 9.08622H5.33763C5.51996 9.08622 5.69483 9.01379 5.82376 8.88485C5.95269 8.75592 6.02513 8.58106 6.02513 8.39872ZM6.02513 14.327C6.02513 14.1447 5.95269 13.9698 5.82376 13.8409C5.69483 13.712 5.51996 13.6395 5.33763 13.6395H0.984375C0.802039 13.6395 0.62717 13.712 0.498239 13.8409C0.369308 13.9698 0.296875 14.1447 0.296875 14.327C0.296875 14.5094 0.369308 14.6842 0.498239 14.8132C0.62717 14.9421 0.802039 15.0145 0.984375 15.0145H5.33763C5.51996 15.0145 5.69483 14.9421 5.82376 14.8132C5.95269 14.6842 6.02513 14.5094 6.02513 14.327Z" fill="#06B6D4" stroke="#06B6D4" stroke-width="0.6"></path>
</svg>
