<svg width="30" height="30" viewBox="0 0 30 30" fill="none" xmlns="http://www.w3.org/2000/svg">
<g clip-path="url(#clip0_2024_15556)">
<path d="M13.0963 27.9192C12.7246 27.8749 12.3348 27.8176 12.2303 27.7918C12.0765 27.7554 11.9218 27.7228 11.7664 27.6942C11.5889 27.6598 11.4128 27.6185 11.2385 27.5706C10.4289 27.3385 10.3709 27.3196 9.76055 27.07C9.19902 26.8411 8.16445 26.3063 7.81055 26.0629C7.71367 25.9958 7.62305 25.9417 7.60918 25.9417C7.59551 25.9417 7.36895 25.7823 7.10566 25.5875C5.43184 24.3487 4.1752 22.8448 3.26719 20.9924C3.11094 20.6743 2.9834 20.392 2.9834 20.3655C2.9834 20.3393 2.95527 20.2668 2.9209 20.2059C2.85 20.0792 2.74902 19.8061 2.66758 19.5239C2.63256 19.404 2.59182 19.2858 2.54551 19.1698C2.50742 19.0799 2.47676 18.9706 2.47676 18.9264C2.47676 18.8821 2.43867 18.7379 2.39219 18.6051C2.3457 18.4733 2.3082 18.3176 2.3082 18.2594C2.3082 18.2016 2.27168 18.0016 2.22656 17.8149C2.1168 17.354 2 16.16 2 15.4909C2 14.8225 2.1168 13.6286 2.22656 13.1678C2.27148 12.9809 2.3082 12.7772 2.3082 12.7147C2.3082 12.652 2.33652 12.5292 2.3707 12.4413C2.40586 12.3538 2.45078 12.1965 2.47148 12.092C2.49297 11.9875 2.5418 11.8075 2.58145 11.6907L2.69668 11.3536C2.78125 11.101 2.85977 10.8874 2.89727 10.8042C2.91875 10.7577 3.00254 10.5678 3.08418 10.3823C3.21621 10.0825 3.49922 9.51704 3.66465 9.22114C3.725 9.11274 3.74785 9.07681 4.07441 8.56645C4.5918 7.7563 5.47598 6.74829 6.29902 6.02974C6.58906 5.77642 7.55801 5.04087 7.60156 5.04087C7.61367 5.04087 7.70508 4.98599 7.80527 4.9188C8.06836 4.74263 8.32637 4.59302 8.66269 4.42446C8.78342 4.36475 8.90298 4.3027 9.02129 4.23833C9.07695 4.2063 9.18145 4.15825 9.71797 3.91802C9.83613 3.86528 9.96348 3.81724 10.3305 3.68892C10.4113 3.66079 10.5738 3.60122 10.6898 3.55767C10.8066 3.51431 10.9439 3.47837 10.9951 3.47837C11.0455 3.47837 11.1781 3.44321 11.2896 3.39985C11.401 3.3563 11.6031 3.30669 11.7396 3.28989C11.8756 3.27388 12.0563 3.23579 12.141 3.20591C12.225 3.177 12.4555 3.1395 12.6529 3.1229C12.9103 3.09965 13.167 3.06936 13.4227 3.03208C13.9477 2.95513 15.0891 2.95513 15.6086 3.03208C15.854 3.06729 16.1002 3.09627 16.3471 3.11899C16.5332 3.13442 16.7705 3.17329 16.875 3.20532C16.9795 3.23657 17.1604 3.27563 17.2764 3.28989C17.3924 3.30532 17.5877 3.35337 17.7104 3.39751C17.8334 3.44243 17.9729 3.47837 18.0209 3.47837C18.0689 3.47837 18.1682 3.50513 18.2406 3.53872C18.3139 3.57153 18.4688 3.62642 18.5855 3.66079C18.7016 3.69595 18.9006 3.76528 19.0289 3.81646C19.1562 3.86743 19.3271 3.93462 19.4088 3.96509C19.5592 4.02173 20.6705 4.57778 20.8217 4.67251C22.0484 5.43755 22.6795 5.93735 23.5279 6.81392C24.551 7.87134 25.2301 8.87837 25.9213 10.3608C25.9701 10.4655 26.0447 10.6204 26.0875 10.7042C26.1295 10.7889 26.1646 10.8881 26.1646 10.9249C26.1646 10.962 26.1998 11.0733 26.2432 11.1727C26.3607 11.4428 26.4613 11.7502 26.5088 11.9852C26.5322 12.1004 26.5758 12.243 26.6055 12.3018C26.6354 12.3604 26.6703 12.5094 26.6842 12.6315C26.6979 12.7534 26.7383 12.9534 26.7727 13.0747C26.9719 13.7643 27.0709 15.7961 26.9504 16.6948C26.9146 16.9618 26.8742 17.2846 26.8605 17.412C26.8375 17.6301 26.7223 18.194 26.6238 18.5731L26.5223 18.9745C26.3309 19.7473 25.8578 20.8483 25.2803 21.8668C25.0514 22.2711 24.284 23.3645 24.1391 23.4926C24.126 23.504 24.0611 23.5805 23.9955 23.6612C23.9299 23.7428 23.7193 23.9709 23.5287 24.1678C22.6887 25.0352 22.0111 25.5715 20.8217 26.3102C20.6807 26.3979 19.4844 26.9823 19.2607 27.0731C19.1447 27.1196 18.951 27.1981 18.8305 27.2469C18.7107 27.2952 18.5771 27.3356 18.5352 27.3364C18.4932 27.337 18.3826 27.3745 18.2895 27.4194C18.1965 27.4643 18.0781 27.5018 18.0256 27.5026C17.9736 27.5034 17.8219 27.5401 17.6883 27.5842C17.5549 27.6292 17.3693 27.6774 17.2762 27.6917C17.1832 27.7063 16.9842 27.7459 16.833 27.7795C16.682 27.8131 16.2256 27.8788 15.8199 27.9252C14.915 28.0308 14.0007 28.0288 13.0963 27.9192ZM14.0148 25.4778C14.0734 25.4321 14.1338 25.3411 14.1498 25.2772C14.185 25.136 19.8596 13.7596 19.9664 13.617C20.0564 13.4965 20.0648 13.3036 19.9824 13.2356C19.9391 13.1991 19.3957 13.1875 17.9453 13.1899C16.8574 13.1922 15.9428 13.193 15.9129 13.1922C15.8688 13.1907 15.8596 12.4637 15.8641 9.35005C15.8672 7.23735 15.8572 5.4895 15.842 5.46528C15.8268 5.44067 15.7672 5.42095 15.7092 5.42095C15.6275 5.42095 15.5895 5.4561 15.5393 5.57876C15.4445 5.80688 15.1828 6.32485 13.9088 8.79849C13.6442 9.31183 13.3802 9.8255 13.1168 10.3395C12.891 10.7813 12.5348 11.4749 12.3264 11.8805C11.7654 12.971 11.2057 14.0621 10.6471 15.1538C9.68359 17.0358 9.56699 17.2602 9.52559 17.3098C9.44551 17.4067 9.40195 17.6301 9.44707 17.7141C9.48809 17.7911 9.56992 17.7942 11.6039 17.7911C12.7666 17.7897 13.7256 17.7958 13.7355 17.8047C13.7623 17.8323 13.7523 25.0918 13.7248 25.2649C13.7066 25.3786 13.7188 25.4387 13.7707 25.4907C13.8605 25.5807 13.8852 25.5799 14.0148 25.4778Z" fill="#049688"/>
</g>
<defs>
<clipPath id="clip0_2024_15556">
<rect width="25" height="25" fill="white" transform="translate(2 3)"/>
</clipPath>
</defs>
</svg>
