<?xml version="1.0" encoding="UTF-8"?>
<svg xmlns="http://www.w3.org/2000/svg" width="32" height="32" viewBox="0 0 32 32" fill="none">
  <g clip-path="url(#clip0_3950_282)">
    <path d="M20.848 15.2723L19.0541 14.642C18.9086 14.1572 18.7147 13.6723 18.4238 13.1875L19.248 11.4905C19.345 11.2966 19.2965 11.0541 19.151 10.9572L17.0662 8.87231C16.9207 8.72685 16.6783 8.67837 16.5329 8.77534L14.8359 9.59958C14.351 9.35716 13.8662 9.16322 13.3813 8.96928L12.751 7.17534C12.7026 6.9814 12.5086 6.83594 12.3147 6.83594H9.3571C9.16316 6.83594 8.96922 6.9814 8.87225 7.17534L8.24195 8.96928C7.7571 9.11473 7.27225 9.30867 6.78741 9.59958L5.13892 8.72685C4.94498 8.62988 4.75104 8.67837 4.5571 8.82382L2.47225 10.9087C2.3268 11.0541 2.27831 11.2966 2.37528 11.442L3.19953 13.139C2.9571 13.6238 2.76316 14.1087 2.61771 14.5935L0.823769 15.2238C0.62983 15.3208 0.484375 15.5147 0.484375 15.7087V18.6662C0.484375 18.8602 0.62983 19.0541 0.823769 19.1511L2.61771 19.7814C2.76316 20.2662 2.9571 20.7511 3.24801 21.2359L2.42377 22.9329C2.3268 23.1269 2.37528 23.3693 2.52074 23.5147L4.60559 25.5996C4.75104 25.745 4.99347 25.7935 5.18741 25.6966L6.88438 24.8723C7.36922 25.1147 7.85407 25.3087 8.33892 25.5026L8.96922 27.2966C9.01771 27.4905 9.21165 27.6359 9.40559 27.6359H12.3632C12.5571 27.6359 12.751 27.4905 12.7995 27.2966L13.4298 25.5026C13.9147 25.3572 14.3995 25.1632 14.8844 24.8723L16.5813 25.6966C16.7753 25.7935 16.9692 25.745 17.1147 25.5996L19.1995 23.5147C19.345 23.3693 19.3935 23.1269 19.2965 22.9329L18.4238 21.1875C18.6662 20.7026 18.8601 20.2178 19.0541 19.7329L20.848 19.1026C21.042 19.0541 21.1874 18.8602 21.1874 18.6178V15.6602C21.1874 15.5147 21.042 15.3208 20.848 15.2723ZM10.8116 21.3329C8.53286 21.3329 6.69044 19.4905 6.69044 17.2117C6.69044 14.9329 8.53286 13.0905 10.8116 13.0905C13.0904 13.0905 14.9329 14.9329 14.9329 17.2117C14.9329 19.442 13.0904 21.3329 10.8116 21.3329ZM31.1753 5.62382L30.2056 5.28443C30.1086 5.042 30.0116 4.79958 29.9147 4.60564L30.351 3.68443C30.448 3.49049 30.3995 3.29655 30.2541 3.10261L29.0904 1.89049C28.945 1.74503 28.7026 1.69655 28.5571 1.79352L27.6359 2.22988C27.3935 2.13291 27.1995 2.03594 26.9571 1.93897L26.6177 0.969277C26.5692 0.775337 26.3753 0.629883 26.1813 0.629883H24.4359C24.242 0.629883 24.048 0.775337 23.951 0.969277L23.6116 1.93897C23.3692 2.03594 23.1268 2.13291 22.9329 2.22988L22.0116 1.79352C21.8177 1.69655 21.5753 1.74503 21.4298 1.89049L20.2177 3.10261C20.0723 3.24806 20.0238 3.49049 20.1207 3.68443L20.5571 4.60564C20.4601 4.84806 20.3632 5.042 20.2662 5.28443L19.2965 5.62382C19.1026 5.67231 18.9571 5.86625 18.9571 6.06019V7.80564C18.9571 7.99958 19.1026 8.19352 19.2965 8.242L20.2662 8.5814L20.5571 9.30867L20.1207 10.1814C20.0238 10.3753 20.0723 10.6178 20.2177 10.7632L21.4298 11.9753C21.5753 12.1208 21.8177 12.1693 22.0116 12.0723L22.9329 11.6359C23.1753 11.7329 23.4177 11.8299 23.6116 11.9269L23.951 12.8966C23.9995 13.0905 24.1935 13.2359 24.4359 13.2359H26.1813C26.3753 13.2359 26.5692 13.0905 26.6177 12.8966L26.9571 11.9269C27.1995 11.8299 27.442 11.7329 27.6359 11.6359L28.5571 12.0723C28.751 12.1693 28.945 12.1208 29.1389 11.9753L30.351 10.7632C30.4965 10.6178 30.545 10.3753 30.448 10.1814L30.0117 9.26019L30.3026 8.53291L31.2723 8.19352C31.4662 8.14503 31.6116 7.9511 31.6116 7.75716V6.0117C31.5147 5.86625 31.3692 5.67231 31.1753 5.62382ZM25.2601 9.35716C23.9026 9.35716 22.8359 8.29049 22.8359 6.93291C22.8359 5.62382 23.9026 4.50867 25.2601 4.50867C26.5692 4.50867 27.6844 5.57534 27.6844 6.93291C27.6844 8.29049 26.5692 9.35716 25.2601 9.35716Z" fill="white"></path>
    <path d="M31.175 21.4299L29.8174 20.945C29.7204 20.5571 29.575 20.2178 29.381 19.8784L30.0113 18.5693C30.1083 18.3753 30.0598 18.1814 29.9143 18.0359L28.2659 16.3875C28.1204 16.242 27.878 16.1935 27.684 16.2905L26.4234 16.9693C26.084 16.7753 25.6962 16.6299 25.3568 16.5329L24.9204 15.1753C24.8719 14.9814 24.678 14.8359 24.4356 14.8359H22.1083C22.0113 14.8359 21.9628 14.8359 21.8659 14.8844C22.0113 15.1268 22.1083 15.4178 22.1083 15.7087V18.6662C22.1083 19.2965 21.7204 19.8299 21.1386 20.0238L19.781 20.5087C19.684 20.7511 19.5871 20.9935 19.4901 21.1875L20.1204 22.4481C20.4113 23.0299 20.3143 23.6602 19.8295 24.145L17.7446 26.2299C17.5022 26.4723 17.2113 26.6178 16.9204 26.6662L16.484 27.539C16.3871 27.7329 16.4356 27.9268 16.581 28.0723L18.2295 29.7208C18.375 29.8662 18.6174 29.9147 18.8113 29.8178L20.1204 29.1875C20.4598 29.3814 20.8477 29.5268 21.1871 29.6238L21.6719 30.9814C21.7204 31.1753 21.9143 31.3208 22.1568 31.3208H24.484C24.678 31.3208 24.8719 31.1753 24.9689 30.9814L25.4053 29.6238C25.7931 29.4784 26.1325 29.3329 26.4719 29.1875L27.781 29.8178C27.975 29.9147 28.1689 29.8662 28.3628 29.7208L30.0113 28.0723C30.1568 27.9268 30.2053 27.6844 30.1083 27.539L29.478 26.2299C29.6719 25.8905 29.8174 25.5026 29.9143 25.1632L31.2719 24.6784C31.4659 24.6299 31.6113 24.4359 31.6113 24.1935V21.8662C31.5143 21.6723 31.3689 21.5268 31.175 21.4299ZM23.7568 26.3268C23.3302 26.3268 22.9078 26.2428 22.5136 26.0796C22.1195 25.9163 21.7614 25.677 21.4597 25.3754C21.1581 25.0737 20.9188 24.7156 20.7556 24.3215C20.5923 23.9274 20.5083 23.505 20.5083 23.0784C20.5083 22.6518 20.5923 22.2293 20.7556 21.8352C20.9188 21.4411 21.1581 21.083 21.4597 20.7813C21.7614 20.4797 22.1195 20.2404 22.5136 20.0772C22.9078 19.9139 23.3302 19.8299 23.7568 19.8299C24.6183 19.8299 25.4446 20.1721 26.0538 20.7813C26.663 21.3905 27.0053 22.2168 27.0053 23.0784C27.0053 23.9399 26.663 24.7662 26.0538 25.3754C25.4446 25.9846 24.6183 26.3268 23.7568 26.3268Z" fill="white"></path>
  </g>
  <defs>
    <clipPath id="clip0_3950_282">
      <rect width="32" height="32" fill="white"></rect>
    </clipPath>
  </defs>
</svg>
