<svg width="30" height="30" viewBox="0 0 30 30" fill="none" xmlns="http://www.w3.org/2000/svg">
<path fill-rule="evenodd" clip-rule="evenodd" d="M15.5 27.9998C8.625 27.9998 3 22.3748 3 15.4373C3.0625 8.56228 8.625 2.93728 15.5625 2.99978C22.4375 3.06228 28 8.62478 28 15.6248C27.9375 22.4373 22.375 27.9998 15.5 27.9998Z" fill="#0090FF"/>
<path fill-rule="evenodd" clip-rule="evenodd" d="M16.6875 13.9999L16.3125 15.9999L19.875 16.4999L19.625 17.4374L16.125 16.9374C15.875 17.7499 15.75 18.6249 15.4375 19.3749C15.125 20.2499 14.8125 21.1249 14.4375 21.9374C13.9375 22.9999 13.0625 23.7499 11.875 23.9374C11.1875 24.0624 10.4375 23.9999 9.875 23.5624C9.6875 23.4374 9.5 23.1874 9.5 22.9999C9.5 22.7499 9.625 22.4374 9.8125 22.3124C9.9375 22.2499 10.25 22.3124 10.4375 22.3749C10.625 22.5624 10.8125 22.8124 10.9375 23.0624C11.3125 23.5624 11.8125 23.6249 12.3125 23.2499C12.875 22.7499 13.1875 22.0624 13.375 21.3749C13.75 19.8749 14.125 18.4374 14.4375 16.9374V16.6874L11.125 16.1874L11.25 15.2499L14.6875 15.7499L15.125 13.8124L11.5625 13.2499L11.6875 12.2499L15.375 12.7499C15.5 12.3749 15.5625 12.0624 15.6875 11.7499C16 10.6249 16.3125 9.4999 17.0625 8.4999C17.8125 7.4999 18.6875 6.8749 20 6.9374C20.5625 6.9374 21.125 7.1249 21.5 7.5624C21.5625 7.6249 21.6875 7.7499 21.6875 7.8749C21.6875 8.1249 21.6875 8.4374 21.5 8.6249C21.25 8.8124 20.9375 8.7499 20.6875 8.4999C20.5 8.3124 20.375 8.1249 20.1875 7.9374C19.8125 7.4374 19.25 7.3749 18.8125 7.8124C18.5 8.1249 18.1875 8.5624 18 8.9999C17.5625 10.3124 17.25 11.6874 16.8125 13.0624L20.25 13.5624L20 14.4999L16.6875 13.9999Z" fill="white"/>
</svg>
