<?xml version="1.0" encoding="UTF-8"?>
<svg xmlns="http://www.w3.org/2000/svg" width="26" height="26" viewBox="0 0 26 26" fill="none">
  <path d="M12.7982 7.46875C9.85951 7.46875 7.46484 9.86342 7.46484 12.8021C7.46484 15.7408 9.85951 18.1354 12.7982 18.1354C15.7368 18.1354 18.1315 15.7408 18.1315 12.8021C18.1315 9.86342 15.7368 7.46875 12.7982 7.46875ZM13.3315 15.3728V15.6927C13.3315 15.9861 13.0915 16.2261 12.7982 16.2261C12.5048 16.2261 12.2648 15.9861 12.2648 15.6927V15.3621C11.9128 15.2394 11.6035 14.9994 11.4115 14.6688C11.3418 14.5463 11.3235 14.4013 11.3605 14.2654C11.3974 14.1294 11.4867 14.0137 11.6088 13.9434C11.6689 13.9078 11.7355 13.8846 11.8047 13.875C11.8738 13.8654 11.9442 13.8696 12.0117 13.8875C12.0792 13.9054 12.1425 13.9365 12.1979 13.9791C12.2532 14.0216 12.2996 14.0748 12.3342 14.1354C12.3935 14.2365 12.4843 14.3154 12.5927 14.3599C12.7011 14.4044 12.8212 14.4121 12.9344 14.3818C13.0476 14.3515 13.1478 14.285 13.2195 14.1923C13.2912 14.0996 13.3306 13.9859 13.3315 13.8688C13.3315 13.5754 13.0915 13.3354 12.7982 13.3354C11.9182 13.3354 11.1982 12.6154 11.1982 11.7354C11.1982 11.0421 11.6462 10.4554 12.2648 10.2314V9.91142C12.2648 9.61808 12.5048 9.37808 12.7982 9.37808C13.0915 9.37808 13.3315 9.61808 13.3315 9.91142V10.2421C13.6835 10.3648 13.9928 10.6048 14.1848 10.9354C14.3288 11.1914 14.2435 11.5168 13.9875 11.6608C13.9275 11.6965 13.8609 11.7199 13.7917 11.7295C13.7225 11.7392 13.6521 11.735 13.5845 11.7171C13.517 11.6992 13.4537 11.668 13.3983 11.6254C13.343 11.5828 13.2967 11.5295 13.2622 11.4688C13.2029 11.3677 13.1121 11.2888 13.0036 11.2443C12.8952 11.1998 12.7752 11.1921 12.662 11.2224C12.5488 11.2526 12.4486 11.3192 12.3769 11.4119C12.3051 11.5046 12.2658 11.6182 12.2648 11.7354C12.2648 12.0288 12.5048 12.2688 12.7982 12.2688C13.6782 12.2688 14.3982 12.9888 14.3982 13.8688C14.3982 14.5621 13.9502 15.1488 13.3315 15.3728Z" fill="#9810FA"></path>
  <path d="M25.2427 10.688L22.736 9.79733L21.9467 7.89867L23.0933 5.49333C23.1893 5.29067 23.1467 5.04533 22.9867 4.88533L20.7147 2.61333C20.5547 2.45333 20.3147 2.41067 20.1067 2.50667L17.7013 3.65333L15.8027 2.864L14.912 0.357333C14.832 0.144 14.6347 0 14.4053 0H11.1947C10.9653 0 10.768 0.144 10.688 0.357333L9.79733 2.864L7.89867 3.65333L5.49333 2.50667C5.28533 2.41067 5.04533 2.45333 4.88533 2.61333L2.61333 4.88533C2.45333 5.04533 2.41067 5.29067 2.50667 5.49333L3.65333 7.89867L2.864 9.79733L0.357333 10.688C0.144 10.768 0 10.9653 0 11.1947V14.4053C0 14.6347 0.144 14.832 0.357333 14.912L2.864 15.8027L3.65333 17.7013L2.50667 20.1067C2.41067 20.3093 2.45333 20.5547 2.61333 20.7147L4.88533 22.9867C5.04533 23.1467 5.28533 23.1893 5.49333 23.0933L7.89867 21.9467L9.79733 22.736L10.688 25.2427C10.768 25.456 10.9653 25.6 11.1947 25.6H14.4053C14.6347 25.6 14.832 25.456 14.912 25.2427L15.8027 22.736L17.7013 21.9467L20.1067 23.0933C20.3147 23.1893 20.5547 23.1467 20.7147 22.9867L22.9867 20.7147C23.1467 20.5547 23.1893 20.3093 23.0933 20.1067L21.9467 17.7013L22.736 15.8027L25.2427 14.912C25.456 14.832 25.6 14.6347 25.6 14.4053V11.1947C25.6 10.9653 25.456 10.768 25.2427 10.688ZM12.8 20.8C8.38933 20.8 4.8 17.2107 4.8 12.8C4.8 8.38933 8.38933 4.8 12.8 4.8C17.2107 4.8 20.8 8.38933 20.8 12.8C20.8 17.2107 17.2107 20.8 12.8 20.8Z" fill="#9810FA"></path>
</svg>
