<?xml version="1.0" encoding="UTF-8"?>
<svg xmlns="http://www.w3.org/2000/svg" width="30" height="29" viewBox="0 0 30 29" fill="none">
  <path fill-rule="evenodd" clip-rule="evenodd" d="M19.3671 2.20006C20.5391 2.47924 21.6591 2.94355 22.6848 3.5755L24.8408 2.618L27.3817 5.15894L26.4245 7.31419C27.0566 8.34018 27.521 9.46047 27.8002 10.6328L29.9997 11.4794V15.0728L27.7997 15.9196C27.5205 17.0916 27.0562 18.2116 26.4243 19.2374L27.3818 21.3933L24.8408 23.9342L22.6857 22.977C21.6597 23.6092 20.5394 24.0736 19.367 24.3527L18.5204 26.5522H17.226C16.2696 23.7304 14.0295 21.5506 11.2498 20.6335C11.5033 20.4614 11.7414 20.2676 11.9614 20.0543C13.3086 21.0026 14.951 21.5597 16.7237 21.5597C21.2987 21.5597 25.0073 17.8511 25.0073 13.2761C25.0073 8.70119 21.2987 4.9925 16.7237 4.9925C12.9257 4.9925 9.72491 7.54869 8.74728 11.0345C6.47322 10.8428 4.33491 12.1294 3.44766 14.2376V11.4795L5.64753 10.6327C5.92668 9.46057 6.39104 8.34049 7.0231 7.31469L6.06566 5.159L8.6066 2.618L10.7625 3.5755C11.7882 2.94355 12.9082 2.47924 14.0802 2.20006L14.9271 0H18.5204L19.3671 2.20006ZM7.69822 21.1624L6.29466 25.5755C6.26028 25.6836 6.28347 25.7932 6.35866 25.8781L8.15841 27.9102C8.17604 27.9301 8.19771 27.9461 8.22196 27.957C8.24622 27.9679 8.27252 27.9736 8.29913 27.9736C8.32573 27.9736 8.35203 27.9679 8.37629 27.957C8.40055 27.9461 8.42221 27.9301 8.43985 27.9102L10.2395 25.8781C10.3148 25.7932 10.338 25.6836 10.3036 25.5755L8.90003 21.1624H7.69822ZM8.29916 12.0178C5.94697 12.0178 4.0401 13.9247 4.0401 16.2769C4.0401 18.6291 5.94697 20.5359 8.29916 20.5359C10.6513 20.5359 12.5582 18.6291 12.5582 16.2769C12.5582 13.9247 10.6513 12.0178 8.29916 12.0178ZM0.501659 28.6798L7.51297 28.6798C7.4761 28.6473 7.44097 28.6122 7.40785 28.5749L5.60816 26.5429C5.29891 26.1937 5.19791 25.7162 5.33928 25.2717L6.59103 21.3358C3.23903 22.0262 0.614534 24.7081 0.0082217 28.0901C-0.00504499 28.1623 -0.00222849 28.2365 0.0164705 28.3075C0.0351695 28.3785 0.0692912 28.4445 0.116407 28.5008C0.163522 28.5572 0.222472 28.6024 0.28906 28.6333C0.355649 28.6643 0.428237 28.6801 0.501659 28.6798ZM9.08522 28.6798H16.0965C16.17 28.6801 16.2425 28.6642 16.3091 28.6333C16.3757 28.6024 16.4347 28.5571 16.4818 28.5008C16.5289 28.4445 16.563 28.3785 16.5817 28.3075C16.6004 28.2365 16.6032 28.1623 16.5899 28.0901C15.9836 24.7081 13.359 22.0263 10.0071 21.3359L11.2589 25.2717C11.4003 25.7162 11.2992 26.1937 10.99 26.5429L9.19028 28.5749C9.15747 28.612 9.12238 28.647 9.08522 28.6798ZM16.7236 7.29C13.9538 7.29 11.6238 9.17131 10.9407 11.7257C12.5073 12.6371 13.5607 14.3339 13.5607 16.2769C13.5613 16.9107 13.4472 17.5395 13.2237 18.1326C14.208 18.8432 15.4168 19.2622 16.7236 19.2622C20.0297 19.2622 22.7097 16.5822 22.7097 13.2761C22.7097 9.97006 20.0297 7.29 16.7236 7.29ZM17.2248 16.6821V17.0641C17.2248 17.1971 17.172 17.3246 17.078 17.4186C16.984 17.5126 16.8565 17.5654 16.7236 17.5654C16.5907 17.5654 16.4632 17.5126 16.3692 17.4186C16.2752 17.3246 16.2223 17.1971 16.2223 17.0641V16.6726C15.3102 16.5122 14.5485 15.9319 14.3176 15.0058C14.288 14.8778 14.31 14.7432 14.3789 14.6313C14.4477 14.5194 14.5578 14.439 14.6854 14.4076C14.813 14.3762 14.9478 14.3963 15.0608 14.4636C15.1737 14.5308 15.2556 14.6397 15.2888 14.7669C15.4568 15.4407 16.147 15.7334 16.79 15.7181C17.3148 15.7056 18.1597 15.4756 18.1442 14.8266C18.1266 14.0623 17.2552 13.8475 16.6488 13.7479C15.606 13.5767 14.5618 13.0923 14.5036 11.8916C14.4523 10.8366 15.2399 10.0842 16.2217 9.88656L16.2223 9.88644V9.48806C16.2223 9.35512 16.2752 9.22763 16.3692 9.13363C16.4632 9.03962 16.5907 8.98681 16.7236 8.98681C16.8565 8.98681 16.984 9.03962 17.078 9.13363C17.172 9.22763 17.2248 9.35512 17.2248 9.48806V9.87894C17.2743 9.88831 17.3235 9.89913 17.3723 9.9115C18.0323 10.0788 18.6327 10.5127 18.948 11.2638C18.9981 11.386 18.9977 11.5231 18.9472 11.6452C18.8966 11.7673 18.7999 11.8644 18.6781 11.9156C18.5562 11.9667 18.4191 11.9676 18.2966 11.9181C18.1741 11.8687 18.076 11.7728 18.0238 11.6514C17.753 11.0063 17.0778 10.7326 16.4175 10.8656C15.9278 10.9642 15.4756 11.2971 15.5022 11.8446C15.5333 12.4851 16.2917 12.6761 16.8093 12.7611C17.9633 12.9506 19.111 13.4648 19.1428 14.8031C19.1693 15.9145 18.2179 16.5311 17.2248 16.6821Z" fill="#FF9329"></path>
</svg>
