<?xml version="1.0" encoding="UTF-8"?>
<svg xmlns="http://www.w3.org/2000/svg" width="20" height="20" viewBox="0 0 20 20" fill="none">
  <g clip-path="url(#clip0_3134_774)">
    <path d="M1.00047 10.6663C1.1318 10.6665 1.26189 10.6408 1.38327 10.5907C1.50465 10.5405 1.61493 10.4669 1.7078 10.374L3.3338 8.751L4.1548 9.57267C4.30958 9.72758 4.49337 9.85047 4.69567 9.93432C4.89797 10.0182 5.11481 10.0613 5.3338 10.0613C5.55279 10.0613 5.76963 10.0182 5.97192 9.93432C6.17422 9.85047 6.35802 9.72758 6.5128 9.57267L11.4035 4.68034L12.8908 6.16834C13.2037 6.48073 13.6278 6.65618 14.07 6.65618C14.5121 6.65618 14.9362 6.48073 15.2491 6.16834L18.2265 3.187L18.4738 3.43434C18.5817 3.5421 18.7182 3.61665 18.8671 3.64916C19.0161 3.68167 19.1713 3.67076 19.3142 3.61774C19.4572 3.56472 19.5819 3.47181 19.6737 3.35003C19.7654 3.22825 19.8203 3.08271 19.8318 2.93067L19.9985 0.783671V0.780338C20.0056 0.676298 19.9904 0.571935 19.9538 0.47427C19.9173 0.376605 19.8602 0.287903 19.7865 0.214131C19.7128 0.140359 19.6241 0.0832276 19.5265 0.0465805C19.4289 0.00993337 19.3245 -0.0053797 19.2205 0.00167138L17.0715 0.168338C16.9195 0.179207 16.7739 0.233552 16.6519 0.324894C16.53 0.416236 16.4369 0.540721 16.3837 0.683506C16.3306 0.826291 16.3196 0.981351 16.3521 1.1302C16.3846 1.27905 16.4593 1.4154 16.5671 1.523L16.8145 1.771L14.0695 4.51734L12.5825 3.02934C12.4277 2.87443 12.2439 2.75154 12.0416 2.66769C11.8393 2.58385 11.6225 2.54069 11.4035 2.54069C11.1845 2.54069 10.9676 2.58385 10.7653 2.66769C10.563 2.75154 10.3792 2.87443 10.2245 3.02934L5.3338 7.922L4.51347 7.09967C4.20059 6.7872 3.77649 6.61169 3.3343 6.61169C2.89211 6.61169 2.46801 6.7872 2.15513 7.09967L0.296799 8.963C0.157145 9.10235 0.0619555 9.27998 0.0232698 9.47343C-0.015416 9.66688 0.00414049 9.86746 0.0794654 10.0498C0.15479 10.2321 0.2825 10.388 0.446439 10.4978C0.610379 10.6075 0.803184 10.6662 1.00047 10.6663ZM0.767132 9.433L2.6268 7.56934C2.71967 7.47636 2.82996 7.4026 2.95136 7.35228C3.07276 7.30195 3.20288 7.27605 3.3343 7.27605C3.46571 7.27605 3.59584 7.30195 3.71724 7.35228C3.83864 7.4026 3.94893 7.47636 4.0418 7.56934L5.09813 8.62634C5.12909 8.65733 5.16585 8.68192 5.20632 8.69869C5.24679 8.71547 5.29016 8.7241 5.33397 8.7241C5.37777 8.7241 5.42115 8.71547 5.46161 8.69869C5.50208 8.68192 5.53884 8.65733 5.5698 8.62634L10.6958 3.49967C10.8864 3.31755 11.1399 3.21592 11.4035 3.21592C11.6671 3.21592 11.9205 3.31755 12.1111 3.49967L13.5985 4.98767C13.7255 5.10897 13.8943 5.17666 14.07 5.17666C14.2456 5.17666 14.4145 5.10897 14.5415 4.98767L17.5218 2.00567C17.5842 1.94318 17.6192 1.85848 17.6192 1.77017C17.6192 1.68186 17.5842 1.59717 17.5218 1.53467L17.0375 1.05034C17.0196 1.03374 17.0072 1.01207 17.002 0.988225C16.9968 0.964385 16.9991 0.939529 17.0085 0.917005C17.0167 0.893057 17.0319 0.872139 17.0522 0.856977C17.0725 0.841816 17.0968 0.833113 17.1221 0.832005L19.2698 0.666338C19.2865 0.665671 19.3031 0.672005 19.3145 0.684338C19.3278 0.697005 19.3345 0.714671 19.3338 0.733005L19.1671 2.87967C19.1653 2.90457 19.1565 2.92844 19.1415 2.94843C19.1265 2.96842 19.1062 2.98369 19.0828 2.99243C19.0594 3.00117 19.034 3.00302 19.0096 2.99774C18.9852 2.99247 18.9628 2.98029 18.9451 2.96267L18.4621 2.479C18.3984 2.41876 18.314 2.38519 18.2263 2.38519C18.1386 2.38519 18.0542 2.41876 17.9905 2.479L14.7775 5.69667C14.5867 5.87831 14.3334 5.97962 14.07 5.97962C13.8066 5.97962 13.5532 5.87831 13.3625 5.69667L11.8751 4.20867C11.8134 4.14648 11.7399 4.09717 11.6589 4.06358C11.5779 4.02999 11.4911 4.0128 11.4035 4.013C11.2268 4.013 11.0571 4.083 10.9325 4.20834L6.0418 9.10134C5.85117 9.28338 5.59772 9.38496 5.33413 9.38496C5.07054 9.38496 4.81709 9.28338 4.62647 9.10134L3.80547 8.27967C3.68046 8.15479 3.51099 8.08465 3.3343 8.08465C3.1576 8.08465 2.98814 8.15479 2.86313 8.27967L1.23547 9.90467C1.17268 9.96611 1.08832 10.0005 1.00047 10.0005C0.912614 10.0005 0.828256 9.96611 0.765466 9.90467C0.734258 9.87435 0.709451 9.83808 0.692511 9.798C0.67557 9.75792 0.666842 9.71485 0.666842 9.67134C0.666842 9.62783 0.67557 9.58476 0.692511 9.54468C0.709451 9.5046 0.734258 9.46833 0.765466 9.438L0.767132 9.433ZM13.3338 12.6663C13.3349 12.0974 13.1903 11.5377 12.9139 11.0405C12.6375 10.5433 12.2384 10.1251 11.7547 9.8257C11.2709 9.52631 10.7186 9.35572 10.1503 9.33015C9.58197 9.30458 9.01657 9.42489 8.50789 9.67962C7.99922 9.93436 7.56421 10.315 7.24426 10.7854C6.92431 11.2558 6.73008 11.8003 6.68005 12.367C6.63002 12.9337 6.72586 13.5037 6.95845 14.0229C7.19103 14.5421 7.55262 14.9931 8.0088 15.333H8.00047C7.80706 15.3321 7.61759 15.3876 7.4552 15.4927C7.29281 15.5978 7.16454 15.7479 7.08606 15.9246C7.00757 16.1014 6.98227 16.2972 7.01324 16.4881C7.04422 16.679 7.13012 16.8568 7.26047 16.9997C7.09326 17.1814 7.00045 17.4194 7.00045 17.6663C7.00045 17.9133 7.09326 18.1513 7.26047 18.333C7.13012 18.4759 7.04422 18.6537 7.01324 18.8446C6.98227 19.0355 7.00757 19.2313 7.08606 19.4081C7.16454 19.5848 7.29281 19.7349 7.4552 19.84C7.61759 19.945 7.80706 20.0005 8.00047 19.9997H12.0005C12.1939 20.0005 12.3833 19.945 12.5457 19.84C12.7081 19.7349 12.8364 19.5848 12.9149 19.4081C12.9934 19.2313 13.0187 19.0355 12.9877 18.8446C12.9567 18.6537 12.8708 18.4759 12.7405 18.333C12.9077 18.1513 13.0005 17.9133 13.0005 17.6663C13.0005 17.4194 12.9077 17.1814 12.7405 16.9997C12.8708 16.8568 12.9567 16.679 12.9877 16.4881C13.0187 16.2972 12.9934 16.1014 12.9149 15.9246C12.8364 15.7479 12.7081 15.5978 12.5457 15.4927C12.3833 15.3876 12.1939 15.3321 12.0005 15.333H11.9921C12.408 15.0237 12.7459 14.6216 12.9788 14.1586C13.2117 13.6956 13.3333 13.1846 13.3338 12.6663ZM12.3338 17.6663C12.3338 17.7547 12.2987 17.8395 12.2362 17.902C12.1737 17.9646 12.0889 17.9997 12.0005 17.9997H8.00047C7.91206 17.9997 7.82728 17.9646 7.76476 17.902C7.70225 17.8395 7.66713 17.7547 7.66713 17.6663C7.66713 17.5779 7.70225 17.4931 7.76476 17.4306C7.82728 17.3681 7.91206 17.333 8.00047 17.333H12.0005C12.0889 17.333 12.1737 17.3681 12.2362 17.4306C12.2987 17.4931 12.3338 17.5779 12.3338 17.6663ZM12.0005 19.333H8.00047C7.91206 19.333 7.82728 19.2979 7.76476 19.2354C7.70225 19.1729 7.66713 19.0881 7.66713 18.9997C7.66713 18.9113 7.70225 18.8265 7.76476 18.764C7.82728 18.7015 7.91206 18.6663 8.00047 18.6663H12.0005C12.0889 18.6663 12.1737 18.7015 12.2362 18.764C12.2987 18.8265 12.3338 18.9113 12.3338 18.9997C12.3338 19.0881 12.2987 19.1729 12.2362 19.2354C12.1737 19.2979 12.0889 19.333 12.0005 19.333ZM12.0005 15.9997C12.0889 15.9997 12.1737 16.0348 12.2362 16.0973C12.2987 16.1598 12.3338 16.2446 12.3338 16.333C12.3338 16.4214 12.2987 16.5062 12.2362 16.5687C12.1737 16.6312 12.0889 16.6663 12.0005 16.6663H8.00047C7.91206 16.6663 7.82728 16.6312 7.76476 16.5687C7.70225 16.5062 7.66713 16.4214 7.66713 16.333C7.66713 16.2446 7.70225 16.1598 7.76476 16.0973C7.82728 16.0348 7.91206 15.9997 8.00047 15.9997H12.0005ZM7.3338 12.6663C7.3338 12.1389 7.4902 11.6233 7.78321 11.1848C8.07623 10.7463 8.49271 10.4045 8.97998 10.2027C9.46725 10.0008 10.0034 9.94802 10.5207 10.0509C11.038 10.1538 11.5131 10.4078 11.8861 10.7807C12.259 11.1537 12.513 11.6288 12.6159 12.1461C12.7188 12.6634 12.666 13.1996 12.4641 13.6868C12.2623 14.1741 11.9205 14.5906 11.482 14.8836C11.0435 15.1766 10.5279 15.333 10.0005 15.333C9.29347 15.3322 8.61565 15.051 8.11573 14.5511C7.6158 14.0512 7.33459 13.3733 7.3338 12.6663Z" fill="white"></path>
    <path fill-rule="evenodd" clip-rule="evenodd" d="M9.99956 12.3327C9.94106 12.3326 9.88361 12.3172 9.83297 12.2879C9.78234 12.2586 9.7403 12.2165 9.71109 12.1658C9.68188 12.1151 9.66652 12.0576 9.66655 11.9991C9.66659 11.9406 9.68202 11.8832 9.71129 11.8325C9.74056 11.7819 9.78265 11.7398 9.83332 11.7106C9.88399 11.6814 9.94147 11.666 9.99997 11.666C10.0585 11.666 10.1159 11.6814 10.1666 11.7107C10.2172 11.74 10.2593 11.782 10.2886 11.8327C10.3097 11.872 10.3385 11.9066 10.3733 11.9346C10.4081 11.9625 10.4481 11.9832 10.4911 11.9954C10.534 12.0076 10.5789 12.011 10.6232 12.0055C10.6675 12 10.7102 11.9857 10.7488 11.9634C10.7875 11.941 10.8212 11.9112 10.8481 11.8756C10.875 11.84 10.8945 11.7993 10.9054 11.756C10.9162 11.7128 10.9183 11.6678 10.9115 11.6237C10.9047 11.5796 10.889 11.5373 10.8656 11.4993C10.7447 11.2966 10.556 11.1431 10.3329 11.066V10.9993C10.3329 10.9109 10.2978 10.8262 10.2353 10.7636C10.1727 10.7011 10.088 10.666 9.99956 10.666C9.91115 10.666 9.82637 10.7011 9.76386 10.7636C9.70134 10.8262 9.66623 10.9109 9.66623 10.9993V11.0607C9.444 11.139 9.25664 11.2934 9.13735 11.4965C9.01805 11.6997 8.97451 11.9385 9.01443 12.1707C9.05435 12.4029 9.17517 12.6135 9.35548 12.7652C9.53579 12.9168 9.76395 12.9998 9.99956 12.9993C10.0581 12.9994 10.1155 13.0149 10.1661 13.0441C10.2168 13.0734 10.2588 13.1155 10.288 13.1662C10.3172 13.2169 10.3326 13.2744 10.3326 13.3329C10.3325 13.3914 10.3171 13.4488 10.2878 13.4995C10.2586 13.5501 10.2165 13.5922 10.1658 13.6214C10.1151 13.6506 10.0577 13.666 9.99915 13.666C9.94065 13.666 9.88319 13.6506 9.83253 13.6213C9.78188 13.5921 9.73981 13.55 9.71056 13.4993C9.66496 13.4256 9.59246 13.3726 9.50841 13.3515C9.42436 13.3303 9.33539 13.3427 9.26035 13.3861C9.1853 13.4294 9.1301 13.5003 9.10643 13.5837C9.08276 13.6671 9.09249 13.7564 9.13356 13.8327C9.25457 14.0356 9.44351 14.1891 9.66689 14.266V14.3327C9.66689 14.4211 9.70201 14.5059 9.76452 14.5684C9.82704 14.6309 9.91182 14.666 10.0002 14.666C10.0886 14.666 10.1734 14.6309 10.2359 14.5684C10.2984 14.5059 10.3336 14.4211 10.3336 14.3327V14.2714C10.5558 14.1931 10.7432 14.0386 10.8625 13.8354C10.9818 13.6321 11.0253 13.3932 10.9853 13.161C10.9453 12.9287 10.8244 12.7181 10.6439 12.5665C10.4635 12.4149 10.2352 12.3321 9.99956 12.3327Z" fill="white"></path>
    <path d="M16.669 6.66602C15.9689 6.66524 15.2863 6.88519 14.7184 7.29459C14.1505 7.70399 13.726 8.28201 13.5055 8.94647C13.2849 9.61093 13.2794 10.328 13.4898 10.9958C13.7002 11.6635 14.1157 12.248 14.6773 12.666H14.669C14.4756 12.6652 14.2861 12.7207 14.1237 12.8257C13.9613 12.9308 13.8331 13.0809 13.7546 13.2576C13.6761 13.4344 13.6508 13.6302 13.6818 13.8211C13.7127 14.012 13.7986 14.1898 13.929 14.3327C13.7618 14.5144 13.669 14.7524 13.669 14.9994C13.669 15.2463 13.7618 15.4843 13.929 15.666C13.7618 15.8478 13.669 16.0857 13.669 16.3327C13.669 16.5797 13.7618 16.8176 13.929 16.9994C13.7618 17.1811 13.669 17.4191 13.669 17.666C13.669 17.913 13.7618 18.1509 13.929 18.3327C13.7986 18.4756 13.7127 18.6533 13.6818 18.8443C13.6508 19.0352 13.6761 19.231 13.7546 19.4077C13.8331 19.5845 13.9613 19.7346 14.1237 19.8397C14.2861 19.9447 14.4756 20.0002 14.669 19.9994H18.669C18.8624 20.0002 19.0519 19.9447 19.2142 19.8397C19.3766 19.7346 19.5049 19.5845 19.5834 19.4077C19.6619 19.231 19.6872 19.0352 19.6562 18.8443C19.6252 18.6533 19.5393 18.4756 19.409 18.3327C19.5762 18.1509 19.669 17.913 19.669 17.666C19.669 17.4191 19.5762 17.1811 19.409 16.9994C19.5762 16.8176 19.669 16.5797 19.669 16.3327C19.669 16.0857 19.5762 15.8478 19.409 15.666C19.5762 15.4843 19.669 15.2463 19.669 14.9994C19.669 14.7524 19.5762 14.5144 19.409 14.3327C19.5393 14.1898 19.6252 14.012 19.6562 13.8211C19.6872 13.6302 19.6619 13.4344 19.5834 13.2576C19.5049 13.0809 19.3766 12.9308 19.2142 12.8257C19.0519 12.7207 18.8624 12.6652 18.669 12.666H18.6603C19.2221 12.2481 19.6378 11.6637 19.8483 10.9959C20.0588 10.3281 20.0534 9.61095 19.8329 8.9464C19.6123 8.28186 19.1879 7.70378 18.6198 7.29438C18.0518 6.88497 17.3692 6.6651 16.669 6.66602ZM19.0023 14.9994C19.0023 15.0878 18.9672 15.1725 18.9047 15.2351C18.8422 15.2976 18.7574 15.3327 18.669 15.3327H14.669C14.5806 15.3327 14.4958 15.2976 14.4333 15.2351C14.3708 15.1725 14.3356 15.0878 14.3356 14.9994C14.3356 14.9109 14.3708 14.8262 14.4333 14.7637C14.4958 14.7011 14.5806 14.666 14.669 14.666H18.669C18.7574 14.666 18.8422 14.7011 18.9047 14.7637C18.9672 14.8262 19.0023 14.9109 19.0023 14.9994ZM19.0023 16.3327C19.0023 16.4211 18.9672 16.5059 18.9047 16.5684C18.8422 16.6309 18.7574 16.666 18.669 16.666H14.669C14.5806 16.666 14.4958 16.6309 14.4333 16.5684C14.3708 16.5059 14.3356 16.4211 14.3356 16.3327C14.3356 16.2443 14.3708 16.1595 14.4333 16.097C14.4958 16.0345 14.5806 15.9994 14.669 15.9994H18.669C18.7574 15.9994 18.8422 16.0345 18.9047 16.097C18.9672 16.1595 19.0023 16.2443 19.0023 16.3327ZM19.0023 17.666C19.0023 17.7544 18.9672 17.8392 18.9047 17.9017C18.8422 17.9642 18.7574 17.9994 18.669 17.9994H14.669C14.5806 17.9994 14.4958 17.9642 14.4333 17.9017C14.3708 17.8392 14.3356 17.7544 14.3356 17.666C14.3356 17.5776 14.3708 17.4928 14.4333 17.4303C14.4958 17.3678 14.5806 17.3327 14.669 17.3327H18.669C18.7574 17.3327 18.8422 17.3678 18.9047 17.4303C18.9672 17.4928 19.0023 17.5776 19.0023 17.666ZM18.669 19.3327H14.669C14.5806 19.3327 14.4958 19.2976 14.4333 19.2351C14.3708 19.1725 14.3356 19.0878 14.3356 18.9994C14.3356 18.9109 14.3708 18.8262 14.4333 18.7637C14.4958 18.7011 14.5806 18.666 14.669 18.666H18.669C18.7574 18.666 18.8422 18.7011 18.9047 18.7637C18.9672 18.8262 19.0023 18.9109 19.0023 18.9994C19.0023 19.0878 18.9672 19.1725 18.9047 19.2351C18.8422 19.2976 18.7574 19.3327 18.669 19.3327ZM18.669 13.3327C18.7574 13.3327 18.8422 13.3678 18.9047 13.4303C18.9672 13.4928 19.0023 13.5776 19.0023 13.666C19.0023 13.7544 18.9672 13.8392 18.9047 13.9017C18.8422 13.9642 18.7574 13.9994 18.669 13.9994H14.669C14.5806 13.9994 14.4958 13.9642 14.4333 13.9017C14.3708 13.8392 14.3356 13.7544 14.3356 13.666C14.3356 13.5776 14.3708 13.4928 14.4333 13.4303C14.4958 13.3678 14.5806 13.3327 14.669 13.3327H18.669ZM16.669 12.666C16.1416 12.666 15.626 12.5096 15.1875 12.2166C14.7489 11.9236 14.4071 11.5071 14.2053 11.0198C14.0035 10.5326 13.9507 9.99639 14.0535 9.47911C14.1564 8.96183 14.4104 8.48667 14.7834 8.11373C15.1563 7.74079 15.6315 7.48682 16.1487 7.38392C16.666 7.28103 17.2022 7.33384 17.6895 7.53567C18.1767 7.73751 18.5932 8.0793 18.8862 8.51783C19.1792 8.95636 19.3356 9.47194 19.3356 9.99935C19.3348 10.7064 19.0536 11.3842 18.5537 11.8841C18.0538 12.384 17.376 12.6652 16.669 12.666Z" fill="white"></path>
    <path fill-rule="evenodd" clip-rule="evenodd" d="M16.6675 9.66667C16.609 9.66661 16.5516 9.65116 16.5009 9.62187C16.4503 9.59257 16.4083 9.55047 16.3791 9.49979C16.3498 9.44911 16.3345 9.39163 16.3345 9.33313C16.3346 9.27463 16.35 9.21717 16.3793 9.16653C16.4085 9.11588 16.4506 9.07383 16.5013 9.0446C16.552 9.01537 16.6094 8.99999 16.6679 9C16.7264 9.00001 16.7839 9.01542 16.8346 9.04468C16.8852 9.07393 16.9273 9.11601 16.9565 9.16667C17.0021 9.24037 17.0746 9.29341 17.1587 9.31456C17.2427 9.3357 17.3317 9.32328 17.4067 9.27993C17.4818 9.23657 17.537 9.1657 17.5607 9.08233C17.5843 8.99896 17.5746 8.90965 17.5335 8.83333C17.4128 8.63041 17.2241 8.47687 17.0009 8.4V8.33333C17.0009 8.24493 16.9657 8.16014 16.9032 8.09763C16.8407 8.03512 16.7559 8 16.6675 8C16.5791 8 16.4943 8.03512 16.4318 8.09763C16.3693 8.16014 16.3342 8.24493 16.3342 8.33333V8.39467C16.112 8.47294 15.9246 8.62734 15.8053 8.83051C15.686 9.03369 15.6425 9.27252 15.6824 9.50473C15.7223 9.73693 15.8431 9.94751 16.0234 10.0992C16.2038 10.2508 16.4319 10.3338 16.6675 10.3333C16.726 10.3334 16.7835 10.3488 16.8341 10.3781C16.8848 10.4074 16.9268 10.4495 16.956 10.5002C16.9852 10.5509 17.0006 10.6084 17.0005 10.6669C17.0005 10.7254 16.9851 10.7828 16.9558 10.8335C16.9265 10.8841 16.8844 10.9262 16.8338 10.9554C16.7831 10.9846 16.7256 11 16.6671 11C16.6086 11 16.5512 10.9846 16.5005 10.9553C16.4498 10.9261 16.4078 10.884 16.3785 10.8333C16.3329 10.7596 16.2604 10.7066 16.1764 10.6854C16.0923 10.6643 16.0034 10.6767 15.9283 10.7201C15.8533 10.7634 15.7981 10.8343 15.7744 10.9177C15.7507 11.001 15.7605 11.0904 15.8015 11.1667C15.9225 11.37 16.1115 11.5233 16.3349 11.6V11.6667C16.3349 11.7551 16.37 11.8399 16.4325 11.9024C16.495 11.9649 16.5798 12 16.6682 12C16.7566 12 16.8414 11.9649 16.9039 11.9024C16.9664 11.8399 17.0015 11.7551 17.0015 11.6667V11.6053C17.2238 11.527 17.4112 11.3726 17.5305 11.1693C17.6498 10.9661 17.6933 10.7272 17.6533 10.4949C17.6133 10.2627 17.4923 10.0521 17.3119 9.90051C17.1315 9.7489 16.9032 9.66606 16.6675 9.66667Z" fill="white"></path>
    <path d="M1.34167 18.0004H1.33333C1.06812 18.0004 0.813763 18.1057 0.626227 18.2933C0.43869 18.4808 0.333333 18.7352 0.333333 19.0004C0.333333 19.2656 0.43869 19.5199 0.626227 19.7075C0.813763 19.895 1.06812 20.0004 1.33333 20.0004H5.33333C5.59855 20.0004 5.8529 19.895 6.04044 19.7075C6.22798 19.5199 6.33333 19.2656 6.33333 19.0004C6.33333 18.7352 6.22798 18.4808 6.04044 18.2933C5.8529 18.1057 5.59855 18.0004 5.33333 18.0004H5.325C5.88671 17.5818 6.30228 16.997 6.51271 16.3288C6.72314 15.6607 6.71773 14.9432 6.49725 14.2783C6.27677 13.6134 5.85243 13.0349 5.28448 12.6249C4.71652 12.2148 4.03383 11.9941 3.33333 11.9941C2.63284 11.9941 1.95014 12.2148 1.38219 12.6249C0.814237 13.0349 0.389894 13.6134 0.169414 14.2783C-0.0510647 14.9432 -0.0564732 15.6607 0.153957 16.3288C0.364387 16.997 0.77996 17.5818 1.34167 18.0004ZM5.33333 18.667C5.42174 18.667 5.50652 18.7022 5.56904 18.7647C5.63155 18.8272 5.66667 18.912 5.66667 19.0004C5.66667 19.0888 5.63155 19.1736 5.56904 19.2361C5.50652 19.2986 5.42174 19.3337 5.33333 19.3337H1.33333C1.24493 19.3337 1.16014 19.2986 1.09763 19.2361C1.03512 19.1736 1 19.0888 1 19.0004C1 18.912 1.03512 18.8272 1.09763 18.7647C1.16014 18.7022 1.24493 18.667 1.33333 18.667H5.33333ZM3.33333 12.667C3.86075 12.667 4.37632 12.8234 4.81485 13.1165C5.25338 13.4095 5.59518 13.8259 5.79701 14.3132C5.99885 14.8005 6.05165 15.3367 5.94876 15.8539C5.84587 16.3712 5.59189 16.8464 5.21895 17.2193C4.84601 17.5923 4.37086 17.8462 3.85357 17.9491C3.33629 18.052 2.80011 17.9992 2.31284 17.7974C1.82557 17.5955 1.4091 17.2538 1.11608 16.8152C0.823064 16.3767 0.666667 15.8611 0.666667 15.3337C0.667461 14.6267 0.948667 13.9489 1.44859 13.449C1.94852 12.949 2.62633 12.6678 3.33333 12.667Z" fill="white"></path>
    <path fill-rule="evenodd" clip-rule="evenodd" d="M3.3355 15.6654C3.394 15.6654 3.45145 15.6809 3.50208 15.7102C3.55272 15.7395 3.59476 15.7816 3.62397 15.8322C3.65318 15.8829 3.66854 15.9404 3.66851 15.9989C3.66847 16.0574 3.65304 16.1149 3.62377 16.1655C3.59449 16.2162 3.5524 16.2582 3.50173 16.2874C3.45106 16.3167 3.39359 16.332 3.33509 16.332C3.27659 16.332 3.21913 16.3166 3.16847 16.2874C3.11781 16.2581 3.07575 16.216 3.0465 16.1654C3.02535 16.1261 2.99653 16.0914 2.96175 16.0635C2.92697 16.0355 2.88693 16.0149 2.844 16.0027C2.80108 15.9905 2.75614 15.987 2.71187 15.9925C2.66759 15.998 2.62486 16.0124 2.58622 16.0347C2.54759 16.057 2.51383 16.0869 2.48694 16.1225C2.46005 16.1581 2.44059 16.1987 2.42971 16.242C2.41882 16.2853 2.41673 16.3303 2.42357 16.3744C2.4304 16.4185 2.44602 16.4608 2.4695 16.4987C2.5905 16.7016 2.77945 16.8551 3.00283 16.932V16.9987C3.00283 17.0871 3.03795 17.1719 3.10046 17.2344C3.16297 17.2969 3.24776 17.332 3.33616 17.332C3.42457 17.332 3.50935 17.2969 3.57187 17.2344C3.63438 17.1719 3.6695 17.0871 3.6695 16.9987V16.9374C3.89178 16.8591 4.07917 16.7046 4.19846 16.5014C4.31776 16.2981 4.36125 16.0592 4.32124 15.827C4.28123 15.5947 4.16029 15.3841 3.97986 15.2325C3.79944 15.0809 3.57116 14.9981 3.3355 14.9987C3.277 14.9986 3.21955 14.9832 3.16891 14.9539C3.11827 14.9246 3.07624 14.8825 3.04702 14.8318C3.01781 14.7811 3.00245 14.7237 3.00249 14.6652C3.00252 14.6067 3.01795 14.5492 3.04723 14.4986C3.0765 14.4479 3.11859 14.4059 3.16926 14.3766C3.21993 14.3474 3.2774 14.332 3.3359 14.332C3.3944 14.332 3.45187 14.3475 3.50252 14.3767C3.55318 14.406 3.59525 14.448 3.6245 14.4987C3.64564 14.538 3.67446 14.5726 3.70924 14.6006C3.74403 14.6285 3.78407 14.6492 3.82699 14.6614C3.86991 14.6736 3.91485 14.677 3.95913 14.6715C4.00341 14.666 4.04613 14.6517 4.08477 14.6294C4.1234 14.607 4.15717 14.5772 4.18405 14.5416C4.21094 14.506 4.2304 14.4653 4.24129 14.4221C4.25217 14.3788 4.25426 14.3338 4.24743 14.2897C4.24059 14.2456 4.22497 14.2033 4.2015 14.1654C4.08065 13.9626 3.89197 13.8091 3.66883 13.732V13.6654C3.66883 13.577 3.63371 13.4922 3.5712 13.4297C3.50869 13.3671 3.4239 13.332 3.3355 13.332C3.24709 13.332 3.16231 13.3671 3.09979 13.4297C3.03728 13.4922 3.00216 13.577 3.00216 13.6654V13.7267C2.77994 13.805 2.59258 13.9594 2.47328 14.1625C2.35399 14.3657 2.31044 14.6046 2.35037 14.8368C2.39029 15.069 2.51111 15.2795 2.69142 15.4312C2.87172 15.5829 3.09989 15.6658 3.3355 15.6654Z" fill="white"></path>
  </g>
  <defs>
    <clipPath id="clip0_3134_774">
      <rect width="20" height="20" fill="white"></rect>
    </clipPath>
  </defs>
</svg>
