<?xml version="1.0" encoding="UTF-8"?>
<svg xmlns="http://www.w3.org/2000/svg" width="20" height="20" viewBox="0 0 20 20" fill="none">
  <g clip-path="url(#clip0_2345_3451)">
    <path d="M19.4141 7.42185C19.7377 7.42185 20 7.1595 20 6.83591V4.49216C20 4.25532 19.8574 4.04173 19.6386 3.95099L10.2246 0.0447371C10.1534 0.0152025 10.0771 0 10 0C9.92293 0 9.84662 0.0152025 9.77543 0.0447371L0.361367 3.95099C0.254385 3.99537 0.162958 4.07046 0.0986385 4.16679C0.0343193 4.26311 -5.94176e-06 4.37634 7.71467e-10 4.49216L7.71467e-10 6.83591C7.71467e-10 7.1595 0.262344 7.42185 0.585938 7.42185H1.60156V14.0625H1.40625C1.08266 14.0625 0.820312 14.3248 0.820312 14.6484V16.4062H0.585938C0.262344 16.4062 7.71467e-10 16.6686 7.71467e-10 16.9922V19.414C7.71467e-10 19.7376 0.262344 20 0.585938 20H19.4141C19.7377 20 20 19.7376 20 19.414V16.9922C20 16.6686 19.7377 16.4062 19.4141 16.4062H19.1797V14.6484C19.1797 14.3248 18.9173 14.0625 18.5938 14.0625H18.3984V7.42185H19.4141ZM18.8281 17.5781V18.8281H1.17188V17.5781H18.8281ZM4.72656 15.2343V16.4062H1.99219V15.2343H4.72656ZM2.77344 14.0625V7.42185H3.94531V14.0625H2.77344ZM5.3125 14.0625H5.11719V7.42185H14.8828V14.0625H14.6875C14.3639 14.0625 14.1016 14.3248 14.1016 14.6484V16.4062H5.89844V14.6484C5.89844 14.3248 5.63609 14.0625 5.3125 14.0625ZM18.0078 15.2343V16.4062H15.2734V15.2343H18.0078ZM16.0547 14.0625V7.42185H17.2266V14.0625H16.0547ZM1.17188 6.24997V4.88341L10 1.22028L18.8281 4.88337V6.24997H1.17188Z" fill="white"></path>
    <path d="M13.5156 3.90625H6.48438C6.16078 3.90625 5.89844 4.16859 5.89844 4.49219C5.89844 4.81578 6.16078 5.07812 6.48438 5.07812H13.5156C13.8392 5.07812 14.1016 4.81578 14.1016 4.49219C14.1016 4.16859 13.8392 3.90625 13.5156 3.90625ZM10 13.6719C9.67691 13.6719 9.41406 13.409 9.41406 13.0859C9.41406 12.7623 9.15172 12.5 8.82812 12.5C8.50453 12.5 8.24219 12.7623 8.24219 13.0859C8.24219 13.8498 8.73207 14.5011 9.41406 14.743V15.0391C9.41406 15.3627 9.67641 15.625 10 15.625C10.3236 15.625 10.5859 15.3627 10.5859 15.0391V14.743C11.2679 14.5011 11.7578 13.8498 11.7578 13.0859C11.7578 12.1167 10.9693 11.3281 10 11.3281C9.67691 11.3281 9.41406 11.0653 9.41406 10.7422C9.41406 10.4191 9.67691 10.1562 10 10.1562C10.3231 10.1562 10.5859 10.4191 10.5859 10.7422C10.5859 11.0658 10.8483 11.3281 11.1719 11.3281C11.4955 11.3281 11.7578 11.0658 11.7578 10.7422C11.7578 9.97832 11.2679 9.32703 10.5859 9.08516V8.78906C10.5859 8.46547 10.3236 8.20312 10 8.20312C9.67641 8.20312 9.41406 8.46547 9.41406 8.78906V9.08516C8.73207 9.32703 8.24219 9.97832 8.24219 10.7422C8.24219 11.7114 9.03074 12.5 10 12.5C10.3231 12.5 10.5859 12.7629 10.5859 13.0859C10.5859 13.409 10.3231 13.6719 10 13.6719Z" fill="white"></path>
  </g>
  <defs>
    <clipPath id="clip0_2345_3451">
      <rect width="20" height="20" fill="white"></rect>
    </clipPath>
  </defs>
</svg>
