<?xml version="1.0" encoding="UTF-8"?>
<svg xmlns="http://www.w3.org/2000/svg" width="32" height="32" viewBox="0 0 32 32" fill="none">
  <path d="M16 25C16 20.589 19.589 17 24 17C24.692 17 25.359 17.097 26 17.263V6C26 5.34339 25.8707 4.69321 25.6194 4.08658C25.3681 3.47995 24.9998 2.92876 24.5355 2.46447C24.0712 2.00017 23.52 1.63188 22.9134 1.3806C22.3068 1.12933 21.6566 1 21 1H9C7.67392 1 6.40215 1.52678 5.46447 2.46447C4.52678 3.40215 4 4.67392 4 6V23C4 24.3261 4.52678 25.5979 5.46447 26.5355C6.40215 27.4732 7.67392 28 9 28H16.589C16.2003 27.0476 16.0003 26.0287 16 25ZM9 6H17C17.2652 6 17.5196 6.10536 17.7071 6.29289C17.8946 6.48043 18 6.73478 18 7C18 7.26522 17.8946 7.51957 17.7071 7.70711C17.5196 7.89464 17.2652 8 17 8H9C8.73478 8 8.48043 7.89464 8.29289 7.70711C8.10536 7.51957 8 7.26522 8 7C8 6.73478 8.10536 6.48043 8.29289 6.29289C8.48043 6.10536 8.73478 6 9 6ZM9 11H21C21.2652 11 21.5196 11.1054 21.7071 11.2929C21.8946 11.4804 22 11.7348 22 12C22 12.2652 21.8946 12.5196 21.7071 12.7071C21.5196 12.8946 21.2652 13 21 13H9C8.73478 13 8.48043 12.8946 8.29289 12.7071C8.10536 12.5196 8 12.2652 8 12C8 11.7348 8.10536 11.4804 8.29289 11.2929C8.48043 11.1054 8.73478 11 9 11ZM12.38 23H9C8.73478 23 8.48043 22.8946 8.29289 22.7071C8.10536 22.5196 8 22.2652 8 22C8 21.7348 8.10536 21.4804 8.29289 21.2929C8.48043 21.1054 8.73478 21 9 21H12.38C12.6452 21 12.8996 21.1054 13.0871 21.2929C13.2746 21.4804 13.38 21.7348 13.38 22C13.38 22.2652 13.2746 22.5196 13.0871 22.7071C12.8996 22.8946 12.6452 23 12.38 23ZM15.07 18H9C8.73478 18 8.48043 17.8946 8.29289 17.7071C8.10536 17.5196 8 17.2652 8 17C8 16.7348 8.10536 16.4804 8.29289 16.2929C8.48043 16.1054 8.73478 16 9 16H15.07C15.3352 16 15.5896 16.1054 15.7771 16.2929C15.9646 16.4804 16.07 16.7348 16.07 17C16.07 17.2652 15.9646 17.5196 15.7771 17.7071C15.5896 17.8946 15.3352 18 15.07 18Z" fill="#9810FA"></path>
  <path d="M24 19C20.692 19 18 21.692 18 25C18 28.308 20.692 31 24 31C27.308 31 30 28.308 30 25C30 21.692 27.308 19 24 19ZM26.707 24.574L24.04 27.241C23.9473 27.3342 23.8372 27.4081 23.7159 27.4586C23.5945 27.5091 23.4644 27.535 23.333 27.535C23.2016 27.535 23.0715 27.5091 22.9501 27.4586C22.8288 27.4081 22.7187 27.3342 22.626 27.241L21.293 25.908C21.1055 25.7205 21.0002 25.4662 21.0002 25.201C21.0002 24.9358 21.1055 24.6815 21.293 24.494C21.4805 24.3065 21.7348 24.2012 22 24.2012C22.2652 24.2012 22.5195 24.3065 22.707 24.494L23.333 25.12L25.293 23.161C25.4805 22.9735 25.7348 22.8682 26 22.8682C26.2652 22.8682 26.5195 22.9735 26.707 23.161C26.8945 23.3485 26.9998 23.6028 26.9998 23.868C26.9998 24.1332 26.8945 24.3875 26.707 24.575V24.574Z" fill="#9810FA"></path>
</svg>
