<svg width="30" height="30" viewBox="0 0 30 30" fill="none" xmlns="http://www.w3.org/2000/svg">
<g clip-path="url(#clip0_2025_23260)">
<path fill-rule="evenodd" clip-rule="evenodd" d="M25 3C26.6569 3 28 4.34315 28 6V25C28 26.6569 26.6569 28 25 28H6C4.34315 28 3 26.6569 3 25V6C3 4.34315 4.34315 3 6 3H25Z" fill="black"/>
<path fill-rule="evenodd" clip-rule="evenodd" d="M15.5 7.30269C15.7412 7.29878 16.1592 7.3525 16.4277 7.42281C16.6963 7.49214 17.3994 7.82808 17.9902 8.1689C18.5811 8.50972 19.2627 8.89839 19.5039 9.03218C19.7451 9.16597 20.4043 9.54976 20.9688 9.88472C21.6211 10.2724 22.1094 10.6406 22.6289 11.3007L22.4092 11.4365C22.2881 11.5117 21.8594 11.7675 21.457 12.0048C21.0537 12.2421 19.8906 12.9169 18.8721 13.5039C17.7695 14.1396 16.8379 14.75 16.5723 15.0117C16.3252 15.2529 15.9951 15.7148 15.5488 16.623L15.5244 20.163C15.5029 23.2334 15.4805 23.7031 15.3535 23.7031C15.2725 23.7031 14.9981 23.6591 14.7432 23.6054C14.4512 23.5439 13.3555 22.9814 11.7891 22.0908C9.89357 21.0127 9.1963 20.5634 8.87013 20.2109C8.6338 19.956 8.35744 19.5498 8.2549 19.3085C8.15236 19.0673 8.02248 18.5615 7.96584 18.1855C7.90529 17.7812 7.8799 16.4853 7.90529 15.0117C7.93947 12.9238 7.97462 12.4423 8.12306 12.0332C8.22072 11.7646 8.35939 11.4794 8.43068 11.3984C8.50295 11.3173 8.56056 11.208 8.55959 11.1543C8.55861 11.1005 8.74709 10.8808 8.97755 10.666C9.20802 10.4511 10.4736 9.66109 11.7891 8.91011C13.1045 8.15914 14.3799 7.49214 14.6211 7.42769C14.8623 7.36324 15.2588 7.3066 15.5 7.30269ZM23.0498 12.7812L23.0879 13.6279C23.1162 14.2695 23.084 14.581 22.9551 14.914C22.8623 15.1552 22.6299 15.5234 22.4385 15.7304C22.2481 15.9375 21.6738 16.3525 21.1641 16.6523C20.6543 16.9521 19.544 17.6064 18.6983 18.1064C17.8018 18.6367 17.1133 18.9853 17.0469 18.9423C16.9678 18.8916 16.9473 18.5849 16.9795 17.9414C17.0166 17.2011 17.0742 16.9248 17.2656 16.5742C17.4209 16.2871 17.6895 16.0107 18.0401 15.7783C18.335 15.582 19.3672 14.9619 20.334 14.4013C21.3008 13.8398 22.3076 13.2461 22.5703 13.081L23.0498 12.7812ZM23.0947 17.8017C23.1201 18.3037 23.0781 18.6171 22.9326 19.0156C22.8252 19.3105 22.6133 19.7109 22.4629 19.9033C22.3135 20.0966 22.0586 20.3642 21.8975 20.499C21.7363 20.6347 21.0772 21.0459 20.4326 21.413C19.7881 21.7812 18.7774 22.3584 18.1865 22.6962C17.5957 23.0351 17.0684 23.3125 17.0147 23.3125C16.9512 23.3134 16.9404 22.9609 16.9854 22.3125C17.0449 21.4502 17.0928 21.2509 17.3272 20.8837C17.5137 20.5918 17.8174 20.3252 18.2842 20.0439C18.6602 19.8164 19.8242 19.1386 20.8721 18.5351C21.919 17.9326 22.8399 17.3691 22.918 17.2822C23.044 17.1416 23.0635 17.2002 23.0947 17.8017Z" fill="white"/>
</g>
<defs>
<clipPath id="clip0_2025_23260">
<rect width="25" height="25" fill="white" transform="translate(3 3)"/>
</clipPath>
</defs>
</svg>
