<?xml version="1.0" encoding="UTF-8"?>
<svg xmlns="http://www.w3.org/2000/svg" width="56" height="56" viewBox="0 0 56 56" fill="none">
  <g clip-path="url(#clip0_2990_7875)">
    <path d="M28 56C43.464 56 56 43.464 56 28C56 12.536 43.464 0 28 0C12.536 0 0 12.536 0 28C0 43.464 12.536 56 28 56Z" fill="#00EF8B"></path>
    <path d="M40.264 23.632H32.368V31.528H40.264V23.632Z" fill="white"></path>
    <path d="M24.472 34.496C24.472 36.12 23.128 37.464 21.504 37.464C19.88 37.464 18.536 36.12 18.536 34.496C18.536 32.872 19.88 31.528 21.504 31.528H24.472V23.632H21.504C15.512 23.632 10.64 28.504 10.64 34.496C10.64 40.488 15.512 45.36 21.504 45.36C27.496 45.36 32.368 40.488 32.368 34.496V31.528H24.472V34.496Z" fill="white"></path>
    <path d="M35.336 19.656H44.24V11.76H35.336C29.344 11.76 24.472 16.632 24.472 22.624V23.632H32.368V22.624C32.368 21 33.712 19.656 35.336 19.656Z" fill="white"></path>
    <path d="M32.368 23.632H24.472V31.528H32.368V23.632Z" fill="#16FF99"></path>
  </g>
  <defs>
    <clipPath id="clip0_2990_7875">
      <rect width="56" height="56" fill="white"></rect>
    </clipPath>
  </defs>
</svg>
