<?xml version="1.0" encoding="UTF-8"?>
<svg xmlns="http://www.w3.org/2000/svg" width="29" height="29" viewBox="0 0 29 29" fill="none">
  <path d="M19.3145 25.6046H9.68555C8.4343 25.6046 7.41992 26.6188 7.41992 27.8699V28.1531C7.41992 28.6222 7.80032 29.0026 8.26953 29.0026H20.7305C21.1997 29.0026 21.5801 28.6222 21.5801 28.1531V27.8699C21.5801 26.6188 20.5657 25.6046 19.3145 25.6046ZM0 18.9786C0 20.6961 1.39749 22.0934 3.11523 22.0934H9.98382L9.48034 23.9056H19.5197L19.0162 22.0934H25.8848C27.6025 22.0934 29 20.6961 29 18.9786V18.6954H0V18.9786ZM19.5977 5.95312C18.1922 5.95312 17.0488 7.09637 17.0488 8.50159C17.0488 9.90681 18.1922 11.0501 19.5977 11.0501C21.0031 11.0501 22.1465 9.90681 22.1465 8.50159C22.1465 7.09637 21.0031 5.95312 19.5977 5.95312ZM19.5977 9.35108C19.1284 9.35108 18.748 8.97073 18.748 8.50159C18.748 8.03244 19.1284 7.6521 19.5977 7.6521C20.0669 7.6521 20.4473 8.03244 20.4473 8.50159C20.4473 8.97073 20.0669 9.35108 19.5977 9.35108Z" fill="#9810FA"></path>
  <path d="M25.8848 0H3.11523C1.39749 0 0 1.39729 0 3.11479V16.9898H5.1543V7.43092L4.90542 7.67977C4.57362 8.01152 4.0357 8.01152 3.7039 7.67977C3.3721 7.34801 3.3721 6.81017 3.7039 6.47842L5.40312 4.77944C5.73492 4.44769 6.27284 4.44769 6.60464 4.77944L8.30386 6.47842C8.63566 6.81017 8.63566 7.34801 8.30386 7.67977C7.97205 8.01152 7.43414 8.01152 7.10234 7.67977L6.85352 7.43092V16.9898H8.55273V9.91069C8.55273 9.44155 8.93313 9.0612 9.40234 9.0612C9.87155 9.0612 10.252 9.44155 10.252 9.91069V16.9898H11.9512V14.4413C11.9512 13.9721 12.3316 13.5918 12.8008 13.5918C13.27 13.5918 13.6504 13.9721 13.6504 14.4413V16.9898H29V3.11479C29 1.39729 27.6025 0 25.8848 0ZM25.5449 8.49488C25.5449 8.96402 25.1645 9.34437 24.6953 9.34437H23.7602C23.6498 9.88589 23.4356 10.3898 23.1401 10.8355L23.8031 11.4983C24.1349 11.8301 24.1349 12.3679 23.8031 12.6997C23.4713 13.0314 22.9333 13.0314 22.6015 12.6997L21.9386 12.0368C21.486 12.3375 20.9797 12.548 20.4473 12.6569V13.5918C20.4473 14.0609 20.0669 14.4413 19.5977 14.4413C19.1285 14.4413 18.7481 14.0609 18.7481 13.5918V12.6568C18.2066 12.5465 17.7025 12.3322 17.2568 12.0368L16.5939 12.6996C16.2621 13.0314 15.7242 13.0314 15.3924 12.6996C15.0606 12.3679 15.0606 11.83 15.3924 11.4983L16.0553 10.8354C15.7546 10.3829 15.544 9.87662 15.4352 9.34431H14.5C14.0308 9.34431 13.6504 8.96396 13.6504 8.49482C13.6504 8.02568 14.0308 7.64533 14.5 7.64533H15.4351C15.5455 7.10381 15.7597 6.5999 16.0552 6.1542L15.3923 5.49137C15.0605 5.15962 15.0605 4.62178 15.3923 4.29003C15.7241 3.95827 16.262 3.95827 16.5938 4.29003L17.2567 4.95285C17.7093 4.65217 18.2156 4.44165 18.748 4.33284V3.39795C18.748 2.92881 19.1284 2.54846 19.5976 2.54846C20.0668 2.54846 20.4472 2.92881 20.4472 3.39795V4.33295C20.9887 4.44327 21.4928 4.65751 21.9385 4.95297L22.6014 4.29014C22.9332 3.95844 23.4711 3.95844 23.8029 4.29014C24.1347 4.62189 24.1347 5.15973 23.8029 5.49149L23.14 6.15431C23.4408 6.60683 23.6513 7.11314 23.7601 7.64545H24.6953C25.1645 7.64539 25.5449 8.02573 25.5449 8.49488Z" fill="#9810FA"></path>
</svg>
