<?xml version="1.0" encoding="UTF-8"?>
<svg xmlns="http://www.w3.org/2000/svg" width="20" height="20" viewBox="0 0 20 20" fill="none">
  <path d="M13.75 6.25H13.125C12.9592 6.25 12.8003 6.31585 12.6831 6.43306C12.5658 6.55027 12.5 6.70924 12.5 6.875C12.5 7.04076 12.5658 7.19973 12.6831 7.31694C12.8003 7.43415 12.9592 7.5 13.125 7.5H13.75C13.9158 7.5 14.0747 7.56585 14.1919 7.68306C14.3092 7.80027 14.375 7.95924 14.375 8.125C14.375 8.29076 14.4408 8.44973 14.5581 8.56694C14.6753 8.68415 14.8342 8.75 15 8.75C15.1658 8.75 15.3247 8.68415 15.4419 8.56694C15.5592 8.44973 15.625 8.29076 15.625 8.125C15.625 7.09125 14.7838 6.25 13.75 6.25Z" fill="white"></path>
  <path d="M2.5 7.5V8.75C2.5 10.17 3.48 11.3981 4.81813 11.7537C5.67 13.5512 7.08063 16.25 10 16.25C12.9194 16.25 14.3306 13.55 15.1825 11.7531C16.5238 11.3938 17.5 10.1675 17.5 8.75V7.5C17.4997 6.89226 17.3214 6.29792 16.9871 5.79042C16.6527 5.28291 16.177 4.88449 15.6187 4.64438C14.6175 2.54875 12.4969 1.25 10 1.25C7.50187 1.25 5.38125 2.54938 4.38 4.64625C3.82224 4.88643 3.34699 5.28464 3.01291 5.79177C2.67883 6.29889 2.50052 6.89272 2.5 7.5ZM10 15C8.22 15 7.14813 13.5612 6.275 11.875H6.875C7.26269 11.8746 7.64077 11.7543 7.95734 11.5305C8.27391 11.3067 8.51346 10.9904 8.64313 10.625H11.3569C11.4866 10.9903 11.7262 11.3066 12.0427 11.5303C12.3593 11.7541 12.7373 11.8745 13.125 11.875H13.725C12.8519 13.5612 11.78 15 10 15ZM16.25 8.75C16.2482 9.19963 16.0853 9.63373 15.7908 9.97351C15.4964 10.3133 15.0898 10.5362 14.645 10.6019C14.5558 10.6168 14.4655 10.6245 14.375 10.625H13.125C12.9592 10.625 12.8003 10.5592 12.6831 10.4419C12.5658 10.3247 12.5 10.1658 12.5 10C12.5 9.83424 12.4342 9.67527 12.3169 9.55806C12.1997 9.44085 12.0408 9.375 11.875 9.375H8.125C7.95924 9.375 7.80027 9.44085 7.68306 9.55806C7.56585 9.67527 7.5 9.83424 7.5 10C7.5 10.345 7.21938 10.625 6.875 10.625H5.625C5.53312 10.625 5.44187 10.615 5.34625 10.6C4.90324 10.5328 4.49887 10.3093 4.20614 9.97008C3.91342 9.63082 3.75164 9.19808 3.75 8.75V7.5C3.75 6.69312 4.26375 5.97875 5.0375 5.72125C5.22652 5.65632 5.42514 5.62378 5.625 5.625H14.375C14.5819 5.625 14.7794 5.6575 14.9706 5.72375C15.3435 5.84778 15.6678 6.08616 15.8975 6.40503C16.1272 6.72389 16.2505 7.10703 16.25 7.5V8.75ZM10 2.5C11.6544 2.5 13.0956 3.20187 13.9975 4.375H6.0025C6.90438 3.20187 8.345 2.5 10 2.5Z" fill="white"></path>
  <path d="M10.9706 11.9406L10 12.4263L9.02937 11.9406C8.88102 11.8665 8.70931 11.8544 8.55201 11.9069C8.39471 11.9594 8.26472 12.0723 8.19062 12.2206C8.11653 12.369 8.1044 12.5407 8.15691 12.698C8.20942 12.8553 8.32227 12.9853 8.47063 13.0594L9.72062 13.6844C9.80737 13.7277 9.90302 13.7503 10 13.7503C10.097 13.7503 10.1926 13.7277 10.2794 13.6844L11.5294 13.0594C11.6028 13.0227 11.6683 12.9719 11.7222 12.9099C11.776 12.8479 11.8171 12.7759 11.8431 12.698C11.8691 12.6201 11.8795 12.5379 11.8737 12.456C11.8679 12.374 11.8461 12.2941 11.8094 12.2206C11.7727 12.1472 11.7219 12.0817 11.6599 12.0278C11.5979 11.974 11.5259 11.9329 11.448 11.9069C11.3701 11.8809 11.2879 11.8705 11.206 11.8763C11.124 11.8821 11.0441 11.9039 10.9706 11.9406ZM16.8337 14.5813C16.8592 14.5154 16.8732 14.4456 16.875 14.375C16.875 14.2092 16.8092 14.0503 16.6919 13.9331C16.5747 13.8158 16.4158 13.75 16.25 13.75H15C14.8935 13.75 14.7887 13.7771 14.6956 13.829C14.6025 13.8808 14.5242 13.9556 14.4682 14.0462C14.4121 14.1368 14.3802 14.2403 14.3753 14.3467C14.3705 14.4532 14.393 14.5591 14.4406 14.6544L15.0656 15.9044C15.1023 15.9779 15.1531 16.0434 15.2151 16.0972C15.2771 16.1511 15.3491 16.1922 15.427 16.2182C15.5049 16.2442 15.5871 16.2546 15.669 16.2488C15.751 16.243 15.8309 16.2211 15.9044 16.1844C15.9955 16.1375 16.0734 16.0685 16.131 15.9838C16.1886 15.8991 16.2242 15.8013 16.2344 15.6994C16.9819 15.9212 17.3369 16.135 17.4619 16.2537C17.005 16.7325 14.3212 17.5 10 17.5C5.67875 17.5 2.995 16.7325 2.5375 16.2537C2.69937 16.1013 3.23375 15.79 4.51 15.5075C4.67195 15.4717 4.81304 15.373 4.90224 15.2332C4.99143 15.0934 5.02143 14.9238 4.98562 14.7619C4.94982 14.5999 4.85115 14.4588 4.71132 14.3696C4.57149 14.2804 4.40195 14.2504 4.24 14.2863C2.2275 14.7319 1.25 15.3737 1.25 16.25C1.25 18.68 9.10437 18.75 10 18.75C10.8956 18.75 18.75 18.68 18.75 16.25C18.75 15.55 18.1131 15.0013 16.8337 14.5813ZM1.875 3.75C2.14375 3.75 2.36875 3.57875 2.45625 3.34L3.30813 4.19187C3.36603 4.25012 3.43488 4.29633 3.51072 4.32787C3.58655 4.35941 3.66787 4.37565 3.75 4.37565C3.83213 4.37565 3.91345 4.35941 3.98928 4.32787C4.06512 4.29633 4.13397 4.25012 4.19187 4.19187C4.30904 4.07467 4.37487 3.91573 4.37487 3.75C4.37487 3.58427 4.30904 3.42533 4.19187 3.30813L3.34062 2.45625C3.57812 2.36875 3.75 2.14375 3.75 1.875C3.75 1.70924 3.68415 1.55027 3.56694 1.43306C3.44973 1.31585 3.29076 1.25 3.125 1.25H1.875C1.70924 1.25 1.55027 1.31585 1.43306 1.43306C1.31585 1.55027 1.25 1.70924 1.25 1.875V3.125C1.25 3.29076 1.31585 3.44973 1.43306 3.56694C1.55027 3.68415 1.70924 3.75 1.875 3.75ZM18.125 1.25H16.875C16.7092 1.25 16.5503 1.31585 16.4331 1.43306C16.3158 1.55027 16.25 1.70924 16.25 1.875C16.25 2.14375 16.4213 2.36875 16.6594 2.45625L15.8081 3.30813C15.7484 3.36578 15.7008 3.43474 15.6681 3.511C15.6353 3.58725 15.6181 3.66926 15.6173 3.75225C15.6166 3.83524 15.6324 3.91754 15.6639 3.99435C15.6953 4.07116 15.7417 4.14094 15.8004 4.19962C15.8591 4.2583 15.9288 4.30471 16.0057 4.33614C16.0825 4.36756 16.1648 4.38338 16.2478 4.38266C16.3307 4.38194 16.4128 4.36469 16.489 4.33194C16.5653 4.29918 16.6342 4.25157 16.6919 4.19187L17.5438 3.34062C17.6313 3.57812 17.8563 3.75 18.125 3.75C18.2908 3.75 18.4497 3.68415 18.5669 3.56694C18.6842 3.44973 18.75 3.29076 18.75 3.125V1.875C18.75 1.70924 18.6842 1.55027 18.5669 1.43306C18.4497 1.31585 18.2908 1.25 18.125 1.25Z" fill="white"></path>
</svg>
