<svg width="56" height="56" viewBox="0 0 56 56" fill="none" xmlns="http://www.w3.org/2000/svg">
<rect width="56" height="56" fill="#14FF7F"/>
<path d="M48.3148 27.9951H43.3282C41.8343 27.9951 40.633 29.2064 40.633 30.6903V37.928C40.633 39.4219 39.4217 40.6232 37.9379 40.6232H18.0823C16.5883 40.6232 15.3871 41.8345 15.3871 43.3184V48.305C15.3871 49.7989 16.5984 51.0002 18.0823 51.0002H39.0785C40.5725 51.0002 41.7535 49.7888 41.7535 48.305V44.3076C41.7535 42.8136 42.9648 41.7638 44.4487 41.7638H48.3048C49.7987 41.7638 50.9999 40.5525 50.9999 39.0686V30.66C51.01 29.1661 49.7987 27.9951 48.3148 27.9951Z" fill="#1D2420"/>
<path d="M15.3871 18.0823C15.3871 16.5883 16.5984 15.3871 18.0823 15.3871H37.9177C39.4116 15.3871 40.6129 14.1758 40.6129 12.6919V7.69519C40.6129 6.20123 39.4015 5 37.9177 5H16.9315C15.4376 5 14.2363 6.21132 14.2363 7.69519V11.5411C14.2363 13.0351 13.025 14.2363 11.5411 14.2363H7.70528C6.21132 14.2363 5 15.4477 5 16.9315V25.3502C5 26.8442 6.21132 27.9849 7.70528 27.9849H12.6919C14.1859 27.9849 15.3871 26.7735 15.3871 25.2897V18.0823Z" fill="#1D2420"/>
<path d="M25.6531 22.7456H30.4479C32.0125 22.7456 33.2743 24.0175 33.2743 25.572V30.3668C33.2743 31.9315 32.0024 33.1933 30.4479 33.1933H25.6531C24.0885 33.1933 22.8267 31.9214 22.8267 30.3668V25.572C22.8267 24.0175 24.0985 22.7456 25.6531 22.7456Z" fill="#1D2420"/>
</svg>
