<svg width="30" height="30" viewBox="0 0 30 30" fill="none" xmlns="http://www.w3.org/2000/svg">
<rect x="3" y="3" width="25" height="25" rx="3" fill="#0099FF"/>
<path fill-rule="evenodd" clip-rule="evenodd" d="M15.6298 12.0001C15.8278 11.9985 16.0925 12.0118 16.2357 12.031C16.3756 12.0495 16.583 12.0945 16.6962 12.1311C16.8094 12.1675 16.9624 12.2239 17.0356 12.2564C17.1088 12.2889 17.229 12.3467 17.3022 12.3851C17.3754 12.4233 17.4774 12.4827 17.5288 12.5175C17.5802 12.552 17.6948 12.6379 17.7833 12.7083C17.872 12.7788 17.9881 12.8821 18.0414 12.9383C18.0947 12.9943 18.1602 13.0654 18.1869 13.0961C18.2135 13.1267 18.2809 13.2188 18.3369 13.3004C18.3926 13.3823 18.4828 13.5313 18.5368 13.6319C18.5911 13.7325 18.6355 13.8276 18.6355 13.8434C18.6353 13.8591 18.6161 13.8811 18.5928 13.8921C18.5696 13.9033 18.2559 13.9865 17.896 14.077C17.5361 14.1678 17.1488 14.2667 17.0356 14.2971C16.9224 14.3275 16.8022 14.3522 16.7689 14.3522C16.7256 14.352 16.6565 14.3022 16.5244 14.1748C16.401 14.0562 16.2849 13.9702 16.1729 13.9147C16.0808 13.8692 15.9235 13.8075 15.8237 13.7775C15.6741 13.7329 15.5927 13.7236 15.3632 13.7249C15.1268 13.7265 15.0558 13.7359 14.8966 13.7878C14.7933 13.8216 14.6624 13.8708 14.6057 13.8975C14.549 13.9241 14.4373 13.9874 14.3573 14.0379C14.2773 14.0884 14.1464 14.1833 14.0664 14.2487C13.9865 14.3138 13.8594 14.4437 13.7843 14.5367C13.7092 14.63 13.6086 14.7834 13.5604 14.8778C13.5102 14.9763 13.4523 15.1439 13.4244 15.2721C13.3955 15.4036 13.3749 15.591 13.3737 15.7294C13.3725 15.8715 13.3878 16.0311 13.4125 16.1351C13.4348 16.2293 13.493 16.3832 13.5417 16.4767C13.6042 16.5969 13.6835 16.6979 13.8119 16.8212C13.912 16.9172 14.0483 17.0248 14.1149 17.0605C14.1816 17.0964 14.3234 17.1538 14.43 17.1881C14.5444 17.2251 14.7085 17.2571 14.8299 17.2663C14.9518 17.2754 15.1053 17.2713 15.2056 17.256C15.2989 17.2418 15.4516 17.2043 15.5449 17.173C15.6383 17.1414 15.791 17.0731 15.8843 17.021C15.9776 16.9688 16.1422 16.8433 16.2503 16.7421C16.3581 16.6408 16.4861 16.5013 16.5346 16.4323C16.5981 16.3416 16.6143 16.302 16.5927 16.2899C16.5763 16.2805 16.124 16.2727 15.5874 16.2727C14.7529 16.2723 14.6065 16.2673 14.5754 16.238C14.5556 16.2192 14.5391 16.1754 14.5391 16.1408C14.5393 16.1063 14.6084 15.934 14.6932 15.7579C14.7778 15.5819 14.8978 15.3403 14.9596 15.2207C15.0216 15.1011 15.0859 14.9873 15.1026 14.9672C15.1193 14.9473 15.1574 14.9189 15.1874 14.9043C15.2274 14.8849 15.6666 14.878 16.8235 14.8787C18.0887 14.8796 18.4103 14.8739 18.4321 14.8501C18.4469 14.8339 18.4782 14.764 18.5015 14.6949C18.5247 14.6259 18.5979 14.4663 18.6641 14.3406C18.7303 14.2148 18.8505 14.0194 18.9312 13.9062C19.0121 13.7931 19.1358 13.6335 19.206 13.5519C19.2766 13.4703 19.3978 13.3409 19.4756 13.2648C19.5534 13.1884 19.6932 13.065 19.7865 12.9902C19.8799 12.9155 20.0326 12.8062 20.1259 12.7474C20.2192 12.6887 20.4318 12.5792 20.5985 12.5042C20.765 12.4292 21.0241 12.3307 21.1742 12.2854C21.3242 12.2402 21.5804 12.1778 21.7437 12.1469C21.9071 12.1158 22.1824 12.0797 22.3557 12.0664C22.5702 12.05 22.7598 12.0497 22.9496 12.0653C23.103 12.0779 23.2937 12.0996 23.3737 12.1135C23.4537 12.1277 23.6282 12.1727 23.7615 12.2139C23.8948 12.255 24.0912 12.33 24.1978 12.3805C24.3045 12.431 24.4518 12.5095 24.525 12.5545C24.5982 12.5998 24.6852 12.6549 24.7179 12.677C24.7507 12.6994 24.8488 12.7749 24.9361 12.8451C25.0233 12.9152 25.1535 13.0337 25.2255 13.1079C25.2977 13.1825 25.3968 13.2947 25.4463 13.3576C25.4955 13.4204 25.5861 13.5592 25.6472 13.6662C25.7085 13.7732 25.797 13.9684 25.844 14.1005C25.8911 14.2327 25.947 14.4487 25.9686 14.5806C25.9989 14.7667 26.0052 14.9285 25.9962 15.3007C25.9858 15.722 25.9766 15.81 25.9201 16.0208C25.8848 16.1527 25.8164 16.3534 25.7682 16.4666C25.7199 16.5798 25.6424 16.7393 25.5961 16.8209C25.5495 16.9025 25.4616 17.0415 25.4002 17.1296C25.3389 17.2176 25.2352 17.3513 25.17 17.4267C25.1048 17.5022 24.9739 17.6393 24.8791 17.7315C24.7844 17.8236 24.6249 17.9628 24.525 18.0412C24.4249 18.1194 24.2887 18.2193 24.222 18.263C24.1554 18.3069 24.0136 18.3905 23.907 18.4488C23.8003 18.5073 23.6149 18.5956 23.4949 18.6452C23.3749 18.6948 23.1515 18.7737 22.998 18.8203C22.8126 18.877 22.5976 18.9213 22.3557 18.9527C22.1408 18.9803 21.8584 18.9998 21.665 19C21.4311 19.0004 21.2512 18.986 21.0348 18.9495C20.868 18.9213 20.6336 18.8667 20.5137 18.8279C20.3937 18.7892 20.2083 18.7165 20.1016 18.6665C19.995 18.6164 19.8314 18.5291 19.7381 18.4724C19.6448 18.4157 19.4819 18.3014 19.3762 18.2182C19.2708 18.135 19.1115 17.9845 19.0228 17.8839C18.9341 17.7834 18.8284 17.6549 18.7879 17.5982C18.7475 17.5415 18.6757 17.4233 18.6285 17.3353C18.5812 17.2473 18.5143 17.1007 18.4799 17.0095C18.4416 16.9085 18.4052 16.8468 18.3868 16.8513C18.3701 16.8555 18.3403 16.8888 18.3202 16.9252C18.3 16.9618 18.2302 17.069 18.1646 17.1634C18.0991 17.258 17.9956 17.397 17.9348 17.4725C17.8742 17.5479 17.7261 17.7063 17.6056 17.8245C17.4854 17.9427 17.2888 18.1128 17.1689 18.2024C17.0489 18.2922 16.8744 18.4086 16.7811 18.4609C16.6877 18.5133 16.5186 18.5974 16.4054 18.6475C16.2922 18.6975 16.0794 18.7753 15.9327 18.8201C15.7665 18.8711 15.5362 18.9188 15.3207 18.9472C15.1264 18.9728 14.843 18.9927 14.6724 18.9927C14.5056 18.9927 14.2468 18.9762 14.0967 18.9563C13.9467 18.9362 13.7094 18.8843 13.5696 18.8409C13.4297 18.7974 13.2116 18.7094 13.0848 18.6457C12.958 18.5819 12.7944 18.4909 12.7212 18.4433C12.648 18.3958 12.5169 18.3014 12.4304 18.2337C12.3439 18.166 12.2072 18.0389 12.1267 17.9516C12.0462 17.8641 11.9359 17.7308 11.8817 17.6553C11.8271 17.5799 11.7362 17.4309 11.6795 17.3239C11.6228 17.2169 11.5404 17.0214 11.4968 16.8895C11.4495 16.7471 11.4 16.524 11.3751 16.3409C11.3438 16.1107 11.337 15.9568 11.3489 15.7351C11.3576 15.5716 11.3853 15.3403 11.4105 15.2207C11.4357 15.1011 11.4849 14.9162 11.5198 14.8092C11.5549 14.7022 11.6424 14.5017 11.7144 14.3634C11.7866 14.2251 11.9132 14.0141 11.9958 13.8948C12.0782 13.7752 12.2086 13.6056 12.2852 13.5176C12.3618 13.4296 12.5104 13.2764 12.6153 13.1772C12.7203 13.0782 12.9042 12.9253 13.0242 12.8375C13.1442 12.7497 13.3349 12.6265 13.4484 12.5634C13.5618 12.5003 13.7145 12.4233 13.7877 12.3922C13.8609 12.3609 13.992 12.3071 14.0786 12.2726C14.1651 12.2379 14.3561 12.1773 14.5027 12.1378C14.6494 12.098 14.884 12.0516 15.0238 12.0344C15.1637 12.0173 15.4364 12.002 15.6298 12.0001ZM22.1618 13.7352C22.0952 13.7467 22.0133 13.7661 21.9801 13.7782C21.9466 13.7903 21.854 13.8175 21.774 13.8386C21.6941 13.8596 21.5578 13.9106 21.4711 13.952C21.3843 13.9931 21.2481 14.0727 21.1681 14.1287C21.0881 14.1844 20.9747 14.2757 20.9163 14.3312C20.8576 14.3865 20.7691 14.4835 20.7197 14.5463C20.6702 14.6092 20.5883 14.7377 20.5379 14.8321C20.4873 14.9263 20.416 15.1011 20.3796 15.2207C20.3433 15.3403 20.3057 15.5099 20.2963 15.5979C20.2858 15.6941 20.2907 15.8309 20.3081 15.9408C20.3241 16.0414 20.369 16.2007 20.4078 16.2951C20.4465 16.3893 20.518 16.5233 20.5668 16.5923C20.6155 16.6614 20.7112 16.7695 20.7796 16.8324C20.8482 16.8952 20.9689 16.9842 21.0481 17.0301C21.1274 17.0761 21.2958 17.1478 21.4226 17.1897C21.6388 17.261 21.6722 17.2656 21.9679 17.2647C22.2581 17.264 22.3012 17.258 22.5133 17.1899C22.64 17.1492 22.8199 17.0763 22.9132 17.0276C23.0065 16.9791 23.1483 16.8932 23.2283 16.8367C23.3083 16.7805 23.4331 16.6742 23.5056 16.6006C23.578 16.5269 23.6728 16.4204 23.7162 16.3637C23.7593 16.307 23.8325 16.1836 23.8791 16.0894C23.9254 15.995 23.9881 15.8304 24.0184 15.7236C24.0599 15.5771 24.0735 15.4676 24.0732 15.2779C24.0732 15.0826 24.0609 14.9882 24.018 14.8549C23.9879 14.7605 23.9232 14.6122 23.8745 14.5251C23.8258 14.438 23.7194 14.2992 23.6384 14.2164C23.5574 14.1339 23.4266 14.0253 23.3475 13.9753C23.2685 13.9252 23.1006 13.85 22.9738 13.8082C22.7923 13.7483 22.6948 13.7302 22.5133 13.7231C22.3865 13.7183 22.2285 13.7236 22.1618 13.7352ZM11.0549 13.7631C11.178 13.7599 11.2721 13.7672 11.2791 13.7805C11.2856 13.7931 11.2469 13.8626 11.1928 13.9348C11.1388 14.007 11.0762 14.0733 11.0534 14.0818C11.0309 14.0903 10.2189 14.098 9.24919 14.0989C8.0962 14.1001 7.48178 14.0925 7.47378 14.0777C7.46699 14.0651 7.49559 14.0162 7.5368 13.9691C7.57824 13.922 7.62769 13.8628 7.64635 13.8377C7.68004 13.7928 7.71567 13.7917 9.2618 13.7803C10.1314 13.7736 10.9383 13.7661 11.0549 13.7631ZM8.53418 14.6053C10.6596 14.6035 10.7822 14.6058 10.7827 14.6435C10.783 14.6654 10.7665 14.7297 10.7456 14.7864C10.725 14.8431 10.6894 14.9023 10.6664 14.9183C10.6334 14.9411 10.1421 14.9473 8.3221 14.9473C7.05568 14.9475 6.01127 14.9423 6.00134 14.9356C5.9914 14.929 6.03794 14.8575 6.10507 14.7765C6.17221 14.6958 6.24032 14.6245 6.25656 14.6183C6.2728 14.6122 7.29781 14.6062 8.53418 14.6053ZM10.5762 15.4607L10.5823 15.5693C10.5857 15.629 10.5774 15.6985 10.5641 15.7236C10.5403 15.7684 10.5156 15.7694 9.44915 15.7694C8.84927 15.7694 8.3587 15.7616 8.35894 15.7522C8.35918 15.7428 8.38803 15.6889 8.42293 15.6322C8.45783 15.5755 8.50291 15.5113 8.52327 15.4891C8.55745 15.4516 8.63113 15.4493 10.5762 15.4607Z" fill="black"/>
</svg>
