<svg width="30" height="30" viewBox="0 0 30 30" fill="none" xmlns="http://www.w3.org/2000/svg">
<g clip-path="url(#clip0_2025_23274)">
<path d="M18.043 10.4919H18.1284L18.0857 10.4492L21.074 7.46087V7.39683C18.5553 5.17692 15.076 4.40849 11.8529 5.36903C8.62971 6.32957 6.15365 8.891 5.25715 12.1355C5.29984 12.1141 5.36388 12.0928 5.42791 12.0928C6.53787 11.3671 7.86128 10.9402 9.24873 10.9402C9.71832 10.9402 10.1666 10.9828 10.6148 11.0682C10.6362 11.0469 10.6575 11.0469 10.6789 11.0469C12.5999 8.9337 15.8444 8.67755 18.0643 10.4919H18.043Z" fill="#EA4535"/>
<path d="M23.913 12.0928C23.422 10.2785 22.3974 8.63486 20.9673 7.37549L17.9149 10.4065C19.1956 11.4524 19.9427 13.032 19.9 14.6756V15.2092C23.5074 15.2092 23.5074 20.5882 19.9 20.5882H14.4783V24.8573H14.457L14.4783 24.9H19.9C23.0165 24.9213 25.77 22.9149 26.6878 19.9692C27.6057 17.0236 26.4744 13.8218 23.913 12.0928Z" fill="#557EBF"/>
<path d="M9.16334 24.9213H14.7772V20.6096H9.16334C8.75778 20.6096 8.37357 20.5242 8.0107 20.3748L4.76621 23.4912V23.5339C6.04693 24.4517 7.58379 24.9427 9.18469 24.9427L9.16334 24.9213Z" fill="#36A852"/>
<path d="M9.41949 10.8335C6.23904 10.8548 3.42146 12.8186 2.39688 15.7002C1.3723 18.6032 2.39688 21.7836 4.91563 23.662L8.2455 20.4816C6.4098 19.6918 5.98289 17.3865 7.39168 16.0418C8.80047 14.6757 11.1911 15.1026 12.0236 16.8529L15.3535 13.6724C13.9447 11.9008 11.7461 10.8548 9.41949 10.8762V10.8335Z" fill="#F9BC15"/>
</g>
<defs>
<clipPath id="clip0_2025_23274">
<rect width="25" height="25" fill="white" transform="translate(2 3)"/>
</clipPath>
</defs>
</svg>
