<?xml version="1.0" encoding="UTF-8"?>
<svg xmlns="http://www.w3.org/2000/svg" width="26" height="28" viewBox="0 0 26 28" fill="none">
  <path d="M9.6207 19.4922H8.00805V9.34161H5.90925V19.4922H4.29661V9.34161H2.19781V19.4922H0.596434C0.265591 19.4922 0 19.769 0 20.0999V20.9281C0 21.2703 0.265585 21.5358 0.596434 21.5358H11.0455V20.3981C11.0455 19.8017 11.2998 19.2604 11.7196 18.8958V9.34155H9.62075L9.6207 19.4922Z" fill="white"></path>
  <path d="M13.7883 15.1181C14.1755 14.731 14.6942 14.5104 15.2468 14.5104C15.3132 14.5104 15.3683 14.5104 15.4347 14.5217V9.3418H13.3359V15.5718L13.7883 15.1194L13.7883 15.1181Z" fill="white"></path>
  <path d="M18.1182 13.329H19.1457V9.3418H17.0469V13.6496C17.3563 13.4403 17.7322 13.33 18.1182 13.33V13.329Z" fill="white"></path>
  <path d="M0.459113 7.90122H20.8888C21.142 7.90122 21.3479 7.69528 21.3479 7.44206V5.48057C21.3479 5.30501 21.2489 5.14632 21.0913 5.06868L10.8765 0.0472648C10.7482 -0.0157549 10.5986 -0.0157549 10.4714 0.0472648L0.256579 5.06868C0.0990283 5.14633 0 5.30613 0 5.48057V7.44206C0 7.69526 0.205893 7.90122 0.459113 7.90122ZM10.6739 2.69657C11.4909 2.69657 12.1526 3.35941 12.1526 4.17528C12.1526 4.99228 11.4898 5.654 10.6739 5.654C9.85694 5.654 9.19523 4.99116 9.19523 4.17528C9.19523 3.35829 9.85694 2.69657 10.6739 2.69657Z" fill="white"></path>
  <path d="M24.5571 19.7803L23.4081 19.6137C23.2641 19.2649 23.2258 19.1715 23.0807 18.8237L23.7761 17.8931C23.9607 17.6444 23.9359 17.2978 23.7176 17.0794L22.7746 16.1364C22.5551 15.917 22.2085 15.8922 21.961 16.0779L21.0292 16.7722C20.6814 16.6282 20.588 16.5899 20.2392 16.4448L20.0726 15.2958C20.0276 14.9897 19.7654 14.7612 19.4559 14.7612H18.1213C17.8118 14.7612 17.5484 14.9886 17.5034 15.2958L17.3369 16.4448C16.988 16.5888 16.8958 16.6271 16.5469 16.7722L15.6162 16.0779C15.3675 15.8922 15.0209 15.9181 14.8026 16.1364L13.8596 17.0794C13.6401 17.2989 13.6142 17.6455 13.7999 17.8931L14.4976 18.826C14.3536 19.1726 14.3153 19.266 14.1713 19.6137L13.0189 19.7814C12.7117 19.8264 12.4844 20.0886 12.4844 20.3992V21.7339C12.4844 22.0434 12.7117 22.3067 13.0178 22.3506L14.1668 22.5183C14.3108 22.866 14.3502 22.9594 14.4943 23.3083L13.7999 24.2389C13.6142 24.4876 13.6401 24.8343 13.8596 25.0526L14.8026 25.9967C15.022 26.215 15.3686 26.2409 15.6162 26.0552L16.5469 25.3609C16.8957 25.5061 16.9892 25.5443 17.3369 25.6872L17.5034 26.8374C17.5485 27.1446 17.8107 27.3719 18.1213 27.3719H19.4559C19.7654 27.3719 20.0287 27.1446 20.0726 26.8374L20.2392 25.6872C20.588 25.5432 20.6814 25.5049 21.0292 25.3609L21.961 26.0552C22.2097 26.2409 22.5551 26.215 22.7746 25.9967L23.7176 25.0526C23.9371 24.8331 23.9618 24.4877 23.7761 24.2389L23.0807 23.3083C23.2247 22.9594 23.2641 22.866 23.4081 22.5183L24.5571 22.3506C24.8643 22.3067 25.0917 22.0434 25.0917 21.7339V20.3992C25.0917 20.0886 24.8644 19.8264 24.5571 19.7814V19.7803ZM18.7864 23.3083C17.5462 23.3083 16.5424 22.3033 16.5424 21.0643C16.5424 19.8241 17.5474 18.8203 18.7864 18.8203C20.0265 18.8203 21.0303 19.8241 21.0303 21.0643C21.0303 22.3044 20.0254 23.3083 18.7864 23.3083Z" fill="white"></path>
</svg>
