<?xml version="1.0" encoding="UTF-8"?>
<svg xmlns="http://www.w3.org/2000/svg" width="27" height="27" viewBox="0 0 27 27" fill="none">
  <path d="M25.0827 7.22133L13.6107 0.08C13.44 -0.0266667 13.2213 -0.0266667 13.0507 0.08L1.57867 7.22133C1.424 7.31733 1.328 7.488 1.328 7.67467V9.744C1.328 10.0373 1.568 10.2773 1.86133 10.2773H24.8C25.0933 10.2773 25.3333 10.0373 25.3333 9.744V7.67467C25.3333 7.488 25.2373 7.31733 25.0827 7.22133ZM13.3333 8.304C12.112 8.304 11.12 7.312 11.12 6.09067C11.12 4.86933 12.112 3.87733 13.3333 3.87733C14.5547 3.87733 15.5467 4.86933 15.5467 6.09067C15.5467 7.312 14.5547 8.304 13.3333 8.304ZM18.9493 11.344H22.896V19.4773H18.9493V11.344ZM11.36 11.344H15.3067V19.4773H11.36V11.344ZM3.76533 11.344H7.712V19.4773H3.76533V11.344ZM26.6667 23.5947V26.1333C26.6667 26.4267 26.4267 26.6667 26.1333 26.6667H0.533333C0.234667 26.6667 0 26.4267 0 26.1333V23.5947C0 23.3013 0.234667 23.0613 0.533333 23.0613H1.81333V21.0773C1.81333 20.784 2.05333 20.544 2.34667 20.544H24.32C24.6133 20.544 24.8533 20.784 24.8533 21.0773V23.0613H26.1333C26.4267 23.0613 26.6667 23.3013 26.6667 23.5947Z" fill="#FF8727"></path>
</svg>
