<?xml version="1.0" encoding="UTF-8"?>
<svg xmlns="http://www.w3.org/2000/svg" width="20" height="20" viewBox="0 0 20 20" fill="none">
  <g clip-path="url(#clip0_3134_820)">
    <path d="M9.99867 5.15574C10.5171 5.15574 10.9388 4.73398 10.9388 4.21562C10.9388 3.69715 10.517 3.27539 9.99867 3.27539C9.48031 3.27539 9.05859 3.69715 9.05859 4.21562C9.05859 4.73398 9.48031 5.15574 9.99867 5.15574ZM9.99867 3.86133C10.194 3.86133 10.3528 4.02031 10.3528 4.21562C10.3528 4.41078 10.194 4.5698 9.99867 4.5698C9.80336 4.5698 9.64453 4.41094 9.64453 4.21562C9.64453 4.02031 9.80336 3.86133 9.99867 3.86133Z" fill="white"></path>
    <path d="M19.707 18.0376H19.3529V17.0363C19.3529 16.8746 19.2216 16.7434 19.0599 16.7434H18.0586V15.7421C18.0586 15.6644 18.0277 15.5899 17.9728 15.5349C17.9178 15.48 17.8433 15.4491 17.7656 15.4491H17.4116V9.03783H17.7656C17.8433 9.03783 17.9178 9.00696 17.9728 8.95202C18.0277 8.89707 18.0586 8.82256 18.0586 8.74486V7.74357H19.0599C19.1376 7.74357 19.2121 7.7127 19.267 7.65776C19.322 7.60282 19.3529 7.5283 19.3529 7.4506V6.15638C19.3529 6.07868 19.322 6.00416 19.267 5.94922C19.2121 5.89428 19.1376 5.86341 19.0599 5.86341H18.5043L10.1668 0.0911459C10.1178 0.0572311 10.0596 0.0390625 10 0.0390625C9.9404 0.0390625 9.88221 0.0572311 9.8332 0.0911459L1.49582 5.86341H0.940078C0.862378 5.86341 0.78786 5.89428 0.732918 5.94922C0.677976 6.00416 0.647109 6.07868 0.647109 6.15638V7.4506C0.647109 7.61236 0.778359 7.74357 0.940078 7.74357H1.94141V8.74486C1.94141 8.90658 2.07266 9.03783 2.23438 9.03783H2.58855V15.4492H2.23438C2.15667 15.4492 2.08216 15.48 2.02721 15.535C1.97227 15.5899 1.94141 15.6644 1.94141 15.7421V16.7434H0.940078C0.778359 16.7434 0.647109 16.8746 0.647109 17.0363V18.0376H0.292969C0.254491 18.0376 0.216388 18.0452 0.180836 18.0599C0.145285 18.0746 0.112982 18.0962 0.0857742 18.1234C0.0585665 18.1506 0.0369872 18.1829 0.0222696 18.2185C0.00755197 18.254 -1.53768e-05 18.2921 2.34584e-08 18.3306V19.6247C2.34584e-08 19.7866 0.131055 19.9177 0.292969 19.9177H19.707C19.8689 19.9177 20 19.7866 20 19.6247V18.3306C20 18.2529 19.9691 18.1783 19.9142 18.1234C19.8592 18.0685 19.7847 18.0376 19.707 18.0376V18.0376ZM17.4727 16.7434H14.823V16.0351H17.4727V16.7434ZM15.47 15.4491V9.03783H16.8255V15.4492L15.47 15.4491ZM17.4727 8.45189H14.823V7.74357H17.4727L17.4727 8.45189ZM14.53 9.03783H14.884V15.4492H14.53C14.4916 15.4491 14.4535 15.4567 14.4179 15.4714C14.3824 15.4861 14.3501 15.5077 14.3228 15.5349C14.2956 15.5621 14.2741 15.5944 14.2593 15.63C14.2446 15.6655 14.2371 15.7036 14.2371 15.7421V16.7434H11.9109V15.7421C11.9109 15.6644 11.88 15.5899 11.8251 15.5349C11.7701 15.48 11.6956 15.4491 11.6179 15.4491H11.2637V9.03783H11.6179C11.7796 9.03783 11.9109 8.90658 11.9109 8.74486V7.74357H14.237V8.74486C14.237 8.82256 14.2679 8.89707 14.3228 8.95202C14.3778 9.00696 14.4523 9.03783 14.53 9.03783H14.53ZM8.67523 7.74357H11.3249V8.45189H8.67523V7.74357ZM9.32219 9.03783H10.6778V15.4492H9.32219V9.03783ZM11.3249 16.0351V16.7434H8.67523V16.0351L11.3249 16.0351ZM1.23305 6.44931H6.3457C6.4234 6.44931 6.49792 6.41844 6.55286 6.3635C6.60781 6.30856 6.63867 6.23404 6.63867 6.15634C6.63867 5.99443 6.50762 5.86337 6.3457 5.86337H2.5252L10 0.688412L17.475 5.86341H7.51758C7.43988 5.86341 7.36536 5.89428 7.31042 5.94922C7.25548 6.00416 7.22461 6.07868 7.22461 6.15638C7.22461 6.23408 7.25548 6.3086 7.31042 6.36354C7.36536 6.41848 7.43988 6.44935 7.51758 6.44935H18.767V7.15763H1.23305V6.44931ZM2.52734 7.74357H5.17719V8.45189H2.52734V7.74357ZM4.53008 9.03783V15.4492H3.17445V9.03783H4.53008ZM2.52734 16.0351H5.17719V16.7434H2.52734V16.0351ZM5.47016 15.4492H5.11602V9.03783H5.47016C5.63187 9.03783 5.76312 8.90658 5.76312 8.74486V7.74357H8.0893V8.74486C8.0893 8.82256 8.12016 8.89707 8.17511 8.95202C8.23005 9.00696 8.30457 9.03783 8.38227 9.03783H8.73629V15.4492H8.3823C8.34383 15.4491 8.30572 15.4567 8.27017 15.4714C8.23462 15.4861 8.20232 15.5077 8.17511 15.5349C8.1479 15.5621 8.12632 15.5944 8.11161 15.63C8.09689 15.6655 8.08932 15.7036 8.08934 15.7421V16.7434H5.76316V15.7421C5.76316 15.6644 5.7323 15.5899 5.67736 15.5349C5.62241 15.48 5.5479 15.4491 5.4702 15.4491L5.47016 15.4492ZM1.23305 17.3293H18.767V18.0376H1.23305V17.3293ZM19.4141 19.3319H0.585938V18.6236H19.4141V19.3319Z" fill="white"></path>
  </g>
  <defs>
    <clipPath id="clip0_3134_820">
      <rect width="20" height="20" fill="white"></rect>
    </clipPath>
  </defs>
</svg>
