<svg width="30" height="30" viewBox="0 0 30 30" fill="none" xmlns="http://www.w3.org/2000/svg">
<g clip-path="url(#clip0_2027_30983)">
<path d="M15.5 28C22.4036 28 28 22.4036 28 15.5C28 8.59644 22.4036 3 15.5 3C8.59644 3 3 8.59644 3 15.5C3 22.4036 8.59644 28 15.5 28Z" fill="#6747ED"/>
<path fill-rule="evenodd" clip-rule="evenodd" d="M15.3177 17.1146C13.4688 17.1146 11.9844 15.6302 11.9844 13.7813C11.9844 11.9323 13.4688 10.4479 15.3177 10.4479C17.1667 10.4479 18.6511 11.9323 18.6511 13.7813C18.6511 15.6302 17.1667 17.1146 15.3177 17.1146ZM15.3177 8.78125C18.0781 8.78125 20.3177 11.0208 20.3177 13.7813C20.3177 16.5417 18.0781 18.7812 15.3177 18.7812C12.5573 18.7812 10.3177 16.5417 10.3177 13.7813C10.3177 11.0208 12.5573 8.78125 15.3177 8.78125ZM20.0833 19.0417C20.4219 19.3802 20.4219 19.901 20.0833 20.2135L16.75 23.5469C16.4115 23.8854 15.8906 23.8854 15.5781 23.5469C15.2396 23.2083 15.2396 22.6875 15.5781 22.375L18.9115 19.0417C19.224 18.7031 19.7708 18.7031 20.0833 19.0417ZM22.0104 9.61458C22.0104 10.0833 21.6458 10.4479 21.1771 10.4479C20.7083 10.4479 20.3438 10.0833 20.3438 9.61458C20.3438 9.14583 20.7083 8.78125 21.1771 8.78125C21.6198 8.78125 22.0104 9.14583 22.0104 9.61458Z" fill="white"/>
</g>
<defs>
<clipPath id="clip0_2027_30983">
<rect width="25" height="25" fill="white" transform="translate(3 3)"/>
</clipPath>
</defs>
</svg>
