<?xml version="1.0" encoding="UTF-8"?>
<svg xmlns="http://www.w3.org/2000/svg" width="25" height="32" viewBox="0 0 25 32" fill="none">
  <path d="M24.6739 16.0649V29.5024C24.6739 30.9087 23.7927 32.0024 22.6677 32.0024H19.9239C18.7989 32.0024 17.9177 30.9024 17.9177 29.5024V16.0649C17.9177 14.6587 18.7989 13.5649 19.9239 13.5649H22.6677C23.7864 13.5649 24.6739 14.6649 24.6739 16.0649ZM24.7177 8.18369C24.5302 8.31494 24.2864 8.32119 24.0864 8.20244L22.2114 7.07744C19.1239 12.1899 14.7677 17.0024 6.35518 17.0024C4.58018 17.0024 2.62393 16.7899 0.461427 16.3149C0.148927 16.2462 -0.0510723 15.9399 0.0114277 15.6212C0.0739277 15.3337 0.336428 15.1399 0.630178 15.1649C1.15518 15.2087 13.3552 16.0274 18.4802 4.74619L16.5614 3.81494C16.2739 3.67744 16.1489 3.32744 16.2864 3.03994C16.3489 2.90869 16.4552 2.80869 16.5864 2.75244L22.9552 0.0461919C23.2489 -0.0788081 23.5927 0.0586919 23.7177 0.352442C23.7364 0.396192 23.7489 0.439942 23.7552 0.483692L24.9614 7.60244C25.0052 7.82744 24.9052 8.05869 24.7177 8.18369ZM15.8677 21.0024V29.5024C15.8677 30.9087 14.9864 32.0024 13.8614 32.0024H11.1114C9.98643 32.0024 9.10518 30.9024 9.10518 29.5024V21.0024C9.10518 19.5962 9.98643 18.5024 11.1114 18.5024H13.8552C14.9864 18.4962 15.8677 19.5962 15.8677 21.0024ZM7.25518 25.1149V29.5024C7.25518 30.9024 6.37393 32.0024 5.24893 32.0024H2.49893C1.37393 32.0024 0.492677 30.9024 0.492677 29.5024V25.1149C0.492677 23.7087 1.37393 22.6149 2.49893 22.6149H5.24268C6.37393 22.6087 7.25518 23.7087 7.25518 25.1149Z" fill="white"></path>
</svg>
