<?xml version="1.0" encoding="UTF-8"?>
<svg xmlns="http://www.w3.org/2000/svg" width="30" height="30" viewBox="0 0 30 30" fill="none">
  <path fill-rule="evenodd" clip-rule="evenodd" d="M16.7862 27.4221C16.7656 27.6935 16.6886 27.9577 16.5602 28.1977L16.0545 29.1431C16.2389 29.249 16.4269 29.3601 16.6109 29.4611C17.0499 29.7025 17.6059 29.5186 17.8441 29.0847C18.0904 28.6368 17.9223 28.0733 17.4782 27.8244C17.2488 27.6958 17.0177 27.5531 16.7862 27.4221ZM10.5022 17.8186C11.8794 19.2962 13.4724 18.6517 14.9862 18.0389C16.369 17.4791 17.6969 16.9415 18.9621 17.6626L23.8849 20.4685C24.0875 20.5836 24.2679 20.7339 24.4176 20.9124L25.1499 20.6069L22.6392 14.1306C21.521 14.729 20.7092 14.3853 19.61 13.9359C18.41 13.4454 17.0039 12.8707 15.0902 14.1835C14.045 14.8976 13.206 15.9142 12.1501 16.7071C11.6267 17.1 11.0762 17.4701 10.5022 17.8186ZM10.7332 22.8549C10.334 22.6416 9.87311 22.5733 9.42917 22.6618C9.35055 22.0289 8.97236 21.4703 8.40698 21.1686C7.63655 20.7574 6.68298 20.9081 6.07517 21.5299C5.95392 20.9026 5.78573 20.2917 5.07698 20.0166C5.03461 20.0002 4.96392 19.9706 4.87142 19.9308L7.6973 13.5373L8.02261 13.6874C9.01167 14.2366 9.92873 14.0217 10.9251 13.7882C11.8212 13.5782 12.7952 13.35 13.8981 13.8365C13.0932 14.5068 12.3948 15.2777 11.5524 15.9102C10.975 16.3438 10.3417 16.7589 9.66098 17.1561C9.31255 17.3596 9.22242 17.8271 9.46986 18.1458C11.3639 20.5829 13.4165 19.7519 15.3612 18.9647C16.516 18.4972 17.6249 18.0483 18.4699 18.5299L23.3927 21.3358C23.831 21.5856 24.0101 22.1411 23.764 22.5922C23.5108 23.0305 22.9737 23.2126 22.5207 22.9664C21.3938 22.3216 20.2543 21.6962 19.1267 21.0508C19.0698 21.0182 19.007 20.9971 18.9419 20.9888C18.8769 20.9805 18.8108 20.9851 18.7475 21.0024C18.6842 21.0196 18.6249 21.0491 18.573 21.0893C18.5211 21.1294 18.4777 21.1794 18.4451 21.2363C18.4125 21.2933 18.3915 21.3561 18.3832 21.4211C18.3749 21.4862 18.3795 21.5523 18.3967 21.6156C18.4139 21.6789 18.4435 21.7381 18.4836 21.79C18.5238 21.8419 18.5737 21.8854 18.6307 21.9179C19.7574 22.5629 20.8901 23.1976 22.0228 23.832C22.4657 24.0813 22.6373 24.6407 22.3905 25.0894C22.1521 25.5229 21.5751 25.706 21.139 25.4552L16.68 22.9461C16.6228 22.9139 16.5598 22.8933 16.4946 22.8854C16.4294 22.8776 16.3633 22.8826 16.3001 22.9004C16.2368 22.9181 16.1777 22.9481 16.1261 22.9887C16.0745 23.0293 16.0314 23.0797 15.9993 23.137C15.9672 23.1943 15.9467 23.2573 15.939 23.3226C15.9313 23.3878 15.9365 23.4539 15.9544 23.517C15.9723 23.5802 16.0025 23.6393 16.0432 23.6908C16.0839 23.7423 16.1344 23.7853 16.1917 23.8172C17.405 24.4999 18.6155 25.1937 19.8285 25.8741C20.2757 26.1258 20.443 26.6861 20.1938 27.1376C19.9462 27.5798 19.3845 27.7412 18.9407 27.4958L16.3488 26.0287C16.1849 25.828 15.9826 25.6619 15.7538 25.5401C15.519 25.4144 15.2611 25.3378 14.9957 25.3152C14.7303 25.2925 14.4631 25.3243 14.2104 25.4084C14.067 24.8883 13.7212 24.4524 13.2435 24.1975C13.0087 24.0719 12.7508 23.9954 12.4854 23.9728C12.2201 23.9501 11.9529 23.9818 11.7002 24.0659C11.557 23.5458 11.2108 23.1097 10.7332 22.8549ZM13.0113 28.7218C12.9395 29.1298 13.1395 29.5481 13.506 29.7441C13.9735 29.9942 14.5631 29.8156 14.8132 29.348L15.6798 27.7275C15.93 27.2597 15.7474 26.6682 15.2838 26.4204C14.8947 26.2125 14.4039 26.3001 14.1092 26.6274L13.0113 28.7218ZM13.253 26.1698C13.3614 25.7426 13.1639 25.2863 12.7737 25.078C12.3845 24.8703 11.8937 24.9574 11.5989 25.2848L10.3734 27.6354C10.3135 28.0373 10.5124 28.4405 10.8721 28.6328C11.2964 28.8598 11.8325 28.7344 12.1126 28.3438L13.253 26.1698ZM10.7427 24.8272C10.8512 24.4001 10.6536 23.9436 10.2635 23.7354C9.90198 23.5424 9.45386 23.6015 9.15273 23.8774L7.73123 26.4211C7.48117 26.8886 7.65992 27.4783 8.12742 27.7283C8.60048 27.9813 9.18573 27.7969 9.43798 27.3258L10.7427 24.8272ZM8.35998 23.3014C8.56936 22.8423 8.38286 22.2869 7.93723 22.0491C7.46948 21.7994 6.87998 21.9772 6.62973 22.445L5.72586 24.1349C5.47586 24.6024 5.65455 25.192 6.12205 25.442C6.48155 25.6342 6.92698 25.5763 7.22805 25.3038L8.35998 23.3014ZM15 0L21.5713 2.81625V8.12981C21.5713 9.99687 20.931 11.6598 19.8492 12.9587C19.4457 12.7945 19.0219 12.6284 18.5685 12.5126C18.6785 12.3992 18.7843 12.2817 18.8854 12.1602C19.788 11.077 20.3213 9.694 20.3213 8.12981V3.97019C20.3213 3.8662 20.2889 3.7648 20.2285 3.68009C20.1682 3.59538 20.083 3.53158 19.9847 3.49756L15.1953 1.44494C15.1336 1.41859 15.0671 1.40501 15 1.40501C14.9329 1.40501 14.8664 1.41859 14.8047 1.44494L9.98336 3.51119C9.89332 3.54949 9.81652 3.61343 9.76254 3.69504C9.70855 3.77665 9.67976 3.87234 9.67973 3.97019L9.67867 8.12981C9.67867 9.69394 10.212 11.077 11.1145 12.1602C11.2519 12.325 11.3976 12.4826 11.551 12.6325C11.2592 12.6843 10.9757 12.7507 10.6985 12.8156C10.5072 12.8604 10.3195 12.9044 10.1357 12.9405C9.06305 11.6442 8.42867 9.98812 8.42867 8.12981V2.81625L15 0ZM15 2.44662L10.6787 4.29856V8.12975C10.6787 9.45294 11.1249 10.6171 11.8802 11.5235C12.2118 11.9214 12.6036 12.2709 13.044 12.5637C13.5929 12.6271 14.1757 12.8065 14.8027 13.1793C15.7094 12.6131 16.5134 12.3894 17.2411 12.361C17.5648 12.116 17.8596 11.835 18.1198 11.5234C18.875 10.617 19.3213 9.45294 19.3213 8.12969V4.29856L15 2.44662ZM18.0568 6.79875C16.99 7.87544 15.9304 8.95919 14.8587 10.031C14.5454 10.3443 14.0371 10.3443 13.7238 10.031L11.9457 8.25294C11.6324 7.93962 11.6324 7.43138 11.9457 7.11806C12.259 6.80475 12.7673 6.80475 13.0805 7.11806L14.2894 8.32694L16.9202 5.66994C17.2316 5.35544 17.7397 5.3545 18.0533 5.66644C18.3669 5.97819 18.3679 6.48481 18.0568 6.79875ZM29.9414 20.1011L26.359 10.8606C26.1859 10.4138 25.6785 10.19 25.2317 10.3632L23.4529 11.0528C23.0062 11.226 22.7823 11.7333 22.9555 12.1801L26.5378 21.4206C26.711 21.8674 27.2183 22.0912 27.6651 21.918L29.4439 21.2284C29.8907 21.0553 30.1145 20.5479 29.9414 20.1011ZM24.9929 12.9789C24.6655 12.9789 24.4001 12.7136 24.4001 12.3861C24.4001 12.0587 24.6655 11.7933 24.9929 11.7933C25.1501 11.7933 25.3009 11.8558 25.412 11.9669C25.5232 12.0781 25.5857 12.2289 25.5857 12.3861C25.5857 12.5433 25.5232 12.6941 25.412 12.8053C25.3009 12.9165 25.1501 12.9789 24.9929 12.9789ZM6.97455 10.5436L5.22955 9.77238C4.79123 9.57862 4.27411 9.77875 4.08042 10.2171L0.0739841 19.2817C-0.119766 19.7201 0.0803591 20.2371 0.518672 20.4309L2.26367 21.2021C2.70192 21.3959 3.21905 21.1957 3.41273 20.7574L7.41923 11.6927C7.61292 11.2544 7.41286 10.7374 6.97455 10.5436ZM5.34705 12.3963C5.02005 12.3811 4.76717 12.1038 4.78236 11.7767C4.79755 11.4496 5.07492 11.1968 5.40198 11.212C5.72905 11.2271 5.98186 11.5046 5.96667 11.8316C5.95148 12.1586 5.67405 12.4115 5.34705 12.3963Z" fill="white"></path>
</svg>
