<svg width="30" height="30" viewBox="0 0 30 30" fill="none" xmlns="http://www.w3.org/2000/svg">
<path d="M26.998 21.3151V20.1017C26.998 19.8761 26.6186 19.661 25.9375 19.4671L25.9539 17.9569C25.9531 15.6276 25.2307 13.3558 23.8859 11.4538C22.5349 9.54349 20.6307 8.09336 18.4299 7.29893L18.3811 6.9962C18.3559 6.83404 18.285 6.68241 18.1768 6.55909C18.0679 6.43532 17.9262 6.3448 17.7682 6.29796C15.6527 5.68291 13.4058 5.68291 11.2902 6.29796C11.1313 6.34464 10.9895 6.43468 10.8801 6.5587C10.7713 6.68172 10.7001 6.83335 10.6748 6.99561L10.6279 7.27784C8.41372 8.06474 6.49545 9.51425 5.13379 11.4294C3.77886 13.3363 3.0505 15.6173 3.04961 17.9566V19.4732C2.37793 19.6665 2.00352 19.8792 2.00352 20.1032V21.3165C1.99271 21.3877 2.00826 21.4604 2.04727 21.521C2.38228 21.2734 2.76619 21.1 3.17344 21.0124C4.2124 20.7617 5.26816 20.5865 6.33242 20.4882C6.63044 20.4548 6.93214 20.4848 7.21779 20.576C7.50344 20.6673 7.7666 20.8179 7.99004 21.0179C8.81544 21.7644 9.88887 22.1774 11.0018 22.1767H18.0006C19.1135 22.1773 20.1868 21.7639 21.0117 21.0169C21.2348 20.8159 21.4978 20.6642 21.7835 20.5719C22.0692 20.4796 22.3712 20.4486 22.6697 20.4812C23.7337 20.5793 24.7892 20.7538 25.8281 21.0034C26.2141 21.0765 26.5788 21.2348 26.8957 21.4669C26.9133 21.4845 26.9348 21.5001 26.9498 21.5165C26.9891 21.4572 27.0064 21.3858 26.998 21.3151Z" fill="#FFF100"/>
<path d="M8.00624 18.7614C7.99682 18.482 7.99181 18.2025 7.9912 17.9229C7.99472 13.7048 8.98964 9.92178 10.6285 7.27979C8.41438 8.06653 6.49612 9.51582 5.13437 11.4308C3.77943 13.3372 3.0508 15.6177 3.04941 17.9565V19.4731C4.67719 19.0884 6.33597 18.8502 8.00624 18.7614Z" fill="url(#paint0_linear_2028_31045)"/>
<path d="M25.9529 17.9564C25.9552 15.3191 25.0299 12.7649 23.3391 10.741C24.0727 13.063 24.4384 15.4855 24.4227 17.9207C24.4227 18.3318 24.4117 18.7376 24.3928 19.1414C24.9119 19.2211 25.4262 19.3295 25.9334 19.466L25.9523 17.9562L25.9529 17.9564Z" fill="url(#paint1_linear_2028_31045)"/>
<path d="M25.8281 21.0079C24.7891 20.7571 23.7333 20.5819 22.6689 20.4835C22.3707 20.4505 22.0689 20.4809 21.7832 20.5726C21.4975 20.6644 21.2344 20.8154 21.0111 21.0159C20.186 21.7628 19.1124 22.176 17.9994 22.1751H11.0033C9.89102 22.1754 8.81826 21.7625 7.99336 21.0163C7.77045 20.8149 7.50746 20.663 7.22168 20.5705C6.93589 20.478 6.63377 20.447 6.33516 20.4796C5.27094 20.578 4.2152 20.7531 3.17617 21.0034C2.76958 21.0922 2.38617 21.2654 2.05078 21.5118C2.58203 22.3179 7.95586 23.1634 14.5035 23.1634C21.0518 23.1634 26.4232 22.3147 26.9555 21.5124C26.9369 21.4964 26.9164 21.4807 26.9008 21.4632C26.58 21.2362 26.2142 21.0809 25.8281 21.0079Z" fill="url(#paint2_radial_2028_31045)"/>
<path d="M14.5 9.39883L11.8203 13.9207L14.5 15.5697V9.39844V9.39883Z" fill="#0A0A0A"/>
<path d="M14.501 9.40039V15.5682L17.1799 13.9223L14.501 9.40039ZM14.501 16.4639V18.6145C14.551 18.5434 17.1799 14.8154 17.1799 14.8137L14.501 16.4643V16.4639Z" fill="#4B4D4D"/>
<path d="M14.501 16.4649L11.8213 14.8169L14.501 18.6161V16.4638V16.4649Z" fill="#0A0A0A"/>
<defs>
<linearGradient id="paint0_linear_2028_31045" x1="6.83892" y1="19.4732" x2="6.83892" y2="7.27985" gradientUnits="userSpaceOnUse">
<stop stop-color="#EDCF00"/>
<stop offset="0.33" stop-color="#F0D500"/>
<stop offset="0.77" stop-color="#F9E500"/>
<stop offset="1" stop-color="#FFF100"/>
</linearGradient>
<linearGradient id="paint1_linear_2028_31045" x1="24.6457" y1="19.5622" x2="24.6457" y2="10.741" gradientUnits="userSpaceOnUse">
<stop stop-color="#EDCF00"/>
<stop offset="0.59" stop-color="#F7E100"/>
<stop offset="1" stop-color="#FFF100"/>
</linearGradient>
<radialGradient id="paint2_radial_2028_31045" cx="0" cy="0" r="1" gradientUnits="userSpaceOnUse" gradientTransform="translate(3.40078 27.8036) scale(9.29223 9.22898)">
<stop stop-color="#FFF100"/>
<stop offset="0.23" stop-color="#F9E500"/>
<stop offset="0.67" stop-color="#F0D500"/>
<stop offset="1" stop-color="#EDCF00"/>
</radialGradient>
</defs>
</svg>
