<?xml version="1.0" encoding="UTF-8"?>
<svg xmlns="http://www.w3.org/2000/svg" width="20" height="20" viewBox="0 0 20 20" fill="none">
  <g clip-path="url(#clip0_3134_809)">
    <path d="M11.8742 4.0625H10.9367V3.125C10.9367 3.04212 10.9038 2.96263 10.8452 2.90403C10.7866 2.84542 10.7071 2.8125 10.6242 2.8125H9.37422C9.29134 2.8125 9.21185 2.84542 9.15325 2.90403C9.09464 2.96263 9.06172 3.04212 9.06172 3.125V4.0625H8.12422C8.04134 4.0625 7.96185 4.09542 7.90325 4.15403C7.84464 4.21263 7.81172 4.29212 7.81172 4.375V5.625C7.81172 5.70788 7.84464 5.78737 7.90325 5.84597C7.96185 5.90458 8.04134 5.9375 8.12422 5.9375H9.06172V6.875C9.06172 6.95788 9.09464 7.03737 9.15325 7.09597C9.21185 7.15458 9.29134 7.1875 9.37422 7.1875H10.6242C10.7071 7.1875 10.7866 7.15458 10.8452 7.09597C10.9038 7.03737 10.9367 6.95788 10.9367 6.875V5.9375H11.8742C11.9571 5.9375 12.0366 5.90458 12.0952 5.84597C12.1538 5.78737 12.1867 5.70788 12.1867 5.625V4.375C12.1867 4.29212 12.1538 4.21263 12.0952 4.15403C12.0366 4.09542 11.9571 4.0625 11.8742 4.0625ZM11.5617 5.3125H10.6242C10.5413 5.3125 10.4619 5.34542 10.4032 5.40403C10.3446 5.46263 10.3117 5.54212 10.3117 5.625V6.5625H9.68672V5.625C9.68672 5.54212 9.6538 5.46263 9.59519 5.40403C9.53658 5.34542 9.4571 5.3125 9.37422 5.3125H8.43672V4.6875H9.37422C9.4571 4.6875 9.53658 4.65458 9.59519 4.59597C9.6538 4.53737 9.68672 4.45788 9.68672 4.375V3.4375H10.3117V4.375C10.3117 4.45788 10.3446 4.53737 10.4032 4.59597C10.4619 4.65458 10.5413 4.6875 10.6242 4.6875H11.5617V5.3125ZM18.6648 5.7375C18.6712 5.68252 18.6743 5.62722 18.6742 5.57187C18.6727 5.28543 18.5733 5.0081 18.3926 4.78587C18.2119 4.56364 17.9606 4.40985 17.6805 4.35C17.3636 4.28968 17.0357 4.35198 16.763 4.52429C16.4903 4.6966 16.2933 4.96605 16.2117 5.27812L14.8367 9.23437C14.8163 9.24246 14.7965 9.25186 14.7773 9.2625L12.0148 10.8812C11.5921 11.1296 11.2415 11.4839 10.9976 11.9091C10.7537 12.3344 10.625 12.816 10.6242 13.3063V16.25C10.5413 16.25 10.4619 16.2829 10.4032 16.3415C10.3446 16.4001 10.3117 16.4796 10.3117 16.5625V19.0625C10.3117 19.1454 10.3446 19.2249 10.4032 19.2835C10.4619 19.3421 10.5413 19.375 10.6242 19.375H14.9992C15.0821 19.375 15.1616 19.3421 15.2202 19.2835C15.2788 19.2249 15.3117 19.1454 15.3117 19.0625V16.5625C15.3117 16.4796 15.2788 16.4001 15.2202 16.3415C15.1616 16.2829 15.0821 16.25 14.9992 16.25V15.5625C14.9998 15.4305 15.0279 15.3001 15.0817 15.1796C15.1355 15.059 15.2138 14.9511 15.3117 14.8625L17.4242 12.9844C17.6553 12.7822 17.8207 12.5156 17.8992 12.2187L19.2555 7.14688C19.2844 7.04097 19.2991 6.93167 19.2992 6.82187C19.298 6.60134 19.2387 6.38502 19.1274 6.19467C19.016 6.00431 18.8565 5.84664 18.6648 5.7375ZM16.8086 5.4625C16.847 5.30089 16.9448 5.15968 17.0827 5.06701C17.2205 4.97434 17.3882 4.93702 17.5523 4.9625C17.6924 4.99184 17.8182 5.06835 17.9086 5.17927C17.999 5.29018 18.0487 5.42877 18.0492 5.57187V5.57813C17.7701 5.58331 17.5003 5.67952 17.2808 5.85213C17.0614 6.02475 16.9044 6.26431 16.8336 6.53437L15.9617 9.225C15.8297 9.16239 15.6882 9.12225 15.543 9.10625L16.8086 5.4625ZM14.6867 18.75H10.9367V16.875H14.6867V18.75ZM18.6523 6.98438L17.293 12.0594C17.2459 12.2357 17.1481 12.3944 17.0117 12.5156L14.8961 14.3938C14.7324 14.5414 14.6014 14.7216 14.5115 14.9229C14.4216 15.1242 14.3749 15.3421 14.3742 15.5625V16.25H11.2492V13.3063C11.2508 12.925 11.3512 12.5506 11.5407 12.2198C11.7302 11.889 12.0024 11.613 12.3305 11.4188L15.0898 9.80313C15.161 9.76167 15.2396 9.73469 15.3212 9.72372C15.4028 9.71275 15.4858 9.71802 15.5654 9.73922C15.645 9.76042 15.7195 9.79713 15.7849 9.84724C15.8502 9.89736 15.905 9.95989 15.9461 10.0312C16.0273 10.1756 16.0496 10.3458 16.0086 10.5062C15.9869 10.5855 15.9498 10.6597 15.8994 10.7246C15.849 10.7894 15.7863 10.8437 15.7148 10.8844L13.9242 11.9187C13.8562 11.962 13.8075 12.0298 13.7883 12.1081C13.7692 12.1864 13.781 12.2691 13.8213 12.3389C13.8616 12.4086 13.9274 12.4601 14.0048 12.4826C14.0822 12.5051 14.1653 12.4967 14.2367 12.4594L16.0273 11.425C16.1705 11.3438 16.2959 11.2348 16.3963 11.1044C16.4966 10.9739 16.5699 10.8248 16.6117 10.6656C16.6968 10.3459 16.6518 10.0055 16.4867 9.71875L16.468 9.69063L17.4336 6.7125C17.472 6.55089 17.5698 6.40968 17.7077 6.31701C17.8455 6.22434 18.0132 6.18702 18.1773 6.2125C18.3174 6.24184 18.4432 6.31835 18.5336 6.42927C18.624 6.54018 18.6737 6.67877 18.6742 6.82187C18.6753 6.87684 18.6679 6.93164 18.6523 6.98438ZM9.37422 16.25V13.3063C9.37341 12.816 9.2447 12.3344 9.00082 11.9091C8.75694 11.4839 8.40631 11.1296 7.98359 10.8812L5.22109 9.25937C5.20234 9.25 5.18047 9.24375 5.16172 9.23437L3.79609 5.3C3.71672 4.98337 3.51969 4.70889 3.24509 4.5324C2.97049 4.35591 2.63896 4.29069 2.31797 4.35C2.03784 4.40985 1.78658 4.56364 1.60584 4.78587C1.4251 5.0081 1.32573 5.28543 1.32422 5.57187C1.32414 5.62722 1.32727 5.68252 1.33359 5.7375C1.14196 5.84664 0.982438 6.00431 0.871079 6.19467C0.759719 6.38502 0.700445 6.60134 0.699219 6.82187C0.699826 6.93144 0.713463 7.04054 0.739844 7.14688L2.09922 12.2156C2.1769 12.5137 2.3424 12.7815 2.57422 12.9844L4.68359 14.8625C4.78245 14.9504 4.86165 15.0582 4.91603 15.1789C4.97042 15.2995 4.99876 15.4302 4.99922 15.5625V16.25C4.91634 16.25 4.83685 16.2829 4.77825 16.3415C4.71964 16.4001 4.68672 16.4796 4.68672 16.5625V19.0625C4.68672 19.1454 4.71964 19.2249 4.77825 19.2835C4.83685 19.3421 4.91634 19.375 4.99922 19.375H9.37422C9.4571 19.375 9.53658 19.3421 9.59519 19.2835C9.6538 19.2249 9.68672 19.1454 9.68672 19.0625V16.5625C9.68672 16.4796 9.6538 16.4001 9.59519 16.3415C9.53658 16.2829 9.4571 16.25 9.37422 16.25ZM1.94922 5.57187C1.9496 5.4292 1.99879 5.29095 2.08861 5.1801C2.17843 5.06925 2.30348 4.99246 2.44297 4.9625C2.61161 4.93802 2.78328 4.97821 2.92353 5.07499C3.06379 5.17178 3.16227 5.31802 3.19922 5.48437L4.45547 9.10625C4.31025 9.12225 4.16872 9.16239 4.03672 9.225L3.17109 6.55C3.10065 6.27726 2.94329 6.03489 2.72284 5.85954C2.50238 5.68418 2.23081 5.5854 1.94922 5.57813V5.57187ZM5.09922 14.3938L2.98672 12.5156C2.84955 12.3937 2.75166 12.2338 2.70547 12.0563L1.34297 6.98438C1.33003 6.93119 1.32374 6.87661 1.32422 6.82187C1.3246 6.6792 1.37379 6.54095 1.46361 6.4301C1.55343 6.31925 1.67848 6.24246 1.81797 6.2125C1.98543 6.18737 2.15619 6.22658 2.29591 6.32224C2.43563 6.4179 2.53395 6.56292 2.57109 6.72813L3.53047 9.69063L3.51172 9.71875C3.34659 10.0055 3.30165 10.3459 3.38672 10.6656C3.42856 10.8248 3.50181 10.9739 3.60217 11.1044C3.70253 11.2348 3.82797 11.3438 3.97109 11.425L5.76172 12.4594C5.83314 12.4967 5.91623 12.5051 5.99364 12.4826C6.07105 12.4601 6.13679 12.4086 6.17712 12.3389C6.21746 12.2691 6.22927 12.1864 6.2101 12.1081C6.19092 12.0298 6.14224 11.962 6.07422 11.9187L4.28359 10.8844C4.21218 10.8437 4.14948 10.7894 4.09907 10.7246C4.04867 10.6597 4.01155 10.5855 3.98984 10.5062C3.94879 10.3458 3.97117 10.1756 4.05234 10.0312C4.09317 9.96005 4.14763 9.89758 4.2126 9.84743C4.27757 9.79727 4.35179 9.7604 4.43101 9.73893C4.51023 9.71746 4.59291 9.7118 4.67431 9.72228C4.75572 9.73275 4.83427 9.75916 4.90547 9.8L7.66797 11.4188C7.99608 11.613 8.26819 11.889 8.45771 12.2198C8.64723 12.5506 8.74767 12.925 8.74922 13.3063V16.25H5.62422V15.5625C5.62369 15.3417 5.57666 15.1236 5.4862 14.9222C5.39575 14.7208 5.26389 14.5408 5.09922 14.3938ZM9.06172 18.75H5.31172V16.875H9.06172V18.75Z" fill="white"></path>
    <path d="M14.419 1.60417C14.1289 1.31356 13.7843 1.08301 13.405 0.925714C13.0257 0.76842 12.6191 0.687471 12.2085 0.6875C11.7978 0.687529 11.3912 0.768536 11.012 0.925883C10.6327 1.08323 10.2881 1.31383 9.99806 1.60449C9.70803 1.31382 9.36351 1.08322 8.98423 0.925882C8.60495 0.768542 8.19837 0.687553 7.78775 0.687553C7.37713 0.687553 6.97055 0.768542 6.59127 0.925882C6.212 1.08322 5.86748 1.31382 5.57744 1.60449C4.99255 2.19064 4.66406 2.98487 4.66406 3.81292C4.66406 4.64098 4.99255 5.43521 5.57744 6.02136L9.77744 10.2214C9.83604 10.2799 9.91551 10.3129 9.99838 10.3129C10.0812 10.3129 10.1607 10.2799 10.2193 10.2214L14.4193 6.02136C15.0042 5.43512 15.3326 4.64081 15.3326 3.8127C15.3325 2.9846 15.004 2.19034 14.419 1.60417ZM9.99806 9.55855L6.019 5.57949C5.66967 5.22968 5.43189 4.78415 5.33572 4.29922C5.23956 3.81429 5.28933 3.31174 5.47874 2.8551C5.66814 2.39845 5.98869 2.00821 6.39985 1.73371C6.81101 1.45922 7.29432 1.31278 7.78869 1.31292C8.11709 1.3118 8.44243 1.37607 8.74573 1.50199C9.04903 1.62792 9.32422 1.81297 9.55525 2.04636L9.77713 2.26824C9.83573 2.32682 9.9152 2.35973 9.99806 2.35973C10.0809 2.35973 10.1604 2.32682 10.219 2.26824L10.4415 2.04574C10.6735 1.81332 10.9491 1.62892 11.2524 1.50312C11.5557 1.37731 11.8809 1.31255 12.2093 1.31255C12.5377 1.31255 12.8629 1.37731 13.1662 1.50312C13.4696 1.62892 13.7451 1.81332 13.9771 2.04574C14.4452 2.51448 14.7082 3.14985 14.7082 3.8123C14.7082 4.47475 14.4452 5.11012 13.9771 5.57886L9.99806 9.55855Z" fill="white"></path>
  </g>
  <defs>
    <clipPath id="clip0_3134_809">
      <rect width="20" height="20" fill="white"></rect>
    </clipPath>
  </defs>
</svg>
