<?xml version="1.0" encoding="UTF-8"?>
<svg xmlns="http://www.w3.org/2000/svg" width="25" height="21" viewBox="0 0 25 21" fill="none">
  <path fill-rule="evenodd" clip-rule="evenodd" d="M16.7817 2.00001C19.7341 1.99493 21.6138 4.33286 21.6138 7.28516L21.6069 7.58399C21.5663 8.48202 21.3439 9.34274 20.9946 10.1592H21.6138C22.0278 10.1594 22.3638 10.4951 22.3638 10.9092C22.3636 11.3231 22.0277 11.659 21.6138 11.6592H20.189C17.5752 15.6889 12.2793 18.3047 12.2788 18.3047C12.2146 18.2717 6.97129 15.5312 4.36768 11.4102H2.91846C2.50432 11.4102 2.16858 11.0743 2.16846 10.6602C2.16846 10.246 2.50424 9.91016 2.91846 9.91016H3.57568C3.21272 9.05544 2.98144 8.15535 2.93994 7.21876L2.93311 6.91407C2.93311 4.20029 5.11083 2.00005 7.77686 2.00001L7.96826 2.00391C9.93665 2.08223 11.6027 3.36015 12.2798 5.13966C12.9788 3.30292 14.7305 2.00023 16.7817 2.00001ZM12.9673 16.9727C12.9667 16.9723 12.9653 16.9707 12.9634 16.9697C12.9617 16.9689 12.9572 16.9671 12.9546 16.9658L12.9673 16.9727ZM10.0933 10.9014C9.98998 11.2053 9.70423 11.4099 9.3833 11.4102H6.19385C6.87367 12.3084 7.70057 13.1562 8.58936 13.9287C9.68596 14.8818 10.7905 15.649 11.6235 16.1787C11.8768 16.3398 12.1042 16.4769 12.2964 16.5908C12.4861 16.4833 12.7099 16.3544 12.9585 16.2031C13.7898 15.6974 14.8907 14.9632 15.9839 14.0479C16.8598 13.3144 17.6724 12.5109 18.3423 11.6592H15.7896C15.4489 11.6592 15.1507 11.429 15.064 11.0996L15.0024 10.8691L14.1733 13.7236C14.0809 14.0416 13.7905 14.2617 13.4595 14.2647C13.1285 14.2673 12.8348 14.0525 12.7368 13.7363L11.9927 11.332H11.2163C10.8912 11.3319 10.6036 11.1217 10.5034 10.8125L10.3179 10.2393L10.0933 10.9014ZM16.7817 3.50001C15.3867 3.50023 14.1709 4.38612 13.6812 5.67286C13.4598 6.25464 12.9022 6.63946 12.2798 6.63966C11.6572 6.63963 11.0989 6.25477 10.8774 5.67286C10.3877 4.38609 9.17191 3.50019 7.77686 3.50001C5.95783 3.50005 4.43311 5.01002 4.43311 6.91407C4.43316 7.93899 4.73452 8.94439 5.23682 9.91016H8.84521L9.62549 7.61329L9.67334 7.50391C9.80261 7.25956 10.0584 7.10241 10.3413 7.1045C10.6645 7.10705 10.95 7.31645 11.0493 7.62403L11.7622 9.83204H12.5454L12.6675 9.8418C12.9444 9.88733 13.1772 10.0858 13.2622 10.3604L13.4302 10.9043L14.3188 7.85059L14.3638 7.73438C14.4885 7.47529 14.7534 7.3059 15.0483 7.30958C15.3853 7.31399 15.6783 7.54324 15.7642 7.86915L16.3667 10.1592H19.3306C19.8216 9.23434 20.1137 8.27019 20.1138 7.28516C20.1138 6.1214 19.7443 5.16637 19.1792 4.52442C18.6299 3.90062 17.8353 3.4982 16.7847 3.50001H16.7817Z" fill="white"></path>
</svg>
