<?xml version="1.0" encoding="UTF-8"?>
<svg xmlns="http://www.w3.org/2000/svg" width="56" height="56" viewBox="0 0 56 56" fill="none">
  <path d="M11.856 0H14.3716V2.49375H16.6903V0H19.206V7.54688H16.6903V5.03125H14.3935V7.54688H11.856V0ZM22.531 2.51562H20.3106V0H27.2778V2.51562H25.0466V7.54688H22.531V2.51562ZM28.3825 0H31.0185L32.6372 2.65781L34.256 0H36.8919V7.54688H34.3763V3.80625L32.6153 6.51875L30.8544 3.80625V7.54688H28.3825V0ZM38.1388 0H40.6544V5.05312H44.22V7.54688H38.1388V0Z" fill="black"></path>
  <path d="M11.7686 51.5157L8.15918 11.0032H47.8404L44.2311 51.4938L27.967 56" fill="#FF4C1E"></path>
  <path d="M28 52.5547V14.3281H44.2203L41.125 48.8906L28 52.5547Z" fill="#FF651E"></path>
  <path d="M15.5312 19.2828H28L29.854 21.7656L28 24.2485H20.9781L21.4375 29.3344H28L29.854 31.9101L28 34.2891H16.8875L15.5312 19.2828ZM17.1062 36.7828H22.0938L22.4437 40.7531L28 42.2407L30.092 44.7191L28 47.425L17.8063 44.5813L17.1062 36.7828Z" fill="#EBEBEB"></path>
  <path d="M40.4249 19.2828H27.978V24.2485H39.9655L40.4249 19.2828ZM39.5171 29.3344H27.978V34.3H34.103L33.5233 40.7531L27.978 42.2407V47.4031L38.1499 44.5813L39.5171 29.3344Z" fill="white"></path>
</svg>
