<svg width="30" height="30" viewBox="0 0 30 30" fill="none" xmlns="http://www.w3.org/2000/svg">
<g clip-path="url(#clip0_2027_30989)">
<path d="M26.9582 20.9319C26.8929 20.6858 26.7873 20.4524 26.6456 20.241C26.6759 20.1296 26.6991 20.0165 26.7145 19.9022C26.8152 19.1768 26.5637 18.5127 26.0898 17.9989C25.833 17.7182 25.5579 17.5329 25.2664 17.4191C25.4577 16.6006 25.5545 15.7629 25.555 14.9225C25.555 14.5385 25.5332 14.1625 25.4968 13.792C25.4779 13.607 25.4549 13.4225 25.428 13.2385C25.3446 12.6955 25.2208 12.1595 25.0576 11.635C24.9507 11.2904 24.827 10.9511 24.6869 10.6185C24.4771 10.126 24.232 9.64914 23.9536 9.19176C23.7711 8.88745 23.5722 8.59319 23.358 8.31026C23.253 8.16739 23.1436 8.0279 23.0298 7.89197C22.6926 7.48217 22.3261 7.09735 21.9333 6.74051C21.8028 6.62055 21.6687 6.5047 21.5309 6.39311C21.3953 6.28001 21.2567 6.17057 21.1153 6.06488C20.8306 5.85302 20.5365 5.65426 20.2338 5.46925C18.561 4.45325 16.5993 3.87061 14.5026 3.87061C8.3979 3.87061 3.45025 8.8185 3.45025 14.9228C3.45001 15.774 3.54857 16.6222 3.744 17.4506C3.48181 17.5644 3.23054 17.7419 2.99749 17.9986C2.52372 18.5122 2.27209 19.1739 2.37272 19.8993C2.38801 20.0145 2.41095 20.1286 2.44154 20.2407C2.30002 20.4523 2.19449 20.6858 2.12922 20.9319C1.98356 21.4855 2.0315 21.9848 2.21662 22.4222C2.01536 22.994 2.06561 23.6028 2.32768 24.1322C2.51826 24.5188 2.79101 24.8179 3.12725 25.0852C3.52697 25.403 4.02732 25.6729 4.63084 25.932C5.3509 26.2391 6.22985 26.5276 6.62957 26.6335C7.66207 26.9007 8.65209 27.0702 9.65546 27.0785C11.085 27.0917 12.3161 26.7556 13.1975 25.8953C13.6305 25.9484 14.0663 25.9749 14.5026 25.9747C14.9635 25.9737 15.4239 25.9447 15.8813 25.8879C16.7606 26.7536 17.9964 27.0928 19.4312 27.0792C20.4344 27.0712 21.4245 26.9017 22.4543 26.6341C22.8567 26.5282 23.7353 26.2397 24.4557 25.9326C25.0592 25.6732 25.5596 25.4032 25.962 25.0859C26.2956 24.8185 26.5682 24.5195 26.7588 24.1329C27.0236 23.6034 27.0712 22.9946 26.8727 22.4229C27.056 21.9854 27.1037 21.485 26.9582 20.9319ZM25.9337 22.3852C26.1365 22.7701 26.1495 23.2051 25.9706 23.6101C25.6992 24.224 25.025 24.7076 23.7156 25.2267C22.9014 25.5496 22.1558 25.7561 22.1493 25.7579C21.0723 26.0372 20.0983 26.1791 19.2552 26.1791C17.859 26.1791 16.8201 25.7938 16.1612 25.033C15.047 25.2228 13.9094 25.2293 12.7931 25.0522C12.1334 25.8004 11.1004 26.1791 9.71603 26.1791C8.87276 26.1791 7.89889 26.0372 6.82184 25.7579C6.81529 25.7561 6.06998 25.5496 5.25549 25.2267C3.94623 24.7076 3.27182 24.2243 3.00052 23.6101C2.8216 23.2051 2.83459 22.7701 3.03742 22.3852C3.05611 22.3494 3.07626 22.3146 3.09775 22.2808C2.97619 22.0983 2.89466 21.892 2.8585 21.6756C2.82235 21.4593 2.8324 21.2378 2.888 21.0256C2.9686 20.7193 3.13501 20.4647 3.36103 20.2817C3.25215 20.1028 3.18072 19.9037 3.15104 19.6964C3.08598 19.2456 3.23564 18.7955 3.57224 18.4284C3.83444 18.1428 4.20502 17.9856 4.6153 17.9856H4.62623C4.31688 16.994 4.16004 15.9612 4.16108 14.9225C4.16108 9.25731 8.75381 4.66422 14.4198 4.66422C20.0857 4.66422 24.6784 9.25682 24.6784 14.9225C24.6793 15.964 24.5214 16.9995 24.21 17.9934C24.2595 17.9885 24.3081 17.9861 24.3558 17.986C24.7661 17.986 25.1368 18.1432 25.3987 18.4288C25.7353 18.7955 25.8851 19.246 25.8199 19.6968C25.7903 19.9041 25.7188 20.1032 25.6101 20.2821C25.8361 20.465 26.0026 20.7197 26.0831 21.026C26.1387 21.2381 26.1488 21.4597 26.1126 21.6761C26.0765 21.8924 25.995 22.0986 25.8733 22.2812C25.8948 22.3146 25.9152 22.3494 25.9337 22.3852Z" fill="white"/>
<path d="M25.8733 22.2813C25.995 22.0987 26.0765 21.8925 26.1127 21.6762C26.1488 21.4597 26.1387 21.2382 26.0831 21.026C26.0025 20.7198 25.836 20.4651 25.6101 20.2822C25.7189 20.1033 25.7903 19.9042 25.8199 19.6969C25.8851 19.246 25.7355 18.7959 25.3987 18.4289C25.1368 18.1433 24.7661 17.9861 24.3558 17.9861C24.3081 17.9861 24.2595 17.9886 24.21 17.9935C24.521 16.9996 24.6787 15.9642 24.6776 14.9228C24.6776 9.25752 20.0849 4.66455 14.4195 4.66455C8.75393 4.66455 4.16071 9.25703 4.16071 14.9228C4.15969 15.9615 4.31653 16.9943 4.62587 17.9859H4.61493C4.20465 17.9859 3.83407 18.143 3.572 18.4286C3.2354 18.7953 3.0856 19.2459 3.15078 19.6966C3.18049 19.9039 3.25192 20.1031 3.36078 20.2821C3.13476 20.4649 2.96823 20.7195 2.88763 21.0258C2.83206 21.2381 2.82205 21.4596 2.85824 21.676C2.89444 21.8924 2.97601 22.0987 3.09762 22.2813C3.07601 22.315 3.0561 22.3499 3.03729 22.3857C2.83457 22.7706 2.82148 23.2055 3.00052 23.6106C3.27194 24.2244 3.9461 24.708 5.25548 25.2272C6.06961 25.55 6.81529 25.7565 6.82184 25.7583C7.89877 26.0377 8.87276 26.1796 9.7159 26.1796C11.1004 26.1796 12.1334 25.8008 12.7931 25.0526C13.9094 25.2297 15.047 25.2232 16.1612 25.0334C16.8201 25.7943 17.859 26.1796 19.2552 26.1796C20.0983 26.1796 21.0723 26.0377 22.1491 25.7583C22.1558 25.7565 22.9011 25.55 23.7156 25.2272C25.025 24.708 25.6993 24.2244 25.9706 23.6106C26.1495 23.2055 26.1365 22.7706 25.9337 22.3857C25.9152 22.3496 25.8948 22.3146 25.8733 22.2813ZM12.3211 23.8812C12.2643 23.9805 12.2034 24.0775 12.1387 24.1718C11.9682 24.4215 11.7439 24.6123 11.4835 24.7541C10.9858 25.0255 10.3558 25.1203 9.7159 25.1203C8.70489 25.1203 7.6685 24.8838 7.08768 24.7331C7.05903 24.7257 3.52697 23.7281 3.97415 22.8788C4.04941 22.736 4.17321 22.6789 4.32919 22.6789C4.95881 22.6789 6.10529 23.6165 6.598 23.6165C6.70809 23.6165 6.78578 23.5697 6.81746 23.4553C7.02746 22.7022 3.62588 22.3857 3.91235 21.2951C3.96285 21.1021 4.10003 21.0237 4.29279 21.0237C5.12524 21.0236 6.9936 22.4876 7.38434 22.4876C7.41432 22.4876 7.4358 22.4788 7.44745 22.4603C7.44915 22.4575 7.45086 22.4549 7.45244 22.4519C7.63585 22.1491 7.5306 21.9289 6.27414 21.1593L6.15348 21.0859C4.77079 20.249 3.80031 19.7454 4.35225 19.1446C4.41574 19.0752 4.5058 19.0445 4.61517 19.0445C4.74481 19.0445 4.90176 19.0879 5.07461 19.1607C5.80487 19.4687 6.81699 20.3085 7.23977 20.6747C7.30628 20.7325 7.37236 20.7909 7.43798 20.8497C7.43798 20.8497 7.9733 21.4063 8.29691 21.4063C8.37144 21.4063 8.43467 21.377 8.47752 21.3044C8.70707 20.9174 6.34564 19.1279 6.21248 18.3895C6.12217 17.8893 6.27584 17.6359 6.55988 17.6359C6.69498 17.6359 6.85982 17.6934 7.04178 17.8088C7.60622 18.167 8.69601 20.0398 9.09501 20.7683C9.22877 21.0124 9.4571 21.1156 9.66285 21.1156C10.0711 21.1156 10.3902 20.7098 9.70023 20.1942C8.66324 19.4183 9.02717 18.1501 9.52205 18.072C9.54317 18.0686 9.56452 18.0669 9.58577 18.0669C10.0359 18.0669 10.2343 18.8424 10.2343 18.8424C10.2343 18.8424 10.8162 20.3037 11.8159 21.3025C12.7229 22.2092 12.8496 22.9531 12.3211 23.8812ZM15.5534 24.0524L15.5016 24.0586L15.4132 24.0687C15.3667 24.0735 15.3201 24.0781 15.2734 24.0824L15.2279 24.0865L15.1862 24.09L15.1272 24.0948L15.0621 24.0995L14.997 24.1037L14.9826 24.1047C14.9656 24.1057 14.9486 24.1068 14.9313 24.1076L14.9096 24.1088C14.8895 24.1099 14.8693 24.1109 14.8489 24.1118L14.7784 24.1148L14.7144 24.117L14.6717 24.1182H14.65C14.6366 24.1182 14.6234 24.1189 14.61 24.119H14.5889C14.5756 24.119 14.5623 24.119 14.549 24.1196L14.4946 24.1204H14.4187C14.3591 24.1204 14.2996 24.1198 14.2404 24.1186L14.1923 24.1175C14.1786 24.1175 14.1649 24.1169 14.1514 24.1164L14.1005 24.1149L14.0372 24.1125L13.9802 24.1099L13.9655 24.1093L13.9112 24.1065C13.896 24.1057 13.8811 24.105 13.8661 24.1039L13.831 24.1018C13.7869 24.099 13.7429 24.096 13.6988 24.0926L13.6527 24.0888C13.6332 24.0874 13.6138 24.0855 13.5945 24.0838C13.5718 24.0819 13.5491 24.0797 13.5264 24.0775C13.4884 24.074 13.4504 24.0701 13.4124 24.066H13.4106C13.9654 22.8285 13.6848 21.6726 12.5638 20.5526C11.8286 19.8184 11.3395 18.7342 11.2381 18.4961C11.0327 17.7915 10.4891 17.0082 9.58639 17.0082C9.51004 17.0082 9.43381 17.0143 9.35843 17.0261C8.96295 17.0884 8.61725 17.316 8.37059 17.6586C8.10403 17.3271 7.845 17.0635 7.61072 16.9147C7.25749 16.6908 6.90498 16.5771 6.56158 16.5771C6.13297 16.5771 5.74988 16.7532 5.48283 17.0724L5.47603 17.0805C5.47094 17.0595 5.46608 17.0385 5.4611 17.0174L5.4605 17.0146C5.40967 16.7973 5.36701 16.5782 5.33256 16.3577C5.33256 16.3562 5.33256 16.3548 5.33183 16.3533C5.32916 16.3367 5.32673 16.3199 5.32418 16.3033C5.31672 16.254 5.30971 16.2046 5.30318 16.1552C5.30027 16.1328 5.29711 16.1103 5.29432 16.0878L5.28607 16.0205C5.2834 15.998 5.28121 15.9776 5.27878 15.9563L5.27807 15.9509C5.26837 15.8635 5.25987 15.7761 5.25256 15.6885L5.24989 15.6549L5.24565 15.5976C5.24443 15.5819 5.24322 15.5661 5.24237 15.5503C5.24237 15.5466 5.24176 15.5429 5.24164 15.5394C5.23856 15.4955 5.23592 15.4514 5.23375 15.4074C5.23254 15.3844 5.23132 15.3616 5.23035 15.3385L5.22792 15.2783L5.22732 15.2601L5.22537 15.2046L5.22416 15.1574C5.22416 15.1386 5.22319 15.1198 5.22295 15.101C5.22258 15.0822 5.2221 15.0615 5.22198 15.0416C5.22173 15.0217 5.22198 15.0021 5.22137 14.9823C5.22088 14.9624 5.22137 14.9426 5.22137 14.9228C5.22137 9.84247 9.34008 5.72376 14.4209 5.72376C19.5016 5.72376 23.6202 9.84235 23.6202 14.9228V15.0416C23.6202 15.0614 23.6196 15.0813 23.6192 15.101C23.6192 15.1174 23.6185 15.1335 23.618 15.1501C23.618 15.1647 23.6174 15.1794 23.6169 15.1935C23.6169 15.212 23.6158 15.2306 23.6152 15.2492V15.2507L23.6127 15.3151C23.6118 15.3339 23.6111 15.3529 23.6101 15.3717L23.6095 15.385L23.6062 15.4452C23.5991 15.5743 23.5892 15.7031 23.577 15.8317V15.8333C23.5749 15.8544 23.5729 15.8755 23.5706 15.8967L23.5651 15.9465L23.5543 16.0441L23.5481 16.0935L23.5404 16.1517C23.5377 16.1728 23.5349 16.1941 23.5317 16.2151C23.5285 16.2387 23.525 16.2623 23.5215 16.2858L23.5131 16.3415L23.5032 16.4047C23.4998 16.4257 23.4961 16.4465 23.4923 16.4674C23.4883 16.4884 23.4851 16.5093 23.4815 16.5302C23.4742 16.5719 23.4665 16.6137 23.4585 16.6553C23.4463 16.7176 23.4337 16.7797 23.4209 16.8419L23.4075 16.9034C23.4032 16.9239 23.3984 16.9446 23.3938 16.9651C23.1349 16.7135 22.792 16.5764 22.4139 16.5764C22.0707 16.5764 21.7179 16.6899 21.3647 16.9139C21.1305 17.0627 20.8716 17.3263 20.6049 17.6577C20.3579 17.3152 20.0121 17.0876 19.6169 17.0253C19.5415 17.0134 19.4653 17.0073 19.389 17.0073C18.486 17.0073 17.9428 17.7906 17.7373 18.4953C17.6353 18.7333 17.1461 19.8175 16.4103 20.5529C15.29 21.6694 15.0074 22.82 15.5534 24.0524ZM25.0507 21.5751L25.0471 21.5859C25.0379 21.6103 25.0272 21.634 25.0152 21.6571C25.006 21.6741 24.9962 21.6906 24.9855 21.7066C24.9653 21.7369 24.943 21.7657 24.9189 21.7929C24.9133 21.7992 24.908 21.8056 24.9017 21.8118C24.8929 21.8211 24.8841 21.8303 24.875 21.8393C24.7116 22.0012 24.4625 22.1433 24.1809 22.2735C24.149 22.2879 24.1165 22.3024 24.0839 22.317L24.0514 22.3314C24.0296 22.341 24.0079 22.3505 23.9851 22.3598C23.9634 22.3693 23.9408 22.3787 23.9182 22.388L23.8505 22.4159C23.6921 22.4811 23.5298 22.5432 23.3715 22.6045L23.3037 22.6309L23.2369 22.6571C23.1923 22.6744 23.1484 22.6918 23.1052 22.7092L23.0407 22.7351L22.9773 22.761L22.9463 22.7741C22.9255 22.7827 22.9052 22.7913 22.885 22.7999C22.4192 22.9999 22.0841 23.2032 22.1545 23.4554C22.1564 23.4626 22.1586 23.4694 22.161 23.4761C22.1673 23.4948 22.176 23.5124 22.1868 23.529C22.1931 23.5388 22.2004 23.5482 22.2085 23.5567C22.2913 23.6427 22.4419 23.6291 22.6319 23.5608C22.6586 23.551 22.6852 23.5408 22.7115 23.5301L22.728 23.5233C22.7715 23.5048 22.8175 23.4842 22.8645 23.4619C22.8762 23.4563 22.8881 23.4509 22.9 23.4447C23.1324 23.3311 23.3956 23.1782 23.6569 23.039C23.7614 22.9825 23.8673 22.929 23.9746 22.8781C24.222 22.7617 24.4546 22.6792 24.6415 22.6792C24.7293 22.6792 24.8067 22.6971 24.8713 22.7384L24.8821 22.7456C24.9227 22.7741 24.9566 22.8108 24.982 22.8532C24.987 22.8614 24.9918 22.87 24.9966 22.8788C25.089 23.0543 25.0116 23.2358 24.8306 23.4139C24.6569 23.5849 24.3867 23.7526 24.0796 23.9077C24.0568 23.9192 24.034 23.9308 24.0108 23.9421C23.0968 24.3909 21.8998 24.729 21.8832 24.7332C21.5642 24.8159 21.108 24.9244 20.5941 25.0056L20.5181 25.0175L20.5056 25.0194C20.448 25.0281 20.3904 25.0362 20.3326 25.0438C20.274 25.0516 20.2147 25.0588 20.1551 25.0655L20.1442 25.0667C19.9281 25.0916 19.7112 25.1081 19.4938 25.116H19.4907C19.412 25.1188 19.3335 25.1202 19.2548 25.1202H19.1641C19.0442 25.1186 18.9245 25.1132 18.805 25.104C18.8022 25.104 18.7991 25.104 18.7964 25.1032C18.7535 25.1 18.7108 25.0959 18.6681 25.0912C18.6237 25.0865 18.5796 25.0811 18.5355 25.0752C18.5065 25.0713 18.4776 25.0669 18.4487 25.0622C18.4193 25.0575 18.39 25.0526 18.3607 25.0475L18.3208 25.04L18.3177 25.0394C18.2756 25.0314 18.2337 25.0225 18.192 25.0128C18.1677 25.0073 18.1435 25.002 18.1196 24.9954L18.1052 24.9918C18.0933 24.9889 18.0818 24.9857 18.07 24.9826L18.0636 24.9809L18.0262 24.9699C18.0126 24.9662 17.999 24.9621 17.9854 24.9581L17.9806 24.9567L17.9453 24.9459C17.932 24.9418 17.9186 24.9374 17.9054 24.933L17.8729 24.9222L17.8489 24.9139C17.8259 24.9057 17.8029 24.8974 17.7802 24.8886L17.7586 24.8801L17.7408 24.8731C17.7063 24.8592 17.6721 24.8448 17.6382 24.8296L17.6158 24.8187L17.612 24.817C17.604 24.8132 17.5961 24.8095 17.5881 24.8062C17.5724 24.7987 17.5569 24.7909 17.5415 24.783L17.5367 24.7807L17.5144 24.7689C17.4747 24.7482 17.4359 24.7261 17.3978 24.7027L17.3769 24.6898C17.3664 24.6834 17.356 24.6767 17.3458 24.6699L17.3186 24.6519L17.2894 24.6318L17.2719 24.6193C17.2534 24.6062 17.2353 24.5926 17.2176 24.5786L17.1893 24.5569C17.178 24.5478 17.1669 24.5385 17.1558 24.5292C17.1465 24.5216 17.1374 24.5135 17.1283 24.5055L17.1276 24.5049C17.1177 24.4963 17.1081 24.4877 17.0985 24.4788C17.0891 24.4702 17.0796 24.4615 17.0704 24.4526L17.0693 24.4515C17.0596 24.4423 17.0501 24.4329 17.0408 24.4234C17.0314 24.4139 17.0218 24.4044 17.0127 24.3947C17.0036 24.3851 16.9943 24.3753 16.9853 24.3652C16.9763 24.3553 16.9681 24.3462 16.9596 24.3363L16.9568 24.333C16.9485 24.3236 16.9404 24.314 16.9324 24.3042C16.915 24.2834 16.8981 24.2622 16.8819 24.2404C16.8655 24.2186 16.8495 24.1962 16.8338 24.1735L16.8189 24.1512C16.799 24.1221 16.7795 24.0927 16.7607 24.0628C16.7466 24.0414 16.7329 24.0197 16.7196 23.9978C16.711 23.9841 16.7027 23.9702 16.6945 23.9566L16.6911 23.951C16.6832 23.9377 16.6754 23.9246 16.6679 23.9113C16.6635 23.9042 16.6594 23.897 16.6555 23.8896C16.6515 23.8821 16.6469 23.8744 16.6426 23.8668L16.6357 23.8548L16.6315 23.847C16.6233 23.8324 16.6153 23.8178 16.6075 23.803C16.6039 23.7964 16.6004 23.7898 16.5966 23.7835L16.5858 23.7625L16.5749 23.7418C16.5476 23.6872 16.5217 23.6318 16.4974 23.5757L16.4888 23.5552C16.4832 23.5415 16.478 23.5279 16.4724 23.5144C16.4698 23.5079 16.4671 23.5014 16.4648 23.4949C16.4518 23.4613 16.4397 23.4273 16.4285 23.393C16.4245 23.3808 16.4206 23.3688 16.417 23.3566C16.4082 23.3291 16.4003 23.3013 16.3933 23.2732C16.3847 23.2406 16.377 23.2077 16.3706 23.1745C16.3693 23.1679 16.3679 23.1612 16.3668 23.1548C16.3605 23.1223 16.3554 23.0897 16.3514 23.0569C16.3504 23.0505 16.3497 23.0441 16.349 23.0376L16.3469 23.018C16.3443 22.9922 16.3422 22.9664 16.341 22.9405C16.341 22.934 16.3404 22.9274 16.3401 22.9211C16.3395 22.9082 16.3393 22.8954 16.3392 22.8825C16.3324 22.3638 16.5948 21.8652 17.156 21.3042C18.1556 20.3056 18.7375 18.8443 18.7375 18.8443C18.7375 18.8443 18.7531 18.783 18.7857 18.6947C18.7902 18.6824 18.7949 18.6698 18.8002 18.6566C18.8192 18.6072 18.8405 18.5586 18.8642 18.5113L18.8689 18.5022C18.8891 18.4619 18.9112 18.4226 18.935 18.3843C18.9406 18.3755 18.9459 18.3667 18.9521 18.3579C18.9699 18.3315 18.9887 18.3058 19.0085 18.2809C19.0193 18.2674 19.0311 18.2541 19.0429 18.2411C19.0476 18.236 19.0522 18.2309 19.0572 18.226C19.1151 18.1662 19.1813 18.1174 19.2562 18.0914L19.2656 18.0883C19.2719 18.0862 19.2783 18.0843 19.2847 18.0824C19.2921 18.0805 19.2995 18.0788 19.3071 18.0772L19.3107 18.0765C19.3264 18.0733 19.3425 18.0713 19.3586 18.0702H19.3599C19.3683 18.0702 19.3768 18.0693 19.3854 18.0693C19.3962 18.0693 19.4063 18.0693 19.4169 18.0704C19.4278 18.0714 19.4386 18.0726 19.4495 18.0743C19.5396 18.0886 19.6253 18.1423 19.6991 18.2251C19.7271 18.2566 19.7524 18.2906 19.7745 18.3265C19.789 18.3499 19.8028 18.3745 19.8157 18.4005C19.821 18.4113 19.8259 18.4212 19.8308 18.4319C19.8434 18.4593 19.8548 18.4873 19.8648 18.5158C19.8885 18.5825 19.9063 18.6513 19.9181 18.7212C19.9283 18.7825 19.9343 18.8444 19.9363 18.9064C19.9373 18.9395 19.9373 18.9732 19.9363 19.007C19.9297 19.1646 19.8974 19.3201 19.8408 19.4673C19.8357 19.4808 19.8299 19.4944 19.8245 19.508C19.8133 19.5354 19.8011 19.5624 19.7878 19.5887C19.778 19.6087 19.7677 19.6289 19.7565 19.6489C19.7492 19.6623 19.7416 19.6756 19.7339 19.689C19.7144 19.7222 19.6933 19.7552 19.6706 19.7881L19.6569 19.8078C19.6032 19.8826 19.5435 19.9527 19.4782 20.0176C19.4138 20.082 19.3449 20.1416 19.2719 20.196C19.1989 20.2501 19.1303 20.3101 19.0669 20.3753C18.8845 20.5667 18.842 20.7357 18.883 20.8637C18.8896 20.8839 18.8982 20.9034 18.9086 20.9219C18.9209 20.943 18.9355 20.9624 18.952 20.9801L18.9584 20.9868L18.965 20.9934C18.9715 20.9997 18.9784 21.0059 18.9858 21.0119L18.9931 21.0178C19.0107 21.0314 19.0294 21.0435 19.049 21.0542C19.0547 21.0572 19.0598 21.0603 19.0662 21.0632C19.0873 21.0735 19.109 21.0823 19.1314 21.0895C19.1376 21.0916 19.1438 21.0934 19.1501 21.0953L19.158 21.0974L19.1689 21.1003L19.1782 21.1026L19.1884 21.1048L19.1985 21.1069L19.2081 21.1084C19.2151 21.1097 19.2224 21.1109 19.2297 21.1117L19.2366 21.1128L19.2492 21.114L19.257 21.1149L19.2698 21.1157H19.2773L19.2906 21.1165H19.3326L19.3446 21.1157L19.3585 21.1149L19.3754 21.1133L19.3911 21.1115C19.3948 21.1115 19.3984 21.1105 19.4021 21.1098C19.4506 21.1027 19.4982 21.0899 19.5437 21.0714L19.563 21.0633C19.5738 21.0586 19.5848 21.0536 19.5947 21.0482C19.6161 21.0376 19.6368 21.0254 19.6567 21.0122C19.6845 20.994 19.7107 20.9736 19.7353 20.9511C19.7411 20.9459 19.7468 20.9403 19.7524 20.935C19.7552 20.9323 19.7578 20.9298 19.7605 20.9269C19.7659 20.9214 19.7713 20.9161 19.7767 20.9101C19.8155 20.8674 19.8491 20.8203 19.8768 20.7697C20.1144 20.3377 20.3633 19.9121 20.6234 19.4934L20.6591 19.4362L20.6952 19.3791C20.7131 19.3501 20.7314 19.3215 20.7494 19.2931L20.7676 19.2647C20.8281 19.17 20.8895 19.076 20.952 18.9826L20.9891 18.9273C21.0633 18.8172 21.1374 18.7101 21.2108 18.6084L21.2474 18.558C21.3272 18.4479 21.4104 18.3401 21.4967 18.235L21.5309 18.194C21.5366 18.1872 21.5418 18.1804 21.548 18.1738C21.5593 18.1605 21.5706 18.1475 21.5817 18.1349C21.5872 18.1284 21.5925 18.1221 21.5984 18.1158L21.6309 18.0792L21.6472 18.0613C21.6636 18.0437 21.6796 18.0268 21.6954 18.0107C21.7063 17.9998 21.7164 17.989 21.7268 17.9788C21.7884 17.9159 21.8562 17.8595 21.9294 17.8105L21.9464 17.7996C21.9627 17.7887 21.9796 17.7785 21.9968 17.7693C22.2837 17.6064 22.5213 17.5943 22.6581 17.7312C22.7409 17.8139 22.7868 17.9512 22.7842 18.1423C22.7842 18.1507 22.7842 18.1592 22.7836 18.1679V18.1772C22.7836 18.186 22.7829 18.1947 22.7822 18.2036C22.7822 18.2145 22.7809 18.2253 22.7798 18.2362C22.7788 18.247 22.7781 18.2553 22.7771 18.265C22.7771 18.2677 22.7766 18.2705 22.7761 18.2734C22.7754 18.2818 22.7743 18.2904 22.773 18.299C22.773 18.3015 22.773 18.3042 22.7721 18.3069C22.7707 18.3184 22.769 18.3298 22.7671 18.3412C22.7658 18.3522 22.7639 18.3624 22.762 18.373L22.7588 18.3911C22.7557 18.4084 22.7517 18.4254 22.7467 18.4421C22.7372 18.4735 22.7258 18.5043 22.7124 18.5341C22.6935 18.5751 22.6728 18.6151 22.65 18.6539C22.6373 18.6755 22.6244 18.6968 22.6109 18.7178C22.597 18.7395 22.5825 18.7615 22.5674 18.7837C22.5291 18.8385 22.4893 18.8923 22.4479 18.9449L22.4289 18.9688C22.3614 19.0529 22.2918 19.1353 22.2199 19.2158L22.1972 19.2413C22.1666 19.2754 22.1355 19.3098 22.1037 19.3442L22.0798 19.3702C22.0639 19.3876 22.0473 19.4049 22.0313 19.4224C22.0154 19.4398 21.9987 19.4574 21.982 19.475L21.9321 19.5275L21.8815 19.5805L21.8305 19.6334C21.7963 19.6688 21.7619 19.7043 21.7273 19.7397C21.2351 20.2446 20.7165 20.7477 20.541 21.0614C20.5292 21.0817 20.5187 21.1029 20.5092 21.1243C20.4842 21.1814 20.4738 21.2302 20.4809 21.2696C20.4832 21.2826 20.4877 21.295 20.4944 21.3064C20.5042 21.3235 20.5163 21.3393 20.5302 21.3534C20.5367 21.3597 20.5435 21.3655 20.5506 21.3709C20.5868 21.3966 20.6304 21.4098 20.6748 21.4086H20.6886L20.7028 21.4075L20.717 21.406L20.7288 21.4043C20.7304 21.404 20.7321 21.4038 20.7337 21.4033L20.7445 21.4012L20.7473 21.4006L20.7593 21.3981L20.7635 21.397C20.7678 21.3959 20.7719 21.3948 20.7761 21.3936C20.7804 21.3924 20.7862 21.3908 20.7913 21.3891C20.8127 21.3827 20.8336 21.375 20.8541 21.3663C20.8649 21.3619 20.8754 21.3572 20.8859 21.3521C20.8913 21.3496 20.8968 21.3471 20.9019 21.3444L20.9182 21.3364C20.957 21.3163 20.9949 21.2943 21.0318 21.2707L21.0479 21.2598C21.0534 21.2564 21.0589 21.2529 21.0641 21.249L21.0802 21.2382L21.0888 21.2323L21.1121 21.2159C21.1339 21.2009 21.1541 21.1855 21.1747 21.1699L21.1765 21.1684L21.2091 21.1432C21.2537 21.108 21.2959 21.0725 21.3343 21.0391L21.3598 21.0168L21.3621 21.0146L21.3754 21.0028C21.4067 20.9747 21.4347 20.9485 21.4578 20.9269L21.4674 20.9175C21.4758 20.9096 21.4835 20.9022 21.4904 20.8959L21.504 20.8824L21.5088 20.8777L21.5102 20.8764L21.5244 20.8622L21.5333 20.8528L21.5344 20.852L21.5387 20.8481L21.544 20.8432L21.5457 20.8416L21.5502 20.8375L21.575 20.8158L21.5888 20.8034C21.5962 20.797 21.6034 20.7904 21.6105 20.7837L21.6271 20.7691C21.6301 20.7666 21.633 20.764 21.636 20.7613L21.6534 20.7461L21.6789 20.7237L21.6925 20.7119C21.7453 20.666 21.8095 20.6105 21.8833 20.548L21.9135 20.5224L21.9634 20.4805L22.0145 20.4379C22.0813 20.3824 22.1531 20.3236 22.2291 20.2625L22.279 20.2225C22.3215 20.1886 22.3651 20.1541 22.4093 20.1194C22.4271 20.1054 22.4452 20.0915 22.4636 20.0776C22.5088 20.0426 22.5542 20.0077 22.6 19.9734C22.7041 19.8947 22.8115 19.8159 22.9203 19.7392L22.9669 19.7067C22.9996 19.6842 23.0321 19.6617 23.0646 19.6397L23.0941 19.6198C23.1523 19.5803 23.2112 19.5419 23.2707 19.5043L23.3002 19.4858L23.3295 19.4676C23.3589 19.4494 23.388 19.4315 23.417 19.4142L23.446 19.3968L23.504 19.3631L23.561 19.3304L23.5725 19.3241L23.6175 19.2993C23.6363 19.2891 23.655 19.2793 23.6737 19.2697L23.7015 19.2554L23.7286 19.2418C23.7381 19.2373 23.7474 19.2326 23.7566 19.2281C23.8176 19.198 23.8797 19.1703 23.9428 19.145C23.96 19.1378 23.9769 19.1312 23.9938 19.1255L24.0436 19.108C24.0585 19.103 24.0731 19.0983 24.087 19.0941L24.0919 19.0926C24.0994 19.0902 24.107 19.088 24.1144 19.0861L24.1165 19.0854C24.1321 19.081 24.1475 19.0771 24.1627 19.0734H24.1638C24.2067 19.0631 24.2504 19.0557 24.2945 19.0512C24.3148 19.0491 24.335 19.0481 24.3554 19.0482H24.3656C24.3792 19.0482 24.3923 19.049 24.4053 19.0504C24.4113 19.0504 24.4172 19.0516 24.423 19.0523H24.4255C24.4313 19.053 24.4371 19.0539 24.4429 19.0552C24.4486 19.0563 24.4545 19.0573 24.4601 19.0586H24.4619C24.4676 19.0598 24.4727 19.0613 24.4786 19.063C24.5095 19.0716 24.5388 19.085 24.5658 19.1024C24.579 19.1111 24.5914 19.1208 24.6028 19.1316L24.6061 19.1347C24.6083 19.1367 24.6103 19.1387 24.6123 19.1408L24.6182 19.1472C24.667 19.1983 24.7073 19.257 24.7377 19.3208L24.7423 19.3317C24.7526 19.356 24.7607 19.3811 24.7666 19.4068C24.7838 19.4852 24.7771 19.567 24.7474 19.6416C24.7361 19.6717 24.7224 19.7007 24.7062 19.7284C24.6685 19.792 24.6237 19.8511 24.5728 19.9047L24.562 19.9162C24.5459 19.9332 24.5291 19.9502 24.5115 19.9672C24.5038 19.9748 24.4956 19.9824 24.4875 19.99L24.4626 20.0129L24.4496 20.0245C24.4183 20.0524 24.3861 20.0795 24.3535 20.1057C24.3337 20.1217 24.3138 20.1374 24.2936 20.1528C24.2225 20.2072 24.15 20.2596 24.0762 20.3102C24.0317 20.3408 23.9868 20.3708 23.9415 20.4004C23.8299 20.4736 23.7172 20.545 23.6033 20.6144C23.3644 20.7613 23.0997 20.9184 22.8175 21.0891L22.7444 21.1335C22.6644 21.1822 22.5889 21.2289 22.5178 21.2733L22.482 21.2957L22.4142 21.3392C22.3693 21.368 22.3245 21.397 22.2797 21.426L22.2437 21.4498C22.2261 21.4612 22.2086 21.4728 22.1911 21.4845L22.174 21.4954L22.1216 21.5307L22.0938 21.5498L22.0612 21.5724L22.031 21.5934C21.9804 21.6292 21.9333 21.6633 21.89 21.6957L21.8737 21.7081C21.8482 21.7274 21.823 21.7471 21.7981 21.7671C21.7606 21.7973 21.7263 21.8262 21.6956 21.854L21.6806 21.8677C21.672 21.8756 21.6635 21.8835 21.6553 21.8913C21.6498 21.8967 21.6445 21.9022 21.6387 21.9074L21.6309 21.9152C21.6136 21.9327 21.5966 21.9505 21.5802 21.9688L21.5722 21.9781C21.5543 21.9987 21.5388 22.0185 21.5252 22.0378L21.5191 22.0464C21.5085 22.0619 21.4986 22.0779 21.4898 22.0945C21.4875 22.0986 21.4854 22.1027 21.4833 22.1068L21.4774 22.1192L21.4734 22.1282L21.4708 22.1343L21.4688 22.1397L21.466 22.1471C21.4584 22.1677 21.4532 22.189 21.4502 22.2106L21.4492 22.2182L21.4485 22.2252V22.2634C21.4485 22.2666 21.4485 22.2697 21.4493 22.2731L21.45 22.279C21.45 22.2821 21.4507 22.2852 21.4512 22.2886C21.4517 22.2917 21.4525 22.2974 21.4535 22.3019V22.3025C21.4543 22.3068 21.4552 22.3109 21.4563 22.3151C21.4574 22.3194 21.4584 22.3242 21.4598 22.3286C21.4621 22.3372 21.465 22.3457 21.468 22.3542C21.47 22.3593 21.4718 22.3643 21.4739 22.3693C21.4739 22.3702 21.4746 22.3713 21.4751 22.3723L21.4794 22.3821L21.4855 22.3956C21.4921 22.4096 21.4992 22.4232 21.507 22.4364L21.515 22.4502L21.5233 22.4641C21.5247 22.4664 21.5264 22.4686 21.5282 22.4706L21.5309 22.4734L21.534 22.4762L21.5371 22.4786C21.5417 22.4819 21.5467 22.4845 21.5519 22.4863C21.5547 22.4873 21.5576 22.488 21.5605 22.4887C21.6306 22.5045 21.7745 22.4466 21.9658 22.3456C21.9766 22.3398 21.9885 22.3337 22.0001 22.3274L22.0583 22.2956L22.0867 22.2798C22.107 22.269 22.1276 22.2568 22.1488 22.2447L22.1872 22.223C22.4401 22.0775 22.7421 21.8905 23.0543 21.708C23.0836 21.6909 23.1129 21.6737 23.1423 21.6569L23.2013 21.6191C23.2698 21.5799 23.3386 21.5412 23.4076 21.503C23.4947 21.4551 23.5823 21.4085 23.6708 21.3634L23.7286 21.3341C23.767 21.3152 23.8049 21.2967 23.8425 21.2788C23.915 21.2443 23.9885 21.2115 24.0628 21.1806L24.1034 21.164L24.1083 21.1621C24.3237 21.0768 24.5191 21.0241 24.6771 21.0241C24.7112 21.0237 24.7454 21.0266 24.7791 21.0325H24.7802C24.791 21.0344 24.8008 21.0366 24.8109 21.039H24.8127C24.8385 21.0456 24.8637 21.0549 24.8875 21.0669C24.9208 21.0842 24.9508 21.1071 24.9762 21.1348C24.9878 21.1477 24.9982 21.1616 25.0073 21.1764C25.0243 21.2025 25.0376 21.2308 25.0472 21.2604C25.0511 21.272 25.0545 21.2832 25.058 21.2953C25.0836 21.3871 25.0811 21.4846 25.0507 21.5751Z" fill="#FF9D00"/>
<path fill-rule="evenodd" clip-rule="evenodd" d="M23.6187 14.9822V14.9226C23.6187 9.84211 19.5016 5.72363 14.4208 5.72363C9.34011 5.72363 5.22138 9.84235 5.22138 14.9226V14.9425C5.22114 14.9557 5.22102 14.9689 5.22138 14.9822C5.22198 15.0019 5.22218 15.0217 5.22199 15.0415L5.22261 15.0852L5.22296 15.1009C5.22296 15.1082 5.22321 15.1153 5.22346 15.1226C5.22382 15.1341 5.22405 15.1458 5.22405 15.1573L5.22539 15.2045L5.22733 15.26L5.22794 15.2782L5.23036 15.3356V15.3384C5.23133 15.3609 5.23256 15.3832 5.23365 15.4055L5.23376 15.4072C5.23498 15.4301 5.2362 15.453 5.23766 15.4759C5.23887 15.4971 5.24007 15.5182 5.24165 15.5393L5.24191 15.5431C5.24296 15.5612 5.24418 15.5794 5.24554 15.5975L5.2459 15.6023L5.24991 15.6547L5.25028 15.6581C5.25101 15.6683 5.25173 15.6785 5.2527 15.6884C5.25996 15.7759 5.26842 15.8634 5.27808 15.9507L5.27867 15.9561L5.28608 16.0204L5.29435 16.0877L5.3004 16.1335L5.30319 16.155C5.30966 16.2045 5.31667 16.2539 5.32419 16.3032L5.32469 16.3065L5.33184 16.3531C5.3665 16.5751 5.40942 16.7958 5.46051 17.0146L5.46113 17.0173L5.465 17.0337L5.47605 17.0804L5.48284 17.0723C5.74989 16.753 6.13298 16.577 6.56159 16.577C6.90511 16.577 7.25751 16.6906 7.61074 16.9146C7.84501 17.0634 8.10405 17.327 8.37061 17.6585C8.61726 17.3159 8.96297 17.0882 9.35844 17.026C9.43384 17.0141 9.51006 17.0082 9.5864 17.0081C10.489 17.0081 11.0327 17.7914 11.2381 18.496C11.3396 18.734 11.8286 19.8183 12.5661 20.5517C13.6873 21.6717 13.9678 22.8274 13.4129 24.0649H13.4149C13.4526 24.0692 13.4906 24.073 13.5289 24.0766C13.5516 24.0788 13.5741 24.0809 13.597 24.0829L13.605 24.0836L13.6551 24.0879L13.7012 24.0915C13.7452 24.0949 13.7892 24.0981 13.8334 24.1008L13.8685 24.1029L13.8963 24.1046L13.9135 24.1056L13.9678 24.1084L13.9826 24.109L14.0395 24.1115L14.1029 24.114L14.1537 24.1154L14.1622 24.1157C14.173 24.1161 14.1838 24.1165 14.1946 24.1165L14.2063 24.1169C14.2779 24.1186 14.3494 24.1194 14.421 24.1193H14.497L14.5513 24.1187C14.5646 24.1181 14.5779 24.1181 14.5913 24.1181H14.6125L14.6308 24.1176C14.6379 24.1174 14.6451 24.1171 14.6524 24.1171H14.6741L14.7167 24.116L14.7808 24.1138L14.8513 24.1107C14.8717 24.1099 14.8919 24.1089 14.912 24.1079L14.9338 24.1065L14.9661 24.1048L14.985 24.1038L14.9993 24.1028L15.0645 24.0985L15.1296 24.0938L15.1887 24.0891L15.2302 24.0855L15.2758 24.0814C15.3521 24.0746 15.428 24.0666 15.504 24.0575L15.5559 24.0513C15.0097 22.819 15.2925 21.6683 16.4088 20.5528C17.1448 19.8174 17.6339 18.7332 17.7358 18.495C17.9413 17.7905 18.4846 17.0072 19.3875 17.0072C19.4639 17.0072 19.5402 17.0133 19.6156 17.0252C20.0107 17.0873 20.3564 17.3151 20.6034 17.6576C20.8701 17.3262 21.129 17.0625 21.3634 16.9136C21.7165 16.6898 22.0693 16.5762 22.4124 16.5762C22.7907 16.5762 23.1334 16.7133 23.3924 16.965C23.3971 16.9445 23.4017 16.924 23.4062 16.9033L23.4194 16.8419C23.4242 16.8194 23.4289 16.797 23.4334 16.7745C23.4414 16.7348 23.4494 16.6951 23.4571 16.6551C23.4651 16.6136 23.4727 16.5718 23.48 16.5301L23.4838 16.5075C23.4861 16.4941 23.4883 16.4808 23.4908 16.4673C23.4949 16.4464 23.4983 16.4255 23.5017 16.4044L23.5031 16.3964L23.5117 16.3414L23.5202 16.2857V16.2852C23.5264 16.2441 23.5322 16.2029 23.5377 16.1618L23.539 16.1516L23.5466 16.0936L23.5528 16.044L23.5638 15.9464L23.568 15.9072L23.5691 15.8965C23.5714 15.8754 23.5736 15.8543 23.5755 15.8332V15.8315C23.5771 15.8147 23.5788 15.7979 23.5803 15.781C23.5889 15.6853 23.5962 15.5892 23.602 15.4927C23.6031 15.4769 23.6039 15.461 23.6049 15.4451V15.4444L23.6081 15.3848L23.6088 15.3714C23.6107 15.3311 23.6124 15.2908 23.6138 15.2505V15.2491L23.6144 15.2333C23.615 15.2201 23.6155 15.2067 23.6155 15.1934L23.6157 15.188C23.6162 15.1755 23.6167 15.1627 23.6167 15.1499L23.617 15.139C23.6174 15.1262 23.6178 15.1136 23.6178 15.1009L23.618 15.0901C23.6184 15.0739 23.6187 15.0577 23.6187 15.0415V14.9822ZM12.1391 24.1717C12.8677 23.1034 12.816 22.3016 11.8165 21.3026C10.8168 20.3034 10.2349 18.8424 10.2349 18.8424C10.2349 18.8424 10.0178 17.9938 9.52255 18.0718C9.0273 18.1497 8.66399 19.4178 9.70099 20.1941C10.7379 20.9703 9.49463 21.4966 9.09552 20.7682C8.6964 20.0397 7.60672 18.1671 7.04179 17.8088C6.47687 17.4506 6.07957 17.6514 6.21273 18.3897C6.27889 18.7561 6.89408 19.3816 7.46884 19.966C8.05197 20.5588 8.59346 21.1094 8.47766 21.3043C8.24787 21.6911 7.43861 20.8497 7.43861 20.8497C7.43861 20.8497 4.90457 18.5436 4.35299 19.1446C3.84439 19.6985 4.62866 20.1693 5.83718 20.8951C5.93987 20.9567 6.04572 21.0203 6.15412 21.0859C7.53681 21.923 7.64435 22.1438 7.44807 22.4604C7.3756 22.5775 6.91276 22.2996 6.34346 21.9579C5.37299 21.3751 4.09336 20.6069 3.91262 21.2945C3.75628 21.8897 4.69773 22.2543 5.55155 22.5851C6.26286 22.8607 6.9135 23.1126 6.81773 23.4547C6.71856 23.8094 6.18094 23.5136 5.59332 23.1902C4.93359 22.8271 4.21074 22.4295 3.97416 22.8783C3.5271 23.7267 7.05856 24.7256 7.08769 24.733C8.22871 25.029 11.1264 25.656 12.1391 24.1717ZM16.8325 24.1717C16.1039 23.1034 16.1556 22.3016 17.1552 21.3026C18.1548 20.3034 18.7366 18.8424 18.7366 18.8424C18.7366 18.8424 18.9538 17.9938 19.449 18.0718C19.9443 18.1497 20.3076 19.4178 19.2707 20.1941C18.2337 20.9703 19.477 21.4966 19.8761 20.7682C20.2753 20.0397 21.3643 18.1671 21.9292 17.8088C22.4941 17.4506 22.8916 17.6514 22.7584 18.3897C22.6923 18.7561 22.077 19.3816 21.5023 19.9661C20.9191 20.5589 20.3776 21.1094 20.4933 21.3043C20.7231 21.6911 21.533 20.8492 21.533 20.8492C21.533 20.8492 24.0669 18.5432 24.6187 19.1442C25.1272 19.698 24.3429 20.1689 23.1343 20.8947C23.0286 20.9582 22.923 21.0218 22.8175 21.0855C21.4348 21.9226 21.3272 22.1434 21.5234 22.46C21.596 22.5771 22.0588 22.2991 22.628 21.9574C23.5986 21.3748 24.8782 20.6064 25.059 21.2942C25.2154 21.8893 24.2739 22.254 23.42 22.5847C22.7087 22.8603 22.0581 23.1123 22.1537 23.4543C22.2528 23.8089 22.7903 23.5131 23.3778 23.1897C24.0375 22.8267 24.7605 22.4288 24.9969 22.8779C25.4441 23.7269 21.9121 24.7248 21.8835 24.732C20.7425 25.029 17.8448 25.656 16.8325 24.1717Z" fill="#FFD21E"/>
<path fill-rule="evenodd" clip-rule="evenodd" d="M17.4083 12.4187C17.5518 12.4694 17.6585 12.6238 17.76 12.7708C17.8971 12.9694 18.0248 13.1543 18.2207 13.0501C18.4519 12.9272 18.6413 12.7386 18.7652 12.5079C18.8891 12.2773 18.9419 12.0152 18.9169 11.7546C18.8982 11.5598 18.8365 11.3715 18.7363 11.2034C18.636 11.0352 18.4997 10.8914 18.3373 10.7823C18.1747 10.6732 17.99 10.6015 17.7965 10.5724C17.6029 10.5433 17.4053 10.5575 17.2179 10.614C17.0304 10.6704 16.858 10.7677 16.7127 10.8988C16.5674 11.0299 16.4529 11.1916 16.3776 11.3722C16.3024 11.5529 16.268 11.748 16.2771 11.9435C16.2864 12.139 16.3387 12.33 16.4306 12.5028C16.5214 12.6736 16.7229 12.593 16.9355 12.5079C17.1022 12.4413 17.2759 12.3718 17.4083 12.4187ZM11.1722 12.4187C11.0287 12.4694 10.922 12.624 10.8205 12.7708C10.6833 12.9695 10.5555 13.1543 10.3597 13.0501C10.0691 12.8962 9.84617 12.6395 9.73445 12.3302C9.62274 12.0209 9.63023 11.681 9.75545 11.3769C9.88067 11.0727 10.1147 10.8261 10.4118 10.6851C10.709 10.5441 11.048 10.5189 11.3627 10.6142C11.6134 10.6897 11.836 10.8377 12.0026 11.0397C12.1691 11.2417 12.2719 11.4885 12.2982 11.7489C12.3245 12.0093 12.2729 12.2717 12.15 12.5028C12.0591 12.6736 11.8576 12.593 11.645 12.508C11.4782 12.4413 11.3047 12.3718 11.1722 12.4187ZM16.4435 18.0936C17.432 17.3149 17.795 16.0435 17.795 15.2603C17.795 14.6413 17.3786 14.8361 16.7118 15.1663L16.6742 15.1848C16.0622 15.4879 15.2474 15.8915 14.3531 15.8915C13.4586 15.8915 12.6438 15.4879 12.0319 15.1847C11.3436 14.8437 10.9118 14.6299 10.9118 15.2604C10.9118 16.0684 11.298 17.395 12.3582 18.1657C12.4982 17.8818 12.6952 17.6298 12.937 17.4254C13.1787 17.2209 13.46 17.0686 13.7632 16.9778C13.8691 16.9462 13.9781 17.1284 14.0896 17.315C14.1973 17.4949 14.3074 17.6789 14.4193 17.6789C14.5387 17.6789 14.6558 17.4976 14.7703 17.3206C14.8898 17.1355 15.0065 16.9552 15.1192 16.9913C15.6867 17.1735 16.1614 17.5686 16.4435 18.0936Z" fill="#32343D"/>
<path d="M16.4433 18.0935C15.9285 18.4991 15.2443 18.7712 14.3532 18.7712C13.516 18.7712 12.8612 18.5311 12.3582 18.1656C12.4982 17.8817 12.6952 17.6295 12.937 17.4253C13.1787 17.2208 13.46 17.0685 13.7632 16.9777C13.9711 16.9157 14.1914 17.6788 14.4193 17.6788C14.6633 17.6788 14.8984 16.9207 15.1192 16.9912C15.6866 17.1735 16.1612 17.5686 16.4433 18.0935Z" fill="#FF323D"/>
<path fill-rule="evenodd" clip-rule="evenodd" d="M8.80855 13.5203C8.69095 13.5989 8.55574 13.6474 8.41492 13.6612C8.2741 13.6752 8.13204 13.654 8.00134 13.5998C7.89686 13.5567 7.80193 13.4933 7.72201 13.4133C7.64208 13.3335 7.57873 13.2385 7.53559 13.134C7.48145 13.0033 7.46039 12.8613 7.47431 12.7205C7.48822 12.5797 7.53667 12.4444 7.61534 12.3268C7.70987 12.1853 7.84424 12.075 8.00149 12.0098C8.15873 11.9447 8.33175 11.9277 8.49867 11.9609C8.6656 11.9941 8.81891 12.0761 8.93921 12.1964C9.05951 12.3169 9.14141 12.4703 9.17453 12.6372C9.2077 12.8041 9.19064 12.9771 9.12552 13.1343C9.0604 13.2915 8.95001 13.4257 8.80855 13.5203ZM21.1186 13.5203C21.001 13.5989 20.8657 13.6474 20.7249 13.6612C20.584 13.6752 20.442 13.654 20.3112 13.5998C20.2067 13.5566 20.1118 13.4933 20.0319 13.4133C19.9521 13.3335 19.8887 13.2385 19.8455 13.134C19.7915 13.0033 19.7705 12.8613 19.7843 12.7205C19.7983 12.5797 19.8467 12.4444 19.9252 12.3268C19.9959 12.221 20.0892 12.1322 20.1984 12.0668C20.3075 12.0014 20.4297 11.961 20.5563 11.9485C20.683 11.9361 20.8109 11.9519 20.9305 11.9948C21.0504 12.0377 21.1591 12.1067 21.2491 12.1967C21.3695 12.317 21.4514 12.4703 21.4845 12.6372C21.5178 12.8041 21.5007 12.9771 21.4355 13.1343C21.3703 13.2915 21.2601 13.4257 21.1186 13.5203Z" fill="#FFAD03"/>
</g>
<defs>
<clipPath id="clip0_2027_30989">
<rect width="25" height="25" fill="white" transform="translate(2 3)"/>
</clipPath>
</defs>
</svg>
