<svg width="30" height="30" viewBox="0 0 30 30" fill="none" xmlns="http://www.w3.org/2000/svg">
<g clip-path="url(#clip0_2030_8)">
<path d="M28 3H3V28H28V3Z" fill="#2362C1"/>
<path d="M13.7719 14.0236L17.2544 14.0624L15.3169 9.06239C15.3169 9.06239 15.1788 8.68739 15.5669 8.68739C15.9556 8.68739 18.3794 8.68739 18.3794 8.68739C18.3794 8.68739 18.9019 8.65552 19.2469 9.56614C19.5913 10.4761 21.5044 15.3124 21.5044 15.3124L19.1919 21.4999C19.1919 21.4999 19.0594 22.2499 18.1294 22.2499C17.2 22.2499 15.4219 22.2568 15.4219 22.2568C15.4219 22.2568 15.125 22.2818 15.3794 21.6249C15.6344 20.968 17.1294 16.9999 17.1294 16.9999H13.7544L11.8794 21.6874C11.8794 21.6874 11.6725 22.243 11.1919 22.2499C10.7119 22.2568 8.19189 22.2499 8.19189 22.2499C8.19189 22.2499 8.02376 22.098 8.19189 21.6249C8.36064 21.1518 10.5669 15.3749 10.5669 15.3749L8.06689 8.99989C8.06689 8.99989 7.99251 8.68114 8.44189 8.68739C8.89189 8.69364 11.1919 8.68739 11.1919 8.68739C11.1919 8.68739 11.72 8.72739 11.9419 9.31239C12.1638 9.89739 13.7719 14.0236 13.7719 14.0236Z" fill="#D632B7"/>
<path d="M15.2719 14.0236L18.7544 14.0624L16.8169 9.06239C16.8169 9.06239 16.6788 8.68739 17.0669 8.68739C17.4556 8.68739 19.8794 8.68739 19.8794 8.68739C19.8794 8.68739 20.4019 8.65552 20.7469 9.56614C21.0913 10.4761 23.0044 15.3124 23.0044 15.3124L20.6919 21.4999C20.6919 21.4999 20.5594 22.2499 19.6294 22.2499C18.7 22.2499 16.9219 22.2568 16.9219 22.2568C16.9219 22.2568 16.625 22.2818 16.8794 21.6249C17.1344 20.968 18.6294 16.9999 18.6294 16.9999H15.2544L13.3794 21.6874C13.3794 21.6874 13.1725 22.243 12.6919 22.2499C12.2119 22.2568 9.69189 22.2499 9.69189 22.2499C9.69189 22.2499 9.52376 22.098 9.69189 21.6249C9.86064 21.1518 12.0669 15.3749 12.0669 15.3749L9.56689 8.99989C9.56689 8.99989 9.49251 8.68114 9.94189 8.68739C10.3919 8.69364 12.6919 8.68739 12.6919 8.68739C12.6919 8.68739 13.22 8.72739 13.4419 9.31239C13.6638 9.89739 15.2719 14.0236 15.2719 14.0236Z" fill="white"/>
</g>
<defs>
<clipPath id="clip0_2030_8">
<rect x="3" y="3" width="25" height="25" rx="3" fill="white"/>
</clipPath>
</defs>
</svg>
