<svg width="30" height="30" viewBox="0 0 30 30" fill="none" xmlns="http://www.w3.org/2000/svg">
<g clip-path="url(#clip0_2031_14)">
<path d="M14.5 28C21.4036 28 27 22.4036 27 15.5C27 8.59644 21.4036 3 14.5 3C7.59644 3 2 8.59644 2 15.5C2 22.4036 7.59644 28 14.5 28Z" fill="#006AFF"/>
<mask id="mask0_2031_14" style="mask-type:luminance" maskUnits="userSpaceOnUse" x="6" y="10" width="17" height="11">
<path d="M22.5927 10.5986H6.40729V20.4771H22.5927V10.5986Z" fill="white"/>
</mask>
<g mask="url(#mask0_2031_14)">
<path d="M7.65082 10.7822H6.40729V20.304H7.65082V10.7822Z" fill="black"/>
<path d="M12.2802 16.831H11.6399C10.3172 16.831 9.24141 15.7367 9.24141 14.3913V10.7798H12.9211C14.2438 10.7798 15.3197 11.8741 15.3197 13.2195V14.1639H14.0761V13.2195C14.0761 12.5719 13.5578 12.0447 12.9211 12.0447H10.485V14.3913C10.485 15.0389 11.0033 15.5661 11.6399 15.5661H12.2802V16.831ZM15.4438 17.8567V16.7203C15.4438 15.3748 14.3679 14.2805 13.0453 14.2805H12.2802V15.5454H13.0453C13.6819 15.5454 14.2002 16.0726 14.2002 16.7203V17.8567C14.2002 18.5043 13.6819 19.0315 13.0453 19.0315H10.485V16.9138H9.24141V20.2964H13.0453C14.3679 20.2964 15.4438 19.202 15.4438 17.8567Z" fill="black"/>
<path d="M19.679 20.4768H19.4721C17.8656 20.4768 16.5582 19.147 16.5582 17.5128V13.5616C16.5582 11.9275 17.8656 10.5977 19.4721 10.5977H19.679C21.2855 10.5977 22.5929 11.9275 22.5929 13.5616H21.3494C21.3494 12.6253 20.6002 11.8633 19.6797 11.8633H19.4728C18.5524 11.8633 17.8032 12.6253 17.8032 13.5616V17.5128C17.8032 18.4492 18.5524 19.2112 19.4728 19.2112H19.6797C20.6002 19.2112 21.3494 18.4492 21.3494 17.5128H22.5929C22.5929 19.147 21.2855 20.4768 19.679 20.4768Z" fill="black"/>
<path d="M19.679 20.4768H19.4721C17.8656 20.4768 16.5582 19.147 16.5582 17.5128V13.5616C16.5582 11.9275 17.8656 10.5977 19.4721 10.5977H19.679C21.2855 10.5977 22.5929 11.9275 22.5929 13.5616H21.3494C21.3494 12.6253 20.6002 11.8633 19.6797 11.8633H19.4728C18.5524 11.8633 17.8032 12.6253 17.8032 13.5616V17.5128C17.8032 18.4492 18.5524 19.2112 19.4728 19.2112H19.6797C20.6002 19.2112 21.3494 18.4492 21.3494 17.5128H22.5929C22.5929 19.147 21.2855 20.4768 19.679 20.4768Z" fill="black"/>
</g>
</g>
<defs>
<clipPath id="clip0_2031_14">
<rect width="25" height="25" fill="white" transform="translate(2 3)"/>
</clipPath>
</defs>
</svg>
