<?xml version="1.0" encoding="UTF-8"?>
<svg xmlns="http://www.w3.org/2000/svg" width="20" height="20" viewBox="0 0 20 20" fill="none">
  <g clip-path="url(#clip0_1239_6066)">
    <path d="M17.2305 8.26732H17.181V7.05445C17.181 3.15839 14.0227 0 10.1265 0C6.23044 0 3.0721 3.15839 3.0721 7.05445V8.26732H2.77508C1.68596 8.26732 0.844394 9.23265 0.844394 10.3465V13.4406C0.816962 14.5202 1.66995 15.4176 2.74955 15.4451C2.75808 15.4453 2.76656 15.4454 2.77508 15.4455H4.60676C4.8662 15.4334 5.06665 15.2131 5.05443 14.9537C5.054 14.9443 5.05329 14.935 5.0523 14.9257V8.86135C5.0523 8.56433 4.87904 8.26728 4.60676 8.26728H4.0622V7.05441C4.0622 3.70518 6.77732 0.990053 10.1265 0.990053C13.4758 0.990053 16.1909 3.70518 16.1909 7.05441V8.26728H15.6463C15.3741 8.26728 15.2008 8.56429 15.2008 8.86135V14.9257C15.1732 15.184 15.3601 15.4157 15.6184 15.4433C15.6277 15.4443 15.637 15.4451 15.6463 15.4455H16.2156L16.1661 15.5197C15.7998 16.0065 15.3248 16.4011 14.7791 16.6718C14.2333 16.9425 13.6318 17.082 13.0226 17.0791C12.7521 15.7531 11.4579 14.8973 10.1318 15.1678C8.99782 15.399 8.18022 16.3921 8.17108 17.5494C8.18463 18.9068 9.28891 20 10.6463 19.9999C11.3183 19.989 11.9588 19.7132 12.4285 19.2326C12.7454 18.908 12.9531 18.4927 13.0226 18.0444C13.7855 18.0473 14.5386 17.8721 15.2218 17.5326C15.9051 17.1931 16.4997 16.6988 16.9582 16.089L17.4285 15.3959C18.4928 15.3217 19.1612 14.6534 19.1612 13.688V10.594C19.1612 9.5297 18.3691 8.26732 17.2305 8.26732ZM4.0622 14.4554H2.77508C2.24208 14.4424 1.82052 13.9999 1.8335 13.4669C1.83374 13.4581 1.83407 13.4494 1.83449 13.4405V10.3465C1.83449 9.77721 2.23052 9.25738 2.77508 9.25738H4.0622V14.4554ZM11.7107 18.5396C11.575 18.6867 11.4105 18.8044 11.2274 18.8853C11.0443 18.9662 10.8465 19.0086 10.6464 19.0099C9.84105 18.9971 9.18752 18.3545 9.16123 17.5495C9.1609 16.7429 9.81447 16.0888 10.621 16.0885C11.4276 16.0882 12.0817 16.7417 12.082 17.5483V17.5495C12.0922 17.7312 12.0645 17.9131 12.0005 18.0836C11.9366 18.254 11.8379 18.4093 11.7107 18.5396ZM18.1711 13.6881C18.1711 14.3564 17.5275 14.4554 17.2305 14.4554H16.1909V9.25742H17.2305C17.7751 9.25742 18.1711 10.0248 18.1711 10.594V13.6881Z" fill="white"></path>
  </g>
  <defs>
    <clipPath id="clip0_1239_6066">
      <rect width="20" height="20" fill="white"></rect>
    </clipPath>
  </defs>
</svg>
