<?xml version="1.0" encoding="UTF-8"?>
<svg xmlns="http://www.w3.org/2000/svg" width="16" height="16" viewBox="0 0 16 16" fill="none">
  <path d="M15.165 11.2788V13.2788C15.1657 13.4644 15.1277 13.6482 15.0533 13.8183C14.979 13.9884 14.8699 14.1412 14.733 14.2667C14.5962 14.3922 14.4347 14.4878 14.2588 14.5472C14.0829 14.6067 13.8966 14.6288 13.7117 14.6121C11.6602 14.3892 9.68966 13.6882 7.95833 12.5654C6.34755 11.5419 4.98189 10.1762 3.95833 8.56543C2.83165 6.82623 2.13049 4.84609 1.91166 2.78543C1.895 2.60107 1.91691 2.41527 1.97599 2.23985C2.03508 2.06442 2.13004 1.90322 2.25484 1.76651C2.37964 1.6298 2.53153 1.52057 2.70086 1.44578C2.87018 1.37099 3.05322 1.33227 3.23833 1.3321H5.23833C5.56187 1.32891 5.87552 1.44348 6.12084 1.65445C6.36615 1.86542 6.52638 2.15839 6.57166 2.47876C6.65608 3.11881 6.81263 3.74725 7.03833 4.3521C7.12802 4.59071 7.14744 4.85004 7.09427 5.09935C7.0411 5.34866 6.91757 5.5775 6.73833 5.75876L5.89166 6.60543C6.8407 8.27446 8.22263 9.65639 9.89166 10.6054L10.7383 9.75876C10.9196 9.57952 11.1484 9.456 11.3977 9.40283C11.6471 9.34965 11.9064 9.36907 12.145 9.45876C12.7498 9.68446 13.3783 9.84101 14.0183 9.92543C14.3422 9.97112 14.6379 10.1342 14.8494 10.3838C15.0608 10.6333 15.1731 10.9518 15.165 11.2788Z" stroke="#00BC7D" stroke-width="1.5" stroke-linecap="round" stroke-linejoin="round"></path>
</svg>
