<?xml version="1.0" encoding="UTF-8"?>
<svg xmlns="http://www.w3.org/2000/svg" width="28" height="28" viewBox="0 0 28 28" fill="none">
  <g clip-path="url(#clip0_1227_102)">
    <path opacity="0.2" d="M14 28C21.732 28 28 21.732 28 14C28 6.26801 21.732 0 14 0C6.26801 0 0 6.26801 0 14C0 21.732 6.26801 28 14 28Z" fill="white"></path>
    <path d="M20.1689 11.5781L14.957 14.8896L14.9551 14.8916C14.6697 15.0705 14.3395 15.165 14.0029 15.165C13.6662 15.165 13.3361 15.0704 13.0508 14.8916L13.0479 14.8896L7.83594 11.5781V18.001C7.83594 18.461 8.20886 18.8348 8.66895 18.835H19.3359C19.7962 18.835 20.1689 18.4612 20.1689 18.001V11.5781ZM20.1689 10.001C20.1688 9.54087 19.7961 9.16797 19.3359 9.16797H8.66895C8.20896 9.16815 7.83611 9.541 7.83594 10.001V10.3926L13.5811 14.0439C13.7072 14.123 13.8539 14.165 14.0029 14.165C14.1517 14.165 14.2977 14.123 14.4238 14.0439L20.1689 10.3936V10.001ZM21.1689 18.001C21.1689 19.0134 20.3485 19.835 19.3359 19.835H8.66895C7.65658 19.8348 6.83594 19.0133 6.83594 18.001V10.001C6.83611 8.98871 7.65669 8.16815 8.66895 8.16797H19.3359C20.3484 8.16797 21.1688 8.98862 21.1689 10.001V18.001Z" fill="white"></path>
  </g>
  <defs>
    <clipPath id="clip0_1227_102">
      <rect width="28" height="28" fill="white"></rect>
    </clipPath>
  </defs>
</svg>
