<?xml version="1.0" encoding="UTF-8"?>
<svg xmlns="http://www.w3.org/2000/svg" width="23" height="20" viewBox="0 0 23 20" fill="none">
  <path d="M21.3356 15.0552C23.5346 11.97 23.1984 7.74307 20.195 4.98969C18.8227 3.73169 17.0732 2.94853 15.1834 2.72982C15.1716 2.71512 15.1593 2.70092 15.1464 2.68724C13.5023 0.979467 11.1404 0 8.66613 0C3.95773 0 0 3.50813 0 8C0 9.57489 0.4892 11.0846 1.41849 12.3885L0.120311 16.4643C0.0803971 16.5896 0.078418 16.7239 0.114623 16.8503C0.150827 16.9766 0.223599 17.0895 0.323784 17.1747C0.42397 17.2598 0.547095 17.3134 0.677673 17.3288C0.808251 17.3441 0.940451 17.3205 1.05764 17.2609L5.00551 15.2535C5.81627 15.6026 6.676 15.8316 7.56631 15.9359C9.28373 17.7419 11.6584 18.6667 14.088 18.6667C15.3509 18.6667 16.6093 18.4093 17.7484 17.9201L21.6965 19.9276C21.79 19.9752 21.8935 20 21.9985 20C22.4484 20 22.7709 19.5616 22.6338 19.131L21.3356 15.0552ZM5.27458 13.912C5.18247 13.8683 5.08155 13.8463 4.97959 13.8476C4.87762 13.849 4.77734 13.8738 4.68644 13.92L1.87458 15.3498L2.7928 12.4668C2.82573 12.3635 2.83294 12.2536 2.81378 12.1468C2.79463 12.04 2.7497 11.9395 2.68289 11.854C1.79996 10.7238 1.33324 9.39116 1.33324 8C1.33324 4.324 4.62276 1.33333 8.66613 1.33333C10.2944 1.33333 11.8619 1.82662 13.1334 2.71493C8.85129 3.14551 5.42187 6.49013 5.42187 10.6667C5.42187 11.9657 5.75484 13.2163 6.38262 14.3367C6.00292 14.2238 5.63247 14.0818 5.27458 13.912ZM18.0677 16.5866C17.9768 16.5404 17.8765 16.5157 17.7745 16.5143C17.6726 16.5129 17.5717 16.535 17.4796 16.5787C16.4402 17.0724 15.2675 17.3333 14.088 17.3333C10.0446 17.3333 6.75511 14.3427 6.75511 10.6667C6.75511 6.99067 10.0446 4 14.088 4C18.1314 4 21.4209 6.99067 21.4209 10.6667C21.4209 12.0578 20.9542 13.3905 20.0712 14.5207C20.0044 14.6062 19.9595 14.7067 19.9403 14.8135C19.9212 14.9202 19.9284 15.0301 19.9613 15.1335L20.8795 18.0164L18.0677 16.5866Z" fill="white"></path>
  <path d="M11.3776 11.3333C11.7458 11.3333 12.0443 11.0349 12.0443 10.6667C12.0443 10.2985 11.7458 10 11.3776 10C11.0094 10 10.7109 10.2985 10.7109 10.6667C10.7109 11.0349 11.0094 11.3333 11.3776 11.3333Z" fill="white"></path>
  <path d="M14.0417 11.3333C14.4099 11.3333 14.7083 11.0349 14.7083 10.6667C14.7083 10.2985 14.4099 10 14.0417 10C13.6735 10 13.375 10.2985 13.375 10.6667C13.375 11.0349 13.6735 11.3333 14.0417 11.3333Z" fill="white"></path>
  <path d="M16.7135 11.3333C17.0817 11.3333 17.3802 11.0349 17.3802 10.6667C17.3802 10.2985 17.0817 10 16.7135 10C16.3454 10 16.0469 10.2985 16.0469 10.6667C16.0469 11.0349 16.3454 11.3333 16.7135 11.3333Z" fill="white"></path>
</svg>
