<?xml version="1.0" encoding="UTF-8"?>
<svg xmlns="http://www.w3.org/2000/svg" width="21" height="17" viewBox="0 0 21 17" fill="none">
  <path d="M5.04808 9.8722L0.411127 8.36139C0.411127 8.36139 -0.14304 8.13656 0.035402 7.62672C0.0721353 7.52159 0.146235 7.43213 0.367902 7.27839C1.39533 6.56225 19.3847 0.0963879 19.3847 0.0963879C19.3847 0.0963879 19.8926 -0.0747703 20.1922 0.0390713C20.2663 0.0620118 20.333 0.104226 20.3854 0.161396C20.4379 0.218565 20.4742 0.288638 20.4906 0.364446C20.523 0.498344 20.5365 0.636101 20.5309 0.773738C20.5294 0.892805 20.515 1.00316 20.5041 1.17622C20.3945 2.94401 17.1158 16.1376 17.1158 16.1376C17.1158 16.1376 16.9196 16.9096 16.2168 16.9361C16.044 16.9417 15.872 16.9124 15.7108 16.8501C15.5496 16.7877 15.4026 16.6936 15.2786 16.5732C13.8994 15.3868 9.13229 12.1831 8.07889 11.4785C8.05513 11.4623 8.03512 11.4412 8.02021 11.4166C8.0053 11.392 7.99583 11.3646 7.99244 11.336C7.97772 11.2617 8.05847 11.1697 8.05847 11.1697C8.05847 11.1697 16.3593 3.79141 16.5801 3.01685C16.5972 2.95684 16.5326 2.92723 16.4459 2.95351C15.8945 3.15634 6.33723 9.19185 5.28241 9.85795C5.20648 9.88093 5.12623 9.88581 5.04808 9.8722Z" fill="black"></path>
</svg>
