<?xml version="1.0" encoding="UTF-8"?>
<svg xmlns="http://www.w3.org/2000/svg" width="20" height="20" viewBox="0 0 20 20" fill="none">
  <g clip-path="url(#clip0_1239_6045)">
    <path d="M15.8074 12.3893C15.3979 11.9629 14.9041 11.735 14.3806 11.735C13.8614 11.735 13.3633 11.9587 12.937 12.3851L11.6031 13.7147C11.4934 13.6556 11.3836 13.6007 11.2781 13.5459C11.1261 13.4699 10.9826 13.3981 10.8602 13.3222C9.61076 12.5286 8.47527 11.4944 7.38622 10.1563C6.85857 9.48936 6.504 8.92795 6.24651 8.3581C6.59264 8.04151 6.91345 7.71226 7.22581 7.39568C7.344 7.27749 7.4622 7.15507 7.58039 7.03688C8.46683 6.15044 8.46683 5.00229 7.58039 4.11585L6.42802 2.96348C6.29716 2.83263 6.16209 2.69755 6.03545 2.56248C5.78218 2.30077 5.51625 2.03061 5.24188 1.77734C4.83243 1.37211 4.34278 1.15684 3.8278 1.15684C3.31282 1.15684 2.81472 1.37211 2.39261 1.77734L2.38417 1.78579L0.948981 3.23364C0.408676 3.77394 0.100533 4.43244 0.0329944 5.19647C-0.0683129 6.42904 0.294705 7.57719 0.5733 8.32855C1.25712 10.1732 2.27864 11.8827 3.80247 13.7147C5.65133 15.9224 7.87587 17.6657 10.417 18.8941C11.3879 19.3542 12.6837 19.8987 14.1316 19.9915C14.2202 19.9958 14.3131 20 14.3975 20C15.3726 20 16.1915 19.6496 16.8331 18.9532C16.8373 18.9447 16.8458 18.9405 16.85 18.932C17.0695 18.6661 17.3228 18.4255 17.5887 18.168C17.7702 17.995 17.9559 17.8134 18.1375 17.6235C18.5553 17.1887 18.7748 16.6822 18.7748 16.163C18.7748 15.6396 18.5511 15.1372 18.1248 14.7151L15.8074 12.3893ZM17.3186 16.8341C17.3143 16.8384 17.3143 16.8341 17.3186 16.8341C17.1539 17.0114 16.9851 17.1718 16.8036 17.3491C16.5292 17.6108 16.2506 17.8852 15.9889 18.1933C15.5626 18.6492 15.0602 18.8645 14.4017 18.8645C14.3384 18.8645 14.2709 18.8645 14.2076 18.8603C12.9539 18.7801 11.7889 18.2904 10.9151 17.8725C8.52592 16.7159 6.42802 15.0739 4.68469 12.9929C3.24528 11.258 2.28286 9.65399 1.64547 7.93176C1.2529 6.8807 1.10938 6.0618 1.1727 5.28933C1.21491 4.79546 1.40486 4.38601 1.75522 4.03565L3.19463 2.59624C3.40146 2.40207 3.62096 2.29654 3.83624 2.29654C4.10217 2.29654 4.31745 2.45695 4.45253 2.59202L4.46519 2.60469C4.72268 2.84529 4.9675 3.09434 5.22499 3.36027C5.35585 3.49535 5.49092 3.63042 5.626 3.76972L6.77837 4.92209C7.22581 5.36953 7.22581 5.7832 6.77837 6.23064C6.65596 6.35306 6.53777 6.47547 6.41535 6.59366C6.06078 6.95668 5.72309 7.29437 5.35585 7.62362C5.34741 7.63206 5.33896 7.63628 5.33474 7.64472C4.97173 8.00774 5.03926 8.36232 5.11524 8.60292L5.12791 8.64091C5.42761 9.36695 5.84972 10.0508 6.49133 10.8655L6.49556 10.8697C7.66059 12.3049 8.88894 13.4235 10.2439 14.2804C10.417 14.3901 10.5943 14.4787 10.7631 14.5632C10.9151 14.6391 11.0586 14.7109 11.181 14.7869C11.1979 14.7953 11.2148 14.808 11.2317 14.8164C11.3752 14.8882 11.5103 14.922 11.6496 14.922C11.9999 14.922 12.2194 14.7025 12.2912 14.6307L13.7348 13.1871C13.8783 13.0436 14.1063 12.8705 14.3722 12.8705C14.6339 12.8705 14.8492 13.0351 14.98 13.1786L14.9885 13.1871L17.3143 15.5129C17.7491 15.9435 17.7491 16.3867 17.3186 16.8341ZM10.8096 4.75747C11.9155 4.9432 12.9201 5.46662 13.7221 6.26863C14.5242 7.07065 15.0434 8.07528 15.2333 9.18122C15.2797 9.45981 15.5203 9.65399 15.7947 9.65399C15.8285 9.65399 15.858 9.64976 15.8918 9.64554C16.2042 9.59489 16.411 9.29941 16.3604 8.98705C16.1324 7.64895 15.4992 6.42904 14.5326 5.4624C13.566 4.49576 12.3461 3.86259 11.008 3.63464C10.6956 3.58399 10.4043 3.79083 10.3495 4.09897C10.2946 4.40711 10.4972 4.70681 10.8096 4.75747ZM19.9779 8.82242C19.6022 6.61899 18.5638 4.61395 16.9682 3.01836C15.3726 1.42277 13.3676 0.384369 11.1641 0.00868772C10.856 -0.0461871 10.5647 0.16487 10.5099 0.473013C10.4592 0.785377 10.666 1.07664 10.9784 1.13151C12.9455 1.46498 14.7394 2.39785 16.1662 3.82037C17.5929 5.24712 18.5216 7.0411 18.855 9.00815C18.9015 9.28675 19.1421 9.48092 19.4165 9.48092C19.4502 9.48092 19.4798 9.4767 19.5135 9.47248C19.8217 9.42604 20.0327 9.13056 19.9779 8.82242Z" fill="white"></path>
  </g>
  <defs>
    <clipPath id="clip0_1239_6045">
      <rect width="20" height="20" fill="white"></rect>
    </clipPath>
  </defs>
</svg>
