<?xml version="1.0" encoding="UTF-8"?>
<svg xmlns="http://www.w3.org/2000/svg" width="20" height="20" viewBox="0 0 20 20" fill="none">
  <g clip-path="url(#clip0_1239_6023)">
    <path d="M10 2.34375C9.67641 2.34375 9.41406 2.60609 9.41406 2.92969C9.41406 3.25328 9.67641 3.51562 10 3.51562C11.9388 3.51562 13.5162 5.09273 13.5162 7.03125C13.5162 7.35484 13.7786 7.61719 14.1021 7.61719C14.4257 7.61719 14.6881 7.35484 14.6881 7.03125C14.6881 4.44656 12.585 2.34375 10 2.34375Z" fill="white"></path>
    <path d="M8.48965 0.15696C5.84238 0.710124 3.6959 2.83606 3.13109 5.49977C2.65418 7.74907 3.24187 10.0073 4.74348 11.6954C5.4775 12.5205 5.89844 13.6097 5.89844 14.6866V15.8585C5.89844 16.6382 6.40887 17.3006 7.11301 17.53C7.34457 18.8982 8.53207 19.9991 10 19.9991C11.4675 19.9991 12.6554 18.8985 12.887 17.53C13.5911 17.3006 14.1016 16.6382 14.1016 15.8585V14.6866C14.1016 13.6075 14.5239 12.5314 15.2907 11.6566C16.4129 10.3767 17.0315 8.73254 17.0312 7.0304C17.0312 2.59426 12.9707 -0.779212 8.48965 0.15696ZM10 18.8273C9.2468 18.8273 8.58641 18.309 8.34254 17.6124H11.6574C11.4136 18.309 10.7532 18.8273 10 18.8273ZM12.9297 15.8585C12.9297 16.1816 12.6668 16.4445 12.3438 16.4445H7.65625C7.33316 16.4445 7.07031 16.1816 7.07031 15.8585V15.2726H12.9297V15.8585ZM14.4095 10.8842C13.5923 11.8165 13.0895 12.9407 12.9619 14.1007H7.0382C6.91078 12.9401 6.4093 11.8048 5.61914 10.9165C4.36766 9.50962 3.87863 7.62387 4.2775 5.74286C4.74309 3.547 6.53215 1.76321 8.72938 1.30411C12.4803 0.520241 15.8594 3.33712 15.8594 7.0304C15.8596 8.44835 15.3442 9.81801 14.4095 10.8842ZM1.75781 7.0304H0.585938C0.262344 7.0304 0 7.29274 0 7.61634C0 7.93993 0.262344 8.20227 0.585938 8.20227H1.75781C2.08141 8.20227 2.34375 7.93993 2.34375 7.61634C2.34375 7.29274 2.08141 7.0304 1.75781 7.0304ZM2.00051 4.10071L1.17188 3.27208C0.943086 3.04325 0.57207 3.04325 0.343242 3.27208C0.114414 3.50091 0.114414 3.87188 0.343242 4.10071L1.17188 4.92934C1.40066 5.15817 1.77168 5.15821 2.00051 4.92934C2.22934 4.70052 2.22934 4.32954 2.00051 4.10071ZM2.00051 10.3033C1.77168 10.0745 1.40066 10.0745 1.17188 10.3033L0.343242 11.132C0.114414 11.3608 0.114414 11.7318 0.343242 11.9606C0.572031 12.1894 0.943047 12.1895 1.17188 11.9606L2.00051 11.132C2.22934 10.9031 2.22934 10.5322 2.00051 10.3033ZM19.4141 7.0304H18.2422C17.9186 7.0304 17.6562 7.29274 17.6562 7.61634C17.6562 7.93993 17.9186 8.20227 18.2422 8.20227H19.4141C19.7377 8.20227 20 7.93993 20 7.61634C20 7.29274 19.7377 7.0304 19.4141 7.0304ZM19.6568 3.27208C19.428 3.04325 19.057 3.04325 18.8281 3.27208L17.9995 4.10071C17.7707 4.32954 17.7707 4.70052 17.9995 4.92934C18.2283 5.15813 18.5993 5.15817 18.8281 4.92934L19.6568 4.10071C19.8856 3.87188 19.8856 3.50091 19.6568 3.27208ZM19.6568 11.132L18.8281 10.3033C18.5993 10.0745 18.2283 10.0745 17.9995 10.3033C17.7707 10.5322 17.7707 10.9031 17.9995 11.132L18.8281 11.9606C19.0569 12.1894 19.4279 12.1894 19.6568 11.9606C19.8856 11.7318 19.8856 11.3608 19.6568 11.132Z" fill="white"></path>
  </g>
  <defs>
    <clipPath id="clip0_1239_6023">
      <rect width="20" height="20" fill="white"></rect>
    </clipPath>
  </defs>
</svg>
