<?xml version="1.0" encoding="UTF-8"?>
<svg xmlns="http://www.w3.org/2000/svg" width="28" height="28" viewBox="0 0 28 28" fill="none">
  <path fill-rule="evenodd" clip-rule="evenodd" d="M14.1901 13.038V23.9999C14.1901 24.031 14.21 24.0573 14.24 24.0659C15.4924 24.4234 15.9272 26.0161 14.9863 26.9571C14.3095 27.6339 13.2124 27.6339 12.5356 26.9571C11.5947 26.0162 12.0295 24.4234 13.282 24.0659C13.2964 24.0619 13.3091 24.0533 13.3181 24.0413C13.3272 24.0294 13.332 24.0148 13.3319 23.9999V13.038C13.3319 13.0001 13.3627 12.9693 13.4005 12.9693H14.1215C14.1592 12.9693 14.1901 13.0002 14.1901 13.038ZM2.24469 8.61523C2.24469 10.546 3.80974 12.111 5.7405 12.111H23.1468C24.3177 12.111 25.2773 11.1514 25.2773 9.98048C25.2773 8.80794 24.3123 7.84698 23.1475 7.84819C22.8054 7.84851 22.5907 7.4496 22.8049 7.16429C23.4401 6.31802 23.3559 5.12864 22.6056 4.3783C22.0431 3.81581 21.1946 3.6048 20.4241 3.86131C19.9854 4.00736 19.8524 4.19066 19.7035 4.24173C19.6502 4.26 19.5939 4.26761 19.5377 4.2641C19.4814 4.26059 19.4265 4.24605 19.3759 4.2213C19.3253 4.19654 19.2801 4.16207 19.2428 4.11984C19.2055 4.07761 19.1769 4.02845 19.1587 3.97517C18.3488 1.61338 16.1259 0 13.5904 0C10.6341 0 8.15534 2.18387 7.75867 5.08474C7.72053 5.36339 7.42222 5.5351 7.16021 5.4183C4.88571 4.40474 2.24469 6.0601 2.24469 8.61523ZM5.64437 19.9339C6.42741 19.9339 7.10043 20.4565 7.31022 21.188C7.31421 21.2024 7.32284 21.215 7.33477 21.224C7.3467 21.233 7.36127 21.2378 7.37621 21.2377H9.3517C9.38952 21.2377 9.42037 21.2068 9.42037 21.169V13.038C9.42037 13.0001 9.45122 12.9693 9.48904 12.9693H10.21C10.2478 12.9693 10.2787 13.0001 10.2787 13.038V21.6668C10.2787 21.7806 10.2335 21.8898 10.153 21.9703C10.0725 22.0507 9.96336 22.0959 9.84955 22.0959H7.37621C7.36125 22.0958 7.34667 22.1006 7.33474 22.1096C7.32281 22.1187 7.31419 22.1314 7.31022 22.1458C6.95278 23.3982 5.36008 23.8332 4.41902 22.8921C3.74222 22.2153 3.74222 21.1183 4.41902 20.4414C4.73262 20.1279 5.1659 19.9339 5.64437 19.9339ZM1.73294 15.4591C1.50533 15.4588 1.27989 15.5035 1.06961 15.5906C0.85932 15.6777 0.668325 15.8055 0.5076 15.9667C-0.1692 16.6435 -0.1692 17.7406 0.5076 18.4174C1.44866 19.3585 3.04142 18.9235 3.3988 17.6711C3.40276 17.6567 3.41137 17.644 3.42331 17.6349C3.43524 17.6259 3.44983 17.6211 3.46478 17.6212H5.93813C6.05194 17.6212 6.16109 17.576 6.24156 17.4956C6.32204 17.4151 6.36725 17.3059 6.36725 17.1921V13.0376C6.36725 13 6.33672 12.9692 6.29909 12.969L5.57813 12.9638C5.56906 12.9637 5.56006 12.9654 5.55166 12.9689C5.54326 12.9723 5.53562 12.9773 5.52918 12.9837C5.52275 12.9901 5.51765 12.9977 5.51419 13.0061C5.51073 13.0145 5.50897 13.0234 5.50901 13.0325V16.6943C5.50901 16.7322 5.47816 16.763 5.44034 16.763H3.46478C3.44985 16.7631 3.43528 16.7583 3.42335 16.7493C3.41142 16.7404 3.40279 16.7277 3.3988 16.7133C3.18901 15.9816 2.51598 15.4591 1.73294 15.4591ZM20.6522 20.4415C21.329 19.7647 22.4261 19.7647 23.1029 20.4415C23.7797 21.1183 23.7797 22.2154 23.1029 22.8922C22.1619 23.8333 20.5692 23.3983 20.2117 22.1459C20.2077 22.1315 20.1991 22.1188 20.1871 22.1098C20.1752 22.1008 20.1606 22.0959 20.1457 22.0961H17.6723C17.5585 22.0961 17.4494 22.0509 17.3689 21.9704C17.2884 21.8899 17.2432 21.7808 17.2432 21.6669V13.038C17.2432 13.0001 17.2741 12.9693 17.3119 12.9693H18.0328C18.0707 12.9693 18.1015 13.0001 18.1015 13.038V21.169C18.1015 21.2068 18.1324 21.2377 18.1702 21.2377H20.1457C20.1768 21.2377 20.2031 21.2179 20.2117 21.188C20.2929 20.9058 20.4445 20.649 20.6522 20.4415ZM24.5637 15.9667C24.356 16.1741 24.2043 16.431 24.1232 16.7132C24.1192 16.7276 24.1105 16.7402 24.0986 16.7492C24.0867 16.7582 24.0721 16.763 24.0572 16.7629H22.0816C22.0634 16.7628 22.046 16.7556 22.0331 16.7427C22.0202 16.7299 22.013 16.7124 22.0129 16.6942V13.038C22.0129 13.0001 21.9821 12.9693 21.9443 12.9693H21.2234C21.1856 12.9693 21.1547 13.0001 21.1547 13.038V17.1919C21.1547 17.3057 21.1999 17.4149 21.2804 17.4954C21.3609 17.5758 21.47 17.6211 21.5838 17.6211H24.0572C24.0883 17.6211 24.1146 17.641 24.1232 17.6709C24.4806 18.9233 26.0733 19.3583 27.0144 18.4172C27.6912 17.7404 27.6912 16.6433 27.0144 15.9665C26.3376 15.2899 25.2405 15.2899 24.5637 15.9667Z" fill="#891BE6"></path>
</svg>
