<svg width="30" height="30" viewBox="0 0 30 30" fill="none" xmlns="http://www.w3.org/2000/svg">
<g clip-path="url(#clip0_2031_24)">
<path fill-rule="evenodd" clip-rule="evenodd" d="M28.8036 1.92871V28.9823H1.66072V1.92871H28.8036Z" fill="#FF6B4A"/>
<path d="M5.49999 7.82122V9.16051C5.94999 9.09979 6.90357 9.00158 7.91071 8.90336C8.91785 8.80515 10.2437 8.68193 10.8571 8.62926C11.4714 8.57658 12.5259 8.53461 13.2009 8.53461L14.4286 8.53551V12.9998C12.0411 13.7587 10.8259 14.1203 10.1875 14.2926C9.5491 14.4659 8.58482 14.7105 8.04464 14.8373C7.50446 14.9641 6.60714 15.1748 6.04999 15.306C5.49285 15.4373 4.99642 15.5641 4.94732 15.5891C4.89464 15.6159 5.02142 16.14 5.2616 16.8837C5.6616 18.1248 5.66607 18.1337 5.91696 18.1025C6.05624 18.0855 6.38035 17.9757 6.63839 17.8569C6.89642 17.7391 7.12767 17.6426 7.15178 17.6426C7.17589 17.6426 7.40714 17.548 7.66517 17.4328C7.92321 17.3176 8.41517 17.1328 8.75892 17.023C9.10267 16.9132 9.59464 16.7266 9.85267 16.6078C10.1107 16.4891 10.3518 16.3926 10.3884 16.3918C10.425 16.3918 10.5759 16.3284 10.7232 16.2516C10.8705 16.1748 11.2518 16.0534 11.5714 15.981C11.8911 15.9087 12.6241 15.6909 13.2009 15.4962C13.7777 15.3016 14.2902 15.1426 14.3393 15.1426C14.3973 15.1426 14.4286 16.4221 14.4286 18.8034V22.4641C12.5259 22.465 11.4705 22.423 10.8571 22.3703C10.2429 22.3185 8.91785 22.1953 7.91071 22.098C6.90357 21.9998 5.94999 21.9016 5.79017 21.8793L5.49999 21.8391V24.5176H25.4107L25.4152 21.7944C25.0312 21.8855 24.0759 21.9935 23.0446 22.0944C22.0134 22.1953 20.667 22.3194 20.0536 22.3712C19.4393 22.423 18.3848 22.465 17.7098 22.465L16.4821 22.4641C16.4821 15.9337 16.5062 15.1426 16.5937 15.1444C16.6554 15.1453 17.2473 15.323 17.9107 15.54C18.5741 15.756 19.2562 15.9614 19.4286 15.9953C19.6009 16.0293 20.1232 16.2168 20.5893 16.4123C21.0554 16.6087 21.8196 16.9016 22.2857 17.0641C22.7518 17.2266 23.475 17.5078 23.8929 17.6882C24.3107 17.8685 24.792 18.0507 24.9643 18.0918C25.1366 18.1337 25.2795 18.1596 25.2821 18.1507C25.2848 18.1418 25.4661 17.565 25.6839 16.8703L26.0804 15.606C24.4893 15.1793 23.9464 15.0551 23.8482 15.056C23.75 15.056 22.8857 14.8516 21.9286 14.5998C20.9714 14.3489 20.117 14.1078 20.0312 14.0632C19.9455 14.0185 19.7848 13.981 19.6741 13.9801C19.5634 13.9784 18.7991 13.748 17.975 13.4668L16.4777 12.9551L16.4821 8.53551C18.3848 8.53461 19.4402 8.57658 20.0536 8.62926C20.6679 8.68104 21.9929 8.80426 23 8.90158C24.0071 8.99979 24.9607 9.09801 25.1205 9.12033L25.4107 9.16051V6.48193H5.49999V7.82122Z" fill="black"/>
</g>
<defs>
<clipPath id="clip0_2031_24">
<rect width="25" height="25" fill="white" transform="translate(3 3)"/>
</clipPath>
</defs>
</svg>
