<svg width="24" height="24" viewBox="0 0 24 24" fill="none" xmlns="http://www.w3.org/2000/svg">
<path d="M23.9344 6.87969C23.8782 5.63635 23.672 4.78157 23.3766 4.04089C23.0718 3.25467 22.603 2.55078 21.9887 1.96562C21.3886 1.37137 20.6619 0.909601 19.8648 0.617115C19.1008 0.329092 18.2287 0.12803 16.9534 0.0732109C15.6687 0.0137494 15.2608 0 12.0024 0C8.74392 0 8.33607 0.0137494 7.05609 0.0685683C5.78087 0.123387 4.90417 0.324628 4.14468 0.612472C3.33813 0.909601 2.61618 1.36672 2.01603 1.96562C1.40653 2.55078 0.933108 3.25932 0.632938 4.03642C0.33753 4.78157 0.131313 5.63171 0.0750881 6.87504C0.0141019 8.12766 0 8.52532 0 11.7023C0 14.8793 0.0141019 15.277 0.0703265 16.525C0.126551 17.7683 0.332952 18.6231 0.62836 19.3638C0.933108 20.15 1.40653 20.8539 2.01603 21.439C2.61618 22.0333 3.34289 22.495 4.13992 22.7875C4.90417 23.0756 5.77611 23.2766 7.05151 23.3314C8.3313 23.3864 8.73934 23.4 11.9978 23.4C15.2563 23.4 15.6641 23.3864 16.9441 23.3314C18.2193 23.2766 19.096 23.0756 19.8555 22.7875C21.4684 22.1795 22.7436 20.9362 23.3672 19.3638C23.6625 18.6186 23.8689 17.7683 23.9251 16.525C23.9813 15.277 23.9954 14.8793 23.9954 11.7023C23.9954 8.52532 23.9907 8.12766 23.9344 6.87969ZM21.7732 16.4335C21.7215 17.5763 21.5247 18.1935 21.3606 18.6049C20.9573 19.6243 20.1275 20.4334 19.0819 20.8265C18.66 20.9865 18.0224 21.1785 16.8549 21.2287C15.589 21.2837 15.2094 21.2972 12.0071 21.2972C8.80491 21.2972 8.42049 21.2837 7.1592 21.2287C5.98709 21.1785 5.35415 20.9865 4.93219 20.8265C4.41189 20.6391 3.93828 20.3419 3.55387 19.9534C3.15535 19.5739 2.8506 19.1168 2.6583 18.6095C2.49421 18.1981 2.29733 17.5763 2.24587 16.4382C2.18946 15.2039 2.17554 14.8336 2.17554 11.7114C2.17554 8.58925 2.18946 8.21445 2.24587 6.98486C2.29733 5.84205 2.49421 5.22494 2.6583 4.81353C2.8506 4.30605 3.15535 3.84447 3.55863 3.46948C3.94762 3.08093 4.41647 2.7838 4.93695 2.59649C5.35891 2.4365 5.99661 2.24454 7.16396 2.19419C8.42983 2.13937 8.80967 2.12562 12.0117 2.12562C15.2187 2.12562 15.5984 2.13937 16.8597 2.19419C18.0318 2.24454 18.6647 2.4365 19.0867 2.59649C19.607 2.7838 20.0806 3.08093 20.465 3.46948C20.8635 3.84893 21.1683 4.30605 21.3606 4.81353C21.5247 5.22494 21.7215 5.84652 21.7732 6.98486C21.8294 8.21909 21.8435 8.58925 21.8435 11.7114C21.8435 14.8336 21.8294 15.1993 21.7732 16.4335Z" fill="black"/>
<path d="M12.0024 5.69141C8.59875 5.69141 5.83716 8.38378 5.83716 11.7026C5.83716 15.0213 8.59875 17.7137 12.0024 17.7137C15.4063 17.7137 18.1677 15.0213 18.1677 11.7026C18.1677 8.38378 15.4063 5.69141 12.0024 5.69141ZM12.0024 15.6018C9.7943 15.6018 8.00318 13.8557 8.00318 11.7026C8.00318 9.54944 9.7943 7.80327 12.0024 7.80327C14.2108 7.80327 16.0017 9.54944 16.0017 11.7026C16.0017 13.8557 14.2108 15.6018 12.0024 15.6018Z" fill="black"/>
<path d="M19.8499 5.45411C19.8499 6.22907 19.2054 6.85744 18.4104 6.85744C17.6155 6.85744 16.9711 6.22907 16.9711 5.45411C16.9711 4.67897 17.6155 4.05078 18.4104 4.05078C19.2054 4.05078 19.8499 4.67897 19.8499 5.45411Z" fill="black"/>
</svg>
