<?xml version="1.0" encoding="UTF-8"?>
<svg xmlns="http://www.w3.org/2000/svg" width="15" height="15" viewBox="0 0 15 15" fill="none">
  <path d="M14.2656 3.99094C14.4024 3.99094 14.5335 3.93661 14.6302 3.83991C14.7269 3.74322 14.7812 3.61207 14.7812 3.47531V0.515625C14.7812 0.378873 14.7269 0.247721 14.6302 0.151023C14.5335 0.0543246 14.4024 0 14.2656 0H0.515625C0.378873 0 0.247721 0.0543246 0.151023 0.151023C0.0543246 0.247721 0 0.378873 0 0.515625V3.47531C0 3.61207 0.0543246 3.74322 0.151023 3.83991C0.247721 3.93661 0.378873 3.99094 0.515625 3.99094H1.49531V5.39688H0.515625C0.378873 5.39688 0.247721 5.4512 0.151023 5.5479C0.0543246 5.6446 0 5.77575 0 5.9125V8.86875C0 9.0055 0.0543246 9.13665 0.151023 9.23335C0.247721 9.33005 0.378873 9.38437 0.515625 9.38437H1.49531V10.7903H0.515625C0.378873 10.7903 0.247721 10.8446 0.151023 10.9413C0.0543246 11.038 0 11.1692 0 11.3059V14.2656C0 14.4024 0.0543246 14.5335 0.151023 14.6302C0.247721 14.7269 0.378873 14.7812 0.515625 14.7812H14.2656C14.4024 14.7812 14.5335 14.7269 14.6302 14.6302C14.7269 14.5335 14.7812 14.4024 14.7812 14.2656V11.3059C14.7812 11.1692 14.7269 11.038 14.6302 10.9413C14.5335 10.8446 14.4024 10.7903 14.2656 10.7903H13.2859V9.38437H14.2656C14.4024 9.38437 14.5335 9.33005 14.6302 9.23335C14.7269 9.13665 14.7812 9.0055 14.7812 8.86875V5.9125C14.7812 5.77575 14.7269 5.6446 14.6302 5.5479C14.5335 5.4512 14.4024 5.39688 14.2656 5.39688H13.2859V3.99094H14.2656ZM1.03125 1.03125H13.75V2.95969H1.03125V1.03125ZM13.75 13.75H1.03125V11.8216H13.75V13.75ZM12.2547 10.7903H2.52656V9.38437H12.2547V10.7903ZM13.75 8.35312H1.03125V6.42813H13.75V8.35312ZM12.2547 5.39688H2.52656V3.99094H12.2547V5.39688Z" fill="#10B981"></path>
</svg>
