<?xml version="1.0" encoding="UTF-8"?>
<svg xmlns="http://www.w3.org/2000/svg" width="20" height="20" viewBox="0 0 20 20" fill="none">
  <g clip-path="url(#clip0_2348_3577)">
    <path d="M14.8675 8.92254V0.976562C14.8675 0.76082 14.6927 0.585938 14.4769 0.585938H0.976562C0.76082 0.585938 0.585938 0.76082 0.585938 0.976562V19.0234C0.585938 19.2391 0.76082 19.414 0.976562 19.414L14.4716 19.4141M3.33914 8.93965H7.8618M3.33914 6.59574H7.8618M3.33914 4.25184H12.0774M3.33914 11.2676H7.8618M3.33914 13.2209H7.8618M3.33914 15.5648H7.8618" stroke="#ffffff" stroke-width="1.4" stroke-miterlimit="10" stroke-linecap="round" stroke-linejoin="round"></path>
    <path d="M16.8179 9.52393C17.2598 10.2034 17.9697 10.6924 18.7974 10.8501L18.814 13.0337C18.8296 15.1074 17.7331 17.039 15.9243 18.1099L14.8931 18.7192L13.855 18.1255C12.0297 17.0813 10.9039 15.1653 10.8882 13.0913L10.8706 10.9087C11.6954 10.7389 12.3969 10.2396 12.8286 9.5542L16.8179 9.52393Z" stroke="#ffffff" stroke-width="1.2" stroke-miterlimit="10" stroke-linecap="round" stroke-linejoin="round"></path>
    <path d="M13.4424 13.8739L14.4475 15.1086L16.5674 12.8545" stroke="#ffffff" stroke-width="1.4" stroke-miterlimit="10" stroke-linecap="round" stroke-linejoin="round"></path>
  </g>
  <defs>
    <clipPath id="clip0_2348_3577">
      <rect width="20" height="20" fill="white"></rect>
    </clipPath>
  </defs>
</svg>
