<?xml version="1.0" encoding="UTF-8"?>
<svg xmlns="http://www.w3.org/2000/svg" width="22" height="22" viewBox="0 0 22 22" fill="none">
  <path d="M5.88029 1.42407C5.93462 1.44313 6.20494 1.7262 6.264 1.78528L7.34483 2.86697C7.4723 2.99458 7.77962 3.31711 7.90638 3.41784C8.73915 3.08299 9.13917 3.03461 9.99969 3.36767C9.8134 3.57164 9.58427 3.791 9.38754 3.98768L8.3348 5.03966C7.90665 5.46737 7.3105 5.98075 7.06015 6.52285C6.80021 7.09814 6.77688 7.75256 6.99524 8.34488C7.21669 8.93421 7.66349 9.41125 8.23708 9.67079C9.02513 10.0262 9.94438 9.9229 10.6338 9.40135C10.8782 9.21582 11.3492 8.71951 11.5822 8.48623L12.891 7.17814C12.9798 7.08958 13.3681 6.6821 13.4455 6.65292C13.5716 6.74037 13.8949 7.07768 14.0148 7.19748L15.0664 8.24804L17.3353 10.5145C17.7292 10.9079 18.1309 11.3039 18.5197 11.7021C18.9649 12.1583 19.1926 12.7932 19.1684 13.4319C19.144 14.067 18.864 14.6652 18.3917 15.0905C18.0171 15.4343 17.5505 15.6394 17.0477 15.692C16.9416 15.703 16.8437 15.7192 16.7362 15.7147C16.724 15.9537 16.7177 16.1392 16.6543 16.3745C16.4833 17.0107 16.0903 17.5104 15.5259 17.8413C15.1903 18.0417 14.6873 18.1714 14.295 18.1515C14.2648 18.798 14.1262 19.3172 13.6732 19.8104C13.2485 20.2811 12.6521 20.5607 12.0186 20.5859C11.6655 20.599 11.3343 20.5406 11.0079 20.4059C10.9435 20.3792 10.856 20.3516 10.8066 20.3055C10.8025 20.2825 10.8126 20.2658 10.828 20.247C10.9677 20.076 11.0837 19.9232 11.1862 19.725C11.3655 19.3796 11.4572 18.9953 11.4534 18.606C11.4525 17.9598 11.191 17.341 10.7282 16.8899C10.2428 16.4152 9.62158 16.203 8.95009 16.2116C8.95177 16.1717 8.95253 16.1318 8.95238 16.0918C8.94763 15.4523 8.68807 14.8411 8.23119 14.3936C7.73295 13.9149 7.13661 13.6936 6.45106 13.7086C6.51909 13.1249 6.24733 12.4883 5.87647 12.0498C5.46195 11.5622 4.86879 11.2619 4.23047 11.2162C3.68148 11.1777 3.13554 11.3256 2.6811 11.636C2.54038 11.7318 2.42948 11.8296 2.30057 11.9402C1.65279 11.0892 1.55356 10.296 2.00635 9.3175C1.91829 9.20996 1.62443 8.93215 1.51609 8.82394L0.547238 7.85611C0.380582 7.6896 0.151706 7.47306 0 7.29969C0.128817 7.18187 0.310424 6.98702 0.438457 6.8589L1.38741 5.90973L4.32201 2.97512C4.8192 2.47796 5.37041 1.9014 5.88029 1.42407Z" fill="white"></path>
  <path d="M16.0933 1.42285C16.1976 1.46771 17.5208 2.82489 17.7555 3.05966L21.9967 7.29941C21.8102 7.50635 21.584 7.71575 21.3875 7.91665C20.9284 8.38598 20.4426 8.84519 19.989 9.31888C20.3641 10.1164 20.3544 10.7278 19.9879 11.5221C19.6485 10.9625 19.3722 10.7248 18.9125 10.2662L18.0294 9.38511L15.2089 6.56729L14.0967 5.4558C13.8949 5.25419 13.6519 4.99934 13.4417 4.81167C13.172 5.05827 12.8304 5.42143 12.5629 5.68883L10.8249 7.4272L10.2401 8.01265C10.0503 8.20254 9.88511 8.39714 9.6334 8.50686C9.37312 8.61894 9.07889 8.62251 8.81595 8.51682C8.5464 8.40878 8.33114 8.19755 8.21802 7.93009C8.10867 7.66252 8.10966 7.36254 8.22077 7.09569C8.26337 6.99342 8.32177 6.89846 8.3938 6.81427C8.54689 6.63808 8.80824 6.39187 8.98147 6.21867L10.0706 5.12996L11.0493 4.15089C11.4143 3.78582 11.6198 3.52024 12.1166 3.31887C12.6112 3.11511 13.1614 3.09081 13.672 3.25018C13.826 3.29816 13.9498 3.35721 14.097 3.41991C14.2144 3.30624 14.3336 3.18764 14.4474 3.07054C14.9871 2.51553 15.5592 1.98178 16.0933 1.42285Z" fill="white"></path>
  <path d="M6.4625 15.0003C6.47179 14.9997 6.48108 14.9993 6.49039 14.999C6.8022 14.9872 7.08551 15.0857 7.31388 15.3005C7.53342 15.5039 7.66036 15.788 7.66528 16.0871C7.67881 16.6499 7.34485 16.8997 6.9841 17.2631C6.75868 17.4901 6.51934 17.7205 6.2981 17.9514L6.12622 17.7792L5.23136 16.8859C5.0632 16.7179 4.8755 16.5375 4.71484 16.3657C4.97194 16.1191 5.22588 15.8466 5.48084 15.5965C5.82249 15.2614 5.96166 15.0579 6.4625 15.0003Z" fill="white"></path>
  <path d="M8.94986 17.5029C9.07734 17.4954 9.19212 17.5014 9.31654 17.5323C9.60621 17.6043 9.85547 17.7885 10.0097 18.044C10.1618 18.3027 10.2052 18.6111 10.1302 18.9017C10.0334 19.2832 9.59876 19.6924 9.28075 19.9164C9.05859 20.0729 8.76499 20.0687 8.50731 20.0034C8.39235 19.9669 8.28474 19.9104 8.1894 19.8363C8.1175 19.7815 7.83147 19.4925 7.76015 19.4178C7.64394 19.2962 7.31841 18.9951 7.23438 18.8723C7.2508 18.8122 7.70906 18.3627 7.78102 18.2947C8.16755 17.9292 8.38325 17.5638 8.94986 17.5029Z" fill="white"></path>
  <path d="M3.98481 12.4973C3.99668 12.4967 4.00854 12.496 4.02041 12.4954C4.32135 12.4888 4.61232 12.6035 4.828 12.8134C5.04019 13.0183 5.16147 13.2998 5.16475 13.5947C5.17153 14.1592 4.81982 14.4265 4.45259 14.793L3.80598 15.4401C3.796 15.4352 3.77913 15.4272 3.77097 15.4195C3.50546 15.1691 3.25524 14.9002 2.99183 14.6474C2.78613 14.4514 2.64828 14.2501 2.6252 13.9622C2.5879 13.4973 2.8089 13.2503 3.11809 12.949C3.40307 12.6712 3.57304 12.5327 3.98481 12.4973Z" fill="white"></path>
</svg>
