<?xml version="1.0" encoding="UTF-8"?>
<svg xmlns="http://www.w3.org/2000/svg" width="56" height="56" viewBox="0 0 56 56" fill="none">
  <g clip-path="url(#clip0_151_21)">
    <path fill-rule="evenodd" clip-rule="evenodd" d="M27.9977 15.252C20.9573 15.252 15.2383 20.9664 15.2383 28.0114C15.2383 35.061 20.9527 40.7753 27.9977 40.7753C35.0473 40.7753 40.7617 35.061 40.7617 28.0114C40.7571 20.9664 35.0427 15.2566 27.9977 15.252ZM53.4846 16.4095L53.2385 15.8763L52.8557 16.3229C51.9033 17.4029 50.6957 18.2368 49.3469 18.7381L48.9641 18.8748L49.1145 19.2575C50.2719 22.0418 50.8689 25.0357 50.8689 28.0433C50.8689 40.6796 40.6204 50.9373 27.9795 50.9373C15.3386 50.9373 5.09464 40.6796 5.09464 28.0387C5.09464 15.3978 15.3432 5.14932 27.9841 5.14932C31.3835 5.14932 34.7328 5.90577 37.8042 7.36398L38.1597 7.53259L38.31 7.14981C38.8797 5.83286 39.7728 4.66629 40.8984 3.76857L41.3495 3.38579L40.8346 3.11693C36.8974 1.07088 32.5091 0 28.0615 0C28.0478 0 28.0159 0 27.9886 0C12.5361 0 0 12.5361 0 27.9977C0 43.4594 12.5452 55.9954 27.9977 55.9954C43.4639 55.9954 55.9954 43.4594 55.9954 27.9977C55.9954 23.9876 55.1387 20.0186 53.4709 16.3776L53.4846 16.4095ZM52.1312 10.5675C52.1312 7.35943 49.5337 4.75743 46.3211 4.75743C43.113 4.75743 40.511 7.35943 40.511 10.5675C40.511 13.7847 43.113 16.3867 46.3211 16.3867C49.5383 16.3867 52.1312 13.7801 52.1312 10.5675Z" fill="#478AFF"></path>
  </g>
  <defs>
    <clipPath id="clip0_151_21">
      <rect width="56" height="56" fill="white"></rect>
    </clipPath>
  </defs>
</svg>
