<?xml version="1.0" encoding="UTF-8"?>
<svg xmlns="http://www.w3.org/2000/svg" width="46" height="56" viewBox="0 0 46 56" fill="none">
  <path fill-rule="evenodd" clip-rule="evenodd" d="M31.3354 8.95429C33.0864 6.86018 34.3267 4.00772 34.3267 1.11925C34.3267 0.722126 34.2902 0.324999 34.2173 0C31.372 0.10799 27.943 1.8776 25.9001 4.26058C24.2951 6.06594 22.7994 8.95432 22.7994 11.8428C22.7994 12.276 22.8724 12.7094 22.9089 12.8538C23.0913 12.8898 23.3831 12.9256 23.675 12.9256C26.2285 12.9256 29.4385 11.229 31.3354 8.95429ZM33.3418 13.5397C29.0737 13.5397 25.6082 16.1032 23.383 16.1032C21.0119 16.1032 17.9112 13.6841 14.1903 13.6841C7.14988 13.6841 0 19.4611 0 30.3289C0 37.1168 2.62648 44.2656 5.90959 48.8872C8.71846 52.7865 11.1626 56 14.701 56C18.203 56 19.7351 53.6893 24.0761 53.6893C28.4901 53.6893 29.475 55.9277 33.3418 55.9277C37.1721 55.9277 39.7256 52.4616 42.1332 49.0315C44.8327 45.0961 45.9635 41.2689 46 41.0884C45.7811 41.0164 38.4488 38.0555 38.4488 29.7512C38.4488 22.5661 44.2125 19.3528 44.5408 19.1C40.747 13.6841 34.9469 13.5397 33.3418 13.5397Z" fill="#0F0F0F"></path>
</svg>
