<svg width="30" height="30" viewBox="0 0 30 30" fill="none" xmlns="http://www.w3.org/2000/svg">
<path d="M15.5 3L4.67499 9.25V21.75L15.5 28L26.325 21.75V9.25L15.5 3ZM14.3823 4.50521H14.3833C14.7058 4.74324 15.0961 4.87168 15.4969 4.87168C15.8977 4.87168 16.2879 4.74324 16.6104 4.50521L24.4583 9.03646C24.4426 9.17594 24.4426 9.31676 24.4583 9.45625L16.6094 13.9875C16.287 13.7497 15.8969 13.6214 15.4963 13.6214C15.0958 13.6214 14.7057 13.7497 14.3833 13.9875L6.53332 9.45625C6.549 9.31711 6.549 9.17664 6.53332 9.0375L14.3823 4.50521ZM25.2125 10.7083C25.326 10.7917 25.4479 10.8615 25.576 10.9177V19.9802C25.2086 20.1405 24.9021 20.4143 24.7017 20.7615C24.5013 21.1087 24.4175 21.511 24.4625 21.9094L16.6135 26.4406C16.5005 26.3578 16.3786 26.2879 16.25 26.2323L16.2406 17.2187C16.6081 17.0587 16.9146 16.7851 17.1152 16.4381C17.3158 16.0911 17.3999 15.6889 17.3552 15.2906L25.2125 10.7083ZM5.78749 10.7583L13.6364 15.2896C13.5914 15.6879 13.6753 16.0902 13.8757 16.4374C14.0761 16.7846 14.3825 17.0585 14.75 17.2187V26.2812C14.6208 26.3375 14.5 26.4083 14.3864 26.4917L6.53749 21.9604C6.5825 21.5621 6.49865 21.1598 6.29824 20.8126C6.09783 20.4654 5.79141 20.1915 5.42395 20.0312V10.9688C5.55311 10.9125 5.6729 10.8417 5.78749 10.7583Z" fill="black"/>
</svg>
