<svg width="30" height="30" viewBox="0 0 30 30" fill="none" xmlns="http://www.w3.org/2000/svg">
<g clip-path="url(#clip0_2034_64)">
<path d="M14.4157 3.70912C14.2008 3.71994 13.9903 3.77322 13.7964 3.86582L5.34566 7.90368C5.12695 8.00814 4.93477 8.16014 4.7834 8.34838C4.63204 8.53661 4.52538 8.75625 4.47134 8.99098L2.38646 18.061C2.33832 18.27 2.33293 18.4864 2.37062 18.6975C2.40831 18.9086 2.4883 19.11 2.60587 19.2899C2.63437 19.3339 2.66503 19.3764 2.69773 19.4174L8.547 26.6901C8.69841 26.8783 8.89061 27.0302 9.10934 27.1346C9.32807 27.239 9.5677 27.2932 9.81045 27.2932L19.1907 27.291C19.4333 27.2912 19.6729 27.2372 19.8916 27.133C20.1104 27.0288 20.3026 26.877 20.4541 26.689L26.3013 19.4153C26.4528 19.227 26.5595 19.0073 26.6136 18.7724C26.6676 18.5376 26.6676 18.2937 26.6136 18.0589L24.5255 8.9888C24.4715 8.75408 24.3648 8.53444 24.2135 8.34621C24.0621 8.15798 23.8699 8.00599 23.6512 7.90154L15.1993 3.86579C14.9555 3.7493 14.686 3.69543 14.4157 3.70912Z" fill="#326CE5"/>
<path d="M14.4995 6.7959C14.2201 6.79593 13.9936 7.04754 13.9937 7.35791C13.9937 7.36269 13.9946 7.36725 13.9947 7.37195C13.9943 7.41415 13.9923 7.46496 13.9937 7.50165C14.0003 7.68066 14.0393 7.81769 14.0628 7.98263C14.1054 8.33561 14.141 8.62824 14.119 8.90022C14.0976 9.00277 14.0221 9.09656 13.9548 9.16176L13.9429 9.37577C13.6352 9.4011 13.3296 9.44804 13.0285 9.51626C11.7151 9.81449 10.5843 10.491 9.72343 11.4044C9.66198 11.362 9.60109 11.3188 9.54078 11.2747C9.45045 11.2869 9.35921 11.3148 9.2403 11.2455C9.01394 11.0932 8.80778 10.8829 8.55831 10.6295C8.44401 10.5083 8.36124 10.3929 8.22543 10.2761C8.19461 10.2495 8.14754 10.2137 8.11302 10.1864C8.00685 10.1017 7.88165 10.0576 7.7607 10.0534C7.60521 10.0481 7.45552 10.1089 7.35757 10.2318C7.1834 10.4502 7.23915 10.784 7.48184 10.9775C7.48429 10.9795 7.48692 10.981 7.48941 10.9829C7.52275 11.0099 7.5636 11.0446 7.59424 11.0672C7.73836 11.1736 7.86999 11.2281 8.01359 11.3126C8.31611 11.4994 8.56692 11.6543 8.76583 11.8411C8.8435 11.9239 8.8571 12.0698 8.86744 12.1329L9.02954 12.2777C8.16169 13.5838 7.76001 15.1971 7.99741 16.8408L7.78557 16.9024C7.72971 16.9746 7.65082 17.088 7.5683 17.1219C7.30805 17.2038 7.01514 17.2339 6.66154 17.271C6.49553 17.2848 6.35224 17.2766 6.17624 17.3099C6.1375 17.3172 6.08355 17.3313 6.04114 17.3412L6.03682 17.3423C6.0345 17.3429 6.03146 17.344 6.02925 17.3445C5.73112 17.4165 5.53962 17.6905 5.60125 17.9606C5.66292 18.2306 5.95413 18.3948 6.25405 18.3302C6.25623 18.3297 6.25938 18.3296 6.26163 18.3291C6.26502 18.3283 6.26799 18.3267 6.27135 18.3258C6.31319 18.3167 6.36556 18.3065 6.40215 18.2967C6.57518 18.2503 6.70048 18.1823 6.85608 18.1227C7.19073 18.0026 7.46794 17.9023 7.73801 17.8633C7.85076 17.8544 7.96963 17.9328 8.02874 17.9659L8.24922 17.9281C8.75659 19.5012 9.81989 20.7726 11.1663 21.5704L11.0744 21.7909C11.1075 21.8765 11.1441 21.9923 11.1194 22.0769C11.0212 22.3315 10.8531 22.6002 10.6616 22.8998C10.5688 23.0382 10.4739 23.1456 10.3903 23.304C10.3702 23.3419 10.3448 23.4002 10.3254 23.4402C10.1954 23.7183 10.2908 24.0387 10.5405 24.1589C10.7918 24.2799 11.1037 24.1523 11.2387 23.8736C11.2389 23.8732 11.2396 23.8729 11.2398 23.8725C11.2399 23.8722 11.2396 23.8717 11.2398 23.8715C11.259 23.8319 11.2862 23.78 11.3025 23.7428C11.3741 23.5786 11.398 23.4379 11.4484 23.2791C11.5822 22.943 11.6557 22.5902 11.84 22.3704C11.8904 22.3103 11.9727 22.2871 12.058 22.2643L12.1725 22.0568C13.3463 22.5073 14.6601 22.6282 15.9726 22.3302C16.2676 22.2631 16.5575 22.1757 16.8405 22.0687C16.8726 22.1258 16.9325 22.2356 16.9486 22.2632C17.0352 22.2914 17.1298 22.3059 17.2069 22.4199C17.3447 22.6554 17.4389 22.934 17.5538 23.2705C17.6042 23.4293 17.6291 23.57 17.7008 23.7342C17.7171 23.7716 17.7442 23.8242 17.7635 23.8638C17.8982 24.1435 18.2111 24.2715 18.4628 24.1503C18.7124 24.03 18.8079 23.7097 18.6778 23.4315C18.6585 23.3915 18.6319 23.3333 18.6119 23.2954C18.5282 23.137 18.4333 23.0306 18.3406 22.8922C18.1491 22.5927 17.9903 22.3438 17.8921 22.0892C17.851 21.9579 17.899 21.8762 17.931 21.7909C17.9118 21.7689 17.8708 21.6449 17.8467 21.5866C19.2459 20.7604 20.278 19.4416 20.7627 17.9184C20.8281 17.9287 20.9419 17.9488 20.9788 17.9562C21.0549 17.9061 21.1249 17.8406 21.262 17.8514C21.5321 17.8904 21.8093 17.9908 22.144 18.1108C22.2995 18.1704 22.4248 18.2396 22.5979 18.2859C22.6344 18.2957 22.6868 18.3048 22.7287 18.314C22.732 18.3148 22.735 18.3164 22.7384 18.3172C22.7407 18.3177 22.7438 18.3178 22.7459 18.3183C23.0459 18.3828 23.3372 18.2187 23.3987 17.9487C23.4603 17.6786 23.2689 17.4046 22.9708 17.3326C22.9274 17.3227 22.8659 17.306 22.8238 17.298C22.6477 17.2647 22.5045 17.2729 22.3385 17.2591C21.9849 17.222 21.692 17.1919 21.4317 17.11C21.3256 17.0688 21.2501 16.9425 21.2134 16.8905L21.0091 16.8311C21.115 16.0649 21.0865 15.2674 20.9032 14.4696C20.7182 13.6643 20.3913 12.9277 19.9553 12.2788C20.0077 12.2311 20.1067 12.1435 20.1347 12.1177C20.1429 12.027 20.1359 11.9318 20.2299 11.8313C20.4288 11.6446 20.6796 11.4897 20.9821 11.3028C21.1257 11.2183 21.2584 11.1639 21.4025 11.0575C21.4351 11.0334 21.4796 10.9953 21.5138 10.9678C21.7565 10.7742 21.8123 10.4404 21.6381 10.222C21.4639 10.0037 21.1264 9.98306 20.8837 10.1766C20.8492 10.204 20.8023 10.2397 20.7713 10.2663C20.6355 10.3832 20.5517 10.4986 20.4374 10.6198C20.1879 10.8731 19.9817 11.0845 19.7554 11.2369C19.6573 11.294 19.5136 11.2743 19.4484 11.2704L19.2561 11.4077C18.159 10.2574 16.6654 9.52189 15.0572 9.37902C15.0527 9.31161 15.0468 9.1898 15.0453 9.15311C14.9794 9.09013 14.8999 9.03635 14.8799 8.90022C14.8579 8.62824 14.8947 8.33561 14.9372 7.98263C14.9607 7.81769 14.9997 7.6807 15.0064 7.50165C15.0079 7.46098 15.0054 7.40191 15.0053 7.35791C15.0053 7.04754 14.7788 6.7959 14.4995 6.7959ZM13.8661 10.7192L13.7159 13.3725L13.7051 13.378C13.695 13.6153 13.4996 13.8049 13.2598 13.8049C13.1615 13.8049 13.0709 13.7733 12.9972 13.7195L12.9928 13.7216L10.8172 12.1793C11.4858 11.5219 12.3411 11.0359 13.3268 10.8122C13.5049 10.772 13.6849 10.7409 13.8661 10.7192ZM15.1339 10.7192C16.2847 10.8607 17.3489 11.3818 18.1644 12.1804L16.0028 13.713L15.9953 13.7098C15.8034 13.8499 15.5331 13.8151 15.3836 13.6276C15.3244 13.5541 15.2904 13.4636 15.2863 13.3693L15.2841 13.3683L15.1339 10.7192ZM10.0282 13.1705L12.0147 14.9473L12.0125 14.9581C12.1919 15.114 12.2183 15.3844 12.0687 15.572C12.0098 15.646 11.9288 15.6994 11.8375 15.7244L11.8353 15.733L9.28893 16.4679C9.15934 15.2829 9.43865 14.1309 10.0282 13.1705ZM18.9567 13.1715C19.2518 13.6499 19.4753 14.1843 19.6084 14.7635C19.7398 15.3359 19.7728 15.9072 19.7186 16.4593L17.1593 15.7222L17.1571 15.7114C16.928 15.6488 16.7871 15.4156 16.8405 15.1818C16.8612 15.0898 16.9108 15.0069 16.9821 14.9451L16.981 14.9397L18.9567 13.1715V13.1715ZM14.092 15.0845H14.9059L15.4117 15.7168L15.2301 16.5058L14.4995 16.857L13.7667 16.5047L13.5851 15.7157L14.092 15.0845ZM16.7011 17.2483C16.7356 17.2466 16.7701 17.2497 16.8037 17.2559L16.8081 17.2504L19.442 17.6957C19.0565 18.7787 18.3189 19.7169 17.3333 20.3448L16.3109 17.8752L16.3141 17.8708C16.2202 17.6526 16.3142 17.3967 16.5303 17.2926C16.5856 17.266 16.6434 17.2512 16.7011 17.2483ZM12.2774 17.2591C12.4783 17.2619 12.6586 17.4014 12.7054 17.606C12.7272 17.7019 12.7166 17.7967 12.6805 17.8806L12.6881 17.8903L11.6764 20.3351C10.7306 19.7281 9.97725 18.8194 9.57426 17.7044L12.1855 17.2613L12.1898 17.2667C12.219 17.2613 12.2486 17.2587 12.2774 17.2591ZM14.4832 18.3302C14.5553 18.3277 14.627 18.3429 14.6918 18.3745C14.7804 18.4171 14.8488 18.4842 14.8918 18.5647H14.9015L16.1887 20.8906C16.0198 20.9471 15.8481 20.995 15.6743 21.0343C14.6898 21.2579 13.7085 21.1901 12.8199 20.8874L14.1039 18.5658H14.1061C14.1429 18.497 14.1971 18.439 14.2632 18.3977C14.3294 18.3563 14.4053 18.3331 14.4833 18.3302L14.4832 18.3302Z" fill="white" stroke="white" stroke-width="0.276684"/>
</g>
<defs>
<clipPath id="clip0_2034_64">
<rect width="25" height="25" fill="white" transform="translate(2 3)"/>
</clipPath>
</defs>
</svg>
