<?xml version="1.0" encoding="UTF-8"?>
<svg xmlns="http://www.w3.org/2000/svg" width="31" height="28" viewBox="0 0 31 28" fill="none">
  <path fill-rule="evenodd" clip-rule="evenodd" d="M7.24524 13.6065V14.8839C7.24524 15.0868 7.30672 15.2849 7.42156 15.4521C7.5364 15.6194 7.69922 15.7479 7.88857 15.8208L8.7013 16.1336C8.8357 16.5595 9.00717 16.9727 9.21374 17.3686L8.86017 18.1638C8.77772 18.3493 8.7534 18.5553 8.79044 18.7549C8.82747 18.9544 8.92411 19.1381 9.06761 19.2816L10.5495 20.7635C10.6928 20.9068 10.8762 21.0034 11.0755 21.0405C11.2748 21.0777 11.4806 21.0536 11.6659 20.9715L12.4631 20.6184C12.8596 20.8252 13.2736 20.9968 13.7001 21.1311L14.0124 21.9425C14.0853 22.1319 14.2138 22.2947 14.3811 22.4095C14.5483 22.5244 14.7464 22.5858 14.9493 22.5859H17.0455C17.2483 22.5858 17.4465 22.5244 17.6137 22.4095C17.781 22.2947 17.9095 22.1319 17.9824 21.9425L18.2947 21.131C18.7211 20.9972 19.1348 20.8258 19.531 20.619C19.5309 20.619 20.3267 20.9715 20.3267 20.9715C20.5121 21.0536 20.7179 21.0777 20.9172 21.0405C21.1165 21.0034 21.2999 20.9068 21.4432 20.7635L21.8174 20.3893C22.9859 21.0933 23.7435 22.3731 23.7435 23.7854C23.7435 25.9643 21.96 27.7478 19.7797 27.7478H3.9638C1.78347 27.7478 0 25.9643 0 23.7854C0 22.1323 1.02632 20.7078 2.47197 20.1146C2.46516 19.9932 2.46187 19.8717 2.46212 19.7501C2.46212 16.7866 4.49656 14.2981 7.24524 13.6065ZM17.5395 7.37318C18.2233 7.53562 18.8769 7.80642 19.4752 8.17531L20.7333 7.61588L22.2152 9.09779L21.6579 10.3559C22.0272 10.9548 22.298 11.6091 22.46 12.2938L23.7435 12.7877V14.8839L22.46 15.3779C22.2975 16.0618 22.0252 16.7141 21.6579 17.3136L22.2152 18.5717L20.7333 20.0536L19.4752 19.4963C18.877 19.8655 18.2235 20.1364 17.5395 20.2985L17.0455 21.5819H14.9493L14.4553 20.2985C13.7693 20.1359 13.117 19.8636 12.5175 19.4963L11.2594 20.0536L9.77751 18.5717L10.3369 17.3136C9.9675 16.7162 9.69726 16.0618 9.53261 15.3779L8.24916 14.8839V12.7877L9.53261 12.2938C9.69637 11.6093 9.96784 10.9552 10.3369 10.3559L9.77751 9.09779L11.2594 7.61588L12.5175 8.17531C13.1158 7.80641 13.7693 7.53561 14.4532 7.37318L14.9493 6.08759H17.0455L17.5395 7.37318ZM15.9964 10.1786C13.9762 10.1786 12.3402 11.8146 12.3402 13.8347C12.3402 15.8549 13.9762 17.493 15.9964 17.493C18.0165 17.493 19.6546 15.8549 19.6546 13.8347C19.6546 11.8146 18.0165 10.1786 15.9964 10.1786ZM26.3772 0.0939922L30.0532 4.4229C30.1216 4.50491 30.137 4.61089 30.0926 4.70827C30.0481 4.80395 29.9558 4.86381 29.8499 4.86381H28.1374V10.5496C28.1374 10.8436 27.8982 11.0829 27.6042 11.0829H24.7433C24.4494 11.0829 24.2101 10.8436 24.2101 10.5496V4.86381H22.4977C22.3918 4.86381 22.2995 4.80395 22.2551 4.70827C22.2106 4.61089 22.226 4.50491 22.2943 4.4229L25.9704 0.0939922C26.0234 0.0324393 26.0917 0 26.1738 0C26.2541 0 26.3242 0.0324393 26.3772 0.0939922Z" fill="white"></path>
</svg>
