<?xml version="1.0" encoding="UTF-8"?>
<svg xmlns="http://www.w3.org/2000/svg" width="30" height="30" viewBox="0 0 30 30" fill="none">
  <rect x="3" y="3" width="25" height="25" rx="3" fill="#1C3C3C"></rect>
  <path d="M12.0241 17.8978C12.0366 17.8403 12.0471 17.7848 12.0605 17.7349L12.119 17.8739C12.2292 18.1422 12.3385 18.4077 12.6039 18.5581C12.5924 18.8015 12.2838 18.9003 12.0749 18.8705C12.0289 18.7613 11.9647 18.652 11.8305 18.7134C11.6935 18.767 11.543 18.7038 11.5756 18.5361C11.8948 18.5246 11.9657 18.1805 12.0241 17.8978ZM21.619 12.8599C21.3142 12.8599 21.0286 12.9768 20.8149 13.1876L19.9505 14.0377C19.7176 14.2677 19.5978 14.5858 19.6218 14.9126L19.6275 14.9663C19.6582 15.2174 19.7703 15.4435 19.9505 15.6199C20.0751 15.7425 20.2121 15.8211 20.3789 15.8748C20.4036 16.0088 20.3949 16.1468 20.3536 16.2767C20.3123 16.4066 20.2397 16.5243 20.1422 16.6194L20.0885 16.6721C19.7582 16.5631 19.4634 16.3672 19.2349 16.105C19.0065 15.8428 18.8528 15.524 18.79 15.1819L18.7804 15.1273L18.7363 15.1628C18.7075 15.1858 18.6788 15.2107 18.652 15.2375L17.7875 16.0875C17.6825 16.1907 17.599 16.3137 17.542 16.4495C17.4851 16.5852 17.4557 16.7309 17.4557 16.8782C17.4557 17.0254 17.4851 17.1711 17.542 17.3069C17.599 17.4426 17.6825 17.5657 17.7875 17.6688C18.0089 17.8873 18.3003 17.9965 18.5925 17.9965C18.8839 17.9965 19.1743 17.8873 19.3956 17.6698L20.26 16.8188C20.3954 16.6864 20.4946 16.5215 20.5481 16.34C20.6017 16.1584 20.6078 15.9661 20.5659 15.7814C20.524 15.5968 20.4355 15.426 20.3088 15.2853C20.1821 15.1446 20.0215 15.0387 19.8422 14.9778C19.8177 14.8319 19.8289 14.6823 19.875 14.5417C19.921 14.4012 20.0006 14.2739 20.1067 14.1709C20.4396 14.2823 20.7368 14.4805 20.9678 14.7449C21.1987 15.0094 21.355 15.3306 21.4206 15.6755L21.4302 15.7301L21.4752 15.6946C21.504 15.6716 21.5327 15.6467 21.5595 15.6199L22.424 14.7689C22.5291 14.6658 22.6127 14.5428 22.6698 14.407C22.7268 14.2713 22.7562 14.1255 22.7562 13.9783C22.7562 13.831 22.7268 13.6852 22.6698 13.5495C22.6127 13.4137 22.5291 13.2907 22.424 13.1876C22.2095 12.9762 21.9201 12.8584 21.619 12.8599Z" fill="white"></path>
  <path fill-rule="evenodd" clip-rule="evenodd" d="M21.1551 9.75H9.84583C6.622 9.75 4 12.3298 4 15.5C4 18.6702 6.622 21.25 9.84487 21.25H21.1542C24.378 21.25 27 18.6702 27 15.5C27 12.3298 24.378 9.75 21.1551 9.75ZM15.5767 18.765C15.3898 18.8034 15.1799 18.8101 15.0381 18.6635C14.995 18.7593 14.9078 18.7373 14.8263 18.7171C14.807 18.7119 14.7875 18.7074 14.7678 18.7037C14.7583 18.7277 14.7515 18.7497 14.7429 18.7737C14.4276 18.7938 14.1919 18.4775 14.0414 18.2389C13.8939 18.164 13.7426 18.0969 13.5881 18.0377C13.4233 17.9706 13.2575 17.9035 13.1003 17.8173C13.0969 17.8724 13.0956 17.9277 13.0965 17.983C13.0946 18.2169 13.0927 18.4651 12.879 18.6069C12.8723 18.8896 13.1051 18.8867 13.3351 18.8848C13.5335 18.882 13.728 18.88 13.7635 19.0612C13.7476 19.0629 13.7316 19.0639 13.7156 19.064C13.6715 19.064 13.6274 19.064 13.5939 19.0966C13.4817 19.203 13.362 19.157 13.2374 19.1091C13.1224 19.065 13.0045 19.019 12.8857 19.0899C12.7988 19.1336 12.715 19.1829 12.6346 19.2375C12.4827 19.3517 12.2994 19.4166 12.1094 19.4234C12.0864 19.3889 12.096 19.3669 12.1152 19.3467C12.13 19.3297 12.1438 19.3118 12.1564 19.2931C12.1746 19.2662 12.1899 19.2385 12.2052 19.2126C12.257 19.1215 12.304 19.0401 12.4372 19.0017C12.2599 18.974 12.1075 19.0545 11.958 19.133L11.9542 19.135C11.9335 19.146 11.9127 19.1569 11.8919 19.1675C11.7989 19.2059 11.7443 19.1762 11.6887 19.1455C11.6101 19.1024 11.5277 19.0573 11.3284 19.1838C11.29 19.1532 11.3092 19.1254 11.3303 19.1014C11.4175 18.997 11.5315 18.9816 11.6609 18.9874C11.3245 18.8024 11.0821 18.9337 10.8847 19.0401C10.7102 19.134 10.5713 19.2087 10.4333 19.0286C10.371 19.0449 10.3355 19.089 10.301 19.1321C10.2867 19.1512 10.2723 19.1685 10.256 19.1848C10.2225 19.1474 10.2301 19.1052 10.2387 19.0621L10.2435 19.0372C10.2451 19.0277 10.2461 19.0181 10.2464 19.0085L10.2205 18.9989C10.1698 18.9778 10.1199 18.9567 10.1343 18.88C10.0222 18.8417 9.94262 18.9088 9.86021 18.9701C9.80846 18.9308 9.85062 18.8791 9.89087 18.8312C9.90813 18.8126 9.92265 18.7916 9.934 18.7689C9.97042 18.7066 10.0327 18.7047 10.0931 18.7028C10.1448 18.7018 10.1966 18.6999 10.232 18.6625C10.3595 18.5906 10.5167 18.628 10.6748 18.6654C10.7908 18.6922 10.9067 18.72 11.014 18.7056C11.2086 18.7296 11.4491 18.5331 11.3514 18.3367C11.1731 18.1134 11.175 17.8307 11.176 17.5575V17.4205C11.1607 17.317 11.0112 17.1972 10.8617 17.0774C10.7467 16.9864 10.6317 16.8944 10.5761 16.8091C10.4227 16.6395 10.303 16.443 10.1841 16.2485L10.1698 16.2255C9.96658 15.8383 9.88513 15.4013 9.80367 14.9653C9.70496 14.442 9.60721 13.9207 9.29958 13.4894C9.04467 13.6274 8.71308 13.5613 8.49363 13.3763C8.37862 13.4789 8.36904 13.613 8.36137 13.7558L8.36042 13.7692C8.07579 13.4894 8.11125 12.9604 8.33838 12.648C8.43133 12.5253 8.5425 12.4247 8.66612 12.3356C8.69487 12.3155 8.70446 12.2953 8.7035 12.2647C8.92871 11.268 10.463 11.4606 10.9479 12.166C11.108 12.3634 11.2172 12.5895 11.3265 12.8157C11.4577 13.0869 11.5881 13.3581 11.8056 13.5776C12.0165 13.8047 12.2388 14.0213 12.4611 14.2379C12.8052 14.5733 13.1492 14.9078 13.4501 15.2815C13.9197 15.844 14.2542 16.5043 14.5465 17.1694C14.5944 17.2576 14.6231 17.3544 14.6519 17.4502C14.694 17.594 14.7372 17.7367 14.8435 17.8498C14.8685 17.8834 14.924 17.9342 14.9863 17.9917C15.1358 18.1287 15.3285 18.306 15.2633 18.3836C15.2719 18.4018 15.2892 18.422 15.3112 18.4411C15.3419 18.468 15.3821 18.4967 15.4224 18.5255C15.5393 18.6088 15.6629 18.696 15.5767 18.765ZM23.0306 15.3678L22.1662 16.2178C21.9362 16.4449 21.6515 16.6136 21.343 16.7065L21.3267 16.7113L21.3209 16.7257C21.221 16.986 21.0661 17.2217 20.8667 17.4167L20.0022 18.2677C19.6256 18.6385 19.1244 18.8427 18.5897 18.8427C18.0559 18.8427 17.5547 18.6385 17.1771 18.2677C16.9922 18.0865 16.8453 17.8703 16.7451 17.6317C16.6448 17.3931 16.5932 17.1369 16.5932 16.8781C16.5932 16.6193 16.6448 16.3631 16.7451 16.1244C16.8453 15.8858 16.9922 15.6696 17.1771 15.4885L18.0415 14.6375C18.2734 14.4094 18.5504 14.2455 18.8647 14.1507L18.88 14.1468L18.8858 14.1315C18.9864 13.8708 19.1397 13.637 19.341 13.4377L20.2054 12.5876C20.582 12.2168 21.0842 12.0126 21.618 12.0126C22.1528 12.0126 22.653 12.2168 23.0306 12.5876C23.4082 12.9585 23.6152 13.452 23.6152 13.9772C23.6152 14.5033 23.4082 14.9969 23.0306 15.3668V15.3678Z" fill="white"></path>
</svg>
