<svg width="30" height="30" viewBox="0 0 30 30" fill="none" xmlns="http://www.w3.org/2000/svg">
<rect x="2.25" y="3" width="25" height="25" rx="3" fill="black"/>
<path d="M14.7946 4C13.9307 4.00431 13.0762 4.17965 12.2798 4.51604C11.4834 4.85243 10.7607 5.34331 10.1529 5.96056C9.54521 6.5778 9.06437 7.30938 8.73787 8.11348C8.41138 8.91759 8.24563 9.77849 8.25009 10.647V12.8426H13.5675V9.66166C13.5675 9.51227 13.5967 9.36434 13.6535 9.22631C13.7103 9.08828 13.7936 8.96287 13.8987 8.85722C14.0037 8.75158 14.1285 8.66782 14.2657 8.61066C14.403 8.55349 14.5501 8.5241 14.6987 8.52413H14.8904C15.039 8.5241 15.1862 8.5535 15.3234 8.61066C15.4607 8.66782 15.5854 8.75158 15.6906 8.85722C15.7956 8.96286 15.8789 9.08828 15.9358 9.22631C15.9926 9.36434 16.0219 9.51226 16.0219 9.66166V18.1889C16.7202 18.1889 17.4117 18.0507 18.0568 17.782C18.7019 17.5133 19.2881 17.1195 19.7819 16.6231C20.2757 16.1266 20.6673 15.5372 20.9346 14.8886C21.2018 14.24 21.3393 13.5447 21.3393 12.8426V10.647C21.3431 8.88728 20.6539 7.19757 19.4223 5.94719C18.818 5.33017 18.0976 4.84023 17.3031 4.50593C16.5086 4.17163 15.6559 3.99964 14.7946 4Z" fill="#F2F2F2"/>
<path d="M14.8907 22.5054H14.699C14.5504 22.5054 14.4033 22.476 14.2661 22.4189C14.1288 22.3617 14.0041 22.2779 13.899 22.1722C13.794 22.0667 13.7107 21.9413 13.6538 21.8033C13.597 21.6653 13.5677 21.5174 13.5678 21.368V12.8408C12.8695 12.8408 12.178 12.979 11.5328 13.2476C10.8876 13.5163 10.3014 13.91 9.80765 14.4065C9.31387 14.903 8.92219 15.4924 8.65498 16.1411C8.38778 16.7897 8.25028 17.485 8.25034 18.1871V20.3521C8.24148 21.2219 8.40422 22.0848 8.72915 22.891C9.05407 23.6972 9.53473 24.4305 10.1433 25.0488C10.7519 25.6669 11.4764 26.1577 12.2748 26.4926C13.0733 26.8276 13.9298 27 14.7949 27C15.6601 27 16.5166 26.8276 17.3151 26.4926C18.1135 26.1577 18.838 25.6669 19.4466 25.0488C20.0552 24.4305 20.5358 23.6972 20.8607 22.891C21.1857 22.0848 21.3484 21.2219 21.3395 20.3521V18.1871H16.0221V21.368C16.0221 21.5174 15.9928 21.6653 15.936 21.8033C15.8791 21.9413 15.7957 22.0667 15.6907 22.1723C15.5857 22.278 15.4609 22.3617 15.3236 22.4189C15.1864 22.476 15.0393 22.5054 14.8907 22.5054Z" fill="#F2F2F2"/>
</svg>
