<svg width="38" height="38" viewBox="0 0 38 38" fill="none" xmlns="http://www.w3.org/2000/svg">
<g clip-path="url(#clip0_1084_17081)">
<path d="M16.6547 0.103954C15.5785 0.252392 15.482 0.371143 15.0664 1.96685L14.8289 2.85747L13.7379 3.21372C13.0996 3.42154 12.209 3.78521 11.6078 4.08208C11.0438 4.36411 10.5539 4.60161 10.5242 4.60161C10.4945 4.60161 10.0938 4.37896 9.63361 4.10435C8.70587 3.56255 8.3422 3.45122 7.934 3.59224C7.03595 3.90396 3.78517 7.177 3.56993 7.99341C3.45861 8.40161 3.55509 8.69106 4.11173 9.63364C4.37892 10.0938 4.60157 10.4946 4.60157 10.5243C4.60157 10.554 4.36407 11.0438 4.08204 11.6079C3.78517 12.209 3.4215 13.0997 3.21368 13.7379L2.85743 14.829L1.96681 15.059C0.363684 15.4747 0.23009 15.6008 0.0816528 16.8625C-0.0222534 17.7829 -0.0222534 20.2172 0.0816528 21.1375C0.23009 22.3993 0.363684 22.5254 1.96681 22.9411L2.85743 23.1711L3.21368 24.2622C3.4215 24.9004 3.78517 25.7911 4.08204 26.3922C4.36407 26.9563 4.60157 27.4461 4.60157 27.4758C4.60157 27.5055 4.37892 27.9063 4.11173 28.3665C3.55509 29.309 3.45861 29.5985 3.56993 29.9993C3.75548 30.6969 6.26407 33.3391 7.60001 34.2446C7.82267 34.393 7.97853 34.4375 8.29025 34.4375C8.65392 34.4375 8.78009 34.3856 9.58165 33.918C10.0715 33.636 10.4945 33.3985 10.5242 33.3985C10.5539 33.3985 11.0438 33.636 11.6078 33.918C12.209 34.2149 13.0996 34.5786 13.7379 34.7864L14.8289 35.1426L15.059 36.0333C15.482 37.6586 15.6008 37.7774 16.907 37.9184C17.8867 38.0223 20.1133 38.0223 21.093 37.9184C22.3992 37.7774 22.518 37.6586 22.941 36.0333L23.1711 35.1426L24.2621 34.7864C24.9004 34.5786 25.791 34.2149 26.3922 33.918C26.9563 33.636 27.4461 33.3985 27.4758 33.3985C27.5055 33.3985 27.9285 33.636 28.4184 33.918C29.2199 34.3856 29.3461 34.4375 29.7098 34.4375C30.0215 34.4375 30.1774 34.393 30.4 34.2446C31.7063 33.3614 34.2371 30.7043 34.4227 30.029C34.534 29.6282 34.4152 29.2571 33.8957 28.3665C33.6211 27.9063 33.3984 27.5055 33.3984 27.4758C33.3984 27.4461 33.6359 26.9563 33.918 26.3922C34.2149 25.7911 34.5859 24.893 34.7863 24.2622L35.1426 23.1711L36.0703 22.9262C37.2356 22.6219 37.5102 22.4883 37.6957 22.1321C37.8961 21.7313 38 20.6403 38 18.9481C38 17.3004 37.8664 16.0907 37.666 15.779C37.4805 15.4969 37.1539 15.3559 36.0703 15.0739L35.1426 14.829L34.7863 13.7379C34.5859 13.1071 34.2149 12.209 33.918 11.6079C33.6359 11.0438 33.3984 10.554 33.3984 10.5243C33.3984 10.4946 33.6211 10.0938 33.8957 9.63364C34.4152 8.74302 34.534 8.37192 34.4227 7.97114C34.2 7.16216 30.8379 3.80005 30.0363 3.57739C29.6281 3.46606 29.2645 3.57739 28.3664 4.10435C27.9063 4.37896 27.5055 4.60161 27.4758 4.60161C27.4461 4.60161 26.9563 4.36411 26.3922 4.08208C25.791 3.78521 24.9004 3.42154 24.2621 3.21372L23.1711 2.85747L22.941 1.96685C22.5254 0.371143 22.377 0.215282 21.093 0.0816917C20.091 -0.0222168 17.5156 -0.00737381 16.6547 0.103954ZM21.2414 7.4145C22.8223 7.73364 24.507 8.46099 25.8059 9.37388C26.6445 9.96021 28.0399 11.3555 28.6262 12.1942C29.5688 13.5375 30.3184 15.3188 30.6227 16.959C30.8156 17.9907 30.8156 20.0094 30.6227 21.0411C30.3184 22.6813 29.5688 24.4625 28.6262 25.8059C28.0399 26.6446 26.6445 28.0399 25.8059 28.6262C24.4625 29.5688 22.6813 30.3184 21.041 30.6227C20.0094 30.8157 17.9906 30.8157 16.959 30.6227C15.3188 30.3184 13.5375 29.5688 12.1942 28.6262C11.3555 28.0399 9.96017 26.6446 9.37384 25.8059C8.43126 24.4625 7.68165 22.6813 7.37736 21.0411C7.18439 20.0094 7.18439 17.9907 7.37736 16.959C7.68165 15.3188 8.43126 13.5375 9.37384 12.1942C9.96017 11.3555 11.3555 9.96021 12.1942 9.37388C13.7973 8.24575 15.7641 7.50356 17.8125 7.2438C18.4285 7.16958 20.5363 7.27349 21.2414 7.4145Z" fill="#00BC7D"/>
<path d="M17.8867 9.39618C14.1906 9.87118 11.1105 12.3352 9.88594 15.8087C9.48516 16.9442 9.38867 17.5677 9.38867 19.0001C9.38867 19.9872 9.42578 20.4474 9.52969 20.9298C10.4277 25.0415 13.7156 28.0696 17.8496 28.5817C18.6586 28.6856 20.1727 28.6263 20.9223 28.463C25.0191 27.5946 28.025 24.3438 28.5816 20.2024C28.693 19.3563 28.6187 17.7384 28.4332 16.922C27.5871 13.2259 24.7742 10.413 21.0781 9.56688C20.4547 9.42587 18.4953 9.32196 17.8867 9.39618ZM24.418 15.8087C24.7816 16.0907 24.9152 16.4618 24.7965 16.87C24.7148 17.1372 24.2547 17.6345 21.6125 20.2915C18.3246 23.5942 18.1539 23.7278 17.6121 23.6313C17.3672 23.5942 17.0852 23.3419 15.5785 21.8278C13.6117 19.861 13.5895 19.8313 13.8715 19.1856C14.057 18.77 14.391 18.5548 14.8512 18.5548C15.2816 18.5548 15.3484 18.5993 16.7141 19.9575L17.8125 21.0411L20.4992 18.3544C23.3121 15.5563 23.416 15.4747 23.9355 15.5638C24.0617 15.586 24.277 15.6899 24.418 15.8087Z" fill="#00BC7D"/>
</g>
<defs>
<clipPath id="clip0_1084_17081">
<rect width="38" height="38" fill="white"/>
</clipPath>
</defs>
</svg>
