<svg width="30" height="30" viewBox="0 0 30 30" fill="none" xmlns="http://www.w3.org/2000/svg">
<rect x="3" y="3" width="25" height="25" rx="3" fill="white"/>
<g clip-path="url(#clip0_2034_188)">
<path d="M23.7983 18.5592V18.9999H26.9753V17.0124H26.5124V18.5592H23.7983ZM23.7983 12V12.4407H26.5124V13.9876H26.9753V12H23.7983ZM22.16 15.4093V14.3852H22.8862C23.2402 14.3852 23.3673 14.4976 23.3673 14.8044V14.9858C23.3673 15.3012 23.2447 15.4093 22.8862 15.4093H22.16ZM23.3127 15.5907C23.644 15.5086 23.8754 15.2148 23.8754 14.8648C23.8754 14.6445 23.7847 14.4457 23.6123 14.2858C23.3944 14.087 23.1039 13.9876 22.7272 13.9876H21.7061V17.0123H22.16V15.8068H22.8408C23.1902 15.8068 23.3309 15.945 23.3309 16.2908V17.0124H23.7939V16.3599C23.7939 15.8846 23.6759 15.7031 23.3127 15.6513V15.5907ZM19.4914 15.6901H20.8893V15.2926H19.4914V14.3851H21.0254V13.9876H19.0284V17.0123H21.0935V16.6148H19.4914V15.6901ZM17.9709 15.85V16.0574C17.9709 16.4938 17.803 16.6364 17.3809 16.6364H17.2811C16.859 16.6364 16.6548 16.5067 16.6548 15.9061V15.0938C16.6548 14.4889 16.8681 14.3635 17.2901 14.3635H17.3808C17.7939 14.3635 17.9255 14.5104 17.93 14.9166H18.4292C18.3839 14.3203 17.9663 13.9444 17.34 13.9444C17.036 13.9444 16.7818 14.0352 16.5912 14.208C16.3052 14.4629 16.1464 14.8951 16.1464 15.5C16.1464 16.0833 16.2826 16.5154 16.564 16.7832C16.7545 16.9604 17.0178 17.0555 17.2765 17.0555C17.5488 17.0555 17.7985 16.9517 17.9255 16.7271H17.989V17.0123H18.4065V15.4525H17.1766V15.85H17.9709ZM13.9681 14.3851H14.4628C14.9303 14.3851 15.1845 14.4975 15.1845 15.1024V15.8975C15.1845 16.5023 14.9303 16.6148 14.4628 16.6148H13.9681V14.3851ZM14.5036 17.0124C15.3705 17.0124 15.6926 16.3858 15.6926 15.5001C15.6926 14.6013 15.3478 13.9877 14.4945 13.9877H13.5141V17.0124H14.5036ZM11.3222 15.6901H12.72V15.2926H11.3222V14.3851H12.8561V13.9876H10.8591V17.0123H12.9243V16.6148H11.3222V15.6901ZM8.64444 13.9876H8.18155V17.0123H10.2693V16.6148H8.64444V13.9876ZM5 17.0124V19H8.17694V18.5592H5.46289V17.0124H5ZM5 12V13.9876H5.46289V12.4407H8.17694V12H5Z" fill="black"/>
</g>
<defs>
<clipPath id="clip0_2034_188">
<rect width="22" height="7" fill="white" transform="translate(5 12)"/>
</clipPath>
</defs>
</svg>
