<svg width="30" height="30" viewBox="0 0 30 30" fill="none" xmlns="http://www.w3.org/2000/svg">
<g clip-path="url(#clip0_2036_5)">
<path fill-rule="evenodd" clip-rule="evenodd" d="M28 3V28H3V3H28Z" fill="#61DFFF"/>
<path fill-rule="evenodd" clip-rule="evenodd" d="M19.3438 8.75492C19.0863 8.88992 18.7638 9.18242 18.6287 9.40617C18.475 9.65992 18.38 10.0474 18.375 10.4374C18.37 10.8887 18.4475 11.1849 18.655 11.4999C18.8137 11.7399 19.1388 12.0362 19.3775 12.1562C19.6163 12.2762 20.0087 12.3749 20.25 12.3749C20.4913 12.3749 20.8837 12.2712 21.125 12.1437C21.3663 12.0162 21.6912 11.7212 21.8475 11.4874C22.0525 11.1799 22.13 10.8887 22.125 10.4374C22.12 10.0474 22.025 9.65992 21.8713 9.40617C21.7362 9.18242 21.4 8.88742 21.125 8.74992C20.85 8.61242 20.4425 8.50242 20.2188 8.50492C19.995 8.50867 19.6012 8.62117 19.3438 8.75492ZM10.75 20.4999H20.25V18.6249H12.875V10.4999H10.75V20.4999Z" fill="#190066"/>
</g>
<defs>
<clipPath id="clip0_2036_5">
<rect x="3" y="3" width="25" height="25" rx="3" fill="white"/>
</clipPath>
</defs>
</svg>
