<svg width="24" height="24" viewBox="0 0 24 24" fill="none" xmlns="http://www.w3.org/2000/svg">
<path d="M5.44635 7.50195H0.748757C0.540271 7.50195 0.371338 7.67096 0.371338 7.87937V22.9707C0.371338 23.1792 0.540271 23.3481 0.748757 23.3481H5.44635C5.65483 23.3481 5.82376 23.1792 5.82376 22.9707V7.87937C5.82376 7.67096 5.65483 7.50195 5.44635 7.50195Z" fill="black"/>
<path d="M3.09982 0C1.39056 0 0 1.38905 0 3.09642C0 4.80455 1.39056 6.19413 3.09982 6.19413C4.80772 6.19413 6.19715 4.80447 6.19715 3.09642C6.19723 1.38905 4.80772 0 3.09982 0Z" fill="black"/>
<path d="M17.3954 7.12695C15.5087 7.12695 14.114 7.93803 13.268 8.85961V7.87945C13.268 7.67104 13.0991 7.50203 12.8906 7.50203H8.39182C8.18334 7.50203 8.0144 7.67104 8.0144 7.87945V22.9708C8.0144 23.1793 8.18334 23.3482 8.39182 23.3482H13.0791C13.2876 23.3482 13.4566 23.1793 13.4566 22.9708V15.5041C13.4566 12.988 14.14 12.0077 15.8939 12.0077C17.8041 12.0077 17.9559 13.5792 17.9559 15.6335V22.9709C17.9559 23.1794 18.1249 23.3483 18.3334 23.3483H23.0224C23.2309 23.3483 23.3998 23.1794 23.3998 22.9709V14.693C23.3998 10.9516 22.6864 7.12695 17.3954 7.12695Z" fill="black"/>
</svg>
