<?xml version="1.0" encoding="UTF-8"?>
<svg xmlns="http://www.w3.org/2000/svg" width="30" height="30" viewBox="0 0 30 30" fill="none">
  <rect x="2.5" y="3" width="25" height="25" rx="3" fill="black"></rect>
  <path d="M18.3017 19.8415C16.7663 20.5345 15.1032 20.2502 14.4632 20.0215C14.4632 20.179 14.4559 20.6643 14.428 21.3565C14.4001 22.0495 14.1843 22.4868 14.0794 22.6195C14.0911 23.0522 14.1007 23.9972 14.0449 24.3145C13.9914 24.5711 13.8707 24.8081 13.6956 25H12.7532C12.8369 24.5672 13.1605 24.2905 13.3117 24.2065C13.3954 23.3118 13.231 22.5347 13.137 22.2587C13.0446 22.5955 12.8163 23.3762 12.649 23.8097C12.5119 24.1541 12.3363 24.481 12.1257 24.784H11.4277C11.3925 24.3505 11.6259 24.2065 11.7763 24.2065C11.8461 24.0737 12.0134 23.6583 12.1257 23.0515C12.2372 22.4462 12.0787 21.3085 11.9862 20.8158V19.2648C10.8692 18.6513 10.4509 18.0378 10.1713 17.3523C9.94814 16.8048 10.0083 15.97 10.067 15.6213C9.99658 15.4893 9.79328 15.1525 9.71769 14.6838C9.61347 14.0342 9.67145 13.5655 9.71769 13.3127C9.64796 13.2407 9.50852 12.8725 9.50852 11.9777C9.50852 11.0838 9.76466 10.6195 9.89236 10.4987V10.102C9.40357 10.066 8.91551 9.85 8.63588 9.56125C8.35699 9.2725 8.56616 8.83975 8.74083 8.69575C8.91551 8.551 9.08945 8.659 9.33384 8.587C9.57824 8.515 9.78741 8.443 9.89163 8.227C9.97676 8.05225 9.81163 7.336 9.71842 7C10.1368 7.05775 10.4046 7.43275 10.4861 7.6135V7C11.0094 7.25275 11.9518 7.8655 12.2659 9.2005C12.5169 10.2685 12.696 12.5072 12.7539 13.4927C14.0919 13.5047 15.7902 13.2978 17.3255 13.6375C18.7207 13.9465 19.349 14.575 20.0814 14.575C20.8146 14.575 21.2337 14.1422 21.7562 14.503C22.2803 14.8637 22.5592 15.874 22.4894 16.6315C22.4337 17.2375 21.9779 17.437 21.757 17.461C21.4781 18.4135 21.757 19.3247 21.9309 19.6615V21.0317C22.0124 21.1517 22.1753 21.523 22.1753 22.042C22.1753 22.5617 22.0124 22.9075 21.9309 23.0163C22.0704 23.824 21.8722 24.6512 21.7562 24.964H20.8146C20.9262 24.6752 21.117 24.6033 21.1985 24.6033C21.3658 23.7085 21.2447 22.8835 21.1632 22.5835C20.6333 22.2655 20.2913 21.706 20.1864 21.4653C20.1981 21.6693 20.1651 22.237 19.942 22.8715C19.7189 23.5068 19.3842 23.8818 19.2448 23.9897V24.7472H18.3024C18.3024 24.286 18.5578 24.1945 18.6862 24.2065C18.8492 23.9065 19.244 23.449 19.244 22.5475C19.244 21.7863 18.7207 21.4285 18.3369 20.7438C18.1549 20.4183 18.2437 20.0103 18.3024 19.8415H18.3017Z" fill="url(#paint0_linear_2034_134)"></path>
  <defs>
    <linearGradient id="paint0_linear_2034_134" x1="9.61641" y1="8.515" x2="24.9985" y2="21.1296" gradientUnits="userSpaceOnUse">
      <stop offset="0.062" stop-color="#F6DCD9"></stop>
      <stop offset="0.326" stop-color="#FFA5EA"></stop>
      <stop offset="0.589" stop-color="#45DFF8"></stop>
      <stop offset="1" stop-color="#BC8DEB"></stop>
    </linearGradient>
  </defs>
</svg>
