<svg width="20" height="20" viewBox="0 0 20 20" fill="none" xmlns="http://www.w3.org/2000/svg">
<path d="M17.1654 8.33464C17.1654 12.4955 12.5495 16.8288 10.9995 18.1671C10.8551 18.2757 10.6794 18.3344 10.4987 18.3344C10.318 18.3344 10.1423 18.2757 9.99786 18.1671C8.44786 16.8288 3.83203 12.4955 3.83203 8.33464C3.83203 6.56653 4.53441 4.87083 5.78465 3.62059C7.0349 2.37035 8.73059 1.66797 10.4987 1.66797C12.2668 1.66797 13.9625 2.37035 15.2127 3.62059C16.463 4.87083 17.1654 6.56653 17.1654 8.33464Z" stroke="white" stroke-width="2" stroke-linecap="round" stroke-linejoin="round"/>
<path d="M10.5 10.832C11.8807 10.832 13 9.71274 13 8.33203C13 6.95132 11.8807 5.83203 10.5 5.83203C9.11929 5.83203 8 6.95132 8 8.33203C8 9.71274 9.11929 10.832 10.5 10.832Z" stroke="white" stroke-width="2" stroke-linecap="round" stroke-linejoin="round"/>
</svg>
