<?xml version="1.0" encoding="UTF-8"?>
<svg xmlns="http://www.w3.org/2000/svg" width="24" height="30" viewBox="0 0 24 30" fill="none">
  <path d="M20.2951 11.2542H19.3771V7.65816C19.3771 3.36293 16.3279 0 11.9672 0C7.60656 0 4.62295 3.42952 4.62295 7.65816V11.2209C4.62295 11.2542 4.62295 11.2542 4.62295 11.2209H3.70492C1.67213 11.2209 0.0327869 12.8857 0 14.9834V26.2375C0 28.3019 1.63934 29.9667 3.70492 30H20.2951C22.3279 30 23.9672 28.3352 24 26.2375V14.9834C24 12.919 22.3279 11.2542 20.2951 11.2542ZM6.45902 11.2542V7.65816C6.45902 4.46171 8.62295 1.8646 11.9672 1.8646C15.2787 1.8646 17.541 4.39512 17.541 7.65816V11.2209C17.541 11.2542 17.541 11.2542 17.541 11.2209H6.45902C6.45902 11.2542 6.45902 11.2542 6.45902 11.2542ZM22.1311 26.2375C22.1311 27.2697 21.3115 28.1021 20.2951 28.1021H3.70492C2.68853 28.1021 1.86885 27.2697 1.86885 26.2375V14.9834C1.86885 13.9512 2.68853 13.1188 3.70492 13.1188H20.2951C21.3115 13.1188 22.1311 13.9512 22.1311 14.9834V26.2375ZM13.8361 18.7458C13.8361 19.4451 13.4754 20.0444 12.918 20.3774V23.4406C12.918 23.9734 12.4918 24.3729 12 24.3729C11.4754 24.3729 11.082 23.9401 11.082 23.4406V20.3774C10.5246 20.0444 10.1639 19.4451 10.1639 18.7458C10.1639 17.7137 10.9836 16.8812 12 16.8812C13.0164 16.8479 13.8361 17.6804 13.8361 18.7458Z" fill="#CF19AE"></path>
</svg>
