<svg width="24" height="24" viewBox="0 0 24 24" fill="none" xmlns="http://www.w3.org/2000/svg">
<path d="M11.9998 5.00103C12.001 4.60106 11.9222 4.20489 11.768 3.83583C11.6139 3.46676 11.3874 3.13225 11.1021 2.85197C10.8168 2.57169 10.4783 2.3513 10.1065 2.20376C9.73472 2.05622 9.33721 1.9845 8.93733 1.99284C8.53744 2.00117 8.14326 2.08939 7.77797 2.25229C7.41268 2.4152 7.08365 2.6495 6.81023 2.94143C6.53682 3.23336 6.32454 3.57701 6.18588 3.95218C6.04722 4.32735 5.98499 4.72645 6.00283 5.12603C5.41503 5.27716 4.86933 5.56008 4.40706 5.95334C3.94479 6.3466 3.57807 6.8399 3.33467 7.39587C3.09128 7.95185 2.97759 8.55592 3.00222 9.16234C3.02685 9.76876 3.18915 10.3616 3.47683 10.896C2.97101 11.307 2.57326 11.8353 2.31817 12.435C2.06308 13.0347 1.95839 13.6876 2.01319 14.337C2.068 14.9864 2.28065 15.6126 2.63264 16.161C2.98462 16.7095 3.46529 17.1637 4.03283 17.484C3.96275 18.0263 4.00457 18.5771 4.15572 19.1026C4.30686 19.628 4.56413 20.1169 4.91161 20.539C5.2591 20.9611 5.68944 21.3075 6.17605 21.5568C6.66266 21.8061 7.19521 21.953 7.74081 21.9884C8.28641 22.0238 8.83347 21.9469 9.34822 21.7626C9.86296 21.5783 10.3345 21.2905 10.7336 20.9168C11.1327 20.5431 11.451 20.0916 11.6688 19.5901C11.8866 19.0886 11.9992 18.5478 11.9998 18.001V5.00103Z" stroke="white" stroke-width="2" stroke-linecap="round" stroke-linejoin="round"/>
<path d="M12 5.00103C11.9988 4.60106 12.0776 4.20489 12.2318 3.83583C12.386 3.46676 12.6124 3.13225 12.8977 2.85197C13.1831 2.57169 13.5216 2.3513 13.8934 2.20376C14.2651 2.05622 14.6626 1.9845 15.0625 1.99284C15.4624 2.00117 15.8566 2.08939 16.2219 2.25229C16.5872 2.4152 16.9162 2.6495 17.1896 2.94143C17.463 3.23336 17.6753 3.57701 17.814 3.95218C17.9526 4.32735 18.0149 4.72645 17.997 5.12603C18.5848 5.27716 19.1305 5.56008 19.5928 5.95334C20.0551 6.3466 20.4218 6.8399 20.6652 7.39587C20.9086 7.95185 21.0223 8.55592 20.9976 9.16234C20.973 9.76876 20.8107 10.3616 20.523 10.896C21.0288 11.307 21.4266 11.8353 21.6817 12.435C21.9368 13.0347 22.0415 13.6876 21.9867 14.337C21.9318 14.9864 21.7192 15.6126 21.3672 16.161C21.0152 16.7095 20.5345 17.1637 19.967 17.484C20.0371 18.0263 19.9953 18.5771 19.8441 19.1026C19.693 19.628 19.4357 20.1169 19.0882 20.539C18.7407 20.9611 18.3104 21.3075 17.8238 21.5568C17.3372 21.8061 16.8046 21.953 16.259 21.9884C15.7134 22.0238 15.1664 21.9469 14.6516 21.7626C14.1369 21.5783 13.6654 21.2905 13.2663 20.9168C12.8671 20.5431 12.5488 20.0916 12.331 19.5901C12.1133 19.0886 12.0006 18.5478 12 18.001V5.00103Z" stroke="white" stroke-width="2" stroke-linecap="round" stroke-linejoin="round"/>
<path d="M15 13C14.1604 12.7047 13.4273 12.167 12.8933 11.455C12.3593 10.743 12.0485 9.88867 12 9C11.9515 9.88867 11.6407 10.743 11.1067 11.455C10.5727 12.167 9.83956 12.7047 9 13" stroke="white" stroke-width="2" stroke-linecap="round" stroke-linejoin="round"/>
<path d="M17.5986 6.5C17.8407 6.08059 17.9776 5.60882 17.9976 5.125" stroke="white" stroke-width="2" stroke-linecap="round" stroke-linejoin="round"/>
<path d="M6.00299 5.125C6.02277 5.60873 6.15932 6.0805 6.40099 6.5" stroke="white" stroke-width="2" stroke-linecap="round" stroke-linejoin="round"/>
<path d="M3.47656 10.896C3.6595 10.747 3.85527 10.6145 4.06156 10.5" stroke="white" stroke-width="2" stroke-linecap="round" stroke-linejoin="round"/>
<path d="M19.9385 10.5C20.1448 10.6145 20.3405 10.747 20.5235 10.896" stroke="white" stroke-width="2" stroke-linecap="round" stroke-linejoin="round"/>
<path d="M6.0002 18.0004C5.31103 18.0007 4.63347 17.823 4.0332 17.4844" stroke="white" stroke-width="2" stroke-linecap="round" stroke-linejoin="round"/>
<path d="M19.967 17.4844C19.3667 17.823 18.6892 18.0007 18 18.0004" stroke="white" stroke-width="2" stroke-linecap="round" stroke-linejoin="round"/>
</svg>
