<svg width="56" height="56" viewBox="0 0 56 56" fill="none" xmlns="http://www.w3.org/2000/svg">
<path fill-rule="evenodd" clip-rule="evenodd" d="M13.0247 48.0825C6.91017 43.5142 2.95142 36.2191 2.95142 28C2.95142 14.1668 14.1668 2.95142 28 2.95142C39.4207 2.95142 51.8873 9.77819 54.9028 20.2236C51.5344 8.54629 40.7681 0 28 0C12.5371 0 0 12.5371 0 28C0 43.4629 12.5371 56 28 56C43.4629 56 56 43.4629 56 28V26.5243H54.4601C54.4152 26.5243 54.3446 26.5243 54.2548 26.5243C54.0752 26.5243 53.8121 26.5179 53.4785 26.505C52.8176 26.4858 51.9001 26.4409 50.8735 26.3511C48.7754 26.1714 46.3758 25.8121 44.7461 25.1577C42.1219 24.1118 40.6398 22.7195 38.9459 21.0962L38.8497 21C37.1558 19.3703 35.2502 17.5417 31.9459 15.9826C28.6929 14.4491 25.0935 14.6994 22.45 15.2383C21.1091 15.5142 19.9542 15.8799 19.1393 16.1751C18.7287 16.3226 18.4015 16.4574 18.1705 16.5536C16.8423 17.1118 15.5463 17.7791 14.2438 18.3886C14.2438 18.3886 16.8039 19.0944 18.0742 19.4858C18.1192 19.4986 18.1897 19.5243 18.286 19.5564C18.472 19.6205 18.7479 19.7168 19.0816 19.8515C19.7489 20.121 20.6279 20.5316 21.494 21.0898C22.8607 21.9688 23.9963 23.0724 24.4583 24.4326C21.5582 24.8112 18.8378 26.088 16.7974 27.2878C15.5655 28.0128 14.539 28.7379 13.8204 29.2832C13.461 29.5527 13.1723 29.7837 12.9798 29.9441C12.813 30.0788 10.1952 32.3886 10.1952 32.3886C10.1952 32.3886 13.5765 32.7479 15.2447 33.0816C16.3547 33.3061 17.8497 33.6654 19.4088 34.2108C20.9743 34.7562 22.5591 35.4748 23.8744 36.3923C25.1897 37.3098 26.1586 38.3749 26.6334 39.5875C28.0193 43.1292 26.659 46.5811 23.9258 48.5188C21.2246 50.4436 17.1247 50.8992 13.0247 48.0825ZM22.5784 52.4647C23.6819 52.1054 24.7085 51.5857 25.6389 50.9313C29.3538 48.2878 31.3107 43.45 29.3795 38.5225C28.6224 36.5848 27.1723 35.1027 25.5619 33.9798C23.9514 32.857 22.0972 32.0293 20.3776 31.4326C19.2484 31.0412 18.1577 30.7333 17.2081 30.5023C17.5481 30.2841 17.9138 30.0532 18.2988 29.8286C20.5701 28.494 23.4253 27.2686 26.165 27.2686C30.297 27.2686 33.3703 28.5325 36.3025 29.8928C36.572 30.0147 36.835 30.143 37.1045 30.2713C39.7287 31.5032 42.4812 32.7929 45.6829 32.7929C48.7883 32.7929 51.2072 31.9138 52.8753 31.0092C51.3932 43.4308 40.8194 53.055 28 53.055C26.1393 53.055 24.3236 52.8497 22.5784 52.4647ZM49.6929 29.1934C48.5894 29.572 47.2548 29.8414 45.6893 29.8414C43.1806 29.8414 41.0183 28.8341 38.2786 27.5573C38.0348 27.4418 37.791 27.3327 37.5408 27.2172C34.7947 25.9468 31.6251 24.5994 27.4931 24.3556C26.9413 21.6224 24.8689 19.7489 23.0917 18.6132C22.8928 18.4849 22.6939 18.363 22.5014 18.2539C22.681 18.2154 22.8607 18.1705 23.0467 18.132C25.4335 17.6379 28.2823 17.516 30.6948 18.6517C33.5564 19.9991 35.1732 21.5518 36.8543 23.1622L36.912 23.22C38.6444 24.8818 40.473 26.6205 43.6618 27.8973C45.4262 28.6031 47.7232 28.9817 49.6929 29.1934Z" fill="url(#paint0_linear_4014_1422)"/>
<defs>
<linearGradient id="paint0_linear_4014_1422" x1="-0.497475" y1="28.523" x2="56.503" y2="27.4815" gradientUnits="userSpaceOnUse">
<stop stop-color="#29CCB9"/>
<stop offset="0.4948" stop-color="#0091FF"/>
<stop offset="1" stop-color="#FF66B7"/>
</linearGradient>
</defs>
</svg>
