<svg width="30" height="30" viewBox="0 0 30 30" fill="none" xmlns="http://www.w3.org/2000/svg">
<rect x="3" y="3" width="25" height="25" rx="3" fill="#1C3C3C"/>
<g clip-path="url(#clip0_2036_30)">
<path d="M28 3H3V28H28V3Z" fill="black"/>
<path d="M15.3806 26.2396V22.566C15.0143 22.566 14.6401 22.5338 14.2739 22.4776L13.7006 26.103C14.258 26.1994 14.8232 26.2396 15.3806 26.2396ZM17.0525 26.111C17.6099 26.0226 18.1592 25.894 18.6927 25.7171L17.5701 22.2203C17.2197 22.3329 16.8535 22.4213 16.4873 22.4776L17.0525 26.111ZM12.0685 25.7171L13.1911 22.2284C12.8408 22.1158 12.4984 21.9711 12.164 21.8023L10.508 25.074C11.0096 25.3232 11.535 25.5403 12.0685 25.7171ZM20.2452 25.074C20.7468 24.8168 21.2245 24.5194 21.6783 24.1898L19.5287 21.2235C19.2341 21.4406 18.9156 21.6416 18.5812 21.8023L20.2452 25.074ZM9.07484 24.1817L11.2245 21.2155C10.9299 20.9985 10.6433 20.7573 10.3806 20.492L7.80096 23.0885C8.19904 23.4824 8.62898 23.8522 9.07484 24.1817ZM22.9443 23.1046L22.9682 23.0805C23.3662 22.6866 23.7325 22.2525 24.0589 21.8023L21.1131 19.6399C20.8981 19.9374 20.6513 20.2268 20.3965 20.484L20.3567 20.5242L21.5987 21.7059L22.9443 23.1046ZM6.71019 21.7943L9.65605 19.6319C9.44108 19.3345 9.24204 19.0129 9.07484 18.6834L5.82643 20.3473C6.08121 20.8538 6.3758 21.3361 6.71019 21.7943ZM24.9347 20.3554C25.1895 19.857 25.4045 19.3264 25.5796 18.7879L22.1083 17.6625C21.9968 18.0162 21.8535 18.3618 21.6863 18.6914L24.9347 20.3554ZM5.18153 18.7879L8.65287 17.6544C8.5414 17.3007 8.45382 16.939 8.39809 16.5692L4.7914 17.1399C4.87898 17.6946 5.01433 18.2493 5.18153 18.7879ZM25.9697 17.148C26.0573 16.5933 26.1051 16.0226 26.1051 15.4599H22.4586C22.4586 15.8297 22.4268 16.2075 22.371 16.5772L25.9697 17.148ZM8.31051 15.4518C8.31051 15.0821 8.34236 14.7043 8.39809 14.3345L4.7914 13.7637C4.70382 14.3184 4.66401 14.8891 4.65605 15.4518H8.31051ZM22.371 14.3425L25.9777 13.7718C25.8901 13.2171 25.7627 12.6625 25.5876 12.1239L22.1162 13.2493C22.2277 13.611 22.3153 13.9727 22.371 14.3425ZM8.65287 13.2493C8.76433 12.8956 8.90764 12.5499 9.07484 12.2203L5.82643 10.5563C5.57166 11.0547 5.35669 11.5853 5.18153 12.1239L8.65287 13.2493ZM21.6943 12.2284L24.9506 10.5644C24.6959 10.058 24.4013 9.57564 24.0669 9.11744L21.1131 11.2798C21.328 11.5772 21.5271 11.8988 21.6943 12.2284ZM9.65605 11.2718C9.87102 10.9744 10.1178 10.685 10.3806 10.4197L10.3885 10.4117L7.80892 7.81519L7.80096 7.82323C7.40287 8.22516 7.03662 8.6512 6.71019 9.1094L9.65605 11.2718ZM20.3965 10.4358L21.1768 9.63995L22.9682 7.8393L22.9602 7.83126C22.5621 7.43737 22.1401 7.0676 21.6943 6.73802L19.5446 9.70426C19.8392 9.9213 20.1258 10.1625 20.3806 10.4277L20.3965 10.4358ZM11.2325 9.68818C11.5271 9.47114 11.8455 9.27821 12.1799 9.1094L10.5239 5.8377C10.0223 6.09493 9.54459 6.39236 9.09076 6.72194L11.2325 9.68818ZM18.6051 9.11744L20.2691 5.84573C19.7675 5.5885 19.25 5.37146 18.7166 5.19461L17.586 8.68335C17.9283 8.80393 18.2707 8.94863 18.6051 9.11744ZM13.207 8.68335C13.5573 8.57081 13.9236 8.48239 14.2898 8.42612L13.7245 4.80072C13.1752 4.88914 12.6178 5.01776 12.0844 5.19461L13.207 8.68335ZM16.4952 8.42612L17.0685 4.80072C16.5191 4.71229 15.9538 4.66406 15.3965 4.66406V8.3377C15.7627 8.3377 16.1369 8.36985 16.4952 8.42612Z" fill="white"/>
<path d="M15.3806 22.7349V19.0452C15.0701 19.0452 14.7675 19.005 14.465 18.9246L13.5096 22.4857C14.1226 22.6465 14.7516 22.7349 15.3806 22.7349ZM17.2516 22.4857C17.8647 22.325 18.4459 22.0838 18.9952 21.7623L17.1481 18.5709C16.8854 18.7237 16.5987 18.8442 16.3041 18.9246L17.2516 22.4857ZM11.7739 21.7623L13.621 18.5709C13.3583 18.4182 13.1115 18.2253 12.8885 18.0082L12.8567 17.9761L11.6943 19.206L10.2611 20.5967L10.285 20.6208C10.7309 21.0629 11.2325 21.4487 11.7739 21.7623ZM20.4841 20.6208C20.9299 20.1706 21.3201 19.6722 21.6306 19.1256L18.4379 17.2767C18.2866 17.542 18.0955 17.7832 17.8726 18.0082L20.4841 20.6208ZM9.13057 19.1176L12.3232 17.2767C12.172 17.0115 12.0525 16.7301 11.9729 16.4327L8.41401 17.3812C8.57325 17.9841 8.82006 18.5709 9.13057 19.1176ZM22.3551 17.3893C22.5143 16.7783 22.6019 16.1513 22.6019 15.5243H18.9156C18.9156 15.8298 18.8758 16.1433 18.7962 16.4407L22.3551 17.3893ZM11.8615 15.5163C11.8615 15.2108 11.9013 14.8973 11.9809 14.5999L8.41401 13.6513C8.25478 14.2623 8.1672 14.8893 8.1672 15.5163H11.8615ZM18.7882 14.6079L22.3551 13.6594C22.1959 13.0484 21.949 12.4616 21.6385 11.915L18.4459 13.7558C18.5892 14.0291 18.7086 14.3105 18.7882 14.6079ZM12.3312 13.7558C12.4825 13.4986 12.6656 13.2494 12.8885 13.0324L12.8965 13.0243L11.5748 11.706L10.3089 10.3957L10.285 10.4198C9.83917 10.8619 9.45701 11.3684 9.13854 11.907L12.3312 13.7558ZM17.8726 13.0324L19.1783 11.7221L20.5159 10.452L20.4841 10.4198C20.0382 9.96965 19.5366 9.59184 18.9952 9.27029L17.1481 12.4616C17.4108 12.6143 17.6497 12.7992 17.8726 13.0163V13.0324ZM13.621 12.4616C13.8838 12.3089 14.1704 12.1883 14.465 12.1079L13.5255 8.54682C12.9124 8.70759 12.3312 8.94875 11.7818 9.27029L13.621 12.4616ZM16.2962 12.116L17.2516 8.55486C16.6465 8.39409 16.0175 8.30566 15.3885 8.30566V11.9954C15.6911 11.9954 16.0016 12.0356 16.2962 12.116Z" fill="white"/>
</g>
<defs>
<clipPath id="clip0_2036_30">
<rect width="25" height="25" fill="white" transform="translate(3 3)"/>
</clipPath>
</defs>
</svg>
