<?xml version="1.0" encoding="UTF-8"?>
<svg xmlns="http://www.w3.org/2000/svg" width="20" height="20" viewBox="0 0 20 20" fill="none">
  <path d="M15.4166 18.9583H4.58325C3.75472 18.9575 2.96038 18.6279 2.37452 18.0421C1.78866 17.4562 1.45913 16.6619 1.45825 15.8333V7.5C1.45913 6.67147 1.78866 5.87713 2.37452 5.29127C2.96038 4.70541 3.75472 4.37588 4.58325 4.375H15.4166C16.2451 4.37588 17.0395 4.70541 17.6253 5.29127C18.2112 5.87713 18.5407 6.67147 18.5416 7.5V15.8333C18.5407 16.6619 18.2112 17.4562 17.6253 18.0421C17.0395 18.6279 16.2451 18.9575 15.4166 18.9583ZM4.58325 5.625C4.08611 5.62544 3.60945 5.82313 3.25791 6.17466C2.90638 6.5262 2.70869 7.00285 2.70825 7.5V15.8333C2.70869 16.3305 2.90638 16.8071 3.25791 17.1587C3.60945 17.5102 4.08611 17.7079 4.58325 17.7083H15.4166C15.9137 17.7079 16.3904 17.5102 16.7419 17.1587C17.0935 16.8071 17.2911 16.3305 17.2916 15.8333V7.5C17.2911 7.00285 17.0935 6.5262 16.7419 6.17466C16.3904 5.82313 15.9137 5.62544 15.4166 5.625H4.58325Z" fill="white"></path>
  <path d="M9.16654 14.589C8.97493 14.5892 8.78517 14.5515 8.60814 14.4782C8.4311 14.4049 8.27025 14.2974 8.1348 14.1619C7.99935 14.0263 7.89195 13.8654 7.81875 13.6883C7.74555 13.5113 7.70799 13.3215 7.70821 13.1299V10.2024C7.70821 9.95376 7.77178 9.70929 7.89286 9.49216C8.01394 9.27503 8.18852 9.09246 8.40002 8.96178C8.61151 8.83111 8.85291 8.75668 9.10126 8.74555C9.34962 8.73442 9.5967 8.78697 9.81904 8.89821L12.3282 10.1532C12.5567 10.2674 12.7511 10.4396 12.8921 10.6525C13.0331 10.8655 13.1157 11.1117 13.1317 11.3666C13.1476 11.6215 13.0964 11.8761 12.983 12.105C12.8696 12.3339 12.6981 12.5289 12.4857 12.6707L9.97571 14.3432C9.73621 14.5033 9.45463 14.5889 9.16654 14.589ZM9.16654 9.99321C9.12791 9.99339 9.0901 10.0044 9.05737 10.0249C9.02672 10.0432 9.00142 10.0692 8.98401 10.1003C8.9666 10.1315 8.9577 10.1667 8.95821 10.2024V13.1299C8.95726 13.1678 8.96709 13.2053 8.98656 13.2379C9.00603 13.2705 9.03434 13.2969 9.06821 13.314C9.10116 13.3331 9.13889 13.3421 9.17689 13.3402C9.21488 13.3383 9.25151 13.3254 9.28237 13.3032L11.7915 11.6307C11.8218 11.6104 11.8462 11.5825 11.8624 11.5499C11.8785 11.5172 11.8859 11.4809 11.8837 11.4445C11.8815 11.4081 11.8699 11.373 11.8499 11.3425C11.8299 11.312 11.8023 11.2873 11.7699 11.2707L9.25987 10.0165C9.23098 10.0017 9.19903 9.99369 9.16654 9.99321ZM9.99987 5.62487C9.91778 5.62507 9.83647 5.60897 9.76065 5.5775C9.68483 5.54603 9.61602 5.49982 9.55821 5.44154L6.22487 2.10821C6.11447 1.98973 6.05437 1.83302 6.05723 1.6711C6.06008 1.50919 6.12568 1.3547 6.24019 1.24019C6.3547 1.12568 6.50919 1.06008 6.6711 1.05723C6.83302 1.05437 6.98973 1.11447 7.10821 1.22487L9.99987 4.11571L12.8915 1.22487C13.01 1.11447 13.1667 1.05437 13.3286 1.05723C13.4906 1.06008 13.645 1.12568 13.7596 1.24019C13.8741 1.3547 13.9397 1.50919 13.9425 1.6711C13.9454 1.83302 13.8853 1.98973 13.7749 2.10821L10.4415 5.44154C10.3837 5.49982 10.3149 5.54603 10.2391 5.5775C10.1633 5.60897 10.082 5.62507 9.99987 5.62487Z" fill="white"></path>
</svg>
