<?xml version="1.0" encoding="UTF-8"?>
<svg xmlns="http://www.w3.org/2000/svg" width="25" height="25" viewBox="0 0 25 25" fill="none">
  <path d="M17.5 7H16.625C16.3929 7 16.1704 7.09219 16.0063 7.25628C15.8422 7.42038 15.75 7.64294 15.75 7.875C15.75 8.10706 15.8422 8.32962 16.0063 8.49372C16.1704 8.65781 16.3929 8.75 16.625 8.75H17.5C17.7321 8.75 17.9546 8.84219 18.1187 9.00628C18.2828 9.17038 18.375 9.39294 18.375 9.625C18.375 9.85706 18.4672 10.0796 18.6313 10.2437C18.7954 10.4078 19.0179 10.5 19.25 10.5C19.4821 10.5 19.7046 10.4078 19.8687 10.2437C20.0328 10.0796 20.125 9.85706 20.125 9.625C20.125 8.17775 18.9473 7 17.5 7Z" fill="white"></path>
  <path d="M1.75 8.75V10.5C1.75 12.488 3.122 14.2074 4.99538 14.7052C6.188 17.2218 8.16288 21 12.25 21C16.3371 21 18.3129 17.22 19.5055 14.7044C21.3832 14.2013 22.75 12.4845 22.75 10.5V8.75C22.7496 7.89917 22.5 7.06709 22.0319 6.35659C21.5638 5.64608 20.8979 5.08828 20.1162 4.75213C18.7145 1.81825 15.7456 0 12.25 0C8.75262 0 5.78375 1.81912 4.382 4.75475C3.60113 5.091 2.93579 5.6485 2.46807 6.35847C2.00036 7.06844 1.75073 7.89981 1.75 8.75ZM12.25 19.25C9.758 19.25 8.25737 17.2358 7.035 14.875H7.875C8.41777 14.8745 8.94707 14.706 9.39027 14.3926C9.83347 14.0793 10.1688 13.6365 10.3504 13.125H14.1496C14.3313 13.6364 14.6667 14.0792 15.1098 14.3925C15.553 14.7058 16.0823 14.8743 16.625 14.875H17.465C16.2426 17.2358 14.742 19.25 12.25 19.25ZM21 10.5C20.9975 11.1295 20.7695 11.7372 20.3572 12.2129C19.9449 12.6886 19.3757 13.0007 18.753 13.0926C18.6281 13.1135 18.5017 13.1243 18.375 13.125H16.625C16.3929 13.125 16.1704 13.0328 16.0063 12.8687C15.8422 12.7046 15.75 12.4821 15.75 12.25C15.75 12.0179 15.6578 11.7954 15.4937 11.6313C15.3296 11.4672 15.1071 11.375 14.875 11.375H9.625C9.39294 11.375 9.17038 11.4672 9.00628 11.6313C8.84219 11.7954 8.75 12.0179 8.75 12.25C8.75 12.733 8.35712 13.125 7.875 13.125H6.125C5.99638 13.125 5.86862 13.111 5.73475 13.09C5.11453 12.9959 4.54841 12.6831 4.1386 12.2081C3.72879 11.7331 3.50229 11.1273 3.5 10.5V8.75C3.5 7.62038 4.21925 6.62025 5.3025 6.25975C5.56713 6.16885 5.8452 6.12329 6.125 6.125H18.375C18.6646 6.125 18.9411 6.1705 19.2089 6.26325C19.7309 6.43689 20.185 6.77062 20.5065 7.21704C20.828 7.66345 21.0007 8.19984 21 8.75V10.5ZM12.25 1.75C14.5661 1.75 16.5839 2.73263 17.8465 4.375H6.6535C7.91612 2.73263 9.933 1.75 12.25 1.75Z" fill="white"></path>
  <path d="M13.6089 14.9669L12.25 15.6467L10.8911 14.9669C10.6834 14.8631 10.443 14.8462 10.2228 14.9197C10.0026 14.9932 9.82061 15.1512 9.71688 15.3589C9.61314 15.5666 9.59617 15.807 9.66968 16.0272C9.74319 16.2474 9.90118 16.4294 10.1089 16.5331L11.8589 17.4081C11.9803 17.4688 12.1142 17.5004 12.25 17.5004C12.3858 17.5004 12.5197 17.4688 12.6411 17.4081L14.3911 16.5331C14.494 16.4818 14.5857 16.4106 14.661 16.3238C14.7364 16.237 14.7939 16.1362 14.8303 16.0272C14.8667 15.9181 14.8813 15.803 14.8732 15.6883C14.8651 15.5737 14.8345 15.4617 14.7831 15.3589C14.7318 15.256 14.6606 15.1643 14.5738 15.089C14.487 15.0136 14.3862 14.9561 14.2772 14.9197C14.1681 14.8833 14.053 14.8687 13.9383 14.8768C13.8237 14.8849 13.7117 14.9155 13.6089 14.9669ZM21.8172 18.6637C21.8529 18.5715 21.8725 18.4739 21.875 18.375C21.875 18.1429 21.7828 17.9204 21.6187 17.7563C21.4546 17.5922 21.2321 17.5 21 17.5H19.25C19.1008 17.4999 18.9541 17.538 18.8238 17.6106C18.6935 17.6832 18.5839 17.7879 18.5054 17.9147C18.427 18.0416 18.3822 18.1864 18.3755 18.3354C18.3687 18.4844 18.4002 18.6327 18.4669 18.7661L19.3419 20.5161C19.3932 20.619 19.4643 20.7108 19.5511 20.7861C19.6379 20.8615 19.7387 20.9191 19.8478 20.9555C19.9568 20.9919 20.072 21.0064 20.1867 20.9983C20.3013 20.9902 20.4133 20.9595 20.5161 20.9081C20.6436 20.8424 20.7527 20.7459 20.8334 20.6273C20.9141 20.5087 20.9638 20.3718 20.9781 20.2291C22.0246 20.5397 22.5216 20.839 22.6966 21.0053C22.057 21.6755 18.2997 22.75 12.25 22.75C6.20025 22.75 2.443 21.6755 1.8025 21.0053C2.02912 20.7917 2.77725 20.356 4.564 19.9605C4.79073 19.9104 4.98826 19.7722 5.11313 19.5765C5.23801 19.3807 5.28 19.1434 5.22987 18.9166C5.17975 18.6899 5.04161 18.4924 4.84584 18.3675C4.65008 18.2426 4.41273 18.2006 4.186 18.2507C1.3685 18.8746 0 19.7733 0 21C0 24.402 10.9961 24.5 12.25 24.5C13.5039 24.5 24.5 24.402 24.5 21C24.5 20.02 23.6084 19.2517 21.8172 18.6637ZM0.875 3.5C1.25125 3.5 1.56625 3.26025 1.68875 2.926L2.88138 4.11862C2.96245 4.20016 3.05884 4.26487 3.165 4.30902C3.27117 4.35318 3.38502 4.37591 3.5 4.37591C3.61498 4.37591 3.72883 4.35318 3.835 4.30902C3.94116 4.26487 4.03755 4.20016 4.11862 4.11862C4.28266 3.95454 4.37481 3.73202 4.37481 3.5C4.37481 3.26798 4.28266 3.04546 4.11862 2.88138L2.92687 1.68875C3.25937 1.56625 3.5 1.25125 3.5 0.875C3.5 0.642936 3.40781 0.420376 3.24372 0.256282C3.07962 0.0921872 2.85706 0 2.625 0H0.875C0.642936 0 0.420376 0.0921872 0.256282 0.256282C0.0921872 0.420376 0 0.642936 0 0.875V2.625C0 2.85706 0.0921872 3.07962 0.256282 3.24372C0.420376 3.40781 0.642936 3.5 0.875 3.5ZM23.625 0H21.875C21.6429 0 21.4204 0.0921872 21.2563 0.256282C21.0922 0.420376 21 0.642936 21 0.875C21 1.25125 21.2397 1.56625 21.5731 1.68875L20.3814 2.88138C20.2978 2.96209 20.2311 3.05864 20.1853 3.1654C20.1394 3.27215 20.1153 3.38697 20.1143 3.50315C20.1133 3.61933 20.1354 3.73455 20.1794 3.84208C20.2234 3.94962 20.2884 4.04731 20.3705 4.12947C20.4527 4.21163 20.5504 4.2766 20.6579 4.32059C20.7654 4.36459 20.8807 4.38673 20.9969 4.38572C21.113 4.38471 21.2278 4.36057 21.3346 4.31471C21.4414 4.26886 21.5379 4.2022 21.6186 4.11862L22.8112 2.92687C22.9338 3.25937 23.2488 3.5 23.625 3.5C23.8571 3.5 24.0796 3.40781 24.2437 3.24372C24.4078 3.07962 24.5 2.85706 24.5 2.625V0.875C24.5 0.642936 24.4078 0.420376 24.2437 0.256282C24.0796 0.0921872 23.8571 0 23.625 0Z" fill="white"></path>
</svg>
