<svg width="57" height="53" viewBox="0 0 57 53" fill="none" xmlns="http://www.w3.org/2000/svg">
<path d="M53.4583 0.125L31.4584 16.3437L35.4584 6.81312L53.4583 0.125Z" fill="#E17726" stroke="#E17726" stroke-width="0.25" stroke-linecap="round" stroke-linejoin="round"/>
<path d="M2.95837 0.125L24.625 16.5109L20.7917 6.81312L2.95837 0.125Z" fill="#E27625" stroke="#E27625" stroke-width="0.25" stroke-linecap="round" stroke-linejoin="round"/>
<path d="M45.6251 37.9131L39.7917 46.7748L52.2917 50.2861L55.7917 38.0803L45.6251 37.9131Z" fill="#E27625" stroke="#E27625" stroke-width="0.25" stroke-linecap="round" stroke-linejoin="round"/>
<path d="M0.625122 38.0803L4.12512 50.2861L16.6251 46.7748L10.7918 37.9131L0.625122 38.0803Z" fill="#E27625" stroke="#E27625" stroke-width="0.25" stroke-linecap="round" stroke-linejoin="round"/>
<path d="M15.9584 22.6972L12.4584 27.8805L24.7917 28.3821L24.4584 15.0059L15.9584 22.6972Z" fill="#E27625" stroke="#E27625" stroke-width="0.25" stroke-linecap="round" stroke-linejoin="round"/>
<path d="M40.4584 22.6972L31.7917 15.0059L31.4584 28.5493L43.7917 28.0477L40.4584 22.6972Z" fill="#E27625" stroke="#E27625" stroke-width="0.25" stroke-linecap="round" stroke-linejoin="round"/>
<path d="M16.625 46.7742L24.125 43.0957L17.625 38.0796L16.625 46.7742Z" fill="#E27625" stroke="#E27625" stroke-width="0.25" stroke-linecap="round" stroke-linejoin="round"/>
<path d="M32.2917 43.0957L39.7917 46.7742L38.7917 38.0796L32.2917 43.0957Z" fill="#E27625" stroke="#E27625" stroke-width="0.25" stroke-linecap="round" stroke-linejoin="round"/>
<path d="M39.7917 46.7742L32.2917 43.0957L32.9584 47.9446V49.951L39.7917 46.7742Z" fill="#D5BFB2" stroke="#D5BFB2" stroke-width="0.25" stroke-linecap="round" stroke-linejoin="round"/>
<path d="M16.625 46.7744L23.625 50.1185V48.1121L24.2917 43.2632L16.625 46.7744Z" fill="#D5BFB2" stroke="#D5BFB2" stroke-width="0.25" stroke-linecap="round" stroke-linejoin="round"/>
<path d="M23.625 34.9033L17.4584 33.0641L21.7917 31.0576L23.625 34.9033Z" fill="#233447" stroke="#233447" stroke-width="0.25" stroke-linecap="round" stroke-linejoin="round"/>
<path d="M32.625 34.9033L34.4583 31.0576L38.7917 33.0641L32.625 34.9033Z" fill="#233447" stroke="#233447" stroke-width="0.25" stroke-linecap="round" stroke-linejoin="round"/>
<path d="M16.6251 46.7748L17.6251 37.9131L10.7917 38.0803L16.6251 46.7748Z" fill="#CC6228" stroke="#CC6228" stroke-width="0.25" stroke-linecap="round" stroke-linejoin="round"/>
<path d="M38.625 37.9131L39.625 46.7748L45.4583 38.0803L38.625 37.9131Z" fill="#CC6228" stroke="#CC6228" stroke-width="0.25" stroke-linecap="round" stroke-linejoin="round"/>
<path d="M43.9583 28.0474L31.625 28.549L32.7917 34.9027L34.625 31.057L38.9583 33.0635L43.9583 28.0474Z" fill="#CC6228" stroke="#CC6228" stroke-width="0.25" stroke-linecap="round" stroke-linejoin="round"/>
<path d="M17.4584 33.0635L21.7917 31.057L23.625 34.9027L24.7917 28.549L12.4584 28.0474L17.4584 33.0635Z" fill="#CC6228" stroke="#CC6228" stroke-width="0.25" stroke-linecap="round" stroke-linejoin="round"/>
<path d="M12.4584 28.0474L17.625 38.2468L17.4584 33.2307L12.4584 28.0474Z" fill="#E27525" stroke="#E27525" stroke-width="0.25" stroke-linecap="round" stroke-linejoin="round"/>
<path d="M38.9583 33.0642L38.7916 38.0802L43.9583 27.8809L38.9583 33.0642Z" fill="#E27525" stroke="#E27525" stroke-width="0.25" stroke-linecap="round" stroke-linejoin="round"/>
<path d="M24.7917 28.5493L23.625 34.903L25.125 42.4272L25.4583 32.5622L24.7917 28.5493Z" fill="#E27525" stroke="#E27525" stroke-width="0.25" stroke-linecap="round" stroke-linejoin="round"/>
<path d="M31.4583 28.5493L30.7916 32.5622L31.125 42.4272L32.625 34.903L31.4583 28.5493Z" fill="#E27525" stroke="#E27525" stroke-width="0.25" stroke-linecap="round" stroke-linejoin="round"/>
<path d="M32.625 34.9027L31.125 42.4269L32.125 43.0957L38.625 38.0796L38.7917 33.0635L32.625 34.9027Z" fill="#F5841F" stroke="#F5841F" stroke-width="0.25" stroke-linecap="round" stroke-linejoin="round"/>
<path d="M17.4584 33.0635L17.625 38.0796L24.125 43.0957L25.125 42.4269L23.625 34.9027L17.4584 33.0635Z" fill="#F5841F" stroke="#F5841F" stroke-width="0.25" stroke-linecap="round" stroke-linejoin="round"/>
<path d="M32.7916 50.1185V48.112L32.2916 47.6104H23.9583L23.4583 48.112V50.1185L16.625 46.7744L19.125 48.7809L23.9583 52.1249H32.4583L37.4583 48.7809L39.7916 46.7744L32.7916 50.1185Z" fill="#C0AC9D" stroke="#C0AC9D" stroke-width="0.25" stroke-linecap="round" stroke-linejoin="round"/>
<path d="M32.2916 43.0961L31.2916 42.4272H25.1249L24.1249 43.0961L23.4583 47.945L23.9582 47.4433H32.2916L32.7916 47.945L32.2916 43.0961Z" fill="#161616" stroke="#161616" stroke-width="0.25" stroke-linecap="round" stroke-linejoin="round"/>
<path d="M54.2917 17.5141L56.125 8.48515L53.2917 0.125L32.2917 15.8421L40.4584 22.6974L51.9584 26.0415L54.4584 23.0318L53.2917 22.363L55.125 20.691L53.7917 19.6878L55.625 18.3501L54.2917 17.5141Z" fill="#763E1A" stroke="#763E1A" stroke-width="0.25" stroke-linecap="round" stroke-linejoin="round"/>
<path d="M0.125 8.48515L1.95833 17.5141L0.791666 18.3501L2.625 19.6878L1.29166 20.691L3.125 22.363L1.95833 23.199L4.45833 26.2087L15.9583 22.8646L24.125 16.0093L2.95833 0.125L0.125 8.48515Z" fill="#763E1A" stroke="#763E1A" stroke-width="0.25" stroke-linecap="round" stroke-linejoin="round"/>
<path d="M51.9583 26.0413L40.4583 22.6973L43.9583 27.8806L38.7916 38.0799L45.6249 37.9127H55.7916L51.9583 26.0413Z" fill="#F5841F" stroke="#F5841F" stroke-width="0.25" stroke-linecap="round" stroke-linejoin="round"/>
<path d="M15.9584 22.6973L4.45845 26.0413L0.625122 37.9127H10.7918L17.6251 38.0799L12.4584 27.8806L15.9584 22.6973Z" fill="#F5841F" stroke="#F5841F" stroke-width="0.25" stroke-linecap="round" stroke-linejoin="round"/>
<path d="M31.4583 28.5494L32.125 15.842L35.4583 6.81299H20.625L23.9583 15.842L24.625 28.5494L24.9583 32.5623V42.4272H31.125V32.5623L31.4583 28.5494Z" fill="#F5841F" stroke="#F5841F" stroke-width="0.25" stroke-linecap="round" stroke-linejoin="round"/>
</svg>
