<svg width="56" height="56" viewBox="0 0 56 56" fill="none" xmlns="http://www.w3.org/2000/svg">
<g clip-path="url(#clip0_4014_1417)">
<path d="M56 27.3952C55.664 12.1856 43.232 0 28 0C12.544 0 0 12.544 0 28C0 39.1552 6.6304 49.2576 16.8672 53.6928C18.2336 51.6544 19.264 49.392 19.9584 47.04C20.5184 45.6064 21.1232 44.2176 21.7728 42.8512C22.5792 43.0976 23.4304 43.232 24.304 43.232C26.656 43.232 28.896 42.2912 30.5312 40.6336L30.6208 40.544C29.6576 40.1856 28.6272 40.0064 27.5968 40.0064C25.6928 40.0064 23.8336 40.6336 22.3104 41.7984C23.0944 40.1856 23.9232 38.6176 24.7968 37.0944C25.7376 37.4304 26.7232 37.5872 27.7088 37.5872C29.904 37.5872 32.0096 36.7584 33.6224 35.28L33.712 35.1904C32.6368 34.7424 31.472 34.496 30.3072 34.496C28.5824 34.496 26.9024 35.0112 25.4688 35.952C26.3424 34.5184 27.216 33.1296 28.1568 31.808C28.8736 32.0096 29.6352 32.0992 30.3744 32.0992C32.8384 32.0992 35.1904 31.0688 36.848 29.232L36.9152 29.1424C36.064 28.8512 35.1456 28.7168 34.2496 28.7168C32.4576 28.7168 30.7104 29.2768 29.2544 30.3072C29.3216 30.2176 29.4112 30.1056 29.4784 29.9936C30.0384 29.2768 30.6208 28.5376 31.2032 27.8432C34.832 26.656 37.52 23.5648 38.1696 19.7792L38.192 19.6448H38.1696C34.384 20.6304 31.4944 23.6768 30.7104 27.5072C30.1504 28.1792 29.5904 28.8736 29.0528 29.568C29.4336 28.5824 29.6128 27.552 29.6128 26.4992C29.6128 24.9984 29.232 23.5424 28.4928 22.2432L28.4256 22.3328C27.328 23.8336 26.7232 25.648 26.7232 27.5072C26.7232 28.8736 27.0368 30.24 27.664 31.472C26.768 32.7264 25.9168 34.0256 25.088 35.392C25.2 34.8544 25.2448 34.2944 25.2448 33.7568C25.2448 31.5168 24.3712 29.3664 22.8256 27.7536L22.7808 27.8656C22.3552 28.896 22.1536 30.016 22.1536 31.1136C22.1536 33.2192 22.9152 35.2352 24.2816 36.8256C23.4528 38.2592 22.6912 39.7376 21.9296 41.2608C21.9968 40.7904 22.0416 40.2976 22.0416 39.8272C22.0416 37.408 21.0784 35.0784 19.3536 33.3984L19.3088 33.5104C18.9952 34.4512 18.816 35.4592 18.816 36.4448C18.816 38.752 19.6896 40.9696 21.28 42.6496C20.7872 43.7024 20.3168 44.7552 19.8688 45.8528C19.7568 45.7408 19.6 45.6512 19.4432 45.6064C18.6368 45.3824 17.8752 45.024 17.1808 44.5984C16.5984 44.24 15.9712 43.9712 15.3216 43.7472C12.7904 42.9184 13.1712 41.7088 11.8496 39.2448C11.424 38.752 10.976 38.2592 10.5056 37.7888C10.0576 37.4976 9.6992 37.1168 9.4528 36.6464C9.1616 36.064 8.9824 35.4368 8.9152 34.7872C8.8928 34.048 8.4224 33.4208 7.728 33.1968C4.0096 31.92 5.6672 27.0816 5.8016 26.4544C5.7344 25.648 5.5552 24.8416 5.264 24.0576C5.2416 23.968 5.2192 23.856 5.1968 23.744C5.152 23.5424 5.1296 23.3184 5.1296 23.0944C5.1296 22.288 5.4208 21.504 5.9584 20.8992C6.4064 20.4512 7.952 19.7344 8.288 19.3088C8.624 18.8832 8.848 18.4128 9.184 18.032C10.2144 17.0016 11.424 16.128 12.7456 15.4784C13.8208 14.896 14 13.3952 14.4256 12.9248C15.12 12.1184 16.1952 12.1184 17.0016 11.424C17.4048 11.0656 17.9872 10.8864 18.368 10.5056C20.2272 8.8032 22.6016 7.7056 25.1104 7.392C25.5136 7.3696 25.9392 7.3472 26.3648 7.3472C27.7088 7.3472 29.0304 7.5264 30.3072 7.8624C30.5536 7.9072 30.8 7.952 31.024 8.0192C34.8768 8.1536 39.5136 8.96 41.216 10.5952C42.0448 11.4016 42.672 12.3872 43.008 13.5072C43.2768 14.3584 43.6576 15.1872 44.128 15.9488L45.1584 17.6288C45.6288 18.368 45.8752 19.2416 45.8752 20.1152C45.8752 20.4736 45.8304 20.832 45.7632 21.1904C45.6512 21.504 45.6064 21.84 45.6064 22.176C45.6064 22.4672 45.6512 22.736 45.7184 23.0048C46.256 23.8336 46.9056 24.5728 47.6224 25.2448C47.9136 25.536 48.2272 25.7824 48.5632 25.984C49.3472 26.4544 50.1312 26.9696 50.848 27.5296C50.848 27.5744 50.848 27.6192 50.848 27.664C50.848 28.0896 50.6464 28.4704 50.3104 28.6944C49.6608 29.2768 48.384 30.1952 48.384 30.1952C48.4288 30.464 48.5184 30.7104 48.608 30.9344C48.7872 31.2704 49.2128 31.7856 49.0784 32.2112C48.944 32.6592 48.0256 33.04 48.272 33.5328C48.5184 34.048 49.1904 34.1824 48.9888 34.6528C48.8096 35.1008 47.8912 35.8848 47.9808 36.2208C48.0704 36.5568 48.832 39.6928 47.0848 40.2304C44.9344 40.656 42.7616 40.9024 40.5664 40.9472C39.8496 40.992 39.2 41.3952 38.864 42.0224C38.528 42.6496 38.3264 43.3216 38.2368 44.016C37.6096 46.5024 36.7584 48.944 35.728 51.296C34.6976 53.648 35.6608 51.4304 35.5712 51.6544C35.3472 52.1248 35.1904 52.6176 35.1456 53.1328C35.3024 53.5136 35.5264 53.8496 35.7952 54.1408C36.0192 54.3872 36.3328 54.544 36.6912 54.544C36.8032 54.544 36.9376 54.5216 37.0496 54.4992C48.384 50.5568 55.9776 39.8496 55.9776 27.8432C55.9776 27.6864 55.9776 27.5072 55.9776 27.3504L56 27.3952Z" fill="#00DACC"/>
</g>
<defs>
<clipPath id="clip0_4014_1417">
<rect width="56" height="56" fill="white"/>
</clipPath>
</defs>
</svg>
