<?xml version="1.0" encoding="UTF-8"?>
<svg xmlns="http://www.w3.org/2000/svg" width="32" height="32" viewBox="0 0 32 32" fill="none">
  <path d="M23 28C21.9 28 20.9 27.3 20.5 26.2C20.5 26.1 20.5 26 20.4 26H11.5C11.5 26.1 11.5 26.2 11.4 26.2C11.1 27.3 10.1 28 9 28C8.4 28 8 28.4 8 29C8 29.6 8.4 30 9 30H23C23.6 30 24 29.6 24 29C24 28.4 23.6 28 23 28ZM27 3H5C3.3 3 2 4.3 2 6V21C2 22.7 3.3 24 5 24H27C28.7 24 30 22.7 30 21V6C30 4.3 28.7 3 27 3ZM25 15H20C19.7 15 19.4 14.8 19.2 14.6L18.3 13.2L17 16.4C16.8 16.7 16.4 17 16 17C15.6 17 15.3 16.8 15.1 16.4L13.7 13.6L12.7 14.6C12.5 14.9 12.3 15 12 15H7C6.4 15 6 14.6 6 14C6 13.4 6.4 13 7 13H11.6L13.3 11.3C13.5 11.1 13.9 11 14.2 11C14.5 11.1 14.8 11.3 14.9 11.5L15.9 13.5L17.1 10.6C17.2 10.3 17.6 10 17.9 10C18.3 10 18.6 10.1 18.8 10.4L20.5 13H25C25.6 13 26 13.4 26 14C26 14.6 25.6 15 25 15Z" fill="white"></path>
</svg>
