<?xml version="1.0" encoding="UTF-8"?>
<svg xmlns="http://www.w3.org/2000/svg" width="32" height="32" viewBox="0 0 32 32" fill="none">
  <path d="M10.2891 22.6274V24.5955L7.56054 26.1113C7.18484 25.8075 6.7072 25.625 6.1875 25.625C4.98131 25.625 4 26.6063 4 27.8125C4 29.0187 4.98131 30 6.1875 30C7.39369 30 8.375 29.0187 8.375 27.8125C8.375 27.7219 8.36882 27.6327 8.35805 27.545L11.5077 25.7952C11.6356 25.7242 11.7422 25.6202 11.8164 25.4941C11.8906 25.368 11.9297 25.2244 11.9297 25.0781V22.043L11.5393 22.2772C11.1615 22.5038 10.7297 22.6247 10.2891 22.6274ZM16.8516 25.7852V24.4219H15.2109V25.7852C14.4101 26.1104 13.8438 26.8963 13.8438 27.8125C13.8438 29.0187 14.8251 30 16.0312 30C17.2374 30 18.2188 29.0187 18.2188 27.8125C18.2188 26.8963 17.6524 26.1104 16.8516 25.7852ZM25.875 25.625C25.3553 25.625 24.8777 25.8075 24.502 26.1113L21.7734 24.5955V22.6274C21.3329 22.6247 20.9011 22.5038 20.5232 22.2772L20.1328 22.043V25.0781C20.1328 25.2244 20.1719 25.368 20.2461 25.4941C20.3203 25.6202 20.4269 25.7242 20.5548 25.7952L23.7045 27.545C23.6933 27.6338 23.6877 27.7231 23.6875 27.8125C23.6875 29.0187 24.6688 30 25.875 30C27.0812 30 28.0625 29.0187 28.0625 27.8125C28.0625 26.6063 27.0812 25.625 25.875 25.625ZM22.3694 20.747L24.3877 18.7287C24.517 18.5994 24.5994 18.4305 24.6218 18.2489C24.6441 18.0674 24.6052 17.8835 24.511 17.7266L23.7614 16.4772C24.0163 15.9946 24.2252 15.4891 24.3854 14.9673L25.8005 14.6136C25.978 14.5692 26.1355 14.4668 26.2481 14.3226C26.3607 14.1784 26.4219 14.0007 26.4219 13.8177V10.9635C26.4219 10.7806 26.3607 10.6029 26.2481 10.4587C26.1355 10.3145 25.978 10.2121 25.8005 10.1677L24.3854 9.81391C24.2252 9.29216 24.0163 8.78662 23.7614 8.30399L24.511 7.05455C24.6052 6.89767 24.6441 6.71384 24.6218 6.53227C24.5994 6.3507 24.517 6.18181 24.3877 6.05245L22.3695 4.03421C22.2401 3.90485 22.0712 3.82244 21.8897 3.80009C21.7081 3.77773 21.5243 3.81672 21.3674 3.91084L20.1179 4.66049C19.6353 4.40558 19.1298 4.19665 18.608 4.03645L18.2542 2.62136C18.2099 2.44388 18.1074 2.28632 17.9632 2.17374C17.819 2.06115 17.6413 2 17.4584 2H14.6041C14.4212 1.99999 14.2435 2.06114 14.0993 2.17373C13.9551 2.28632 13.8527 2.44388 13.8083 2.62136L13.4545 4.03645C12.9328 4.19666 12.4273 4.40559 11.9447 4.66049L10.6952 3.91084C10.5383 3.81672 10.3545 3.77774 10.1729 3.80009C9.99136 3.82245 9.82248 3.90485 9.69313 4.03421L7.67489 6.05245C7.54553 6.18181 7.46312 6.3507 7.44077 6.53227C7.41841 6.71384 7.45739 6.89767 7.55152 7.05455L8.30117 8.30399C8.04626 8.78661 7.83733 9.29215 7.67713 9.81391L6.26204 10.1677C6.08455 10.212 5.92697 10.3145 5.81438 10.4587C5.70178 10.6028 5.64062 10.7806 5.64062 10.9635V13.8177C5.64062 14.0007 5.70177 14.1784 5.81435 14.3226C5.92694 14.4668 6.0845 14.5692 6.26198 14.6136L7.67708 14.9673C7.83729 15.4891 8.0462 15.9946 8.30106 16.4772L7.55146 17.7266C7.45734 17.8835 7.41836 18.0674 7.44071 18.2489C7.46307 18.4305 7.54548 18.5994 7.67484 18.7287L9.69308 20.747C9.82244 20.8764 9.99132 20.9588 10.1729 20.9812C10.3545 21.0035 10.5383 20.9645 10.6952 20.8704L11.9446 20.1208C12.4272 20.3757 12.9327 20.5846 13.4545 20.7449L13.8083 22.1599C13.8526 22.3374 13.955 22.495 14.0992 22.6076C14.2434 22.7201 14.4211 22.7813 14.6041 22.7813H17.4583C17.6413 22.7813 17.819 22.7202 17.9632 22.6076C18.1074 22.495 18.2098 22.3374 18.2541 22.1599L18.6079 20.7449C19.1297 20.5846 19.6352 20.3757 20.1178 20.1208L21.3672 20.8704C21.5241 20.9645 21.708 21.0035 21.8895 20.9812C22.0711 20.9588 22.24 20.8764 22.3694 20.747ZM16.0312 16.2188C13.917 16.2188 12.2031 14.5048 12.2031 12.3906C12.2031 10.2764 13.917 8.5625 16.0312 8.5625C18.1455 8.5625 19.8594 10.2764 19.8594 12.3906C19.8594 14.5048 18.1455 16.2188 16.0312 16.2188Z" fill="white"></path>
</svg>
