<svg width="56" height="56" viewBox="0 0 56 56" fill="none" xmlns="http://www.w3.org/2000/svg">
<g clip-path="url(#clip0_4009_919)">
<path d="M28 56C43.464 56 56 43.464 56 28C56 12.536 43.464 0 28 0C12.536 0 0 12.536 0 28C0 43.464 12.536 56 28 56Z" fill="#F9F7F4"/>
<mask id="mask0_4009_919" style="mask-type:luminance" maskUnits="userSpaceOnUse" x="0" y="13" width="56" height="30">
<path d="M56 13.6362H0V42.3635H56V13.6362Z" fill="white"/>
</mask>
<g mask="url(#mask0_4009_919)">
<path d="M26.3154 25.7955H26.4382C27.1336 25.7955 27.1262 25.7955 26.9494 26.4379C26.9047 26.6004 26.8396 26.6649 26.6616 26.6584C26.3038 26.646 25.9449 26.6684 25.5884 26.6484C25.3478 26.6348 25.2544 26.7146 25.2084 26.9439C24.888 28.526 24.5531 30.1064 24.2229 31.6869C24.2007 31.7933 24.1787 31.8991 24.1547 32.0048C23.8571 33.3269 22.7776 33.944 21.2956 33.6869C21.1471 33.6615 21.0716 33.6035 21.1556 33.4506C21.1794 33.3962 21.1982 33.34 21.2114 33.2826C21.2613 33.1224 21.268 32.928 21.3724 32.8099C21.4765 32.6917 21.6945 32.7951 21.8633 32.7802C22.4867 32.7211 22.9231 32.3228 23.0716 31.6224C23.3833 30.1586 23.6889 28.6933 23.9884 27.2264C24.1056 26.656 24.1007 26.6555 23.5018 26.6555H23.3176C22.6947 26.6555 22.704 26.6555 22.7653 26.0615C22.788 25.8528 22.8574 25.7719 23.0851 25.789C23.3693 25.8102 23.6589 25.776 23.9442 25.8008C24.2136 25.8239 24.3198 25.7288 24.3634 25.4769C24.4389 25.0413 24.5389 24.6088 24.6474 24.1766C24.9722 22.8971 26.0847 22.351 27.4342 22.6004C27.5778 22.627 27.6331 22.6784 27.5871 22.816C27.5649 22.8811 27.5496 22.9491 27.5313 23.0153C27.4902 23.1679 27.4894 23.3515 27.3956 23.4628C27.2925 23.5844 27.0973 23.4715 26.9414 23.4869C26.3278 23.5495 25.9431 23.8764 25.7711 24.425C25.6533 24.8002 25.5969 25.1933 25.5018 25.5749C25.4569 25.7559 25.5294 25.8013 25.7018 25.7942C25.9062 25.7889 26.1111 25.7955 26.3154 25.7955Z" fill="#0193E1"/>
<path d="M13.3249 27.3515C14.0565 26.5127 15.4409 26.5182 16.0344 27.478C16.3111 27.0826 16.6799 26.8278 17.1678 26.7557C18.2455 26.5962 19.0495 27.1895 19.1035 28.2551C19.1518 29.2007 19.1156 30.1466 19.1224 31.0922C19.1224 31.2257 19.0709 31.2695 18.9433 31.2529C18.9327 31.2529 18.9229 31.2529 18.9125 31.2529C18.6395 31.2387 18.2896 31.3611 18.1147 31.2057C17.9515 31.0607 18.0699 30.7215 18.0675 30.4686C18.0607 29.868 18.0675 29.2677 18.0675 28.6671C18.0675 28.0087 17.7784 27.6849 17.2034 27.6818C16.6284 27.6789 16.2522 28.066 16.2449 28.6802C16.2381 29.458 16.2356 30.2357 16.2491 31.0135C16.2528 31.2138 16.1878 31.2677 15.9926 31.254C15.7294 31.2357 15.3851 31.3304 15.2225 31.2026C15.0598 31.0749 15.1727 30.7246 15.1697 30.4727C15.1623 29.8522 15.1697 29.2317 15.1666 28.6122C15.1629 28.0051 14.8684 27.6855 14.3154 27.6784C13.7533 27.6706 13.3697 28.0329 13.3605 28.6098C13.3477 29.3971 13.3489 30.1849 13.3605 30.9738C13.3605 31.1789 13.3341 31.2837 13.0856 31.2577C12.8236 31.2298 12.4597 31.3338 12.321 31.2026C12.1823 31.0715 12.2719 30.7227 12.2713 30.4686C12.2713 29.3562 12.2774 28.244 12.2645 27.1317C12.2645 26.9082 12.3259 26.826 12.5529 26.8609C12.6446 26.8678 12.7368 26.8678 12.8285 26.8609C13.3004 26.8615 13.3004 26.8615 13.3249 27.3515Z" fill="black"/>
<path d="M38.5191 28.1912C38.238 28.6992 37.9556 29.2092 37.6716 29.7214C37.4262 30.1641 37.1807 30.6045 36.9451 31.0525C36.8702 31.1966 36.7813 31.2581 36.6149 31.2463C36.4416 31.2283 36.2671 31.2283 36.0938 31.2463C35.8078 31.2841 35.6956 31.2043 35.6643 30.9046C35.5311 29.6423 35.3722 28.3826 35.2065 27.1221C35.1771 26.8986 35.2402 26.8448 35.452 26.8679C35.7429 26.8992 36.1269 26.7437 36.3018 26.9312C36.456 27.0954 36.3945 27.453 36.4173 27.7266C36.4731 28.3999 36.5229 29.0735 36.5743 29.7455C36.6971 29.7686 36.7025 29.6746 36.7309 29.6274C37.2107 28.7823 37.6918 27.937 38.1602 27.0859C38.2485 26.9246 38.3473 26.8466 38.5382 26.8737C38.6402 26.8821 38.7427 26.8839 38.8449 26.8792C39.4156 26.885 39.4114 26.8856 39.4882 27.4401C39.5925 28.1901 39.7047 28.9401 39.8145 29.6895C39.8229 29.7152 39.8351 29.7394 39.8509 29.7615C39.9698 29.729 39.9736 29.6286 40.0098 29.5546C40.4196 28.7274 40.8314 27.907 41.2322 27.0783C41.3083 26.9217 41.4003 26.8585 41.5825 26.8708C41.8367 26.8874 42.0933 26.875 42.3405 26.875C42.408 26.9932 42.3196 27.0583 42.2829 27.1297C41.6158 28.4354 40.942 29.7374 40.2798 31.0454C40.1987 31.2055 40.0956 31.2563 39.9256 31.2463C39.652 31.2303 39.2887 31.3285 39.1278 31.1943C38.9671 31.0601 39.0051 30.7014 38.9585 30.4401C38.8322 29.6943 38.7094 28.9472 38.5847 28.2006L38.5191 28.1912Z" fill="#0193E1"/>
<path d="M27.3742 31.212C26.8373 31.212 26.8342 31.212 26.9447 30.7244C27.3858 28.774 27.8333 26.8278 28.2647 24.8733C28.3095 24.6729 28.3875 24.6073 28.5862 24.6309C28.8446 24.6611 29.2 24.5193 29.3349 24.6984C29.4356 24.8337 29.2687 25.1569 29.2153 25.3951C28.8193 27.1631 28.4224 28.9307 28.0247 30.6978C27.9118 31.2115 27.9118 31.212 27.3742 31.212Z" fill="#0193E1"/>
<path d="M20.4349 28.016C20.4349 27.0018 20.4385 25.9877 20.4305 24.9735C20.4305 24.7907 20.4618 24.6998 20.676 24.7222C20.9473 24.7511 21.3064 24.6158 21.4738 24.7724C21.6415 24.9291 21.5224 25.276 21.5229 25.5407C21.5273 27.3422 21.5229 29.146 21.5309 30.9458C21.5309 31.1762 21.4978 31.2927 21.224 31.2566C20.9736 31.2235 20.6442 31.356 20.4876 31.2082C20.3311 31.0604 20.4416 30.7418 20.4391 30.4989C20.4305 29.6697 20.4349 28.8429 20.4349 28.016Z" fill="black"/>
<path d="M32.008 28.0383C32.0122 27.4828 31.9269 27.4337 31.3985 27.6596C31.2131 27.7376 31.0464 27.8512 30.9082 27.9937C30.7702 28.1363 30.6638 28.3045 30.5958 28.4879C30.5278 28.6716 30.4996 28.8665 30.5127 29.061C30.526 29.2556 30.5804 29.4452 30.6725 29.6187C30.788 29.8397 30.7449 29.9272 30.5498 30.0537C30.0969 30.3492 30.1044 30.3587 29.8809 29.8694C29.4624 28.9537 29.7189 27.9285 30.5345 27.2528C31.2745 26.6394 32.3756 26.5885 33.2704 27.1459L32.008 28.0383Z" fill="#43C8EC"/>
<path d="M31.9978 29.8983C32.0073 29.9229 32.0149 29.9482 32.0206 29.974C32.0255 30.4627 32.0648 30.4869 32.5478 30.302C32.748 30.2265 32.9286 30.1096 33.0766 29.9594C33.2246 29.8093 33.3366 29.6296 33.4042 29.4331C33.472 29.2365 33.4938 29.028 33.4684 28.8223C33.4431 28.6169 33.3709 28.4191 33.2571 28.2434C33.1522 28.0833 33.1295 28.0029 33.3106 27.8787C33.8426 27.5134 33.8482 27.5082 34.1084 28.0962C34.3049 28.5434 34.3455 29.04 34.2237 29.5113C34.102 29.9825 33.8246 30.4029 33.4333 30.7093C32.6295 31.3238 31.5002 31.3776 30.7018 30.8173L31.9978 29.8983Z" fill="#0193E1"/>
<path d="M44.0449 27.38C43.902 27.1973 43.9222 27.4982 43.8338 27.4864C43.7682 27.452 43.7922 27.3386 43.6953 27.3238C43.6105 27.3776 43.6914 27.4793 43.6013 27.5602V26.9887L43.6454 26.9751C43.7069 27.098 43.7645 27.2215 43.8376 27.3716C43.9131 27.238 43.9733 27.1306 44.0333 27.0235L44.0449 27.0135V27.38Z" fill="#0193E1"/>
<path d="M43.4209 26.9902C43.0914 27.1048 43.3185 27.3761 43.2154 27.5599C43.0729 27.3997 43.3222 27.1019 42.9551 26.9902H43.4209Z" fill="#0193E1"/>
</g>
</g>
<defs>
<clipPath id="clip0_4009_919">
<rect width="56" height="56" fill="white"/>
</clipPath>
</defs>
</svg>
