<?xml version="1.0" encoding="UTF-8"?>
<svg xmlns="http://www.w3.org/2000/svg" width="20" height="20" viewBox="0 0 20 20" fill="none">
  <path d="M6.24871 8.33336H8.74871C8.80344 8.3334 8.85764 8.32264 8.90821 8.30172C8.95878 8.28079 9.00473 8.2501 9.04343 8.2114C9.08213 8.1727 9.11282 8.12675 9.13375 8.07618C9.15467 8.02561 9.16543 7.97141 9.16539 7.91668V5.41668C9.16543 5.36195 9.15467 5.30775 9.13375 5.25718C9.11282 5.20661 9.08213 5.16066 9.04343 5.12196C9.00473 5.08326 8.95878 5.05257 8.90821 5.03164C8.85764 5.01072 8.80344 4.99996 8.74871 5H6.24871C6.19398 4.99996 6.13978 5.01072 6.08921 5.03164C6.03864 5.05257 5.99269 5.08326 5.95399 5.12196C5.91529 5.16066 5.8846 5.20661 5.86368 5.25718C5.84275 5.30775 5.832 5.36195 5.83203 5.41668V7.91668C5.832 7.97141 5.84275 8.02561 5.86368 8.07618C5.8846 8.12675 5.91529 8.1727 5.95399 8.2114C5.99269 8.2501 6.03864 8.28079 6.08921 8.30172C6.13978 8.32264 6.19398 8.3334 6.24871 8.33336ZM10.832 7.91672C10.832 7.97145 10.8427 8.02565 10.8637 8.07622C10.8846 8.12679 10.9153 8.17274 10.954 8.21144C10.9927 8.25014 11.0386 8.28083 11.0892 8.30175C11.1398 8.32268 11.194 8.33343 11.2487 8.3334H13.7487C13.8034 8.33343 13.8576 8.32268 13.9082 8.30175C13.9588 8.28083 14.0047 8.25014 14.0434 8.21144C14.0821 8.17274 14.1128 8.12679 14.1337 8.07622C14.1547 8.02565 14.1654 7.97145 14.1654 7.91672V5.41672C14.1654 5.36199 14.1547 5.30779 14.1337 5.25722C14.1128 5.20665 14.0821 5.1607 14.0434 5.122C14.0047 5.0833 13.9588 5.05261 13.9082 5.03168C13.8576 5.01076 13.8034 5 13.7487 5.00004H11.2487C11.194 5 11.1398 5.01076 11.0892 5.03168C11.0386 5.05261 10.9927 5.0833 10.954 5.122C10.9153 5.1607 10.8846 5.20665 10.8637 5.25722C10.8427 5.30779 10.832 5.36199 10.832 5.41672V7.91672ZM6.24871 13.3334H8.74871C8.80344 13.3334 8.85764 13.3226 8.90821 13.3017C8.95878 13.2808 9.00473 13.2501 9.04343 13.2114C9.08213 13.1727 9.11282 13.1267 9.13375 13.0762C9.15467 13.0256 9.16543 12.9714 9.16539 12.9167V10.4167C9.16543 10.3619 9.15467 10.3078 9.13375 10.2572C9.11282 10.2066 9.08213 10.1607 9.04343 10.122C9.00473 10.0833 8.95878 10.0526 8.90821 10.0316C8.85764 10.0107 8.80344 9.99996 8.74871 10H6.24871C6.19398 9.99996 6.13978 10.0107 6.08921 10.0316C6.03864 10.0526 5.99269 10.0833 5.95399 10.122C5.91529 10.1607 5.8846 10.2066 5.86368 10.2572C5.84275 10.3078 5.832 10.3619 5.83203 10.4167V12.9167C5.832 12.9714 5.84275 13.0256 5.86368 13.0762C5.8846 13.1267 5.91529 13.1727 5.95399 13.2114C5.99269 13.2501 6.03864 13.2808 6.08921 13.3017C6.13978 13.3226 6.19398 13.3334 6.24871 13.3334ZM13.7487 10H11.2487C11.194 10 11.1398 10.0108 11.0892 10.0317C11.0386 10.0526 10.9927 10.0833 10.954 10.122C10.9153 10.1607 10.8846 10.2067 10.8637 10.2572C10.8427 10.3078 10.832 10.362 10.832 10.4167V12.9167C10.832 12.9714 10.8427 13.0256 10.8637 13.0762C10.8846 13.1268 10.9153 13.1727 10.954 13.2114C10.9927 13.2501 11.0386 13.2808 11.0892 13.3018C11.1398 13.3227 11.194 13.3334 11.2487 13.3334H13.7487C13.8034 13.3334 13.8576 13.3227 13.9082 13.3018C13.9588 13.2808 14.0047 13.2501 14.0434 13.2114C14.0821 13.1727 14.1128 13.1268 14.1337 13.0762C14.1547 13.0256 14.1654 12.9714 14.1654 12.9167V10.4167C14.1654 10.362 14.1547 10.3078 14.1337 10.2572C14.1128 10.2067 14.0821 10.1607 14.0434 10.122C14.0047 10.0833 13.9588 10.0526 13.9082 10.0317C13.8576 10.0108 13.8034 10 13.7487 10ZM9.58203 3.33336H10.4154C10.4701 3.3334 10.5243 3.32264 10.5749 3.30171C10.6254 3.28079 10.6714 3.2501 10.7101 3.2114C10.7488 3.1727 10.7795 3.12675 10.8004 3.07618C10.8213 3.02561 10.8321 2.97141 10.832 2.91668C10.8321 2.86195 10.8213 2.80775 10.8004 2.75718C10.7795 2.70661 10.7488 2.66066 10.7101 2.62196C10.6714 2.58326 10.6254 2.55257 10.5749 2.53164C10.5243 2.51072 10.4701 2.49996 10.4154 2.5H9.58203C9.5273 2.49996 9.4731 2.51072 9.42253 2.53164C9.37196 2.55257 9.32601 2.58326 9.28731 2.62196C9.24861 2.66066 9.21792 2.70661 9.197 2.75718C9.17607 2.80775 9.16532 2.86195 9.16535 2.91668C9.16533 2.97141 9.17609 3.0256 9.19702 3.07617C9.21795 3.12673 9.24864 3.17268 9.28734 3.21137C9.32604 3.25007 9.37198 3.28076 9.42254 3.30169C9.47311 3.32262 9.5273 3.33339 9.58203 3.33336Z" fill="#6A7282"></path>
  <path d="M14.9987 0H4.99871C4.07953 0 3.33203 0.747461 3.33203 1.66668V18.3334C3.33203 19.2525 4.07953 20 4.99871 20H14.9987C15.9179 20 16.6654 19.2525 16.6654 18.3333V1.66668C16.6654 0.747461 15.9179 0 14.9987 0ZM11.2487 18.3333H8.74871C8.5184 18.3333 8.33203 18.147 8.33203 17.9166C8.33203 17.6863 8.5184 17.5 8.74871 17.5H11.2487C11.479 17.5 11.6654 17.6864 11.6654 17.9167C11.6654 18.147 11.479 18.3333 11.2487 18.3333ZM14.9987 15.8333H4.99871V1.66668H14.9987V15.8333Z" fill="#6A7282"></path>
  <path d="M13.7487 3.33336C13.9788 3.33336 14.1654 3.14681 14.1654 2.91668C14.1654 2.68655 13.9788 2.5 13.7487 2.5C13.5186 2.5 13.332 2.68655 13.332 2.91668C13.332 3.14681 13.5186 3.33336 13.7487 3.33336Z" fill="#6A7282"></path>
</svg>
