<?xml version="1.0" encoding="UTF-8"?>
<svg xmlns="http://www.w3.org/2000/svg" width="32" height="32" viewBox="0 0 32 32" fill="none">
  <path fill-rule="evenodd" clip-rule="evenodd" d="M18.9867 3.48575C20.3109 3.80119 21.5764 4.3258 22.7353 5.03981L25.1712 3.958L28.0421 6.82881L26.9606 9.26394C27.6748 10.4232 28.1995 11.6889 28.5149 13.0135L31 13.97V18.03L28.5143 18.9868C28.1989 20.311 27.6743 21.5764 26.9603 22.7354L28.0421 25.1712L25.1712 28.0422L22.7362 26.9606C21.577 27.6749 20.3112 28.1996 18.9866 28.5149L18.0301 31H13.9701L13.0133 28.5142C11.6891 28.1988 10.4237 27.6742 9.26469 26.9603L6.82881 28.0421L3.95788 25.1712L5.03944 22.7361C4.32524 21.5769 3.80054 20.3111 3.48513 18.9866L1 18.0301V13.9701L3.4855 13.0133C3.80091 11.689 4.32554 10.4235 5.03963 9.2645L3.95788 6.82888L6.82875 3.95794L9.26456 5.03975C10.4235 4.32573 11.6889 3.80113 13.0131 3.48569L13.9701 1H18.03L18.9867 3.48575ZM16.058 12.2923L9.45063 14.0474C9.26562 14.0966 9.26562 14.3608 9.45063 14.4099L16.0579 16.165C16.1569 16.1913 16.2478 16.1913 16.3468 16.165L22.9541 14.4099C23.1391 14.3608 23.1391 14.0966 22.9541 14.0474L16.3468 12.2923C16.2478 12.2661 16.1569 12.2661 16.058 12.2923ZM8.71825 17.1581L8.58244 17.2364C8.44331 17.3167 8.36369 17.4547 8.36369 17.6153V19.1712C8.36369 19.3261 8.54006 19.4142 8.66387 19.321L9.21819 18.9041L9.77256 19.321C9.89637 19.4141 10.0728 19.3261 10.0728 19.1711V17.6152C10.0728 17.4546 9.99312 17.3167 9.854 17.2364L9.71825 17.158V15.5155L9.19394 15.3763C9.00469 15.326 8.84625 15.2399 8.71825 15.1299V17.1581ZM11.1192 15.8877V18.6016C11.1187 18.6894 11.1492 18.7746 11.2054 18.8421C11.2616 18.9096 11.3398 18.955 11.4263 18.9704C17.0211 20.0046 15.3837 20.0046 20.9785 18.9704C21.065 18.955 21.1432 18.9096 21.1994 18.8421C21.2556 18.7746 21.2861 18.6894 21.2856 18.6016V15.8877L16.6035 17.1315C16.3408 17.2024 16.064 17.2024 15.8013 17.1315L11.1192 15.8877ZM16 6.15331C10.5618 6.15331 6.15325 10.5618 6.15325 16C6.15325 21.4382 10.5618 25.8468 16 25.8468C21.4382 25.8468 25.8467 21.4382 25.8467 16C25.8467 10.5618 21.4382 6.15331 16 6.15331Z" fill="white"></path>
</svg>
