<?xml version="1.0" encoding="UTF-8"?>
<svg xmlns="http://www.w3.org/2000/svg" width="28" height="27" viewBox="0 0 28 27" fill="none">
  <path d="M21 25C19.9 25 18.9 24.3 18.5 23.2C18.5 23.1 18.5 23 18.4 23H9.5C9.5 23.1 9.5 23.2 9.4 23.2C9.1 24.3 8.1 25 7 25C6.4 25 6 25.4 6 26C6 26.6 6.4 27 7 27H21C21.6 27 22 26.6 22 26C22 25.4 21.6 25 21 25ZM25 0H3C1.3 0 0 1.3 0 3V18C0 19.7 1.3 21 3 21H25C26.7 21 28 19.7 28 18V3C28 1.3 26.7 0 25 0ZM23 12H18C17.7 12 17.4 11.8 17.2 11.6L16.3 10.2L15 13.4C14.8 13.7 14.4 14 14 14C13.6 14 13.3 13.8 13.1 13.4L11.7 10.6L10.7 11.6C10.5 11.9 10.3 12 10 12H5C4.4 12 4 11.6 4 11C4 10.4 4.4 10 5 10H9.6L11.3 8.3C11.5 8.1 11.9 8 12.2 8C12.5 8.1 12.8 8.3 12.9 8.5L13.9 10.5L15.1 7.6C15.2 7.3 15.6 7 15.9 7C16.3 7 16.6 7.1 16.8 7.4L18.5 10H23C23.6 10 24 10.4 24 11C24 11.6 23.6 12 23 12Z" fill="#0092DC"></path>
</svg>
