<?xml version="1.0" encoding="UTF-8"?>
<svg xmlns="http://www.w3.org/2000/svg" width="27" height="27" viewBox="0 0 27 27" fill="none">
  <path d="M10.6034 22.3872C11.2684 21.4335 11.6725 20.2778 11.6725 19.0355C11.6725 15.7992 9.04357 13.1992 5.83626 13.1992C2.63008 13.1992 0 15.8282 0 19.0355C0 22.2718 2.63005 24.8717 5.83626 24.8717C7.07857 24.8717 8.23428 24.4676 9.18795 23.8026L11.788 26.6347L11.8457 26.6924C12.3365 27.1254 13.0592 27.0966 13.521 26.6347C13.9251 26.1718 13.8963 25.4501 13.4344 24.9872L10.6034 22.3872ZM5.80735 23.3408C3.43821 23.3408 1.55983 21.4047 1.55983 19.0643C1.55983 16.6952 3.46714 14.7878 5.83634 14.7878C8.20549 14.7878 10.1129 16.6951 10.1129 19.0643C10.1129 21.4335 8.17639 23.3408 5.80735 23.3408Z" fill="white"></path>
  <path d="M5.80833 16.1465C4.19077 16.1465 2.89062 17.4465 2.89062 19.0642C2.89062 19.4972 3.23702 19.8447 3.67109 19.8447C4.10406 19.8447 4.45157 19.4983 4.45157 19.0642C4.45157 18.3126 5.05884 17.7064 5.80932 17.7064C6.24229 17.7064 6.58979 17.36 6.58979 16.926C6.61755 16.493 6.2424 16.1465 5.80833 16.1465Z" fill="white"></path>
  <path d="M23.6293 0H7.58364C5.93389 0 4.59375 1.35111 4.59375 3.00098V11.9815C4.9923 11.9037 5.41307 11.8704 5.83384 11.8704C9.54307 11.8704 12.6106 14.7048 12.9647 18.3263H23.6283C25.278 18.3263 26.6292 16.9863 26.6292 15.3253L26.6303 3.00108C26.6303 1.35133 25.2792 0 23.6293 0ZM22.6412 10.0505H20.0511L18.1294 14.5368C17.9895 14.8632 17.6686 15.073 17.3156 15.073H17.2878C16.9237 15.0608 16.604 14.8277 16.4807 14.4846L13.6953 6.65888L12.5717 9.49211C12.4374 9.82961 12.1121 10.0517 11.748 10.0517L8.57279 10.0506C8.08318 10.0506 7.68685 9.65422 7.68685 9.16461C7.68685 8.675 8.08318 8.27867 8.57279 8.27867H11.1451L12.9159 3.81572C13.0524 3.47268 13.3844 3.25173 13.7552 3.25617C14.1238 3.26283 14.4502 3.49708 14.5745 3.84457L17.3911 11.7604L18.6534 8.81512C18.7933 8.48984 19.113 8.2789 19.4672 8.2789H22.6412C23.1308 8.2789 23.5272 8.67523 23.5272 9.16484C23.5272 9.65445 23.1308 10.0505 22.6412 10.0505Z" fill="white"></path>
</svg>
