<?xml version="1.0" encoding="UTF-8"?>
<svg xmlns="http://www.w3.org/2000/svg" width="56" height="56" viewBox="0 0 56 56" fill="none">
  <rect width="56" height="56" rx="5" fill="white"></rect>
  <path d="M54.0537 15.5401C51.5525 10.3188 46.5112 6.69512 40.7664 6.26651C37.9526 5.99376 35.0607 6.46133 32.5595 7.74717C30.8791 8.60439 29.3549 9.73437 28.1044 11.1371C25.486 8.17578 21.8125 6.22755 17.7872 6.03272C9.38494 5.52618 2.19418 10.9423 0.396485 19.3586C-0.658682 24.3851 0.474645 29.6453 2.81946 34.0873C5.12519 38.4513 8.52517 42.3478 12.9022 44.6078C15.9504 46.0884 18.8424 42.3088 16.6148 39.6982C15.9113 38.9189 15.247 38.0617 14.6608 37.1655C14.1136 36.3083 13.6056 35.4511 13.1366 34.5549C11.8861 31.9832 10.9481 29.0608 10.7527 26.2164C10.6355 24.3851 10.87 22.8265 11.6516 21.2679C12.355 19.7873 13.5274 18.5404 15.0516 17.917C17.4355 17.0208 19.8975 17.4883 21.6952 19.4366C22.8676 20.6445 23.4147 22.32 24.001 23.8785C24.04 23.9954 24.0791 24.1123 24.1573 24.1903C25.3297 27.8529 30.8009 27.9309 31.817 23.7617C31.8561 23.6058 31.8952 23.4889 31.8952 23.333C31.8952 23.2941 31.8952 23.2941 31.8952 23.2551C31.8952 23.2161 31.8952 23.2162 31.8952 23.1772C31.9733 22.7875 32.0906 22.4369 32.2078 22.0862C32.5986 20.9562 33.302 19.9042 34.0837 19.0859C35.2951 17.839 36.8583 17.0987 38.5779 17.2545C39.5158 17.2935 40.6101 17.5663 41.3917 17.9949C45.7296 20.3328 45.2997 26.5281 43.4238 30.6194C42.0951 33.4639 40.0239 35.8797 37.679 37.9448C37.0928 38.4513 36.4285 38.9968 35.8423 39.5034C33.1066 41.6075 32.4032 45.6208 34.5526 48.5042C36.8584 51.6604 41.4698 51.8162 44.1273 49.0108C44.6353 48.5042 45.1434 47.9587 45.6514 47.4132C50.6537 41.8413 55.187 33.5808 55.8904 25.9826C56.2812 22.3589 55.6169 18.8131 54.0537 15.5401Z" fill="url(#paint0_radial_4010_1021)"></path>
  <defs>
    <radialGradient id="paint0_radial_4010_1021" cx="0" cy="0" r="1" gradientTransform="matrix(-28.0004 -39.4498 -60.1302 42.4266 38.3833 47.8978)" gradientUnits="userSpaceOnUse">
      <stop offset="0.0001" stop-color="#6BC1B1"></stop>
      <stop offset="1" stop-color="#4594D1"></stop>
    </radialGradient>
  </defs>
</svg>
