<svg width="56" height="56" viewBox="0 0 56 56" fill="none" xmlns="http://www.w3.org/2000/svg">
<rect width="56" height="56" rx="5" fill="#FFDA34"/>
<path d="M44.4769 20.0105L44.5424 19.9829C44.7376 19.8994 44.8808 19.8538 44.9936 19.8395L45.1175 19.8184C45.3714 19.7662 45.6335 19.7401 45.8956 19.7401C47.4723 19.7401 48.789 19.2488 49.7033 18.3196C50.361 17.6506 50.775 16.7823 50.9198 15.7772L51 15.7783V10H41.3704V14.1805C41.3471 14.4817 41.349 14.7589 41.351 15.0043C41.3531 15.2737 41.3547 15.5283 41.3222 15.7214L41.313 15.7829C41.2042 16.5994 40.8096 17.3576 40.2021 17.9175C39.5799 18.4912 39.2888 18.6172 39.1929 18.6444C39.0963 18.672 38.9561 18.6592 38.5507 18.6044C38.2012 18.5573 37.7223 18.4927 37.1381 18.4927C34.6426 18.4927 32.551 20.3768 32.2725 22.8771C32.2105 23.4457 32.2456 23.8709 32.2709 24.1808C32.2995 24.5256 32.3081 24.6296 32.1887 24.9728C31.952 25.6474 31.4481 26.2735 30.7701 26.7349C30.092 27.1965 29.3112 27.4511 28.5726 27.4511L28.5005 27.4501L28.4283 27.4511C27.6898 27.4511 26.9091 27.1971 26.231 26.7349C25.5524 26.2735 25.0485 25.6474 24.8129 24.9744C24.6929 24.6296 24.701 24.5251 24.73 24.1798C24.7555 23.8699 24.7904 23.4452 24.7286 22.8751C24.4507 20.3763 22.359 18.4922 19.8634 18.4922C19.2792 18.4922 18.8003 18.5568 18.4483 18.6044C18.046 18.6587 17.9053 18.6715 17.8087 18.6438C17.7127 18.6162 17.4217 18.4907 16.7995 17.9164C16.192 17.3571 15.7978 16.5989 15.6886 15.7824L15.6794 15.7209C15.6637 15.6272 15.6561 15.5191 15.6525 15.4018V10H6.02083V14.8977C6.00965 16.2772 6.45106 17.4605 7.29628 18.3201C8.21007 19.2493 9.52667 19.7401 11.1033 19.7401C11.3654 19.7401 11.627 19.7667 11.882 19.819L12.0055 19.8395C12.1177 19.8543 12.261 19.8999 12.4575 19.9834L12.522 20.0105C13.1747 20.2708 13.7467 20.7067 14.1759 21.2717C15.2324 22.661 15.2355 24.605 14.184 25.9983C13.8396 26.4552 13.3916 26.8364 12.8893 27.1012L12.8441 27.1259C12.7064 27.2016 12.5835 27.2579 12.4707 27.2974C12.4204 27.3149 12.3752 27.3291 12.3331 27.3415L12.2853 27.3558C11.9054 27.4788 11.5077 27.5407 11.1038 27.5407C8.05109 27.5407 6 29.434 6 32.2519C6 34.4516 6.99455 35.593 7.8286 36.163C8.84654 36.8587 10.0742 37.0559 11.2496 37.1645L11.3309 37.1738C11.6428 37.2147 11.9059 37.2792 12.2081 37.3889L12.3539 37.4448L12.3788 37.454C13.1702 37.7265 13.8331 38.2833 14.246 39.0224C14.4792 39.44 14.6407 39.9866 14.7006 40.5608C14.724 40.7867 14.7397 41.0054 14.755 41.2217C14.7667 41.386 14.7799 41.5705 14.7976 41.7559V45.9984H24.4273V40.3333L24.3593 40.3323C24.2007 39.2427 23.6877 38.2449 22.8761 37.4698C22.8044 37.4023 22.7384 37.3449 22.6856 37.2992L22.653 37.2711C21.6168 36.3654 20.2693 36.3414 19.2849 36.3233H19.2741C19.1096 36.3203 18.9537 36.3172 18.816 36.3107L18.6682 36.2875L18.3517 36.2163L18.0536 36.1236L17.7321 35.9946C17.3953 35.8404 17.0809 35.6396 16.802 35.4003L16.7395 35.346C15.8486 34.5427 15.4067 33.5526 15.3884 32.3196C15.3909 31.4386 15.6703 30.6035 16.1965 29.9043C16.7095 29.223 17.4364 28.7159 18.243 28.4761C19.0598 28.2338 20.5832 28.2277 21.3177 28.4644C22.656 28.8951 23.606 30.1338 23.6806 31.5466C23.6867 31.6634 23.6822 31.7858 23.6771 31.9292C23.6618 32.3436 23.641 32.9112 23.8782 33.6289C24.5492 35.6257 26.4053 36.9724 28.502 36.9806C30.5933 36.9724 32.4487 35.6252 33.1213 33.6254C33.3575 32.9118 33.3367 32.3442 33.3214 31.9278C33.3163 31.7858 33.3118 31.6634 33.3179 31.5472C33.3926 30.1344 34.3424 28.8951 35.6808 28.4648C36.4154 28.2282 37.9382 28.2344 38.755 28.4766C39.5621 28.7169 40.2895 29.224 40.802 29.9053C41.3281 30.6045 41.6076 31.4396 41.6101 32.3206C41.5919 33.5536 41.1499 34.5439 40.2585 35.3475L40.2015 35.3973C39.9182 35.64 39.6032 35.8414 39.2664 35.9956L38.9455 36.1246L38.6472 36.2173L38.3882 36.2778L38.183 36.3117C38.0459 36.3182 37.8895 36.3213 37.7248 36.3245H37.7141C36.7298 36.3424 35.3821 36.3664 34.3486 37.2701L34.3129 37.3014C34.2602 37.3469 34.1947 37.4037 34.1214 37.4729C33.3397 38.2193 32.8349 39.1766 32.6586 40.2232H32.5722V46H42.2018V41.7575C42.2196 41.5726 42.2329 41.3876 42.2445 41.2231C42.2598 41.0105 42.2755 40.7908 42.299 40.5634C42.3588 39.9881 42.5203 39.4415 42.7536 39.024C43.1665 38.2854 43.8294 37.7286 44.6208 37.4554L44.7914 37.3905C45.0936 37.2813 45.3567 37.2168 45.6691 37.1753L45.7499 37.1661C46.9253 37.0575 48.1529 36.8602 49.1709 36.1646C50.6826 35.1318 50.9996 33.4676 50.9996 32.2535C50.9996 29.4356 48.9484 27.5423 45.8956 27.5423C45.4918 27.5423 45.0942 27.4798 44.7141 27.3574L44.6665 27.343C44.6243 27.3307 44.5791 27.3163 44.5318 27.3C44.416 27.26 44.2931 27.2032 44.1523 27.1259L44.1103 27.1027C43.6079 26.8378 43.1598 26.4568 42.815 25.9999C41.7635 24.6066 41.7666 22.6625 42.8232 21.2733C43.2523 20.7087 43.8243 20.2723 44.4769 20.0126V20.0105Z" fill="black"/>
</svg>
