<?xml version="1.0" encoding="UTF-8"?>
<svg xmlns="http://www.w3.org/2000/svg" width="29" height="28" viewBox="0 0 29 28" fill="none">
  <path d="M16.9956 27.5103V27.9999H11.997V27.5103C11.997 26.1575 13.1154 25.0619 14.4963 25.0619C15.8772 25.0619 16.9956 26.1575 16.9956 27.5103ZM14.4963 21.6341C12.9055 21.6341 11.3797 22.2536 10.2549 23.3553C9.13025 24.4571 8.49791 25.9519 8.49791 27.5103V28H10.9972V27.5103C10.9972 25.6177 12.5643 24.0824 14.4964 24.0824C16.4285 24.0824 17.9956 25.6175 17.9956 27.5103V28H20.4949V27.5103C20.4949 25.9519 19.8625 24.4572 18.7379 23.3553C17.6132 22.2536 16.0871 21.6341 14.4963 21.6341ZM28.5573 25.5515L24.6883 25.0619C24.4409 24.0519 24.0372 23.0848 23.4937 22.1924L25.863 19.1515C26.0179 18.9568 26.0004 18.6801 25.823 18.5051L23.6886 16.4484C23.5099 16.2746 23.2275 16.2574 23.0288 16.4092L19.9246 18.7303C19.0162 18.1855 18.0289 17.7791 16.9955 17.5257L16.4956 13.7355C16.4631 13.4907 16.2482 13.307 15.9958 13.3095H12.9966C12.7442 13.307 12.5292 13.4906 12.4967 13.7355L11.9969 17.5257C10.9684 17.7742 9.98367 18.1733 9.07769 18.7107L5.97357 16.3896C5.77487 16.2378 5.49245 16.255 5.31375 16.4288L3.18436 18.505C3.00691 18.6801 2.98942 18.9568 3.14437 19.1514L5.45374 22.1189C4.67895 22.9416 4.50902 23.8866 4.33905 24.8023L4.29406 25.0521L0.435302 25.5418C0.185372 25.5736 -0.00207946 25.7841 0.000415838 26.0314V27.5005C0.000415838 27.6302 0.0529003 27.7551 0.146624 27.8469C0.240349 27.9387 0.367814 27.9902 0.500285 27.9902H7.49833V27.5005C7.49833 25.0509 8.83171 22.7886 10.9975 21.5632C13.1631 20.339 15.8298 20.339 17.9955 21.5632C20.1612 22.7887 21.4947 25.051 21.4947 27.5005V27.9902H28.4928C28.6252 27.9902 28.7527 27.9387 28.8464 27.8469C28.9401 27.7551 28.9926 27.6302 28.9926 27.5005V26.0314C28.9876 25.789 28.8027 25.5883 28.5577 25.5565L28.5573 25.5515ZM0.290357 15.7138C0.466557 15.7958 0.676489 15.7689 0.825215 15.6452L6.82353 10.6701C6.85478 10.6395 6.89726 10.6223 6.941 10.6223C6.98474 10.6223 7.02723 10.6395 7.05847 10.6701L11.2822 15.1848L11.4972 13.6032C11.5984 12.8686 12.2407 12.3239 12.9968 12.33H15.9959C16.3646 12.3312 16.7207 12.4647 16.9957 12.707L24.6185 6.02295L26.6179 8.34894C26.7129 8.45789 26.8516 8.52033 26.9978 8.52033C27.0403 8.52767 27.0853 8.52767 27.1278 8.52033C27.319 8.47013 27.4614 8.31466 27.4927 8.1237L28.9922 0.582789C29.0185 0.437111 28.9772 0.286534 28.8823 0.171459C28.7848 0.0600562 28.6423 -0.00237826 28.4924 6.93576e-05L20.6546 0.220423C20.4634 0.226544 20.2934 0.339172 20.2147 0.509336C20.1472 0.673379 20.1759 0.860683 20.2897 0.999015L22.1541 3.14872L13.1365 11.0619C13.0703 11.1207 12.9678 11.1207 12.9016 11.0619L7.79292 6.04762C7.35928 5.62648 6.66824 5.60078 6.20334 5.98886L0.174953 10.9787C0.0637325 11.0718 0 11.2077 0 11.3509V15.2683C0 15.4593 0.112468 15.6331 0.289919 15.7139L0.290357 15.7138Z" fill="white"></path>
</svg>
