<svg width="56" height="55" viewBox="0 0 56 55" fill="none" xmlns="http://www.w3.org/2000/svg">
<g clip-path="url(#clip0_4013_1088)">
<mask id="mask0_4013_1088" style="mask-type:luminance" maskUnits="userSpaceOnUse" x="0" y="0" width="239" height="55">
<path d="M0.0321655 0.0366211H238.745V54.9631H0.0321655V0.0366211Z" fill="white"/>
</mask>
<g mask="url(#mask0_4013_1088)">
<path fill-rule="evenodd" clip-rule="evenodd" d="M52.6903 29.0978C55.2654 30.7907 56.3301 32.4671 55.8926 34.127L55.3933 35.948C55.026 37.2032 53.5239 38.1323 50.8951 38.7393C48.2623 39.3476 44.8206 39.5142 40.57 39.2389C38.7419 39.1192 36.8477 38.9044 34.8916 38.6071C34.0126 40.5313 33.1377 42.2614 32.2587 43.7975C30.0509 47.7408 27.7936 50.7138 25.495 52.7246C23.1964 54.7355 20.9968 55.3879 18.8963 54.686L17.5716 54.2483C15.2194 53.472 13.6718 51.6593 12.9373 48.802C12.2 45.9474 11.9592 42.8615 12.2151 39.5445C12.4008 37.0752 12.1243 35.0602 11.3898 33.4953C10.6511 31.9303 9.34701 30.5719 7.46934 29.4322C5.59167 28.3256 3.80891 26.9919 2.11282 25.4228C0.420853 23.8579 -0.239428 22.4333 0.127853 21.1409L0.569415 19.5388C0.936696 18.1391 2.39344 17.21 4.93139 16.7475C7.47347 16.2851 10.9317 16.3305 15.3102 16.8838C16.2304 17.0159 17.2209 17.1728 18.269 17.3586C19.5814 14.5797 21.0711 11.8793 22.7383 9.2573C24.7068 6.16458 26.9393 3.69536 29.4443 1.85377C31.9492 0.0121753 34.4872 -0.429642 37.0664 0.528316L37.9495 0.858647C40.3802 1.74228 41.7379 4.00504 42.035 7.65519C42.328 11.3053 42.0721 15.1165 41.2633 19.097C41.0033 20.4596 41.123 21.591 41.6223 22.4953C42.1175 23.3982 42.991 24.1084 44.2428 24.6259C47.2966 25.9142 50.1152 27.4048 52.6903 29.1019V29.0978ZM28.5116 9.62479C26.7413 12.4326 25.1648 15.3849 23.7741 18.4735C26.9077 19.1645 30.0495 19.9628 33.1996 20.8684C34.6715 21.2758 35.8779 21.2111 36.8188 20.6743C37.7597 20.1417 38.3539 19.1383 38.6139 17.6642C39.1298 14.5674 39.2371 11.4994 38.9441 8.46037C38.6511 5.42133 37.5822 3.64168 35.7417 3.12554C33.2024 3.82749 30.7924 5.99253 28.5116 9.62066V9.62479ZM28.0123 31.7032C30.0757 32.2318 32.1391 32.7066 34.2024 33.1278C34.7059 31.8767 35.1846 30.5966 35.6303 29.2712C36.109 27.9086 36.0884 26.7359 35.5766 25.7614C35.0594 24.7842 34.102 24.0933 32.7044 23.6886C29.3948 22.6949 26.092 21.8388 22.7961 21.1203C22.7466 21.1079 22.7012 21.0996 22.6517 21.0873C22.6351 21.1285 22.6228 21.1657 22.6063 21.2029C21.5704 23.7794 21.5457 26.0009 22.5196 27.8632C23.4935 29.7254 25.3258 31.0013 28.0123 31.7032ZM12.8919 24.3245C14.588 23.5895 15.9704 22.1567 17.0517 20.0385C16.1355 19.8981 15.2772 19.7866 14.4889 19.7123C9.55885 19.2691 5.95207 19.5636 3.6686 20.5959C4.44031 21.5538 5.39771 22.4168 6.54082 23.1931C8.78577 24.8117 10.9028 25.1916 12.8878 24.3245H12.8919ZM31.9699 38.1117C30.2903 37.7896 28.5694 37.4014 26.8032 36.9555C24.0052 36.2563 21.7782 36.1462 20.122 36.6252C18.4671 37.1041 17.5097 38.1901 17.2539 39.883C16.8852 42.2036 16.7834 44.4141 16.9485 46.5144C17.1136 48.6162 17.7326 50.4247 18.7973 51.9318C20.3448 52.1177 22.1111 51.3042 24.1001 49.4998C26.0851 47.6954 28.0371 45.1518 29.9519 41.8733C30.6245 40.7254 31.2972 39.4701 31.9699 38.1117ZM52.6407 33.9701C51.9062 32.0184 48.9996 29.9181 43.9209 27.6691C42.5921 27.0827 41.4325 27.0167 40.4421 27.475C39.4475 27.9375 38.6923 28.883 38.1765 30.32C37.7927 31.4555 37.3924 32.5662 36.9715 33.6605C38.5809 33.9522 40.1876 34.2124 41.7915 34.4409C46.375 35.085 49.9914 34.9281 52.6407 33.9701Z" fill="#00FFA7"/>
</g>
</g>
<defs>
<clipPath id="clip0_4013_1088">
<rect width="56" height="55" fill="white"/>
</clipPath>
</defs>
</svg>
