<svg width="56" height="56" viewBox="0 0 56 56" fill="none" xmlns="http://www.w3.org/2000/svg">
<rect width="56" height="56" rx="5" fill="#00E592"/>
<path d="M40.0533 10.0444L31.707 22.4444C31.1299 23.2889 32.2397 24.3111 33.0388 23.6L41.2519 16.4444C41.4739 16.2667 41.7847 16.4 41.7847 16.7111V39.0667C41.7847 39.3778 41.3851 39.5111 41.2075 39.2889L16.3463 9.51111C15.5472 8.53333 14.3929 8 13.1054 8H12.2175C9.90899 8 8 9.91111 8 12.2667V43.7333C8 46.0889 9.90899 48 12.2619 48C13.727 48 15.1032 47.2444 15.9023 45.9556L24.2486 33.5556C24.8257 32.7111 23.7159 31.6889 22.9168 32.4L14.7037 39.5111C14.4817 39.6889 14.1709 39.5556 14.1709 39.2444V16.9333C14.1709 16.6222 14.5705 16.4889 14.7481 16.7111L39.6093 46.4889C40.4084 47.4667 41.6071 48 42.8502 48H43.7381C46.091 48 48 46.0889 48 43.7333V12.2667C48 9.91111 46.091 8 43.7381 8C42.2286 8 40.8524 8.75556 40.0533 10.0444Z" fill="black"/>
</svg>
