<?xml version="1.0" encoding="UTF-8"?>
<svg xmlns="http://www.w3.org/2000/svg" width="56" height="56" viewBox="0 0 56 56" fill="none">
  <g clip-path="url(#clip0_151_187)">
    <path fill-rule="evenodd" clip-rule="evenodd" d="M32.9737 0C32.5894 0.00603862 32.2086 0.074752 31.8462 0.203453C32.5151 0.642663 32.9952 1.31824 33.1911 2.09618C33.2046 2.19729 33.2341 2.27004 33.2488 2.37115C33.2655 2.45734 33.2749 2.54478 33.2771 2.63255C33.3348 3.90999 32.9443 4.07028 32.6704 4.82491C32.4721 5.28284 32.3869 5.78211 32.4222 6.28019C32.4575 6.77828 32.6121 7.26042 32.873 7.68557C32.9192 7.79794 32.9773 7.905 33.0462 8.00493C32.496 4.33169 35.548 3.78052 36.1167 2.63255C36.1597 1.63132 35.3356 0.963009 34.6846 0.49815C34.1738 0.175166 33.5823 0.00414994 32.9786 0.00493218L32.9737 0ZM37.5721 0.827374C37.5452 0.966206 37.5357 1.10788 37.5439 1.24908C37.5291 1.36498 37.5291 1.51048 37.5144 1.62639C37.4877 1.74417 37.454 1.86028 37.4137 1.97411C37.3815 2.09243 37.343 2.20892 37.2982 2.32306C37.2405 2.43896 37.1963 2.54131 37.1386 2.65721C37.0956 2.71517 37.0661 2.77312 37.0231 2.83107L36.9359 2.95931C36.8635 3.06165 36.7922 3.16276 36.7198 3.25031C36.6399 3.34409 36.5528 3.43149 36.4594 3.51171V3.52528C36.3722 3.59803 36.285 3.68557 36.1843 3.75832C35.8809 3.99014 35.5333 4.164 35.2152 4.38224C35.113 4.44658 35.0164 4.5196 34.9266 4.60049C34.8284 4.66963 34.7363 4.74719 34.6515 4.83231C34.5567 4.91776 34.4692 5.01097 34.3899 5.11097C34.3093 5.20115 34.2365 5.2981 34.1725 5.40074C34.1 5.50308 34.0288 5.60419 33.9698 5.70653C33.9109 5.80888 33.8703 5.91862 33.8126 6.04192C33.7678 6.15099 33.7292 6.26256 33.6971 6.37608C33.6529 6.50678 33.6247 6.62269 33.5952 6.74599C33.5817 6.80395 33.5817 6.8767 33.567 6.93465C33.5522 6.9926 33.5522 7.05055 33.5375 7.10851C33.5375 7.22441 33.5227 7.35512 33.5227 7.47102C33.5203 7.55842 33.5252 7.64587 33.5375 7.73243C33.538 7.85703 33.5528 7.98116 33.5817 8.10234C33.5983 8.2196 33.6221 8.33572 33.6529 8.45006C33.6971 8.57337 33.7254 8.68311 33.7696 8.79901C33.7979 8.87176 33.8421 8.94451 33.8703 9.00247L30.5443 7.69544C29.9806 7.53514 29.4304 7.39088 28.8666 7.26017L27.9553 7.04192C27.0882 6.86806 26.2051 6.73736 25.3232 6.64982C25.295 6.64982 25.2803 6.63502 25.2508 6.63502C24.3837 6.54871 23.5313 6.50432 22.6617 6.50432C22.0255 6.50432 21.3893 6.53391 20.7678 6.57707C19.886 6.63502 19.0029 6.75092 18.121 6.89642C17.9037 6.92602 17.6875 6.96917 17.4701 7.01233C17.0218 7.09988 16.5882 7.20099 16.1682 7.30333L15.5185 7.47719C15.3011 7.56473 15.0984 7.66584 14.8958 7.75339L14.4192 7.97041C14.3898 7.9852 14.3615 7.9852 14.3468 8C14.2018 8.07275 14.0717 8.1307 13.9415 8.20345C13.9068 8.21512 13.8731 8.22955 13.8408 8.24661C13.6811 8.31936 13.5226 8.4069 13.3925 8.47965C13.2905 8.52281 13.1898 8.58076 13.1026 8.62392C13.0608 8.65094 13.0173 8.67524 12.9724 8.69667C12.8422 8.76942 12.712 8.84217 12.5966 8.91492C12.4771 8.98128 12.3611 9.05372 12.249 9.13194C12.1483 9.20469 12.0476 9.26264 11.9604 9.33539C11.9456 9.35018 11.9309 9.35018 11.9174 9.36498C11.8222 9.42795 11.7304 9.49586 11.6423 9.56843L11.6128 9.59679L11.3966 9.77189C11.3672 9.78545 11.3389 9.81504 11.3094 9.82984C11.237 9.88779 11.1645 9.96054 11.092 10.0185C11.0785 10.0469 11.049 10.0617 11.0343 10.0764C10.9483 10.164 10.8611 10.2355 10.7739 10.3231C10.7604 10.3231 10.7604 10.3379 10.7457 10.3527C10.6585 10.4242 10.5725 10.5117 10.4853 10.5993C10.4706 10.6141 10.4706 10.6276 10.4558 10.6276C10.3834 10.7004 10.3121 10.7731 10.2397 10.8607C10.2102 10.889 10.1672 10.9186 10.1377 10.947C10.0653 11.0345 9.97928 11.1221 9.89208 11.2084C9.87734 11.238 9.84909 11.2528 9.83435 11.2811C9.7189 11.397 9.61696 11.5142 9.50151 11.6301L9.45852 11.6732C9.22691 11.9246 8.98085 12.1622 8.7216 12.3847C8.46532 12.6143 8.195 12.8277 7.91221 13.0234C7.62235 13.2269 7.34846 13.4007 7.04387 13.5758C6.74896 13.7381 6.4451 13.8834 6.13377 14.0111C5.82917 14.1418 5.51107 14.2577 5.19296 14.3588C4.58623 14.4895 3.96476 14.7374 3.42926 14.7805C3.30774 14.7876 3.18674 14.802 3.06694 14.8237C2.93675 14.8533 2.8213 14.8816 2.70585 14.9112L2.35704 15.0432C2.23888 15.09 2.12327 15.1431 2.01069 15.2022C1.90874 15.275 1.79329 15.3329 1.69258 15.4057C1.5897 15.4802 1.49278 15.5626 1.40272 15.6523C1.29999 15.7319 1.2035 15.8193 1.1141 15.9137C1.02689 16.016 0.939691 16.1023 0.868455 16.2047C0.797219 16.307 0.708788 16.4229 0.651063 16.5388C0.574699 16.6446 0.506929 16.7563 0.448409 16.873C0.390683 17.0037 0.332958 17.1196 0.288742 17.2503C0.244527 17.381 0.202768 17.4969 0.165922 17.6276C0.134146 17.7418 0.109938 17.858 0.0934577 17.9753C0.0934577 17.9901 0.0787192 18.0049 0.0787192 18.0197C0.0492423 18.1504 0.0492423 18.3243 0.0357321 18.4118C0.0166261 18.507 0.00471944 18.6034 0.000114122 18.7004C-0.00231968 18.7636 0.00262677 18.8269 0.0148526 18.889C0.0255018 18.9827 0.0448273 19.0752 0.0725782 19.1652C0.0996934 19.2547 0.133356 19.3421 0.173291 19.4266V19.4414C0.221838 19.5314 0.275136 19.6186 0.332958 19.7028C0.390997 19.7932 0.453722 19.8805 0.520873 19.9642C0.593337 20.037 0.679311 20.1233 0.766514 20.1961C0.851053 20.2815 0.943136 20.3591 1.04163 20.4279C1.38799 20.7337 1.47519 20.8348 1.92348 21.0678C1.99595 21.111 2.06841 21.1393 2.15561 21.1837C2.16912 21.1837 2.18386 21.1985 2.1986 21.1985C2.19621 21.2233 2.20135 21.2482 2.21334 21.27C2.22969 21.3878 2.2539 21.5044 2.2858 21.619C2.31276 21.7388 2.35143 21.8557 2.40125 21.9679C2.44424 22.0543 2.47372 22.1418 2.51671 22.2293C2.52767 22.2551 2.54213 22.2791 2.55969 22.3009C2.61742 22.418 2.67514 22.5191 2.7341 22.6202C2.79305 22.7213 2.8778 22.8237 2.95026 22.926C3.02273 23.0284 3.10993 23.1147 3.1959 23.201C3.28188 23.2873 3.37031 23.3613 3.47102 23.4476C3.47919 23.4551 3.4895 23.4599 3.5005 23.4612C3.58342 23.5338 3.67035 23.6018 3.76088 23.6646C3.86143 23.7364 3.96784 23.7995 4.07898 23.8533C4.18481 23.916 4.29575 23.9696 4.4106 24.0136C4.50393 24.0561 4.60096 24.0899 4.70045 24.1147C4.71519 24.1295 4.7287 24.1295 4.75818 24.1443C4.81591 24.1591 4.88837 24.1726 4.9461 24.1874C4.90311 24.9716 4.88837 25.7127 5.00382 25.9741C5.13401 26.2639 5.77268 25.3798 6.40643 24.3637C6.32046 25.365 6.26273 26.5413 6.40643 26.889C6.55013 27.2367 7.43321 26.1196 8.1861 24.8718C18.4392 22.4908 27.7968 29.6042 28.7794 39.6523C28.5915 38.0838 26.6681 37.2121 25.7863 37.4328C25.3527 38.5068 24.6146 39.8866 23.4293 40.7435C23.5326 39.7739 23.4837 38.7941 23.2844 37.8397C22.9609 39.1751 22.3497 40.4231 21.4937 41.4957C20.1193 41.5968 18.7462 40.9297 18.0228 39.9272C17.9651 39.8841 17.9503 39.7965 17.9073 39.7386C17.8621 39.6397 17.8231 39.5379 17.7907 39.434C17.7485 39.3369 17.7196 39.2344 17.7047 39.1295C17.6921 39.0235 17.6872 38.9168 17.6899 38.8101V38.5943C17.7071 38.4913 17.7313 38.3895 17.7624 38.2898C17.7893 38.1857 17.823 38.0836 17.8631 37.984C17.9159 37.8795 17.9742 37.7778 18.0375 37.6794C18.2832 36.9827 18.2832 36.4168 17.8349 36.0826C17.7476 36.0261 17.6555 35.9774 17.5598 35.9371C17.502 35.9223 17.4296 35.894 17.3718 35.8792C17.3141 35.8644 17.2994 35.8508 17.2564 35.836C17.156 35.803 17.0534 35.777 16.9493 35.7583C16.8508 35.7294 16.7486 35.7149 16.646 35.7152C16.5407 35.698 16.4345 35.6881 16.3279 35.6856C16.2554 35.6856 16.1829 35.7004 16.1105 35.7004C16.003 35.6998 15.8959 35.7144 15.7924 35.7435C15.5838 35.769 15.3797 35.823 15.1856 35.9038C15.0837 35.947 14.9977 35.9901 14.8958 36.0345C14.7938 36.0789 14.7226 36.1356 14.6219 36.1788C11.2517 38.3859 13.2623 43.5549 15.5615 45.0506C14.6931 45.2096 13.8113 45.3995 13.5656 45.5882L13.5362 45.6165C14.1604 45.9922 14.8134 46.3175 15.489 46.5894C16.4151 46.894 17.3976 47.1702 17.8324 47.2861V47.3009C19.0305 47.5475 20.2556 47.6354 21.4765 47.5623C27.8828 47.1122 33.1334 42.2195 34.0877 35.7731C34.116 35.9038 34.1454 36.0197 34.1737 36.1504C34.2179 36.4118 34.2756 36.688 34.3039 36.963V36.9778C34.3334 37.1085 34.3481 37.2392 34.3628 37.3551V37.4131C34.3763 37.5438 34.3911 37.6745 34.3911 37.7904C34.4058 37.9507 34.4206 38.111 34.4206 38.27V38.5019C34.4206 38.5746 34.4341 38.6621 34.4341 38.7349C34.4341 38.8076 34.4206 38.9088 34.4206 38.9963V39.1998C34.4206 39.3009 34.4058 39.3884 34.4058 39.4895C34.4077 39.5528 34.4028 39.616 34.3911 39.6782C34.3911 39.7805 34.3763 39.8816 34.3763 39.9975C34.3643 40.04 34.3593 40.0841 34.3616 40.1282C34.3481 40.2441 34.3334 40.3465 34.3186 40.4624C34.321 40.5065 34.316 40.5507 34.3039 40.5931C34.2891 40.7386 34.2609 40.8693 34.2462 41.0148V41.0432C34.2179 41.1739 34.1884 41.3194 34.1602 41.4501V41.4932C34.1307 41.6239 34.1012 41.7546 34.073 41.8853C34.073 41.9001 34.0582 41.9285 34.0582 41.9433C34.0316 42.0757 33.998 42.2066 33.9575 42.3354V42.3785C33.9133 42.524 33.8703 42.6547 33.8347 42.7854C33.8269 42.7934 33.8221 42.8039 33.8212 42.815C33.777 42.9593 33.734 43.1048 33.691 43.2503C33.648 43.3958 33.5891 43.5265 33.5313 43.6708C33.4736 43.815 33.4306 43.9618 33.3729 44.0925C33.3152 44.2232 33.2562 44.3687 33.1985 44.5129H33.185C33.126 44.6437 33.0683 44.7891 32.9958 44.9198C32.9847 44.9548 32.9704 44.9887 32.9529 45.021C32.9381 45.0358 32.9381 45.0506 32.9246 45.0654C31.9689 46.9883 30.5779 48.6597 28.8629 49.9457C28.7475 50.0185 28.6308 50.106 28.5153 50.1924C28.4871 50.2219 28.4429 50.2367 28.4146 50.2651C28.3127 50.3379 28.212 50.4106 28.0965 50.4834L28.1395 50.5709H28.1543L28.761 50.4834H28.7757C29.1516 50.4254 29.5286 50.3526 29.9044 50.2799C30.0119 50.2626 30.1182 50.2383 30.2226 50.2071L30.4252 50.164C30.5259 50.1492 30.6266 50.1208 30.7286 50.106C30.8305 50.0912 30.9017 50.0616 30.989 50.0333C32.4221 49.6824 33.8248 49.2161 35.1833 48.6387C32.8594 51.8173 29.7686 54.3505 26.2014 56C27.8709 55.8892 29.5242 55.6024 31.1339 55.1443C36.9439 53.4289 41.8511 49.4928 44.8001 44.1825C44.2047 47.5425 42.8773 50.729 40.9128 53.5142C43.5613 51.7605 45.8147 49.4697 47.5281 46.789C49.2415 44.1083 50.3769 41.0972 50.8613 37.9494C51.3545 40.2474 51.4957 42.6075 51.2801 44.9482C61.7248 30.3329 52.1509 15.1726 48.1457 11.18C48.131 11.1504 48.1163 11.1369 48.1163 11.1073C48.1028 11.1221 48.1028 11.1221 48.1028 11.1369C48.1028 11.1221 48.1028 11.1221 48.088 11.1073C48.088 11.2811 48.0733 11.4562 48.0585 11.6301C48.0156 11.9642 47.9726 12.2836 47.9148 12.603C47.8571 12.9223 47.7552 13.2417 47.6692 13.561C47.5832 13.8804 47.453 14.185 47.3228 14.4908C47.1927 14.7965 47.0477 15.0851 46.8893 15.3761C46.7309 15.6671 46.5564 15.942 46.3685 16.2035C46.1806 16.4649 45.978 16.7411 45.7753 16.9877C45.5727 17.2343 45.327 17.4809 45.0949 17.7139C44.9512 17.8446 44.821 17.9605 44.6761 18.0764C44.5606 18.1776 44.4587 18.2651 44.3432 18.3674C44.0846 18.5717 43.8144 18.7607 43.5338 18.9334C43.2587 19.1073 42.9701 19.2811 42.6802 19.4266C42.3904 19.5721 42.0661 19.7028 41.7689 19.8335C41.4717 19.9642 41.1474 20.0506 40.8293 20.1381C40.5112 20.2256 40.1784 20.2984 39.8603 20.3563C39.5422 20.4143 39.1946 20.4427 38.8777 20.4723C38.6468 20.4871 38.4147 20.5006 38.1838 20.5006C37.8509 20.5006 37.5181 20.4723 37.2012 20.4427C36.5389 20.3804 35.8848 20.249 35.2496 20.0506H35.2349C35.553 20.0222 35.8711 19.9926 36.1892 19.9346C36.5073 19.8767 36.8401 19.8039 37.1582 19.7176C37.4763 19.6313 37.7944 19.5277 38.0978 19.4118C38.409 19.2941 38.7133 19.1586 39.0091 19.0062C39.3125 18.8607 39.5876 18.7004 39.8775 18.5265C40.1673 18.3527 40.4265 18.1492 40.6869 17.9457C40.9457 17.7434 41.1919 17.5252 41.4238 17.2922C41.6644 17.0692 41.8912 16.8316 42.103 16.5808C42.3204 16.3194 42.5218 16.058 42.7171 15.7965C42.7453 15.7534 42.7748 15.6954 42.8031 15.6523C42.948 15.4192 43.0929 15.1874 43.2231 14.9544C43.3815 14.6646 43.5265 14.3736 43.6567 14.069C43.7868 13.7645 43.9023 13.4599 44.0042 13.1393C44.1062 12.8187 44.1774 12.5154 44.2499 12.1961C44.3223 11.8767 44.3653 11.5425 44.3936 11.2232C44.4218 10.9038 44.4525 10.5561 44.4525 10.2367C44.4525 10.0049 44.4378 9.77312 44.4231 9.54007C44.3936 9.20592 44.3506 8.88656 44.3076 8.5672C44.2646 8.24784 44.1774 7.91369 44.0902 7.59433C44.003 7.27497 43.8876 6.97041 43.7721 6.66584C43.6521 6.35918 43.5168 6.05876 43.3668 5.76572C43.2084 5.47472 43.0487 5.18496 42.8755 4.90259C42.7023 4.62022 42.4997 4.36498 42.297 4.10358C42.0944 3.84217 41.8635 3.61036 41.6313 3.36375C41.5159 3.24784 41.3857 3.11714 41.2555 3.00123C40.6046 2.49199 39.9254 2.0148 39.2462 1.5783C39.1527 1.52368 39.0559 1.47508 38.9563 1.4328C38.5272 1.16908 38.065 0.963833 37.582 0.822441L37.5721 0.827374Z" fill="#E0234E"></path>
  </g>
  <defs>
    <clipPath id="clip0_151_187">
      <rect width="56" height="56" fill="white"></rect>
    </clipPath>
  </defs>
</svg>
