<svg width="24" height="24" viewBox="0 0 24 24" fill="none" xmlns="http://www.w3.org/2000/svg">
<path d="M5.26406 1.8C4.74844 1.99219 4.3125 2.40469 4.06875 2.92969L3.96094 3.16406L3.94688 8.23594L3.9375 13.3125H12H20.0625L20.0531 8.23594L20.0391 3.16406L19.8891 2.85469C19.6875 2.44688 19.3031 2.0625 18.8953 1.86094L18.5859 1.71094L12.0703 1.70156L5.55469 1.69219L5.26406 1.8ZM13.7438 4.10625C14.5875 4.59375 15.2812 5.00156 15.2812 5.01563C15.2812 5.02969 14.5406 5.46563 13.6406 5.98594L12 6.93281L10.3594 5.98594C9.45938 5.46563 8.71875 5.02969 8.71875 5.01563C8.71875 4.99688 11.0203 3.65625 11.6438 3.31406C11.8172 3.22031 11.9297 3.1875 12.0469 3.20156C12.15 3.21563 12.7969 3.5625 13.7438 4.10625ZM9.7875 7.03125L11.4375 7.98281V9.89531V11.8078L10.2563 11.1234C8.29219 9.99844 8.22656 9.95625 8.15156 9.81094C8.1 9.70313 8.08125 9.3375 8.07188 7.86094C8.0625 6.85781 8.07656 6.04688 8.09531 6.06094C8.11406 6.07031 8.87813 6.50625 9.7875 7.03125ZM15.9281 8.27344C15.9188 9.37969 15.9 9.70781 15.8484 9.81094C15.7688 9.96094 15.7266 9.98906 13.9125 11.0344L12.5625 11.8078V9.89063V7.97813L14.2406 7.0125L15.9141 6.04688L15.9281 6.45938C15.9375 6.68438 15.9375 7.5 15.9281 8.27344Z" fill="white"/>
<path d="M1.84688 4.84687L1.6875 5.00625L1.69688 11.0484L1.71094 17.0859L1.83281 17.3438C2.08594 17.8781 2.54063 18.2906 3.06094 18.4641L3.35625 18.5625L12.0938 18.5531L20.8359 18.5391L21.1453 18.3891C21.5531 18.1875 21.9375 17.8031 22.1391 17.3953L22.2891 17.0859L22.3031 11.0484L22.3125 5.00625L22.1531 4.84687C22.0125 4.70625 21.9656 4.6875 21.75 4.6875C21.5344 4.6875 21.4875 4.70625 21.3469 4.84687L21.1875 5.00625V9.72187V14.4375H12H2.8125V9.72187V5.00625L2.65313 4.84687C2.5125 4.70625 2.46563 4.6875 2.25 4.6875C2.03438 4.6875 1.9875 4.70625 1.84688 4.84687Z" fill="white"/>
<path d="M8.775 19.9078C8.74688 20.0344 8.68125 20.3719 8.62031 20.6578L8.51719 21.1875H7.88906H7.25625L7.09688 21.3469C6.95625 21.4875 6.9375 21.5344 6.9375 21.75C6.9375 21.9656 6.95625 22.0125 7.09688 22.1531L7.25625 22.3125H12H16.7438L16.9031 22.1531C17.0438 22.0125 17.0625 21.9656 17.0625 21.75C17.0625 21.5344 17.0438 21.4875 16.9031 21.3469L16.7438 21.1875H16.1109H15.4828L15.3797 20.6578C15.3188 20.3719 15.2531 20.0344 15.225 19.9078L15.1781 19.6875H12H8.82188L8.775 19.9078Z" fill="white"/>
</svg>
