<?xml version="1.0" encoding="UTF-8"?>
<svg xmlns="http://www.w3.org/2000/svg" width="56" height="56" viewBox="0 0 56 56" fill="none">
  <path d="M27.6789 45C27.494 45 27.3105 44.952 27.1485 44.8595L25.4601 43.8686C25.2079 43.7288 25.331 43.6793 25.4142 43.6509C25.7504 43.5341 25.8186 43.5078 26.1775 43.3057C26.2152 43.2844 26.2646 43.2919 26.3032 43.3145L27.6003 44.0775C27.6471 44.1026 27.7136 44.1026 27.757 44.0775L32.8143 41.1836C32.8611 41.1573 32.8915 41.1033 32.8915 41.0481V35.2628C32.8915 35.2051 32.8611 35.1537 32.8133 35.1248L27.758 32.2334C27.7111 32.2058 27.6491 32.2058 27.6023 32.2334L22.548 35.1248C22.499 35.1524 22.4679 35.2064 22.4679 35.2616V41.0469C22.4679 41.1021 22.4983 41.1548 22.5464 41.1811L23.9313 41.9743C24.6832 42.347 25.1428 41.9077 25.1428 41.466V35.756C25.1428 35.6745 25.2073 35.6117 25.2896 35.6117H25.9301C26.0099 35.6117 26.0757 35.6745 26.0757 35.756V41.4685C26.0757 42.4624 25.5289 43.0334 24.5782 43.0334C24.2857 43.0334 24.0553 43.0334 23.4123 42.7197L22.0856 41.9617C21.7577 41.7735 21.5552 41.4221 21.5552 41.0469V35.2616C21.5552 34.8851 21.7577 34.5337 22.0856 34.348L27.1479 31.4528C27.4682 31.2734 27.8936 31.2734 28.2113 31.4528L33.2673 34.3492C33.5939 34.5362 33.7978 34.8863 33.7978 35.2628V41.0481C33.7978 41.4233 33.5939 41.7735 33.2673 41.9617L28.2113 44.8569C28.0493 44.9497 27.8657 44.9974 27.6784 44.9974" fill="#689F63"></path>
  <path d="M29.2407 41.0135C27.0279 41.0135 26.564 40.0066 26.564 39.162C26.564 39.0817 26.6293 39.0177 26.7104 39.0177H27.3636C27.4358 39.0177 27.4966 39.0697 27.508 39.1404C27.6067 39.8002 27.9004 40.1331 29.2384 40.1331C30.3043 40.1331 30.7575 39.8944 30.7575 39.334C30.7575 39.0115 30.6284 38.7718 28.9726 38.6112C27.5877 38.4757 26.732 38.1732 26.732 37.0751C26.732 36.0637 27.5928 35.4613 29.0346 35.4613C30.6537 35.4613 31.4563 36.0185 31.5576 37.2157C31.5614 37.2571 31.5462 37.2973 31.5183 37.3274C31.4905 37.3562 31.4512 37.3738 31.4107 37.3738H30.7537C30.6854 37.3738 30.6259 37.3261 30.612 37.2609C30.4537 36.5669 30.0714 36.3448 29.0321 36.3448C27.8687 36.3448 27.7333 36.7463 27.7333 37.0475C27.7333 37.4127 27.8928 37.5194 29.4625 37.7252C31.017 37.9298 31.7551 38.2184 31.7551 39.3014C31.7551 40.3932 30.836 41.0194 29.2334 41.0194M35.3933 34.884H35.5629C35.7022 34.884 35.7287 34.7874 35.7287 34.7309C35.7287 34.5828 35.6262 34.5828 35.5692 34.5828H35.3945L35.3933 34.884ZM35.1869 34.4096H35.5629C35.692 34.4096 35.9452 34.4096 35.9452 34.6958C35.9452 34.8953 35.8161 34.9367 35.7389 34.9618C35.8895 34.9719 35.8996 35.0697 35.9199 35.2078C35.93 35.2944 35.9465 35.4437 35.9769 35.4939H35.7452C35.7389 35.4437 35.7034 35.1676 35.7034 35.1526C35.6882 35.0911 35.6667 35.061 35.5895 35.061H35.3983V35.4952H35.1869V34.4096ZM34.735 34.9493C34.735 35.3985 35.1009 35.7625 35.5502 35.7625C36.0034 35.7625 36.3693 35.391 36.3693 34.9493C36.3693 34.4987 35.9984 34.1411 35.549 34.1411C35.1059 34.1411 34.7337 34.4937 34.7337 34.948M36.5263 34.9518C36.5263 35.4839 36.087 35.9181 35.5515 35.9181C35.0198 35.9181 34.5768 35.4889 34.5768 34.9518C34.5768 34.4046 35.03 33.9855 35.5515 33.9855C36.0769 33.9855 36.525 34.4059 36.525 34.9518" fill="#689F63"></path>
  <path fill-rule="evenodd" clip-rule="evenodd" d="M12.018 22.3633C12.018 22.1324 11.8952 21.9204 11.6942 21.8055L6.33231 18.7472C6.2418 18.6945 6.1404 18.6669 6.03761 18.6631H5.98216C5.87937 18.6669 5.77797 18.6945 5.68594 18.7472L0.324325 21.8055C0.124565 21.921 0 22.1331 0 22.364L0.0117729 30.6014C0.0117729 30.7156 0.0712705 30.8223 0.172543 30.8787C0.271284 30.939 0.395342 30.939 0.494083 30.8787L3.68163 29.0691C3.88291 28.9504 4.0057 28.7406 4.0057 28.5119V24.6637C4.0057 24.434 4.1285 24.2219 4.32914 24.1077L5.68619 23.3329C5.78696 23.2752 5.8976 23.2466 6.01027 23.2466C6.12116 23.2466 6.23433 23.2749 6.33231 23.3328L7.68873 24.1073C7.8895 24.2215 8.0128 24.4336 8.0128 24.6633V28.5113C8.0128 28.7397 8.13724 28.9505 8.33751 29.0685L11.523 30.8769C11.623 30.9358 11.7475 30.9358 11.8471 30.8769C11.9453 30.8204 12.0076 30.7137 12.0076 30.5995L12.018 22.3633ZM37.3194 26.6522C37.3194 26.7096 37.2886 26.7627 37.2384 26.791L35.3967 27.8434C35.3467 27.8719 35.285 27.8719 35.2351 27.8434L33.3932 26.791C33.3426 26.7625 33.3122 26.7095 33.3122 26.6522V24.5444C33.3122 24.487 33.3426 24.434 33.3919 24.4051L35.2326 23.351C35.2832 23.3221 35.3452 23.3221 35.3959 23.351L37.2378 24.4051C37.2884 24.434 37.3188 24.487 37.3188 24.5444L37.3194 26.6522ZM37.8169 11.0405C37.7164 10.985 37.5941 10.9865 37.4949 11.0439C37.3961 11.1016 37.3351 11.207 37.3351 11.3212V19.4784C37.3351 19.5587 37.2921 19.6327 37.2219 19.6729C37.1523 19.713 37.0656 19.713 36.9953 19.6729L35.6522 18.906C35.4522 18.7913 35.2058 18.7913 35.0051 18.906L29.6414 21.9747C29.441 22.0889 29.3174 22.301 29.3174 22.5294V28.6685C29.3174 28.8982 29.441 29.109 29.6414 29.2245L35.0051 32.2953C35.2053 32.4095 35.4519 32.4095 35.6528 32.2953L41.0165 29.2232C41.2165 29.1078 41.3405 28.8969 41.3405 28.6673V13.367C41.3405 13.1341 41.2127 12.9199 41.0076 12.8061L37.8169 11.0405ZM55.6779 24.489C55.8772 24.3743 55.9999 24.1624 55.9999 23.934V22.4462C55.9999 22.2173 55.8771 22.0061 55.6774 21.8909L50.348 18.8238C50.1467 18.7083 49.8998 18.7083 49.6986 18.8238L44.3362 21.8921C44.1349 22.0076 44.0121 22.2184 44.0121 22.4481V28.5847C44.0121 28.8156 44.1374 29.029 44.3387 29.1432L49.6669 32.1538C49.8631 32.2655 50.1037 32.2667 50.3024 32.1575L53.5254 30.3818C53.6267 30.3253 53.6912 30.2186 53.6912 30.1032C53.6912 29.9877 53.6292 29.8798 53.5279 29.8233L48.1326 26.7538C48.0314 26.6973 47.9693 26.5906 47.9693 26.4764V24.5513C47.9693 24.4364 48.0301 24.3305 48.1314 24.2732L49.81 23.3132C49.91 23.2555 50.0328 23.2555 50.1328 23.3132L51.8126 24.2732C51.9126 24.3297 51.9747 24.4364 51.9747 24.5506V26.064C51.9747 26.1782 52.0367 26.2849 52.1367 26.3426C52.2367 26.3991 52.3608 26.3991 52.4608 26.3414L55.6779 24.489Z" fill="#333333"></path>
  <path fill-rule="evenodd" clip-rule="evenodd" d="M49.9449 24.2018C49.9828 24.1796 50.0304 24.1796 50.0689 24.2018L51.0981 24.7904C51.1366 24.8125 51.1601 24.8532 51.1601 24.8971V26.0755C51.1601 26.1194 51.1366 26.1601 51.0981 26.1821L50.0689 26.7707C50.0304 26.7929 49.9828 26.7929 49.9449 26.7707L48.9163 26.1821C48.8771 26.1601 48.853 26.1194 48.853 26.0755V24.8971C48.853 24.8532 48.8758 24.8125 48.9151 24.7904L49.9449 24.2018Z" fill="#689F63"></path>
  <mask id="mask0_151_183" style="mask-type:luminance" maskUnits="userSpaceOnUse" x="14" y="18" width="13" height="15">
    <path d="M20.346 18.8544L15.0127 21.906C14.813 22.0202 14.6904 22.231 14.6904 22.4589V28.5665C14.6904 28.7945 14.813 29.0052 15.0127 29.1194L20.3464 32.1734C20.5457 32.2873 20.7916 32.2873 20.9907 32.1734L26.3235 29.1194C26.5222 29.0052 26.645 28.7944 26.645 28.5665V22.4589C26.645 22.231 26.5222 22.0202 26.3222 21.906L20.9902 18.8544C20.8902 18.7975 20.7788 18.769 20.6674 18.769C20.556 18.769 20.4446 18.7975 20.3446 18.8544" fill="white"></path>
  </mask>
  <g mask="url(#mask0_151_183)">
    <path d="M32.0345 21.3878L17.0063 14.0853L9.30078 29.6684L24.3286 36.9713L32.0345 21.3878Z" fill="url(#paint0_linear_151_183)"></path>
  </g>
  <mask id="mask1_151_183" style="mask-type:luminance" maskUnits="userSpaceOnUse" x="14" y="18" width="13" height="15">
    <path d="M14.8228 28.9543C14.8738 29.0199 14.9376 29.0767 15.0126 29.1194L19.5876 31.7391L20.3497 32.1733C20.4636 32.2386 20.5935 32.2662 20.7211 32.2568C20.7636 32.2534 20.8062 32.2455 20.8477 32.2338L26.4726 22.0236C26.4296 21.9772 26.3792 21.9383 26.3227 21.9056L22.8306 19.9065L20.9847 18.8536C20.9323 18.8235 20.8754 18.8022 20.8176 18.7871L14.8228 28.9543Z" fill="white"></path>
  </mask>
  <g mask="url(#mask1_151_183)">
    <path d="M8.3252 23.5478L18.9366 37.7854L32.9705 27.5067L22.3584 13.2694L8.3252 23.5478Z" fill="url(#paint1_linear_151_183)"></path>
  </g>
  <mask id="mask2_151_183" style="mask-type:luminance" maskUnits="userSpaceOnUse" x="15" y="18" width="12" height="15">
    <path d="M20.604 18.7726C20.5145 18.7814 20.427 18.809 20.3464 18.8545L15.0283 21.8973L20.7629 32.2518C20.8426 32.2406 20.9211 32.2142 20.992 32.1735L26.3253 29.1195C26.4898 29.0249 26.6025 28.8648 26.6367 28.6833L20.7907 18.7831C20.7477 18.7747 20.7046 18.7703 20.6603 18.7703C20.6426 18.7703 20.6249 18.7711 20.6072 18.7728" fill="white"></path>
  </mask>
  <g mask="url(#mask2_151_183)">
    <path d="M15.0283 18.7703V32.2521H26.6345V18.7703H15.0283Z" fill="url(#paint2_linear_151_183)"></path>
  </g>
  <defs>
    <linearGradient id="paint0_linear_151_183" x1="24.5159" y1="17.7251" x2="16.9184" y2="33.3594" gradientUnits="userSpaceOnUse">
      <stop offset="0.3" stop-color="#3E863D"></stop>
      <stop offset="0.5" stop-color="#55934F"></stop>
      <stop offset="0.8" stop-color="#5AAD45"></stop>
    </linearGradient>
    <linearGradient id="paint1_linear_151_183" x1="13.6945" y1="30.7482" x2="27.6424" y2="20.3523" gradientUnits="userSpaceOnUse">
      <stop offset="0.57" stop-color="#3E863D"></stop>
      <stop offset="0.72" stop-color="#619857"></stop>
      <stop offset="1" stop-color="#76AC64"></stop>
    </linearGradient>
    <linearGradient id="paint2_linear_151_183" x1="15.0322" y1="25.5116" x2="26.6367" y2="25.5116" gradientUnits="userSpaceOnUse">
      <stop offset="0.16" stop-color="#6BBF47"></stop>
      <stop offset="0.38" stop-color="#79B461"></stop>
      <stop offset="0.47" stop-color="#75AC64"></stop>
      <stop offset="0.7" stop-color="#659E5A"></stop>
      <stop offset="0.9" stop-color="#3E863D"></stop>
    </linearGradient>
  </defs>
</svg>
