<svg width="56" height="56" viewBox="0 0 56 56" fill="none" xmlns="http://www.w3.org/2000/svg">
<path d="M24.7287 14.3218L16.7907 10.3154L8.07568 14.6636L16.2307 18.7574L24.7287 14.3218Z" fill="#00ACC1"/>
<path d="M28.3698 16.1582L36.6928 20.3617L28.0572 24.697L19.8905 20.5962L28.3698 16.1582Z" fill="#00ACC1"/>
<path d="M39.487 10.375L48.0387 14.6637L40.3888 18.5032L32.0483 14.2962L39.487 10.375Z" fill="#00ACC1"/>
<path d="M35.805 8.52817L28.1062 4.6665L20.4913 8.4675L28.4247 12.468L35.805 8.52817Z" fill="#00ACC1"/>
<path d="M29.7874 41.679V52.1848L39.1125 47.5298L39.1044 37.0205L29.7874 41.679Z" fill="#00ACC1"/>
<path d="M39.0997 33.3516L39.0892 22.9531L29.7874 27.5766V37.9798L39.0997 33.3516Z" fill="#00ACC1"/>
<path d="M50.2962 31.4043V41.9498L42.3407 45.9188L42.3348 35.4211L50.2962 31.4043Z" fill="#00ACC1"/>
<path d="M50.2962 27.7152V17.3809L42.3255 21.3429L42.3325 31.7624L50.2962 27.7152Z" fill="#00ACC1"/>
<path d="M26.495 27.5767L20.2136 24.4173V38.0662C20.2136 38.0662 12.53 21.7188 11.8195 20.2512C11.7273 20.061 11.3516 19.8533 11.2548 19.802C9.86998 19.0787 5.83331 17.0347 5.83331 17.0347V41.1567L11.4181 44.1503V31.5363C11.4181 31.5363 19.019 46.143 19.0971 46.3028C19.1753 46.4627 19.9348 48.0003 20.7515 48.5417C21.8353 49.2627 26.4903 52.0603 26.4903 52.0603L26.495 27.5767Z" fill="#448AFF"/>
</svg>
