<?xml version="1.0" encoding="UTF-8"?>
<svg xmlns="http://www.w3.org/2000/svg" width="56" height="56" viewBox="0 0 56 56" fill="none">
  <rect width="56" height="56" fill="#E5E5E5"></rect>
  <path d="M22.4601 25.1631C20.4002 23.9738 18.7902 22.138 17.8799 19.9404C16.9697 17.7429 16.81 15.3063 17.4256 13.0087C18.0413 10.7112 19.3978 8.68092 21.2849 7.2329C23.172 5.78488 25.4842 5 27.8628 5C30.2415 5 32.5536 5.78488 34.4407 7.2329C36.3278 8.68092 37.6844 10.7112 38.3 13.0087C38.9156 15.3063 38.7559 17.7429 37.8457 19.9404C36.9354 22.138 35.3255 23.9738 33.2655 25.1631L30.0122 19.5282C30.8317 19.055 31.4722 18.3247 31.8343 17.4504C32.1964 16.5762 32.26 15.6068 32.015 14.6928C31.7701 13.7787 31.2304 12.9711 30.4797 12.395C29.729 11.8189 28.8091 11.5067 27.8628 11.5067C26.9165 11.5067 25.9967 11.8189 25.2459 12.395C24.4952 12.9711 23.9555 13.7787 23.7106 14.6928C23.4657 15.6068 23.5292 16.5762 23.8913 17.4504C24.2535 18.3247 24.894 19.055 25.7135 19.5282L22.4601 25.1631Z" fill="#FF0101"></path>
  <path d="M45.5989 27.7788C47.6588 28.9681 49.2688 30.8039 50.179 33.0015C51.0893 35.199 51.249 37.6356 50.6334 39.9332C50.0177 42.2307 48.6612 44.261 46.7741 45.709C44.887 47.157 42.5748 47.9419 40.1962 47.9419C37.8175 47.9419 35.5054 47.157 33.6183 45.709C31.7312 44.261 30.3746 42.2307 29.759 39.9332C29.1433 37.6356 29.303 35.199 30.2133 33.0015C31.1236 30.8039 32.7335 28.9681 34.7935 27.7788L38.0468 33.4137C37.2273 33.8869 36.5868 34.6172 36.2247 35.4915C35.8626 36.3657 35.799 37.3351 36.0439 38.2491C36.2889 39.1631 36.8285 39.9708 37.5793 40.5469C38.33 41.123 39.2499 41.4352 40.1962 41.4352C41.1425 41.4352 42.0623 41.123 42.8131 40.5469C43.5638 39.9708 44.1035 39.1631 44.3484 38.2491C44.5933 37.3351 44.5298 36.3657 44.1677 35.4915C43.8055 34.6172 43.165 33.8869 42.3455 33.4137L45.5989 27.7788Z" fill="#0101FF"></path>
  <path d="M26.5674 37.1365C26.5674 39.5152 25.7826 41.8273 24.3345 43.7144C22.8865 45.6015 20.8563 46.9581 18.5587 47.5737C16.2611 48.1894 13.8246 48.0297 11.627 47.1194C9.42944 46.2092 7.59363 44.5992 6.40432 42.5392C5.215 40.4793 4.73864 38.0844 5.04911 35.7262C5.35958 33.3679 6.43954 31.1779 8.12149 29.496C9.80344 27.814 11.9934 26.7341 14.3517 26.4236C16.7099 26.1131 19.1048 26.5895 21.1647 27.7788L17.9114 33.4138C17.0919 32.9406 16.1392 32.7511 15.201 32.8746C14.2628 32.9981 13.3915 33.4278 12.7224 34.0969C12.0533 34.766 11.6236 35.6373 11.5001 36.5755C11.3766 37.5136 11.5661 38.4664 12.0393 39.2859C12.5124 40.1054 13.2427 40.7459 14.117 41.108C14.9913 41.4702 15.9606 41.5337 16.8746 41.2888C17.7887 41.0439 18.5964 40.5042 19.1724 39.7534C19.7485 39.0027 20.0607 38.0828 20.0607 37.1365L26.5674 37.1365Z" fill="#01FF01"></path>
</svg>
