<svg width="56" height="56" viewBox="0 0 56 56" fill="none" xmlns="http://www.w3.org/2000/svg">
<path d="M28 51.3332C40.8866 51.3332 51.3333 40.8865 51.3333 27.9998C51.3333 15.1132 40.8866 4.6665 28 4.6665C15.1133 4.6665 4.66663 15.1132 4.66663 27.9998C4.66663 40.8865 15.1133 51.3332 28 51.3332Z" fill="#1565C0"/>
<path d="M14 31.4999H22.1667C22.1667 33.2394 22.7675 33.8332 24.5 33.8332H32.6667C33.6467 33.8332 35.1832 33.4984 35.8248 32.2979L43.0325 30.2002L43.1667 32.1579C41.9137 32.6327 40.8578 32.9139 38.9527 36.0394C36.3277 39.9209 35.9135 39.6665 32.7343 39.6665H22.1667C17.4067 39.6665 14 36.1665 14 31.4999Z" fill="white"/>
<path d="M22.3673 18.7065C26.5521 23.9367 22.1666 29.1669 22.1666 29.1669H15.1666L22.3673 18.7065Z" fill="white"/>
<path d="M24.5 31.5002H32.6667C32.6667 31.5002 42.2415 25.1442 30.7359 17.8222C27.5975 16.7757 23.3334 16.3335 23.3334 16.3335C23.3334 16.3335 30.3334 24.5002 24.5 31.5002Z" fill="white"/>
<path d="M29.1667 14C28.5227 14 28 14.5227 28 15.1667V35H30.3333V15.1667C30.3333 14.5227 29.8107 14 29.1667 14Z" fill="white"/>
</svg>
