<?xml version="1.0" encoding="UTF-8"?>
<svg xmlns="http://www.w3.org/2000/svg" width="29" height="30" viewBox="0 0 29 30" fill="none">
  <path fill-rule="evenodd" clip-rule="evenodd" d="M28.7107 23.8885L22.6764 29.7413C22.0917 30.3095 21.1346 29.8802 21.1346 29.0506V26.9278H13.8603C12.6297 26.9278 11.5128 27.4557 10.7108 28.3043C10.2713 28.769 9.44728 28.4735 9.44728 27.784V25.5135C9.44728 22.1887 12.0768 19.4686 15.2909 19.4686H21.1346V17.3459C21.1346 16.5163 22.0917 16.0869 22.6764 16.6552L28.7107 22.508C29.0964 22.8805 29.0964 23.5134 28.7107 23.8885ZM3.01036 0.000246329C1.35502 0.000246329 0 1.40192 0 3.11426V20.9282C0 22.6405 1.35502 24.0422 3.01036 24.0422H8.8162C9.47053 20.9699 12.1304 18.6552 15.2911 18.6552H20.3501V17.3457C20.3501 15.8064 22.1287 15.0095 23.2139 16.0614L23.242 16.0892V3.11402C23.242 1.40168 21.887 0 20.2317 0H15.5574V7.13106C15.5574 7.83444 14.72 8.18548 14.25 7.66268L11.6205 4.73933L8.991 7.66268C8.52101 8.18548 7.68358 7.83442 7.68358 7.13106V0L3.01036 0.000246329ZM4.3361 16.2786C3.72329 16.2786 3.22277 16.7976 3.22277 17.4303V18.6905C3.22277 19.3244 3.72451 19.8422 4.3361 19.8422H9.62691C10.2397 19.8422 10.7402 19.3232 10.7402 18.6905V17.4303C10.7402 16.7964 10.2385 16.2786 9.62691 16.2786H4.3361ZM8.46969 0.000246329H14.7724V7.05275L12.1734 4.16225C11.8744 3.83015 11.3678 3.82889 11.0687 4.16225L8.46969 7.05275L8.46846 0.000246329H8.46969Z" fill="#F7F8F9"></path>
</svg>
