<?xml version="1.0" encoding="UTF-8"?>
<svg xmlns="http://www.w3.org/2000/svg" width="28" height="28" viewBox="0 0 28 28" fill="none">
  <path d="M1.645 16.7085C1.75491 16.6934 1.86652 16.7192 1.95868 16.781C2.05084 16.8427 2.11713 16.9361 2.145 17.0435C2.26036 17.5018 2.40396 17.9525 2.575 18.393L6.755 14.2135C6.541 7.8365 14.241 4.367 18.8785 8.634L22.103 5.409C21.8502 5.20826 21.6648 4.93494 21.5719 4.62577C21.4789 4.31661 21.4828 3.98639 21.583 3.6795C21.6495 3.49496 21.7518 3.32535 21.8839 3.18035C22.016 3.03536 22.1754 2.91784 22.353 2.8345C22.2022 2.79024 22.0447 2.7733 21.888 2.7845C21.6808 2.79861 21.4788 2.85621 21.2953 2.95356C21.1118 3.05091 20.9509 3.18582 20.823 3.3495C20.7546 3.4375 20.6566 3.49767 20.5471 3.51883C20.4377 3.53998 20.3243 3.52067 20.228 3.4645C19.2355 2.87369 18.1629 2.42912 17.0435 2.1445C16.9358 2.11712 16.8421 2.05094 16.7803 1.95865C16.7184 1.86636 16.6929 1.75448 16.7085 1.6445C16.7323 1.43873 16.7125 1.23025 16.6504 1.03264C16.5883 0.835025 16.4852 0.652713 16.348 0.497574C16.2107 0.342435 16.0423 0.217947 15.8537 0.132216C15.6652 0.0464859 15.4606 0.0014359 15.2535 0H12.744C12.5368 0.00142809 12.3323 0.0464904 12.1436 0.132251C11.955 0.218011 11.7866 0.342546 11.6493 0.497741C11.5121 0.652936 11.409 0.835311 11.3469 1.03298C11.2849 1.23065 11.2651 1.43919 11.289 1.645C11.3057 1.75512 11.2805 1.8675 11.2186 1.96002C11.1566 2.05255 11.0622 2.11854 10.954 2.145C9.83456 2.42962 8.76202 2.87419 7.7695 3.465C7.67323 3.52117 7.55983 3.54048 7.45039 3.51933C7.34095 3.49818 7.24291 3.438 7.1745 3.35C7.04657 3.18692 6.88555 3.05277 6.70204 2.9564C6.51853 2.86003 6.31669 2.80361 6.10981 2.79085C5.90293 2.7781 5.69569 2.8093 5.50173 2.88241C5.30777 2.95551 5.1315 3.06886 4.9845 3.215L3.215 4.9845C3.06716 5.13058 2.95229 5.30662 2.87811 5.50078C2.80394 5.69494 2.77218 5.90272 2.78497 6.11017C2.79776 6.31762 2.8548 6.51993 2.95226 6.70351C3.04971 6.88709 3.18533 7.04768 3.35 7.1745C3.43801 7.24291 3.49818 7.34095 3.51933 7.45039C3.54048 7.55983 3.52118 7.67322 3.465 7.7695C2.87419 8.76202 2.42961 9.83456 2.145 10.954C2.11793 11.0618 2.05181 11.1558 1.95944 11.2177C1.86707 11.2796 1.75503 11.305 1.645 11.289C1.4389 11.2632 1.22967 11.2816 1.03123 11.343C0.832794 11.4043 0.649686 11.5072 0.494082 11.6448C0.338478 11.7824 0.213943 11.9515 0.128754 12.141C0.0435655 12.3304 -0.000324401 12.5358 1.8051e-06 12.7435V15.253C0.0012734 15.4602 0.0462306 15.6649 0.131939 15.8536C0.217648 16.0422 0.342182 16.2107 0.497413 16.348C0.652644 16.4853 0.835083 16.5884 1.03282 16.6504C1.23056 16.7124 1.43916 16.7325 1.645 16.7085ZM26.3525 11.2885C26.2425 11.3045 26.1304 11.2791 26.0381 11.2172C25.9457 11.1553 25.8796 11.0613 25.8525 10.9535C25.7372 10.4951 25.5936 10.0442 25.4225 9.6035L21.243 13.7835C21.459 20.1535 13.758 23.635 9.1245 19.363L4.3395 24.1375L4.9845 24.7825C5.1315 24.9286 5.30777 25.042 5.50173 25.1151C5.69569 25.1882 5.90293 25.2194 6.10981 25.2066C6.31669 25.1939 6.51853 25.1375 6.70204 25.0411C6.88555 24.9447 7.04657 24.8106 7.1745 24.6475C7.24291 24.5595 7.34095 24.4993 7.45039 24.4782C7.55983 24.457 7.67323 24.4763 7.7695 24.5325C8.76217 25.1234 9.83488 25.5679 10.9545 25.8525C11.0621 25.88 11.1558 25.9462 11.2176 26.0384C11.2794 26.1307 11.305 26.2425 11.2895 26.3525C11.2657 26.5582 11.2855 26.7667 11.3476 26.9642C11.4097 27.1618 11.5127 27.3441 11.6499 27.4992C11.7871 27.6544 11.9554 27.7789 12.1439 27.8646C12.3324 27.9504 12.5369 27.9955 12.744 27.997H15.254C15.4612 27.9956 15.6658 27.9505 15.8544 27.8647C16.043 27.779 16.2114 27.6545 16.3487 27.4993C16.4859 27.3441 16.589 27.1617 16.6511 26.964C16.7131 26.7663 16.7329 26.5578 16.709 26.352C16.6923 26.2419 16.7175 26.1295 16.7795 26.037C16.8414 25.9445 16.9358 25.8785 17.044 25.852C18.1633 25.5674 19.2356 25.1228 20.228 24.532C20.3243 24.4758 20.4377 24.4565 20.5471 24.4777C20.6566 24.4988 20.7546 24.559 20.823 24.647C20.9509 24.8101 21.112 24.9442 21.2955 25.0406C21.479 25.137 21.6808 25.1934 21.8877 25.2061C22.0946 25.2189 22.3018 25.1877 22.4958 25.1146C22.6897 25.0415 22.866 24.9281 23.013 24.782L24.783 23.0125C24.9308 22.8664 25.0457 22.6904 25.1199 22.4962C25.1941 22.3021 25.2258 22.0943 25.213 21.8868C25.2002 21.6794 25.1432 21.4771 25.0457 21.2935C24.9483 21.1099 24.8127 20.9493 24.648 20.8225C24.56 20.7541 24.4998 20.6561 24.4787 20.5466C24.4575 20.4372 24.4768 20.3238 24.533 20.2275C25.1238 19.235 25.5684 18.1624 25.853 17.043C25.881 16.9358 25.9472 16.8425 26.0392 16.7808C26.1313 16.7191 26.2427 16.6932 26.3525 16.708C26.5586 16.7338 26.7679 16.7153 26.9664 16.654C27.1649 16.5926 27.348 16.4897 27.5036 16.352C27.6592 16.2144 27.7837 16.0452 27.8689 15.8557C27.9541 15.6662 27.9979 15.4607 27.9975 15.253V12.7435C27.9962 12.5363 27.9511 12.3317 27.8654 12.143C27.7797 11.9544 27.6551 11.7859 27.4999 11.6486C27.3447 11.5114 27.1623 11.4083 26.9646 11.3463C26.7669 11.2842 26.5583 11.2645 26.3525 11.2885Z" fill="white"></path>
  <path d="M15.6896 17.2146C15.736 17.2616 15.7912 17.299 15.8522 17.3245C15.9131 17.35 15.9785 17.3631 16.0446 17.3631C16.1106 17.3631 16.176 17.35 16.237 17.3245C16.2979 17.299 16.3532 17.2616 16.3996 17.2146L25.8636 7.74957L26.7336 8.62457C26.8012 8.69074 26.8861 8.73657 26.9785 8.75684C27.071 8.7771 27.1672 8.77099 27.2564 8.7392C27.3455 8.7074 27.4239 8.65121 27.4826 8.57701C27.5414 8.50282 27.5781 8.41362 27.5886 8.31957L27.9986 3.82007C28.0045 3.74701 27.9944 3.67354 27.9691 3.60474C27.9438 3.53595 27.9038 3.47347 27.852 3.42164C27.8002 3.36981 27.7377 3.32986 27.6689 3.30455C27.6001 3.27924 27.5266 3.26919 27.4536 3.27507L22.9536 3.68507C22.8597 3.69475 22.7705 3.73064 22.696 3.78864C22.6216 3.84665 22.565 3.92442 22.5326 4.01308C22.5003 4.10173 22.4935 4.1977 22.5132 4.29C22.5328 4.38231 22.578 4.46723 22.6436 4.53507L23.5186 5.41007L16.0451 12.8846L13.1251 9.96457C13.0788 9.9183 13.0239 9.88158 12.9635 9.85654C12.903 9.83149 12.8383 9.8186 12.7728 9.8186C12.7074 9.8186 12.6426 9.83149 12.5822 9.85654C12.5217 9.88158 12.4668 9.9183 12.4206 9.96457L0.146577 22.2341C0.0550216 22.3296 0.00390625 22.4568 0.00390625 22.5891C0.00390625 22.7214 0.0550216 22.8486 0.146577 22.9441L1.78658 24.5791C1.83283 24.6254 1.88778 24.6622 1.94826 24.6873C2.00875 24.7124 2.07359 24.7253 2.13908 24.7253C2.20456 24.7253 2.2694 24.7124 2.32989 24.6873C2.39038 24.6622 2.44532 24.6254 2.49158 24.5791L12.7746 14.2996L15.6896 17.2146Z" fill="white"></path>
</svg>
