<svg width="56" height="56" viewBox="0 0 56 56" fill="none" xmlns="http://www.w3.org/2000/svg">
<rect width="56" height="56" fill="white"/>
<path d="M17.3727 34.9827C17.3639 35.0977 17.3205 35.2073 17.2482 35.2968C17.1759 35.3864 17.0782 35.4516 16.9681 35.4838C16.858 35.5161 16.7407 35.5137 16.6319 35.4772C16.5232 35.4406 16.4281 35.3716 16.3593 35.2793L8.25211 27.6826C8.15098 27.6169 8.07149 27.5226 8.02371 27.4114C7.97594 27.3003 7.96202 27.1774 7.98372 27.0583C8.00543 26.9392 8.06178 26.8292 8.14563 26.7423C8.22949 26.6555 8.33709 26.5956 8.45479 26.5703L19.8049 22.0175C20.3319 21.8062 20.6488 22.0842 20.5088 22.6404L17.3727 34.9827Z" fill="#404A72"/>
<path d="M10.6658 42.2015C10.2347 42.5723 9.79985 42.4203 9.70035 41.8567L7.48929 29.5107C7.38611 28.9472 7.64407 28.8063 8.06048 29.1956L15.7623 36.4252C15.8604 36.5131 15.9384 36.6212 15.9911 36.7422C16.0437 36.8633 16.0697 36.9943 16.0672 37.1264C16.0648 37.2584 16.034 37.3884 15.9769 37.5074C15.9198 37.6263 15.8378 37.7315 15.7365 37.8156L10.6658 42.2015Z" fill="#556195"/>
<path d="M19.9523 19.5597C20.0408 19.6444 20.1055 19.7511 20.1397 19.8691C20.174 19.987 20.1767 20.112 20.1475 20.2313C20.1184 20.3506 20.0583 20.46 19.9736 20.5485C19.8888 20.637 19.7823 20.7013 19.6649 20.735L8.38477 25.2767C7.85412 25.488 7.58511 25.2248 7.7841 24.6872L12.42 12.1521C12.4394 12.0382 12.4932 11.9331 12.5741 11.851C12.6549 11.7689 12.7589 11.7138 12.872 11.6931C12.985 11.6725 13.1016 11.6873 13.206 11.7356C13.3104 11.7839 13.3975 11.8633 13.4555 11.9631L19.9523 19.5597Z" fill="#556195"/>
<path d="M8.13052 40.1029C8.2337 40.6664 8.0605 40.7331 7.76201 40.2549L3.36937 33.4516C3.21852 33.1899 3.14404 32.8908 3.15447 32.5885C3.16489 32.2862 3.25981 31.993 3.42833 31.7424L5.38143 29.1064C5.72415 28.6467 6.08529 28.7357 6.18479 29.2955L8.13052 40.1029Z" fill="#556195"/>
<path d="M6.75227 23.9155C6.55328 24.4531 6.24373 24.4494 6.06316 23.9155L4.57069 19.3886C4.49008 19.0935 4.48817 18.7822 4.56515 18.486C4.64213 18.1899 4.79529 17.9194 5.00922 17.7017L10.3416 12.8412C10.7617 12.4704 10.9459 12.5817 10.7469 13.1193L6.75227 23.9155Z" fill="#556195"/>
<path d="M5.34459 25.6582C5.42714 25.9639 5.44388 26.2837 5.39367 26.5964C5.34346 26.909 5.22748 27.2073 5.05347 27.4712L3.52415 29.5437C3.18144 30.0034 2.95296 29.9145 3.00824 29.3435L3.73789 22.1769C3.79317 21.6059 3.99216 21.5837 4.16905 22.1287L5.34459 25.6582Z" fill="#556195"/>
<path d="M11.3624 9.51918C11.554 9.73792 11.3624 10.2347 10.9386 10.6314L8.52853 12.8077C8.10474 13.1785 8.03841 13.1303 8.37744 12.6706L10.3711 9.95295C10.7396 9.49322 11.1744 9.30414 11.3624 9.51918Z" fill="#556195"/>
<path d="M26.4971 47.6623C26.4526 47.7707 26.378 47.864 26.2823 47.931C26.1866 47.998 26.0738 48.0359 25.9573 48.0402C25.8408 48.0445 25.7255 48.015 25.6252 47.9552C25.5249 47.8954 25.4438 47.8079 25.3915 47.7031L19.1269 38.5233C19.0464 38.4412 18.9927 38.3363 18.973 38.2227C18.9533 38.1091 18.9685 37.9921 19.0165 37.8874C19.0645 37.7827 19.1432 37.6952 19.2419 37.6366C19.3406 37.578 19.4547 37.551 19.5691 37.5593L32.1684 36.2506C32.7322 36.1913 32.9607 36.5472 32.6733 37.044L26.4971 47.6623Z" fill="#556195"/>
<path d="M23.8696 47.6696C24.1939 48.1441 24.017 48.3777 23.4753 48.196L11.683 44.1549C11.1449 43.9695 11.0565 43.5135 11.4877 43.139L16.5326 38.7567C16.6301 38.6683 16.7454 38.602 16.8708 38.5627C16.9961 38.5233 17.1284 38.5116 17.2587 38.5285C17.3889 38.5454 17.514 38.5905 17.6252 38.6606C17.7365 38.7307 17.8314 38.8242 17.9034 38.9347L23.8696 47.6696Z" fill="#556195"/>
<path d="M32.4227 34.1187C32.7912 34.5525 32.6328 34.9529 32.0542 35.0122L19.2669 36.3395C19.1488 36.3644 19.0263 36.3569 18.912 36.3179C18.7978 36.2789 18.696 36.2098 18.6174 36.1178C18.5387 36.0258 18.486 35.9143 18.4648 35.7948C18.4436 35.6753 18.4546 35.5523 18.4967 35.4386L21.6954 22.9146C21.8391 22.3622 22.2592 22.2621 22.6277 22.6959L32.4227 34.1187Z" fill="#6ECCE0"/>
<path d="M41.6097 44.8483C41.7001 44.9205 41.7661 45.0191 41.7987 45.1305C41.8313 45.2419 41.8289 45.3608 41.7918 45.4707C41.7546 45.5807 41.6847 45.6765 41.5914 45.7449C41.4981 45.8133 41.3861 45.8511 41.2707 45.853L28.2623 48.604C27.7059 48.7227 27.4848 48.4149 27.7722 47.9181L33.9079 37.3628C33.9593 37.2519 34.0388 37.1565 34.1383 37.0861C34.2378 37.0157 34.3538 36.9727 34.475 36.9615C34.5961 36.9502 34.7181 36.9711 34.8287 37.022C34.9393 37.0729 35.0348 37.1521 35.1055 37.2516L41.6097 44.8483Z" fill="#556195"/>
<path d="M20.6894 51.8928C20.418 52.0224 20.1159 52.0727 19.8175 52.038C19.5191 52.0032 19.2364 51.8848 19.0016 51.6963L12.9507 46.3315C12.5269 45.9608 12.619 45.7939 13.157 45.9608L23.4753 49.494C24.017 49.6794 24.0465 50.0538 23.5453 50.3245L20.6894 51.8928Z" fill="#556195"/>
<path d="M34.7148 52.4041C34.4695 52.5845 34.1812 52.6966 33.8791 52.7292C33.5769 52.7617 33.2716 52.7135 32.9939 52.5895L28.7966 50.4355C28.288 50.1722 28.3285 49.8645 28.885 49.7459L40.0914 47.3731C40.6478 47.2544 40.7437 47.4546 40.3051 47.818L34.7148 52.4041Z" fill="#556195"/>
<path d="M22.9778 52.6826C22.4066 52.6566 22.355 52.4119 22.8562 52.1413L25.1114 50.9104C25.3989 50.7736 25.7123 50.7008 26.0303 50.6969C26.3483 50.6931 26.6633 50.7583 26.954 50.8881L30.2485 52.575C30.757 52.8346 30.7054 53.0237 30.1379 52.9977L22.9778 52.6826Z" fill="#556195"/>
<path d="M43.7028 47.2955C43.8907 47.5143 43.6365 47.9184 43.1353 48.1891L40.1651 49.7833C39.6603 50.0539 39.6087 49.9761 40.0509 49.6127L42.5567 47.5514C42.999 47.188 43.5149 47.0731 43.7028 47.2955Z" fill="#556195"/>
<path d="M36.1963 33.9852C35.6656 34.1965 35.3487 33.9185 35.4924 33.3623L38.6432 21.0238C38.6524 20.9086 38.6961 20.7989 38.7685 20.7093C38.841 20.6196 38.9388 20.5542 39.049 20.5216C39.1592 20.4891 39.2767 20.491 39.3858 20.527C39.4949 20.563 39.5906 20.6315 39.6602 20.7235L47.7675 28.3238C47.8703 28.3884 47.9514 28.4826 48.0003 28.5941C48.0493 28.7056 48.0637 28.8294 48.0419 28.9493C48.02 29.0692 47.9629 29.1797 47.8778 29.2665C47.7927 29.3534 47.6837 29.4124 47.5648 29.4361L36.1963 33.9852Z" fill="#404A72"/>
<path d="M48.5192 26.4924C48.6187 27.0559 48.3644 27.2005 47.948 26.8075L40.2425 19.5779C40.1446 19.4898 40.0669 19.3814 40.0146 19.2603C39.9623 19.1391 39.9366 19.008 39.9394 18.8759C39.9422 18.7438 39.9734 18.6139 40.0308 18.4951C40.0882 18.3763 40.1705 18.2714 40.272 18.1876L45.3316 13.8016C45.7628 13.4308 46.2013 13.5828 46.3008 14.1464L48.5192 26.4924Z" fill="#556195"/>
<path d="M43.5811 43.8549C43.5601 43.9684 43.5052 44.0726 43.4238 44.1538C43.3423 44.235 43.2382 44.2893 43.1253 44.3095C43.0124 44.3296 42.8961 44.3146 42.7918 44.2666C42.6876 44.2185 42.6004 44.1395 42.5419 44.0403L36.0414 36.4436C35.95 36.3596 35.8827 36.2524 35.8465 36.1332C35.8102 36.0141 35.8064 35.8873 35.8354 35.7662C35.8644 35.6451 35.9251 35.534 36.0112 35.4445C36.0974 35.3549 36.2058 35.2903 36.3252 35.2572L47.6163 30.7155C48.1433 30.5042 48.416 30.7674 48.217 31.305L43.5811 43.8549Z" fill="#556195"/>
<path d="M52.6245 22.5514C52.7751 22.813 52.8497 23.1119 52.8399 23.414C52.8302 23.7161 52.7364 24.0094 52.5692 24.2606L50.6125 26.8966C50.2734 27.3564 49.9123 27.2674 49.8091 26.7076L47.8671 15.9002C47.7676 15.3366 47.9371 15.2699 48.2356 15.7482L52.6245 22.5514Z" fill="#556195"/>
<path d="M51.4305 36.6142C51.5111 36.9094 51.513 37.2207 51.436 37.5168C51.359 37.813 51.2059 38.0835 50.9919 38.3011L45.6596 43.1617C45.2358 43.5324 45.0552 43.4212 45.2542 42.8873L49.2489 32.0873C49.4442 31.5498 49.7537 31.5535 49.9343 32.0873L51.4305 36.6142Z" fill="#556195"/>
<path d="M52.2559 33.8258C52.197 34.3968 52.0016 34.4153 51.8211 33.874L50.6529 30.3445C50.5692 30.0378 50.552 29.7166 50.6022 29.4025C50.6524 29.0885 50.769 28.789 50.944 28.5241L52.477 26.459C52.8161 25.9993 53.0482 26.0883 52.9893 26.6592L52.2559 33.8258Z" fill="#556195"/>
<path d="M45.6006 46.0496C45.2579 46.5131 44.8267 46.7059 44.6351 46.4834C44.4435 46.261 44.6351 45.7679 45.0589 45.3712L47.4579 43.1837C47.878 42.813 47.948 42.8612 47.609 43.3209L45.6006 46.0496Z" fill="#556195"/>
<path d="M36.8817 17.4792C36.9622 17.5613 37.0158 17.6662 37.0355 17.7798C37.0553 17.8934 37.0401 18.0104 36.992 18.1151C36.944 18.2198 36.8654 18.3073 36.7667 18.3659C36.6679 18.4245 36.5538 18.4515 36.4395 18.4431L23.8401 19.7519C23.2726 19.8112 23.0441 19.4553 23.3316 18.9622L29.5041 8.34018C29.5486 8.23177 29.6231 8.13851 29.7188 8.07152C29.8145 8.00453 29.9273 7.96662 30.0439 7.96232C30.1604 7.95803 30.2756 7.98752 30.3759 8.04728C30.4763 8.10704 30.5574 8.19456 30.6096 8.2994L36.8817 17.4792Z" fill="#404A72"/>
<path d="M39.4834 17.2458C39.3859 17.3343 39.2705 17.4005 39.1452 17.4399C39.0199 17.4793 38.8875 17.4909 38.7573 17.474C38.6271 17.4571 38.502 17.412 38.3907 17.3419C38.2795 17.2718 38.1846 17.1783 38.1126 17.0678L32.1132 8.33294C31.7926 7.85838 31.9695 7.6248 32.5075 7.81018L44.2998 11.8439C44.8379 12.0293 44.9263 12.4853 44.4952 12.8598L39.4834 17.2458Z" fill="#556195"/>
<path d="M34.2873 33.0881C34.1473 33.6442 33.7272 33.7406 33.355 33.3068L23.5784 21.8877C23.2099 21.4539 23.3647 21.0498 23.9469 20.9905L36.7306 19.6632C36.8489 19.6375 36.9719 19.6444 37.0867 19.683C37.2015 19.7216 37.3039 19.7906 37.383 19.8828C37.4622 19.9749 37.5152 20.0868 37.5366 20.2067C37.5579 20.3266 37.5468 20.4501 37.5044 20.5641L34.2873 33.0881Z" fill="#556195"/>
<path d="M22.0897 18.6401C22.0391 18.7519 21.96 18.8482 21.8605 18.9194C21.7609 18.9905 21.6445 19.0339 21.5229 19.0452C21.4014 19.0565 21.279 19.0353 21.1682 18.9837C21.0574 18.9321 20.9621 18.8519 20.892 18.7514L14.3915 11.1584C14.3013 11.0864 14.2354 10.9881 14.2027 10.877C14.17 10.766 14.1722 10.6475 14.2088 10.5377C14.2455 10.4278 14.3149 10.3321 14.4076 10.2633C14.5003 10.1946 14.6118 10.1563 14.7269 10.1537L27.7353 7.39897C28.2954 7.28033 28.5165 7.58806 28.2291 8.08486L22.0897 18.6401Z" fill="#556195"/>
<path d="M32.5038 6.49414C31.9657 6.30876 31.9363 5.93801 32.4374 5.66366L35.3192 4.11392C35.5906 3.98428 35.8927 3.93396 36.1911 3.9687C36.4895 4.00344 36.7722 4.12185 37.007 4.31042L43.0432 9.67518C43.4706 10.0459 43.3785 10.2128 42.8405 10.0459L32.5038 6.49414Z" fill="#556195"/>
<path d="M15.9246 8.6296C15.3681 8.74824 15.2723 8.56286 15.7145 8.19211L21.2827 3.59851C21.5287 3.41816 21.8176 3.30609 22.1203 3.27355C22.423 3.24102 22.7289 3.28915 23.0073 3.41314L27.2231 5.5709C27.7316 5.83043 27.6911 6.13815 27.1346 6.25679L15.9246 8.6296Z" fill="#556195"/>
<path d="M30.8897 5.09281C30.6022 5.22961 30.2888 5.30241 29.9708 5.30625C29.6528 5.31009 29.3378 5.24487 29.0471 5.11506L25.7305 3.42814C25.2515 3.16862 25.2994 2.97953 25.8706 3.00178L33.0234 3.33545C33.5872 3.37253 33.6461 3.6061 33.145 3.87675L30.8897 5.09281Z" fill="#556195"/>
<path d="M13.4444 8.45156C13.0022 8.82231 12.4863 8.92983 12.2984 8.71109C12.1104 8.49234 12.3647 8.08452 12.8659 7.81758L15.8361 6.21964C16.3372 5.94899 16.3888 6.02685 15.9503 6.39019L13.4444 8.45156Z" fill="#556195"/>
<path d="M9.63405 44.741C9.85147 44.5482 10.3453 44.741 10.7396 45.1636L12.9138 47.5772C13.2823 48.0036 13.2344 48.0703 12.7774 47.7292L10.0726 45.7086C9.60088 45.3675 9.40926 44.93 9.63405 44.741Z" fill="#556195"/>
<path d="M47.1741 12.2039C47.3952 12.0111 47.7968 12.2707 48.0622 12.7749L49.6504 15.7631C49.9158 16.2711 49.8421 16.3193 49.4809 15.8781L47.432 13.357C47.0709 12.9121 46.9566 12.393 47.1741 12.2039Z" fill="#556195"/>
<path d="M45.9396 10.2944C46.3966 10.6355 46.5919 11.0729 46.3708 11.262C46.1497 11.4511 45.6596 11.262 45.2653 10.8394L43.0911 8.42578C42.7225 7.99942 42.7705 7.93268 43.2274 8.27377L45.9396 10.2944Z" fill="#556195"/>
<path d="M8.56905 42.6459C8.93756 43.0908 9.04443 43.6099 8.82333 43.799C8.60222 43.988 8.20423 43.7322 7.93522 43.228L6.35062 40.2397C6.08161 39.7318 6.159 39.6836 6.52014 40.1248L8.56905 42.6459Z" fill="#556195"/>
</svg>
