<svg width="24" height="24" viewBox="0 0 24 24" fill="none" xmlns="http://www.w3.org/2000/svg">
<path d="M5.8125 3.21561C5.74687 3.22498 5.55 3.25779 5.36719 3.28592C3.74062 3.54842 2.30156 4.59373 1.5375 6.07029C1.15312 6.81561 1.04531 7.22811 0.73125 9.14529C0.2625 12.014 0.028125 14.4515 0.0234375 16.5469C0.0234375 17.7797 0.0234375 17.7937 0.15 18.1312C0.501562 19.1015 1.26562 19.9219 2.27344 20.4187C3.54375 21.0422 4.52344 20.9203 5.76562 19.9875C6.07031 19.7578 6.525 19.3265 7.0875 18.7359C8.65312 17.0906 9.22969 16.5375 9.5625 16.3594L9.86719 16.1953H12H14.1328L14.4375 16.3594C14.7656 16.5375 15.4125 17.1562 16.8891 18.7125C18.3 20.1984 19.1156 20.7281 20.1234 20.7984C21.4406 20.8922 23.1562 19.7765 23.7422 18.4453C23.9953 17.8781 24.0141 17.7094 23.9812 16.3125C23.9297 13.9172 23.6437 11.1984 23.1281 8.32029C22.9406 7.25154 22.7859 6.74061 22.4531 6.09842C21.9328 5.09529 21.0984 4.26092 20.1094 3.76404C19.3406 3.37498 18.6234 3.21561 17.6484 3.22029C16.9687 3.22029 16.8609 3.22967 16.4812 3.34686C16.2516 3.41717 15.8625 3.55779 15.6141 3.66561C14.3203 4.21873 14.0344 4.26561 12 4.26561C9.96094 4.26561 9.75 4.23279 8.475 3.69842C7.58906 3.32811 7.19531 3.22967 6.51562 3.21092C6.19219 3.20154 5.87812 3.20154 5.8125 3.21561ZM7.02187 6.82498C7.25156 6.91873 7.44375 7.10623 7.55156 7.33592C7.62656 7.49529 7.64062 7.64529 7.64062 8.25936V8.99998H8.33437C9.11719 8.99998 9.30937 9.03748 9.54375 9.24373C9.80156 9.46873 9.90469 9.71248 9.88125 10.0359C9.85781 10.3875 9.68437 10.6406 9.36094 10.8047C9.13594 10.9172 9.07969 10.9219 8.38125 10.9219H7.64062V11.6672C7.64062 12.389 7.63594 12.4172 7.50937 12.6609C7.22812 13.2047 6.49687 13.3359 6.05625 12.9234C5.79375 12.6797 5.74687 12.5015 5.72812 11.6812L5.70937 10.9219H5.02031C4.64531 10.9219 4.25625 10.8984 4.15312 10.8703C4.05 10.8422 3.89062 10.7344 3.77344 10.6219C3.31875 10.1672 3.42187 9.45467 3.98437 9.14061C4.18125 9.03279 4.24687 9.02342 4.95 9.00936L5.70937 8.99061L5.72812 8.23592C5.74219 7.56561 5.75625 7.45311 5.85 7.27967C6.075 6.84842 6.59531 6.64686 7.02187 6.82498ZM19.7109 6.90467C20.5453 7.32654 20.7375 8.39529 20.1 9.04217C19.7766 9.36561 19.5891 9.44529 19.125 9.44529C18.6609 9.44529 18.4453 9.35623 18.1406 9.04217C17.4328 8.31092 17.7797 7.12498 18.7969 6.79217C19.0125 6.72186 19.4625 6.77811 19.7109 6.90467ZM17.4141 10.6078C18.4125 11.1187 18.4125 12.5109 17.4187 13.0172C16.9125 13.275 16.2937 13.1812 15.8906 12.7922C15.1547 12.075 15.4172 10.8797 16.3922 10.5187C16.6594 10.4203 17.1281 10.4578 17.4141 10.6078Z" fill="white"/>
</svg>
