<?xml version="1.0" encoding="UTF-8"?>
<svg xmlns="http://www.w3.org/2000/svg" width="48" height="48" viewBox="0 0 48 48" fill="none">
  <path d="M24.5079 0L3.58992 12.076L3.08192 11.772L3.06592 11.788V13.092L4.21792 12.432L3.70992 12.144L24.6259 0.068L24.5079 0ZM27.8619 1.93L6.94392 14.008L6.51992 13.752L3.06592 15.752V16.954L7.56992 14.362L7.14792 14.126L28.0639 2.05L27.8619 1.93ZM31.2159 3.862L10.2959 15.938L9.95792 15.734L3.06592 19.714V20.834L10.9259 16.294L10.5859 16.108L31.4859 4.03L31.2159 3.862ZM34.5519 5.776L21.5279 13.33L20.8679 12.958L17.1399 15.108V15.87L13.6519 17.886L13.3979 17.734L3.06592 23.678V24.712L14.2779 18.224L14.0239 18.072L17.1399 16.276V17.072L19.4439 18.392L17.0199 19.8L16.8499 19.698L3.07992 27.658V28.574L17.6459 20.174L17.4779 20.07L19.8979 18.664L22.2539 20.036L17.1539 22.966V23.508L3.08392 31.64V32.454L17.1599 24.32V24.946L19.3439 26.2L3.08392 35.6V35.956L3.40592 36.142L19.9699 26.59L22.2239 27.894L17.1599 30.79V31.45L6.21792 37.77L6.75792 38.072L17.1579 32.06V32.822L23.9859 28.876L26.0339 30.062L24.0179 31.23V31.434L9.63792 39.734L10.0979 39.986L23.9999 31.96V32.164L26.8279 30.538L29.0639 31.824L25.4239 33.942L25.7439 34.128L24.0159 35.128V35.416L13.0759 41.734L13.4479 41.954L24.0159 35.856V36.144L26.6259 34.636L27.1339 34.942L30.7739 32.842V32.232L44.9339 24.068V23.034L30.7919 31.214V30.842L28.5559 29.556L44.9359 20.104V19.19L27.7759 29.098L25.7279 27.912L30.7919 24.966V24.286L44.9339 16.142V15.328L30.7919 23.492V22.984L28.5059 21.664L44.9339 12.178L44.9179 11.772L44.6119 11.602L27.8619 21.256L25.6939 20.02L30.7739 17.072V16.328L41.7839 9.976L41.2419 9.672L30.7579 15.718V15.092L23.9499 19.02L21.5939 17.648L38.3459 7.978L37.8879 7.724L21.1719 17.394L18.8839 16.074L22.5939 13.922L21.8999 13.516L34.9239 5.996L34.5519 5.776ZM23.9659 21L26.1339 22.254L23.7119 23.66L21.0519 25.184L18.8839 23.948L23.9659 21ZM26.7439 22.626L29.0479 23.946L23.9319 26.878L21.6619 25.574L23.9999 24.22L26.7439 22.626ZM44.9179 26.894L23.9999 38.972V39.362L16.5139 43.682L16.7839 43.85L23.9999 39.684V40.074L44.9179 28.014V26.894ZM44.9179 30.756L23.9999 42.834V43.326L19.9359 45.68L20.1379 45.78L23.9999 43.564V44.038L44.9179 31.978V30.756ZM44.9179 34.636L23.9999 46.694V47.286L23.3739 47.66L23.4919 47.71L23.9999 47.422V48L44.9179 35.94V34.636Z" fill="black"></path>
</svg>
