<svg width="16" height="16" viewBox="0 0 16 16" fill="none" xmlns="http://www.w3.org/2000/svg">
<path d="M15.1669 11.2788V13.2788C15.1677 13.4644 15.1297 13.6482 15.0553 13.8183C14.9809 13.9884 14.8718 14.1412 14.735 14.2667C14.5982 14.3922 14.4367 14.4878 14.2608 14.5472C14.0849 14.6067 13.8985 14.6288 13.7136 14.6121C11.6622 14.3892 9.69161 13.6882 7.96028 12.5654C6.3495 11.5419 4.98384 10.1762 3.96028 8.56543C2.8336 6.82623 2.13244 4.84609 1.91361 2.78543C1.89695 2.60107 1.91886 2.41527 1.97795 2.23985C2.03703 2.06442 2.13199 1.90322 2.25679 1.76651C2.38159 1.6298 2.53348 1.52057 2.70281 1.44578C2.87213 1.37099 3.05517 1.33227 3.24028 1.3321H5.24028C5.56382 1.32891 5.87748 1.44348 6.12279 1.65445C6.3681 1.86542 6.52833 2.15839 6.57361 2.47876C6.65803 3.11881 6.81458 3.74725 7.04028 4.3521C7.12998 4.59071 7.14939 4.85004 7.09622 5.09935C7.04305 5.34866 6.91952 5.5775 6.74028 5.75876L5.89361 6.60543C6.84265 8.27446 8.22458 9.65639 9.89361 10.6054L10.7403 9.75876C10.9215 9.57952 11.1504 9.456 11.3997 9.40283C11.649 9.34965 11.9083 9.36907 12.1469 9.45876C12.7518 9.68446 13.3802 9.84101 14.0203 9.92543C14.3441 9.97112 14.6399 10.1342 14.8513 10.3838C15.0627 10.6333 15.1751 10.9518 15.1669 11.2788Z" stroke="white" stroke-width="1.5" stroke-linecap="round" stroke-linejoin="round"/>
</svg>
