<?xml version="1.0" encoding="UTF-8"?>
<svg xmlns="http://www.w3.org/2000/svg" width="56" height="56" viewBox="0 0 56 56" fill="none">
  <path fill-rule="evenodd" clip-rule="evenodd" d="M34.0679 3.56826C33.5696 2.97948 32.7188 2.82822 32.0456 3.20878L31.4168 3.56432L31.4088 3.56285L31.4075 3.56956L24.6343 7.39891L26.2221 10.1668L30.6459 7.66578L29.5577 13.5185L32.7129 14.0967L33.8071 8.21197L37.0655 12.0624L39.5222 10.0134L34.562 4.15209L34.564 4.14105L34.5505 4.13858L34.0679 3.56826ZM24.5199 53C26.1515 53 27.4742 51.7201 27.4742 50.1412C27.4742 48.5624 26.1515 47.2824 24.5199 47.2824C22.8883 47.2824 21.5656 48.5624 21.5656 50.1412C21.5656 51.7201 22.8883 53 24.5199 53ZM28.493 37.3113L27.4287 43.2029L24.2705 42.6406L25.3281 36.7864L20.92 39.2993L19.3222 36.537L26.0678 32.6916L26.0693 32.6832L26.0794 32.685L26.7126 32.3241C27.3833 31.9418 28.2333 32.0888 28.734 32.6739L29.2227 33.2447L29.2275 33.2455L29.2268 33.2496L34.2315 39.0962L31.7865 41.1589L28.493 37.3113ZM31.0489 23.2479L29.9853 29.1357L26.8271 28.5735L27.8807 22.7412L23.4866 25.2335L21.8949 22.4678L28.619 18.6539L28.6259 18.6155L28.6721 18.6238L29.287 18.275C29.9576 17.8947 30.8059 18.0425 31.3058 18.627L31.7756 19.1763L31.7841 19.1778L31.7828 19.1848L36.7847 25.0328L34.3388 27.0945L31.0489 23.2479ZM10.3405 46.493L10.3228 46.5049L10.3084 46.4838L9.65407 46.2973C8.96173 46.1 8.50342 45.448 8.55563 44.7348L9.13725 36.7909L12.1747 37.01L11.8208 41.8432L16.553 38.657L18.2624 41.1591L13.6226 44.2831L18.3561 45.6325L17.5155 48.5384L10.3405 46.493ZM41.7239 49.794L41.7242 49.7945L41.7236 49.795L41.5101 50.4921C41.3042 51.1645 40.6587 51.6073 39.9524 51.5607L39.2852 51.5168L39.2426 51.5469L39.2178 51.5124L31.7813 51.0222L31.9831 48.0055L36.9392 48.3322L33.7075 43.8217L36.1891 42.0693L39.4939 46.6816L40.9242 42.0109L43.838 42.8903L41.7239 49.794ZM50.4405 33.3978L50.4499 33.3994L50.4478 33.4108L50.8022 34.0411C51.1654 34.687 51.0174 35.4977 50.449 35.976L49.9132 36.4269L49.9095 36.4479L49.8919 36.4448L44.1125 41.3085L42.0964 38.9473L45.899 35.7473L40.2052 34.7526L40.7456 31.7041L46.4807 32.706L44.0756 28.4286L46.7981 26.92L50.4405 33.3978ZM44.5801 20.1111L39.437 22.8585L37.9596 20.1327L43.0143 17.4326L38.3683 15.567L39.5375 12.6975L46.5825 15.5265L46.6139 15.5097L46.6342 15.5473L47.2719 15.8034C47.9563 16.0782 48.3527 16.792 48.2214 17.5133L48.0903 18.2336L48.0913 18.2355L48.0898 18.2363L46.7661 25.5078L43.6978 24.9574L44.5801 20.1111ZM10.1011 26.4961L15.8066 27.4599L15.2835 30.5113L9.52904 29.5393L11.983 33.8319L9.27131 35.3596L5.56077 28.8689L5.55814 28.8685L5.55869 28.8653L5.2032 28.2435C4.8355 27.6003 4.97759 26.7887 5.54235 26.3063L6.07531 25.8511L6.08116 25.817L6.10963 25.8218L11.8171 20.9475L13.8505 23.294L10.1011 26.4961ZM18.7195 13.2982L22.516 17.497L20.1957 19.5646L16.3113 15.2686L15.4069 20.1621L12.3401 19.6036L13.6793 12.3578L13.6726 12.3503L13.6823 12.3416L13.8177 11.609C13.9491 10.898 14.5588 10.372 15.2863 10.342L15.9573 10.3143L15.9928 10.2826L16.0191 10.3117L23.6405 9.99704L23.7701 13.0897L18.7195 13.2982Z" fill="black"></path>
</svg>
