<?xml version="1.0" encoding="UTF-8"?>
<svg xmlns="http://www.w3.org/2000/svg" width="28" height="20" viewBox="0 0 28 20" fill="none">
  <path d="M26 8H22C20.9 8 20 8.9 20 10V18C20 19.1 20.9 20 22 20H26C27.1 20 28 19.1 28 18V10C28 8.9 27.1 8 26 8ZM25 11C25 11.55 24.55 12 24 12C23.45 12 23 11.55 23 11V10H25V11ZM18 16.59L17.59 17H10.42L9.71 16.29C9.61689 16.1969 9.50614 16.1233 9.38422 16.0735C9.26231 16.0237 9.13169 15.9987 9 16H2C0.9 16 0 16.9 0 18C0 19.1 0.9 20 2 20H18.56C18.22 19.41 18 18.73 18 18V16.59Z" fill="white"></path>
  <path d="M26.0018 6V2C26.0018 0.900004 25.1018 4.10745e-06 24.0018 4.10745e-06H4.01177C3.74813 -0.000530713 3.487 0.0511678 3.24345 0.152114C2.99991 0.253061 2.77877 0.401255 2.59282 0.588139C2.40686 0.775023 2.25977 0.996894 2.16004 1.24094C2.06031 1.48499 2.00992 1.74637 2.01177 2.01L2.10177 13.99H9.01177C9.81177 13.99 10.5618 14.3 11.1318 14.87L11.2518 14.99H16.7718L16.8918 14.87C17.2118 14.55 17.6018 14.32 18.0118 14.17V9.99C18.0118 7.78 19.8018 5.99 22.0118 5.99H26.0118L26.0018 6Z" fill="white"></path>
</svg>
