<svg width="74" height="71" viewBox="0 0 74 71" fill="none" xmlns="http://www.w3.org/2000/svg">
<g clip-path="url(#clip0_133_8208)">
<path d="M36.6133 70.5915C43.6485 70.5915 49.3516 67.2648 49.3516 63.161C49.3516 59.0572 43.6485 55.7305 36.6133 55.7305C29.5781 55.7305 23.875 59.0572 23.875 63.161C23.875 67.2648 29.5781 70.5915 36.6133 70.5915Z" fill="#E6007A"/>
<path d="M36.6133 14.8611C43.6485 14.8611 49.3516 11.5343 49.3516 7.43053C49.3516 3.32676 43.6485 0 36.6133 0C29.5781 0 23.875 3.32676 23.875 7.43053C23.875 11.5343 29.5781 14.8611 36.6133 14.8611Z" fill="#E6007A"/>
<path d="M67.5587 53.0033C71.1148 46.9332 71.127 40.3308 67.586 38.2565C64.0451 36.1821 58.2918 39.4214 54.7357 45.4915C51.1796 51.5616 51.1674 58.164 54.7084 60.2383C58.2493 62.3127 64.0026 59.0735 67.5587 53.0033Z" fill="#E6007A"/>
<path d="M6.4374 53.0033C2.88133 46.9332 2.86909 40.3308 6.41006 38.2565C9.95103 36.1821 15.7043 39.4214 19.2604 45.4915C22.8165 51.5616 22.8287 58.164 19.2877 60.2383C15.7467 62.3127 9.99346 59.0735 6.4374 53.0033Z" fill="#E6007A"/>
<path d="M67.6329 17.6397C64.4942 11.3436 58.9724 7.72381 55.2996 9.55468C51.6268 11.3856 51.1939 17.9738 54.3325 24.2698C57.4712 30.5659 62.993 34.1857 66.6658 32.3548C70.3386 30.524 70.7715 23.9358 67.6329 17.6397Z" fill="#E6007A"/>
<path d="M5.68745 17.6397C8.82614 11.3436 14.3479 7.72381 18.0207 9.55468C21.6935 11.3856 22.1265 17.9738 18.9878 24.2698C15.8491 30.5659 10.3273 34.1857 6.65452 32.3548C2.98174 30.524 2.54877 23.9358 5.68745 17.6397Z" fill="#E6007A"/>
</g>
<defs>
<clipPath id="clip0_133_8208">
<rect width="74" height="71" fill="white"/>
</clipPath>
</defs>
</svg>
