<?xml version="1.0" encoding="UTF-8"?>
<svg xmlns="http://www.w3.org/2000/svg" width="32" height="32" viewBox="0 0 32 32" fill="none">
  <path d="M26.1539 16.5396L25.5273 14.7592L18.7685 21.5178C18.1081 22.1795 17.2284 22.5432 16.2937 22.5432C15.3593 22.5432 14.4796 22.1795 13.8192 21.5178L8.86047 16.5594C8.19888 15.8991 7.8348 15.0194 7.8348 14.085C7.8348 13.1504 8.19888 12.2707 8.86047 11.6104C9.52087 10.949 10.4006 10.585 11.335 10.585C12.2697 10.585 13.1494 10.949 13.8098 11.6104L16.2937 14.0931L22.9489 7.43857L22.5007 6.16686L22.2943 4.93256C22.1649 4.14151 21.6432 3.48586 20.9023 3.17889C20.1579 2.8698 19.3274 2.9655 18.6751 3.43336L15.4328 5.7806L12.1541 3.4274C11.4961 2.9631 10.6631 2.87084 9.92333 3.1813C9.1884 3.4893 8.67146 4.1438 8.54195 4.93021L7.90727 8.88161L3.93213 9.54191C3.14234 9.67152 2.48665 10.193 2.17863 10.9339C1.87056 11.6771 1.96627 12.51 2.43409 13.1622L4.78049 16.4043L2.42709 19.6826C1.96386 20.3406 1.87056 21.1748 2.18098 21.9133C2.49009 22.6483 3.14338 23.1651 3.92977 23.2948L7.88162 23.9305L8.54195 27.9041C8.67037 28.6928 9.1884 29.3474 9.92333 29.6554C10.6642 29.9656 11.4984 29.8735 12.1624 29.4033L15.4048 27.0561L18.6751 29.4033C19.0753 29.6892 19.5408 29.8361 20.0134 29.8361C20.3131 29.8361 20.6141 29.7778 20.9023 29.6578C21.6444 29.3497 22.1649 28.6941 22.2943 27.9065L22.9301 23.9551L26.9039 23.2948C27.6927 23.1651 28.3462 22.6484 28.6554 21.9132C28.9658 21.1748 28.8735 20.3406 28.4032 19.6745L26.1539 16.5396Z" fill="white"></path>
  <path d="M16.2897 20.2112C15.9911 20.2112 15.6924 20.097 15.4649 19.8694L10.5062 14.911C10.05 14.4549 10.05 13.7175 10.5062 13.2614C10.9625 12.8051 11.6998 12.8051 12.1561 13.2614L16.2897 17.3948L28.0072 5.67801C28.4635 5.22191 29.2008 5.22191 29.6571 5.67801C30.1132 6.1341 30.1132 6.87151 29.6571 7.32761L17.1146 19.8695C17.0064 19.9779 16.8778 20.064 16.7362 20.1226C16.5947 20.1813 16.4429 20.2114 16.2897 20.2113V20.2112Z" fill="white"></path>
</svg>
