<?xml version="1.0" encoding="UTF-8"?>
<svg xmlns="http://www.w3.org/2000/svg" width="22" height="22" viewBox="0 0 22 22" fill="none">
  <path d="M6.34526 2.75394C6.72138 2.73293 7.25462 2.74912 7.6387 2.7491L10.0855 2.74916H12.1313C12.4345 2.74905 12.9397 2.73438 13.2289 2.75642C13.1808 2.83139 13.1169 2.97913 13.0805 3.06558C12.8782 3.5407 12.7595 4.04716 12.7296 4.56267C12.6628 5.75179 13.0749 6.91814 13.8739 7.80141C14.5285 8.52824 15.4037 9.02012 16.3649 9.20148C16.6617 9.25639 16.8875 9.26703 17.1895 9.28362L17.1904 16.3517L17.1903 18.3798C17.1904 18.6504 17.2067 19.2309 17.168 19.475C17.1205 19.7584 16.9854 20.0197 16.7818 20.2223C16.4648 20.539 16.0993 20.6375 15.6653 20.6284C15.4072 20.623 15.1382 20.628 14.8793 20.6278L12.7264 20.6283H5.73186L3.6612 20.6285C3.43781 20.6286 3.20638 20.6249 2.98393 20.6289C2.55844 20.6365 2.23591 20.5937 1.89058 20.3194C1.60894 20.0957 1.42841 19.7687 1.38912 19.4111C1.36776 19.2141 1.37716 18.886 1.37746 18.6764L1.37794 17.4322L1.3775 13.2866L1.37736 9.071L1.37743 7.77488C1.37746 7.57644 1.36756 7.23704 1.38751 7.04899C1.41495 6.77729 1.52262 6.51988 1.69683 6.30959C1.82324 6.15626 2.25641 5.81351 2.43113 5.66827L3.75965 4.5602L4.98755 3.53593C5.44232 3.15552 5.72242 2.81869 6.34526 2.75394ZM6.08488 16.8953C6.19374 17.0734 6.32875 17.2654 6.44672 17.4393C6.69026 17.7984 6.85518 18.1417 7.31164 18.2545C7.58009 18.3198 7.8635 18.2758 8.09949 18.1321C8.33771 17.9863 8.4644 17.7612 8.61702 17.5361C8.7607 17.3242 8.89879 17.1075 9.04783 16.8994C9.35845 17.172 9.74914 17.6802 10.1054 17.81C10.1898 17.8389 10.31 17.8674 10.3993 17.8688C11.0633 17.8788 11.7333 17.8773 12.3971 17.8705C12.8863 17.8656 13.2151 17.3151 12.99 16.8817C12.7827 16.4753 12.4255 16.5016 12.0351 16.5023L11.1155 16.5042C10.9822 16.5046 10.715 16.5129 10.593 16.4939C10.405 16.3135 10.214 16.1137 10.0311 15.9291C9.69926 15.5941 9.47696 15.3162 8.96697 15.3316C8.39917 15.3487 8.20885 15.6622 7.92863 16.0867L7.56151 16.6397C7.4497 16.465 7.33607 16.2915 7.22065 16.1192C6.93137 15.6827 6.71234 15.3116 6.11806 15.3344C5.70872 15.3419 5.51684 15.4982 5.23767 15.7849C4.95313 16.0771 4.6539 16.3665 4.36591 16.6565C4.20952 16.8138 4.12129 16.9873 4.12571 17.2108C4.12948 17.3889 4.20493 17.5578 4.33497 17.6795C4.47748 17.8154 4.64084 17.8807 4.83795 17.8732C4.94914 17.8691 5.05765 17.838 5.15413 17.7826C5.29218 17.7023 5.3918 17.5778 5.50466 17.4703C5.69115 17.2925 5.89086 17.0597 6.08488 16.8953ZM13.401 10.998C13.4588 10.9935 13.5133 10.9895 13.5697 10.9758C13.8877 10.899 14.1182 10.5889 14.0916 10.2629C14.0768 10.0759 13.987 9.9029 13.8426 9.7831C13.6879 9.65421 13.5441 9.63251 13.3472 9.6303C12.9 9.62527 12.4503 9.62787 12.0031 9.62785L9.4203 9.62796L6.6378 9.62824C6.17424 9.62819 5.64075 9.61577 5.18256 9.62953C4.94662 9.64706 4.80319 9.68348 4.63345 9.8656C4.51626 9.99135 4.46247 10.2024 4.47593 10.3729C4.49023 10.5529 4.57676 10.7195 4.71581 10.8346C4.77237 10.8821 4.87997 10.9514 4.95176 10.9666C5.02788 10.983 5.12895 10.997 5.20668 10.9978C5.60159 11.0013 5.99681 10.9997 6.39179 10.9997H8.69469L11.787 10.9993C12.3162 10.9992 12.8737 11.0076 13.401 10.998ZM13.401 13.748C13.4588 13.7435 13.5133 13.7395 13.5697 13.7258C13.8877 13.649 14.1182 13.3388 14.0916 13.0129C14.0768 12.8259 13.987 12.653 13.8426 12.5331C13.6879 12.4043 13.5441 12.3825 13.3472 12.3803C12.8979 12.3754 12.4461 12.3778 11.9969 12.3778L9.41551 12.378L6.63362 12.3783C6.17138 12.3782 5.63929 12.3658 5.18256 12.3796C4.94378 12.3973 4.79596 12.4356 4.62625 12.6239C4.51217 12.7505 4.46064 12.9647 4.47692 13.1342C4.49434 13.314 4.58369 13.479 4.72466 13.5919C4.77953 13.6364 4.88321 13.7023 4.95176 13.7166C5.02859 13.7329 5.12825 13.747 5.20668 13.7478C5.60133 13.7513 5.9963 13.7497 6.39102 13.7497H8.67299L11.7863 13.7493C12.3166 13.7492 12.8724 13.7574 13.401 13.748ZM10.651 8.24806C10.8747 8.22989 11.0333 8.17458 11.1825 7.99748C11.3004 7.86038 11.3573 7.68127 11.3403 7.50131C11.3229 7.31524 11.2309 7.14415 11.0853 7.02696C10.9763 6.93929 10.8846 6.90261 10.7467 6.89119C10.4932 6.87018 10.2239 6.87785 9.96872 6.8778L8.60202 6.87773L6.34041 6.87802C5.97583 6.87808 5.54266 6.86701 5.18256 6.87953C4.95813 6.89637 4.79463 6.93201 4.63901 7.11174C4.51906 7.25174 4.45958 7.43363 4.47363 7.61745C4.48917 7.80219 4.579 7.97271 4.72258 8.08998C4.83178 8.18038 4.94041 8.22743 5.08087 8.23866C5.3045 8.25651 5.54542 8.2498 5.77097 8.24983L7.00876 8.24981L9.38571 8.24927C9.80297 8.2492 10.2358 8.25569 10.651 8.24806Z" fill="white"></path>
  <path d="M17.018 1.37924C18.9122 1.28595 20.524 2.74446 20.6198 4.63848C20.7155 6.53249 19.2592 8.14619 17.3652 8.24449C15.4678 8.34299 13.8505 6.88327 13.7545 4.98571C13.6585 3.08815 15.1203 1.4727 17.018 1.37924ZM16.4312 5.13677C16.0771 4.82395 15.8118 4.34456 15.2591 4.51191C14.9508 4.60527 14.761 4.90838 14.7904 5.22645C14.8003 5.32754 14.8331 5.42503 14.8865 5.51148C14.9757 5.6567 15.4184 6.07746 15.5685 6.22628L15.859 6.51942C16.051 6.7124 16.2008 6.87053 16.496 6.8715C16.6752 6.8727 16.8475 6.80254 16.9749 6.6765C17.0757 6.57534 17.2737 6.29844 17.3663 6.17502L18.0598 5.25083L18.777 4.29455C18.8998 4.13079 19.0475 3.95201 19.1526 3.7783C19.4411 3.30188 19.0406 2.68259 18.4839 2.76364C18.2519 2.79326 18.1172 2.87949 17.9792 3.06763C17.6889 3.46304 17.3819 3.855 17.0926 4.25015C16.8873 4.53049 16.622 4.85433 16.4312 5.13677Z" fill="white"></path>
</svg>
