<?xml version="1.0" encoding="UTF-8"?>
<svg xmlns="http://www.w3.org/2000/svg" width="30" height="33" viewBox="0 0 30 33" fill="none">
  <path d="M18.4286 21.4249L16.7989 22.8391L16.4708 22.3884C16.3149 22.1836 16.0849 22.048 15.8302 22.0107C15.5755 21.9734 15.3164 22.0373 15.1082 22.1888C14.9001 22.3403 14.7596 22.5672 14.7168 22.8211C14.674 23.0749 14.7324 23.3354 14.8794 23.5467L15.8386 24.8636C15.9297 24.9894 16.0494 25.0917 16.1879 25.1621C16.3263 25.2324 16.4795 25.2688 16.6348 25.2683C16.8719 25.2682 17.1009 25.1828 17.2801 25.0277L19.7192 22.9102C19.8216 22.8269 19.9062 22.7239 19.968 22.6073C20.0297 22.4907 20.0674 22.3628 20.0788 22.2313C20.0902 22.0999 20.075 21.9674 20.0342 21.8419C19.9933 21.7164 19.9277 21.6004 19.8411 21.5008C19.7546 21.4012 19.6489 21.32 19.5303 21.2621C19.4117 21.2041 19.2827 21.1706 19.151 21.1635C19.0192 21.1564 18.8873 21.1759 18.7632 21.2208C18.6391 21.2657 18.5253 21.3351 18.4286 21.4249Z" fill="#9810FA"></path>
  <path d="M26.1527 1.69648e-07H8.55969C7.59658 -0.000293752 6.67266 0.381345 5.99052 1.06123C5.30837 1.74112 4.92368 2.66377 4.92078 3.62687V4.92625H3.62906C2.66693 4.92741 1.74454 5.31013 1.06421 5.99046C0.383876 6.67079 0.0011578 7.59318 0 8.55531V28.9636C0.0011578 29.9257 0.383876 30.8481 1.06421 31.5285C1.74454 32.2088 2.66693 32.5915 3.62906 32.5927H21.222C22.1844 32.5918 23.107 32.2092 23.7876 31.5288C24.4682 30.8485 24.851 29.9259 24.8522 28.9636V27.6697H26.1516C27.1146 27.6671 28.0372 27.2826 28.7171 26.6007C29.3971 25.9187 29.7787 24.9949 29.7784 24.0319V3.62797C29.7779 2.66633 29.3957 1.74421 28.716 1.06402C28.0362 0.383832 27.1143 0.00115895 26.1527 1.69648e-07ZM22.8834 28.9647C22.8829 29.405 22.7076 29.8272 22.3961 30.1385C22.0846 30.4497 21.6624 30.6247 21.222 30.625H3.62906C3.18871 30.6247 2.76646 30.4497 2.45498 30.1385C2.1435 29.8272 1.96824 29.405 1.96766 28.9647V8.55641C1.96795 8.11586 2.14308 7.69345 2.45459 7.38193C2.7661 7.07042 3.18852 6.89529 3.62906 6.895H21.222C21.6626 6.89529 22.085 7.07042 22.3965 7.38193C22.708 7.69345 22.8831 8.11586 22.8834 8.55641V28.9647ZM27.8097 24.033C27.8097 24.9539 27.0659 25.702 26.1516 25.702H24.8522V8.55641C24.851 7.59409 24.4682 6.67153 23.7876 5.99116C23.107 5.3108 22.1844 4.92821 21.222 4.92734H6.88953V3.62797C6.88953 2.71359 7.63875 1.96875 8.55969 1.96875H26.1527C27.067 1.96875 27.8108 2.7125 27.8108 3.62797L27.8097 24.033Z" fill="#9810FA"></path>
  <path d="M19.0738 17.0887H5.7771C5.51603 17.0887 5.26565 17.1924 5.08104 17.377C4.89644 17.5616 4.79272 17.812 4.79272 18.073C4.79272 18.3341 4.89644 18.5845 5.08104 18.7691C5.26565 18.9537 5.51603 19.0574 5.7771 19.0574H19.0738C19.3349 19.0574 19.5853 18.9537 19.7699 18.7691C19.9545 18.5845 20.0582 18.3341 20.0582 18.073C20.0582 17.812 19.9545 17.5616 19.7699 17.377C19.5853 17.1924 19.3349 17.0887 19.0738 17.0887ZM12.2116 22.2413H5.7771C5.51603 22.2413 5.26565 22.345 5.08104 22.5296C4.89644 22.7143 4.79272 22.9646 4.79272 23.2257C4.79272 23.4868 4.89644 23.7372 5.08104 23.9218C5.26565 24.1064 5.51603 24.2101 5.7771 24.2101H12.2116C12.4727 24.2101 12.7231 24.1064 12.9077 23.9218C13.0923 23.7372 13.196 23.4868 13.196 23.2257C13.196 22.9646 13.0923 22.7143 12.9077 22.5296C12.7231 22.345 12.4727 22.2413 12.2116 22.2413ZM10.0952 11.9863H14.7557C15.0168 11.9863 15.2671 11.8826 15.4518 11.698C15.6364 11.5134 15.7401 11.263 15.7401 11.002C15.7401 10.7409 15.6364 10.4905 15.4518 10.3059C15.2671 10.1213 15.0168 10.0176 14.7557 10.0176H10.0952C9.83415 10.0176 9.58377 10.1213 9.39917 10.3059C9.21456 10.4905 9.11085 10.7409 9.11085 11.002C9.11085 11.263 9.21456 11.5134 9.39917 11.698C9.58377 11.8826 9.83415 11.9863 10.0952 11.9863Z" fill="#9810FA"></path>
</svg>
