<svg width="56" height="56" viewBox="0 0 56 56" fill="none" xmlns="http://www.w3.org/2000/svg">
<g clip-path="url(#clip0_4014_1367)">
<path d="M28 56C43.464 56 56 43.464 56 28C56 12.536 43.464 0 28 0C12.536 0 0 12.536 0 28C0 43.464 12.536 56 28 56Z" fill="#E6DAFE"/>
<path d="M33.1844 24.9923C33.1844 27.2563 31.3578 29.0938 29.0937 29.0938V33.1954C33.6109 33.1954 37.264 29.5313 37.264 25.0032C37.264 20.4751 33.6 16.811 29.0937 16.811C27.6062 16.811 26.2062 17.2048 25.0031 17.9048C22.564 19.3157 20.9125 21.9735 20.9125 25.0032V45.4892L24.5875 49.1751L25.0031 49.5907V24.9923C25.0031 22.7282 26.8297 20.8907 29.0937 20.8907C31.3578 20.8907 33.1844 22.7392 33.1844 24.9923Z" fill="black"/>
<path d="M29.0938 8.60791C26.1188 8.60791 23.3297 9.40635 20.9234 10.8063C19.3813 11.6923 18.0031 12.8298 16.8328 14.1642C14.2953 17.0517 12.7422 20.847 12.7422 25.0032V37.297L16.8328 41.3985V24.9923C16.8328 21.3501 18.4078 18.0798 20.9234 15.8267C22.1047 14.7657 23.4828 13.9345 25.0141 13.3985C26.2938 12.9392 27.6719 12.6985 29.1047 12.6985C35.875 12.6985 41.3656 18.2001 41.3656 24.9923C41.3656 31.7845 35.8641 37.286 29.0938 37.286V41.3876C38.1172 41.3876 45.4344 34.0485 45.4344 25.0032C45.4344 15.9579 38.1172 8.60791 29.0938 8.60791Z" fill="black"/>
</g>
<defs>
<clipPath id="clip0_4014_1367">
<rect width="56" height="56" fill="white"/>
</clipPath>
</defs>
</svg>
