<?xml version="1.0" encoding="UTF-8"?>
<svg xmlns="http://www.w3.org/2000/svg" width="56" height="56" viewBox="0 0 56 56" fill="none">
  <g clip-path="url(#clip0_3100_5370)">
    <path d="M27.9082 1C15.1588 1 15.0218 5.94885 15.0218 6.96749C15.0218 8.51287 15.0218 13.15 15.0218 13.15H28.1536V15.0061C28.1536 15.0061 14.4809 15.0061 9.80593 15.0061C5.90369 15.0061 1 17.3787 1 27.8925C1 37.5501 4.82516 41.285 8.68567 41.285C9.83194 41.285 13.2727 41.285 13.2727 41.285C13.2727 41.285 13.2727 36.4912 13.2727 34.8418C13.2727 32.1462 14.6085 27.1561 20.8357 27.1561C28.646 27.1561 30.6396 27.1561 33.86 27.1561C35.7755 27.1561 41.1775 26.3235 41.1775 20.0841C41.1775 13.4804 41.1775 11.3017 41.1775 8.19476C41.178 6.64693 40.9134 1 27.9082 1ZM20.6673 5.15751C21.9741 5.15751 23.03 6.21296 23.03 7.52025C23.03 8.82656 21.9741 9.883 20.6673 9.883C19.3605 9.883 18.3045 8.82705 18.3045 7.52025C18.3045 6.21296 19.3605 5.15751 20.6673 5.15751Z" fill="url(#paint0_linear_3100_5370)"></path>
    <path d="M28.0918 54.9999C40.8353 54.9999 40.9939 49.9578 40.9939 49.0325C40.9939 47.4871 40.9939 42.8499 40.9939 42.8499H27.8463V40.9938C27.8463 40.9938 41.6075 40.9938 46.1941 40.9938C50.1258 40.9938 55 38.5619 55 28.1075C55 16.6585 49.8268 14.715 47.3143 14.715C46.1676 14.715 42.7273 14.715 42.7273 14.715C42.7273 14.715 42.7273 19.7301 42.7273 21.1581C42.7273 23.8537 41.4357 28.8438 35.1643 28.8438C27.354 28.8438 25.6034 28.8438 22.1395 28.8438C20.2289 28.8438 14.822 29.7746 14.822 35.9159C14.822 43.0218 14.822 44.8823 14.822 47.8052C14.822 50.3726 16.391 54.9999 28.0918 54.9999ZM35.3332 50.8424C34.0264 50.8424 32.9705 49.7865 32.9705 48.4797C32.9705 47.1729 34.0259 46.1169 35.3332 46.1169C36.6395 46.1169 37.696 47.1729 37.696 48.4797C37.696 49.7865 36.6395 50.8424 35.3332 50.8424Z" fill="url(#paint1_linear_3100_5370)"></path>
  </g>
  <defs>
    <linearGradient id="paint0_linear_3100_5370" x1="6.06053" y1="5.82377" x2="32.9022" y2="32.7552" gradientUnits="userSpaceOnUse">
      <stop stop-color="#387EB8"></stop>
      <stop offset="1" stop-color="#366994"></stop>
    </linearGradient>
    <linearGradient id="paint1_linear_3100_5370" x1="22.3727" y1="23.0305" x2="51.1508" y2="50.6014" gradientUnits="userSpaceOnUse">
      <stop stop-color="#FFE052"></stop>
      <stop offset="1" stop-color="#FFC331"></stop>
    </linearGradient>
    <clipPath id="clip0_3100_5370">
      <rect width="54" height="54" fill="white" transform="translate(1 1)"></rect>
    </clipPath>
  </defs>
</svg>
