<?xml version="1.0" encoding="UTF-8"?>
<svg xmlns="http://www.w3.org/2000/svg" width="56" height="56" viewBox="0 0 56 56" fill="none">
  <rect width="56" height="56" fill="#EE4C2C"></rect>
  <g clip-path="url(#clip0_4003_2)">
    <path d="M42.1085 17.947L38.5205 21.5106C44.412 27.3622 44.412 36.7774 38.5205 42.5409C32.629 48.3924 23.1495 48.3924 17.3466 42.5409C11.4552 36.6894 11.4552 27.2742 17.3466 21.5106L26.6932 12.2274L28.0222 10.9075V3.91211L13.9358 17.903C6.09524 25.6903 6.09524 38.2733 13.9358 46.0606C21.7763 53.848 34.4452 53.848 42.1528 46.0606C49.9491 38.2733 49.9491 25.7783 42.1085 17.947Z" fill="white"></path>
    <path d="M35.0654 17.111C36.5088 17.111 37.6789 15.9488 37.6789 14.5152C37.6789 13.0816 36.5088 11.9194 35.0654 11.9194C33.622 11.9194 32.4518 13.0816 32.4518 14.5152C32.4518 15.9488 33.622 17.111 35.0654 17.111Z" fill="white"></path>
  </g>
  <defs>
    <clipPath id="clip0_4003_2">
      <rect width="40" height="48" fill="white" transform="translate(8 4)"></rect>
    </clipPath>
  </defs>
</svg>
