<svg width="56" height="56" viewBox="0 0 56 56" fill="none" xmlns="http://www.w3.org/2000/svg">
<g clip-path="url(#clip0_4010_1034)">
<path fill-rule="evenodd" clip-rule="evenodd" d="M28 45.5C32.7538 45.5 37.0649 43.6044 40.2188 40.5281C40.3052 40.4437 40.4436 40.4437 40.529 40.5291L47.7991 47.799L55.3448 55.3447C55.508 55.5079 55.3399 55.78 55.1209 55.7069L43.0787 51.6928C43.0164 51.6721 42.9479 51.6805 42.8924 51.7155C38.5788 54.4298 33.4727 56 28 56C12.536 56 0 43.464 0 28C0 12.536 12.536 0 28 0C43.464 0 56 12.536 56 28C56 34.605 53.7131 40.6756 49.8879 45.4636C49.807 45.565 49.656 45.5727 49.5643 45.481L34.7802 30.6969C34.617 30.5336 34.7851 30.2616 35.0041 30.3347L44.3989 33.4663C44.5136 33.5044 44.6376 33.4425 44.6743 33.3275C45.2106 31.6477 45.5 29.8577 45.5 28C45.5 18.335 37.665 10.5 28 10.5C18.335 10.5 10.5 18.335 10.5 28C10.5 37.6649 18.335 45.5 28 45.5Z" fill="#00A4D6"/>
</g>
<defs>
<clipPath id="clip0_4010_1034">
<rect width="56" height="56" fill="white"/>
</clipPath>
</defs>
</svg>
