<svg width="56" height="56" viewBox="0 0 56 56" fill="none" xmlns="http://www.w3.org/2000/svg">
<path d="M14.1857 0H41.8143C49.65 0 56 6.35002 56 14.1857V41.8143C56 49.65 49.65 56 41.8143 56H14.1857C6.35002 55.988 0 49.638 0 41.8023V14.1857C0 6.35002 6.35002 0 14.1857 0Z" fill="#103786"/>
<path d="M11.8276 9C10.2821 9 9.02405 10.258 9.02405 11.8036V15.0745C9.02405 15.4579 9.33556 15.7694 9.71896 15.7694H11.8157C27.1516 15.7694 39.588 28.2058 39.588 43.5417V45.6384C39.588 46.0218 39.8995 46.3333 40.2829 46.3333H43.5538C45.0994 46.3333 46.3574 45.0753 46.3574 43.5297C46.3574 24.4677 30.8897 9 11.8276 9Z" fill="url(#paint0_linear_4013_1168)"/>
<path d="M9.02405 17.5186C9.02405 17.1352 9.33556 16.8237 9.71896 16.8237H11.8157C26.5645 16.8237 38.5337 28.7809 38.5337 43.5417V45.6385C38.5337 46.0218 38.2222 46.3334 37.8388 46.3334H32.4712C32.0878 46.3334 31.7763 46.0218 31.7763 45.6385V43.5417C31.7763 32.5191 22.8503 23.5931 11.8276 23.5931H9.71896C9.33556 23.5931 9.02405 23.2816 9.02405 22.8982V17.5186Z" fill="url(#paint1_linear_4013_1168)"/>
<path d="M9.02396 25.3424C9.02396 24.959 9.33547 24.6475 9.71887 24.6475H11.8156C22.2512 24.6475 30.7099 33.1062 30.7099 43.5418V45.6385C30.7099 46.0219 30.3984 46.3334 30.015 46.3334H26.7441C25.1985 46.3334 23.9405 45.0754 23.9405 43.5298C23.9405 36.8323 18.5131 31.3929 11.8036 31.3929C10.258 31.3929 9 30.1348 9 28.5893V25.3424H9.02396Z" fill="url(#paint2_linear_4013_1168)"/>
<defs>
<linearGradient id="paint0_linear_4013_1168" x1="43.6907" y1="11.1787" x2="28.6907" y2="23.1787" gradientUnits="userSpaceOnUse">
<stop stop-color="#9152B8"/>
<stop offset="1" stop-color="#DF4535"/>
</linearGradient>
<linearGradient id="paint1_linear_4013_1168" x1="35.6907" y1="26.1787" x2="27.6907" y2="33.6787" gradientUnits="userSpaceOnUse">
<stop stop-color="#FFB201"/>
<stop offset="1" stop-color="#FFDF00"/>
</linearGradient>
<linearGradient id="paint2_linear_4013_1168" x1="24.6907" y1="30.6787" x2="18.1907" y2="36.1787" gradientUnits="userSpaceOnUse">
<stop stop-color="#01CC79"/>
<stop offset="1" stop-color="#00B1E5"/>
</linearGradient>
</defs>
</svg>
