<?xml version="1.0" encoding="UTF-8"?>
<svg xmlns="http://www.w3.org/2000/svg" width="23" height="23" viewBox="0 0 23 23" fill="none">
  <path d="M3.8327 13.4166C3.65135 13.4172 3.47354 13.3663 3.31994 13.2699C3.16634 13.1735 3.04325 13.0355 2.96497 12.8719C2.88669 12.7083 2.85643 12.5259 2.87772 12.3458C2.899 12.1657 2.97094 11.9953 3.0852 11.8545L12.5727 2.07948C12.6439 1.99733 12.7408 1.94182 12.8477 1.92205C12.9546 1.90229 13.065 1.91945 13.1609 1.97071C13.2567 2.02197 13.3323 2.10429 13.3751 2.20416C13.418 2.30403 13.4257 2.41551 13.3969 2.52031L11.5569 8.28947C11.5026 8.43468 11.4844 8.59089 11.5038 8.74469C11.5231 8.89849 11.5795 9.04529 11.6681 9.17251C11.7567 9.29972 11.8748 9.40355 12.0123 9.47509C12.1499 9.54662 12.3027 9.58373 12.4577 9.58322H19.166C19.3474 9.58261 19.5252 9.63346 19.6788 9.72987C19.8324 9.82628 19.9555 9.9643 20.0338 10.1279C20.112 10.2915 20.1423 10.4739 20.121 10.654C20.0997 10.8341 20.0278 11.0045 19.9135 11.1453L10.426 20.9203C10.3549 21.0025 10.2579 21.058 10.151 21.0777C10.0441 21.0975 9.93371 21.0803 9.83787 21.0291C9.74203 20.9778 9.66647 20.8955 9.62358 20.7956C9.5807 20.6958 9.57304 20.5843 9.60186 20.4795L11.4419 14.7103C11.4961 14.5651 11.5143 14.4089 11.495 14.2551C11.4756 14.1013 11.4192 13.9545 11.3306 13.8273C11.242 13.7001 11.1239 13.5962 10.9864 13.5247C10.8489 13.4532 10.696 13.4161 10.541 13.4166H3.8327Z" stroke="white" stroke-width="1.91667" stroke-linecap="round" stroke-linejoin="round"></path>
</svg>
