<?xml version="1.0" encoding="UTF-8"?>
<svg xmlns="http://www.w3.org/2000/svg" width="49" height="56" viewBox="0 0 49 56" fill="none">
  <path d="M49 28.0051C49 24.7494 44.935 21.664 38.7026 19.7507C40.1409 13.3796 39.5016 8.31076 36.6851 6.68794C36.0359 6.30727 35.2768 6.12696 34.4478 6.12696V8.36085C34.9073 8.36085 35.2768 8.45101 35.5864 8.62131C36.9448 9.40267 37.534 12.3778 37.0746 16.2045C36.9647 17.1462 36.785 18.1379 36.5652 19.1496C34.6076 18.6688 32.4702 18.2982 30.223 18.0577C28.8746 16.2045 27.4764 14.5216 26.0681 13.049C29.3241 10.0137 32.3804 8.35083 34.4578 8.35083V6.11694C31.7112 6.11694 28.1156 8.08036 24.48 11.4863C20.8445 8.1004 17.2489 6.15701 14.5022 6.15701V8.3909C16.5697 8.3909 19.636 10.0438 22.892 13.059C21.4937 14.5316 20.0954 16.2045 18.767 18.0577C16.5098 18.2982 14.3724 18.6688 12.4148 19.1597C12.1851 18.1579 12.0153 17.1862 11.8954 16.2546C11.426 12.4279 12.0053 9.45275 13.3536 8.66138C13.6533 8.48106 14.0428 8.40092 14.5022 8.40092V6.16703C13.6633 6.16703 12.9042 6.34734 12.245 6.72801C9.43844 8.35083 8.80921 13.4096 10.2574 19.7607C4.04505 21.6841 0 24.7594 0 28.0051C0 31.2607 4.06502 34.3461 10.2974 36.2594C8.85915 42.6305 9.49837 47.6994 12.3149 49.3222C12.9641 49.7029 13.7232 49.8832 14.5622 49.8832C17.3088 49.8832 20.9044 47.9198 24.54 44.5138C28.1755 47.8997 31.7711 49.8431 34.5177 49.8431C35.3567 49.8431 36.1158 49.6628 36.775 49.2821C39.5815 47.6593 40.2108 42.6005 38.7625 36.2494C44.955 34.3361 49 31.2507 49 28.0051ZM35.9959 21.3234C35.6264 22.6157 35.1669 23.948 34.6476 25.2803C34.2381 24.4789 33.8086 23.6775 33.3392 22.8761C32.8797 22.0747 32.3903 21.2934 31.9009 20.5321C33.3192 20.7424 34.6875 21.0029 35.9959 21.3234ZM31.4215 31.992C30.6425 33.3444 29.8435 34.6266 29.0145 35.8187C27.5263 35.9489 26.0181 36.019 24.5 36.019C22.9918 36.019 21.4837 35.9489 20.0055 35.8287C19.1765 34.6366 18.3675 33.3644 17.5885 32.0221C16.8294 30.7098 16.1402 29.3775 15.511 28.0351C16.1303 26.6928 16.8294 25.3504 17.5785 24.0382C18.3575 22.6858 19.1565 21.4036 19.9855 20.2115C21.4737 20.0813 22.9819 20.0111 24.5 20.0111C26.0082 20.0111 27.5163 20.0813 28.9945 20.2015C29.8235 21.3936 30.6325 22.6658 31.4115 24.0081C32.1706 25.3204 32.8598 26.6527 33.489 27.995C32.8598 29.3374 32.1706 30.6797 31.4215 31.992ZM34.6476 30.6897C35.1869 32.0321 35.6464 33.3744 36.0259 34.6767C34.7175 34.9972 33.3392 35.2677 31.9109 35.4781C32.4003 34.7067 32.8897 33.9154 33.3492 33.1039C33.8086 32.3026 34.2381 31.4911 34.6476 30.6897ZM24.52 41.3784C23.5911 40.4167 22.6623 39.3448 21.7434 38.1728C22.6423 38.2128 23.5612 38.2429 24.49 38.2429C25.4289 38.2429 26.3577 38.2229 27.2666 38.1728C26.3677 39.3448 25.4389 40.4167 24.52 41.3784ZM17.0891 35.4781C15.6708 35.2677 14.3025 35.0073 12.9941 34.6867C13.3636 33.3945 13.8231 32.0621 14.3424 30.7298C14.7519 31.5312 15.1814 32.3326 15.6508 33.134C16.1203 33.9354 16.5997 34.7168 17.0891 35.4781ZM24.47 14.6318C25.3989 15.5934 26.3278 16.6653 27.2466 17.8374C26.3477 17.7973 25.4289 17.7672 24.5 17.7672C23.5612 17.7672 22.6323 17.7873 21.7234 17.8374C22.6223 16.6653 23.5512 15.5934 24.47 14.6318ZM17.0791 20.5321C16.5897 21.3034 16.1003 22.0948 15.6408 22.9062C15.1814 23.7076 14.7519 24.509 14.3424 25.3104C13.8031 23.968 13.3437 22.6257 12.9641 21.3234C14.2725 21.0129 15.6508 20.7424 17.0791 20.5321ZM8.04016 33.0739C4.50449 31.5613 2.21728 29.5778 2.21728 28.0051C2.21728 26.4323 4.50449 24.4389 8.04016 22.9362C8.89911 22.5656 9.83795 22.235 10.8068 21.9245C11.3761 23.8879 12.1252 25.9315 13.054 28.0251C12.1351 30.1087 11.396 32.1423 10.8367 34.0957C9.84794 33.7851 8.90909 33.4445 8.04016 33.0739ZM13.4136 47.3888C12.0552 46.6075 11.466 43.6323 11.9254 39.8056C12.0353 38.864 12.215 37.8723 12.4348 36.8605C14.3924 37.3413 16.5298 37.712 18.777 37.9524C20.1254 39.8056 21.5236 41.4886 22.9319 42.9611C19.6759 45.9964 16.6196 47.6593 14.5422 47.6593C14.0927 47.6493 13.7132 47.5591 13.4136 47.3888ZM37.1046 39.7555C37.574 43.5822 36.9947 46.5574 35.6464 47.3488C35.3467 47.5291 34.9572 47.6092 34.4978 47.6092C32.4303 47.6092 29.364 45.9563 26.108 42.9411C27.5063 41.4685 28.9046 39.7956 30.233 37.9424C32.4902 37.702 34.6276 37.3313 36.5852 36.8405C36.8149 37.8522 36.9947 38.8239 37.1046 39.7555ZM40.9499 33.0739C40.0909 33.4445 39.1521 33.7751 38.1832 34.0857C37.6139 32.1222 36.8649 30.0787 35.936 27.985C36.8549 25.9014 37.594 23.8679 38.1533 21.9145C39.1421 22.225 40.0809 22.5656 40.9598 22.9362C44.4955 24.4489 46.7827 26.4323 46.7827 28.0051C46.7727 29.5778 44.4855 31.5713 40.9499 33.0739Z" fill="#61DAFB"></path>
  <path d="M24.4902 32.5831C27.011 32.5831 29.0546 30.5334 29.0546 28.0051C29.0546 25.4768 27.011 23.4271 24.4902 23.4271C21.9693 23.4271 19.9258 25.4768 19.9258 28.0051C19.9258 30.5334 21.9693 32.5831 24.4902 32.5831Z" fill="#61DAFB"></path>
</svg>
