<?xml version="1.0" encoding="UTF-8"?>
<svg xmlns="http://www.w3.org/2000/svg" width="20" height="20" viewBox="0 0 20 20" fill="none">
  <g clip-path="url(#clip0_3134_815)">
    <path d="M11.485 4.61741C11.5161 4.63898 11.5519 4.65271 11.5894 4.65742C11.627 4.66214 11.6651 4.6577 11.7005 4.64448L12.6496 4.29065C12.6944 4.27396 12.733 4.24398 12.7602 4.20473C12.7875 4.16548 12.8021 4.11883 12.8021 4.07105V2.39796C12.8021 2.35917 12.7925 2.321 12.7741 2.28685C12.7557 2.2527 12.7291 2.22366 12.6967 2.20231C12.6643 2.18096 12.6272 2.16799 12.5885 2.16454C12.5499 2.1611 12.511 2.16729 12.4754 2.18257L11.526 2.58987C11.4839 2.60795 11.4479 2.638 11.4227 2.67629C11.3975 2.71458 11.384 2.75944 11.384 2.8053L11.3843 4.42495C11.3843 4.50175 11.422 4.57362 11.485 4.61741ZM12.3334 2.75355V3.90831L11.853 4.08741L11.8528 2.95972L12.3334 2.75355ZM12.7043 4.90683C12.674 4.88512 12.639 4.87094 12.6022 4.86547C12.5653 4.86 12.5277 4.8634 12.4925 4.87538L11.5434 5.19722C11.497 5.21293 11.4567 5.2428 11.4282 5.28261C11.3996 5.32243 11.3843 5.37018 11.3843 5.41917V7.14851C11.3843 7.18469 11.3927 7.22038 11.4088 7.25279C11.4248 7.28519 11.4482 7.31343 11.4771 7.33529C11.5059 7.35715 11.5394 7.37203 11.5749 7.37878C11.6105 7.38552 11.6471 7.38395 11.682 7.37417L12.631 7.10796C12.6802 7.09415 12.7236 7.06463 12.7545 7.02388C12.7854 6.98314 12.8021 6.93342 12.8021 6.8823V5.09733C12.8021 5.06009 12.7932 5.02338 12.7762 4.99025C12.7592 4.95712 12.7345 4.92852 12.7043 4.90683ZM12.3334 6.7046L11.853 6.83933V5.58714L12.3334 5.42425V6.7046ZM12.7203 10.5433C12.6946 10.5213 12.6645 10.5051 12.632 10.4959C12.5995 10.4866 12.5654 10.4845 12.532 10.4896L11.5829 10.6362C11.5276 10.6447 11.4772 10.6728 11.4407 10.7153C11.4043 10.7578 11.3843 10.8119 11.3843 10.8678V12.5972C11.3843 12.6298 11.3911 12.6621 11.4043 12.692C11.4176 12.7219 11.4369 12.7487 11.461 12.7706C11.4852 12.7926 11.5137 12.8093 11.5447 12.8196C11.5757 12.8299 11.6085 12.8336 11.641 12.8305L12.5901 12.7395C12.6481 12.734 12.702 12.707 12.7412 12.6638C12.7804 12.6207 12.8021 12.5645 12.8021 12.5062V10.7212C12.8021 10.6874 12.7948 10.654 12.7807 10.6233C12.7665 10.5926 12.7459 10.5653 12.7203 10.5433ZM12.3334 12.2932L11.853 12.3393V11.0688L12.3334 10.9946V12.2933V12.2932ZM12.7122 7.72546C12.6842 7.70352 12.6516 7.68825 12.6169 7.68079C12.5821 7.67333 12.5461 7.67389 12.5116 7.68241L11.5625 7.91659C11.5116 7.92914 11.4664 7.95837 11.4341 7.99962C11.4018 8.04086 11.3843 8.09174 11.3843 8.14413V9.8721C11.3843 9.90655 11.3919 9.94059 11.4065 9.97177C11.4211 10.003 11.4425 10.0305 11.469 10.0525C11.4955 10.0745 11.5266 10.0904 11.5599 10.099C11.5933 10.1076 11.6281 10.1088 11.662 10.1024L12.6111 9.92382C12.6648 9.91372 12.7132 9.88518 12.7481 9.84312C12.783 9.80107 12.8021 9.74815 12.8021 9.69351V7.90995C12.8021 7.87439 12.794 7.8393 12.7784 7.80733C12.7629 7.77536 12.7402 7.74739 12.7122 7.72546ZM12.3334 9.49913L11.853 9.58952V8.32769L12.3334 8.20917V9.49909V9.49913ZM9.77371 10.3729C9.80022 10.3949 9.83124 10.4108 9.86458 10.4194C9.89792 10.4281 9.93275 10.4292 9.9666 10.4229L10.8091 10.2646C10.8628 10.2545 10.9113 10.226 10.9462 10.1839C10.9811 10.1419 11.0002 10.0889 11.0002 10.0343V8.35359C11.0002 8.31803 10.9922 8.28294 10.9766 8.25097C10.961 8.219 10.9384 8.19099 10.9104 8.16906C10.8824 8.14713 10.8498 8.13186 10.8151 8.1244C10.7803 8.11694 10.7443 8.11749 10.7098 8.12601L9.86727 8.33366C9.81638 8.34619 9.77117 8.37541 9.73885 8.41666C9.70653 8.45791 9.68898 8.5088 9.68898 8.5612V10.1925C9.68898 10.2623 9.72004 10.3284 9.77371 10.3729ZM10.1577 8.74484L10.5315 8.65273V9.83987L10.1577 9.91007V8.74484ZM9.92336 12.9928C9.93074 12.9928 9.93824 12.9925 9.9457 12.9918L10.788 12.9112C10.846 12.9056 10.8999 12.8786 10.9391 12.8355C10.9783 12.7923 11 12.7361 11 12.6778V11.0012C11 10.9674 10.9927 10.934 10.9785 10.9033C10.9644 10.8726 10.9438 10.8453 10.9182 10.8233C10.8925 10.8013 10.8624 10.7851 10.8299 10.7758C10.7974 10.7665 10.7633 10.7644 10.7299 10.7695L9.88766 10.8994C9.83234 10.9079 9.78189 10.936 9.74546 10.9785C9.70902 11.0209 9.68898 11.0751 9.68898 11.131V12.7585C9.68901 12.8206 9.7137 12.8802 9.75765 12.9242C9.8016 12.9681 9.86121 12.9928 9.92336 12.9928ZM10.1577 11.332L10.5312 11.2744V12.4648L10.1577 12.5006V11.332ZM9.78172 7.8121C9.81054 7.83397 9.84403 7.84886 9.87957 7.85562C9.91511 7.86238 9.95173 7.86081 9.98656 7.85105L10.8291 7.61503C10.8783 7.60124 10.9217 7.57172 10.9526 7.53098C10.9835 7.49024 11.0002 7.4405 11.0002 7.38937V5.7087C11.0002 5.67147 10.9914 5.63477 10.9744 5.60165C10.9574 5.56852 10.9327 5.53993 10.9024 5.51823C10.8722 5.49653 10.8372 5.48235 10.8004 5.47687C10.7635 5.47139 10.7259 5.47476 10.6907 5.48671L9.84816 5.77206C9.80175 5.78778 9.76144 5.81764 9.73288 5.85747C9.70433 5.89729 9.68898 5.94505 9.68898 5.99405V7.62542C9.68899 7.66159 9.69736 7.69727 9.71345 7.72966C9.72954 7.76205 9.7529 7.79028 9.78172 7.81214V7.8121ZM10.1577 6.1621L10.5315 6.03554V7.21163L10.1577 7.31632V6.1621ZM9.78949 5.24796C9.82051 5.26956 9.8563 5.28334 9.8938 5.28811C9.9313 5.29288 9.9694 5.2885 10.0048 5.27534L10.8473 4.96292C10.8922 4.94628 10.9309 4.91631 10.9582 4.87703C10.9856 4.83775 11.0002 4.79105 11.0002 4.74319L11.0005 3.17034C11.0005 3.13156 10.9909 3.09338 10.9725 3.05924C10.9541 3.02509 10.9275 2.99604 10.8951 2.97469C10.8628 2.95333 10.8256 2.94035 10.787 2.93689C10.7483 2.93343 10.7094 2.93961 10.6738 2.95487L9.83102 3.31612C9.78886 3.3342 9.75293 3.36424 9.72768 3.40253C9.70244 3.44083 9.68898 3.48569 9.68898 3.53155V5.05558C9.68898 5.1323 9.72652 5.20417 9.78949 5.24796ZM10.1577 3.68612L10.5317 3.52581L10.5315 4.58007L10.1577 4.7187V3.68612ZM2.93023 9.28144C2.96085 9.30309 2.99621 9.31708 3.03335 9.32222C3.07049 9.32737 3.10833 9.32352 3.14367 9.31101L3.82941 9.06851C3.8751 9.05236 3.91465 9.02244 3.94263 8.98288C3.97062 8.94332 3.98565 8.89606 3.98566 8.84761L3.98586 7.56874C3.98587 7.53007 3.97631 7.492 3.95803 7.45793C3.93975 7.42386 3.91332 7.39484 3.88109 7.37347C3.8489 7.35207 3.8119 7.33897 3.77341 7.33535C3.73492 7.33174 3.69613 7.3377 3.66051 7.35273L2.97457 7.64163C2.93207 7.65952 2.89579 7.68956 2.87028 7.72798C2.84477 7.7664 2.83117 7.81149 2.83117 7.85761V9.09007C2.83117 9.16616 2.86809 9.23749 2.93023 9.28144ZM3.29992 8.01319L3.51707 7.92171L3.51695 8.68183L3.29992 8.75855V8.01319ZM4.31684 8.78976C4.3475 8.81142 4.38292 8.82538 4.42012 8.83048C4.45731 8.83558 4.49519 8.83166 4.53055 8.81905L5.32031 8.53796C5.3659 8.52175 5.40534 8.49182 5.43324 8.45229C5.46113 8.41276 5.4761 8.36556 5.47609 8.31718V6.93941C5.47611 6.9007 5.46654 6.86259 5.44823 6.82848C5.42992 6.79437 5.40344 6.76534 5.37117 6.74396C5.33889 6.72259 5.30183 6.70955 5.26328 6.706C5.22473 6.70245 5.18591 6.7085 5.15027 6.72362L4.36051 7.05827C4.31812 7.07622 4.28196 7.10625 4.25654 7.14463C4.23112 7.18301 4.21757 7.22802 4.21758 7.27405V8.59827C4.21758 8.63581 4.2266 8.67279 4.24387 8.70611C4.26115 8.73943 4.28617 8.76812 4.31684 8.78976ZM4.68633 7.42925L5.00734 7.29323V8.15179L4.68633 8.26608V7.42925ZM5.38977 11.2952C5.36278 11.2732 5.33125 11.2575 5.29744 11.2492C5.26364 11.241 5.22842 11.2403 5.19434 11.2473L4.40484 11.4103C4.35202 11.4212 4.30458 11.45 4.27052 11.4918C4.23645 11.5336 4.21785 11.5859 4.21785 11.6398V13.053C4.21784 13.0865 4.225 13.1196 4.23886 13.1501C4.25272 13.1805 4.27295 13.2077 4.2982 13.2297C4.32344 13.2517 4.3531 13.268 4.38519 13.2776C4.41728 13.2872 4.45105 13.2897 4.48422 13.2851L5.27371 13.1764C5.32979 13.1686 5.38118 13.1409 5.41839 13.0982C5.45559 13.0555 5.47609 13.0008 5.47609 12.9442V11.4769C5.47609 11.4421 5.46834 11.4078 5.45341 11.3763C5.43848 11.3449 5.41674 11.3172 5.38977 11.2952V11.2952ZM5.00734 12.7399L4.6866 12.7841V11.8307L5.00734 11.7646V12.74V12.7399ZM3.09734 13.4761L3.78285 13.3822C3.83898 13.3745 3.89042 13.3468 3.92766 13.3041C3.9649 13.2614 3.98542 13.2067 3.98543 13.15V11.7836C3.98543 11.7488 3.97769 11.7145 3.96278 11.6831C3.94786 11.6516 3.92613 11.624 3.89918 11.602C3.87225 11.58 3.84075 11.5642 3.80696 11.5559C3.77318 11.5476 3.73797 11.547 3.70391 11.554L3.0184 11.6948C2.96553 11.7057 2.91803 11.7344 2.88392 11.7763C2.84981 11.8181 2.83117 11.8704 2.83117 11.9244V13.2439C2.83117 13.2774 2.83834 13.3104 2.8522 13.3409C2.86605 13.3714 2.88626 13.3985 2.91148 13.4205C2.93669 13.4425 2.96633 13.4588 2.99839 13.4684C3.03045 13.478 3.06419 13.4806 3.09734 13.4761ZM3.29992 12.1155L3.51668 12.0709V12.9455L3.29992 12.9752V12.1155ZM2.92098 11.3523C2.94894 11.3742 2.98153 11.3895 3.01627 11.397C3.05102 11.4044 3.08701 11.4039 3.12152 11.3954L3.80703 11.2268C3.85794 11.2143 3.90319 11.1851 3.93553 11.1438C3.96787 11.1025 3.98544 11.0516 3.98543 10.9992V9.63277C3.98543 9.59596 3.97677 9.55968 3.96014 9.52685C3.94351 9.49402 3.91939 9.46557 3.88972 9.4438C3.86005 9.42202 3.82567 9.40754 3.78937 9.40153C3.75306 9.39551 3.71585 9.39813 3.68074 9.40917L2.99523 9.62472C2.94766 9.63968 2.90609 9.66943 2.87658 9.70964C2.84708 9.74986 2.83117 9.79843 2.83117 9.84831V11.1678C2.83117 11.2399 2.8643 11.3079 2.92098 11.3523V11.3523ZM3.29992 10.0203L3.51668 9.9521V10.8155L3.29992 10.8688V10.0203ZM5.38023 8.973C5.35053 8.95123 5.31612 8.93677 5.27978 8.93079C5.24344 8.92481 5.20621 8.92748 5.17109 8.93858L4.3816 9.18812C4.33411 9.20313 4.29263 9.23289 4.2632 9.27308C4.23376 9.31326 4.21789 9.36178 4.21789 9.41159V10.8256C4.21788 10.8612 4.22596 10.8963 4.24152 10.9282C4.25708 10.9602 4.27971 10.9882 4.3077 11.0101C4.33569 11.0321 4.3683 11.0473 4.40307 11.0548C4.43783 11.0623 4.47384 11.0617 4.50836 11.0532L5.29785 10.8587C5.34873 10.8462 5.39394 10.8169 5.42626 10.7757C5.45858 10.7344 5.47614 10.6835 5.47613 10.6311V9.1621C5.47613 9.08741 5.44055 9.01718 5.38027 8.97304L5.38023 8.973ZM5.00734 10.4475L4.6866 10.5265V9.58327L5.00734 9.48187V10.4474V10.4475ZM19.5505 18.359H18.1638V2.33452C18.1638 2.28862 18.1503 2.24372 18.1251 2.20541C18.0998 2.1671 18.0638 2.13706 18.0216 2.11901L13.5657 0.21421C13.5365 0.201741 13.5052 0.195312 13.4735 0.195312C13.4419 0.195312 13.4105 0.201741 13.3814 0.21421L8.92547 2.11901C8.88325 2.13705 8.84726 2.16709 8.82197 2.2054C8.79667 2.24371 8.78319 2.28861 8.7832 2.33452V5.65956L6.80633 4.81448C6.77721 4.80201 6.74587 4.79559 6.7142 4.79559C6.68253 4.79559 6.65118 4.80201 6.62207 4.81448L1.98203 6.79796C1.93981 6.81599 1.90382 6.84603 1.87853 6.88435C1.85324 6.92266 1.83976 6.96756 1.83977 7.01347V18.359H0.453125C0.390965 18.359 0.331351 18.3837 0.287397 18.4276C0.243443 18.4716 0.21875 18.5312 0.21875 18.5934V19.5703C0.21875 19.6325 0.243443 19.6921 0.287397 19.7361C0.331351 19.78 0.390965 19.8047 0.453125 19.8047H19.5505C19.6126 19.8047 19.6722 19.78 19.7162 19.7361C19.7602 19.6921 19.7848 19.6325 19.7848 19.5703V18.5934C19.7848 18.5312 19.7602 18.4716 19.7162 18.4276C19.6722 18.3837 19.6126 18.359 19.5505 18.359ZM17.6951 18.359H13.7079V0.784796L17.6951 2.48917V18.359ZM13.2391 0.784796V18.359H12.3513V14.618L12.475 14.6062C12.5056 14.6033 12.5354 14.5944 12.5626 14.58C12.5898 14.5656 12.6139 14.5459 12.6335 14.5222C12.6531 14.4985 12.6678 14.4711 12.6769 14.4417C12.6859 14.4123 12.689 14.3814 12.6861 14.3507C12.6832 14.3201 12.6743 14.2903 12.6599 14.2631C12.6455 14.2359 12.6259 14.2118 12.6021 14.1922C12.5784 14.1726 12.551 14.1578 12.5216 14.1488C12.4922 14.1398 12.4612 14.1367 12.4306 14.1396L10.0161 14.3694C9.95424 14.3754 9.89733 14.4057 9.85781 14.4536C9.81829 14.5015 9.7994 14.5631 9.80529 14.6249C9.81117 14.6868 9.84135 14.7437 9.88919 14.7833C9.93704 14.8229 9.99864 14.8419 10.0605 14.8361L10.1398 14.8285V18.3591H9.25195V2.48921L13.2391 0.784796ZM11.8825 14.6626V18.359H10.6086V14.7839L11.8825 14.6626ZM8.7832 18.359H6.94855V5.38507L8.7832 6.16933V18.359ZM2.30852 7.16816L6.4798 5.38507V18.359H5.49988V15.3602L5.62363 15.3484C5.65427 15.3455 5.68404 15.3366 5.71123 15.3221C5.73843 15.3077 5.76251 15.2881 5.78212 15.2644C5.80172 15.2406 5.81646 15.2133 5.82548 15.1839C5.83451 15.1544 5.83765 15.1235 5.83473 15.0929C5.8225 14.964 5.70793 14.8692 5.57922 14.8818L3.16469 15.1116C3.10288 15.1176 3.04596 15.1479 3.00644 15.1958C2.96693 15.2437 2.94803 15.3053 2.95392 15.3671C2.9598 15.4289 2.98998 15.4859 3.03783 15.5255C3.08567 15.5651 3.14727 15.5841 3.2091 15.5783L3.28844 15.5707V18.359H2.30852V7.16816ZM5.03113 15.4048V18.359H3.75719V15.5261L5.03113 15.4048ZM19.3161 19.336H0.6875V18.8277H19.3161V19.336H19.3161ZM15.4671 17.383V2.95308C15.4671 2.89092 15.4918 2.8313 15.5357 2.78735C15.5797 2.7434 15.6393 2.7187 15.7014 2.7187C15.7636 2.7187 15.8232 2.7434 15.8672 2.78735C15.9111 2.8313 15.9358 2.89092 15.9358 2.95308V17.383C15.9358 17.4451 15.9111 17.5047 15.8672 17.5487C15.8232 17.5926 15.7636 17.6173 15.7014 17.6173C15.6393 17.6173 15.5797 17.5926 15.5357 17.5487C15.4918 17.5047 15.4671 17.4451 15.4671 17.383ZM16.5811 17.383V3.42929C16.5811 3.36713 16.6058 3.30751 16.6497 3.26356C16.6937 3.21961 16.7533 3.19491 16.8155 3.19491C16.8776 3.19491 16.9372 3.21961 16.9812 3.26356C17.0252 3.30751 17.0498 3.36713 17.0498 3.42929V17.383C17.0498 17.4451 17.0252 17.5047 16.9812 17.5487C16.9372 17.5926 16.8776 17.6173 16.8155 17.6173C16.7533 17.6173 16.6937 17.5926 16.6497 17.5487C16.6058 17.5047 16.5811 17.4451 16.5811 17.383ZM14.3531 17.383V2.47691C14.3531 2.41475 14.3778 2.35513 14.4218 2.31118C14.4657 2.26722 14.5253 2.24253 14.5875 2.24253C14.6497 2.24253 14.7093 2.26722 14.7532 2.31118C14.7972 2.35513 14.8219 2.41475 14.8219 2.47691V17.383C14.8219 17.4451 14.7972 17.5047 14.7532 17.5487C14.7093 17.5926 14.6497 17.6173 14.5875 17.6173C14.5253 17.6173 14.4657 17.5926 14.4218 17.5487C14.3778 17.5047 14.3531 17.4451 14.3531 17.383Z" fill="white"></path>
  </g>
  <defs>
    <clipPath id="clip0_3134_815">
      <rect width="20" height="20" fill="white"></rect>
    </clipPath>
  </defs>
</svg>
