<?xml version="1.0" encoding="UTF-8"?>
<svg xmlns="http://www.w3.org/2000/svg" width="20" height="20" viewBox="0 0 20 20" fill="none">
  <g clip-path="url(#clip0_2348_3588)">
    <path d="M18.891 8.54744L10.5576 1.04744C10.4046 0.909709 10.206 0.833496 10.0001 0.833496C9.79426 0.833496 9.59566 0.909709 9.44264 1.04744L1.10931 8.54744C0.950095 8.6966 0.855722 8.90224 0.846456 9.12021C0.83719 9.33817 0.91377 9.55108 1.05975 9.71321C1.20573 9.87534 1.40947 9.97375 1.62721 9.98732C1.84495 10.0009 2.05933 9.92853 2.22431 9.78578L10.0001 2.78744L17.776 9.78744C17.941 9.93019 18.1553 10.0026 18.3731 9.98899C18.5908 9.97542 18.7946 9.877 18.9405 9.71487C19.0865 9.55275 19.1631 9.33984 19.1538 9.12187C19.1446 8.9039 19.0502 8.69826 18.891 8.54911V8.54744ZM16.6668 10.8333C16.4458 10.8333 16.2338 10.9211 16.0776 11.0774C15.9213 11.2336 15.8335 11.4456 15.8335 11.6666V16.4783C15.8333 16.7492 15.7255 17.0089 15.534 17.2005C15.3424 17.392 15.0827 17.4997 14.8118 17.4999H5.18847C4.91758 17.4997 4.65784 17.392 4.46629 17.2005C4.27474 17.0089 4.16703 16.7492 4.16681 16.4783V11.6666C4.16681 11.4456 4.07901 11.2336 3.92273 11.0774C3.76645 10.9211 3.55449 10.8333 3.33347 10.8333C3.11246 10.8333 2.9005 10.9211 2.74422 11.0774C2.58794 11.2336 2.50014 11.4456 2.50014 11.6666V16.4783C2.5008 17.1911 2.78425 17.8745 3.28827 18.3785C3.79228 18.8825 4.47569 19.1659 5.18847 19.1666H14.8118C15.5246 19.1659 16.208 18.8825 16.712 18.3785C17.216 17.8745 17.4995 17.1911 17.5001 16.4783V11.6666C17.5001 11.4456 17.4123 11.2336 17.2561 11.0774C17.0998 10.9211 16.8878 10.8333 16.6668 10.8333Z" fill="white"></path>
  </g>
  <defs>
    <clipPath id="clip0_2348_3588">
      <rect width="20" height="20" fill="white"></rect>
    </clipPath>
  </defs>
</svg>
