<?xml version="1.0" encoding="UTF-8"?>
<svg xmlns="http://www.w3.org/2000/svg" width="31" height="31" viewBox="0 0 31 31" fill="none">
  <path d="M22.0282 5.22101C18.5021 3.08534 13.9373 4.12341 11.5293 7.43093L13.1069 8.35734C13.7024 8.64822 13.6234 9.48565 13.015 9.71797L5.69696 12.7346C5.58779 12.7803 5.46947 12.8 5.35138 12.792C5.23329 12.7841 5.11867 12.7488 5.0166 12.6888C4.91454 12.6289 4.82783 12.546 4.76335 12.4468C4.69888 12.3475 4.65839 12.2346 4.64512 12.117L3.71552 4.25621C3.62208 3.61205 4.33312 3.20437 4.8592 3.51317L6.4368 4.43989C9.45312 0.0165347 15.4275 -1.31371 20.073 1.41461C21.3002 2.13525 22.2739 2.99605 23.0701 4.05909C23.617 4.73365 22.817 5.68469 22.0282 5.22101ZM17.0368 25.4719L10.6954 30.2469C10.1238 30.6185 9.44064 30.2764 9.41696 29.614L9.44992 27.7413C4.12128 27.27 -0.00159953 22.8389 4.65535e-07 17.4169C0.0204805 16.0671 0.26944 14.7401 0.78144 13.5673C1.08768 12.7449 2.2576 12.9605 2.26624 13.8495L2.28416 13.9193C2.26417 15.9069 2.98495 17.8309 4.30605 19.3161C5.62716 20.8014 7.45393 21.7416 9.4304 21.9535L9.44544 20.0111C9.42176 19.349 10.1507 19.0111 10.6947 19.3893L17.0074 24.2169C17.4637 24.5439 17.4694 25.1365 17.0368 25.4719ZM29.6387 12.7561L28.0262 13.6953C30.3043 18.4575 28.5654 24.3385 23.8237 26.9823C22.5926 27.6738 21.3514 28.0709 20.063 28.2572C19.2102 28.4047 18.8333 27.2402 19.6138 26.8146L19.6832 26.7964C23.3146 24.7381 24.6832 20.2905 23.0426 16.5506L21.3606 17.5074C20.7706 17.8095 20.121 17.31 20.185 16.6994L21.2602 8.83701C21.3603 8.36533 21.8806 8.08181 22.3706 8.25141L29.5734 11.3618C30.1507 11.5833 30.2288 12.4543 29.6387 12.7561Z" fill="#9810FA"></path>
</svg>
