<svg width="56" height="56" viewBox="0 0 56 56" fill="none" xmlns="http://www.w3.org/2000/svg">
<rect width="56" height="56" fill="white"/>
<path fill-rule="evenodd" clip-rule="evenodd" d="M43.8129 27.0174L37.1444 15.9892L40.5984 10.3369L50.6847 27.0174H43.8129ZM21.1136 42.5161H34.5956L37.9611 48.0327H17.8086L21.1136 42.5161ZM34.5908 14.4968H21.0973L17.7992 8.96728H37.9696L34.5908 14.4968ZM34.5806 39.5489H21.0936L14.4162 28.5065L21.0936 17.4641H34.5806L41.2577 28.5065L34.5806 39.5489ZM15.18 10.3488L18.5371 15.9769L11.8631 27.0139H5.10315L15.18 10.3488ZM5.10007 29.9811H11.8521L18.545 41.0494L15.1847 46.6587L5.10007 29.9811ZM40.594 46.6703L37.1468 41.0198L43.8196 29.9847H50.6835L40.594 46.6703ZM41.863 6.71336C41.5952 6.27043 41.1167 6 40.6009 6H15.1847C14.6688 6 14.1904 6.27043 13.9227 6.71336L1.21473 27.7297C0.928514 28.2029 0.92838 28.7969 1.21459 29.2702L13.9227 50.2865C14.1904 50.7296 14.6688 51 15.1847 51H40.6009C41.1167 51 41.5952 50.7296 41.863 50.2865L54.5711 29.2702C54.8574 28.7969 54.8574 28.2029 54.5711 27.7297L41.863 6.71336Z" fill="#FD627A"/>
<path fill-rule="evenodd" clip-rule="evenodd" d="M35.4803 30.8173C34.7915 30.3791 33.879 30.5845 33.4426 31.2768L30.8289 35.4228C30.3926 36.115 30.5974 37.0316 31.2863 37.4701C31.5314 37.626 31.8049 37.7004 32.0751 37.7004C32.5642 37.7004 33.0429 37.4564 33.324 37.0105L35.9377 32.8646C36.3741 32.1724 36.1692 31.2558 35.4803 30.8173Z" fill="#FD627A"/>
<path fill-rule="evenodd" clip-rule="evenodd" d="M37.6288 26.9995C36.9261 26.5841 36.0206 26.8197 35.6071 27.5261L35.4149 27.8545C35.0014 28.5607 35.2361 29.47 35.9391 29.8855C36.1742 30.0245 36.4319 30.0906 36.6863 30.0906C37.1925 30.0906 37.6854 29.829 37.9606 29.3589L38.1528 29.0306C38.5663 28.3243 38.3317 27.4151 37.6288 26.9995Z" fill="#FD627A"/>
</svg>
