<?xml version="1.0" encoding="UTF-8"?>
<svg xmlns="http://www.w3.org/2000/svg" width="26" height="28" viewBox="0 0 26 28" fill="none">
  <path d="M24.96 19.9862C25.4656 18.815 25.7728 17.535 25.8368 16.191H24.6016C24.2496 16.191 23.9936 15.8326 24.128 15.4934C24.4352 14.7126 23.8592 13.8358 22.9952 13.8358C22.2272 13.8358 21.664 14.5334 21.7984 15.2758C21.8304 15.455 21.8944 15.5254 21.8944 15.679C21.8944 15.9606 21.664 16.191 21.3824 16.191H11.2832V18.5974C12.576 18.5078 13.6768 19.5382 13.6768 20.831C13.6768 22.1238 12.5824 23.1542 11.2832 23.0646V25.8486C14.0608 26.8662 17.1648 26.6998 19.808 25.3878C19.968 25.311 20.1664 25.3174 20.3264 25.4262L23.104 27.3462L22.2656 24.0822C22.2208 23.9094 22.272 23.7174 22.4128 23.583C23.4944 22.5782 24.3648 21.3558 24.96 19.9862ZM1.8368 17.1446C2.8992 18.7126 4.3584 19.9926 6.0672 20.831V17.8358C6.0672 17.4774 6.4384 17.2214 6.7776 17.3622C7.5648 17.6886 8.4608 17.119 8.4608 16.2422C8.4608 15.4742 7.7568 14.9046 7.008 15.0518C6.8096 15.0902 6.7456 15.1606 6.5856 15.1606C6.304 15.1606 6.0736 14.9302 6.0736 14.6486V11.6022H0.0063999C0.1024 13.6502 0.7616 15.5446 1.8368 17.1446ZM6.0672 10.5782V1.3558C2.5408 3.0838 0.1856 6.5974 0 10.5782H6.0672ZM14.592 0.933397C14.5152 0.907797 14.4448 0.875797 14.368 0.856597V10.5846H16.5632C16.4928 9.311 17.5168 8.2294 18.7968 8.2294C20.0832 8.2294 21.1008 9.311 21.0304 10.5846H21.6384C21.44 6.2198 18.6304 2.431 14.592 0.933397ZM13.344 0.555797C11.2768 0.062997 9.0816 0.190997 7.0912 0.920597V10.5782H13.344V0.555797ZM24.6464 3.7878C24.9024 3.6726 25.2096 3.7814 25.3248 4.0374C25.44 4.2934 25.3312 4.5942 25.0752 4.7094L23.7504 5.3174C23.4944 5.4326 23.1936 5.3238 23.072 5.0678C22.9568 4.8118 23.0656 4.511 23.3216 4.3894L24.6464 3.7878ZM20.9728 0.331797C21.0688 0.069397 21.3632 -0.0650031 21.6256 0.0309969C21.888 0.133397 22.0224 0.421397 21.9264 0.690197L21.4144 2.0598C21.3184 2.3222 21.024 2.4566 20.7552 2.3606C20.4928 2.2646 20.3584 1.9702 20.4544 1.7014L20.9728 0.331797ZM25.6192 8.7926C25.8816 8.8886 26.016 9.183 25.92 9.4518C25.8176 9.7142 25.5296 9.8486 25.2608 9.7526L23.8976 9.2406C23.6352 9.1446 23.5008 8.8502 23.5968 8.5878C23.6928 8.3254 23.9872 8.191 24.256 8.287L25.6192 8.7926Z" fill="white"></path>
</svg>
