<svg width="49" height="56" viewBox="0 0 49 56" fill="none" xmlns="http://www.w3.org/2000/svg">
<g clip-path="url(#clip0_4013_1104)">
<path d="M0 56V47.3047H15.9399C18.6024 47.3047 19.1805 49.2653 19.1805 50.4342V56H0ZM46.8473 43.1856C47.3549 49.6557 47.3549 52.689 47.3549 56H32.2794C32.2794 55.2783 32.2927 54.6189 32.3059 53.9497C32.3466 51.871 32.3896 49.7027 32.0504 45.3233C31.6011 38.9123 28.8219 37.4875 23.7094 37.4875H0V25.8223H24.4273C30.8843 25.8223 34.1128 23.8716 34.1128 18.7071C34.1128 14.1659 30.8843 11.4148 24.4273 11.4148H0V0H27.1174C41.7359 0 49 6.85607 49 17.8083C49 26.0006 43.8886 31.3433 36.9823 32.2334C42.8117 33.3914 46.2197 36.686 46.8473 43.1856Z" fill="#121212"/>
</g>
<defs>
<clipPath id="clip0_4013_1104">
<rect width="49" height="56" fill="white"/>
</clipPath>
</defs>
</svg>
