<?xml version="1.0" encoding="UTF-8"?>
<svg xmlns="http://www.w3.org/2000/svg" width="20" height="20" viewBox="0 0 20 20" fill="none">
  <path d="M10.475 18.125H3.125C2.43562 18.125 1.875 17.5644 1.875 16.875V5.625H4.375V6.25C4.375 6.41576 4.44085 6.57473 4.55806 6.69194C4.67527 6.80915 4.83424 6.875 5 6.875C5.16576 6.875 5.32473 6.80915 5.44194 6.69194C5.55915 6.57473 5.625 6.41576 5.625 6.25V5.625H9.375V6.25C9.375 6.41576 9.44085 6.57473 9.55806 6.69194C9.67527 6.80915 9.83424 6.875 10 6.875C10.1658 6.875 10.3247 6.80915 10.4419 6.69194C10.5592 6.57473 10.625 6.41576 10.625 6.25V5.625H13.125V8.6875C13.125 8.85326 13.1908 9.01223 13.3081 9.12944C13.4253 9.24665 13.5842 9.3125 13.75 9.3125C13.9158 9.3125 14.0747 9.24665 14.1919 9.12944C14.3092 9.01223 14.375 8.85326 14.375 8.6875V5C14.375 4.83424 14.3092 4.67527 14.1919 4.55806C14.0747 4.44085 13.9158 4.375 13.75 4.375H10.625V3.75C10.625 2.02688 9.22313 0.625 7.5 0.625C5.77688 0.625 4.375 2.02688 4.375 3.75V4.375H1.25C1.08424 4.375 0.925268 4.44085 0.808058 4.55806C0.690848 4.67527 0.625 4.83424 0.625 5V16.875C0.625 18.2537 1.74625 19.375 3.125 19.375H10.475C10.6408 19.375 10.7997 19.3092 10.9169 19.1919C11.0342 19.0747 11.1 18.9158 11.1 18.75C11.1 18.5842 11.0342 18.4253 10.9169 18.3081C10.7997 18.1908 10.6408 18.125 10.475 18.125ZM5.625 3.75C5.625 2.71625 6.46625 1.875 7.5 1.875C8.53375 1.875 9.375 2.71625 9.375 3.75V4.375H5.625V3.75ZM19.1919 16.4331L17.305 14.5463L19.03 13.6837C19.1393 13.6288 19.2301 13.543 19.2911 13.437C19.3521 13.3309 19.3806 13.2093 19.3732 13.0872C19.3657 12.9651 19.3226 12.8479 19.2492 12.7501C19.1757 12.6522 19.0752 12.5781 18.96 12.5369L10.21 9.41187C10.0986 9.37217 9.9783 9.36487 9.86295 9.39082C9.74761 9.41677 9.64198 9.4749 9.55835 9.55847C9.47472 9.64203 9.4165 9.74761 9.39047 9.86294C9.36443 9.97826 9.37164 10.0986 9.41125 10.21L12.5363 18.96C12.5775 19.0754 12.6517 19.1762 12.7497 19.2497C12.8477 19.3233 12.9652 19.3664 13.0875 19.3737L13.125 19.375C13.3606 19.375 13.5775 19.2419 13.6844 19.0294L14.5463 17.305L16.4331 19.1919C16.5503 19.309 16.7093 19.3749 16.875 19.3749C17.0407 19.3749 17.1997 19.309 17.3169 19.1919L19.1919 17.3169C19.309 17.1997 19.3749 17.0407 19.3749 16.875C19.3749 16.7093 19.309 16.5503 19.1919 16.4331ZM16.875 17.8663L14.8169 15.8081C14.747 15.7378 14.6613 15.6851 14.567 15.6545C14.4727 15.6239 14.3724 15.6162 14.2745 15.6321C14.1766 15.648 14.0839 15.687 14.0041 15.7458C13.9243 15.8047 13.8597 15.8818 13.8156 15.9706L13.2212 17.1606L11.0325 11.0319L17.1606 13.2206L15.9706 13.8156C15.882 13.8599 15.8051 13.9246 15.7464 14.0044C15.6877 14.0842 15.6488 14.1768 15.633 14.2746C15.6171 14.3724 15.6247 14.4726 15.6552 14.5669C15.6856 14.6612 15.738 14.7468 15.8081 14.8169L17.8663 16.875L16.875 17.8663Z" fill="white"></path>
</svg>
