<svg width="56" height="56" viewBox="0 0 56 56" fill="none" xmlns="http://www.w3.org/2000/svg">
<g clip-path="url(#clip0_4004_61)">
<path opacity="0.788235" d="M27.5567 0.373535L27.37 0.606868" stroke="black"/>
<path opacity="0.788235" d="M28.4434 0.373535L28.63 0.606868" stroke="black"/>
<path opacity="0.788235" d="M27.3233 0.65332L27.2766 0.746654" stroke="black"/>
<path opacity="0.788235" d="M28.6766 0.65332L28.7233 0.746654" stroke="black"/>
<path opacity="0.788235" d="M23.17 0.886719L23.2167 0.980052" stroke="black"/>
<path opacity="0.788235" d="M27.1834 0.886719L27.1367 0.980052" stroke="black"/>
<path opacity="0.788235" d="M28.8167 0.886719L28.8633 0.980052" stroke="black"/>
<path opacity="0.788235" d="M32.83 0.886719L32.7833 0.980052" stroke="black"/>
<path opacity="0.788235" d="M23.3567 1.07324L23.6367 1.39991" stroke="black"/>
<path opacity="0.788235" d="M32.6433 1.07324L32.3633 1.39991" stroke="black"/>
<path opacity="0.788235" d="M22.0967 1.12012L22.05 1.21345" stroke="black"/>
<path opacity="0.788235" d="M27.0434 1.12012L26.9967 1.21345" stroke="black"/>
<path opacity="0.788235" d="M28.9567 1.12012L29.0033 1.21345" stroke="black"/>
<path opacity="0.788235" d="M33.9033 1.12012L33.95 1.21345" stroke="black"/>
<path opacity="0.788235" d="M26.9034 1.35352L26.8567 1.44685" stroke="black"/>
<path opacity="0.788235" d="M29.0967 1.35352L29.1433 1.44685" stroke="black"/>
<path opacity="0.788235" d="M23.8234 1.58643L24.1034 1.91309" stroke="black"/>
<path opacity="0.788235" d="M26.7633 1.58643L26.7167 1.67976" stroke="black"/>
<path opacity="0.788235" d="M29.2367 1.58643L29.2834 1.67976" stroke="black"/>
<path opacity="0.788235" d="M32.1767 1.58643L31.8967 1.91309" stroke="black"/>
<path opacity="0.788235" d="M26.6233 1.81982L26.5767 1.91316" stroke="black"/>
<path opacity="0.788235" d="M29.3767 1.81982L29.4234 1.91316" stroke="black"/>
<path opacity="0.788235" d="M26.4833 2.05322L26.4366 2.14656" stroke="black"/>
<path opacity="0.788235" d="M29.5167 2.05322L29.5634 2.14656" stroke="black"/>
<path opacity="0.788235" d="M24.29 2.1001L24.57 2.42676" stroke="black"/>
<path opacity="0.788235" d="M31.7101 2.1001L31.4301 2.42676" stroke="black"/>
<path opacity="0.788235" d="M26.3433 2.28662L26.2966 2.37995" stroke="black"/>
<path opacity="0.788235" d="M29.6566 2.28662L29.7033 2.37995" stroke="black"/>
<path opacity="0.788235" d="M17.2433 2.42676L17.0566 2.66009" stroke="black"/>
<path opacity="0.788235" d="M18.13 2.42676L18.1767 2.52009" stroke="black"/>
<path opacity="0.788235" d="M37.87 2.42676L37.8234 2.52009" stroke="black"/>
<path opacity="0.788235" d="M38.7567 2.42676L38.9434 2.66009" stroke="black"/>
<path opacity="0.788235" d="M26.2033 2.52002L26.1566 2.61335" stroke="black"/>
<path opacity="0.788235" d="M29.7966 2.52002L29.8433 2.61335" stroke="black"/>
<path opacity="0.788235" d="M18.3167 2.56689L18.3633 2.66023" stroke="black"/>
<path opacity="0.788235" d="M37.6834 2.56689L37.6367 2.66023" stroke="black"/>
<path opacity="0.788235" d="M24.7567 2.61328L24.99 2.89328" stroke="black"/>
<path opacity="0.788235" d="M31.2433 2.61328L31.01 2.89328" stroke="black"/>
<path opacity="0.788235" d="M18.5033 2.70654L18.55 2.79988" stroke="black"/>
<path opacity="0.788235" d="M37.4966 2.70654L37.45 2.79988" stroke="black"/>
<path opacity="0.788235" d="M26.0634 2.75342L26.0167 2.84675" stroke="black"/>
<path opacity="0.788235" d="M29.9366 2.75342L29.9833 2.84675" stroke="black"/>
<path opacity="0.788235" d="M18.6433 2.7998L18.7366 2.9398" stroke="black"/>
<path opacity="0.788235" d="M37.31 2.84668L37.2633 2.94001" stroke="black"/>
<path opacity="0.788235" d="M16.9166 2.89355L16.94 3.01022H16.8933L16.9166 2.89355Z" fill="black" stroke="black"/>
<path opacity="0.788235" d="M39.0834 2.89355L39.1067 3.01022H39.0601L39.0834 2.89355Z" fill="black" stroke="black"/>
<path opacity="0.788235" d="M18.83 2.93994L18.9233 3.07994" stroke="black"/>
<path opacity="0.788235" d="M37.17 2.93994L37.0767 3.07994" stroke="black"/>
<path opacity="0.788235" d="M25.6899 2.98682L25.8999 3.01015L25.6899 3.03348V2.98682Z" fill="black" stroke="black"/>
<path opacity="0.788235" d="M30.1233 2.98682L30.38 3.01015L30.1233 3.03348V2.98682Z" fill="black" stroke="black"/>
<path opacity="0.788235" d="M25.1766 3.0332L25.3866 3.05654L25.1766 3.07987V3.0332Z" fill="black" stroke="black"/>
<path opacity="0.788235" d="M30.6367 3.0332L30.8467 3.05654L30.6367 3.07987V3.0332Z" fill="black" stroke="black"/>
<path opacity="0.788235" d="M19.0167 3.08008L19.0634 3.17341" stroke="black"/>
<path opacity="0.788235" d="M36.9833 3.08008L36.9366 3.17341" stroke="black"/>
<path opacity="0.788235" d="M16.87 3.17334L16.8933 3.33667H16.8467L16.87 3.17334Z" fill="black" stroke="black"/>
<path opacity="0.788235" d="M39.13 3.17334L39.1534 3.33667H39.1067L39.13 3.17334Z" fill="black" stroke="black"/>
<path opacity="0.788235" d="M19.2034 3.22021L19.25 3.31355" stroke="black"/>
<path opacity="0.788235" d="M36.7967 3.22021L36.75 3.31355" stroke="black"/>
<path opacity="0.788235" d="M19.39 3.35986L19.4367 3.4532" stroke="black"/>
<path opacity="0.788235" d="M36.61 3.35986L36.5634 3.4532" stroke="black"/>
<path opacity="0.788235" d="M16.8234 3.5L16.8467 3.66333H16.8L16.8234 3.5Z" fill="black" stroke="black"/>
<path opacity="0.788235" d="M19.5767 3.5L19.6233 3.59333" stroke="black"/>
<path opacity="0.788235" d="M36.4234 3.5L36.3767 3.59333" stroke="black"/>
<path opacity="0.788235" d="M39.1767 3.5L39.2 3.66333H39.1533L39.1767 3.5Z" fill="black" stroke="black"/>
<path opacity="0.788235" d="M19.7633 3.64014L19.81 3.73347" stroke="black"/>
<path opacity="0.788235" d="M36.2366 3.64014L36.1899 3.73347" stroke="black"/>
<path opacity="0.788235" d="M19.95 3.77979L19.9966 3.87312" stroke="black"/>
<path opacity="0.788235" d="M36.05 3.77979L36.0033 3.87312" stroke="black"/>
<path opacity="0.788235" d="M16.7766 3.82666L16.8 3.94333H16.7533L16.7766 3.82666Z" fill="black" stroke="black"/>
<path opacity="0.788235" d="M39.2233 3.82666L39.2466 3.94333H39.2L39.2233 3.82666Z" fill="black" stroke="black"/>
<path opacity="0.788235" d="M20.09 3.87354L20.1833 4.01354" stroke="black"/>
<path opacity="0.788235" d="M35.91 3.87354L35.8167 4.01354" stroke="black"/>
<path opacity="0.788235" d="M20.2766 4.01318L20.4399 4.08318L20.3233 4.10652L20.2766 4.01318Z" fill="black" stroke="black"/>
<path opacity="0.788235" d="M35.7234 4.01318L35.6767 4.10652L35.5601 4.08318L35.7234 4.01318Z" fill="black" stroke="black"/>
<path opacity="0.788235" d="M16.73 4.15332L16.7533 4.26999H16.7067L16.73 4.15332Z" fill="black" stroke="black"/>
<path opacity="0.788235" d="M39.27 4.15332L39.2934 4.26999H39.2467L39.27 4.15332Z" fill="black" stroke="black"/>
<path opacity="0.788235" d="M16.6834 4.43311L16.7067 4.59644H16.66L16.6834 4.43311Z" fill="black" stroke="black"/>
<path opacity="0.788235" d="M39.3167 4.43311L39.34 4.59644H39.2933L39.3167 4.43311Z" fill="black" stroke="black"/>
<path opacity="0.788235" d="M16.6366 4.75977L16.6599 4.87643H16.6133L16.6366 4.75977Z" fill="black" stroke="black"/>
<path opacity="0.788235" d="M39.3633 4.75977L39.3866 4.87643H39.34L39.3633 4.75977Z" fill="black" stroke="black"/>
<path opacity="0.788235" d="M13.1367 4.80664L13.2533 4.82997L13.1367 4.85331V4.80664Z" fill="black" stroke="black"/>
<path opacity="0.788235" d="M42.77 4.80664L42.8867 4.82997L42.77 4.85331V4.80664Z" fill="black" stroke="black"/>
<path opacity="0.788235" d="M12.6233 4.8999L12.5767 4.99324" stroke="black"/>
<path opacity="0.788235" d="M43.3767 4.8999L43.4234 4.99324" stroke="black"/>
<path opacity="0.788235" d="M16.59 5.08643L16.6133 5.20309H16.5667L16.59 5.08643Z" fill="black" stroke="black"/>
<path opacity="0.788235" d="M39.4101 5.08643L39.4334 5.20309H39.3867L39.4101 5.08643Z" fill="black" stroke="black"/>
<path opacity="0.788235" d="M12.39 5.1333L12.3433 5.22663" stroke="black"/>
<path opacity="0.788235" d="M43.61 5.1333L43.6567 5.22663" stroke="black"/>
<path opacity="0.788235" d="M27.6967 5.27344L27.86 5.29677L27.6967 5.3201V5.27344Z" fill="black" stroke="black"/>
<path opacity="0.788235" d="M28.1633 5.27344L28.3267 5.29677L28.1633 5.3201V5.27344Z" fill="black" stroke="black"/>
<path opacity="0.788235" d="M16.5434 5.3667L16.5667 5.53003H16.52L16.5434 5.3667Z" fill="black" stroke="black"/>
<path opacity="0.788235" d="M39.4567 5.41357L39.48 5.53024H39.4333L39.4567 5.41357Z" fill="black" stroke="black"/>
<path opacity="0.788235" d="M12.25 5.45996L12.2734 5.94996H12.2267L12.25 5.45996Z" fill="black" stroke="black"/>
<path opacity="0.788235" d="M43.75 5.45996L43.7734 5.90329H43.7267L43.75 5.45996Z" fill="black" stroke="black"/>
<path opacity="0.788235" d="M27.1366 5.50684L27.09 5.60017" stroke="black"/>
<path opacity="0.788235" d="M26.9966 5.6001L26.7633 5.8801" stroke="black"/>
<path opacity="0.788235" d="M29.0033 5.6001L29.2366 5.8801" stroke="black"/>
<path opacity="0.788235" d="M40.95 5.64648L41.02 5.66982L40.8567 5.73982V5.69315L40.95 5.64648Z" fill="black" stroke="black"/>
<path opacity="0.788235" d="M16.3567 5.74023L16.3101 5.83357" stroke="black"/>
<path opacity="0.788235" d="M39.6433 5.74023L39.8066 5.8569L39.7366 5.83357L39.6433 5.74023Z" fill="black" stroke="black"/>
<path opacity="0.788235" d="M26.6234 6.06689L26.6 6.13689L26.53 6.30023L26.5067 6.23023L26.6234 6.06689Z" fill="black" stroke="black"/>
<path opacity="0.788235" d="M29.3767 6.06689L29.4467 6.18356H29.4L29.3767 6.06689Z" fill="black" stroke="black"/>
<path opacity="0.788235" d="M12.2966 6.43994L12.32 6.88327H12.2733L12.2966 6.43994Z" fill="black" stroke="black"/>
<path opacity="0.788235" d="M43.7034 6.43994L43.7267 6.88327H43.6801L43.7034 6.43994Z" fill="black" stroke="black"/>
<path opacity="0.788235" d="M29.5634 6.5332L29.5867 6.64987H29.54L29.5634 6.5332Z" fill="black" stroke="black"/>
<path opacity="0.788235" d="M26.4367 7.09326L26.46 7.20993H26.4133L26.4367 7.09326Z" fill="black" stroke="black"/>
<path opacity="0.788235" d="M29.5634 7.09326L29.5867 7.20993H29.54L29.5634 7.09326Z" fill="black" stroke="black"/>
<path opacity="0.788235" d="M12.3433 7.37354L12.3667 7.86354H12.32L12.3433 7.37354Z" fill="black" stroke="black"/>
<path opacity="0.788235" d="M43.6566 7.37354L43.68 7.86354H43.6333L43.6566 7.37354Z" fill="black" stroke="black"/>
<path opacity="0.788235" d="M26.6233 7.65332L26.67 7.74665" stroke="black"/>
<path opacity="0.788235" d="M29.3766 7.65332L29.33 7.74665" stroke="black"/>
<path opacity="0.788235" d="M26.7167 7.79346L26.81 7.93346" stroke="black"/>
<path opacity="0.788235" d="M29.2833 7.79346L29.1899 7.93346" stroke="black"/>
<path opacity="0.788235" d="M26.95 8.02686L27.0433 8.16686" stroke="black"/>
<path opacity="0.788235" d="M29.05 8.02686L28.9567 8.16686" stroke="black"/>
<path opacity="0.788235" d="M32.41 8.12012L32.5267 8.14345L32.41 8.16678V8.12012Z" fill="black" stroke="black"/>
<path opacity="0.788235" d="M8.51666 8.25977L8.28333 8.53977" stroke="black"/>
<path opacity="0.788235" d="M47.4833 8.25977L47.7166 8.53977" stroke="black"/>
<path opacity="0.788235" d="M12.2966 8.3999L12.2033 8.5399" stroke="black"/>
<path opacity="0.788235" d="M43.7034 8.3999L43.7967 8.5399" stroke="black"/>
<path opacity="0.788235" d="M12.0633 8.58643L11.9233 8.77309" stroke="black"/>
<path opacity="0.788235" d="M43.9833 8.6333L44.0766 8.7733" stroke="black"/>
<path opacity="0.788235" d="M19.11 9.66016L19.0633 9.75349L18.9233 9.80016V9.75349L19.11 9.66016Z" fill="black" stroke="black"/>
<path opacity="0.788235" d="M18.7367 9.84668L18.69 9.94001L18.5967 9.98668L18.6433 9.89335L18.7367 9.84668Z" fill="black" stroke="black"/>
<path opacity="0.788235" d="M37.3567 9.89355L37.4034 9.98689" stroke="black"/>
<path opacity="0.788235" d="M18.0367 10.2202L17.99 10.3135" stroke="black"/>
<path opacity="0.788235" d="M17.8034 10.3599L17.7567 10.4532" stroke="black"/>
<path opacity="0.788235" d="M17.4767 10.5469L17.4301 10.6402" stroke="black"/>
<path opacity="0.788235" d="M38.5233 10.5469L38.57 10.6402" stroke="black"/>
<path opacity="0.788235" d="M17.3367 10.6401L17.29 10.7335" stroke="black"/>
<path opacity="0.788235" d="M27.0433 10.7334L27.09 10.8267" stroke="black"/>
<path opacity="0.788235" d="M28.9567 10.7334L28.91 10.8267" stroke="black"/>
<path opacity="0.788235" d="M17.1033 10.7798L17.0566 10.8731" stroke="black"/>
<path opacity="0.788235" d="M38.8967 10.7798L38.9434 10.8731" stroke="black"/>
<path opacity="0.788235" d="M27.1833 10.8267L27.23 10.92" stroke="black"/>
<path opacity="0.788235" d="M28.8167 10.8267L28.77 10.92" stroke="black"/>
<path opacity="0.788235" d="M16.9633 10.8735L16.9166 10.9669" stroke="black"/>
<path opacity="0.788235" d="M39.0366 10.8735L39.0833 10.9669" stroke="black"/>
<path opacity="0.788235" d="M16.8233 10.9668L16.7766 11.0601" stroke="black"/>
<path opacity="0.788235" d="M39.1766 10.9668L39.2233 11.0601" stroke="black"/>
<path opacity="0.788235" d="M16.6834 11.0601L16.6367 11.1534" stroke="black"/>
<path opacity="0.788235" d="M27.79 11.0601L28.2334 11.0834L27.79 11.1067V11.0601Z" fill="black" stroke="black"/>
<path opacity="0.788235" d="M39.3167 11.0601L39.3633 11.1534" stroke="black"/>
<path opacity="0.788235" d="M16.5434 11.1533L16.4967 11.2467" stroke="black"/>
<path opacity="0.788235" d="M39.4567 11.1533L39.5033 11.2467" stroke="black"/>
<path opacity="0.788235" d="M16.4034 11.2466L16.3567 11.3399" stroke="black"/>
<path opacity="0.788235" d="M39.5967 11.2466L39.6433 11.3399" stroke="black"/>
<path opacity="0.788235" d="M16.2167 11.3867L16.17 11.4801" stroke="black"/>
<path opacity="0.788235" d="M16.0767 11.48L16.03 11.5733" stroke="black"/>
<path opacity="0.788235" d="M39.9233 11.48L39.97 11.5733" stroke="black"/>
<path opacity="0.788235" d="M15.8901 11.6201L15.8434 11.7135" stroke="black"/>
<path opacity="0.788235" d="M40.11 11.6201L40.1567 11.7135" stroke="black"/>
<path opacity="0.788235" d="M15.7033 11.7598L15.6566 11.8531" stroke="black"/>
<path opacity="0.788235" d="M40.2966 11.7598L40.3433 11.8531" stroke="black"/>
<path opacity="0.788235" d="M8.75001 11.8999L8.65668 12.0399" stroke="black"/>
<path opacity="0.788235" d="M15.5167 11.8999L15.4233 12.0399" stroke="black"/>
<path opacity="0.788235" d="M40.4833 11.8999L40.5766 12.0399" stroke="black"/>
<path opacity="0.788235" d="M47.25 11.8999L47.3433 12.0399" stroke="black"/>
<path opacity="0.788235" d="M15.2833 12.0864L15.1899 12.2264" stroke="black"/>
<path opacity="0.788235" d="M40.7167 12.0864L40.81 12.2264" stroke="black"/>
<path opacity="0.788235" d="M8.56334 12.1333L8.42334 12.32" stroke="black"/>
<path opacity="0.788235" d="M47.4833 12.1802L47.5766 12.3202" stroke="black"/>
<path opacity="0.788235" d="M5.48334 12.2266L5.97334 12.2499L5.48334 12.2732V12.2266Z" fill="black" stroke="black"/>
<path opacity="0.788235" d="M50.05 12.2266L50.54 12.2499L50.05 12.2732V12.2266Z" fill="black" stroke="black"/>
<path opacity="0.788235" d="M6.46332 12.2734L6.90665 12.2968L6.46332 12.3201V12.2734Z" fill="black" stroke="black"/>
<path opacity="0.788235" d="M15.05 12.2734L14.91 12.4601" stroke="black"/>
<path opacity="0.788235" d="M40.95 12.2734L41.09 12.4601" stroke="black"/>
<path opacity="0.788235" d="M49.1167 12.2734L49.56 12.2968L49.1167 12.3201V12.2734Z" fill="black" stroke="black"/>
<path opacity="0.788235" d="M5.20334 12.3198L5.15668 12.4132" stroke="black"/>
<path opacity="0.788235" d="M7.39667 12.3198L7.88667 12.3432L7.39667 12.3665V12.3198Z" fill="black" stroke="black"/>
<path opacity="0.788235" d="M48.1367 12.3198L48.6267 12.3432L48.1367 12.3665V12.3198Z" fill="black" stroke="black"/>
<path opacity="0.788235" d="M50.7966 12.3198L50.8433 12.4132" stroke="black"/>
<path opacity="0.788235" d="M14.77 12.5068L14.5834 12.7402" stroke="black"/>
<path opacity="0.788235" d="M41.23 12.5068L41.4166 12.7402" stroke="black"/>
<path opacity="0.788235" d="M4.97001 12.5532L4.92334 12.6466" stroke="black"/>
<path opacity="0.788235" d="M51.03 12.5532L51.0767 12.6466" stroke="black"/>
<path opacity="0.788235" d="M14.3966 12.8335L14.0699 13.2068" stroke="black"/>
<path opacity="0.788235" d="M41.6033 12.8335L41.9299 13.2068" stroke="black"/>
<path opacity="0.788235" d="M4.82997 13.1133L4.85331 13.2299H4.80664L4.82997 13.1133Z" fill="black" stroke="black"/>
<path opacity="0.788235" d="M51.1701 13.1133L51.1934 13.2299H51.1467L51.1701 13.1133Z" fill="black" stroke="black"/>
<path opacity="0.788235" d="M13.1833 14.0469L12.9966 14.2802" stroke="black"/>
<path opacity="0.788235" d="M42.8167 14.0469L43.1433 14.4202" stroke="black"/>
<path opacity="0.788235" d="M35.1633 14.2798L35.42 14.3031L35.1633 14.3265V14.2798Z" fill="black" stroke="black"/>
<path opacity="0.788235" d="M35.63 14.3267L35.7467 14.35L35.63 14.3733V14.3267Z" fill="black" stroke="black"/>
<path opacity="0.788235" d="M35.91 14.3735L36.0267 14.3969L35.91 14.4202V14.3735Z" fill="black" stroke="black"/>
<path opacity="0.788235" d="M36.1433 14.4199L36.26 14.4433L36.1433 14.4666V14.4199Z" fill="black" stroke="black"/>
<path opacity="0.788235" d="M43.2833 14.5601L43.47 14.7934" stroke="black"/>
<path opacity="0.788235" d="M43.5634 14.8867L43.7034 15.0734" stroke="black"/>
<path opacity="0.788235" d="M43.7966 15.1665L43.89 15.3065" stroke="black"/>
<path opacity="0.788235" d="M38.6167 15.3999L38.6634 15.4932" stroke="black"/>
<path opacity="0.788235" d="M43.9833 15.3999L44.0766 15.5399" stroke="black"/>
<path opacity="0.788235" d="M44.17 15.6333L44.2167 15.7266" stroke="black"/>
<path opacity="0.788235" d="M39.0366 15.6802L39.0833 15.7735" stroke="black"/>
<path opacity="0.788235" d="M39.1766 15.7734L39.27 15.9134" stroke="black"/>
<path opacity="0.788235" d="M44.3101 15.8198L44.3567 15.9132" stroke="black"/>
<path opacity="0.788235" d="M39.3633 15.9136L39.4566 16.0536" stroke="black"/>
<path opacity="0.788235" d="M44.45 16.0068L44.4966 16.1002" stroke="black"/>
<path opacity="0.788235" d="M39.6433 16.1465L39.8766 16.4265" stroke="black"/>
<path opacity="0.788235" d="M44.5433 16.1465L44.59 16.2398" stroke="black"/>
<path opacity="0.788235" d="M5.80997 16.2866L5.76331 16.38" stroke="black"/>
<path opacity="0.788235" d="M50.1899 16.2866L50.2366 16.38" stroke="black"/>
<path opacity="0.788235" d="M44.6833 16.3335L44.73 16.4268" stroke="black"/>
<path opacity="0.788235" d="M44.7766 16.4731L44.8233 16.5665" stroke="black"/>
<path opacity="0.788235" d="M5.43665 16.52L5.55331 16.5434L5.43665 16.5667V16.52Z" fill="black" stroke="black"/>
<path opacity="0.788235" d="M50.47 16.52L50.5866 16.5434L50.47 16.5667V16.52Z" fill="black" stroke="black"/>
<path opacity="0.788235" d="M5.10999 16.5669L5.22665 16.5902L5.10999 16.6136V16.5669Z" fill="black" stroke="black"/>
<path opacity="0.788235" d="M50.7966 16.5669L50.9133 16.5902L50.7966 16.6136V16.5669Z" fill="black" stroke="black"/>
<path opacity="0.788235" d="M4.78333 16.6133L4.94666 16.6366L4.78333 16.6599V16.6133Z" fill="black" stroke="black"/>
<path opacity="0.788235" d="M44.87 16.6133L44.9167 16.7066" stroke="black"/>
<path opacity="0.788235" d="M51.1233 16.6133L51.24 16.6366L51.1233 16.6599V16.6133Z" fill="black" stroke="black"/>
<path opacity="0.788235" d="M4.45667 16.6602L4.62 16.6835L4.45667 16.7068V16.6602Z" fill="black" stroke="black"/>
<path opacity="0.788235" d="M51.4033 16.6602L51.5667 16.6835L51.4033 16.7068V16.6602Z" fill="black" stroke="black"/>
<path opacity="0.788235" d="M4.1767 16.7065L4.29336 16.7299L4.1767 16.7532V16.7065Z" fill="black" stroke="black"/>
<path opacity="0.788235" d="M40.2034 16.7065L40.4834 17.0332" stroke="black"/>
<path opacity="0.788235" d="M51.73 16.7065L51.8466 16.7299L51.73 16.7532V16.7065Z" fill="black" stroke="black"/>
<path opacity="0.788235" d="M3.84998 16.7534L3.96664 16.7768L3.84998 16.8001V16.7534Z" fill="black" stroke="black"/>
<path opacity="0.788235" d="M44.9634 16.7534L45.01 16.8468" stroke="black"/>
<path opacity="0.788235" d="M52.0566 16.7534L52.1733 16.7768L52.0566 16.8001V16.7534Z" fill="black" stroke="black"/>
<path opacity="0.788235" d="M3.52332 16.7998L3.68665 16.8231L3.52332 16.8465V16.7998Z" fill="black" stroke="black"/>
<path opacity="0.788235" d="M52.3833 16.7998L52.5 16.8231L52.3833 16.8465V16.7998Z" fill="black" stroke="black"/>
<path opacity="0.788235" d="M3.19666 16.8467L3.35999 16.87L3.19666 16.8933V16.8467Z" fill="black" stroke="black"/>
<path opacity="0.788235" d="M52.6633 16.8467L52.8267 16.87L52.6633 16.8933V16.8467Z" fill="black" stroke="black"/>
<path opacity="0.788235" d="M2.91669 16.8936L3.03335 16.9169L2.91669 16.9402V16.8936Z" fill="black" stroke="black"/>
<path opacity="0.788235" d="M45.0566 16.8936L45.1033 16.9869" stroke="black"/>
<path opacity="0.788235" d="M52.99 16.8936L53.1067 16.9169L52.99 16.9402V16.8936Z" fill="black" stroke="black"/>
<path opacity="0.788235" d="M2.63668 17.0332L2.45001 17.2665" stroke="black"/>
<path opacity="0.788235" d="M45.15 17.0332L45.1967 17.1265" stroke="black"/>
<path opacity="0.788235" d="M53.3633 17.0332L53.5499 17.2665" stroke="black"/>
<path opacity="0.788235" d="M40.5767 17.1265L40.67 17.2665" stroke="black"/>
<path opacity="0.788235" d="M45.29 17.2666L45.3367 17.3599" stroke="black"/>
<path opacity="0.788235" d="M40.7633 17.3599L40.8566 17.4999" stroke="black"/>
<path opacity="0.788235" d="M45.3833 17.4067L45.43 17.5001" stroke="black"/>
<path opacity="0.788235" d="M40.9033 17.5469L40.95 17.6402" stroke="black"/>
<path opacity="0.788235" d="M40.9967 17.6865L41.0434 17.7799" stroke="black"/>
<path opacity="0.788235" d="M45.5699 17.7334L45.6166 17.8267" stroke="black"/>
<path opacity="0.788235" d="M41.09 17.8267L41.1366 17.92" stroke="black"/>
<path opacity="0.788235" d="M45.7567 18.0601L45.8034 18.1534" stroke="black"/>
<path opacity="0.788235" d="M2.45001 18.1064L2.49668 18.1998" stroke="black"/>
<path opacity="0.788235" d="M53.55 18.1064L53.5033 18.1998" stroke="black"/>
<path opacity="0.788235" d="M2.59003 18.2935L2.63669 18.3868" stroke="black"/>
<path opacity="0.788235" d="M53.4099 18.2935L53.3633 18.3868" stroke="black"/>
<path opacity="0.788235" d="M41.4166 18.3867L41.5333 18.5967H41.4866L41.4166 18.3867Z" fill="black" stroke="black"/>
<path opacity="0.788235" d="M2.72998 18.48L2.77665 18.5733" stroke="black"/>
<path opacity="0.788235" d="M53.2701 18.48L53.2234 18.5733" stroke="black"/>
<path opacity="0.788235" d="M2.8233 18.6201L2.91664 18.7601" stroke="black"/>
<path opacity="0.788235" d="M53.1767 18.6201L53.0834 18.7601" stroke="black"/>
<path opacity="0.788235" d="M2.96332 18.8066L3.05665 18.9466" stroke="black"/>
<path opacity="0.788235" d="M53.0367 18.8066L52.9434 18.9466" stroke="black"/>
<path opacity="0.788235" d="M3.10333 18.9932L3.15 19.0865" stroke="black"/>
<path opacity="0.788235" d="M52.8966 18.9932L52.85 19.0865" stroke="black"/>
<path opacity="0.788235" d="M3.24335 19.1802L3.29001 19.2735" stroke="black"/>
<path opacity="0.788235" d="M52.7566 19.1802L52.71 19.2735" stroke="black"/>
<path opacity="0.788235" d="M3.38336 19.3667L3.43003 19.46" stroke="black"/>
<path opacity="0.788235" d="M52.6166 19.3667L52.5699 19.46" stroke="black"/>
<path opacity="0.788235" d="M3.52332 19.5532L3.56998 19.6466" stroke="black"/>
<path opacity="0.788235" d="M52.4767 19.5532L52.4301 19.6466" stroke="black"/>
<path opacity="0.788235" d="M3.66333 19.7402L3.71 19.8336" stroke="black"/>
<path opacity="0.788235" d="M52.3367 19.7402L52.29 19.8336" stroke="black"/>
<path opacity="0.788235" d="M3.75665 19.8799L3.84999 20.0199" stroke="black"/>
<path opacity="0.788235" d="M7.58331 19.8799L7.69998 19.9032L7.58331 19.9265V19.8799Z" fill="black" stroke="black"/>
<path opacity="0.788235" d="M8.14331 19.8799L8.25998 19.9032L8.14331 19.9265V19.8799Z" fill="black" stroke="black"/>
<path opacity="0.788235" d="M47.7633 19.8799L47.88 19.9032L47.7633 19.9265V19.8799Z" fill="black" stroke="black"/>
<path opacity="0.788235" d="M48.3234 19.8799L48.44 19.9032L48.3234 19.9265V19.8799Z" fill="black" stroke="black"/>
<path opacity="0.788235" d="M52.1967 19.9268L52.15 20.0201" stroke="black"/>
<path opacity="0.788235" d="M3.89667 20.0669L3.99 20.2069" stroke="black"/>
<path opacity="0.788235" d="M8.70331 20.0669L8.74997 20.1602" stroke="black"/>
<path opacity="0.788235" d="M47.2967 20.0669L47.25 20.1602" stroke="black"/>
<path opacity="0.788235" d="M52.1033 20.0669L52.01 20.2069" stroke="black"/>
<path opacity="0.788235" d="M7.02335 20.1133L6.97668 20.2066" stroke="black"/>
<path opacity="0.788235" d="M48.9767 20.1133L49.0234 20.2066" stroke="black"/>
<path opacity="0.788235" d="M8.84332 20.1602L8.88999 20.2535" stroke="black"/>
<path opacity="0.788235" d="M42.07 20.1602L42.0933 20.2768H42.0466L42.07 20.1602Z" fill="black" stroke="black"/>
<path opacity="0.788235" d="M47.1567 20.1602L47.11 20.2535" stroke="black"/>
<path opacity="0.788235" d="M4.03668 20.2534L4.10668 20.4168H4.06002L4.03668 20.2534Z" fill="black" stroke="black"/>
<path opacity="0.788235" d="M6.83666 20.2534L6.69666 20.4401" stroke="black"/>
<path opacity="0.788235" d="M49.1633 20.2534L49.3033 20.4401" stroke="black"/>
<path opacity="0.788235" d="M51.9633 20.2534L51.94 20.3234L51.9166 20.4401L51.8933 20.3234L51.9633 20.2534Z" fill="black" stroke="black"/>
<path opacity="0.788235" d="M9.12335 20.4399L9.21669 20.5799" stroke="black"/>
<path opacity="0.788235" d="M42.1167 20.4399L42.1401 20.5566H42.0934L42.1167 20.4399Z" fill="black" stroke="black"/>
<path opacity="0.788235" d="M46.8767 20.4399L46.7833 20.5799" stroke="black"/>
<path opacity="0.788235" d="M44.73 20.4868L44.7066 20.5568L44.59 20.7668L44.6133 20.6968L44.73 20.4868Z" fill="black" stroke="black"/>
<path opacity="0.788235" d="M6.60331 20.5332L6.55664 20.6265" stroke="black"/>
<path opacity="0.788235" d="M49.3967 20.5332L49.4434 20.6265" stroke="black"/>
<path opacity="0.788235" d="M11.34 20.5801L14.7934 20.6034L11.41 20.6267L11.3634 20.6734L11.34 20.5801Z" fill="black" stroke="black"/>
<path opacity="0.788235" d="M23.7533 20.5801L30.8 20.6034L23.8 20.6267L23.7766 24.3134L23.7533 20.5801Z" fill="black" stroke="black"/>
<path opacity="0.788235" d="M31.0566 20.6265L31.22 20.6498L31.0566 20.6731V20.6265Z" fill="black" stroke="black"/>
<path opacity="0.788235" d="M42.1633 20.7666L42.1867 21.0699H42.14L42.1633 20.7666Z" fill="black" stroke="black"/>
<path opacity="0.788235" d="M32.41 21.0469L32.4567 21.1402" stroke="black"/>
<path opacity="0.788235" d="M32.55 21.1401L32.5967 21.2335" stroke="black"/>
<path opacity="0.788235" d="M6.32332 21.1865L6.34665 21.3965H6.29999L6.32332 21.1865Z" fill="black" stroke="black"/>
<path opacity="0.788235" d="M49.6767 21.1865L49.7 21.3965H49.6533L49.6767 21.1865Z" fill="black" stroke="black"/>
<path opacity="0.788235" d="M9.49666 21.3267L9.51999 21.63H9.47333L9.49666 21.3267Z" fill="black" stroke="black"/>
<path opacity="0.788235" d="M32.7833 21.3267L32.8767 21.4667" stroke="black"/>
<path opacity="0.788235" d="M46.5033 21.3267L46.5266 21.63H46.48L46.5033 21.3267Z" fill="black" stroke="black"/>
<path opacity="0.788235" d="M49.6767 21.4668L49.7 21.7235H49.6533L49.6767 21.4668Z" fill="black" stroke="black"/>
<path opacity="0.788235" d="M6.32332 21.5132L6.34665 21.7232H6.29999L6.32332 21.5132Z" fill="black" stroke="black"/>
<path opacity="0.788235" d="M32.97 21.5601L33.0166 21.6534" stroke="black"/>
<path opacity="0.788235" d="M42.1633 21.6533L42.1867 21.91H42.14L42.1633 21.6533Z" fill="black" stroke="black"/>
<path opacity="0.788235" d="M33.0634 21.7002L33.11 21.7935" stroke="black"/>
<path opacity="0.788235" d="M11.97 21.98L11.9933 22.0966H11.9467L11.97 21.98Z" fill="black" stroke="black"/>
<path opacity="0.788235" d="M44.03 21.98L44.0534 22.0966H44.0067L44.03 21.98Z" fill="black" stroke="black"/>
<path opacity="0.788235" d="M1.18998 22.0269L1.14331 22.1202" stroke="black"/>
<path opacity="0.788235" d="M54.8101 22.0269L54.8567 22.1202" stroke="black"/>
<path opacity="0.788235" d="M33.25 22.0732L33.2734 22.1899H33.2267L33.25 22.0732Z" fill="black" stroke="black"/>
<path opacity="0.788235" d="M42.1167 22.1201L42.1401 22.2835H42.0934L42.1167 22.1201Z" fill="black" stroke="black"/>
<path opacity="0.788235" d="M6.55664 22.3066L6.60331 22.4" stroke="black"/>
<path opacity="0.788235" d="M49.4434 22.3066L49.3967 22.4" stroke="black"/>
<path opacity="0.788235" d="M9.21665 22.3535L9.16998 22.4468" stroke="black"/>
<path opacity="0.788235" d="M33.2966 22.3535L33.32 22.5168H33.2733L33.2966 22.3535Z" fill="black" stroke="black"/>
<path opacity="0.788235" d="M46.7833 22.3535L46.83 22.4468" stroke="black"/>
<path opacity="0.788235" d="M11.97 22.4468L11.9933 22.6101H11.9467L11.97 22.4468Z" fill="black" stroke="black"/>
<path opacity="0.788235" d="M44.03 22.4468L44.0534 22.6101H44.0067L44.03 22.4468Z" fill="black" stroke="black"/>
<path opacity="0.788235" d="M6.69666 22.4932L6.88332 22.7265" stroke="black"/>
<path opacity="0.788235" d="M49.3034 22.4932L49.1167 22.7265" stroke="black"/>
<path opacity="0.788235" d="M8.89003 22.6802L8.79669 22.8202" stroke="black"/>
<path opacity="0.788235" d="M47.1566 22.7266L47.2033 22.8199" stroke="black"/>
<path opacity="0.788235" d="M7.11664 22.8198L7.2333 22.8898L7.1633 22.9132L7.11664 22.8198Z" fill="black" stroke="black"/>
<path opacity="0.788235" d="M8.14331 23.0068L8.25998 23.0302L8.14331 23.0535V23.0068Z" fill="black" stroke="black"/>
<path opacity="0.788235" d="M47.7633 23.0068L47.88 23.0302L47.7633 23.0535V23.0068Z" fill="black" stroke="black"/>
<path opacity="0.788235" d="M0.909973 23.1465L0.95664 23.2398" stroke="black"/>
<path opacity="0.788235" d="M55.09 23.1465L55.0433 23.2398" stroke="black"/>
<path opacity="0.788235" d="M11.69 23.1934L11.6433 23.2867" stroke="black"/>
<path opacity="0.788235" d="M33.0634 23.1934L33.0167 23.2867" stroke="black"/>
<path opacity="0.788235" d="M44.3101 23.1934L44.3567 23.2867" stroke="black"/>
<path opacity="0.788235" d="M1.09668 23.3335L1.37668 23.6602" stroke="black"/>
<path opacity="0.788235" d="M54.9033 23.3335L54.6233 23.6602" stroke="black"/>
<path opacity="0.788235" d="M32.9233 23.3799L32.6899 23.6599" stroke="black"/>
<path opacity="0.788235" d="M11.41 23.4731L11.3167 23.6131" stroke="black"/>
<path opacity="0.788235" d="M44.59 23.4731L44.6833 23.6131" stroke="black"/>
<path opacity="0.788235" d="M11.0367 23.7065L10.99 23.7999L10.8033 23.8932L10.85 23.7999L11.0367 23.7065Z" fill="black" stroke="black"/>
<path opacity="0.788235" d="M32.55 23.7065L32.5033 23.7999" stroke="black"/>
<path opacity="0.788235" d="M1.60999 23.7998L1.88999 24.1265" stroke="black"/>
<path opacity="0.788235" d="M45.15 23.7998L45.1967 23.8931" stroke="black"/>
<path opacity="0.788235" d="M54.39 23.7998L54.11 24.1265" stroke="black"/>
<path opacity="0.788235" d="M32.3167 23.8467L32.27 23.94" stroke="black"/>
<path opacity="0.788235" d="M31.15 24.2202L31.2667 24.2435L31.15 24.2669V24.2202Z" fill="black" stroke="black"/>
<path opacity="0.788235" d="M41.4167 24.2202L41.37 24.3135" stroke="black"/>
<path opacity="0.788235" d="M2.12335 24.2666L2.35669 24.5466" stroke="black"/>
<path opacity="0.788235" d="M30.59 24.2666L30.94 24.2899L30.59 24.3133V24.2666Z" fill="black" stroke="black"/>
<path opacity="0.788235" d="M53.8767 24.2666L53.5967 24.5933" stroke="black"/>
<path opacity="0.788235" d="M41.2766 24.4531L41.23 24.5465" stroke="black"/>
<path opacity="0.788235" d="M41.1834 24.5933L41.1367 24.6866" stroke="black"/>
<path opacity="0.788235" d="M2.59003 24.6865L2.87003 25.0132" stroke="black"/>
<path opacity="0.788235" d="M41.09 24.7334L41.0433 24.8267" stroke="black"/>
<path opacity="0.788235" d="M53.3633 24.7334L53.13 25.0134" stroke="black"/>
<path opacity="0.788235" d="M8.65668 24.9199L8.61002 25.0133L8.33002 25.1533L8.37668 25.0599L8.65668 24.9199Z" fill="black" stroke="black"/>
<path opacity="0.788235" d="M40.95 24.9199L40.9033 25.0133" stroke="black"/>
<path opacity="0.788235" d="M47.53 25.0132L47.6934 25.1299L47.6234 25.1065L47.53 25.0132Z" fill="black" stroke="black"/>
<path opacity="0.788235" d="M40.81 25.1064L40.67 25.2931" stroke="black"/>
<path opacity="0.788235" d="M3.05666 25.1533L3.07999 25.3633H3.03333L3.05666 25.1533Z" fill="black" stroke="black"/>
<path opacity="0.788235" d="M52.9434 25.1533L52.9667 25.41H52.92L52.9434 25.1533Z" fill="black" stroke="black"/>
<path opacity="0.788235" d="M7.86333 25.3398L7.84 25.4098L7.81667 25.5265L7.79333 25.4098L7.86333 25.3398Z" fill="black" stroke="black"/>
<path opacity="0.788235" d="M48.1367 25.3398L48.2067 25.5032H48.1601L48.1367 25.3398Z" fill="black" stroke="black"/>
<path opacity="0.788235" d="M40.5301 25.4331L40.0167 25.9931" stroke="black"/>
<path opacity="0.788235" d="M3.01003 25.6665L3.03336 25.8765H2.98669L3.01003 25.6665Z" fill="black" stroke="black"/>
<path opacity="0.788235" d="M52.99 25.6665L53.0133 25.8765H52.9667L52.99 25.6665Z" fill="black" stroke="black"/>
<path opacity="0.788235" d="M7.76998 25.7134L7.79331 25.8767H7.74664L7.76998 25.7134Z" fill="black" stroke="black"/>
<path opacity="0.788235" d="M48.23 25.7134L48.2533 25.9234H48.2067L48.23 25.7134Z" fill="black" stroke="black"/>
<path opacity="0.788235" d="M2.82334 25.9932L2.77667 26.0865" stroke="black"/>
<path opacity="0.788235" d="M53.1766 25.9932L53.2233 26.0865" stroke="black"/>
<path opacity="0.788235" d="M2.59 26.1333L2.54333 26.2266" stroke="black"/>
<path opacity="0.788235" d="M39.7833 26.1333L39.6899 26.2733" stroke="black"/>
<path opacity="0.788235" d="M53.41 26.1333L53.4567 26.2266" stroke="black"/>
<path opacity="0.788235" d="M7.72335 26.1802L7.74668 26.4368H7.70001L7.72335 26.1802Z" fill="black" stroke="black"/>
<path opacity="0.788235" d="M48.2766 26.1802L48.3 26.4368H48.2533L48.2766 26.1802Z" fill="black" stroke="black"/>
<path opacity="0.788235" d="M2.35666 26.2734L2.31 26.3668" stroke="black"/>
<path opacity="0.788235" d="M53.6433 26.2734L53.69 26.3668" stroke="black"/>
<path opacity="0.788235" d="M39.55 26.3198L39.4567 26.4598" stroke="black"/>
<path opacity="0.788235" d="M2.12333 26.4136L2.07666 26.5069" stroke="black"/>
<path opacity="0.788235" d="M53.8767 26.4136L53.9234 26.5069" stroke="black"/>
<path opacity="0.788235" d="M39.3167 26.5068L39.27 26.6002" stroke="black"/>
<path opacity="0.788235" d="M1.88999 26.5532L1.84332 26.6466" stroke="black"/>
<path opacity="0.788235" d="M54.11 26.5532L54.1567 26.6466" stroke="black"/>
<path opacity="0.788235" d="M39.13 26.6465L39.0834 26.7398" stroke="black"/>
<path opacity="0.788235" d="M1.65665 26.6934L1.60999 26.7867" stroke="black"/>
<path opacity="0.788235" d="M54.3434 26.6934L54.3901 26.7867" stroke="black"/>
<path opacity="0.788235" d="M38.99 26.7402L38.9434 26.8336" stroke="black"/>
<path opacity="0.788235" d="M1.42331 26.8335L1.37665 26.9268" stroke="black"/>
<path opacity="0.788235" d="M7.67665 26.8335L7.69999 27.3235H7.65332L7.67665 26.8335Z" fill="black" stroke="black"/>
<path opacity="0.788235" d="M38.85 26.8335L38.8033 26.9268" stroke="black"/>
<path opacity="0.788235" d="M48.3234 26.8335L48.3467 27.3235H48.3L48.3234 26.8335Z" fill="black" stroke="black"/>
<path opacity="0.788235" d="M54.5767 26.8335L54.6233 26.9268" stroke="black"/>
<path opacity="0.788235" d="M38.71 26.9268L38.6633 27.0201" stroke="black"/>
<path opacity="0.788235" d="M1.18998 26.9731L1.14331 27.0665" stroke="black"/>
<path opacity="0.788235" d="M54.8101 26.9731L54.8567 27.0665" stroke="black"/>
<path opacity="0.788235" d="M38.4767 27.0669L38.4301 27.1602" stroke="black"/>
<path opacity="0.788235" d="M0.95664 27.1133L0.909973 27.2066" stroke="black"/>
<path opacity="0.788235" d="M55.0433 27.1133L55.09 27.2066" stroke="black"/>
<path opacity="0.788235" d="M0.723363 27.2534L0.676697 27.3468" stroke="black"/>
<path opacity="0.788235" d="M55.2766 27.2534L55.3233 27.3468" stroke="black"/>
<path opacity="0.788235" d="M38.5233 27.2998L38.71 27.5331" stroke="black"/>
<path opacity="0.788235" d="M0.583334 27.3467L0.396667 27.58" stroke="black"/>
<path opacity="0.788235" d="M55.4166 27.3467L55.6033 27.58" stroke="black"/>
<path opacity="0.788235" d="M39.0834 27.8599L39.3167 28.1399" stroke="black"/>
<path opacity="0.788235" d="M39.41 28.2334L39.5034 28.3734" stroke="black"/>
<path opacity="0.788235" d="M0.396667 28.4199L0.583334 28.6533" stroke="black"/>
<path opacity="0.788235" d="M55.6033 28.4199L55.4166 28.6533" stroke="black"/>
<path opacity="0.788235" d="M39.5967 28.4668L39.6433 28.5601" stroke="black"/>
<path opacity="0.788235" d="M39.6899 28.6064L39.7833 28.7464" stroke="black"/>
<path opacity="0.788235" d="M0.676697 28.6533L0.723363 28.7467" stroke="black"/>
<path opacity="0.788235" d="M7.67665 28.6533L7.69999 29.1433H7.65332L7.67665 28.6533Z" fill="black" stroke="black"/>
<path opacity="0.788235" d="M48.3234 28.6533L48.3467 29.1433H48.3L48.3234 28.6533Z" fill="black" stroke="black"/>
<path opacity="0.788235" d="M55.3233 28.6533L55.2766 28.7467" stroke="black"/>
<path opacity="0.788235" d="M0.909973 28.7935L0.95664 28.8868" stroke="black"/>
<path opacity="0.788235" d="M39.83 28.7935L39.8766 28.8868" stroke="black"/>
<path opacity="0.788235" d="M55.09 28.7935L55.0433 28.8868" stroke="black"/>
<path opacity="0.788235" d="M1.14331 28.9331L1.18998 29.0264" stroke="black"/>
<path opacity="0.788235" d="M39.9233 28.9331L39.97 29.0264" stroke="black"/>
<path opacity="0.788235" d="M54.8567 28.9331L54.8101 29.0264" stroke="black"/>
<path opacity="0.788235" d="M1.37665 29.0732L1.42331 29.1666" stroke="black"/>
<path opacity="0.788235" d="M40.0167 29.0732L40.0634 29.1666" stroke="black"/>
<path opacity="0.788235" d="M54.6233 29.0732L54.5767 29.1666" stroke="black"/>
<path opacity="0.788235" d="M1.60999 29.2134L1.65665 29.3067" stroke="black"/>
<path opacity="0.788235" d="M54.3901 29.2134L54.3434 29.3067" stroke="black"/>
<path opacity="0.788235" d="M40.1566 29.3066L40.2033 29.4" stroke="black"/>
<path opacity="0.788235" d="M1.84332 29.3535L1.88999 29.4468" stroke="black"/>
<path opacity="0.788235" d="M54.1567 29.3535L54.11 29.4468" stroke="black"/>
<path opacity="0.788235" d="M2.07666 29.4932L2.12333 29.5865" stroke="black"/>
<path opacity="0.788235" d="M53.9234 29.4932L53.8767 29.5865" stroke="black"/>
<path opacity="0.788235" d="M7.72335 29.54L7.74668 29.7967H7.70001L7.72335 29.54Z" fill="black" stroke="black"/>
<path opacity="0.788235" d="M2.31 29.6333L2.35666 29.7266" stroke="black"/>
<path opacity="0.788235" d="M40.3434 29.6333L40.3901 29.7266" stroke="black"/>
<path opacity="0.788235" d="M53.69 29.6333L53.6433 29.7266" stroke="black"/>
<path opacity="0.788235" d="M2.54333 29.7734L2.59 29.8668" stroke="black"/>
<path opacity="0.788235" d="M53.4567 29.7734L53.41 29.8668" stroke="black"/>
<path opacity="0.788235" d="M2.77667 29.9136L2.82334 30.0069" stroke="black"/>
<path opacity="0.788235" d="M53.2233 29.9136L53.1766 30.0069" stroke="black"/>
<path opacity="0.788235" d="M3.01003 30.1001L3.03336 30.3101H2.98669L3.01003 30.1001Z" fill="black" stroke="black"/>
<path opacity="0.788235" d="M7.76998 30.1001L7.79331 30.2634H7.74664L7.76998 30.1001Z" fill="black" stroke="black"/>
<path opacity="0.788235" d="M23.7766 30.1001L23.8 33.7868L28.28 33.8101L23.7533 33.8334L23.7766 30.1001Z" fill="black" stroke="black"/>
<path opacity="0.788235" d="M29.0033 30.1001L29.3066 30.1234L29.0033 30.1468V30.1001Z" fill="black" stroke="black"/>
<path opacity="0.788235" d="M52.99 30.1001L53.0133 30.3101H52.9667L52.99 30.1001Z" fill="black" stroke="black"/>
<path opacity="0.788235" d="M29.47 30.1465L29.5866 30.1698L29.47 30.1932V30.1465Z" fill="black" stroke="black"/>
<path opacity="0.788235" d="M7.81667 30.4731L7.84 30.6365H7.79333L7.81667 30.4731Z" fill="black" stroke="black"/>
<path opacity="0.788235" d="M52.9434 30.5669L52.9667 30.8236H52.92L52.9434 30.5669Z" fill="black" stroke="black"/>
<path opacity="0.788235" d="M3.05666 30.6133L3.07999 30.8233H3.03333L3.05666 30.6133Z" fill="black" stroke="black"/>
<path opacity="0.788235" d="M30.73 30.6602L30.7766 30.7535" stroke="black"/>
<path opacity="0.788235" d="M30.9166 30.7998L31.15 31.0798" stroke="black"/>
<path opacity="0.788235" d="M7.86336 30.8467L7.88669 31.01H7.84003L7.86336 30.8467Z" fill="black" stroke="black"/>
<path opacity="0.788235" d="M2.87003 30.9868L2.59003 31.3135" stroke="black"/>
<path opacity="0.788235" d="M53.13 30.9868L53.3633 31.2668" stroke="black"/>
<path opacity="0.788235" d="M7.90999 31.1733L7.93332 31.29H7.88666L7.90999 31.1733Z" fill="black" stroke="black"/>
<path opacity="0.788235" d="M31.29 31.2202L31.3367 31.3135" stroke="black"/>
<path opacity="0.788235" d="M45.9434 31.2666L45.9667 31.4766H45.92L45.9434 31.2666Z" fill="black" stroke="black"/>
<path opacity="0.788235" d="M53.5967 31.4067L53.8767 31.7334" stroke="black"/>
<path opacity="0.788235" d="M2.35669 31.4531L2.12335 31.7331" stroke="black"/>
<path opacity="0.788235" d="M7.95668 31.4531L7.98002 31.5698H7.93335L7.95668 31.4531Z" fill="black" stroke="black"/>
<path opacity="0.788235" d="M31.5699 31.6401L31.6166 31.7335" stroke="black"/>
<path opacity="0.788235" d="M45.8966 31.6401L45.92 31.7568H45.8733L45.8966 31.6401Z" fill="black" stroke="black"/>
<path opacity="0.788235" d="M8.00331 31.6865L8.02665 31.8032H7.97998L8.00331 31.6865Z" fill="black" stroke="black"/>
<path opacity="0.788235" d="M41.1834 31.7798L41.2067 31.8965H41.16L41.1834 31.7798Z" fill="black" stroke="black"/>
<path opacity="0.788235" d="M1.88999 31.8735L1.60999 32.2002" stroke="black"/>
<path opacity="0.788235" d="M54.11 31.8735L54.39 32.2002" stroke="black"/>
<path opacity="0.788235" d="M1.37668 32.3398L1.09668 32.6665" stroke="black"/>
<path opacity="0.788235" d="M54.6233 32.3398L54.9033 32.6665" stroke="black"/>
<path opacity="0.788235" d="M8.14333 32.3867L8.16666 32.5034H8.12L8.14333 32.3867Z" fill="black" stroke="black"/>
<path opacity="0.788235" d="M41.5566 32.7134L41.6033 32.8067" stroke="black"/>
<path opacity="0.788235" d="M0.95664 32.7598L0.909973 32.8531" stroke="black"/>
<path opacity="0.788235" d="M55.0433 32.7598L55.09 32.8531" stroke="black"/>
<path opacity="0.788235" d="M45.43 32.8535L45.3833 32.9468" stroke="black"/>
<path opacity="0.788235" d="M41.7433 32.9468L41.8366 33.0868" stroke="black"/>
<path opacity="0.788235" d="M42.0233 33.1802L42.07 33.2735" stroke="black"/>
<path opacity="0.788235" d="M45.01 33.2734L44.9634 33.3668" stroke="black"/>
<path opacity="0.788235" d="M44.87 33.3667L44.8234 33.46" stroke="black"/>
<path opacity="0.788235" d="M43.1433 33.6934L43.26 33.7167L43.1433 33.74V33.6934Z" fill="black" stroke="black"/>
<path opacity="0.788235" d="M44.03 33.6934L44.1467 33.7167L44.03 33.74V33.6934Z" fill="black" stroke="black"/>
<path opacity="0.788235" d="M43.5634 33.7402L43.7734 33.7636L43.5634 33.7869V33.7402Z" fill="black" stroke="black"/>
<path opacity="0.788235" d="M8.51666 33.7866L14.7933 33.81L8.51666 33.8333V33.7866Z" fill="black" stroke="black"/>
<path opacity="0.788235" d="M28.3967 33.8335L28.4901 33.9735" stroke="black"/>
<path opacity="0.788235" d="M1.14331 33.8799L1.18998 33.9732" stroke="black"/>
<path opacity="0.788235" d="M54.8567 33.8799L54.8101 33.9732" stroke="black"/>
<path opacity="0.788235" d="M32.5033 34.2534L32.5266 34.3701H32.48L32.5033 34.2534Z" fill="black" stroke="black"/>
<path opacity="0.788235" d="M32.5967 34.6733L32.62 34.79H32.5734L32.5967 34.6733Z" fill="black" stroke="black"/>
<path opacity="0.788235" d="M4.08331 35.5601L4.10664 35.6767L4.01331 35.7234L4.08331 35.5601Z" fill="black" stroke="black"/>
<path opacity="0.788235" d="M32.7833 35.5601L32.8067 35.6767H32.76L32.7833 35.5601Z" fill="black" stroke="black"/>
<path opacity="0.788235" d="M51.9166 35.5601L51.9866 35.7234L51.8933 35.6767L51.9166 35.5601Z" fill="black" stroke="black"/>
<path opacity="0.788235" d="M3.99 35.7935L3.89667 35.9335" stroke="black"/>
<path opacity="0.788235" d="M52.01 35.7935L52.1033 35.9335" stroke="black"/>
<path opacity="0.788235" d="M3.84999 35.98L3.75665 36.12" stroke="black"/>
<path opacity="0.788235" d="M52.15 35.98L52.1967 36.0733" stroke="black"/>
<path opacity="0.788235" d="M3.71 36.1665L3.66333 36.2598" stroke="black"/>
<path opacity="0.788235" d="M52.29 36.1665L52.3367 36.2598" stroke="black"/>
<path opacity="0.788235" d="M32.9234 36.2134L32.9467 36.33H32.9L32.9234 36.2134Z" fill="black" stroke="black"/>
<path opacity="0.788235" d="M3.56998 36.3535L3.52332 36.4468" stroke="black"/>
<path opacity="0.788235" d="M52.4301 36.3535L52.4767 36.4468" stroke="black"/>
<path opacity="0.788235" d="M3.43003 36.54L3.38336 36.6334" stroke="black"/>
<path opacity="0.788235" d="M52.5699 36.54L52.6166 36.6334" stroke="black"/>
<path opacity="0.788235" d="M3.29001 36.7266L3.24335 36.8199" stroke="black"/>
<path opacity="0.788235" d="M52.71 36.7266L52.7566 36.8199" stroke="black"/>
<path opacity="0.788235" d="M3.15 36.9136L3.10333 37.0069" stroke="black"/>
<path opacity="0.788235" d="M52.85 36.9136L52.8966 37.0069" stroke="black"/>
<path opacity="0.788235" d="M3.05665 37.0532L2.96332 37.1932" stroke="black"/>
<path opacity="0.788235" d="M52.9434 37.0532L53.0367 37.1932" stroke="black"/>
<path opacity="0.788235" d="M2.91664 37.2402L2.8233 37.3802" stroke="black"/>
<path opacity="0.788235" d="M53.0834 37.2402L53.1767 37.3802" stroke="black"/>
<path opacity="0.788235" d="M2.77665 37.4268L2.72998 37.5201" stroke="black"/>
<path opacity="0.788235" d="M53.2234 37.4268L53.2701 37.5201" stroke="black"/>
<path opacity="0.788235" d="M2.63669 37.6133L2.59003 37.7066" stroke="black"/>
<path opacity="0.788235" d="M53.3633 37.6133L53.4099 37.7066" stroke="black"/>
<path opacity="0.788235" d="M2.49668 37.7998L2.45001 37.8931" stroke="black"/>
<path opacity="0.788235" d="M53.5033 37.7998L53.55 37.8931" stroke="black"/>
<path opacity="0.788235" d="M2.45001 38.7334L2.63668 38.9667" stroke="black"/>
<path opacity="0.788235" d="M53.5499 38.7334L53.3633 38.9667" stroke="black"/>
<path opacity="0.788235" d="M33.8101 38.7798L33.8567 38.8731" stroke="black"/>
<path opacity="0.788235" d="M33.9033 38.9199L33.95 39.0133" stroke="black"/>
<path opacity="0.788235" d="M2.91669 39.0601L3.03335 39.0834L2.91669 39.1067V39.0601Z" fill="black" stroke="black"/>
<path opacity="0.788235" d="M33.9967 39.0601L34.1367 39.2467" stroke="black"/>
<path opacity="0.788235" d="M52.99 39.0601L53.1067 39.0834L52.99 39.1067V39.0601Z" fill="black" stroke="black"/>
<path opacity="0.788235" d="M3.19666 39.1064L3.35999 39.1298L3.19666 39.1531V39.1064Z" fill="black" stroke="black"/>
<path opacity="0.788235" d="M52.6633 39.1064L52.8267 39.1298L52.6633 39.1531V39.1064Z" fill="black" stroke="black"/>
<path opacity="0.788235" d="M3.52332 39.1533L3.68665 39.1767L3.52332 39.2V39.1533Z" fill="black" stroke="black"/>
<path opacity="0.788235" d="M52.3833 39.1533L52.5 39.1767L52.3833 39.2V39.1533Z" fill="black" stroke="black"/>
<path opacity="0.788235" d="M3.84998 39.2002L3.96664 39.2235L3.84998 39.2469V39.2002Z" fill="black" stroke="black"/>
<path opacity="0.788235" d="M52.0566 39.2002L52.1733 39.2235L52.0566 39.2469V39.2002Z" fill="black" stroke="black"/>
<path opacity="0.788235" d="M4.1767 39.2466L4.29336 39.2699L4.1767 39.2932V39.2466Z" fill="black" stroke="black"/>
<path opacity="0.788235" d="M51.73 39.2466L51.8466 39.2699L51.73 39.2932V39.2466Z" fill="black" stroke="black"/>
<path opacity="0.788235" d="M4.45667 39.2935L4.62 39.3168L4.45667 39.3401V39.2935Z" fill="black" stroke="black"/>
<path opacity="0.788235" d="M51.4033 39.2935L51.5667 39.3168L51.4033 39.3401V39.2935Z" fill="black" stroke="black"/>
<path opacity="0.788235" d="M4.78333 39.3398L4.94666 39.3632L4.78333 39.3865V39.3398Z" fill="black" stroke="black"/>
<path opacity="0.788235" d="M51.1233 39.3398L51.24 39.3632L51.1233 39.3865V39.3398Z" fill="black" stroke="black"/>
<path opacity="0.788235" d="M5.10999 39.3867L5.22665 39.4101L5.10999 39.4334V39.3867Z" fill="black" stroke="black"/>
<path opacity="0.788235" d="M50.7966 39.3867L50.9133 39.4101L50.7966 39.4334V39.3867Z" fill="black" stroke="black"/>
<path opacity="0.788235" d="M5.43665 39.4331L5.55331 39.4564L5.43665 39.4798V39.4331Z" fill="black" stroke="black"/>
<path opacity="0.788235" d="M50.47 39.4331L50.5866 39.4564L50.47 39.4798V39.4331Z" fill="black" stroke="black"/>
<path opacity="0.788235" d="M34.4634 39.5269L34.5567 39.6669" stroke="black"/>
<path opacity="0.788235" d="M5.76331 39.6201L5.80997 39.7135" stroke="black"/>
<path opacity="0.788235" d="M50.2366 39.6201L50.1899 39.7135" stroke="black"/>
<path opacity="0.788235" d="M34.65 39.6665L34.6967 39.7598" stroke="black"/>
<path opacity="0.788235" d="M34.8833 39.8066L34.93 39.9" stroke="black"/>
<path opacity="0.788235" d="M28.4901 39.9932L28.3967 40.1332" stroke="black"/>
<path opacity="0.788235" d="M35.6766 40.0864L35.7933 40.1098L35.6766 40.1331V40.0864Z" fill="black" stroke="black"/>
<path opacity="0.788235" d="M11.69 40.1333L28.2333 40.1566L11.69 40.18V40.1333Z" fill="black" stroke="black"/>
<path opacity="0.788235" d="M36.2367 40.1333L44.3334 40.1566L36.2367 40.18V40.1333Z" fill="black" stroke="black"/>
<path opacity="0.788235" d="M11.7833 40.2734L11.83 40.3668" stroke="black"/>
<path opacity="0.788235" d="M44.2167 40.2734L44.17 40.3668" stroke="black"/>
<path opacity="0.788235" d="M11.9233 40.46L12.0167 40.6" stroke="black"/>
<path opacity="0.788235" d="M44.0766 40.46L43.9833 40.6" stroke="black"/>
<path opacity="0.788235" d="M12.11 40.6934L12.2033 40.8334" stroke="black"/>
<path opacity="0.788235" d="M43.89 40.6934L43.7966 40.8334" stroke="black"/>
<path opacity="0.788235" d="M12.2967 40.9268L12.4367 41.1134" stroke="black"/>
<path opacity="0.788235" d="M43.7034 40.9268L43.5634 41.1134" stroke="black"/>
<path opacity="0.788235" d="M12.53 41.2065L12.7167 41.4399" stroke="black"/>
<path opacity="0.788235" d="M43.47 41.2065L43.2833 41.4399" stroke="black"/>
<path opacity="0.788235" d="M16.73 41.3936L16.8466 41.4169L16.73 41.4402V41.3936Z" fill="black" stroke="black"/>
<path opacity="0.788235" d="M39.1766 41.3936L39.2933 41.4169L39.1766 41.4402V41.3936Z" fill="black" stroke="black"/>
<path opacity="0.788235" d="M16.45 41.4399L16.5666 41.4633L16.45 41.4866V41.4399Z" fill="black" stroke="black"/>
<path opacity="0.788235" d="M39.4567 41.4399L39.5733 41.4633L39.4567 41.4866V41.4399Z" fill="black" stroke="black"/>
<path opacity="0.788235" d="M16.1233 41.4868L16.2866 41.5101L16.1233 41.5335V41.4868Z" fill="black" stroke="black"/>
<path opacity="0.788235" d="M39.7367 41.4868L39.9 41.5101L39.7367 41.5335V41.4868Z" fill="black" stroke="black"/>
<path opacity="0.788235" d="M15.8434 41.5332L15.9601 41.5565L15.8434 41.5799V41.5332Z" fill="black" stroke="black"/>
<path opacity="0.788235" d="M40.0634 41.5332L40.18 41.5565L40.0634 41.5799V41.5332Z" fill="black" stroke="black"/>
<path opacity="0.788235" d="M12.8567 41.5801L13.3 41.9767L13.23 42.0001L12.8567 41.5801Z" fill="black" stroke="black"/>
<path opacity="0.788235" d="M15.5634 41.5801L15.68 41.6034L15.5634 41.6267V41.5801Z" fill="black" stroke="black"/>
<path opacity="0.788235" d="M40.3434 41.5801L40.5067 41.6034L40.3434 41.6267V41.5801Z" fill="black" stroke="black"/>
<path opacity="0.788235" d="M43.1433 41.5801L42.77 42.0001L42.7 41.9767L43.1433 41.5801Z" fill="black" stroke="black"/>
<path opacity="0.788235" d="M15.2367 41.6265L15.4 41.6498L15.2367 41.6731V41.6265Z" fill="black" stroke="black"/>
<path opacity="0.788235" d="M40.6233 41.6265L40.7866 41.6498L40.6233 41.6731V41.6265Z" fill="black" stroke="black"/>
<path opacity="0.788235" d="M14.9567 41.6733L15.0733 41.6967L14.9567 41.72V41.6733Z" fill="black" stroke="black"/>
<path opacity="0.788235" d="M18.0834 41.6733L18.1767 41.8133" stroke="black"/>
<path opacity="0.788235" d="M37.9166 41.6733L37.7766 41.86" stroke="black"/>
<path opacity="0.788235" d="M40.95 41.6733L41.0666 41.6967L40.95 41.72V41.6733Z" fill="black" stroke="black"/>
<path opacity="0.788235" d="M14.6766 41.7202L14.7933 41.7435L14.6766 41.7669V41.7202Z" fill="black" stroke="black"/>
<path opacity="0.788235" d="M41.23 41.7202L41.3466 41.7435L41.23 41.7669V41.7202Z" fill="black" stroke="black"/>
<path opacity="0.788235" d="M14.3966 41.7666L14.5133 41.7899L14.3966 41.8133V41.7666Z" fill="black" stroke="black"/>
<path opacity="0.788235" d="M41.51 41.7666L41.6267 41.7899L41.51 41.8133V41.7666Z" fill="black" stroke="black"/>
<path opacity="0.788235" d="M14.0699 41.8135L14.2333 41.8368L14.0699 41.8601V41.8135Z" fill="black" stroke="black"/>
<path opacity="0.788235" d="M41.8367 41.8135L41.9533 41.8368L41.8367 41.8601V41.8135Z" fill="black" stroke="black"/>
<path opacity="0.788235" d="M13.79 41.8599L13.9066 41.8832L13.79 41.9065V41.8599Z" fill="black" stroke="black"/>
<path opacity="0.788235" d="M42.1167 41.8599L42.2334 41.8832L42.1167 41.9065V41.8599Z" fill="black" stroke="black"/>
<path opacity="0.788235" d="M13.51 41.9067L13.6267 41.9301L13.51 41.9534V41.9067Z" fill="black" stroke="black"/>
<path opacity="0.788235" d="M18.3167 41.9067L18.41 42.0467" stroke="black"/>
<path opacity="0.788235" d="M37.6833 41.9067L37.59 42.0467" stroke="black"/>
<path opacity="0.788235" d="M42.4434 41.9067L42.56 41.9301L42.4434 41.9534V41.9067Z" fill="black" stroke="black"/>
<path opacity="0.788235" d="M18.4567 42.0933L18.5033 42.1866" stroke="black"/>
<path opacity="0.788235" d="M37.5434 42.0933L37.4967 42.1866" stroke="black"/>
<path opacity="0.788235" d="M18.69 42.6533L18.7133 42.77H18.6666L18.69 42.6533Z" fill="black" stroke="black"/>
<path opacity="0.788235" d="M37.31 42.6533L37.3333 42.77H37.2866L37.31 42.6533Z" fill="black" stroke="black"/>
<path opacity="0.788235" d="M4.82997 42.7466L4.85331 42.8632H4.80664L4.82997 42.7466Z" fill="black" stroke="black"/>
<path opacity="0.788235" d="M51.1701 42.7466L51.1934 42.8632H51.1467L51.1701 42.7466Z" fill="black" stroke="black"/>
<path opacity="0.788235" d="M18.7367 42.9331L18.76 43.0498H18.7134L18.7367 42.9331Z" fill="black" stroke="black"/>
<path opacity="0.788235" d="M37.2633 42.9331L37.2867 43.0498H37.24L37.2633 42.9331Z" fill="black" stroke="black"/>
<path opacity="0.788235" d="M18.7833 43.2134L18.8067 43.33H18.76L18.7833 43.2134Z" fill="black" stroke="black"/>
<path opacity="0.788235" d="M37.2167 43.2134L37.24 43.33H37.1934L37.2167 43.2134Z" fill="black" stroke="black"/>
<path opacity="0.788235" d="M4.92334 43.3535L4.97001 43.4468" stroke="black"/>
<path opacity="0.788235" d="M51.0767 43.3535L51.03 43.4468" stroke="black"/>
<path opacity="0.788235" d="M15.33 43.4932L15.8666 43.5165L15.33 43.5398V43.4932Z" fill="black" stroke="black"/>
<path opacity="0.788235" d="M40.1566 43.4932L40.6933 43.5165L40.1566 43.5398V43.4932Z" fill="black" stroke="black"/>
<path opacity="0.788235" d="M18.83 43.54L18.8533 43.6567H18.8066L18.83 43.54Z" fill="black" stroke="black"/>
<path opacity="0.788235" d="M37.1701 43.54L37.1934 43.6567H37.1467L37.1701 43.54Z" fill="black" stroke="black"/>
<path opacity="0.788235" d="M5.15668 43.5864L5.20334 43.6798" stroke="black"/>
<path opacity="0.788235" d="M50.8433 43.5864L50.7966 43.6798" stroke="black"/>
<path opacity="0.788235" d="M7.39667 43.6333L7.88667 43.6566L7.39667 43.68V43.6333Z" fill="black" stroke="black"/>
<path opacity="0.788235" d="M48.1367 43.6333L48.6267 43.6566L48.1367 43.68V43.6333Z" fill="black" stroke="black"/>
<path opacity="0.788235" d="M6.46332 43.6802L6.90665 43.7035L6.46332 43.7268V43.6802Z" fill="black" stroke="black"/>
<path opacity="0.788235" d="M8.42334 43.6802L8.56334 43.8668" stroke="black"/>
<path opacity="0.788235" d="M49.1167 43.6802L49.56 43.7035L49.1167 43.7268V43.6802Z" fill="black" stroke="black"/>
<path opacity="0.788235" d="M5.48334 43.7266L5.97334 43.7499L5.48334 43.7732V43.7266Z" fill="black" stroke="black"/>
<path opacity="0.788235" d="M14.7233 43.7266L14.6766 43.8199" stroke="black"/>
<path opacity="0.788235" d="M41.2766 43.7266L41.3233 43.8199" stroke="black"/>
<path opacity="0.788235" d="M47.5299 43.7266L47.4833 43.8199" stroke="black"/>
<path opacity="0.788235" d="M50.05 43.7266L50.54 43.7499L50.05 43.7732V43.7266Z" fill="black" stroke="black"/>
<path opacity="0.788235" d="M16.4967 43.7734L16.5434 43.8668" stroke="black"/>
<path opacity="0.788235" d="M39.5033 43.7734L39.4567 43.8668" stroke="black"/>
<path opacity="0.788235" d="M14.5833 43.8198L14.35 44.0998" stroke="black"/>
<path opacity="0.788235" d="M18.8766 43.8198L18.8999 43.9365H18.8533L18.8766 43.8198Z" fill="black" stroke="black"/>
<path opacity="0.788235" d="M37.1233 43.8198L37.1466 43.9365H37.1L37.1233 43.8198Z" fill="black" stroke="black"/>
<path opacity="0.788235" d="M41.4166 43.8198L41.65 44.0998" stroke="black"/>
<path opacity="0.788235" d="M16.6833 43.9136L16.73 44.0069" stroke="black"/>
<path opacity="0.788235" d="M39.3167 43.9136L39.27 44.0069" stroke="black"/>
<path opacity="0.788235" d="M8.65668 43.96L8.79668 44.1466" stroke="black"/>
<path opacity="0.788235" d="M47.3433 43.96L47.25 44.1" stroke="black"/>
<path opacity="0.788235" d="M18.9234 44.1001L18.9467 44.2168H18.9L18.9234 44.1001Z" fill="black" stroke="black"/>
<path opacity="0.788235" d="M37.0767 44.1001L37.1 44.2168H37.0533L37.0767 44.1001Z" fill="black" stroke="black"/>
<path opacity="0.788235" d="M16.87 44.1465L16.9167 44.2398" stroke="black"/>
<path opacity="0.788235" d="M39.13 44.1465L39.0834 44.2398" stroke="black"/>
<path opacity="0.788235" d="M18.97 44.4268L18.9933 44.5434H18.9467L18.97 44.4268Z" fill="black" stroke="black"/>
<path opacity="0.788235" d="M37.03 44.4268L37.0534 44.5434H37.0067L37.03 44.4268Z" fill="black" stroke="black"/>
<path opacity="0.788235" d="M19.0166 44.7065L19.04 44.8232H18.9933L19.0166 44.7065Z" fill="black" stroke="black"/>
<path opacity="0.788235" d="M36.9833 44.7065L37.0066 44.8232H36.96L36.9833 44.7065Z" fill="black" stroke="black"/>
<path opacity="0.788235" d="M41.9767 44.7065L42 44.8232H41.9534L41.9767 44.7065Z" fill="black" stroke="black"/>
<path opacity="0.788235" d="M17.15 44.7998L17.1734 44.9165H17.1267L17.15 44.7998Z" fill="black" stroke="black"/>
<path opacity="0.788235" d="M38.85 44.7998L38.8733 44.9165H38.8267L38.85 44.7998Z" fill="black" stroke="black"/>
<path opacity="0.788235" d="M19.0634 44.9868L19.0867 45.1035H19.04L19.0634 44.9868Z" fill="black" stroke="black"/>
<path opacity="0.788235" d="M36.9367 44.9868L36.96 45.1035H36.9133L36.9367 44.9868Z" fill="black" stroke="black"/>
<path opacity="0.788235" d="M17.15 45.2202L17.1734 45.3835H17.1267L17.15 45.2202Z" fill="black" stroke="black"/>
<path opacity="0.788235" d="M19.11 45.2666L19.1333 45.4299H19.0867L19.11 45.2666Z" fill="black" stroke="black"/>
<path opacity="0.788235" d="M36.89 45.2666L36.9134 45.4299H36.8667L36.89 45.2666Z" fill="black" stroke="black"/>
<path opacity="0.788235" d="M38.85 45.2666L38.8733 45.3833H38.8267L38.85 45.2666Z" fill="black" stroke="black"/>
<path opacity="0.788235" d="M14.0233 45.3599L14.0467 45.4765H14L14.0233 45.3599Z" fill="black" stroke="black"/>
<path opacity="0.788235" d="M41.9767 45.3599L42 45.4765H41.9534L41.9767 45.3599Z" fill="black" stroke="black"/>
<path opacity="0.788235" d="M19.1566 45.5933L19.18 45.7099H19.1333L19.1566 45.5933Z" fill="black" stroke="black"/>
<path opacity="0.788235" d="M36.8433 45.5933L36.8666 45.7099H36.8199L36.8433 45.5933Z" fill="black" stroke="black"/>
<path opacity="0.788235" d="M16.9633 45.8735L16.9166 45.9669" stroke="black"/>
<path opacity="0.788235" d="M19.2034 45.8735L19.2267 45.9902H19.1801L19.2034 45.8735Z" fill="black" stroke="black"/>
<path opacity="0.788235" d="M36.7966 45.8735L36.82 45.9902H36.7733L36.7966 45.8735Z" fill="black" stroke="black"/>
<path opacity="0.788235" d="M39.0366 45.8735L39.0833 45.9669" stroke="black"/>
<path opacity="0.788235" d="M14.2567 45.9668L14.3034 46.0601" stroke="black"/>
<path opacity="0.788235" d="M41.7433 45.9668L41.6967 46.0601" stroke="black"/>
<path opacity="0.788235" d="M16.8699 46.0132L16.7766 46.1532" stroke="black"/>
<path opacity="0.788235" d="M39.13 46.0132L39.2233 46.1532" stroke="black"/>
<path opacity="0.788235" d="M14.3966 46.1533L14.4899 46.2933" stroke="black"/>
<path opacity="0.788235" d="M19.25 46.1533L19.2734 46.3167H19.2267L19.25 46.1533Z" fill="black" stroke="black"/>
<path opacity="0.788235" d="M36.75 46.1533L36.7734 46.3167H36.7267L36.75 46.1533Z" fill="black" stroke="black"/>
<path opacity="0.788235" d="M41.6033 46.1533L41.51 46.2933" stroke="black"/>
<path opacity="0.788235" d="M16.59 46.2935L16.5433 46.3868" stroke="black"/>
<path opacity="0.788235" d="M39.41 46.2935L39.4567 46.3868" stroke="black"/>
<path opacity="0.788235" d="M14.63 46.3398L14.6767 46.4332" stroke="black"/>
<path opacity="0.788235" d="M41.37 46.3398L41.3234 46.4332" stroke="black"/>
<path opacity="0.788235" d="M14.77 46.4331L14.98 46.5498L14.91 46.5731L14.77 46.4331Z" fill="black" stroke="black"/>
<path opacity="0.788235" d="M41.23 46.4331L41.1833 46.5264" stroke="black"/>
<path opacity="0.788235" d="M15.89 46.6201L16.0067 46.6435L15.89 46.6668V46.6201Z" fill="black" stroke="black"/>
<path opacity="0.788235" d="M15.4233 46.6665L15.7267 46.6898L15.4233 46.7132V46.6665Z" fill="black" stroke="black"/>
<path opacity="0.788235" d="M40.2966 46.6665L40.6 46.6898L40.2966 46.7132V46.6665Z" fill="black" stroke="black"/>
<path opacity="0.788235" d="M11.8766 47.1802L12.0166 47.3668" stroke="black"/>
<path opacity="0.788235" d="M44.0766 47.2266L43.9833 47.3666" stroke="black"/>
<path opacity="0.788235" d="M12.1567 47.4136L12.2967 47.6002" stroke="black"/>
<path opacity="0.788235" d="M43.8433 47.4136L43.75 47.5536" stroke="black"/>
<path opacity="0.788235" d="M8.28333 47.46L8.51666 47.74" stroke="black"/>
<path opacity="0.788235" d="M47.7166 47.46L47.4833 47.74" stroke="black"/>
<path opacity="0.788235" d="M32.41 47.8335L32.5267 47.8568L32.41 47.8802V47.8335Z" fill="black" stroke="black"/>
<path opacity="0.788235" d="M23.73 47.8799L23.8466 47.9032L23.73 47.9265V47.8799Z" fill="black" stroke="black"/>
<path opacity="0.788235" d="M24.1967 47.9731L24.3133 47.9965L24.1967 48.0198V47.9731Z" fill="black" stroke="black"/>
<path opacity="0.788235" d="M24.4767 48.02L24.5934 48.0434L24.4767 48.0667V48.02Z" fill="black" stroke="black"/>
<path opacity="0.788235" d="M31.4767 48.02L31.5934 48.0434L31.4767 48.0667V48.02Z" fill="black" stroke="black"/>
<path opacity="0.788235" d="M24.71 48.0669L24.8266 48.0902L24.71 48.1136V48.0669Z" fill="black" stroke="black"/>
<path opacity="0.788235" d="M31.1967 48.0669L31.3133 48.0902L31.1967 48.1136V48.0669Z" fill="black" stroke="black"/>
<path opacity="0.788235" d="M12.3433 48.1133L12.3667 48.6033H12.32L12.3433 48.1133Z" fill="black" stroke="black"/>
<path opacity="0.788235" d="M25.0366 48.1133L25.2 48.1366L25.0366 48.1599V48.1133Z" fill="black" stroke="black"/>
<path opacity="0.788235" d="M30.87 48.1133L31.0333 48.1366L30.87 48.1599V48.1133Z" fill="black" stroke="black"/>
<path opacity="0.788235" d="M43.6566 48.1133L43.68 48.6033H43.6333L43.6566 48.1133Z" fill="black" stroke="black"/>
<path opacity="0.788235" d="M25.3633 48.1602L25.5266 48.1835L25.3633 48.2068V48.1602Z" fill="black" stroke="black"/>
<path opacity="0.788235" d="M30.4967 48.1602L30.66 48.1835L30.4967 48.2068V48.1602Z" fill="black" stroke="black"/>
<path opacity="0.788235" d="M25.7367 48.2065L25.9467 48.2299L25.7367 48.2532V48.2065Z" fill="black" stroke="black"/>
<path opacity="0.788235" d="M30.0767 48.2065L30.2867 48.2299L30.0767 48.2532V48.2065Z" fill="black" stroke="black"/>
<path opacity="0.788235" d="M26.2034 48.2534L26.46 48.2768L26.2034 48.3001V48.2534Z" fill="black" stroke="black"/>
<path opacity="0.788235" d="M29.5634 48.2534L29.82 48.2768L29.5634 48.3001V48.2534Z" fill="black" stroke="black"/>
<path opacity="0.788235" d="M26.8567 48.2998L27.3467 48.3231L26.8567 48.3465V48.2998Z" fill="black" stroke="black"/>
<path opacity="0.788235" d="M28.63 48.2998L29.1667 48.3231L28.63 48.3465V48.2998Z" fill="black" stroke="black"/>
<path opacity="0.788235" d="M12.2966 49.0933L12.32 49.5366H12.2733L12.2966 49.0933Z" fill="black" stroke="black"/>
<path opacity="0.788235" d="M43.7034 49.0933L43.7267 49.5366H43.6801L43.7034 49.0933Z" fill="black" stroke="black"/>
<path opacity="0.788235" d="M12.25 50.0269L12.2734 50.5169H12.2267L12.25 50.0269Z" fill="black" stroke="black"/>
<path opacity="0.788235" d="M43.75 50.0732L43.7734 50.5166H43.7267L43.75 50.0732Z" fill="black" stroke="black"/>
<path opacity="0.788235" d="M39.7834 50.1201L39.7367 50.2135L39.55 50.3068L39.5967 50.2135L39.7834 50.1201Z" fill="black" stroke="black"/>
<path opacity="0.788235" d="M16.3101 50.1665L16.3567 50.2598" stroke="black"/>
<path opacity="0.788235" d="M40.8567 50.2598L41.02 50.3298L40.95 50.3531L40.8567 50.2598Z" fill="black" stroke="black"/>
<path opacity="0.788235" d="M16.5434 50.4468L16.5667 50.6101H16.52L16.5434 50.4468Z" fill="black" stroke="black"/>
<path opacity="0.788235" d="M39.4567 50.4468L39.48 50.5634H39.4333L39.4567 50.4468Z" fill="black" stroke="black"/>
<path opacity="0.788235" d="M12.3433 50.7734L12.39 50.8668" stroke="black"/>
<path opacity="0.788235" d="M16.59 50.7734L16.6133 50.8901H16.5667L16.59 50.7734Z" fill="black" stroke="black"/>
<path opacity="0.788235" d="M39.4101 50.7734L39.4334 50.8901H39.3867L39.4101 50.7734Z" fill="black" stroke="black"/>
<path opacity="0.788235" d="M43.6567 50.7734L43.61 50.8668" stroke="black"/>
<path opacity="0.788235" d="M12.5767 51.0068L12.6233 51.1002" stroke="black"/>
<path opacity="0.788235" d="M43.4234 51.0068L43.3767 51.1002" stroke="black"/>
<path opacity="0.788235" d="M16.6366 51.1001L16.6599 51.2168H16.6133L16.6366 51.1001Z" fill="black" stroke="black"/>
<path opacity="0.788235" d="M39.3633 51.1001L39.3866 51.2168H39.34L39.3633 51.1001Z" fill="black" stroke="black"/>
<path opacity="0.788235" d="M13.1367 51.1465L13.2533 51.1698L13.1367 51.1932V51.1465Z" fill="black" stroke="black"/>
<path opacity="0.788235" d="M42.77 51.1465L42.8867 51.1698L42.77 51.1932V51.1465Z" fill="black" stroke="black"/>
<path opacity="0.788235" d="M16.6834 51.3799L16.7067 51.5432H16.66L16.6834 51.3799Z" fill="black" stroke="black"/>
<path opacity="0.788235" d="M39.3167 51.3799L39.34 51.5432H39.2933L39.3167 51.3799Z" fill="black" stroke="black"/>
<path opacity="0.788235" d="M16.73 51.7065L16.7533 51.8232H16.7067L16.73 51.7065Z" fill="black" stroke="black"/>
<path opacity="0.788235" d="M39.27 51.7065L39.2934 51.8232H39.2467L39.27 51.7065Z" fill="black" stroke="black"/>
<path opacity="0.788235" d="M20.3233 51.8936L20.4399 51.9169L20.2766 51.9869L20.3233 51.8936Z" fill="black" stroke="black"/>
<path opacity="0.788235" d="M35.5833 51.8936L35.7467 51.9636L35.6767 51.9402C35.5833 51.9558 35.5522 51.9402 35.5833 51.8936Z" fill="black" stroke="black"/>
<path opacity="0.788235" d="M20.1833 51.9868L20.09 52.1268" stroke="black"/>
<path opacity="0.788235" d="M35.8167 51.9868L35.8633 52.0801" stroke="black"/>
<path opacity="0.788235" d="M16.7766 52.0332L16.8 52.1499H16.7533L16.7766 52.0332Z" fill="black" stroke="black"/>
<path opacity="0.788235" d="M39.2233 52.0332L39.2466 52.1499H39.2L39.2233 52.0332Z" fill="black" stroke="black"/>
<path opacity="0.788235" d="M19.9966 52.1265L19.95 52.2198" stroke="black"/>
<path opacity="0.788235" d="M36.0033 52.1265L36.05 52.2198" stroke="black"/>
<path opacity="0.788235" d="M19.81 52.2666L19.7633 52.3599" stroke="black"/>
<path opacity="0.788235" d="M36.1899 52.2666L36.2366 52.3599" stroke="black"/>
<path opacity="0.788235" d="M16.8234 52.3135L16.8467 52.4768H16.8L16.8234 52.3135Z" fill="black" stroke="black"/>
<path opacity="0.788235" d="M39.1767 52.3135L39.2 52.4768H39.1533L39.1767 52.3135Z" fill="black" stroke="black"/>
<path opacity="0.788235" d="M19.6233 52.4067L19.5767 52.5001" stroke="black"/>
<path opacity="0.788235" d="M36.3767 52.4067L36.4234 52.5001" stroke="black"/>
<path opacity="0.788235" d="M19.4367 52.5469L19.39 52.6402" stroke="black"/>
<path opacity="0.788235" d="M36.5634 52.5469L36.61 52.6402" stroke="black"/>
<path opacity="0.788235" d="M16.87 52.6401L16.8933 52.8035H16.8467L16.87 52.6401Z" fill="black" stroke="black"/>
<path opacity="0.788235" d="M39.13 52.6401L39.1534 52.8035H39.1067L39.13 52.6401Z" fill="black" stroke="black"/>
<path opacity="0.788235" d="M19.25 52.6865L19.2034 52.7799" stroke="black"/>
<path opacity="0.788235" d="M36.75 52.6865L36.7967 52.7799" stroke="black"/>
<path opacity="0.788235" d="M19.0634 52.8267L19.0167 52.92" stroke="black"/>
<path opacity="0.788235" d="M36.9366 52.8267L36.9833 52.92" stroke="black"/>
<path opacity="0.788235" d="M18.9233 52.9199L18.83 53.0599" stroke="black"/>
<path opacity="0.788235" d="M25.1766 52.9199L25.3866 52.9433L25.1766 52.9666V52.9199Z" fill="black" stroke="black"/>
<path opacity="0.788235" d="M30.59 52.9199L30.8466 52.9433L30.59 52.9666V52.9199Z" fill="black" stroke="black"/>
<path opacity="0.788235" d="M37.0767 52.9199L37.17 53.0599" stroke="black"/>
<path opacity="0.788235" d="M16.9166 52.9668L16.94 53.0835H16.8933L16.9166 52.9668Z" fill="black" stroke="black"/>
<path opacity="0.788235" d="M25.6899 52.9668L25.8999 52.9901L25.6899 53.0135V52.9668Z" fill="black" stroke="black"/>
<path opacity="0.788235" d="M30.1233 52.9668L30.3333 52.9901L30.1233 53.0135V52.9668Z" fill="black" stroke="black"/>
<path opacity="0.788235" d="M39.0834 52.9668L39.1067 53.0835H39.0601L39.0834 52.9668Z" fill="black" stroke="black"/>
<path opacity="0.788235" d="M18.7366 53.0601L18.6433 53.2001" stroke="black"/>
<path opacity="0.788235" d="M37.2633 53.0601L37.31 53.1534" stroke="black"/>
<path opacity="0.788235" d="M24.99 53.1064L24.7567 53.3864" stroke="black"/>
<path opacity="0.788235" d="M31.01 53.1064L31.2433 53.3864" stroke="black"/>
<path opacity="0.788235" d="M26.0167 53.1533L26.0634 53.2467" stroke="black"/>
<path opacity="0.788235" d="M29.9833 53.1533L29.9366 53.2467" stroke="black"/>
<path opacity="0.788235" d="M18.55 53.2002L18.5033 53.2935" stroke="black"/>
<path opacity="0.788235" d="M37.45 53.2002L37.4966 53.2935" stroke="black"/>
<path opacity="0.788235" d="M17.0566 53.3398L17.2433 53.5732" stroke="black"/>
<path opacity="0.788235" d="M18.3633 53.3398L18.3167 53.4332" stroke="black"/>
<path opacity="0.788235" d="M37.6367 53.3398L37.6834 53.4332" stroke="black"/>
<path opacity="0.788235" d="M38.9434 53.3398L38.7567 53.5732" stroke="black"/>
<path opacity="0.788235" d="M26.1566 53.3867L26.2033 53.4801" stroke="black"/>
<path opacity="0.788235" d="M29.8433 53.3867L29.7966 53.4801" stroke="black"/>
<path opacity="0.788235" d="M18.1767 53.48L18.13 53.5733" stroke="black"/>
<path opacity="0.788235" d="M37.8234 53.48L37.87 53.5733" stroke="black"/>
<path opacity="0.788235" d="M24.57 53.5732L24.29 53.8999" stroke="black"/>
<path opacity="0.788235" d="M31.4301 53.5732L31.7101 53.8999" stroke="black"/>
<path opacity="0.788235" d="M26.2966 53.6201L26.3433 53.7135" stroke="black"/>
<path opacity="0.788235" d="M29.7033 53.6201L29.6566 53.7135" stroke="black"/>
<path opacity="0.788235" d="M26.4366 53.8535L26.4833 53.9468" stroke="black"/>
<path opacity="0.788235" d="M29.5634 53.8535L29.5167 53.9468" stroke="black"/>
<path opacity="0.788235" d="M24.1034 54.0864L23.8234 54.4131" stroke="black"/>
<path opacity="0.788235" d="M26.5767 54.0864L26.6233 54.1798" stroke="black"/>
<path opacity="0.788235" d="M29.4234 54.0864L29.3767 54.1798" stroke="black"/>
<path opacity="0.788235" d="M31.8967 54.0864L32.1767 54.4131" stroke="black"/>
<path opacity="0.788235" d="M26.7167 54.3198L26.7633 54.4132" stroke="black"/>
<path opacity="0.788235" d="M29.2834 54.3198L29.2367 54.4132" stroke="black"/>
<path opacity="0.788235" d="M26.8567 54.5532L26.9034 54.6466" stroke="black"/>
<path opacity="0.788235" d="M29.1433 54.5532L29.0967 54.6466" stroke="black"/>
<path opacity="0.788235" d="M23.6367 54.6001L23.3567 54.9268" stroke="black"/>
<path opacity="0.788235" d="M32.3633 54.6001L32.6433 54.9268" stroke="black"/>
<path opacity="0.788235" d="M22.05 54.7866L22.0967 54.88" stroke="black"/>
<path opacity="0.788235" d="M26.9967 54.7866L27.0434 54.88" stroke="black"/>
<path opacity="0.788235" d="M29.0033 54.7866L28.9567 54.88" stroke="black"/>
<path opacity="0.788235" d="M33.95 54.7866L33.9033 54.88" stroke="black"/>
<path opacity="0.788235" d="M23.2167 55.02L23.17 55.1134" stroke="black"/>
<path opacity="0.788235" d="M27.1367 55.02L27.1834 55.1134" stroke="black"/>
<path opacity="0.788235" d="M28.8633 55.02L28.8167 55.1134" stroke="black"/>
<path opacity="0.788235" d="M32.7833 55.02L32.83 55.1134" stroke="black"/>
<path opacity="0.788235" d="M27.2766 55.2534L27.3233 55.3468" stroke="black"/>
<path opacity="0.788235" d="M28.7233 55.2534L28.6766 55.3468" stroke="black"/>
<path opacity="0.788235" d="M27.37 55.3936L27.5567 55.6269" stroke="black"/>
<path opacity="0.788235" d="M28.63 55.3936L28.4434 55.6269" stroke="black"/>
<path d="M27.8366 0.279943C28.2535 0.251943 28.5258 0.36861 28.6533 0.629943L30.1233 3.03328L30.8233 3.07994L32.7366 0.979943C32.8611 0.824388 33.0789 0.762166 33.39 0.793277C33.6078 0.839943 33.7711 0.941055 33.88 1.09661L34.1133 1.60994L34.86 3.80328L34.9766 3.91994L35.6766 4.10661L37.9166 2.42661C38.0411 2.33328 38.2278 2.30217 38.4766 2.33328C38.7006 2.38928 38.864 2.50594 38.9666 2.68328L39.1066 3.05661L39.4333 5.52994L39.55 5.73994L40.2033 6.06661L42.5833 4.89994L43.05 4.80661C43.2833 4.85017 43.4622 4.95128 43.5866 5.10994L43.7266 5.38994V6.41661L43.68 6.46328V7.34994L43.6333 7.39661V8.37661L44.2633 8.86661L46.9233 8.16661H47.2033C47.4491 8.23194 47.628 8.36417 47.74 8.56328C47.8302 8.67528 47.8613 8.84639 47.8333 9.07661L47.1333 11.7833L47.6233 12.3666L50.61 12.2733L51.0066 12.5299C51.1311 12.6544 51.1933 12.8411 51.1933 13.0899L51.1 13.4166L49.9333 15.8433L50.33 16.5199L51.4033 16.7066H51.6833L51.73 16.7533H52.01L52.0566 16.7999H52.3366L52.6633 16.8933H52.9433C53.2326 16.9493 53.4426 17.0815 53.5733 17.2899C53.6666 17.4144 53.6978 17.6011 53.6666 17.8499L53.48 18.2233L51.9866 20.1833L51.8933 20.4166L52.08 21.0233L52.1966 21.1399L54.7633 22.0266L55.0666 22.2833C55.188 22.4108 55.2346 22.6131 55.2066 22.8899L54.95 23.3333L52.92 25.1766L52.9666 25.8766L53.0833 25.9933L55.23 27.2533L55.6266 27.6033C55.72 27.7277 55.7511 27.9144 55.72 28.1633C55.664 28.3873 55.5473 28.5506 55.37 28.6533L52.9666 30.1233L52.92 30.8233L55.02 32.7366C55.1755 32.8611 55.2378 33.0788 55.2066 33.3899C55.16 33.6077 55.0589 33.7711 54.9033 33.8799L54.39 34.1133L52.1966 34.8599L52.08 34.9766L51.8933 35.6766L53.5733 37.9166C53.6666 38.0411 53.6978 38.2277 53.6666 38.4766C53.6106 38.7006 53.494 38.8639 53.3166 38.9666L52.9433 39.1066L50.47 39.4333L50.26 39.5499L49.9333 40.2033L51.1 42.5833L51.1933 43.0499C51.1466 43.2833 51.0455 43.4622 50.89 43.5866L50.61 43.7266H49.5833L49.5366 43.6799H48.65L48.6033 43.6333H47.6233L47.1333 44.2633L47.8333 46.9233V47.1566C47.7835 47.4335 47.6513 47.6279 47.4366 47.7399C47.3246 47.8302 47.1535 47.8613 46.9233 47.8333L44.2166 47.1333L43.6333 47.6233L43.7266 50.6099L43.47 51.0066C43.3455 51.1311 43.1589 51.1933 42.91 51.1933L42.5833 51.0999L40.1566 49.9333L39.48 50.3299L39.2933 51.4033V51.6833L39.2466 51.7299V52.0099L39.1533 52.3366L39.1066 52.9433C39.0538 53.2326 38.9215 53.4426 38.71 53.5733C38.5855 53.6666 38.3989 53.6977 38.15 53.6666L37.7766 53.4799L35.8166 51.9866L35.5833 51.8933L34.9766 52.0799L34.86 52.1966L33.9733 54.7633L33.7166 55.0666C33.5891 55.1879 33.3869 55.2346 33.11 55.2066L32.6666 54.9499L30.8233 52.9199L30.1233 52.9666L30.0066 53.0833L28.7466 55.2299L28.3966 55.6266C28.2722 55.7199 28.0855 55.7511 27.8366 55.7199C27.6126 55.6639 27.4493 55.5473 27.3466 55.3699L25.8766 52.9666L25.1766 52.9199L23.2633 55.0199C23.1389 55.1755 22.9211 55.2377 22.61 55.2066C22.3953 55.1599 22.232 55.0588 22.12 54.9033L21.8866 54.3899L21.14 52.1966L21.0233 52.0799L20.3233 51.8933L18.0833 53.5733C17.9589 53.6666 17.7722 53.6977 17.5233 53.6666C17.2993 53.6106 17.136 53.4939 17.0333 53.3166L16.8933 52.9433L16.5666 50.4699L16.45 50.2599L15.7966 49.9333L13.4166 51.0999L12.95 51.1933C12.7135 51.1466 12.5346 51.0455 12.4133 50.8899L12.2733 50.6099V49.5833L12.32 49.5366V48.6499L12.3666 48.6033V47.6233L11.8766 47.1799L11.7366 47.1333L9.07664 47.8333H8.79664C8.55087 47.7679 8.37198 47.6357 8.25998 47.4366C8.16976 47.3246 8.13864 47.1535 8.16664 46.9233L8.86664 44.2166L8.37664 43.6333L5.38998 43.7266L4.99331 43.4699C4.86887 43.3455 4.80664 43.1588 4.80664 42.9099L4.89998 42.5833L6.06664 40.1566L5.66998 39.4799L4.59664 39.2933H4.31664L4.26998 39.2466H3.98998L3.66331 39.1533L3.05664 39.1066C2.77042 39.0537 2.56042 38.9215 2.42664 38.7099C2.33331 38.5855 2.3022 38.3988 2.33331 38.1499L2.51998 37.7766L4.01331 35.8166L4.10664 35.5833L3.91998 34.9766L3.80331 34.8599L1.23664 33.9733L0.933311 33.7166C0.811977 33.5891 0.765311 33.3868 0.793311 33.1099L1.04998 32.6666L3.07998 30.8233L3.03331 30.1233L2.91664 30.0066L0.769977 28.7466L0.373311 28.3966C0.279977 28.2722 0.248866 28.0855 0.279977 27.8366C0.335977 27.6126 0.452644 27.4493 0.629977 27.3466L3.03331 25.8766L3.07998 25.1766L0.979977 23.2633C0.824422 23.1388 0.762199 22.9211 0.793311 22.6099C0.839977 22.3953 0.941088 22.2319 1.09664 22.1199L1.60998 21.8866L3.80331 21.1399L3.91998 21.0233L4.10664 20.3233L2.42664 18.0833C2.33331 17.9588 2.3022 17.7722 2.33331 17.5233C2.38931 17.2993 2.50598 17.1359 2.68331 17.0333L3.05664 16.8933L5.52998 16.5666L5.73998 16.4499L6.06664 15.7966L4.89998 13.4166L4.80664 12.9499C4.8502 12.7135 4.95131 12.5346 5.10998 12.4133L5.38998 12.2733H6.41664L6.46331 12.3199H7.34998L7.39664 12.3666H8.37664L8.86664 11.7366L8.16664 9.07661V8.79661C8.23198 8.55083 8.3642 8.37194 8.56331 8.25994C8.67531 8.16972 8.84642 8.13861 9.07664 8.16661L11.7833 8.86661L12.3666 8.37661L12.2733 5.38994L12.53 4.99328C12.6544 4.86883 12.8411 4.80661 13.09 4.80661L13.4166 4.89994L15.8433 6.06661L16.52 5.66994L16.7066 4.59661V4.31661L16.7533 4.26994V3.98994L16.8466 3.66328L16.8933 3.05661C16.9493 2.77039 17.0815 2.56039 17.29 2.42661C17.4144 2.33328 17.6011 2.30217 17.85 2.33328L18.2233 2.51994L20.1833 4.01328L20.4166 4.10661L21.0233 3.91994L21.14 3.80328L22.0266 1.23661L22.2833 0.933277C22.4109 0.811943 22.6131 0.765277 22.89 0.793277L23.3333 1.04994L25.1766 3.07994L25.8766 3.03328L25.9933 2.91661L27.2533 0.769943L27.6033 0.373277L27.8366 0.279943ZM27.72 5.27328L27.02 5.59994C26.7089 5.81772 26.5066 6.14439 26.4133 6.57994V7.23328L26.6933 7.83994L27.2066 8.25994L27.6733 8.44661C27.8289 8.4155 27.9378 8.43105 28 8.49328L28.6533 8.35328L28.98 8.16661C29.26 7.94883 29.4622 7.63772 29.5866 7.23328V6.57994C29.5244 6.26883 29.4155 6.0355 29.26 5.87994C29.0733 5.63105 28.8244 5.44439 28.5133 5.31994C28.2955 5.25772 28.0311 5.24217 27.72 5.27328ZM24.22 7.97994L22.7733 8.30661L21 8.86661C19.9422 9.23994 18.9622 9.69105 18.06 10.2199C16.1 11.3088 14.4044 12.6622 12.9733 14.2799H35.14L35.1866 14.3266H35.6066L36.3533 14.4666L37.6133 14.8866C38.4844 15.2911 39.2622 15.8044 39.9466 16.4266C40.6933 17.1422 41.2844 18.0133 41.72 19.0399L42.0466 20.1133L42.14 20.6266V21.0933L42.1866 21.1399V21.6533L42.14 21.6999L42.0933 22.4466L41.8133 23.4266C41.5333 24.1422 41.1444 24.7799 40.6466 25.3399C40.0555 26.0244 39.34 26.5999 38.5 27.0666L38.36 27.2533L38.78 27.5333C39.4333 28.1555 39.9778 28.9022 40.4133 29.7733C40.8178 30.4577 41.0978 31.2822 41.2533 32.2466L41.72 32.9933C41.9689 33.2422 42.2955 33.4444 42.7 33.5999L43.1666 33.7399H43.54L43.5866 33.7866L44.3333 33.6933L44.9866 33.3666C45.3911 33.0866 45.6711 32.6822 45.8266 32.1533L45.9666 31.4999V29.8199L46.0133 29.7266L46.2 29.5866H48.3V29.2133L48.3466 29.1666V26.8799L48.3 26.8333V26.2266L48.2533 26.1799L48.2066 25.4333L44.5666 23.4733L44.24 23.1466L44.0533 22.7266C44.0844 22.5711 44.0689 22.4777 44.0066 22.4466V22.1666L44.1466 21.6533L45.8733 18.2933C45.1266 16.8311 44.2244 15.5399 43.1666 14.4199C41.6733 12.7399 39.9155 11.3244 37.8933 10.1733C36.9911 9.6755 36.0422 9.23994 35.0466 8.86661L33.46 8.35328L31.8266 7.97994L29.0266 10.7333C28.84 10.8888 28.6066 10.9977 28.3266 11.0599C27.7044 11.1222 27.2689 11.0133 27.02 10.7333L24.22 7.97994ZM7.60664 19.8799L6.85998 20.2533C6.57998 20.4711 6.39331 20.7977 6.29998 21.2333C6.26887 21.8244 6.39331 22.2599 6.67331 22.5399C6.89109 22.7888 7.2022 22.9599 7.60664 23.0533H8.25998L8.81998 22.8199C9.19331 22.5711 9.42664 22.1822 9.51998 21.6533L9.47331 21.0933L9.23998 20.5799C9.05331 20.2999 8.81998 20.0977 8.53998 19.9733C8.29109 19.8488 7.97998 19.8177 7.60664 19.8799ZM47.7866 19.8799L47.18 20.1599L46.76 20.5799L46.5733 20.9533L46.48 21.3733C46.48 21.8088 46.5733 22.1511 46.76 22.3999C46.9778 22.7111 47.32 22.9288 47.7866 23.0533H48.44L49.14 22.7266C49.42 22.4777 49.6066 22.1511 49.7 21.7466C49.7311 21.1244 49.6066 20.6888 49.3266 20.4399C49.0155 20.0355 48.5022 19.8488 47.7866 19.8799ZM11.34 20.5799L11.8533 21.6533L11.9933 22.1666L11.9466 22.7266L11.62 23.3333L11.2933 23.6133L10.78 23.8933L7.88664 25.3399L7.79331 25.4333C7.85553 25.5888 7.83998 25.6977 7.74664 25.7599L7.69998 26.8333L7.65331 26.8799V29.1666L7.69998 29.2133L7.74664 30.2866L7.79331 30.3333L7.83998 31.0333L8.11998 32.5266L8.49331 33.7866L8.53998 33.8333H14.7933V20.6266V20.5799H11.34ZM23.7533 20.5799V24.3133H30.94L31.9666 24.0799L32.7133 23.6599L33.0866 23.2399L33.2733 22.8199C33.2422 22.6644 33.2578 22.5711 33.32 22.5399L33.2266 21.9799L32.9 21.4666C32.6511 21.2177 32.3711 21.0155 32.06 20.8599L31.4533 20.6733L30.8466 20.6266L30.8 20.5799H23.7533ZM23.7533 30.0999V33.8333H28.3733L28.5133 34.0199V39.9933L28.3733 40.1333L11.6666 40.1799C12.1333 40.8333 12.6622 41.4399 13.2533 41.9999L16.8466 41.4399L16.8933 41.3933C17.5155 41.3622 17.9666 41.5022 18.2466 41.8133C18.4333 41.9999 18.5733 42.2644 18.6666 42.6066L18.9 44.2399L18.9466 44.2866V44.5666L19.0866 45.1733V45.4533L19.2266 46.0599V46.3399L19.74 46.6199L20.6266 46.9933L22.7733 47.6933L24.7333 48.1133L25.7133 48.2066L25.76 48.2533H26.18L26.2266 48.2999H26.8333L26.88 48.3466H29.1666L29.2133 48.2999H29.82L29.8666 48.2533H30.2866L30.3333 48.2066L31.5933 48.0666L33.9266 47.5066C34.8911 47.2266 35.8089 46.8688 36.68 46.4333L36.7733 46.3399V46.0599L36.9133 45.4533V45.1733L37.0533 44.5666V44.2866L37.1933 43.6799L37.3333 42.6066C37.4266 42.2955 37.5511 42.0466 37.7066 41.8599L38.0333 41.6266L38.64 41.3933H39.1533L39.76 41.5333H40.04L40.0866 41.5799L42.7933 41.9999C43.3533 41.4399 43.8666 40.8333 44.3333 40.1799L35.84 40.1333L35 39.8999L34.44 39.5266C33.9733 39.0911 33.6155 38.5466 33.3666 37.8933L32.9466 36.4466L32.62 34.7199L32.2466 33.2266L31.64 31.7333L31.1733 31.0799L30.4733 30.4733L29.96 30.2399L29.3066 30.0999H23.7533ZM15.3533 43.4933C15.0422 43.5555 14.7933 43.6644 14.6066 43.8199L14.14 44.3799L13.9533 45.0799L14 45.1266L14.0466 45.6399L14.3733 46.1999L14.84 46.5266L15.4466 46.7133L16.0066 46.6666L16.5666 46.3866C16.8778 46.1688 17.08 45.8422 17.1733 45.4066C17.2044 44.7533 17.0644 44.2866 16.7533 44.0066L16.1933 43.5866L15.8666 43.4933H15.3533ZM40.18 43.4933C39.8066 43.5555 39.5266 43.6955 39.34 43.9133C39.0911 44.1311 38.92 44.4422 38.8266 44.8466V45.4066L39.1066 46.0599C39.3555 46.4022 39.76 46.6199 40.32 46.7133C40.8489 46.7133 41.2533 46.5733 41.5333 46.2933C41.7511 46.0755 41.9066 45.8111 42 45.4999V44.7533L41.6733 44.0999C41.3933 43.6644 40.8955 43.4622 40.18 43.4933Z" fill="black" stroke="black"/>
</g>
<defs>
<clipPath id="clip0_4004_61">
<rect width="56" height="56" fill="white"/>
</clipPath>
</defs>
</svg>
