<svg width="24" height="24" viewBox="0 0 24 24" fill="none" xmlns="http://www.w3.org/2000/svg">
<path d="M10.8984 1.52808C9.80625 1.67808 9.03281 1.86558 8.25 2.17027C6.81094 2.72808 5.66719 3.4687 4.57031 4.57026C2.97656 6.15933 2.03438 7.98745 1.6125 10.289C1.48594 10.964 1.48594 13.0359 1.6125 13.7109C1.94063 15.4968 2.57344 16.964 3.62344 18.3703C4.05469 18.9468 5.05313 19.9453 5.62969 20.3765C7.17656 21.5343 8.93438 22.2375 10.8234 22.4531C11.4797 22.5328 13.1438 22.4906 13.7344 22.3828C15.4828 22.0687 16.9734 21.4218 18.3703 20.3765C18.9469 19.9453 19.9453 18.9468 20.3766 18.3703C21.4266 16.964 22.0594 15.4968 22.3875 13.7109C22.5141 13.0359 22.5141 10.964 22.3875 10.289C22.0594 8.50308 21.4266 7.03589 20.3766 5.62964C19.9453 5.05308 18.9469 4.05464 18.3703 3.62339C16.9734 2.57808 15.4922 1.93589 13.7344 1.61714C13.4109 1.5562 12.9797 1.53276 12.1641 1.52339C11.5453 1.51402 10.9781 1.5187 10.8984 1.52808ZM12.975 4.59839C14.5406 4.78589 16.1016 5.56401 17.2688 6.7312C18.3047 7.76714 18.9891 9.02339 19.3219 10.5093C19.4156 10.9312 19.4297 11.1187 19.4297 12C19.4297 13.1296 19.3688 13.5328 19.05 14.4515C17.6953 18.3328 13.4297 20.4 9.54844 19.05C7.41094 18.3046 5.69531 16.589 4.95 14.4515C4.63125 13.5328 4.57031 13.1296 4.57031 12C4.57031 11.1187 4.58438 10.9312 4.67813 10.5093C5.18438 8.24527 6.58125 6.41245 8.57813 5.37183C9.94219 4.66401 11.4047 4.4062 12.975 4.59839Z" fill="white"/>
<path d="M10.9031 6.075C10.1531 6.21094 9.3 6.5625 8.60156 7.02187C8.17969 7.30312 7.30313 8.17969 7.02188 8.60156C6.31875 9.67031 6 10.725 6 12C6 13.275 6.31875 14.3297 7.02188 15.3984C7.30313 15.8203 8.17969 16.6969 8.60156 16.9781C9.31875 17.4516 10.1578 17.7891 10.9406 17.9297C11.4797 18.0234 12.5203 18.0234 13.0594 17.9297C14.8969 17.6062 16.5328 16.3828 17.3859 14.6906C17.8125 13.8422 18 13.0219 18 12C18 10.725 17.6813 9.67031 16.9781 8.60156C16.6969 8.175 15.8203 7.30312 15.3891 7.01719C14.6766 6.54375 13.8469 6.21094 13.0594 6.07031C12.5391 5.98125 11.4141 5.98125 10.9031 6.075ZM12.4547 8.39531C12.7172 8.52187 12.8484 8.68594 13.2375 9.39375C13.65 10.1484 13.875 10.3687 14.7047 10.8187C15.5109 11.2594 15.7031 11.4891 15.7031 12C15.7031 12.5109 15.5109 12.7406 14.7047 13.1812C13.875 13.6312 13.65 13.8516 13.2375 14.6062C13.0594 14.9297 12.8578 15.2625 12.7875 15.3516C12.4031 15.8203 11.5969 15.8203 11.2125 15.3516C11.1422 15.2625 10.9406 14.9297 10.7625 14.6062C10.35 13.8516 10.125 13.6312 9.29531 13.1812C8.48906 12.7406 8.29688 12.5109 8.29688 12C8.29688 11.4891 8.48906 11.2594 9.29531 10.8187C10.125 10.3687 10.35 10.1484 10.7625 9.39375C10.9406 9.07031 11.1422 8.7375 11.2125 8.65312C11.4938 8.30625 12.0422 8.19375 12.4547 8.39531Z" fill="white"/>
</svg>
