<svg width="56" height="56" viewBox="0 0 56 56" fill="none" xmlns="http://www.w3.org/2000/svg">
<rect width="56" height="56" fill="#212639"/>
<path d="M8 18.3399L10.8669 12.4816H44.2719L47.3881 18.3399H8Z" fill="white"/>
<path d="M22.4589 20.9575H16.8499V45.5127H12.9858V50H27.1955V45.5127H22.4589V20.9575Z" fill="white"/>
<path d="M22.4589 6L16.8499 7.86969V10.238H22.4589V6Z" fill="white"/>
<path d="M39.1781 31.8732V23L32 35.2209L39.1781 31.8732Z" fill="#CBCCCE"/>
<path d="M39.1781 39.5764V31.8732L32 35.2209L39.1781 39.5764ZM39.1781 31.8732L46.3562 35.2209L39.1781 23V31.8732Z" fill="white"/>
<path d="M39.178 31.8726V39.5758L46.3561 35.2202L39.178 31.8726Z" fill="#CBCCCE"/>
<path d="M39.1781 40.9707L32 36.6196L39.1781 47.0002V40.9707Z" fill="#CBCCCE"/>
<path d="M46.3605 36.6196L39.178 40.9707V47.0002L46.3605 36.6196Z" fill="white"/>
</svg>
