<?xml version="1.0" encoding="UTF-8"?>
<svg xmlns="http://www.w3.org/2000/svg" width="30" height="30" viewBox="0 0 30 30" fill="none">
  <path d="M27.1875 0H2.8125C1.26187 0 0 1.26187 0 2.8125V14.3906C0 14.6393 0.0987721 14.8777 0.274587 15.0535C0.450403 15.2294 0.68886 15.3281 0.9375 15.3281C1.18614 15.3281 1.4246 15.2294 1.60041 15.0535C1.77623 14.8777 1.875 14.6393 1.875 14.3906V2.8125C1.875 2.295 2.29594 1.875 2.8125 1.875H27.1875C27.7041 1.875 28.125 2.295 28.125 2.8125V27.1875C28.125 27.705 27.7041 28.125 27.1875 28.125H15.6094C15.3607 28.125 15.1223 28.2238 14.9465 28.3996C14.7706 28.5754 14.6719 28.8139 14.6719 29.0625C14.6719 29.3111 14.7706 29.5496 14.9465 29.7254C15.1223 29.9012 15.3607 30 15.6094 30H27.1875C28.7381 30 30 28.7381 30 27.1875V2.8125C30 1.26187 28.7381 0 27.1875 0Z" fill="#9810FA"></path>
  <path d="M10.3125 16.875H2.8125C1.26187 16.875 0 18.1369 0 19.6875V27.1875C0 28.7381 1.26187 30 2.8125 30H10.3125C11.8631 30 13.125 28.7381 13.125 27.1875V19.6875C13.125 18.1369 11.8631 16.875 10.3125 16.875ZM11.25 27.1875C11.25 27.705 10.8291 28.125 10.3125 28.125H2.8125C2.29594 28.125 1.875 27.705 1.875 27.1875V19.6875C1.875 19.17 2.29594 18.75 2.8125 18.75H10.3125C10.8291 18.75 11.25 19.17 11.25 19.6875V27.1875ZM15.6628 15.6628L21.5625 9.76312V11.25C21.5625 11.4986 21.6613 11.7371 21.8371 11.9129C22.0129 12.0887 22.2514 12.1875 22.5 12.1875C22.7486 12.1875 22.9871 12.0887 23.1629 11.9129C23.3387 11.7371 23.4375 11.4986 23.4375 11.25V7.5C23.4375 6.9975 23.01 6.5625 22.5 6.5625H18.75C18.5014 6.5625 18.2629 6.66127 18.0871 6.83709C17.9113 7.0129 17.8125 7.25136 17.8125 7.5C17.8125 7.74864 17.9113 7.9871 18.0871 8.16291C18.2629 8.33873 18.5014 8.4375 18.75 8.4375H20.2369L14.3372 14.3372C14.1614 14.513 14.0627 14.7514 14.0627 15C14.0627 15.2486 14.1614 15.487 14.3372 15.6628C14.6916 16.0172 15.2972 16.0284 15.6628 15.6628Z" fill="#9810FA"></path>
</svg>
