<?xml version="1.0" encoding="UTF-8"?>
<svg xmlns="http://www.w3.org/2000/svg" width="30" height="35" viewBox="0 0 30 35" fill="none">
  <path d="M29.3718 9.01188C29.3538 8.06693 29.3367 7.17424 29.3367 6.31064C29.3367 5.98572 29.2076 5.67412 28.9779 5.44437C28.7481 5.21462 28.4365 5.08555 28.1116 5.08555C22.8723 5.08555 18.8832 3.57983 15.5582 0.346901C15.3295 0.124459 15.0231 0 14.7041 0C14.3851 0 14.0787 0.124459 13.8501 0.346901C10.5253 3.57983 6.53694 5.08555 1.29797 5.08555C0.973056 5.08555 0.66145 5.21462 0.431701 5.44437C0.201952 5.67412 0.0728807 5.98572 0.0728807 6.31064C0.0728807 7.17441 0.0558927 8.06742 0.0377614 9.01253C-0.130158 17.8064 -0.360147 29.85 14.3029 34.9325C14.5627 35.0226 14.8454 35.0226 15.1052 34.9325C29.7694 29.8498 29.5397 17.8059 29.3718 9.01188ZM14.7042 32.475C2.12874 27.9067 2.31888 17.8993 2.48761 9.05925C2.49774 8.5287 2.50754 8.01449 2.5144 7.51041C7.4213 7.30329 11.3452 5.81635 14.7042 2.89019C18.0636 5.81635 21.9881 7.30345 26.8953 7.51041C26.9022 8.01433 26.912 8.52821 26.9221 9.05843C27.0907 17.8988 27.2807 27.9065 14.7042 32.475Z" fill="#9810FA"></path>
  <path d="M18.9229 13.2444L13.0099 19.157L10.4867 16.6338C10.2557 16.4105 9.94611 16.2869 9.62475 16.2896C9.30339 16.2923 8.99597 16.4212 8.76874 16.6485C8.54151 16.8757 8.41266 17.1831 8.40996 17.5045C8.40725 17.8259 8.53092 18.1354 8.7543 18.3665L12.1437 21.7559C12.2574 21.8698 12.3924 21.9601 12.541 22.0217C12.6897 22.0832 12.849 22.1148 13.0099 22.1146C13.1708 22.1148 13.3302 22.0832 13.4788 22.0217C13.6275 21.9601 13.7625 21.8698 13.8762 21.7559L20.6551 14.977C20.7689 14.8633 20.8592 14.7283 20.9208 14.5797C20.9824 14.431 21.0141 14.2717 21.0141 14.1108C21.0142 13.95 20.9825 13.7907 20.9209 13.642C20.8593 13.4934 20.7691 13.3583 20.6553 13.2446C20.4256 13.0149 20.114 12.8858 19.7891 12.8857C19.4642 12.8857 19.1526 13.0147 18.9229 13.2444Z" fill="#9810FA"></path>
</svg>
