<?xml version="1.0" encoding="UTF-8"?>
<svg xmlns="http://www.w3.org/2000/svg" width="24" height="24" viewBox="0 0 24 24" fill="none">
  <path d="M19.5827 12.7283C19.5827 17.6241 16.1556 20.0721 12.0823 21.4918C11.869 21.5641 11.6373 21.5607 11.4262 21.4821C7.3431 20.0721 3.91602 17.6241 3.91602 12.7283V5.87414C3.91602 5.61445 4.01918 5.36539 4.20281 5.18176C4.38644 4.99813 4.63549 4.89497 4.89518 4.89497C6.85352 4.89497 9.30143 3.71997 11.0052 2.23164C11.2126 2.05441 11.4765 1.95703 11.7493 1.95703C12.0222 1.95703 12.2861 2.05441 12.4935 2.23164C14.2071 3.72976 16.6452 4.89497 18.6035 4.89497C18.8632 4.89497 19.1123 4.99813 19.2959 5.18176C19.4795 5.36539 19.5827 5.61445 19.5827 5.87414V12.7283Z" stroke="white" stroke-width="1.95833" stroke-linecap="round" stroke-linejoin="round"></path>
</svg>
