<?xml version="1.0" encoding="UTF-8"?>
<svg xmlns="http://www.w3.org/2000/svg" width="28" height="32" viewBox="0 0 28 32" fill="none">
  <path d="M13.6284 9.9043C10.2664 9.9043 7.53125 12.6394 7.53125 16.0012C7.53125 19.3633 10.2664 22.0984 13.6284 22.0984C16.9903 22.0984 19.7253 19.3633 19.7253 16.0012C19.7253 12.6394 16.9903 9.9043 13.6284 9.9043ZM17.2483 14.853L12.8804 19.2209C12.7933 19.3083 12.6898 19.3775 12.5758 19.4248C12.4618 19.472 12.3397 19.4962 12.2163 19.4961C12.093 19.4963 11.9709 19.4721 11.8569 19.4248C11.743 19.3776 11.6396 19.3083 11.5526 19.2209L9.88331 17.5517C9.51663 17.1853 9.51663 16.5908 9.88331 16.2241C10.2498 15.8574 10.8442 15.8574 11.2109 16.2241L12.2163 17.2295L15.9207 13.5254C16.2871 13.1587 16.8816 13.1587 17.2483 13.5254C17.615 13.8919 17.615 14.4864 17.2483 14.853Z" fill="#9810FA"></path>
  <path d="M27.2179 8.6824L27.217 8.65753C27.2024 8.32623 27.1928 7.99474 27.1882 7.66316C27.1621 5.89872 25.7594 4.43923 23.9948 4.34066C20.3156 4.13529 17.4695 2.9356 15.0376 0.565233L15.0168 0.545483C14.2236 -0.181828 13.0271 -0.181828 12.2336 0.545483L12.2128 0.565233C9.78097 2.9356 6.93479 4.13529 3.25561 4.34085C1.49123 4.43923 0.0883622 5.89879 0.0622373 7.66334C0.0576518 7.99486 0.0480674 8.3263 0.0334873 8.65753L0.0319873 8.71534C-0.039575 12.4671 -0.12845 17.1363 1.43355 21.3743C2.29248 23.7049 3.59323 25.7307 5.29954 27.396C7.24291 29.2925 9.78828 30.7981 12.865 31.8709C12.9662 31.9061 13.0698 31.9343 13.175 31.9553C13.3244 31.9851 13.4748 32 13.6252 32C13.7756 32 13.9262 31.9851 14.0754 31.9553C14.181 31.9342 14.285 31.9058 14.3866 31.8703C17.4596 30.7956 20.0024 29.2893 21.944 27.3931C23.6496 25.7273 24.9504 23.7009 25.81 21.3699C27.3779 17.1191 27.2892 12.4411 27.2179 8.6824ZM13.6247 23.9753C9.22722 23.9753 5.64985 20.3979 5.64985 16.0005C5.64985 11.603 9.22728 8.02566 13.6247 8.02566C18.022 8.02566 21.5996 11.603 21.5996 16.0005C21.5996 20.398 18.022 23.9753 13.6247 23.9753Z" fill="#9810FA"></path>
</svg>
