<?xml version="1.0" encoding="UTF-8"?>
<svg xmlns="http://www.w3.org/2000/svg" width="25" height="23" viewBox="0 0 25 23" fill="none">
  <path d="M0.5 5.6685H23.5C23.775 5.6685 24 5.4435 24 5.1685V0.5C24 0.225 23.775 0 23.5 0H0.5C0.225 0 0 0.225 0 0.5V5.1685C0 5.4435 0.225 5.6685 0.5 5.6685ZM21.167 1.96C21.2836 1.95725 21.3995 1.97783 21.508 2.02054C21.6165 2.06326 21.7154 2.12724 21.7988 2.20872C21.8822 2.2902 21.9484 2.38754 21.9937 2.49501C22.0389 2.60248 22.0622 2.71791 22.0622 2.83451C22.0621 2.95111 22.0388 3.06652 21.9935 3.17397C21.9482 3.28141 21.8819 3.37871 21.7984 3.46014C21.715 3.54158 21.6161 3.6055 21.5075 3.64815C21.399 3.6908 21.2831 3.71132 21.1665 3.7085C20.9383 3.70298 20.7212 3.60841 20.5618 3.44501C20.4023 3.2816 20.3131 3.06232 20.3132 2.83401C20.3132 2.60569 20.4026 2.38646 20.5621 2.22315C20.7217 2.05984 20.9388 1.96539 21.167 1.96ZM2.959 1.96H5.0415C5.26975 1.96546 5.48681 2.05996 5.64631 2.22332C5.8058 2.38668 5.89509 2.60594 5.89509 2.83425C5.89509 3.06256 5.8058 3.28182 5.64631 3.44518C5.48681 3.60854 5.26975 3.70304 5.0415 3.7085H2.959C2.84243 3.71129 2.72648 3.69074 2.61798 3.64805C2.50947 3.60537 2.41059 3.54142 2.32716 3.45996C2.24373 3.37851 2.17744 3.28119 2.13217 3.17373C2.08691 3.06627 2.06359 2.95085 2.06359 2.83425C2.06359 2.71765 2.08691 2.60223 2.13217 2.49477C2.17744 2.38731 2.24373 2.28999 2.32716 2.20854C2.41059 2.12708 2.50947 2.06313 2.61798 2.02045C2.72648 1.97776 2.84243 1.95721 2.959 1.96ZM18.6085 10.6495C15.4125 10.6495 12.822 13.2405 12.822 16.4355C12.822 19.631 15.413 22.2225 18.6085 22.2225C21.804 22.2225 24.395 19.6305 24.395 16.4355C24.395 13.2405 21.804 10.6495 18.6085 10.6495ZM17.2965 20.0165L18.4665 16.787H16.499L19.9655 12.338L18.773 15.5855H20.7195L17.2965 20.0165ZM12.113 14.476H0.5C0.225 14.476 0 14.701 0 14.976V19.6445C0 19.9195 0.225 20.1445 0.5 20.1445H12.932C12.3879 19.3177 12.0324 18.3812 11.8909 17.4015C11.7493 16.4219 11.8252 15.4231 12.113 14.476ZM5.0415 18.1845H2.959C2.84243 18.1873 2.72648 18.1667 2.61798 18.1241C2.50947 18.0814 2.41059 18.0174 2.32716 17.936C2.24373 17.8545 2.17744 17.7572 2.13217 17.6497C2.08691 17.5423 2.06359 17.4268 2.06359 17.3102C2.06359 17.1936 2.08691 17.0782 2.13217 16.9708C2.17744 16.8633 2.24373 16.766 2.32716 16.6845C2.41059 16.6031 2.50947 16.5391 2.61798 16.4964C2.72648 16.4538 2.84243 16.4332 2.959 16.436H5.0415C5.26975 16.4415 5.48681 16.536 5.64631 16.6993C5.8058 16.8627 5.89509 17.0819 5.89509 17.3102C5.89509 17.5386 5.8058 17.7578 5.64631 17.9212C5.48681 18.0845 5.26975 18.179 5.0415 18.1845Z" fill="white"></path>
  <path d="M0.5 12.8101H12.8815C14.0865 10.9136 16.2005 9.6491 18.609 9.6491C20.8055 9.6491 22.7555 10.7026 23.997 12.3256C23.997 12.3201 24 12.3156 24 12.3101V7.6416C24 7.3666 23.775 7.1416 23.5 7.1416H0.5C0.225 7.1416 0 7.3666 0 7.6416V12.3101C0 12.5851 0.225 12.8101 0.5 12.8101ZM2.959 9.1016H5.0415C5.26975 9.10706 5.48681 9.20156 5.64631 9.36492C5.8058 9.52828 5.89509 9.74754 5.89509 9.97585C5.89509 10.2042 5.8058 10.4234 5.64631 10.5868C5.48681 10.7501 5.26975 10.8446 5.0415 10.8501H2.959C2.84243 10.8529 2.72648 10.8323 2.61798 10.7897C2.50947 10.747 2.41059 10.683 2.32716 10.6016C2.24373 10.5201 2.17744 10.4228 2.13217 10.3153C2.08691 10.2079 2.06359 10.0925 2.06359 9.97585C2.06359 9.85925 2.08691 9.74383 2.13217 9.63637C2.17744 9.52891 2.24373 9.4316 2.32716 9.35014C2.41059 9.26868 2.50947 9.20473 2.61798 9.16205C2.72648 9.11937 2.84243 9.09881 2.959 9.1016Z" fill="white"></path>
</svg>
