<?xml version="1.0" encoding="UTF-8"?>
<svg xmlns="http://www.w3.org/2000/svg" width="32" height="31" viewBox="0 0 32 31" fill="none">
  <path d="M20.3636 14.6424L18.5697 14.0121C18.4242 13.5273 18.2303 13.0424 17.9394 12.5576L18.7636 10.8606C18.8606 10.6667 18.8121 10.4242 18.6667 10.3273L16.5818 8.24242C16.4364 8.09697 16.1939 8.04849 16.0485 8.14546L14.3515 8.9697C13.8667 8.72727 13.3818 8.53333 12.897 8.33939L12.2667 6.54545C12.2182 6.35152 12.0242 6.20606 11.8303 6.20606H8.87273C8.67879 6.20606 8.48485 6.35152 8.38788 6.54545L7.75758 8.33939C7.27273 8.48485 6.78788 8.67879 6.30303 8.9697L4.65455 8.09697C4.46061 8 4.26667 8.04849 4.07273 8.19394L1.98788 10.2788C1.84242 10.4242 1.79394 10.6667 1.89091 10.8121L2.71515 12.5091C2.47273 12.9939 2.27879 13.4788 2.13333 13.9636L0.339394 14.5939C0.145455 14.6909 0 14.8849 0 15.0788V18.0364C0 18.2303 0.145455 18.4242 0.339394 18.5212L2.13333 19.1515C2.27879 19.6364 2.47273 20.1212 2.76364 20.6061L1.93939 22.303C1.84242 22.497 1.89091 22.7394 2.03636 22.8848L4.12121 24.9697C4.26667 25.1152 4.50909 25.1636 4.70303 25.0667L6.4 24.2424C6.88485 24.4848 7.3697 24.6788 7.85455 24.8727L8.48485 26.6667C8.53333 26.8606 8.72727 27.0061 8.92121 27.0061H11.8788C12.0727 27.0061 12.2667 26.8606 12.3152 26.6667L12.9455 24.8727C13.4303 24.7273 13.9152 24.5333 14.4 24.2424L16.097 25.0667C16.2909 25.1636 16.4848 25.1152 16.6303 24.9697L18.7152 22.8848C18.8606 22.7394 18.9091 22.497 18.8121 22.303L17.9394 20.5576C18.1818 20.0727 18.3758 19.5879 18.5697 19.103L20.3636 18.4727C20.5576 18.4242 20.703 18.2303 20.703 17.9879V15.0303C20.703 14.8848 20.5576 14.6909 20.3636 14.6424ZM10.3273 20.703C8.04848 20.703 6.20606 18.8606 6.20606 16.5818C6.20606 14.303 8.04848 12.4606 10.3273 12.4606C12.6061 12.4606 14.4485 14.303 14.4485 16.5818C14.4485 18.8121 12.6061 20.703 10.3273 20.703ZM30.6909 4.99394L29.7212 4.65455C29.6242 4.41212 29.5273 4.1697 29.4303 3.97576L29.8667 3.05455C29.9636 2.86061 29.9152 2.66667 29.7697 2.47273L28.6061 1.26061C28.4606 1.11515 28.2182 1.06667 28.0727 1.16364L27.1515 1.6C26.9091 1.50303 26.7152 1.40606 26.4727 1.30909L26.1333 0.339394C26.0849 0.145455 25.8909 0 25.697 0H23.9515C23.7576 0 23.5636 0.145455 23.4667 0.339394L23.1273 1.30909C22.8848 1.40606 22.6424 1.50303 22.4485 1.6L21.5273 1.16364C21.3333 1.06667 21.0909 1.11515 20.9455 1.26061L19.7333 2.47273C19.5879 2.61818 19.5394 2.86061 19.6364 3.05455L20.0727 3.97576C19.9758 4.21818 19.8788 4.41212 19.7818 4.65455L18.8121 4.99394C18.6182 5.04242 18.4727 5.23636 18.4727 5.4303V7.17576C18.4727 7.3697 18.6182 7.56364 18.8121 7.61212L19.7818 7.95152L20.0727 8.67879L19.6364 9.55152C19.5394 9.74545 19.5879 9.98788 19.7333 10.1333L20.9455 11.3455C21.0909 11.4909 21.3333 11.5394 21.5273 11.4424L22.4485 11.0061C22.6909 11.103 22.9333 11.2 23.1273 11.297L23.4667 12.2667C23.5152 12.4606 23.7091 12.6061 23.9515 12.6061H25.697C25.8909 12.6061 26.0849 12.4606 26.1333 12.2667L26.4727 11.297C26.7152 11.2 26.9576 11.103 27.1515 11.0061L28.0727 11.4424C28.2667 11.5394 28.4606 11.4909 28.6545 11.3455L29.8667 10.1333C30.0121 9.98788 30.0606 9.74545 29.9636 9.55152L29.5273 8.6303L29.8182 7.90303L30.7879 7.56364C30.9818 7.51515 31.1273 7.32121 31.1273 7.12727V5.38182C31.0303 5.23636 30.8849 5.04242 30.6909 4.99394ZM24.7758 8.72727C23.4182 8.72727 22.3515 7.66061 22.3515 6.30303C22.3515 4.99394 23.4182 3.87879 24.7758 3.87879C26.0848 3.87879 27.2 4.94545 27.2 6.30303C27.2 7.66061 26.0848 8.72727 24.7758 8.72727Z" fill="#F6114F"></path>
  <path d="M30.6945 20.801L29.3369 20.3161C29.2399 19.9282 29.0945 19.5888 28.9005 19.2495L29.5308 17.9404C29.6278 17.7464 29.5793 17.5525 29.4339 17.407L27.7854 15.7585C27.6399 15.6131 27.3975 15.5646 27.2036 15.6616L25.943 16.3404C25.6036 16.1464 25.2157 16.001 24.8763 15.904L24.4399 14.5464C24.3915 14.3525 24.1975 14.207 23.9551 14.207H21.6278C21.5308 14.207 21.4824 14.207 21.3854 14.2555C21.5308 14.4979 21.6278 14.7888 21.6278 15.0798V18.0373C21.6278 18.6676 21.2399 19.201 20.6581 19.3949L19.3005 19.8798C19.2036 20.1222 19.1066 20.3646 19.0096 20.5585L19.6399 21.8192C19.9308 22.401 19.8339 23.0313 19.349 23.5161L17.2642 25.601C17.0218 25.8434 16.7308 25.9888 16.4399 26.0373L16.0036 26.9101C15.9066 27.104 15.9551 27.2979 16.1005 27.4434L17.749 29.0919C17.8945 29.2373 18.1369 29.2858 18.3308 29.1888L19.6399 28.5585C19.9793 28.7525 20.3672 28.8979 20.7066 28.9949L21.1915 30.3525C21.2399 30.5464 21.4339 30.6919 21.6763 30.6919H24.0036C24.1975 30.6919 24.3915 30.5464 24.4884 30.3525L24.9248 28.9949C25.3127 28.8495 25.6521 28.704 25.9915 28.5585L27.3005 29.1888C27.4945 29.2858 27.6884 29.2373 27.8824 29.0919L29.5308 27.4434C29.6763 27.2979 29.7248 27.0555 29.6278 26.9101L28.9975 25.601C29.1915 25.2616 29.3369 24.8737 29.4339 24.5343L30.7915 24.0495C30.9854 24.001 31.1308 23.807 31.1308 23.5646V21.2373C31.0339 21.0434 30.8884 20.8979 30.6945 20.801ZM23.2763 25.6979C22.8497 25.6979 22.4273 25.6139 22.0332 25.4507C21.639 25.2874 21.2809 25.0481 20.9793 24.7465C20.6776 24.4448 20.4383 24.0867 20.2751 23.6926C20.1118 23.2985 20.0278 22.8761 20.0278 22.4495C20.0278 22.0229 20.1118 21.6004 20.2751 21.2063C20.4383 20.8122 20.6776 20.4541 20.9793 20.1524C21.2809 19.8508 21.639 19.6115 22.0332 19.4482C22.4273 19.285 22.8497 19.201 23.2763 19.201C24.1379 19.201 24.9641 19.5432 25.5733 20.1524C26.1825 20.7616 26.5248 21.5879 26.5248 22.4495C26.5248 23.311 26.1825 24.1373 25.5733 24.7465C24.9641 25.3557 24.1379 25.6979 23.2763 25.6979Z" fill="#F6114F"></path>
</svg>
