<?xml version="1.0" encoding="UTF-8"?>
<svg xmlns="http://www.w3.org/2000/svg" width="25" height="31" viewBox="0 0 25 31" fill="none">
  <path fill-rule="evenodd" clip-rule="evenodd" d="M22.4213 27.4942H24.9271C24.9364 18.3293 24.9491 9.16406 24.9491 0H3.27925L3.27713 2.49644H17.5151L22.4213 7.40263V27.4942ZM8.39525 12.9967C8.17194 12.692 8.23787 12.2639 8.54256 12.0406C8.84725 11.8173 9.27531 11.8833 9.49869 12.1879L10.3105 13.2921L12.1726 10.7594C12.3959 10.4548 12.824 10.3888 13.1287 10.6121C13.4334 10.8354 13.4993 11.2635 13.276 11.5682L10.871 14.8393C10.6026 15.2133 10.0399 15.2341 9.75881 14.8512L8.39531 12.9967L8.39525 12.9967ZM21.6713 7.71331H17.2044V3.24644L21.6713 7.71331ZM0 30.75V3.24644H16.4544V8.46331H21.6713V30.75H0ZM10.8356 17.9762C6.13837 15.713 6.49631 11.8841 6.48794 9.22987C7.98025 9.22987 9.731 8.73906 10.8356 7.6345C11.9402 8.73906 13.6909 9.22987 15.1833 9.22987C15.1749 11.8841 15.5329 15.713 10.8356 17.9762ZM3.11362 28.6391H18.5576C18.6072 28.64 18.6565 28.631 18.7026 28.6126C18.7487 28.5943 18.7907 28.5669 18.8261 28.5321C18.8615 28.4973 18.8897 28.4559 18.9089 28.4101C18.9281 28.3643 18.938 28.3152 18.938 28.2656C18.938 28.2159 18.9281 28.1668 18.9089 28.121C18.8897 28.0753 18.8615 28.0338 18.8261 27.999C18.7907 27.9642 18.7487 27.9369 18.7026 27.9185C18.6565 27.9001 18.6072 27.8912 18.5576 27.8921H3.11362C3.06417 27.8914 3.01507 27.9006 2.96919 27.9191C2.92331 27.9376 2.88156 27.965 2.84636 27.9997C2.81116 28.0345 2.78321 28.0759 2.76413 28.1215C2.74505 28.1672 2.73523 28.2161 2.73523 28.2656C2.73523 28.3151 2.74505 28.364 2.76413 28.4097C2.78321 28.4553 2.81116 28.4967 2.84636 28.5314C2.88156 28.5662 2.92331 28.5936 2.96919 28.6121C3.01507 28.6306 3.06417 28.6398 3.11362 28.6391V28.6391ZM3.11362 25.9721C3.01455 25.9721 2.91953 25.9328 2.84948 25.8627C2.77942 25.7927 2.74006 25.6976 2.74006 25.5986C2.74006 25.4995 2.77942 25.4045 2.84948 25.3344C2.91953 25.2644 3.01455 25.225 3.11362 25.225H18.5576C18.6566 25.225 18.7517 25.2644 18.8217 25.3344C18.8918 25.4045 18.9311 25.4995 18.9311 25.5986C18.9311 25.6976 18.8918 25.7927 18.8217 25.8627C18.7517 25.9328 18.6566 25.9721 18.5576 25.9721H3.11362ZM3.11362 23.3052C3.01455 23.3052 2.91953 23.2658 2.84948 23.1958C2.77942 23.1257 2.74006 23.0307 2.74006 22.9316C2.74006 22.8326 2.77942 22.7375 2.84948 22.6675C2.91953 22.5974 3.01455 22.5581 3.11362 22.5581H18.5576C18.6566 22.5581 18.7517 22.5974 18.8217 22.6675C18.8918 22.7375 18.9311 22.8326 18.9311 22.9316C18.9311 23.0307 18.8918 23.1257 18.8217 23.1958C18.7517 23.2658 18.6566 23.3052 18.5576 23.3052H3.11362ZM3.11362 20.6383C3.01455 20.6383 2.91953 20.5989 2.84948 20.5288C2.77942 20.4588 2.74006 20.3638 2.74006 20.2647C2.74006 20.1656 2.77942 20.0706 2.84948 20.0005C2.91953 19.9305 3.01455 19.8911 3.11362 19.8911H18.5576C18.6558 19.8924 18.7496 19.9323 18.8186 20.0022C18.8876 20.0721 18.9263 20.1664 18.9263 20.2647C18.9263 20.3629 18.8876 20.4572 18.8186 20.5271C18.7496 20.597 18.6558 20.6369 18.5576 20.6382H3.11362V20.6383Z" fill="white"></path>
</svg>
