<?xml version="1.0" encoding="UTF-8"?>
<svg xmlns="http://www.w3.org/2000/svg" width="28" height="28" viewBox="0 0 28 28" fill="none">
  <path d="M11.6666 14.5833L9.33325 17.4999L11.6666 20.4166" stroke="white" stroke-width="2.33333" stroke-linecap="round" stroke-linejoin="round"></path>
  <path d="M16.3333 14.5833L18.6666 17.4999L16.3333 20.4166" stroke="white" stroke-width="2.33333" stroke-linecap="round" stroke-linejoin="round"></path>
  <path d="M16.3333 2.33325V6.99992C16.3333 7.61876 16.5791 8.21225 17.0167 8.64983C17.4543 9.08742 18.0477 9.33325 18.6666 9.33325H23.3333" stroke="white" stroke-width="2.33333" stroke-linecap="round" stroke-linejoin="round"></path>
  <path d="M17.5001 2.33325H7.00008C6.38124 2.33325 5.78775 2.57908 5.35017 3.01667C4.91258 3.45425 4.66675 4.04775 4.66675 4.66659V23.3333C4.66675 23.9521 4.91258 24.5456 5.35017 24.9832C5.78775 25.4208 6.38124 25.6666 7.00008 25.6666H21.0001C21.6189 25.6666 22.2124 25.4208 22.65 24.9832C23.0876 24.5456 23.3334 23.9521 23.3334 23.3333V8.16659L17.5001 2.33325Z" stroke="white" stroke-width="2.33333" stroke-linecap="round" stroke-linejoin="round"></path>
</svg>
