<?xml version="1.0" encoding="UTF-8"?>
<svg xmlns="http://www.w3.org/2000/svg" width="24" height="30" viewBox="0 0 24 30" fill="none">
  <path d="M23.0846 6.13123L16.9862 0H16.9531V6.13123H23.1177H23.0846Z" fill="#10011A"></path>
  <path d="M16.1437 0H0V29.3501H22.9925V22.1424H12.8823C12.7842 22.4354 12.523 22.6647 12.1969 22.6647C11.8058 22.6647 11.4797 22.3386 11.4797 21.9475C11.4797 21.5564 11.8058 21.2303 12.1969 21.2303C12.523 21.2303 12.7842 21.4583 12.8823 21.7526H22.9925V6.84829H16.1437V0ZM22.9925 26.252H17.3833L16.503 27.3285C16.568 27.4265 16.6011 27.5565 16.6329 27.6546V27.7195C16.6329 27.8826 16.568 28.0457 16.4699 28.1756C16.3399 28.3055 16.1769 28.4036 15.9807 28.4367C15.7845 28.4698 15.5896 28.4036 15.4583 28.2737C15.3284 28.1437 15.2303 27.9807 15.1972 27.7845C15.164 27.5883 15.2303 27.3934 15.3602 27.2622C15.4252 27.1972 15.4902 27.1323 15.5883 27.0991C15.6864 27.066 15.7513 27.0342 15.8494 27.0342C15.9794 27.0342 16.1106 27.0342 16.2087 27.0991L17.1221 25.9909L17.2202 25.8928H22.9925L22.9925 26.252ZM13.0454 25.0775C13.1753 24.9476 13.3384 24.8495 13.5346 24.8164C13.6645 24.8164 13.7957 24.8164 13.8938 24.8813L14.7092 23.903L14.7742 23.8049H22.9937V24.196L14.9702 24.1972L14.188 25.1425C14.2861 25.2724 14.3179 25.4036 14.3179 25.5335C14.3179 25.6966 14.2529 25.8596 14.1548 25.9896C14.0249 26.1195 13.8618 26.2176 13.6656 26.2507C13.4694 26.2851 13.2733 26.2189 13.1433 26.0889C12.8503 25.8609 12.7842 25.4036 13.0454 25.0775ZM4.43608 10.1425H18.558V11.1858H4.43608V10.1425ZM6.29478 26.4801C3.81564 26.4801 1.76217 24.4585 1.76217 21.9478C1.76217 19.4688 3.78394 17.4155 6.29478 17.4155C7.07699 17.4155 7.82736 17.6117 8.44779 17.9696L7.59932 18.8499H7.5662C7.53308 18.8499 7.53308 18.8167 7.50123 18.8167C7.46811 18.8167 7.46811 18.8167 7.43625 18.7836C7.40313 18.7836 7.37128 18.7505 7.37128 18.7505H7.33816C7.30504 18.7505 7.27319 18.7174 7.24007 18.7174H7.20694C7.17382 18.7174 7.14197 18.6843 7.077 18.6843C6.9789 18.6511 6.91393 18.6511 6.81584 18.6193C6.78271 18.6193 6.71774 18.6193 6.68589 18.5862C6.5878 18.5862 6.52282 18.5531 6.42473 18.5531H6.29478C4.43608 18.5531 2.90364 20.0537 2.90364 21.944C2.90364 23.8026 4.40438 25.3349 6.29478 25.3349C8.15349 25.3349 9.68593 23.8342 9.68593 21.944V21.7809V21.6828V21.6179V21.5847V21.5198V21.4867V21.4217V21.3886V21.3554V21.3223V21.2892V21.2561V21.223V21.158V21.1249V21.0599V21.0268C9.68593 20.9937 9.68593 20.9937 9.65281 20.9618V20.9287C9.65281 20.8956 9.65281 20.8956 9.61969 20.8637C9.61969 20.8306 9.61969 20.8306 9.58656 20.7988C9.58656 20.7656 9.55344 20.7656 9.55344 20.7338C9.52032 20.6688 9.52032 20.6357 9.48847 20.5707C9.48847 20.5376 9.45535 20.5058 9.45535 20.5058C9.45535 20.4727 9.42222 20.4408 9.42222 20.4408V20.4077C9.42222 20.3746 9.3891 20.3746 9.3891 20.3427C9.3891 20.3427 9.3891 20.3096 9.35598 20.3096L9.32286 20.2765C9.32286 20.2765 9.32286 20.2434 9.28974 20.2434L9.25661 20.2102C9.25661 20.2102 9.25661 20.1771 9.22349 20.1771C9.22349 20.144 9.19037 20.144 9.19037 20.1122V20.079C9.19037 20.0459 9.15725 20.0459 9.15725 20.0141L6.1889 22.9822L4.2321 21.0255L5.04743 20.2103L6.1889 21.3516L10.0057 17.5352L10.821 18.3504L9.88208 19.2078C10.0451 19.4039 10.1751 19.5988 10.2732 19.8268C10.6325 20.4791 10.8273 21.1963 10.8273 21.9797C10.7955 24.4587 8.77376 26.4801 6.29478 26.4801ZM4.43608 13.3058V12.2625H18.558V13.3058H4.43608ZM22.9925 20.0893H14.7742L14.7092 19.9912L13.8939 19.0129C13.7958 19.0778 13.6659 19.0778 13.5346 19.0778C13.3384 19.0447 13.1754 18.9797 13.0454 18.8167C12.7843 18.5237 12.8174 18.0664 13.1435 17.8052C13.2735 17.6753 13.4697 17.609 13.6659 17.6422C13.8621 17.6753 14.0251 17.7403 14.1551 17.9033C14.2532 18.0332 14.3181 18.1963 14.3181 18.3593C14.3181 18.4893 14.285 18.6523 14.1882 18.7504L14.9704 19.6956H22.994L22.9925 20.0893ZM22.9925 18.0345H17.2202L17.1221 17.9364L16.2087 16.8282C16.1106 16.8931 15.9807 16.8931 15.8494 16.8931C15.7513 16.8931 15.6532 16.86 15.5883 16.8282C15.4902 16.7951 15.4252 16.7301 15.3602 16.6651C15.2303 16.5352 15.164 16.339 15.1972 16.1428C15.2303 15.9466 15.2952 15.7836 15.4583 15.6536C15.5883 15.5237 15.7844 15.4575 15.9807 15.4906C16.1768 15.5237 16.3399 15.5887 16.4699 15.7517C16.5679 15.8817 16.6329 16.0447 16.6329 16.2078V16.2727C16.6329 16.4027 16.5679 16.5008 16.503 16.5989L17.3833 17.6753H22.9925L22.9925 18.0345ZM18.5577 7.98994V9.03324H4.43575V7.98994H18.5577Z" fill="#10011A"></path>
</svg>
