<svg width="56" height="56" viewBox="0 0 56 56" fill="none" xmlns="http://www.w3.org/2000/svg">
<g clip-path="url(#clip0_4009_917)">
<path fill-rule="evenodd" clip-rule="evenodd" d="M54.2536 24.185L47.62 28.0023L54.2536 31.808C54.6514 32.0331 55.0002 32.3355 55.2795 32.6973C55.5588 33.0592 55.7629 33.4732 55.88 33.915C55.9989 34.3577 56.0292 34.8196 55.9691 35.2741C55.909 35.7286 55.7598 36.1667 55.53 36.5633C55.0586 37.3613 54.2933 37.9423 53.402 38.1803C52.5098 38.417 51.5603 38.2912 50.7606 37.8303L38.884 31.0077C38.1208 30.5728 37.553 29.8623 37.2973 29.022C37.1805 28.6565 37.1268 28.2738 37.1386 27.8903C37.1579 27.2974 37.3275 26.7191 37.6315 26.2097C37.9356 25.7003 38.3642 25.2766 38.877 24.9783L50.7536 18.1627C51.1506 17.9333 51.5888 17.7843 52.0434 17.7243C52.4979 17.6643 52.9598 17.6944 53.4027 17.8129C53.8456 17.9314 54.2608 18.136 54.6246 18.415C54.9884 18.6941 55.2937 19.042 55.523 19.439C55.7543 19.8332 55.905 20.2694 55.9664 20.7223C56.0278 21.1752 55.9986 21.6358 55.8805 22.0774C55.7624 22.5189 55.5578 22.9326 55.2785 23.2944C54.9992 23.6562 54.6509 23.9589 54.2536 24.185ZM47.9723 42.6813L36.1026 35.868C35.491 35.5123 34.7847 35.3534 34.0796 35.413C33.2048 35.4725 32.3855 35.8629 31.7883 36.505C31.1886 37.149 30.855 37.996 30.848 38.878V52.521C30.8477 52.9791 30.9379 53.4328 31.1135 53.856C31.2891 54.2791 31.5466 54.6634 31.8712 54.9867C32.1958 55.31 32.5811 55.5659 33.0049 55.7398C33.4288 55.9137 33.8828 56.0022 34.341 56C36.273 56 37.834 54.4413 37.834 52.521V44.891L44.4816 48.7083C44.8779 48.939 45.3159 49.0891 45.7703 49.1501C46.2247 49.2111 46.6867 49.1818 47.1298 49.0639C47.5729 48.946 47.9884 48.7417 48.3524 48.4629C48.7164 48.1841 49.0217 47.8361 49.251 47.439C49.4807 47.0428 49.6298 46.6051 49.6899 46.151C49.7499 45.697 49.7197 45.2356 49.6009 44.7933C49.4821 44.351 49.277 43.9365 48.9975 43.5736C48.718 43.2108 48.3696 42.9091 47.9723 42.6813ZM34.2756 29.337L29.3383 34.2417C29.1694 34.3989 28.9504 34.4914 28.72 34.503H27.271C27.0408 34.49 26.8223 34.3977 26.6526 34.2417L21.7176 29.337C21.5636 29.1692 21.4729 28.9531 21.461 28.7257V27.279C21.4732 27.0496 21.5638 26.8313 21.7176 26.6607L26.6503 21.756C26.8199 21.602 27.0375 21.5113 27.2663 21.4993H28.72C28.9497 21.51 29.1685 21.6009 29.3383 21.756L34.2756 26.6607C34.4286 26.8316 34.5184 27.0499 34.53 27.279V28.7257C34.5165 28.9527 34.4283 29.1684 34.2756 29.337ZM30.3323 27.9767C30.3164 27.7461 30.2236 27.5275 30.0686 27.356L28.6406 25.9397C28.4693 25.7855 28.2502 25.6949 28.02 25.683H27.964C27.7352 25.695 27.5176 25.7857 27.348 25.9397L25.92 27.356C25.7692 27.5288 25.6812 27.7475 25.6703 27.9767V28.0327C25.6703 28.231 25.78 28.504 25.92 28.644L27.348 30.0673C27.4903 30.2073 27.7656 30.324 27.964 30.324H28.02C28.25 30.3115 28.469 30.221 28.6406 30.0673L30.0686 28.644C30.2229 28.4759 30.315 28.2603 30.33 28.0327V27.9767H30.3323ZM8.0163 13.3093L19.8906 20.132C20.53 20.4983 21.2393 20.643 21.916 20.587C22.791 20.5263 23.61 20.1343 24.2096 19.4903C24.807 18.8487 25.143 17.997 25.15 17.1173V3.47433C25.1523 1.55633 23.589 0 21.6616 0C19.7273 0 18.1663 1.55633 18.1663 3.47667V11.1067L11.5163 7.28233C11.1194 7.05246 10.6811 6.90307 10.2264 6.84269C9.77171 6.78231 9.30959 6.81213 8.86644 6.93045C8.42329 7.04876 8.00781 7.25326 7.64374 7.53224C7.27966 7.81122 6.97414 8.15921 6.74463 8.55633C6.51551 8.9519 6.3667 9.38879 6.30674 9.84197C6.24677 10.2951 6.27682 10.7557 6.39518 11.1972C6.51353 11.6388 6.71785 12.0526 6.99644 12.4151C7.27502 12.7775 7.62006 13.0814 8.0163 13.3093ZM34.0796 20.587C34.7563 20.643 35.4656 20.4983 36.1003 20.132L47.97 13.3117C48.3674 13.0861 48.716 12.7836 48.9952 12.4219C49.2745 12.0601 49.4788 11.6463 49.5963 11.2047C49.8361 10.3107 49.711 9.35811 49.2486 8.55633C48.7847 7.75533 48.0217 7.17138 47.1273 6.93291C46.2329 6.69443 45.2804 6.82096 44.4793 7.28467L37.834 11.1067V3.47433C37.834 1.55633 36.273 0 34.341 0C32.4043 0 30.848 1.55633 30.848 3.47667V17.115C30.8481 17.9948 31.1816 18.8418 31.7812 19.4856C32.3808 20.1294 33.2021 20.5221 34.0796 20.5847V20.587ZM21.916 35.413C21.2104 35.3525 20.5033 35.5106 19.8906 35.8657L8.0163 42.679C7.61895 42.9055 7.27069 43.2089 6.99186 43.5715C6.71303 43.934 6.50921 44.3485 6.3923 44.7907C6.15232 45.6844 6.2765 46.6367 6.73763 47.439C7.20231 48.2392 7.96571 48.8222 8.86003 49.0598C9.75436 49.2973 10.7064 49.1701 11.507 48.706L18.1593 44.8887V52.5187C18.1593 54.4437 19.7226 55.9977 21.6546 55.9977C23.582 55.9977 25.1453 54.4413 25.1453 52.521V38.878C25.143 37.9975 24.8089 37.1501 24.2096 36.505C23.6126 35.8628 22.7932 35.4722 21.9183 35.413H21.916ZM18.696 29.0197C18.8126 28.6557 18.864 28.273 18.8546 27.8903C18.8346 27.2959 18.6632 26.7164 18.3565 26.2068C18.0498 25.6972 17.6181 25.2744 17.1023 24.9783L5.23963 18.165C4.43731 17.7028 3.48447 17.5777 2.59 17.8169C1.69552 18.0562 0.932415 18.6403 0.467968 19.4413C0.237735 19.8364 0.0881894 20.2732 0.0279979 20.7265C-0.0321936 21.1797 -0.00183441 21.6404 0.117316 22.0819C0.236467 22.5233 0.44204 22.9367 0.722122 23.2981C1.00221 23.6595 1.35123 23.9618 1.74897 24.1873L8.37797 28.0047L1.74897 31.8103C1.35074 32.0352 1.0015 32.3375 0.721802 32.6993C0.442104 33.0612 0.237594 33.4753 0.120301 33.9173C0.00139979 34.3601 -0.028889 34.8219 0.0311736 35.2764C0.0912363 35.7309 0.240468 36.169 0.470301 36.5657C0.941635 37.366 1.70697 37.947 2.5983 38.1827C3.48963 38.4207 4.4393 38.2947 5.23963 37.8327L17.107 31.01C17.912 30.555 18.4533 29.8317 18.703 29.022L18.696 29.0197Z" fill="#249EDC"/>
</g>
<defs>
<clipPath id="clip0_4009_917">
<rect width="56" height="56" fill="white"/>
</clipPath>
</defs>
</svg>
