<svg width="56" height="56" viewBox="0 0 56 56" fill="none" xmlns="http://www.w3.org/2000/svg">
<mask id="mask0_4013_1151" style="mask-type:luminance" maskUnits="userSpaceOnUse" x="0" y="0" width="56" height="56">
<path d="M56 0H0V56H56V0Z" fill="white"/>
</mask>
<g mask="url(#mask0_4013_1151)">
<path d="M12.2225 0.192871H43.7775C50.4213 0.192871 55.8069 5.57862 55.8069 12.2223V43.7773C55.8069 50.421 50.4213 55.8067 43.7775 55.8067H12.2225C5.57887 55.8067 0.193115 50.421 0.193115 43.7773V12.2223C0.193115 5.57862 5.57887 0.192871 12.2225 0.192871Z" fill="#FFEF46" stroke="#EEDA0F" stroke-width="0.393103"/>
<path d="M27.1403 29.5892L29.8986 26.9246L35.041 28.6075C38.407 29.7296 40.09 31.7865 40.09 34.685C40.09 36.8823 39.2485 38.3316 37.5656 40.2016L37.0514 40.7625L37.2383 39.4535C37.9862 34.685 36.5839 32.6281 31.9556 31.1319L27.1403 29.5892ZM20.2212 13.2735L34.2463 17.9485L31.2075 20.847L23.9145 18.416C21.3901 17.5745 20.5486 16.2187 20.2212 13.367V13.2735ZM19.3797 37.0225L22.5588 33.9836L28.5428 35.9473C31.675 36.9758 32.7502 38.3316 32.4231 41.7443L19.3797 37.0225ZM15.3593 23.4649C15.3593 22.5768 15.8268 21.7353 16.6215 21.0339C17.463 22.2495 18.9123 23.3247 21.203 24.0728L26.1586 25.709L23.4003 28.3738L18.5383 26.7842C16.2943 26.0363 15.3593 24.9142 15.3593 23.4649ZM30.0388 48.0087C40.3237 41.1833 45.8403 36.555 45.8403 30.8515C45.8403 27.0647 43.5962 24.9609 38.6408 23.3247L34.9008 22.0624L45.1391 12.245L43.082 10.0477L40.0433 12.7125L25.6911 7.99072C21.2497 9.43998 15.6398 13.6942 15.6398 17.9485C15.6398 18.416 15.6865 18.8835 15.8268 19.3978C12.1335 21.5014 10.6375 23.4649 10.6375 25.8959C10.6375 28.1867 11.853 30.4775 15.7333 31.7398L18.8188 32.7682L8.15979 43.0064L10.2168 45.2037L13.536 42.1651L30.0388 48.0087Z" fill="#02050A"/>
</g>
</svg>
