<?xml version="1.0" encoding="UTF-8"?>
<svg xmlns="http://www.w3.org/2000/svg" width="32" height="31" viewBox="0 0 32 31" fill="none">
  <path d="M19.7859 25.2448H12.2141C9.60687 25.2448 7.4857 27.366 7.4857 29.9732C7.4857 30.4938 7.90771 30.9158 8.42825 30.9158H23.5718C24.0924 30.9158 24.5144 30.4938 24.5144 29.9732C24.5144 27.366 22.3932 25.2448 19.7859 25.2448ZM10.3664 14.9609H0C0.445761 17.418 2.59954 19.2877 5.18319 19.2877C7.76683 19.2877 9.92061 17.418 10.3664 14.9609ZM21.6337 14.9609C22.0795 17.418 24.2332 19.2877 26.8169 19.2877C29.4005 19.2877 31.5542 17.418 32.0001 14.9609H21.6337Z" fill="white"></path>
  <path d="M5.18272 7.47232L7.98441 13.0756H10.092L6.70782 6.30727H14.4208V23.3595H17.5783V6.30727H25.2913L21.9071 13.0756H24.0147L26.8164 7.47232L29.618 13.0756H31.7256L27.6594 4.94315C27.5811 4.78659 27.4608 4.65492 27.3119 4.56289C27.163 4.47086 26.9914 4.42212 26.8164 4.42211H17.5783V1.57876C17.5783 0.708229 16.8701 0 15.9996 0C15.129 0 14.4208 0.708229 14.4208 1.57876V4.42211H5.18272C5.00768 4.4221 4.83609 4.47084 4.68719 4.56287C4.5383 4.6549 4.41797 4.78658 4.33971 4.94315L0.273438 13.0756H2.38103L5.18272 7.47232Z" fill="white"></path>
</svg>
