<svg width="56" height="56" viewBox="0 0 56 56" fill="none" xmlns="http://www.w3.org/2000/svg">
<g clip-path="url(#clip0_143_84)">
<path d="M55.5053 28.6077L48.814 31.9217C48.5725 31.6781 48.292 31.4756 47.9843 31.3226L45.3884 30.0388L29.4 22.1242C28.9654 21.9088 28.4861 21.7966 28.0001 21.7966C27.514 21.7966 27.0347 21.9088 26.6001 22.1242L15.1341 27.802L7.31128 23.9579C7.56154 24.0801 7.83721 24.1427 8.11623 24.1408C8.39528 24.1389 8.67007 24.0726 8.91868 23.9471L26.6001 15.192C27.0347 14.9765 27.514 14.8644 28.0001 14.8644C28.4861 14.8644 28.9654 14.9765 29.4 15.192L49.7103 25.2489L50.3657 25.5734L54.2697 27.5062C54.7743 27.756 55.2013 28.1366 55.5053 28.6077Z" fill="#FF5D64"/>
<path d="M48.6599 44.7682L40.8973 48.6151L36.0367 46.2071L29.3997 42.9206C28.9651 42.7052 28.4858 42.593 27.9997 42.593C27.5137 42.593 27.0344 42.7052 26.5997 42.9206L10.9888 50.6499L6.97963 52.635L0.286133 49.3041C0.462259 49.0305 0.710124 48.8094 1.00324 48.6648L4.81279 46.778L6.2895 46.0468L26.5997 35.9894C27.0344 35.774 27.5137 35.6617 27.9997 35.6617C28.4858 35.6617 28.9651 35.774 29.3997 35.9894L40.8382 41.6533L47.0838 44.7446C47.3271 44.8671 47.5958 44.933 47.8692 44.937C48.1422 44.9411 48.4128 44.8834 48.6599 44.7682Z" fill="#FF5D64"/>
<path d="M55.7129 14.6406L48.9996 17.965L29.3997 8.25986C28.9651 8.0444 28.4858 7.93226 27.9997 7.93226C27.5137 7.93226 27.0344 8.0444 26.5997 8.25986L11.2279 15.8714L7.29283 17.8202C7.20042 17.8659 7.11215 17.9193 7.0289 17.9799L0.495605 14.7449C0.799309 14.2738 1.22634 13.8931 1.73123 13.6434L4.78009 12.1317L6.28949 11.3845L26.5997 1.32762C27.0344 1.11217 27.5137 1 27.9997 1C28.4858 1 28.9651 1.11217 29.3997 1.32762L49.7099 11.3845L50.7561 11.9026L54.996 14.0024C55.2892 14.1468 55.5368 14.3674 55.7129 14.6406Z" fill="#FF5D64"/>
<path d="M55.9997 18.5232V30.2792C55.9997 29.6867 55.8282 29.1066 55.5054 28.6078C55.202 28.1367 54.7749 27.7561 54.2699 27.5063L50.3659 25.5736L49.7105 25.249L29.3997 15.1921C28.9651 14.9767 28.4858 14.8645 27.9998 14.8645V7.93225C28.4858 7.9323 28.9651 8.04444 29.3997 8.25985L48.9997 17.965L49.71 18.3168L53.3735 20.1304C53.6502 20.2674 53.9575 20.3321 54.2661 20.3183C54.5752 20.3045 54.8759 20.2127 55.139 20.0518C55.4021 19.8907 55.6191 19.6657 55.7699 19.3982C55.9203 19.1307 55.9997 18.8295 55.9997 18.5232Z" fill="#D9D9D9"/>
<path d="M49.71 34.097V43.1377C49.7115 43.4795 49.6137 43.8145 49.4286 44.103C49.2431 44.3914 48.9781 44.6212 48.6652 44.765L48.6601 44.7675C48.4129 44.8829 48.1423 44.9408 47.8694 44.9369C47.596 44.933 47.3273 44.8673 47.0839 44.7449L40.8382 41.6526L29.3997 35.9888C28.9651 35.7733 28.4858 35.6612 27.9998 35.6611V21.7966C28.4858 21.7967 28.9651 21.9089 29.3997 22.1242L45.384 30.0388L47.9798 31.3226C48.4994 31.5803 48.9368 31.976 49.2421 32.4658C49.548 32.9555 49.71 33.5198 49.71 34.0955V34.097Z" fill="#D9D9D9"/>
<path d="M15.1334 27.8019L8.71107 30.9819L6.28961 32.1809L4.53027 33.0539C2.44895 34.083 1.45211e-07 32.5841 1.45211e-07 30.2794V16.4149C-0.000182173 15.8224 0.17132 15.2424 0.494144 14.7435L7.02742 17.9785C6.79821 18.1459 6.61203 18.3644 6.48383 18.6162C6.35567 18.868 6.2891 19.1462 6.28961 19.4282V22.3417C6.28834 22.6792 6.38362 23.0101 6.5644 23.296C6.74517 23.582 7.00403 23.8115 7.31109 23.9578L15.1334 27.8019Z" fill="#C9494F"/>
<path d="M6.97974 52.6364L2.6242 54.7928C2.34755 54.9294 2.04025 54.9937 1.73147 54.9796C1.42269 54.9656 1.12265 54.8735 0.859795 54.7125C0.596945 54.5515 0.380001 54.3267 0.229532 54.0591C0.0790622 53.7916 5.44736e-05 53.4907 1.29117e-07 53.1846V50.2715C-0.000130731 49.9284 0.0992113 49.5923 0.286221 49.3036L6.97974 52.6364Z" fill="#C9494F"/>
<path d="M55.9999 15.6101V18.5237C55.9994 18.83 55.9205 19.1313 55.7697 19.3988C55.6194 19.6663 55.4019 19.8913 55.1388 20.0523C54.8757 20.2133 54.5755 20.3051 54.2664 20.3188C53.9577 20.3326 53.65 20.268 53.3733 20.131L49.7098 18.3173L48.9995 17.9656L55.7129 14.6411C55.9003 14.9302 55.9999 15.2665 55.9999 15.6101Z" fill="#C9494F"/>
<path d="M56 30.2793V51.076C56 53.3808 53.551 54.8796 51.4698 53.8488L49.7104 52.9762L40.8955 48.6112L48.6581 44.7646L48.6632 44.762C48.9766 44.6183 49.2416 44.3885 49.4267 44.1001C49.6118 43.8117 49.7095 43.4766 49.7081 43.1348V34.0971C49.7085 33.2839 49.3858 32.5032 48.8098 31.9235L55.5011 28.6094C55.8253 29.1073 55.9981 29.6868 56 30.2793Z" fill="#C9494F"/>
</g>
<defs>
<clipPath id="clip0_143_84">
<rect width="56" height="56" fill="white"/>
</clipPath>
</defs>
</svg>
