<svg width="56" height="56" viewBox="0 0 56 56" fill="none" xmlns="http://www.w3.org/2000/svg">
<g clip-path="url(#clip0_4014_1408)">
<path fill-rule="evenodd" clip-rule="evenodd" d="M56 28C56 43.4614 43.4614 56 28 56C12.5386 56 0 43.4614 0 28C0 12.5386 12.5386 0 28 0C43.4614 0 56 12.5386 56 28Z" fill="#29296E"/>
<path fill-rule="evenodd" clip-rule="evenodd" d="M41.1188 20.5259L40.4049 18.3394C40.271 17.8932 39.914 17.5585 39.4678 17.4024L37.2814 16.733C36.969 16.6438 36.969 16.2199 37.2814 16.1083L39.4678 15.3944C39.914 15.2605 40.2487 14.9036 40.4049 14.4573L41.0742 12.2709C41.1635 11.9585 41.5874 11.9585 41.6989 12.2709L42.4129 14.4573C42.5467 14.9036 42.9037 15.2382 43.3499 15.3944L45.5364 16.0637C45.8487 16.153 45.8487 16.5769 45.5364 16.6884L43.3499 17.4024C42.9037 17.5362 42.569 17.8932 42.4129 18.3394L41.7435 20.5259C41.632 20.8159 41.2081 20.8159 41.1188 20.5259Z" fill="#FAFAFA"/>
<path fill-rule="evenodd" clip-rule="evenodd" d="M2.45422 27.5539C3.12355 26.2376 4.43988 25.2336 5.82315 24.6089C7.20642 23.9842 8.72355 23.6049 10.2184 23.4934C13.2303 23.2256 16.1753 23.7165 18.8526 24.6089C20.2359 25.0328 21.463 25.5906 22.7347 26.1707C23.3594 26.4607 23.9395 26.8177 24.5419 27.1523L26.1929 28.1117C28.0224 29.2272 29.7849 30.2312 31.4359 31.0121C33.1092 31.7707 34.604 32.3061 36.0096 32.5739C37.4152 32.8416 38.8654 32.8416 40.6279 32.44C42.3905 32.0384 44.3538 31.1683 46.4287 30.075C48.5036 28.9595 50.6455 27.5986 53.0773 26.2822C52.8319 29.0488 52.051 31.6591 50.8463 34.1802C49.5969 36.6567 47.8566 39.0886 45.3355 41.0519C42.859 43.0376 39.4455 44.3986 35.9873 44.6217C32.5068 44.8671 29.2271 44.0862 26.416 42.926C23.6048 41.7436 21.1506 40.2041 19.0088 38.5085C18.4064 38.04 18.0941 37.7723 17.6478 37.393L16.4208 36.2997C15.5953 35.6527 14.7921 34.8719 13.9666 34.2248C12.3379 32.797 10.7092 31.4137 8.92434 30.2312C8.03191 29.6288 7.11717 29.0488 6.06857 28.5579C5.55542 28.3125 4.99765 28.0894 4.39526 27.9109C3.79287 27.7101 3.19048 27.5986 2.45422 27.5539Z" fill="#FF4F0A"/>
<path fill-rule="evenodd" clip-rule="evenodd" d="M2.45422 27.5984C2.78888 24.7649 4.10522 22.1099 6.22474 19.8565C8.32195 17.6255 11.6239 15.8852 15.2606 15.6621C17.0678 15.5506 18.8973 15.7514 20.5706 16.1976C22.2439 16.6661 23.8056 17.3354 25.2335 18.1386C25.9475 18.5402 26.5945 18.9864 27.2638 19.4103L29.0263 20.749L31.7706 22.9131C33.5554 24.3187 35.251 25.635 36.8128 26.7282C38.3969 27.8215 39.7355 28.6023 41.0295 29.0709C42.3012 29.584 43.9076 29.6956 46.0494 29.1601C47.098 28.9147 48.2136 28.4685 49.3961 27.9776C50.5562 27.4868 51.7833 26.8844 53.122 26.3043C52.9658 27.7322 52.6757 29.1378 52.118 30.4765C51.5825 31.8151 50.8909 33.1314 49.9315 34.3585C49.4407 34.9609 48.9052 35.5633 48.2805 36.0988C47.6558 36.6342 46.9642 37.1474 46.2056 37.5936C44.6885 38.4637 42.8813 39.1107 41.0295 39.3561C39.1777 39.5792 37.3259 39.4677 35.6303 39.1107C33.9347 38.7537 32.3953 38.196 30.9674 37.549C28.1339 36.2326 25.769 34.5816 23.6718 32.8191C22.6231 31.949 21.6415 31.0342 20.7044 30.0972L19.6112 28.9816C19.2765 28.6693 18.9419 28.3346 18.6072 28.0446C17.2686 26.8621 16.0192 25.9474 14.6582 25.3896C13.2973 24.7872 11.557 24.5641 9.41518 24.9657C7.27335 25.3896 4.95303 26.3043 2.45422 27.5984Z" fill="#FAFAFA"/>
<path fill-rule="evenodd" clip-rule="evenodd" d="M13.8326 42.1672C13.8326 43.0373 13.141 43.729 12.2709 43.729C11.4007 43.729 10.7091 43.0373 10.7091 42.1672C10.7091 41.2971 11.4007 40.6055 12.2709 40.6055C13.141 40.6055 13.8326 41.2971 13.8326 42.1672Z" fill="#FAFAFA"/>
<path fill-rule="evenodd" clip-rule="evenodd" d="M13.8326 42.1672C13.8326 43.0373 13.141 43.729 12.2709 43.729C11.4007 43.729 10.7091 43.0373 10.7091 42.1672C10.7091 41.2971 11.4007 40.6055 12.2709 40.6055C13.141 40.6055 13.8326 41.2971 13.8326 42.1672Z" fill="#FAFAFA"/>
</g>
<defs>
<clipPath id="clip0_4014_1408">
<rect width="56" height="56" fill="white"/>
</clipPath>
</defs>
</svg>
