<svg width="56" height="56" viewBox="0 0 56 56" fill="none" xmlns="http://www.w3.org/2000/svg">
<rect width="56" height="56" fill="#635BFF"/>
<path fill-rule="evenodd" clip-rule="evenodd" d="M50.9999 28.5475C50.9999 25.3897 49.4499 22.8979 46.4874 22.8979C43.5124 22.8979 41.7124 25.3897 41.7124 28.5228C41.7124 32.2357 43.8374 34.1107 46.8874 34.1107C48.3749 34.1107 49.4999 33.7777 50.3499 33.3089V30.8419C49.4999 31.2613 48.5249 31.5203 47.2874 31.5203C46.0749 31.5203 44.9999 31.1009 44.8624 29.6453H50.9749C50.9749 29.485 50.9999 28.8436 50.9999 28.5475ZM44.8249 27.3757C44.8249 25.9818 45.6874 25.402 46.4749 25.402C47.2374 25.402 48.0499 25.9818 48.0499 27.3757H44.8249Z" fill="white"/>
<path fill-rule="evenodd" clip-rule="evenodd" d="M36.8875 22.8979C35.6625 22.8979 34.875 23.4654 34.4375 23.8601L34.275 23.0953H31.525V37.4782L34.65 36.8245L34.6625 33.3336C35.1125 33.6543 35.775 34.1107 36.875 34.1107C39.1125 34.1107 41.15 32.3344 41.15 28.4242C41.1375 24.8469 39.075 22.8979 36.8875 22.8979ZM36.1375 31.397C35.4 31.397 34.9625 31.1379 34.6625 30.8172L34.65 26.2408C34.975 25.8831 35.425 25.6364 36.1375 25.6364C37.275 25.6364 38.0625 26.8946 38.0625 28.5105C38.0625 30.1634 37.2875 31.397 36.1375 31.397Z" fill="white"/>
<path fill-rule="evenodd" clip-rule="evenodd" d="M27.225 22.1702L30.3625 21.5041V19L27.225 19.6538V22.1702Z" fill="white"/>
<path d="M30.3625 23.1074H27.225V33.9008H30.3625V23.1074Z" fill="white"/>
<path fill-rule="evenodd" clip-rule="evenodd" d="M23.8625 24.0203L23.6625 23.1075H20.9625V33.9008H24.0875V26.586C24.825 25.6362 26.075 25.8089 26.4625 25.9446V23.1075C26.0625 22.9595 24.6 22.6881 23.8625 24.0203Z" fill="white"/>
<path fill-rule="evenodd" clip-rule="evenodd" d="M17.6125 20.4312L14.5625 21.0726L14.55 30.9531C14.55 32.7788 15.9375 34.1233 17.7875 34.1233C18.8125 34.1233 19.5625 33.9383 19.975 33.7162V31.2122C19.575 31.3725 17.6 31.94 17.6 30.1143V25.7353H19.975V23.1079H17.6L17.6125 20.4312Z" fill="white"/>
<path fill-rule="evenodd" clip-rule="evenodd" d="M9.1625 26.2408C9.1625 25.7597 9.5625 25.5747 10.225 25.5747C11.175 25.5747 12.375 25.8584 13.325 26.3642V23.4654C12.2875 23.0583 11.2625 22.8979 10.225 22.8979C7.6875 22.8979 6 24.2055 6 26.3888C6 29.7934 10.75 29.2506 10.75 30.7185C10.75 31.2859 10.25 31.471 9.55 31.471C8.5125 31.471 7.1875 31.0516 6.1375 30.4841V33.4199C7.3 33.9133 8.475 34.123 9.55 34.123C12.15 34.123 13.9375 32.8525 13.9375 30.6445C13.925 26.9686 9.1625 27.6224 9.1625 26.2408Z" fill="white"/>
</svg>
