<?xml version="1.0" encoding="UTF-8"?>
<svg xmlns="http://www.w3.org/2000/svg" width="23" height="29" viewBox="0 0 23 29" fill="none">
  <path d="M22.085 23.5454C21.4406 21.6273 18.8719 20.4267 17.0406 19.6219C16.3231 19.3076 14.3369 18.7745 14.0982 17.8711C14.0127 17.5457 14.0242 17.2388 14.0943 16.9447C13.9829 16.9666 13.8696 16.9779 13.7561 16.9783H12.5628C12.1049 16.9778 11.666 16.7957 11.3423 16.4719C11.0185 16.1481 10.8365 15.7092 10.8361 15.2513C10.8361 14.2999 11.6105 13.5265 12.5628 13.5265H13.7561C14.1503 13.5265 14.5241 13.6599 14.8255 13.898C15.2544 13.8415 15.6778 13.7488 16.0911 13.6209C16.613 12.5275 17.0201 11.2199 17.1113 10.0945C17.5007 5.27915 14.5487 2.46187 10.3161 2.94891C7.23864 3.30315 5.40023 5.59787 5.20151 8.55211C5.00055 11.5633 6.11704 13.7873 7.30296 15.4187C7.82232 16.1319 8.36791 16.5905 8.28407 17.45C8.18679 18.4663 7.10008 18.7495 6.3228 19.0619C5.40184 19.4318 4.40983 19.9931 3.94135 20.2526C2.32759 21.1438 0.556395 22.2171 0.158315 23.6852C-0.723285 26.939 2.254 27.9246 4.71192 28.3796C6.82136 28.7687 9.19991 28.7995 11.1564 28.7995C14.6953 28.7995 21.0588 28.6577 22.085 25.9975C22.3769 25.2427 22.2518 24.0398 22.085 23.5454Z" fill="white"></path>
  <path d="M14.5126 14.7658C14.4309 14.64 14.3191 14.5365 14.1873 14.4649C14.0556 14.3932 13.908 14.3555 13.758 14.3552H12.5647C12.4447 14.352 12.3252 14.3729 12.2133 14.4166C12.1015 14.4603 11.9995 14.526 11.9134 14.6098C11.8274 14.6936 11.759 14.7938 11.7123 14.9044C11.6656 15.0151 11.6415 15.134 11.6415 15.2541C11.6415 15.3742 11.6656 15.4931 11.7123 15.6037C11.759 15.7144 11.8274 15.8145 11.9134 15.8983C11.9995 15.9821 12.1015 16.0478 12.2133 16.0916C12.3252 16.1353 12.4447 16.1562 12.5647 16.153H13.758C13.9222 16.1528 14.0831 16.1074 14.2231 16.0216C14.3631 15.9358 14.4766 15.8131 14.5513 15.6669C16.215 15.536 17.662 15.0278 18.6777 14.2774C18.911 14.4278 19.1868 14.5158 19.4844 14.5158H19.5593C19.7564 14.5159 19.9517 14.4771 20.1338 14.4016C20.3159 14.3261 20.4814 14.2155 20.6207 14.076C20.76 13.9365 20.8705 13.7709 20.9458 13.5887C21.0211 13.4065 21.0597 13.2112 21.0594 13.0141V10.0163C21.0595 9.73318 20.9792 9.45584 20.8278 9.21656C20.6765 8.97727 20.4603 8.78588 20.2044 8.66464C19.9842 3.85088 15.9993 0 11.1314 0C6.26361 0 2.27801 3.85088 2.05881 8.66464C1.80275 8.7857 1.58636 8.97703 1.43487 9.21634C1.28337 9.45565 1.203 9.73309 1.20313 10.0163V13.0141C1.20287 13.2111 1.24145 13.4063 1.31665 13.5884C1.39185 13.7705 1.5022 13.9361 1.6414 14.0755C1.7806 14.215 1.94591 14.3257 2.12789 14.4012C2.30988 14.4768 2.50496 14.5157 2.70201 14.5158H2.77785C2.97496 14.5158 3.17013 14.4769 3.3522 14.4014C3.53428 14.3259 3.69969 14.2152 3.83898 14.0758C3.97827 13.9363 4.08871 13.7708 4.16398 13.5886C4.23926 13.4064 4.2779 13.2112 4.27769 13.0141V10.0163C4.27754 9.73714 4.19931 9.46356 4.05183 9.22651C3.90435 8.98946 3.69351 8.79838 3.44313 8.67488C3.65721 4.61888 7.02297 1.38592 11.1314 1.38592C15.2383 1.38592 18.6057 4.61888 18.8188 8.67488C18.5687 8.79861 18.3581 8.98976 18.2108 9.22678C18.0635 9.4638 17.9854 9.73726 17.9852 10.0163V13.0141C17.9852 13.2131 18.0239 13.3984 18.0921 13.5715C17.2178 14.1971 15.9452 14.6429 14.5126 14.7658Z" fill="white"></path>
</svg>
