<?xml version="1.0" encoding="UTF-8"?>
<svg xmlns="http://www.w3.org/2000/svg" width="32" height="32" viewBox="0 0 32 32" fill="none">
  <path d="M26.9522 25.146C26.3077 23.2279 23.7391 22.0273 21.9077 21.2225C21.1903 20.9082 19.2041 20.3751 18.9653 19.4717C18.8799 19.1463 18.8914 18.8394 18.9615 18.5453C18.8501 18.5672 18.7368 18.5785 18.6233 18.5789H17.43C16.9721 18.5784 16.5332 18.3963 16.2095 18.0725C15.8857 17.7487 15.7037 17.3097 15.7033 16.8519C15.7033 15.9005 16.4777 15.1271 17.43 15.1271H18.6233C19.0175 15.1271 19.3913 15.2605 19.6927 15.4986C20.1216 15.4421 20.545 15.3494 20.9583 15.2215C21.4802 14.1281 21.8873 12.8205 21.9785 11.6951C22.3679 6.87973 19.4159 4.06245 15.1833 4.54949C12.1058 4.90373 10.2674 7.19845 10.0687 10.1527C9.86774 13.1639 10.9842 15.3879 12.1701 17.0193C12.6895 17.7325 13.2351 18.1911 13.1513 19.0506C13.054 20.0669 11.9673 20.3501 11.19 20.6625C10.269 21.0324 9.27702 21.5937 8.80854 21.8532C7.19478 22.7444 5.42358 23.8176 5.0255 25.2858C4.1439 28.5396 7.12118 29.5252 9.5791 29.9802C11.6885 30.3693 14.0671 30.4001 16.0236 30.4001C19.5625 30.4001 25.926 30.2583 26.9522 27.5981C27.2441 26.8433 27.1189 25.6404 26.9522 25.146Z" fill="white"></path>
  <path d="M19.3798 16.3659C19.298 16.2401 19.1863 16.1366 19.0545 16.065C18.9227 15.9933 18.7752 15.9556 18.6252 15.9553H17.4319C17.3119 15.9521 17.1924 15.973 17.0805 16.0167C16.9686 16.0604 16.8667 16.1261 16.7806 16.2099C16.6946 16.2937 16.6262 16.3939 16.5795 16.5045C16.5328 16.6152 16.5087 16.7341 16.5087 16.8542C16.5087 16.9743 16.5328 17.0932 16.5795 17.2038C16.6262 17.3145 16.6946 17.4146 16.7806 17.4984C16.8667 17.5822 16.9686 17.6479 17.0805 17.6916C17.1924 17.7354 17.3119 17.7563 17.4319 17.7531H18.6252C18.7894 17.7529 18.9503 17.7075 19.0903 17.6217C19.2302 17.5359 19.3438 17.4132 19.4185 17.267C21.0822 17.1361 22.5292 16.6279 23.5449 15.8775C23.7782 16.0279 24.054 16.1159 24.3516 16.1159H24.4265C24.6236 16.116 24.8188 16.0772 25.001 16.0017C25.1831 15.9262 25.3486 15.8156 25.4879 15.6761C25.6272 15.5366 25.7377 15.371 25.813 15.1888C25.8883 15.0066 25.9269 14.8113 25.9266 14.6142V11.6164C25.9267 11.3333 25.8464 11.0559 25.695 10.8167C25.5436 10.5774 25.3275 10.386 25.0716 10.2647C24.8514 5.45098 20.8665 1.6001 15.9986 1.6001C11.1308 1.6001 7.14519 5.45098 6.92599 10.2647C6.66993 10.3858 6.45355 10.5771 6.30205 10.8164C6.15056 11.0557 6.07019 11.3332 6.07031 11.6164V14.6142C6.07006 14.8112 6.10864 15.0064 6.18384 15.1885C6.25904 15.3706 6.36939 15.5362 6.50859 15.6756C6.64778 15.8151 6.8131 15.9258 6.99508 16.0013C7.17706 16.0769 7.37215 16.1158 7.56919 16.1159H7.64503C7.84215 16.1159 8.03732 16.077 8.21939 16.0015C8.40147 15.926 8.56688 15.8153 8.70617 15.6759C8.84546 15.5364 8.95589 15.3709 9.03117 15.1887C9.10645 15.0065 9.14508 14.8113 9.14487 14.6142V11.6164C9.14473 11.3372 9.06649 11.0637 8.91901 10.8266C8.77154 10.5896 8.56069 10.3985 8.31031 10.275C8.52439 6.21898 11.8902 2.98602 15.9986 2.98602C20.1055 2.98602 23.4729 6.21898 23.686 10.275C23.4359 10.3987 23.2253 10.5899 23.078 10.8269C22.9307 11.0639 22.8526 11.3374 22.8524 11.6164V14.6142C22.8524 14.8132 22.8911 14.9985 22.9593 15.1716C22.085 15.7972 20.8124 16.243 19.3798 16.3659Z" fill="white"></path>
</svg>
