<?xml version="1.0" encoding="UTF-8"?>
<svg xmlns="http://www.w3.org/2000/svg" width="20" height="20" viewBox="0 0 20 20" fill="none">
  <g clip-path="url(#clip0_2348_3508)">
    <path d="M15.1052 11.8911C13.715 11.8911 12.5841 13.022 12.5841 14.4121C12.5841 15.8023 13.715 16.9332 15.1052 16.9332C16.4955 16.9332 17.6262 15.8023 17.6262 14.4121C17.6262 13.022 16.4953 11.8911 15.1052 11.8911ZM15.1052 15.6727C14.41 15.6727 13.8446 15.1073 13.8446 14.4121C13.8446 13.717 14.41 13.1516 15.1052 13.1516C15.8003 13.1516 16.3657 13.717 16.3657 14.4121C16.3657 15.1073 15.8003 15.6727 15.1052 15.6727ZM6.49172 11.8911C5.1016 11.8911 3.9707 13.022 3.9707 14.4121C3.9707 15.8023 5.1016 16.9332 6.49172 16.9332C7.88184 16.9332 9.01273 15.8023 9.01273 14.4121C9.01273 13.022 7.88184 11.8911 6.49172 11.8911ZM6.49172 15.6727C5.79656 15.6727 5.23121 15.1073 5.23121 14.4121C5.23121 13.717 5.79656 13.1516 6.49172 13.1516C7.18668 13.1516 7.75223 13.717 7.75223 14.4121C7.75223 15.1073 7.18687 15.6727 6.49172 15.6727ZM16.8029 4.6752C16.7503 4.57085 16.6699 4.48315 16.5704 4.42186C16.4709 4.36058 16.3564 4.32813 16.2396 4.32812H12.9203V5.58863H15.8509L17.5671 9.00207L18.6936 8.43566L16.8029 4.6752Z" fill="white"></path>
    <path d="M8.44539 13.8027H13.2143V15.0632H8.44539V13.8027ZM4.60082 13.8027H2.41598C2.06785 13.8027 1.78574 14.0848 1.78574 14.4329C1.78574 14.7811 2.06789 15.0632 2.41598 15.0632H4.60086C4.94898 15.0632 5.23109 14.781 5.23109 14.4329C5.23109 14.0848 4.94895 13.8027 4.60082 13.8027ZM19.8677 9.94973L18.628 8.35309C18.5691 8.27718 18.4937 8.21575 18.4074 8.17351C18.3211 8.13126 18.2263 8.10932 18.1303 8.10937H13.5504V3.69762C13.5504 3.34949 13.2683 3.06738 12.9202 3.06738H2.41598C2.06785 3.06738 1.78574 3.34953 1.78574 3.69762C1.78574 4.0457 2.06789 4.32785 2.41598 4.32785H12.2899V8.73961C12.2899 9.08773 12.5721 9.36984 12.9202 9.36984H17.8216L18.7395 10.5522V13.8026H16.9958C16.6477 13.8026 16.3655 14.0848 16.3655 14.4329C16.3655 14.781 16.6477 15.0631 16.9958 15.0631H19.3697C19.7179 15.0631 20 14.7809 20 14.4329V10.3363C20 10.1964 19.9534 10.0602 19.8677 9.94973ZM4.55883 10.6094H1.65965C1.31152 10.6094 1.02941 10.8916 1.02941 11.2396C1.02941 11.5878 1.31156 11.8699 1.65965 11.8699H4.55879C4.90691 11.8699 5.18902 11.5877 5.18902 11.2396C5.18906 10.8916 4.90691 10.6094 4.55883 10.6094ZM6.0084 8.13039H0.630234C0.282148 8.13039 0 8.41254 0 8.76066C0 9.10879 0.282148 9.3909 0.630234 9.3909H6.0084C6.35652 9.3909 6.63863 9.10875 6.63863 8.76066C6.63863 8.41258 6.35652 8.13039 6.0084 8.13039Z" fill="white"></path>
    <path d="M7.0377 5.65137H1.65953C1.31141 5.65137 1.0293 5.93352 1.0293 6.2816C1.0293 6.62973 1.31145 6.91184 1.65953 6.91184H7.0377C7.38582 6.91184 7.66793 6.62969 7.66793 6.2816C7.66797 5.93352 7.38582 5.65137 7.0377 5.65137Z" fill="white"></path>
  </g>
  <defs>
    <clipPath id="clip0_2348_3508">
      <rect width="20" height="20" fill="white"></rect>
    </clipPath>
  </defs>
</svg>
