<?xml version="1.0" encoding="UTF-8"?>
<svg xmlns="http://www.w3.org/2000/svg" width="56" height="56" viewBox="0 0 56 56" fill="none">
  <path d="M55.9961 15.5109C55.9928 14.9477 55.9866 14.3848 55.971 13.8209C55.9382 12.5944 55.8657 11.3567 55.6477 10.1433C55.4265 8.91102 55.0649 7.7652 54.495 6.64578C53.9356 5.54645 53.2042 4.54046 52.3319 3.66809C51.4597 2.79571 50.4537 2.06449 49.3539 1.50478C48.2354 0.93555 47.0894 0.57404 45.8582 0.352835C44.6442 0.134175 43.4065 0.0621374 42.179 0.0289472C41.6155 0.0136721 41.0525 0.00726037 40.4891 0.00377162C39.8204 0 39.1512 0 38.4827 0H23.6587H17.5174C16.8483 0 16.1798 0 15.5113 0.00386591C14.9477 0.00735466 14.3841 0.0137664 13.8213 0.0290415C13.5145 0.037339 13.207 0.0480881 12.8994 0.0628918C11.9764 0.107397 11.0521 0.188958 10.142 0.352929C9.21864 0.518881 8.34305 0.763659 7.49123 1.11583C7.20732 1.23313 6.92596 1.3625 6.6463 1.50478C5.82144 1.92456 5.0492 2.4408 4.34683 3.04068C4.11271 3.24067 3.88632 3.4499 3.66832 3.66799C2.79575 4.54037 2.06443 5.54635 1.50501 6.64569C0.935116 7.7651 0.573983 8.91092 0.352588 10.1432C0.134777 11.3566 0.062362 12.5943 0.0293603 13.8208C0.0138966 14.3847 0.0073906 14.9476 0.00371327 15.5108C-0.000529808 16.1797 3.59352e-05 16.8487 3.59352e-05 17.5174V26.6465V38.4823C3.59352e-05 39.1517 -0.000624099 39.82 0.00371327 40.4894C0.0073906 41.0526 0.0138966 41.6155 0.0293603 42.1784C0.062362 43.4056 0.134683 44.6435 0.352588 45.8564C0.573983 47.0883 0.935116 48.2351 1.50501 49.3543C2.06443 50.4539 2.79575 51.4596 3.66832 52.3316C4.54022 53.2043 5.54649 53.9355 6.64639 54.4956C7.76496 55.0649 8.91087 55.4259 10.1423 55.6471C11.3556 55.8655 12.5942 55.9381 13.8214 55.9709C14.3842 55.9859 14.9478 55.9926 15.5114 55.9958C16.1799 56.0006 16.8483 56 17.5175 56H38.4827C39.1512 56 39.8204 56.0006 40.489 55.9958C41.0524 55.9926 41.6154 55.9859 42.1789 55.9709C43.4064 55.9381 44.6441 55.8654 45.8582 55.6471C47.0893 55.4259 48.2353 55.0648 49.3538 54.4956C50.4536 53.9356 51.4596 53.2043 52.3318 52.3316C53.2041 51.4595 53.9356 50.4539 54.4949 49.3543C55.0648 48.2351 55.4264 47.0884 55.6476 45.8564C55.8656 44.6435 55.9381 43.4056 55.9709 42.1784C55.9864 41.6155 55.9926 41.0527 55.996 40.4894C56.0003 39.82 56 39.1517 56 38.4823V17.5174C56.0001 16.8487 56.0003 16.1797 55.9961 15.5109Z" fill="#F05138"></path>
  <path d="M44.3737 34.5675C44.3723 34.5658 44.3711 34.5646 44.3697 34.563C44.4317 34.3522 44.4956 34.1427 44.5498 33.9265C46.8741 24.6664 41.2015 13.7183 31.6022 7.95386C35.8088 13.6565 37.6688 20.5636 36.0162 26.604C35.8689 27.1428 35.6917 27.6599 35.4958 28.1625C35.2833 28.0228 35.0155 27.8643 34.6559 27.666C34.6559 27.666 25.1072 21.7703 14.7579 11.3423C14.4864 11.0686 20.2766 19.6182 26.8478 26.5607C23.7518 24.8232 15.1239 18.5456 9.66182 13.5464C10.3329 14.6655 11.1311 15.7432 12.0084 16.7807C16.5697 22.5653 22.5182 29.7026 29.6448 35.1833C24.6376 38.2475 17.5623 38.4858 10.5178 35.1865C8.7754 34.3699 7.13738 33.3847 5.62109 32.2652C8.60303 37.0349 13.1956 41.1501 18.7853 43.5526C25.4512 46.4172 32.0799 46.223 37.0169 43.5995L37.0131 43.6052C37.0356 43.5909 37.0643 43.5754 37.0877 43.561C37.2904 43.452 37.4916 43.341 37.6884 43.2238C40.0604 41.9925 44.7457 40.7434 47.2606 45.6365C47.8765 46.834 49.1852 40.4878 44.3737 34.5675Z" fill="white"></path>
</svg>
