<svg width="56" height="56" viewBox="0 0 56 56" fill="none" xmlns="http://www.w3.org/2000/svg">
<g clip-path="url(#clip0_4014_1210)">
<path fill-rule="evenodd" clip-rule="evenodd" d="M15.8927 0H40.1074C48.8486 0 56 7.15136 56 15.8927V40.1073C56 48.8485 48.8486 56 40.1074 56H15.8927C7.15137 56 0 48.8485 0 40.1073V15.8927C0 7.15136 7.15137 0 15.8927 0ZM23.5165 24.4107C23.139 24.2469 22.791 24.0654 22.4724 23.8671C22.0715 23.6178 21.7171 23.341 21.4087 23.0377C21.1031 22.7345 20.783 22.3428 20.4467 21.8607C20.1125 21.3818 19.7625 20.814 19.3958 20.1565L18.527 18.5854C18.002 17.648 17.4458 16.9453 16.8584 16.4787C16.2828 16.0214 15.6766 15.7924 15.0404 15.7924H14.6429C14.6029 15.7924 14.5645 15.7765 14.5361 15.7481C14.5078 15.7198 14.4919 15.6814 14.4919 15.6414V14.0116C14.4919 13.9282 14.5596 13.8605 14.6429 13.8605H15.7194C16.7115 13.8605 17.654 14.207 18.5478 14.9005C19.43 15.5849 20.2642 16.6082 21.0512 17.9706L22.2471 20.0544C22.6388 20.7305 23.0383 21.3042 23.4454 21.7749C23.8504 22.2432 24.2632 22.6096 24.6831 22.8732C25.1029 23.1389 25.5871 23.338 26.1367 23.47C26.6905 23.6033 27.314 23.6696 28.0083 23.6696C28.6947 23.6696 29.3144 23.6032 29.8669 23.47L29.8727 23.4688C30.4196 23.3365 30.9035 23.1379 31.3236 22.8732C31.7442 22.6092 32.1588 22.2421 32.5655 21.7731C32.9746 21.3014 33.3761 20.7261 33.7682 20.0484L34.9648 17.9636C35.7508 16.6043 36.5818 15.5834 37.4595 14.9005C38.3507 14.2071 39.2897 13.8605 40.2776 13.8605H41.3537C41.437 13.8605 41.5047 13.9282 41.5047 14.0116V15.6414C41.5047 15.7247 41.437 15.7924 41.3537 15.7924H40.9715C40.3295 15.7924 39.7194 16.0214 39.1414 16.4787C38.5511 16.946 37.9926 17.6505 37.4666 18.5912L36.5967 20.1639C36.2315 20.8183 35.883 21.3836 35.5502 21.8607C35.2138 22.3428 34.8937 22.7345 34.5884 23.0372C34.2795 23.341 33.9251 23.6177 33.5244 23.8671C33.2058 24.0654 32.8578 24.2469 32.4804 24.4107C33.2172 24.8415 33.8778 25.3244 34.4612 25.8601C35.1164 26.4616 35.6746 27.1298 36.1345 27.8656L36.1382 27.8716C36.5986 28.606 36.9438 29.3757 37.1738 30.1796C37.4054 30.9883 37.5207 31.8319 37.5207 32.7092C37.5207 33.9775 37.2836 35.1649 36.809 36.2704C36.335 37.3745 35.6252 38.3948 34.679 39.3306L34.6706 39.3383C33.7285 40.2707 32.703 40.9704 31.5943 41.4374C30.4807 41.9064 29.2852 42.1408 28.0083 42.1408C26.7282 42.1408 25.5303 41.9067 24.415 41.438C23.301 40.9698 22.2702 40.2673 21.3227 39.33C20.3752 38.3928 19.6638 37.3718 19.1891 36.2682C18.7138 35.1636 18.476 33.9767 18.476 32.7092C18.476 31.8319 18.5912 30.9883 18.8228 30.1796C19.0533 29.3735 19.3997 28.6018 19.8622 27.8657C20.322 27.1298 20.8803 26.4616 21.5355 25.8601C22.119 25.3244 22.7797 24.8415 23.5165 24.4107ZM28.0083 39.6658C28.9774 39.6658 29.8753 39.4971 30.7027 39.16C31.5303 38.8229 32.2888 38.3167 32.9785 37.642C33.6687 36.9667 34.1859 36.2234 34.5298 35.4124C34.8736 34.6019 35.0456 33.7208 35.0456 32.7693C35.0456 31.8028 34.8747 30.9087 34.5329 30.0881C34.1913 29.268 33.6779 28.5188 32.993 27.8416L32.9856 27.8337C32.3031 27.1603 31.5486 26.6554 30.7217 26.319C29.892 25.9813 28.9877 25.8128 28.0083 25.8128C27.0266 25.8128 26.1198 25.9813 25.2877 26.319C24.4552 26.6567 23.6955 27.1642 23.0083 27.8416C22.3219 28.5181 21.8075 29.2669 21.4651 30.087C21.1222 30.908 20.951 31.8025 20.951 32.7693C20.951 33.7204 21.123 34.6012 21.4668 35.4116L21.4698 35.4191C21.8139 36.2276 22.3303 36.9686 23.0184 37.642C23.7079 38.3167 24.4675 38.8228 25.2983 39.16C26.1286 39.4971 27.0317 39.6658 28.0083 39.6658Z" fill="black"/>
</g>
<defs>
<clipPath id="clip0_4014_1210">
<rect width="56" height="56" fill="white"/>
</clipPath>
</defs>
</svg>
