<svg width="24" height="17" viewBox="0 0 24 17" fill="none" xmlns="http://www.w3.org/2000/svg">
<path d="M23.4283 4.81965L12.371 0.0763239C12.2536 0.0259672 12.1272 0 11.9995 0C11.8718 0 11.7454 0.0259672 11.628 0.0763239L0.570751 4.81965C0.401154 4.89238 0.256651 5.01331 0.155185 5.16745C0.0537189 5.32158 -0.000242355 5.50212 8.18271e-07 5.68665C0.000323191 5.87119 0.0547798 6.05157 0.156624 6.20546C0.258467 6.35934 0.403222 6.47997 0.572954 6.55239L11.6303 11.2643C11.7471 11.314 11.8727 11.3396 11.9997 11.3396C12.1253 11.3396 12.2513 11.3145 12.3688 11.2643L23.4261 6.55234C23.5959 6.48006 23.7407 6.35947 23.8426 6.20555C23.9445 6.05164 23.9989 5.87118 23.999 5.6866C23.9992 5.50208 23.9453 5.32155 23.8438 5.16743C23.7423 5.01331 23.5979 4.89238 23.4283 4.81965ZM11.9997 9.37323L3.33947 5.68285L11.9997 1.96768L20.6599 5.68285L11.9997 9.37323Z" fill="#10011A"/>
<path d="M23.924 10.0281C23.7195 9.54965 23.1661 9.3269 22.6876 9.5308L11.9997 14.0853L1.31219 9.5308C0.833132 9.32662 0.279679 9.54965 0.0757723 10.0281C-0.128415 10.5071 0.0942879 11.0606 0.573022 11.2645L11.6303 15.9764C11.7471 16.0261 11.8728 16.0517 11.9997 16.0517C12.1267 16.0517 12.2523 16.0261 12.3692 15.9764L23.4265 11.2644C23.9052 11.0606 24.1279 10.5071 23.924 10.0281Z" fill="#10011A"/>
</svg>
