<?xml version="1.0" encoding="UTF-8"?>
<svg xmlns="http://www.w3.org/2000/svg" width="30" height="32" viewBox="0 0 30 32" fill="none">
  <path d="M15.908 15.7269V22.8691L22.0933 19.2981V12.1559L15.908 15.7269ZM8.78516 10.5321L14.9705 14.1032L21.1558 10.5321L14.9705 6.96094L8.78516 10.5321ZM14.033 15.7269L7.84766 12.1559V19.2981L14.033 22.8691V15.7269Z" fill="#0088E0"></path>
  <path d="M27.2033 5.37213C26.5291 5.37213 25.9116 5.61756 25.434 6.02313L15.0017 0L4.53175 6.04481C4.05088 5.62638 3.4235 5.37213 2.7375 5.37213C1.228 5.37213 0 6.60012 0 8.10962C0 9.31256 0.780312 10.3361 1.86112 10.7024V22.76L12.225 28.7436C12.1919 28.9145 12.1752 29.0883 12.1751 29.2624C12.1751 30.7719 13.4031 31.9999 14.9126 31.9999C16.422 31.9999 17.65 30.7719 17.65 29.2624C17.65 29.1177 17.6385 28.9756 17.6168 28.8368L28.1422 22.7599V10.6812C29.1906 10.2972 29.9408 9.28938 29.9408 8.10962C29.9408 6.60019 28.7127 5.37213 27.2033 5.37213ZM26.2643 21.6759L16.7041 27.1954C16.2236 26.7784 15.5972 26.5251 14.9125 26.5251C14.2618 26.5251 13.6636 26.7537 13.1933 27.1343L3.73906 21.6759V10.6565C4.75438 10.2558 5.47494 9.26562 5.47494 8.10962C5.47494 7.96606 5.46369 7.82513 5.44231 7.6875L15.0017 2.16838L24.5042 7.65469C24.4788 7.805 24.4659 7.95717 24.4657 8.10962C24.4657 9.28938 25.2159 10.2972 26.2643 10.6812V21.6759Z" fill="#0088E0"></path>
</svg>
