<svg width="21" height="21" viewBox="0 0 21 21" fill="none" xmlns="http://www.w3.org/2000/svg">
<path d="M12.3586 16.2334H12.0747L11.3674 14.7088H7.21784L6.51056 16.2334H4.90364C4.82009 16.2334 4.73997 16.2666 4.6809 16.3256C4.62182 16.3847 4.58864 16.4648 4.58864 16.5484C4.58864 16.6319 4.62182 16.712 4.6809 16.7711C4.73997 16.8302 4.82009 16.8634 4.90364 16.8634H12.367L12.3586 16.8453V16.2334ZM12.3586 11.7394H0.577637V12.8566C0.577637 13.5328 1.12364 14.0788 1.79984 14.0788H12.3586V11.7394ZM9.96884 13.0666H8.61644C8.44004 13.0666 8.30144 12.928 8.30144 12.7516C8.30144 12.5794 8.44004 12.4366 8.61644 12.4366H9.96884C10.0524 12.4366 10.1325 12.4698 10.1916 12.5288C10.2506 12.5879 10.2838 12.668 10.2838 12.7516C10.2838 12.8351 10.2506 12.9152 10.1916 12.9743C10.1325 13.0334 10.0524 13.0666 9.96884 13.0666ZM19.1836 8.48438H14.2276C13.5472 8.48438 12.9886 9.04297 12.9886 9.72757V18.6232C12.9886 19.3036 13.5472 19.8622 14.2276 19.8622H19.1836C19.864 19.8622 20.4226 19.3036 20.4226 18.6232V9.72757C20.4226 9.04297 19.864 8.48438 19.1836 8.48438ZM16.2495 9.59527H17.1622C17.2457 9.59527 17.3258 9.62846 17.3849 9.68754C17.444 9.74661 17.4772 9.82673 17.4772 9.91027C17.4772 9.99382 17.444 10.0739 17.3849 10.133C17.3258 10.1921 17.2457 10.2253 17.1622 10.2253H16.2495C16.166 10.2253 16.0859 10.1921 16.0268 10.133C15.9677 10.0739 15.9345 9.99382 15.9345 9.91027C15.9345 9.82673 15.9677 9.74661 16.0268 9.68754C16.0859 9.62846 16.166 9.59527 16.2495 9.59527ZM16.9988 18.7513H16.4129C16.3294 18.7513 16.2492 18.7181 16.1902 18.659C16.1311 18.5999 16.0979 18.5198 16.0979 18.4363C16.0979 18.3527 16.1311 18.2726 16.1902 18.2135C16.2492 18.1545 16.3294 18.1213 16.4129 18.1213H16.9988C17.0823 18.1213 17.1625 18.1545 17.2215 18.2135C17.2806 18.2726 17.3138 18.3527 17.3138 18.4363C17.3138 18.5198 17.2806 18.5999 17.2215 18.659C17.1625 18.7181 17.0823 18.7513 16.9988 18.7513ZM19.4117 17.4493H13.9996V10.8973H19.4117V17.4493Z" fill="#10011A"/>
<path d="M18.0076 7.85447V2.36087C18.0076 1.68887 17.4616 1.13867 16.7854 1.13867H1.79984C1.12364 1.13867 0.577637 1.68887 0.577637 2.36087V11.1095H12.3586V9.72767C12.3586 8.69447 13.1986 7.85447 14.2276 7.85447H18.0076ZM2.08964 4.29707C1.96364 4.17527 1.96364 3.97367 2.08964 3.85187L3.18584 2.75147C3.31184 2.62967 3.50924 2.62967 3.63104 2.75147C3.75704 2.87327 3.75704 3.07487 3.63104 3.19667L2.53484 4.29707C2.50568 4.32643 2.471 4.34973 2.43279 4.36563C2.39459 4.38153 2.35362 4.38972 2.31224 4.38972C2.27086 4.38972 2.22988 4.38153 2.19168 4.36563C2.15348 4.34973 2.1188 4.32643 2.08964 4.29707ZM5.26484 3.72587L3.05984 5.93087C2.94056 6.05015 2.75072 6.05771 2.61464 5.93087C2.55616 5.87154 2.52337 5.79158 2.52337 5.70827C2.52337 5.62496 2.55616 5.545 2.61464 5.48567L4.81964 3.28067C4.94144 3.15887 5.14304 3.15887 5.26484 3.28067C5.38664 3.40247 5.38664 3.60407 5.26484 3.72587Z" fill="#10011A"/>
</svg>
