<svg width="24" height="24" viewBox="0 0 24 24" fill="none" xmlns="http://www.w3.org/2000/svg">
<path d="M20.31 14.85C20.2211 14.8 20.1283 14.7573 20.0325 14.7225V9.2625C20.1291 9.2361 20.2223 9.19833 20.31 9.15C20.6982 8.9256 20.9817 8.55652 21.0983 8.12357C21.215 7.69062 21.1554 7.22908 20.9325 6.84C20.7055 6.45457 20.3358 6.17399 19.9036 6.0589C19.4713 5.94382 19.0111 6.00348 18.6225 6.225C18.5341 6.27641 18.4511 6.33672 18.375 6.405L13.6575 3.6825C13.6653 3.58015 13.6653 3.47735 13.6575 3.375C13.6575 2.92745 13.4797 2.49822 13.1632 2.18176C12.8468 1.86529 12.4175 1.6875 11.97 1.6875C11.5224 1.6875 11.0932 1.86529 10.7768 2.18176C10.4603 2.49822 10.2825 2.92745 10.2825 3.375C10.2747 3.47735 10.2747 3.58015 10.2825 3.6825L5.625 6.405C5.54885 6.33672 5.46592 6.27641 5.3775 6.225C4.98887 6.00348 4.52868 5.94382 4.09641 6.0589C3.66414 6.17399 3.29453 6.45457 3.0675 6.84C2.84461 7.22908 2.78498 7.69062 2.90165 8.12357C3.01832 8.55652 3.30179 8.9256 3.69 9.15C3.77773 9.19833 3.87088 9.2361 3.9675 9.2625V14.7225C3.87166 14.7573 3.77884 14.8 3.69 14.85C3.30179 15.0744 3.01832 15.4435 2.90165 15.8764C2.78498 16.3094 2.84461 16.7709 3.0675 17.16C3.18093 17.3465 3.3301 17.5088 3.50643 17.6375C3.68276 17.7662 3.88278 17.8588 4.095 17.91C4.22497 17.9593 4.36137 17.9896 4.5 18C4.79725 17.9999 5.08935 17.9224 5.3475 17.775C5.43592 17.7236 5.51885 17.6633 5.595 17.595L10.3125 20.3175C10.3047 20.4199 10.3047 20.5226 10.3125 20.625C10.3125 21.0726 10.4903 21.5018 10.8068 21.8182C11.1232 22.1347 11.5524 22.3125 12 22.3125C12.4475 22.3125 12.8768 22.1347 13.1932 21.8182C13.5097 21.5018 13.6875 21.0726 13.6875 20.625C13.6953 20.5226 13.6953 20.4199 13.6875 20.3175L18.405 17.595C18.4811 17.6633 18.5641 17.7236 18.6525 17.775C18.9106 17.9224 19.2027 17.9999 19.5 18C19.6472 18.0022 19.7939 17.982 19.935 17.94C20.1472 17.8888 20.3472 17.7962 20.5236 17.6675C20.6999 17.5388 20.8491 17.3765 20.9625 17.19C21.0764 16.9943 21.1499 16.7777 21.1787 16.5531C21.2075 16.3285 21.191 16.1004 21.1302 15.8823C21.0693 15.6641 20.9654 15.4604 20.8246 15.2831C20.6837 15.1058 20.5087 14.9586 20.31 14.85ZM18.9075 14.73C18.5264 14.8575 18.2053 15.1202 18.0049 15.4685C17.8045 15.8168 17.7387 16.2265 17.82 16.62L13.0875 19.35C12.7873 19.0848 12.4006 18.9384 12 18.9384C11.5994 18.9384 11.2127 19.0848 10.9125 19.35L6.18 16.62C6.2613 16.2265 6.19552 15.8168 5.99512 15.4685C5.79471 15.1202 5.47358 14.8575 5.0925 14.73V9.2625C5.47414 9.13101 5.79434 8.86417 5.9925 8.5125C6.19203 8.16264 6.25861 7.75252 6.18 7.3575L10.9125 4.65C11.2127 4.91521 11.5994 5.06159 12 5.06159C12.4006 5.06159 12.7873 4.91521 13.0875 4.65L17.82 7.38C17.7391 7.77412 17.803 8.18418 18 8.535C18.1982 8.88667 18.5184 9.15351 18.9 9.285L18.9075 14.73ZM8.0625 10.3725L11.4375 12.3225V16.2225L8.34 14.4375C8.25563 14.3871 8.18575 14.3157 8.13713 14.2302C8.0885 14.1448 8.06279 14.0483 8.0625 13.95V10.3725ZM15.375 9.405L12 11.3475L8.625 9.405L11.715 7.6125C11.8023 7.56458 11.9004 7.53945 12 7.53945C12.0996 7.53945 12.1976 7.56458 12.285 7.6125L15.375 9.405ZM12.5625 12.3225L15.9375 10.3725V13.95C15.9372 14.0483 15.9115 14.1448 15.8629 14.2302C15.8142 14.3157 15.7444 14.3871 15.66 14.4375L12.5625 16.2225V12.3225Z" fill="#10011A"/>
</svg>
