<svg width="24" height="24" viewBox="0 0 24 24" fill="none" xmlns="http://www.w3.org/2000/svg">
<path d="M23.4287 6.42121L12.3714 1.67789C12.254 1.62753 12.1276 1.60156 11.9999 1.60156C11.8722 1.60156 11.7458 1.62753 11.6284 1.67789L0.571146 6.42121C0.401549 6.49394 0.257047 6.61488 0.155581 6.76901C0.0541145 6.92314 0.000153182 7.10368 0.000396355 7.28821C0.000718728 7.47275 0.0551753 7.65313 0.157019 7.80702C0.258863 7.96091 0.403618 8.08153 0.57335 8.15395L11.6306 12.8658C11.7475 12.9156 11.8731 12.9412 12.0001 12.9412C12.1257 12.9412 12.2517 12.9161 12.3692 12.8658L23.4265 8.1539C23.5963 8.08162 23.7411 7.96103 23.843 7.80712C23.9449 7.6532 23.9993 7.47274 23.9994 7.28817C23.9996 7.10364 23.9457 6.92312 23.8442 6.76899C23.7427 6.61487 23.5983 6.49394 23.4287 6.42121ZM12.0001 10.9748L3.33987 7.28442L12.0001 3.56925L20.6603 7.28442L12.0001 10.9748ZM23.9234 16.3395C23.7183 15.8611 23.1633 15.6396 22.6861 15.8451L12.0001 20.4291L1.31407 15.8451C0.835006 15.639 0.281834 15.8614 0.0767089 16.3395C-0.128744 16.8176 0.0927401 17.3717 0.571146 17.5769L11.6284 22.3205C11.7459 22.3708 11.8723 22.3968 12.0001 22.3968C12.1278 22.3968 12.2543 22.3708 12.3717 22.3205L23.429 17.5769C23.9071 17.3717 24.1286 16.8176 23.9234 16.3395Z" fill="#10011A"/>
<path d="M23.9245 11.6296C23.72 11.1512 23.1666 10.9285 22.6881 11.1324L12.0002 15.6869L1.31268 11.1324C0.83362 10.9282 0.280167 11.1512 0.0762605 11.6296C-0.127927 12.1087 0.0947762 12.6622 0.573511 12.866L11.6308 17.5779C11.7476 17.6276 11.8733 17.6533 12.0002 17.6533C12.1272 17.6533 12.2528 17.6276 12.3697 17.5779L23.4269 12.866C23.9057 12.6621 24.1284 12.1086 23.9245 11.6296Z" fill="#10011A"/>
</svg>
