<svg width="24" height="24" viewBox="0 0 24 24" fill="none" xmlns="http://www.w3.org/2000/svg">
<path d="M16.0454 20.7601C15.8561 21.0676 15.5283 21.2501 15.1633 21.2501H9.11374C8.74874 21.2501 8.42092 21.0676 8.23166 20.7601C8.04916 20.4594 8.03226 20.0945 8.19448 19.7802L8.8231 18.5469H15.4539L16.0825 19.7802C16.2448 20.0945 16.2279 20.4594 16.0454 20.7601Z" fill="#10011A"/>
<path d="M11.8006 4.68945H4.36538C3.99208 4.68945 3.68945 4.99202 3.68945 5.36526V8.7443C3.68945 9.11754 3.99208 9.42011 4.36538 9.42011H11.8006C12.1739 9.42011 12.4765 9.11754 12.4765 8.7443V5.36526C12.4765 4.99202 12.1739 4.68945 11.8006 4.68945Z" fill="#10011A"/>
<path d="M7.06908 10.0977H4.36538C3.99208 10.0977 3.68945 10.4002 3.68945 10.7735V13.4767C3.68945 13.8499 3.99208 14.1525 4.36538 14.1525H7.06908C7.44239 14.1525 7.74501 13.8499 7.74501 13.4767V10.7735C7.74501 10.4002 7.44239 10.0977 7.06908 10.0977Z" fill="#10011A"/>
<path d="M11.7996 10.0977H9.09585C8.72254 10.0977 8.41992 10.4002 8.41992 10.7735V13.4767C8.41992 13.8499 8.72254 14.1525 9.09585 14.1525H11.7996C12.1729 14.1525 12.4755 13.8499 12.4755 13.4767V10.7735C12.4755 10.4002 12.1729 10.0977 11.7996 10.0977Z" fill="#10011A"/>
<path d="M20.2502 14.1525H15.1807C14.9949 14.1525 14.8428 14.0004 14.8428 13.8146C14.8428 13.6288 14.9949 13.4767 15.1807 13.4767H20.2502C20.4361 13.4767 20.5881 13.6288 20.5881 13.8146C20.5881 14.0004 20.4361 14.1525 20.2502 14.1525ZM20.2502 12.463H15.1807C14.9949 12.463 14.8428 12.3109 14.8428 12.1251C14.8428 11.9392 14.9949 11.7872 15.1807 11.7872H20.2502C20.4361 11.7872 20.5881 11.9392 20.5881 12.1251C20.5881 12.3109 20.4361 12.463 20.2502 12.463ZM20.2502 10.7735H15.1807C14.9949 10.7735 14.8428 10.6214 14.8428 10.4356C14.8428 10.2497 14.9949 10.0977 15.1807 10.0977H20.2502C20.4361 10.0977 20.5881 10.2497 20.5881 10.4356C20.5881 10.6214 20.4361 10.7735 20.2502 10.7735Z" fill="#10011A"/>
<path d="M20.588 3H3.68981C2.75704 3 2 3.7569 2 4.68952V16.1782C2 17.1109 2.75704 17.8678 3.68981 17.8678H20.588C21.5207 17.8678 22.2778 17.1109 22.2778 16.1782V4.68952C22.2778 3.7569 21.5207 3 20.588 3ZM2.67593 15.1645V4.68952C2.67593 4.13198 3.13218 3.67581 3.68981 3.67581H13.1528V15.1645H2.67593ZM21.6019 15.1645H13.8287V3.67581H20.588C21.1456 3.67581 21.6019 4.13198 21.6019 4.68952V15.1645Z" fill="#10011A"/>
<path d="M19.2362 8.40602C19.1653 8.40602 19.0943 8.38237 19.0335 8.33844C18.8848 8.22693 18.8543 8.01405 18.9659 7.86537L19.8277 6.7165L18.9659 5.56763C18.8543 5.41895 18.8848 5.20607 19.0335 5.09456C19.1822 4.98306 19.3951 5.01347 19.5066 5.16214L20.5205 6.51376C20.6118 6.6354 20.6118 6.7976 20.5205 6.91924L19.5066 8.27086C19.439 8.35871 19.3376 8.40602 19.2362 8.40602ZM15.8566 8.40602C15.7552 8.40602 15.6538 8.35871 15.5862 8.27086L14.5724 6.91924C14.528 6.86098 14.5039 6.78975 14.5039 6.7165C14.5039 6.64325 14.528 6.57202 14.5724 6.51376L15.5862 5.16214C15.6978 5.01347 15.9107 4.98306 16.0594 5.09456C16.2081 5.20607 16.2385 5.41895 16.127 5.56763L15.2652 6.7165L16.127 7.86537C16.2385 8.01405 16.2081 8.22693 16.0594 8.33844C15.9986 8.38237 15.9276 8.40602 15.8566 8.40602ZM17.2085 8.40602C17.1814 8.40602 17.1544 8.40602 17.1274 8.39588C17.0404 8.37432 16.9657 8.31914 16.9194 8.24248C16.8731 8.16583 16.8592 8.07395 16.8806 7.98702L17.5566 5.28379C17.5808 5.19987 17.6366 5.1286 17.7123 5.08494C17.788 5.04127 17.8776 5.0286 17.9624 5.04958C18.0472 5.07056 18.1206 5.12356 18.1672 5.19747C18.2138 5.27137 18.2299 5.36044 18.2122 5.44598L17.5363 8.14921C17.4991 8.30465 17.3606 8.40602 17.2085 8.40602Z" fill="#10011A"/>
</svg>
