<svg width="24" height="24" viewBox="0 0 24 24" fill="none" xmlns="http://www.w3.org/2000/svg">
<path d="M21.5027 19.0203C21.2832 19.0203 21.0727 18.9331 20.9175 18.7779C20.7623 18.6227 20.6751 18.4122 20.6751 18.1927V10.7445C20.6751 10.2885 20.3043 9.91692 19.8475 9.91692H4.12336C3.66656 9.91692 3.29578 10.2885 3.29578 10.7445V18.1927C3.2958 18.3564 3.24728 18.5165 3.15635 18.6526C3.06542 18.7887 2.93616 18.8948 2.78493 18.9574C2.6337 19.02 2.46729 19.0364 2.30675 19.0045C2.14621 18.9725 1.99875 18.8937 1.88302 18.7779C1.80617 18.7011 1.74521 18.6099 1.70362 18.5095C1.66203 18.409 1.64062 18.3014 1.64063 18.1927V10.7445C1.64063 9.37566 2.75456 8.26172 4.12336 8.26172H19.8475C21.2163 8.26172 22.3303 9.37566 22.3303 10.7445V18.1927C22.3303 18.3014 22.3089 18.409 22.2673 18.5095C22.2257 18.6099 22.1647 18.7011 22.0879 18.7779C22.011 18.8548 21.9198 18.9158 21.8194 18.9573C21.719 18.9989 21.6114 19.0203 21.5027 19.0203Z" fill="#10011A"/>
<path d="M21.5027 19.0203C21.2832 19.0203 21.0727 18.9331 20.9175 18.7779C20.7623 18.6227 20.6751 18.4122 20.6751 18.1927V10.7445C20.6751 10.2885 20.3043 9.91692 19.8475 9.91692H4.12336C3.66656 9.91692 3.29578 10.2885 3.29578 10.7445V18.1927C3.2958 18.3564 3.24728 18.5165 3.15635 18.6526C3.06542 18.7887 2.93616 18.8948 2.78493 18.9574C2.6337 19.02 2.46729 19.0364 2.30675 19.0045C2.14621 18.9725 1.99875 18.8937 1.88302 18.7779C1.80617 18.7011 1.74521 18.6099 1.70362 18.5095C1.66203 18.409 1.64062 18.3014 1.64063 18.1927V10.7445C1.64063 9.37566 2.75456 8.26172 4.12336 8.26172H19.8475C21.2163 8.26172 22.3303 9.37566 22.3303 10.7445V18.1927C22.3303 18.3014 22.3089 18.409 22.2673 18.5095C22.2257 18.6099 22.1647 18.7011 22.0879 18.7779C22.011 18.8548 21.9198 18.9158 21.8194 18.9573C21.719 18.9989 21.6114 19.0203 21.5027 19.0203Z" fill="#10011A"/>
<path d="M21.5027 12.3992C21.2832 12.3992 21.0727 12.312 20.9175 12.1568C20.7623 12.0016 20.6751 11.7911 20.6751 11.5717V4.12336C20.6751 3.66736 20.3043 3.29578 19.8475 3.29578H4.12336C3.66656 3.29578 3.29578 3.66736 3.29578 4.12336V11.5717C3.29346 11.7896 3.20525 11.9979 3.0503 12.1512C2.89535 12.3045 2.68618 12.3905 2.4682 12.3905C2.25023 12.3905 2.04106 12.3045 1.88611 12.1512C1.73116 11.9979 1.64294 11.7896 1.64062 11.5717V4.12336C1.64062 2.75456 2.75456 1.64062 4.12336 1.64062H19.8475C21.2163 1.64062 22.3303 2.75456 22.3303 4.12336V11.5717C22.3303 11.7911 22.2431 12.0016 22.0879 12.1568C21.9327 12.312 21.7222 12.3992 21.5027 12.3992Z" fill="#10011A"/>
<path d="M21.5027 15.7098C21.2832 15.7098 21.0727 15.6226 20.9175 15.4674C20.7623 15.3122 20.6751 15.1017 20.6751 14.8822V7.43395C20.6751 6.97795 20.3043 6.60633 19.8475 6.60633H4.12336C3.66656 6.60633 3.29578 6.97795 3.29578 7.43395V14.8822C3.2958 15.0459 3.24728 15.2059 3.15635 15.342C3.06542 15.4781 2.93616 15.5842 2.78493 15.6469C2.6337 15.7095 2.46729 15.7259 2.30675 15.6939C2.14621 15.662 1.99875 15.5832 1.88302 15.4674C1.80617 15.3905 1.74521 15.2993 1.70362 15.1989C1.66203 15.0985 1.64062 14.9909 1.64063 14.8822V7.43395C1.64063 6.06511 2.75456 4.95117 4.12336 4.95117H19.8475C21.2163 4.95117 22.3303 6.06511 22.3303 7.43395V14.8822C22.3303 14.9909 22.3089 15.0985 22.2673 15.1989C22.2257 15.2993 22.1647 15.3906 22.0879 15.4674C22.011 15.5443 21.9198 15.6052 21.8194 15.6468C21.719 15.6884 21.6114 15.7098 21.5027 15.7098Z" fill="#10011A"/>
<path d="M19.8475 22.3309H4.12336C2.75456 22.3309 1.64062 21.217 1.64062 19.8481V14.055C1.64062 12.6862 2.75456 11.5723 4.12336 11.5723H7.43372C8.80256 11.5723 9.9165 12.6862 9.9165 14.055C9.9165 14.511 10.2872 14.8826 10.7441 14.8826H13.2268C13.6837 14.8826 14.0544 14.511 14.0544 14.055C14.0544 12.6862 15.1683 11.5723 16.5372 11.5723H19.8475C21.2163 11.5723 22.3303 12.6862 22.3303 14.055V19.8481C22.3303 21.217 21.2163 22.3309 19.8475 22.3309ZM4.12336 13.2275C3.66656 13.2275 3.29578 13.599 3.29578 14.055V19.8481C3.29578 20.3041 3.66656 20.6757 4.12336 20.6757H19.8475C20.3043 20.6757 20.6751 20.3041 20.6751 19.8481V14.055C20.6751 13.599 20.3043 13.2275 19.8475 13.2275H16.5372C16.0803 13.2275 15.7096 13.599 15.7096 14.055C15.7096 15.4238 14.5957 16.5378 13.2268 16.5378H10.7441C9.37523 16.5378 8.2613 15.4238 8.2613 14.055C8.2613 13.599 7.89056 13.2275 7.43372 13.2275H4.12336Z" fill="#10011A"/>
</svg>
