<svg width="56" height="56" viewBox="0 0 56 56" fill="none" xmlns="http://www.w3.org/2000/svg">
<rect width="56" height="56" fill="#282827"/>
<g clip-path="url(#clip0_4003_9)">
<path d="M31.2142 11.8843V19.2692L44.0709 26.6542V19.2692L31.2142 11.8843ZM5.5 19.2692V26.6542L11.9284 30.3459V22.9617L5.5 19.2692ZM24.7851 22.9617L18.3567 26.6542V48.8076L24.7851 52.5001V37.7309L31.2142 41.4234V34.0384L24.7851 30.3459V22.9617Z" fill="#E55B2D"/>
<path d="M31.2142 11.8843L11.9283 22.9617V30.3459L24.785 22.9617V30.3459L31.2142 26.6542V11.8843ZM50.5 15.5768L44.0709 19.2692V26.6542L50.5 22.9617V15.5768ZM37.6425 30.3459L31.2142 34.0384V41.4234L37.6425 37.7309V30.3459ZM31.2142 41.4234L24.785 37.7309V52.5001L31.2142 48.8076V41.4234Z" fill="#ED8E24"/>
<path d="M31.2142 4.5L5.5 19.2692L11.9284 22.9617L31.2142 11.8842L44.0709 19.2692L50.5 15.5767L31.2142 4.5ZM31.2142 26.6541L24.7851 30.3459L31.2142 34.0383L37.6425 30.3459L31.2142 26.6541Z" fill="#F8BF3C"/>
</g>
<defs>
<clipPath id="clip0_4003_9">
<rect width="45" height="48" fill="white" transform="translate(5.5 4.5)"/>
</clipPath>
</defs>
</svg>
