<?xml version="1.0" encoding="UTF-8"?>
<svg xmlns="http://www.w3.org/2000/svg" width="28" height="28" viewBox="0 0 28 28" fill="none">
  <path d="M9.33325 16.3333C13.1992 16.3333 16.3333 13.1992 16.3333 9.33325C16.3333 5.46726 13.1992 2.33325 9.33325 2.33325C5.46726 2.33325 2.33325 5.46726 2.33325 9.33325C2.33325 13.1992 5.46726 16.3333 9.33325 16.3333Z" stroke="white" stroke-width="2.33333" stroke-linecap="round" stroke-linejoin="round"></path>
  <path d="M21.1049 12.0984C22.2078 12.5096 23.1891 13.1922 23.9583 14.0831C24.7274 14.9741 25.2595 16.0446 25.5053 17.1956C25.751 18.3467 25.7026 19.5412 25.3645 20.6685C25.0263 21.7959 24.4093 22.8198 23.5706 23.6456C22.7318 24.4714 21.6984 25.0723 20.5659 25.3928C19.4334 25.7134 18.2383 25.7431 17.0912 25.4794C15.9441 25.2157 14.882 24.667 14.0032 23.8841C13.1244 23.1011 12.4571 22.1092 12.0632 21.0001" stroke="white" stroke-width="2.33333" stroke-linecap="round" stroke-linejoin="round"></path>
  <path d="M8.16675 7H9.33341V11.6667" stroke="white" stroke-width="2.33333" stroke-linecap="round" stroke-linejoin="round"></path>
  <path d="M19.4951 16.1934L20.3117 17.0217L17.0217 20.3117" stroke="white" stroke-width="2.33333" stroke-linecap="round" stroke-linejoin="round"></path>
</svg>
