<?xml version="1.0" encoding="UTF-8"?>
<svg xmlns="http://www.w3.org/2000/svg" width="32" height="32" viewBox="0 0 32 32" fill="none">
  <path d="M26.901 15.2645C25.5231 16.6423 23.6981 17.3701 21.8366 17.3701C21.1191 17.3701 20.3964 17.2662 19.6892 17.0477C19.6892 17.0477 19.6892 17.0477 19.684 17.0477L8.71299 28.0175C8.05784 28.6674 7.20514 28.9949 6.34721 28.9949C5.49447 28.9949 4.63657 28.6674 3.98663 28.0175C3.35227 27.3885 3.00391 26.5462 3.00391 25.652C3.00391 24.763 3.35227 23.9208 3.98663 23.2918L14.9576 12.3167C14.1673 9.77452 14.8277 7.01385 16.7359 5.10574C18.5245 3.31734 21.1607 2.59982 23.6201 3.229C23.8021 3.27583 23.9425 3.41609 23.9944 3.5981C24.0413 3.77491 23.9892 3.96721 23.8593 4.10238L21.1503 6.80581L20.8903 11.1158L25.1955 10.8506L27.9045 8.14718C28.0345 8.012 28.2269 7.96517 28.4088 8.012C28.5909 8.05871 28.726 8.20442 28.7728 8.38631C29.4072 10.8402 28.6896 13.4761 26.901 15.2645Z" fill="white"></path>
</svg>
