<svg width="56" height="56" viewBox="0 0 56 56" fill="none" xmlns="http://www.w3.org/2000/svg">
<path d="M28 56C43.464 56 56 43.464 56 28C56 12.536 43.464 0 28 0C12.536 0 0 12.536 0 28C0 43.464 12.536 56 28 56Z" fill="url(#paint0_linear_4014_1229)"/>
<path d="M45.6804 26.2884L37.7717 18.3797L37.7573 18.3653L37.726 18.3379C37.6748 18.2917 37.6213 18.2481 37.5655 18.2075C37.5264 18.1762 37.4873 18.1462 37.4455 18.1188C37.4273 18.1057 37.409 18.0953 37.3894 18.0835C36.9385 17.7882 36.3931 17.6733 35.8614 17.7615C35.3297 17.8497 34.8506 18.1346 34.5192 18.5597L22.2192 30.8611V19.9022C22.2192 19.3261 21.9903 18.7736 21.5829 18.3662C21.1756 17.9588 20.6231 17.73 20.0469 17.73C19.4708 17.73 18.9183 17.9588 18.511 18.3662C18.1036 18.7736 17.8747 19.3261 17.8747 19.9022V30.8611L13.3842 26.3706C12.9737 25.9792 12.4265 25.7638 11.8593 25.7706C11.2922 25.7773 10.7502 26.0056 10.3492 26.4066C9.94813 26.8077 9.71985 27.3497 9.71311 27.9168C9.70636 28.4839 9.9217 29.0312 10.3131 29.4417L18.5114 37.64C18.5629 37.6922 18.6174 37.7414 18.6745 37.7874C18.7293 37.8317 18.7867 37.8748 18.8441 37.9178C19.1403 38.1098 19.4788 38.2267 19.8304 38.2584H19.8395C19.91 38.2649 19.9804 38.2688 20.0509 38.2688H20.0835C20.1426 38.2688 20.2013 38.2662 20.2596 38.261H20.3027C20.3588 38.2544 20.4149 38.2479 20.4696 38.2362H20.4944C20.5558 38.2231 20.6171 38.2088 20.6771 38.1905H20.6875C20.753 38.1708 20.8175 38.1477 20.8806 38.1214C20.9706 38.0842 21.0578 38.0406 21.1415 37.9909L21.1911 37.9622C21.2732 37.912 21.3516 37.8562 21.4259 37.7952L21.4481 37.7756C21.4938 37.7365 21.5394 37.6974 21.5786 37.653L34.0509 25.1729V36.0979C34.0509 36.674 34.2797 37.2265 34.6871 37.6339C35.0945 38.0412 35.647 38.2701 36.2231 38.2701C36.7992 38.2701 37.3517 38.0412 37.7591 37.6339C38.1664 37.2265 38.3953 36.674 38.3953 36.0979V25.139L42.6092 29.3608C43.0183 29.7601 43.5683 29.982 44.1399 29.9785C44.7116 29.975 45.2588 29.7463 45.6629 29.342C46.067 28.9377 46.2955 28.3904 46.2988 27.8188C46.302 27.2471 46.0798 26.6973 45.6804 26.2884Z" fill="white"/>
<defs>
<linearGradient id="paint0_linear_4014_1229" x1="3.7469" y1="13.9974" x2="52.2531" y2="42.0013" gradientUnits="userSpaceOnUse">
<stop offset="0.13" stop-color="#348BED"/>
<stop offset="0.31" stop-color="#2B80E8"/>
<stop offset="0.64" stop-color="#1461DB"/>
<stop offset="0.72" stop-color="#0E57D7"/>
</linearGradient>
</defs>
</svg>
