<svg width="38" height="38" viewBox="0 0 38 38" fill="none" xmlns="http://www.w3.org/2000/svg">
<g clip-path="url(#clip0_1084_17118)">
<path d="M18.2949 1.38791C17.5231 1.77385 16.8699 2.10783 16.8477 2.12267C16.8031 2.1672 18.8738 4.23791 18.9406 4.21564C18.9629 4.2008 19.5789 3.61447 20.2988 2.90197L21.6051 1.61056L21.3602 1.3508C20.8555 0.823845 20.5734 0.667986 20.1207 0.675408C19.7496 0.675408 19.5641 0.749626 18.2949 1.38791Z" fill="#00B8DB"/>
<path d="M24.2844 2.75355C23.4754 2.88715 23.1414 3.12465 21.7461 4.49769L20.4473 5.78168L21.1598 6.50902C22.0059 7.36996 22.3992 7.94886 22.6441 8.69847C22.7926 9.15121 22.8223 9.38871 22.8223 10.168C22.8223 10.9473 22.7926 11.17 22.6441 11.5782C22.1617 12.9438 20.9891 14.0942 19.6977 14.4727C19.423 14.5543 19.3785 14.5989 19.2746 14.9477C18.8887 16.1575 17.6789 17.4043 16.5285 17.7828C16.3133 17.8496 16.1055 17.9387 16.0609 17.9907C16.0164 18.0352 15.8902 18.3024 15.7863 18.5918C15.3262 19.7942 14.1758 20.8555 12.9437 21.2266C12.6766 21.3082 12.6246 21.3602 12.543 21.6274C12.3797 22.1766 11.9344 22.9336 11.5113 23.3715C9.99727 24.9375 7.7707 25.2567 5.87812 24.1805C5.64062 24.0543 5.09141 23.5942 4.65352 23.1637L3.85195 22.3844L1.92227 24.3141L0 26.2438V26.8301V27.4239L4.9207 32.3446C7.62227 35.0536 9.92305 37.3172 10.0344 37.3766C10.2719 37.5028 10.8508 37.5176 11.0809 37.3989C11.1699 37.3543 12.8102 35.7512 14.7324 33.8438L18.2207 30.3703L19.7422 30.3332C20.9891 30.3036 21.3676 30.2739 21.8574 30.1403C22.5105 29.9696 23.4828 29.5317 24.032 29.1606C24.4996 28.8489 32.7527 20.6106 33.0199 20.1875C33.6285 19.2375 33.6434 17.8051 33.057 16.8032C32.827 16.4172 32.159 15.7789 31.8102 15.6082C31.5578 15.4895 31.543 15.4672 31.5949 15.252C31.6246 15.1332 31.6543 14.6582 31.6543 14.2129C31.6543 13.4336 31.6395 13.3668 31.4094 12.8993C31.1348 12.3352 30.5187 11.6821 30.066 11.4668C29.7691 11.3258 29.7543 11.311 29.8137 11.0586C29.925 10.5539 29.8805 9.34418 29.7395 8.95824C29.5168 8.38675 29.0121 7.77074 28.4629 7.41449C28.0621 7.1473 27.9805 7.05824 28.0176 6.93949C28.0398 6.85785 28.0844 6.51644 28.1066 6.17504C28.2328 4.44574 27.1047 3.02816 25.3828 2.75355C24.841 2.66449 24.8336 2.66449 24.2844 2.75355Z" fill="#00B8DB"/>
<path d="M12.632 3.12461C12.157 3.31016 11.593 3.84453 11.3555 4.3418C11.0066 5.07656 11.1625 6.41992 11.6598 6.87266C11.8898 7.08047 11.823 7.11016 11.4148 6.99883C10.5391 6.76133 9.45547 7.11016 8.90625 7.80039C8.51289 8.30508 8.36445 8.78008 8.40156 9.48516C8.43125 10.1605 8.60195 10.5688 9.06953 11.0586C9.24766 11.2441 9.44805 11.4668 9.52227 11.5559L9.65586 11.7117L9.33672 11.6004C8.88398 11.4445 8.00078 11.5039 7.54805 11.7191C7.07305 11.9492 6.62773 12.4094 6.39766 12.8992C6.23438 13.248 6.20469 13.4336 6.20469 13.916C6.20469 14.7027 6.37539 15.0664 7.06562 15.7789C7.59258 16.3207 7.59258 16.3281 7.31055 16.2094C6.85781 16.0164 5.93008 16.0312 5.45508 16.2465C4.9875 16.4543 4.49766 16.9219 4.24531 17.4043C4.06719 17.7309 4.04492 17.857 4.04492 18.4805C4.04492 19.475 4.14883 19.6383 5.69258 21.1598C7.11016 22.5551 7.24375 22.6367 8.23828 22.6367C8.72813 22.6367 8.87656 22.607 9.2625 22.4141C9.77461 22.1543 10.1902 21.7312 10.4203 21.234C10.643 20.7516 10.643 19.7719 10.4129 19.2895L10.257 18.9406L10.6059 19.0965C11.0883 19.3266 12.068 19.3266 12.5578 19.0965C13.4262 18.6957 13.9605 17.8645 13.9605 16.907C13.9605 16.3949 13.827 15.8234 13.6562 15.6156C13.6117 15.5711 13.7082 15.5934 13.8641 15.6676C15.0738 16.2688 16.6027 15.7195 17.1742 14.4801C17.3969 13.9902 17.3969 13.018 17.1668 12.5281L17.0035 12.1719L17.3152 12.3426C17.5676 12.4762 17.7457 12.5059 18.2949 12.5059C18.8738 12.5059 19.0148 12.4762 19.3859 12.298C19.8461 12.068 20.2469 11.6746 20.4918 11.1922C20.618 10.9547 20.6699 10.7023 20.6922 10.2348C20.7516 9.12148 20.7738 9.15117 17.6418 6.03399C15.8383 4.23047 14.8438 3.30273 14.6211 3.18398C14.1387 2.93906 13.1738 2.90938 12.632 3.12461Z" fill="#00B8DB"/>
<path d="M29.9102 26.4442C27.5574 28.7895 25.6649 30.6153 25.3828 30.8157C24.3809 31.5133 23.1934 32.0403 22.0949 32.2926L21.6645 32.3817L24.0988 34.8235C25.4348 36.1668 26.6223 37.3172 26.7336 37.3766C26.9934 37.5102 27.5574 37.5102 27.8172 37.3766C28.0621 37.243 37.7254 27.5649 37.8441 27.3348C37.9481 27.127 37.9481 26.5333 37.8441 26.3254C37.7625 26.1696 34.0664 22.4141 33.9922 22.4141C33.9699 22.4141 32.1367 24.2325 29.9102 26.4442Z" fill="#00B8DB"/>
</g>
<defs>
<clipPath id="clip0_1084_17118">
<rect width="38" height="38" fill="white"/>
</clipPath>
</defs>
</svg>
