<?xml version="1.0" encoding="UTF-8"?>
<svg xmlns="http://www.w3.org/2000/svg" width="56" height="56" viewBox="0 0 56 56" fill="none">
  <g clip-path="url(#clip0_2990_7871)">
    <path d="M53.8563 16.87C51.2313 14.4463 47.6 10.745 44.6425 8.12001L44.4675 7.99751C44.1763 7.76369 43.848 7.58032 43.4963 7.45501C36.365 6.12501 3.17626 -0.0787393 2.52876 1.06856e-05C2.34733 0.0254207 2.17391 0.091202 2.02126 0.192511L1.85501 0.323761C1.6503 0.531661 1.49482 0.782824 1.40001 1.05876L1.35626 1.17251V1.79376V1.89001C5.09251 12.2938 19.845 46.375 22.75 54.3725C22.925 54.915 23.2575 55.9475 23.8788 56H24.0188C24.3513 56 25.7688 54.1275 25.7688 54.1275C25.7688 54.1275 51.1088 23.3975 53.6725 20.125C54.0044 19.7219 54.2973 19.2883 54.5475 18.83C54.6114 18.4714 54.5813 18.1024 54.4601 17.7589C54.339 17.4155 54.1309 17.1092 53.8563 16.87ZM32.27 20.4488L43.085 11.48L49.4288 17.325L32.27 20.4488ZM28.07 19.8625L9.45001 4.60251L39.5763 10.1588L28.07 19.8625ZM29.75 23.8613L48.8075 20.79L27.02 47.04L29.75 23.8613ZM6.92126 6.12501L26.5125 22.75L23.6775 47.0575L6.92126 6.12501Z" fill="#FF060A"></path>
  </g>
  <defs>
    <clipPath id="clip0_2990_7871">
      <rect width="56" height="56" fill="white"></rect>
    </clipPath>
  </defs>
</svg>
