<svg width="57" height="56" viewBox="0 0 57 56" fill="none" xmlns="http://www.w3.org/2000/svg">
<path d="M28.4324 56C43.799 56 56.256 43.464 56.256 28C56.256 12.536 43.799 0 28.4324 0C13.0659 0 0.608826 12.536 0.608826 28C0.608826 43.464 13.0659 56 28.4324 56Z" fill="#5E464D"/>
<path d="M19.6821 52.8291C20.8204 53.2156 24.6428 54.4519 24.8054 53.243C24.8936 52.5796 22.8763 51.8997 20.1452 50.4605C16.2608 48.4185 12.7073 45.8069 9.60381 42.7135C5.07389 38.2953 2.46915 32.2845 2.35025 25.975C2.11876 17.5042 5.44793 10.6563 10.9239 6.2373C4.22747 11.3786 0.218146 19.249 0.0105485 27.6608C-0.152044 33.7878 1.57035 38.9497 4.80583 43.6483C5.81051 44.9391 6.9849 46.0898 8.2975 47.0695C11.398 49.4024 15.9314 51.5626 19.6821 52.8291Z" fill="white"/>
<path d="M56.6391 21.5822C54.914 13.5117 49.551 7.86186 42.3774 3.87044C47.8754 7.75491 55.5919 16.0146 51.0309 23.301C47.1726 29.1373 37.8025 27.9942 32.6628 25.22C26.5667 21.9304 18.9384 14.5288 26.462 7.29437C31.34 2.61216 46.8557 7.86186 44.1246 14.8605C42.5317 18.9313 36.3309 18.0267 33.5419 16.0365C31.4861 14.5671 29.7553 12.0423 30.673 9.43532C30.9651 8.59922 30.9238 7.3026 29.736 8.25655C28.8596 8.96933 28.4049 10.1426 28.2506 11.2391C26.9526 20.3651 43.2978 27.4405 48.1482 18.6106C50.6644 14.0271 46.5856 7.37113 41.4514 4.64623C37.5931 2.59024 33.5777 1.14555 28.6557 1.49644C20.7849 2.04471 14.1817 6.9517 13.3522 14.9509C12.5254 22.9008 17.8691 30.0557 24.1608 34.3349C30.775 38.8307 39.6656 41.7941 47.801 39.113C55.0931 36.7089 58.1053 28.3835 56.6391 21.5877" fill="white"/>
<path d="M46.3758 15.4013C47.1585 10.1708 42.4046 6.57969 38.0144 4.9486C32.8389 3.02966 26.0014 3.86851 22.2314 8.1313C19.4755 11.2619 19.6546 15.807 21.0766 19.4859C23.2262 25.0426 28.0794 29.0586 33.729 30.7939C37.7444 32.0275 42.5975 32.5648 46.6652 31.2627C52.5987 29.3629 54.5306 23.2086 53.3042 17.5697C53.0416 16.3507 52.6384 15.1659 52.1026 14.0389C51.353 12.4736 49.0573 9.30461 52.2211 13.1644C52.5528 13.5946 52.8583 14.044 53.136 14.5104C53.7887 15.5768 54.3062 16.7195 54.6766 17.9123C56.4018 23.1758 55.0487 29.3163 50.2672 32.4936C46.5991 34.9251 41.9361 35.2157 37.681 34.6071C31.9763 33.7847 26.5995 31.0434 22.8625 26.6325C19.4507 22.611 17.122 16.8351 18.5246 11.5552C19.5527 7.69266 22.7054 4.80879 26.481 3.60534C31.257 2.06745 36.5152 2.78294 40.8117 5.2803C42.9668 6.52761 44.9456 8.25461 46.0479 10.519C46.5464 11.5391 46.8146 12.6553 46.8333 13.7894C46.8443 14.2487 46.8083 14.708 46.7258 15.16C46.6955 15.3245 46.3456 15.7878 46.3951 15.4068" fill="#3FE0C5"/>
</svg>
