<svg width="56" height="56" viewBox="0 0 56 56" fill="none" xmlns="http://www.w3.org/2000/svg">
<rect width="56" height="56" fill="#FF007A"/>
<path d="M23.4342 16.2346C22.9432 16.165 22.9198 16.1418 23.1536 16.1186C23.5979 16.049 24.6268 16.1418 25.3517 16.3043C27.0353 16.6988 28.5552 17.7199 30.1687 19.5069L30.5896 19.9943L31.1976 19.9015C33.7931 19.4837 36.4589 19.8086 38.6803 20.8298C39.2883 21.1083 40.247 21.6653 40.3639 21.8045C40.4107 21.8509 40.4809 22.1526 40.5276 22.4543C40.6913 23.5451 40.6212 24.3574 40.2704 24.984C40.0833 25.3321 40.0833 25.4249 40.2002 25.7266C40.2938 25.9587 40.5744 26.1211 40.8316 26.1211C41.3928 26.1211 41.9774 25.2392 42.258 24.0092L42.3749 23.5219L42.5854 23.754C43.7779 25.0768 44.7133 26.9102 44.8536 28.2098L44.9003 28.558L44.6899 28.2563C44.3391 27.7225 44.0118 27.3744 43.5675 27.0727C42.7724 26.5389 41.9306 26.3764 39.7092 26.2604C37.6982 26.1444 36.5524 25.9819 35.43 25.6106C33.5125 24.984 32.5304 24.1717 30.2622 21.1779C29.2567 19.8551 28.6254 19.1356 27.994 18.5322C26.6144 17.2094 25.2348 16.5131 23.4342 16.2346Z" fill="white"/>
<path d="M40.855 19.1819C40.9018 18.3 41.0187 17.7198 41.2759 17.186C41.3695 16.9772 41.463 16.7915 41.4864 16.7915C41.5098 16.7915 41.463 16.954 41.3929 17.1396C41.2058 17.6502 41.1824 18.3696 41.2993 19.1819C41.463 20.2263 41.5332 20.3655 42.6556 21.5027C43.17 22.0365 43.778 22.7095 44.0118 22.988L44.4093 23.4985L44.0118 23.1272C43.5208 22.6631 42.3984 21.7812 42.1411 21.6651C41.9775 21.5723 41.9541 21.5723 41.8372 21.6883C41.7436 21.7812 41.7202 21.9204 41.7202 22.5934C41.6968 23.6378 41.5565 24.2876 41.2058 24.9606C41.0187 25.3087 40.9953 25.2391 41.159 24.8446C41.2759 24.5429 41.2993 24.4036 41.2993 23.4057C41.2993 21.3866 41.0655 20.8993 39.6391 20.087C39.2883 19.8781 38.6804 19.5764 38.3296 19.414C37.9555 19.2515 37.6749 19.1123 37.6983 19.1123C37.745 19.0659 39.1247 19.4604 39.6625 19.6925C40.4809 20.0174 40.6212 20.0406 40.7147 20.0174C40.7849 19.9478 40.8317 19.7621 40.855 19.1819Z" fill="white"/>
<path d="M24.3929 22.6401C23.4108 21.2941 22.7794 19.2054 22.9197 17.6504L22.9665 17.1631L23.2003 17.2095C23.6212 17.2791 24.3461 17.5576 24.6969 17.7665C25.6322 18.3235 26.0531 19.0893 26.4506 20.9924C26.5676 21.5494 26.7313 22.1992 26.8014 22.408C26.9183 22.7562 27.3626 23.5684 27.7367 24.079C27.994 24.4503 27.8303 24.636 27.2457 24.5896C26.3571 24.4967 25.1646 23.6845 24.3929 22.6401Z" fill="white"/>
<path d="M39.6624 32.7355C35.0325 30.8789 33.3956 29.2775 33.3956 26.5622C33.3956 26.1677 33.419 25.8428 33.419 25.8428C33.4424 25.8428 33.6061 25.982 33.8165 26.1445C34.7519 26.8871 35.8041 27.212 38.7271 27.6298C40.4341 27.8851 41.4162 28.0707 42.3048 28.3724C45.1342 29.3007 46.8879 31.2038 47.3089 33.7798C47.4258 34.5225 47.3556 35.9381 47.1686 36.6808C47.0049 37.261 46.5372 38.3285 46.4203 38.3517C46.3969 38.3517 46.3501 38.2357 46.3501 38.0501C46.3034 37.0753 45.8123 36.147 44.9939 35.4276C44.0118 34.5921 42.7491 33.9655 39.6624 32.7355Z" fill="white"/>
<path d="M36.3887 33.5011C36.3419 33.1529 36.225 32.712 36.1548 32.5263L36.0379 32.1782L36.2484 32.4335C36.5523 32.7816 36.7862 33.1994 36.9966 33.7796C37.1603 34.2205 37.1603 34.3598 37.1603 35.0792C37.1603 35.7754 37.1369 35.9379 36.9966 36.3324C36.7628 36.959 36.4822 37.4 36.0145 37.8873C35.1727 38.746 34.0737 39.2102 32.507 39.419C32.2264 39.4422 31.4313 39.5119 30.7298 39.5583C28.9761 39.6511 27.8069 39.8368 26.7546 40.2081C26.6143 40.2545 26.474 40.3009 26.4506 40.2777C26.4039 40.2313 27.1288 39.8136 27.7134 39.5351C28.5318 39.1405 29.3736 38.9317 31.2209 38.6068C32.1328 38.4675 33.0682 38.2819 33.302 38.189C35.617 37.4696 36.7628 35.6826 36.3887 33.5011Z" fill="white"/>
<path d="M38.5166 37.2378C37.9086 35.915 37.7683 34.6618 38.0957 33.4782C38.1425 33.3621 38.1892 33.2461 38.236 33.2461C38.2828 33.2461 38.4231 33.3157 38.5634 33.4085C38.844 33.5942 39.4286 33.9191 40.9251 34.7314C42.8192 35.7525 43.8948 36.5416 44.6431 37.4467C45.2978 38.2358 45.6954 39.1409 45.8824 40.2548C45.9993 40.8814 45.9292 42.3899 45.7655 43.0166C45.2511 44.9892 44.0819 46.5673 42.3749 47.4724C42.1177 47.6117 41.9072 47.7045 41.8838 47.7045C41.8605 47.7045 41.954 47.4724 42.0943 47.1939C42.6555 46.0104 42.7256 44.8732 42.3047 43.5967C42.0475 42.8077 41.5097 41.8562 40.4341 40.2548C39.148 38.3982 38.844 37.9109 38.5166 37.2378Z" fill="white"/>
<path d="M21.0959 44.3391C22.8263 42.9003 24.9542 41.8791 26.9184 41.5542C27.7602 41.415 29.1632 41.4614 29.9349 41.6702C31.1742 41.9952 32.2966 42.6914 32.8812 43.5501C33.4424 44.3856 33.6997 45.105 33.9569 46.7063C34.0504 47.3329 34.1673 47.9828 34.1907 48.122C34.3778 48.9575 34.7519 49.6073 35.2196 49.9554C35.9445 50.4892 37.2072 50.5124 38.4465 50.0482C38.657 49.9786 38.844 49.909 38.844 49.9322C38.8908 49.9786 38.2594 50.3964 37.8385 50.6052C37.254 50.9069 36.7863 50.9998 36.1549 50.9998C35.0325 50.9998 34.0738 50.4196 33.3021 49.2592C33.1384 49.0271 32.8111 48.3541 32.5305 47.7275C31.7121 45.8476 31.2911 45.2907 30.3324 44.664C29.4906 44.1303 28.415 44.0142 27.5965 44.4088C26.5209 44.9193 26.2403 46.2886 26.9886 47.1241C27.2926 47.4722 27.8538 47.7507 28.3214 47.8203C29.1866 47.9363 29.9349 47.2633 29.9349 46.4046C29.9349 45.8476 29.7244 45.5227 29.1632 45.2674C28.415 44.9425 27.5965 45.3139 27.6199 46.0333C27.6199 46.335 27.7602 46.5207 28.0642 46.6599C28.2513 46.7527 28.2513 46.7527 28.111 46.7295C27.4329 46.5903 27.2692 45.7548 27.807 45.221C28.4617 44.5712 29.8414 44.8497 30.309 45.7548C30.4961 46.1261 30.5195 46.8688 30.3558 47.3329C29.9583 48.3541 28.8359 48.8879 27.6901 48.5862C26.9184 48.3773 26.5911 48.1684 25.6557 47.2169C24.0189 45.5459 23.3875 45.221 21.0491 44.8729L20.6049 44.8033L21.0959 44.3391Z" fill="white"/>
<path fill-rule="evenodd" clip-rule="evenodd" d="M8.79608 6.99793C14.2445 13.5657 22.6392 23.7771 23.0601 24.3341C23.4108 24.7983 23.2705 25.2392 22.6859 25.5641C22.3585 25.7498 21.6804 25.9355 21.3531 25.9355C20.9789 25.9355 20.5346 25.7498 20.2306 25.4481C20.0202 25.2392 19.1082 23.9164 17.0505 20.7369C15.4838 18.3001 14.1509 16.281 14.1275 16.2578C14.034 16.2114 14.034 16.2114 16.8868 21.2707C18.6873 24.4502 19.2719 25.5873 19.2719 25.7266C19.2719 26.0283 19.1784 26.1907 18.8042 26.6085C18.1729 27.3047 17.8923 28.0938 17.6818 29.7415C17.448 31.5749 16.8166 32.8746 15.0161 35.0793C13.9638 36.3789 13.8002 36.611 13.5429 37.1448C13.2156 37.7946 13.122 38.1659 13.0753 39.0014C13.0285 39.8833 13.122 40.4403 13.3793 41.2758C13.6131 42.0184 13.8703 42.5058 14.5017 43.4573C15.0395 44.2928 15.3669 44.9194 15.3669 45.1515C15.3669 45.3371 15.4136 45.3371 16.2554 45.1515C18.2664 44.6873 19.9267 43.8983 20.8386 42.9235C21.3998 42.3201 21.5401 41.9952 21.5401 41.1597C21.5401 40.626 21.5167 40.5099 21.3764 40.185C21.1426 39.6744 20.6983 39.2567 19.7396 38.6069C18.4769 37.7482 17.9391 37.052 17.7988 36.1237C17.6818 35.3346 17.8221 34.8008 18.5236 33.3387C19.2485 31.8302 19.4356 31.2036 19.5525 29.6719C19.6227 28.6972 19.7396 28.3026 20.0202 28.0009C20.3242 27.676 20.5814 27.56 21.3063 27.4672C22.4988 27.3047 23.2705 27.003 23.8785 26.4228C24.4163 25.9355 24.6501 25.4481 24.6735 24.7287L24.6969 24.1949L24.3929 23.87C23.2939 22.6167 8.07119 6 8.00104 6C7.97766 6 8.35179 6.44095 8.79608 6.99793ZM15.9748 39.9994C16.2321 39.5584 16.0918 39.0014 15.6708 38.7229C15.2733 38.4676 14.6654 38.5837 14.6654 38.9318C14.6654 39.0246 14.7121 39.1175 14.8524 39.1639C15.0629 39.2799 15.0863 39.3959 14.9226 39.6512C14.7589 39.9065 14.7589 40.1386 14.9693 40.3011C15.2967 40.5563 15.741 40.4171 15.9748 39.9994Z" fill="white"/>
<path fill-rule="evenodd" clip-rule="evenodd" d="M25.4453 27.7921C24.8841 27.9545 24.3462 28.5579 24.1826 29.1613C24.089 29.5327 24.1358 30.2057 24.2995 30.4146C24.5567 30.7395 24.7905 30.8323 25.4453 30.8323C26.7314 30.8323 27.8304 30.2753 27.9473 29.6023C28.0642 29.0453 27.5732 28.2794 26.8951 27.9313C26.5443 27.7457 25.8194 27.676 25.4453 27.7921ZM26.9418 28.9525C27.1289 28.674 27.0587 28.3723 26.708 28.1634C26.0766 27.7689 25.1179 28.0938 25.1179 28.6972C25.1179 28.9989 25.609 29.3238 26.0766 29.3238C26.3806 29.3238 26.8015 29.1381 26.9418 28.9525Z" fill="white"/>
</svg>
