<svg width="56" height="56" viewBox="0 0 56 56" fill="none" xmlns="http://www.w3.org/2000/svg">
<g clip-path="url(#clip0_4014_1359)">
<path d="M52.7552 39.2V13.0667L30.1218 0V10.0333L38.9886 15.1667C39.3386 15.3999 39.3386 15.8667 38.9886 15.9834L28.4886 22.0501C28.1386 22.2833 27.7886 22.1667 27.5552 22.0501L17.0552 15.9834C16.7052 15.8667 16.7052 15.2834 17.0552 15.1667L25.9219 10.0333V0L3.17188 13.0667V39.2L11.8052 34.1833V23.9166C11.8052 23.5666 12.2719 23.3334 12.5052 23.45L23.0052 29.5167C23.3552 29.75 23.4719 29.9834 23.4719 30.3334V42.4666C23.4719 42.8166 23.0052 43.0501 22.7719 42.9333L13.9053 37.8L5.27188 42.8167L27.9052 56L50.5386 42.9333L41.9052 37.9166L33.0386 43.0501C32.6886 43.2833 32.3386 43.0501 32.3386 42.5833V30.45C32.3386 30.1 32.5718 29.75 32.8052 29.6333L43.3053 23.5666C43.6552 23.3334 44.0052 23.5666 44.0052 24.0333V34.3L52.7552 39.2Z" fill="#4C4C4C"/>
<path d="M27.9052 56.0002L50.5386 42.9335L41.9052 37.9168L33.0386 43.0503C32.6886 43.2835 32.3386 43.0503 32.3386 42.5835V30.4502C32.3386 30.1002 32.5717 29.7502 32.8052 29.6335L43.3053 23.5668C43.6551 23.3336 44.0052 23.5668 44.0052 24.0335V34.3002L52.6384 39.3169V13.0669L27.9052 27.4169V56.0002Z" fill="black"/>
<path d="M30.1219 0V10.0333L38.9886 15.1667C39.3386 15.3999 39.3386 15.8667 38.9886 15.9834L28.4886 22.0501C28.1386 22.2833 27.7886 22.1667 27.5552 22.0501L17.0552 15.9834C16.7052 15.8667 16.7052 15.2834 17.0552 15.1667L25.9219 10.0333V0L3.17188 13.0667L27.9052 27.4167L52.6385 13.0667L30.1219 0Z" fill="#808080"/>
<path d="M22.8886 43.0502L14.0218 37.9168L5.38847 42.9335L28.0219 56.0002V27.4169L3.17188 13.0669V39.2002L11.8052 34.1835V23.9168C11.8052 23.5668 12.2719 23.3336 12.5052 23.4502L23.0052 29.5169C23.3552 29.7502 23.4719 29.9836 23.4719 30.3336V42.4668C23.5886 42.9335 23.2386 43.2835 22.8886 43.0503V43.0502Z" fill="#4C4C4C"/>
</g>
<defs>
<clipPath id="clip0_4014_1359">
<rect width="56" height="56" fill="white"/>
</clipPath>
</defs>
</svg>
