<svg width="56" height="56" viewBox="0 0 56 56" fill="none" xmlns="http://www.w3.org/2000/svg">
<path d="M28 1.3308C42.7186 1.3308 54.6692 13.308 54.6692 28C54.6692 42.692 42.692 54.6692 28 54.6692C13.308 54.6692 1.3308 42.7186 1.3308 28C1.3308 13.2814 13.308 1.3308 28 1.3308ZM28 0C12.5361 0 0 12.5361 0 28C0 43.4639 12.5361 56 28 56C43.4639 56 56 43.4639 56 28C56 12.5361 43.4905 0 28 0Z" fill="black"/>
<path d="M26.057 11.2319C26.057 11.2319 19.7491 13.0152 14.0799 19.0304C8.41065 25.0456 7.69202 29.3308 7.69202 32.5247C8.94297 30.3954 16.6616 18.6578 18.4715 24.2471V37.6084C18.4715 37.6084 18.365 39.4182 15.597 38.6996C16.4221 40.2433 20.6806 44.0494 28.3726 44.8213C30.1293 43.0646 32.4183 40.5361 32.4183 40.5361L36.251 43.7833C36.251 43.7833 43.1445 39.3118 45.8593 32.8175C43.3308 34.4677 40.27 38.3004 38.673 35.6122V19.3498C38.673 19.3498 42.7719 13.2015 43.4107 12.9087C41.7871 13.2015 36.0646 15.0912 33.057 18.9772C32.2053 18.0456 29.8365 18.019 29.8365 18.019C29.8365 18.019 31.6996 19.5627 31.7262 20.9734C31.7529 22.384 31.7262 34.1483 31.7262 35.5057C30.4487 36.8099 29.0913 37.5019 28.2129 37.5019C26.1635 37.5019 25.5779 36.7833 25.019 36.0646V18.9772C25.019 18.9772 24.0076 19.8289 23.2091 18.4449C22.4106 17.0608 22.384 14.3726 26.057 11.2319Z" fill="black"/>
</svg>
