<?xml version="1.0" encoding="UTF-8"?>
<svg xmlns="http://www.w3.org/2000/svg" width="18" height="20" viewBox="0 0 18 20" fill="none">
  <path d="M6.875 15.125C6.875 15.3073 6.80257 15.4822 6.67364 15.6111C6.5447 15.7401 6.36984 15.8125 6.1875 15.8125H4.125C3.94266 15.8125 3.7678 15.7401 3.63886 15.6111C3.50993 15.4822 3.4375 15.3073 3.4375 15.125C3.4375 14.9427 3.50993 14.7678 3.63886 14.6389C3.7678 14.5099 3.94266 14.4375 4.125 14.4375H6.1875C6.36984 14.4375 6.5447 14.5099 6.67364 14.6389C6.80257 14.7678 6.875 14.9427 6.875 15.125ZM4.125 8.25H11C11.1823 8.25 11.3572 8.17757 11.4861 8.04864C11.6151 7.9197 11.6875 7.74484 11.6875 7.5625C11.6875 7.38016 11.6151 7.2053 11.4861 7.07636C11.3572 6.94743 11.1823 6.875 11 6.875H4.125C3.94266 6.875 3.7678 6.94743 3.63886 7.07636C3.50993 7.2053 3.4375 7.38016 3.4375 7.5625C3.4375 7.74484 3.50993 7.9197 3.63886 8.04864C3.7678 8.17757 3.94266 8.25 4.125 8.25ZM4.125 4.8125H11C11.1823 4.8125 11.3572 4.74007 11.4861 4.61114C11.6151 4.4822 11.6875 4.30734 11.6875 4.125C11.6875 3.94266 11.6151 3.7678 11.4861 3.63886C11.3572 3.50993 11.1823 3.4375 11 3.4375H4.125C3.94266 3.4375 3.7678 3.50993 3.63886 3.63886C3.50993 3.7678 3.4375 3.94266 3.4375 4.125C3.4375 4.30734 3.50993 4.4822 3.63886 4.61114C3.7678 4.74007 3.94266 4.8125 4.125 4.8125ZM17.875 11V13.4131C17.8713 14.6601 17.4859 15.876 16.7706 16.8974C16.0553 17.9187 15.0443 18.6966 13.8738 19.1262C13.7609 19.1662 13.6427 19.1894 13.5231 19.195C13.3725 19.2327 13.2177 19.2512 13.0625 19.25H2.0625C1.51549 19.25 0.990886 19.0327 0.604092 18.6459C0.217299 18.2591 0 17.7345 0 17.1875V2.0625C0 1.51549 0.217299 0.990886 0.604092 0.604092C0.990886 0.217299 1.51549 0 2.0625 0H13.0625C13.6095 0 14.1341 0.217299 14.5209 0.604092C14.9077 0.990886 15.125 1.51549 15.125 2.0625V9.515L17.4212 10.3537C17.5541 10.4018 17.669 10.4896 17.7502 10.6052C17.8313 10.7209 17.8749 10.8587 17.875 11ZM2.0625 17.875H10.9175C10.297 17.3085 9.80064 16.6196 9.45984 15.8516C9.11904 15.0836 8.94119 14.2533 8.9375 13.4131V11.6875H4.125C3.94266 11.6875 3.7678 11.6151 3.63886 11.4861C3.50993 11.3572 3.4375 11.1823 3.4375 11C3.4375 10.8177 3.50993 10.6428 3.63886 10.5139C3.7678 10.3849 3.94266 10.3125 4.125 10.3125H9.50125L13.1725 8.97875C13.3235 8.92414 13.489 8.92414 13.64 8.97875L13.75 9.02V2.0625C13.75 1.88016 13.6776 1.7053 13.5486 1.57636C13.4197 1.44743 13.2448 1.375 13.0625 1.375H2.0625C1.88016 1.375 1.7053 1.44743 1.57636 1.57636C1.44743 1.7053 1.375 1.88016 1.375 2.0625V17.1875C1.375 17.3698 1.44743 17.5447 1.57636 17.6736C1.7053 17.8026 1.88016 17.875 2.0625 17.875ZM16.5 11.4813L14.1831 10.6425L13.4269 10.3675L10.3125 11.4813V13.4131C10.3141 14.378 10.6115 15.3191 11.1648 16.1096C11.718 16.9 12.5003 17.5018 13.4062 17.8337C14.3122 17.5018 15.0945 16.9 15.6477 16.1096C16.201 15.3191 16.4984 14.378 16.5 13.4131V11.4813ZM13.0625 14.1556L12.1756 13.2619C12.0462 13.1324 11.8706 13.0597 11.6875 13.0597C11.5044 13.0597 11.3288 13.1324 11.1994 13.2619C11.0699 13.3913 10.9972 13.5669 10.9972 13.75C10.9972 13.9331 11.0699 14.1087 11.1994 14.2381L12.5744 15.6131C12.6383 15.6776 12.7143 15.7287 12.7981 15.7636C12.8819 15.7985 12.9717 15.8165 13.0625 15.8165C13.1533 15.8165 13.2431 15.7985 13.3269 15.7636C13.4107 15.7287 13.4867 15.6776 13.5506 15.6131L15.6131 13.5506C15.7426 13.4212 15.8153 13.2456 15.8153 13.0625C15.8153 12.8794 15.7426 12.7038 15.6131 12.5744C15.4837 12.4449 15.3081 12.3722 15.125 12.3722C14.9419 12.3722 14.7663 12.4449 14.6369 12.5744L13.0625 14.1556Z" fill="#3B82F6"></path>
</svg>
