<?xml version="1.0" encoding="UTF-8"?>
<svg xmlns="http://www.w3.org/2000/svg" width="18" height="20" viewBox="0 0 18 20" fill="none">
  <path d="M17.6451 14.0685C17.6098 13.9595 17.5477 13.861 17.4646 13.7822C17.3815 13.7033 17.28 13.6464 17.1693 13.6168L15.0965 13.0613L13.9278 11.2621C13.8654 11.1661 13.7799 11.0871 13.6793 11.0325C13.5786 10.9778 13.4658 10.9492 13.3513 10.9492C13.2368 10.9492 13.124 10.9778 13.0233 11.0325C12.9227 11.0871 12.8372 11.1661 12.7748 11.2621L11.6061 13.0606L9.53327 13.6161C9.42258 13.6457 9.32105 13.7025 9.2379 13.7814C9.15476 13.8602 9.09263 13.9586 9.05718 14.0675C9.02172 14.1765 9.01406 14.2926 9.0349 14.4052C9.05573 14.5179 9.10439 14.6236 9.17646 14.7127L10.5274 16.3805L10.414 18.5235C10.4078 18.638 10.4304 18.7522 10.4797 18.8557C10.529 18.9592 10.6034 19.0488 10.6961 19.1162C10.7888 19.1836 10.8969 19.2268 11.0106 19.2418C11.1242 19.2568 11.2399 19.2431 11.3469 19.202L13.351 18.432L15.355 19.202C15.462 19.2427 15.5774 19.2561 15.6909 19.241C15.8044 19.2259 15.9123 19.1827 16.0049 19.1155C16.0974 19.0482 16.1718 18.9589 16.2213 18.8556C16.2707 18.7524 16.2936 18.6385 16.288 18.5242L16.1752 16.3805L17.5261 14.7127C17.6726 14.5318 17.7173 14.2892 17.6458 14.0678L17.6451 14.0685ZM14.9405 15.7212C14.8337 15.8532 14.7793 16.0199 14.7878 16.1894L14.8593 17.539L13.5978 17.055C13.4391 16.9939 13.2635 16.9939 13.1048 17.055L11.8433 17.539L11.9148 16.1901C11.9234 16.0203 11.869 15.8534 11.7621 15.7212L10.9117 14.6707L12.2166 14.3208C12.3802 14.2775 12.5225 14.1743 12.6153 14.032L13.351 12.899L14.0866 14.0313C14.1794 14.1743 14.3217 14.2775 14.4853 14.3208L15.7916 14.6714L14.9405 15.7212Z" fill="#3B82F6"></path>
  <path d="M2.09051 12.4259C2.29044 11.7336 2.70951 11.1248 3.28481 10.691C3.86012 10.2571 4.56063 10.0215 5.2812 10.0196H12.0593C12.2416 10.0196 12.4165 9.94719 12.5454 9.81826C12.6743 9.68933 12.7468 9.51446 12.7468 9.33212C12.7465 9.19321 12.704 9.05767 12.6247 8.94357C12.5455 8.82946 12.4334 8.74221 12.3033 8.69344C12.8156 8.22606 13.2249 7.65706 13.5051 7.02271C13.7853 6.38837 13.9302 5.70259 13.9306 5.00912C13.9306 2.24813 11.6839 0 8.92151 0C6.15914 0 3.91239 2.24744 3.91239 5.00912C3.91239 6.44119 4.51945 7.73094 5.48608 8.64462H5.2812C4.26164 8.64744 3.27051 8.98095 2.45666 9.59509C1.64281 10.2092 1.05018 11.0708 0.767764 12.0505L0.080264 14.4822C-0.00728985 14.7813 -0.023479 15.0968 0.0329968 15.4033C0.0894727 15.7098 0.21704 15.9987 0.405452 16.247C0.593329 16.4991 0.837765 16.7036 1.11909 16.844C1.40042 16.9845 1.71078 17.0569 2.0252 17.0555H7.8167C7.99904 17.0555 8.17391 16.9831 8.30284 16.8541C8.43177 16.7252 8.5042 16.5503 8.5042 16.368C8.5042 16.1857 8.43177 16.0108 8.30284 15.8819C8.17391 15.7529 7.99904 15.6805 7.8167 15.6805H2.0252C1.92536 15.6809 1.82679 15.658 1.73728 15.6138C1.64776 15.5696 1.56973 15.5052 1.50935 15.4256C1.44896 15.3461 1.40786 15.2537 1.38929 15.1556C1.37072 15.0575 1.37518 14.9564 1.40233 14.8603L2.09051 12.4259ZM5.28739 5.00912C5.28739 3.00575 6.91745 1.375 8.92151 1.375C10.9256 1.375 12.5556 3.00575 12.5556 5.00912C12.5556 7.0125 10.9263 8.64325 8.92151 8.64325C6.91676 8.64325 5.28739 7.0125 5.28739 5.00912Z" fill="#3B82F6"></path>
</svg>
