<svg width="49" height="56" viewBox="0 0 49 56" fill="none" xmlns="http://www.w3.org/2000/svg">
<g clip-path="url(#clip0_4008_863)">
<path d="M48.5408 33.8067C48.1821 33.377 47.6796 33.0915 47.1261 33.0032C46.5727 32.9148 46.006 33.0296 45.5309 33.3262L24.4617 48.7624V49.4231C24.7657 49.3872 25.0738 49.416 25.3658 49.5075C25.6578 49.599 25.9271 49.7512 26.1559 49.9541C26.3847 50.157 26.5678 50.4059 26.6932 50.6845C26.8186 50.9631 26.8835 51.265 26.8835 51.5704C26.8835 51.8758 26.8186 52.1777 26.6932 52.4563C26.5678 52.7349 26.3847 52.9838 26.1559 53.1867C25.9271 53.3895 25.6578 53.5417 25.3658 53.6333C25.0738 53.7248 24.7657 53.7535 24.4617 53.7176C24.9505 53.7198 25.4265 53.5616 25.8162 53.2672L48.1193 36.8399C48.5539 36.4764 48.8376 35.9647 48.9155 35.4043C48.9934 34.8438 48.8598 34.2745 48.5408 33.8067Z" fill="#669DF6"/>
<path d="M24.4617 53.7177C23.9346 53.6557 23.4486 53.4028 23.096 53.007C22.7433 52.6112 22.5485 52.1001 22.5485 51.5705C22.5485 51.0409 22.7433 50.5297 23.096 50.1339C23.4486 49.7381 23.9346 49.4853 24.4617 49.4232V48.7625L3.39262 33.3263C2.9194 33.0234 2.35095 32.9049 1.79577 32.9935C1.24058 33.0821 0.73755 33.3716 0.382683 33.8068C0.0653574 34.2747 -0.061472 34.8456 0.0279795 35.4034C0.117431 35.9613 0.416449 36.4642 0.864243 36.81L23.1675 53.2373C23.5479 53.5274 24.0129 53.6856 24.4918 53.6878L24.4617 53.7177Z" fill="#AECBFA"/>
<path d="M24.4618 47.1709C23.8075 47.1708 23.1614 47.3156 22.57 47.5947C21.9785 47.8737 21.4565 48.2802 21.0414 48.7848C20.6264 49.2894 20.3287 49.8796 20.1697 50.5128C20.0108 51.1461 19.9946 51.8066 20.1222 52.4468C20.293 53.3031 20.7145 54.0897 21.3333 54.7071C21.952 55.3245 22.7404 55.7449 23.5986 55.9153C24.4569 56.0858 25.3465 55.9984 26.155 55.6643C26.9635 55.3301 27.6545 54.7643 28.1406 54.0382C28.7092 53.189 28.9652 52.1693 28.8648 51.1529C28.7645 50.1364 28.3141 49.1862 27.5903 48.4639C26.7606 47.636 25.6352 47.1709 24.4618 47.1709ZM24.4618 53.7178C24.0318 53.7178 23.6116 53.5903 23.2546 53.3514C22.8975 53.1124 22.6197 52.7729 22.4566 52.376C22.2935 51.9792 22.2524 51.5428 22.3385 51.1226C22.4247 50.7023 22.6342 50.3171 22.9404 50.016C23.2464 49.7147 23.6354 49.5112 24.0577 49.4311C24.4801 49.3511 24.9168 49.3982 25.3122 49.5665C25.7077 49.7347 26.044 50.0166 26.2785 50.3761C26.5129 50.7357 26.6349 51.1567 26.6288 51.5856C26.6288 51.8681 26.5726 52.1479 26.4633 52.4085C26.354 52.6692 26.1939 52.9056 25.9923 53.104C25.7907 53.3023 25.5515 53.4588 25.2888 53.5641C25.026 53.6695 24.7449 53.7217 24.4618 53.7178Z" fill="#4285F4"/>
<path d="M6.40247 10.4418C5.8062 10.434 5.23655 10.1942 4.81489 9.7735C4.39322 9.35278 4.15288 8.7844 4.14508 8.18945V2.54352C4.10804 2.2238 4.13919 1.89988 4.23649 1.59302C4.33378 1.28616 4.49502 1.0033 4.70962 0.763009C4.92422 0.522717 5.18732 0.330427 5.48166 0.198759C5.776 0.0670913 6.09492 -0.000976563 6.41749 -0.000976562C6.74006 -0.000976563 7.05898 0.0670913 7.35332 0.198759C7.64766 0.330427 7.91077 0.522717 8.12536 0.763009C8.33996 1.0033 8.5012 1.28616 8.59849 1.59302C8.69579 1.89988 8.72694 2.2238 8.68991 2.54352V8.18945C8.68201 8.78957 8.43753 9.36243 8.00941 9.784C7.58129 10.2056 7.00398 10.4418 6.40247 10.4418ZM6.34229 30.4128C7.60566 30.4128 8.62984 29.391 8.62984 28.1305C8.62984 26.8699 7.60566 25.848 6.34229 25.848C5.07893 25.848 4.05475 26.8699 4.05475 28.1305C4.05475 29.391 5.07893 30.4128 6.34229 30.4128ZM6.34229 23.7759C7.60566 23.7759 8.62984 22.754 8.62984 21.4935C8.62984 20.233 7.60566 19.2111 6.34229 19.2111C5.07893 19.2111 4.05475 20.233 4.05475 21.4935C4.05475 22.754 5.07893 23.7759 6.34229 23.7759ZM6.34229 17.1089C7.60566 17.1089 8.62984 16.087 8.62984 14.8264C8.62984 13.5659 7.60566 12.5441 6.34229 12.5441C5.07893 12.5441 4.05475 13.5659 4.05475 14.8264C4.05475 16.087 5.07893 17.1089 6.34229 17.1089Z" fill="#AECBFA"/>
<path d="M42.5211 17.0488C41.9196 17.0409 41.3454 16.797 40.9229 16.3698C40.5004 15.9427 40.2636 15.3666 40.2637 14.7664V9.1205C40.2637 8.52313 40.5015 7.95024 40.9248 7.52784C41.3482 7.10544 41.9224 6.86814 42.5211 6.86814C43.1198 6.86814 43.6939 7.10544 44.1173 7.52784C44.5406 7.95024 44.7785 8.52313 44.7785 9.1205V14.7664C44.7824 15.0647 44.7269 15.3608 44.6153 15.6375C44.5036 15.9143 44.338 16.1661 44.1279 16.3784C43.9179 16.5908 43.6677 16.7594 43.3919 16.8744C43.1161 16.9895 42.8201 17.0488 42.5211 17.0488ZM42.5813 30.4429C43.8445 30.4429 44.8687 29.421 44.8687 28.1606C44.8687 26.9001 43.8445 25.8782 42.5813 25.8782C41.3179 25.8782 40.2937 26.9001 40.2937 28.1606C40.2937 29.421 41.3179 30.4429 42.5813 30.4429ZM42.5813 23.6859C43.8445 23.6859 44.8687 22.664 44.8687 21.4034C44.8687 20.1429 43.8445 19.1211 42.5813 19.1211C41.3179 19.1211 40.2937 20.1429 40.2937 21.4034C40.2937 22.664 41.3179 23.6859 42.5813 23.6859ZM42.5813 4.826C43.8445 4.826 44.8687 3.80411 44.8687 2.54367C44.8687 1.28312 43.8445 0.26123 42.5813 0.26123C41.3179 0.26123 40.2937 1.28312 40.2937 2.54356C40.2937 3.80411 41.3179 4.826 42.5813 4.826Z" fill="#4285F4"/>
<path d="M24.4617 37.14C23.8655 37.1322 23.2959 36.8924 22.8742 36.4717C22.4526 36.051 22.2122 35.4826 22.2043 34.8877V29.1516C22.2685 28.5951 22.5355 28.0815 22.9545 27.7087C23.3735 27.3359 23.9154 27.1299 24.4768 27.1299C25.0382 27.1299 25.5801 27.3359 25.9991 27.7087C26.4182 28.0815 26.6852 28.5951 26.7493 29.1516V34.8276C26.7532 35.1299 26.6969 35.4298 26.5837 35.7102C26.4705 35.9905 26.3026 36.2457 26.0898 36.4608C25.877 36.6759 25.6235 36.8467 25.344 36.9633C25.0646 37.0799 24.7647 37.14 24.4617 37.14ZM24.4617 43.7769C25.7251 43.7769 26.7493 42.7551 26.7493 41.4946C26.7493 40.234 25.7251 39.2122 24.4617 39.2122C23.1984 39.2122 22.1742 40.234 22.1742 41.4946C22.1742 42.7551 23.1984 43.7769 24.4617 43.7769ZM24.4617 24.827C25.7251 24.827 26.7493 23.8052 26.7493 22.5446C26.7493 21.2841 25.7251 20.2623 24.4617 20.2623C23.1984 20.2623 22.1742 21.2841 22.1742 22.5446C22.1742 23.8052 23.1984 24.827 24.4617 24.827ZM24.4617 18.16C25.7251 18.16 26.7493 17.1382 26.7493 15.8777C26.7493 14.6171 25.7251 13.5952 24.4617 13.5952C23.1984 13.5952 22.1742 14.6171 22.1742 15.8777C22.1742 17.1382 23.1984 18.16 24.4617 18.16Z" fill="#669DF6"/>
<path d="M33.4913 23.7461C32.8951 23.7383 32.3254 23.4985 31.9037 23.0778C31.4821 22.6571 31.2418 22.0887 31.2339 21.4938V15.8478C31.1878 15.4474 31.2486 15.042 31.4104 14.6726C31.5722 14.3033 31.8291 13.9833 32.155 13.7452C32.4809 13.5071 32.8642 13.3593 33.2659 13.3169C33.6676 13.2745 34.0734 13.3389 34.4421 13.5037C34.8856 13.702 35.2543 14.0362 35.4947 14.4576C35.735 14.8791 35.8346 15.3661 35.7789 15.8478V21.4938C35.7709 22.0939 35.5264 22.6667 35.0982 23.0882C34.6701 23.5098 34.0928 23.7461 33.4913 23.7461ZM33.5215 11.4632C34.7848 11.4632 35.8089 10.4413 35.8089 9.18077C35.8089 7.92022 34.7848 6.89844 33.5215 6.89844C32.2581 6.89844 31.2339 7.92022 31.2339 9.18077C31.2339 10.4413 32.2581 11.4632 33.5215 11.4632ZM33.5215 36.99C34.7848 36.99 35.8089 35.9681 35.8089 34.7077C35.8089 33.4471 34.7848 32.4253 33.5215 32.4253C32.2581 32.4253 31.2339 33.4471 31.2339 34.7077C31.2339 35.9681 32.2581 36.99 33.5215 36.99ZM33.5215 30.3231C34.7848 30.3231 35.8089 29.3013 35.8089 28.0407C35.8089 26.7802 34.7848 25.7583 33.5215 25.7583C32.2581 25.7583 31.2339 26.7802 31.2339 28.0407C31.2339 29.3013 32.2581 30.3231 33.5215 30.3231Z" fill="#4285F4"/>
<path d="M15.402 36.99C16.6654 36.99 17.6895 35.9681 17.6895 34.7077C17.6895 33.4471 16.6654 32.4253 15.402 32.4253C14.1386 32.4253 13.1144 33.4471 13.1144 34.7077C13.1144 35.9681 14.1386 36.99 15.402 36.99ZM15.402 18.1602C16.6654 18.1602 17.6895 17.1385 17.6895 15.8779C17.6895 14.6174 16.6654 13.5955 15.402 13.5955C14.1386 13.5955 13.1144 14.6174 13.1144 15.8779C13.1144 17.1385 14.1386 18.1602 15.402 18.1602ZM15.402 11.4632C16.6654 11.4632 17.6895 10.4413 17.6895 9.18077C17.6895 7.92022 16.6654 6.89844 15.402 6.89844C14.1386 6.89844 13.1144 7.92022 13.1144 9.18077C13.1144 10.4413 14.1386 11.4632 15.402 11.4632ZM15.4321 30.3231C14.8408 30.3236 14.2722 30.0955 13.8457 29.6868C13.4192 29.278 13.1679 28.7203 13.1446 28.1308V22.4248C13.1504 21.8312 13.3909 21.264 13.8136 20.8464C14.2363 20.4288 14.8071 20.1945 15.402 20.1945C15.9969 20.1945 16.5677 20.4288 16.9904 20.8464C17.4131 21.264 17.6535 21.8312 17.6594 22.4248V28.1308C17.6439 28.7125 17.4033 29.2656 16.9881 29.6743C16.5729 30.083 16.0153 30.3155 15.4321 30.3231Z" fill="#AECBFA"/>
</g>
<defs>
<clipPath id="clip0_4008_863">
<rect width="49" height="56" fill="white"/>
</clipPath>
</defs>
</svg>
