<?xml version="1.0" encoding="UTF-8"?>
<svg xmlns="http://www.w3.org/2000/svg" width="56" height="56" viewBox="0 0 56 56" fill="none">
  <path d="M54.3864 29.6447V37.5024C54.4038 38.1007 54.2158 38.687 53.8536 39.1636C53.4914 39.6401 52.9769 39.9783 52.3957 40.1217L47.1572 41.4313C46.9484 41.4565 46.7374 41.4565 46.5286 41.4313C45.8339 41.4313 45.1677 41.1553 44.6765 40.6641C44.1853 40.1729 43.9093 39.5067 43.9093 38.812V28.3351C43.9072 27.9372 43.9957 27.5441 44.1682 27.1856C44.3406 26.8271 44.5925 26.5125 44.9046 26.2659C45.2194 26.021 45.586 25.8512 45.9764 25.7695C46.3667 25.6878 46.7706 25.6963 47.1572 25.7944L52.3957 27.104C52.9636 27.2444 53.4681 27.5708 53.8289 28.0313C54.1897 28.4918 54.3859 29.0597 54.3864 29.6447ZM9.23028 25.7158L3.99175 27.0254C3.4106 27.1688 2.8961 27.507 2.53391 27.9835C2.17171 28.4601 1.98368 29.0464 2.00111 29.6447V37.5024C1.98368 38.1007 2.17171 38.687 2.53391 39.1636C2.8961 39.6401 3.4106 39.9783 3.99175 40.1217L9.23028 41.4313C9.43906 41.4565 9.65012 41.4565 9.8589 41.4313C10.5536 41.4313 11.2198 41.1553 11.711 40.6641C12.2022 40.1729 12.4782 39.5067 12.4782 38.812V28.3351C12.49 27.9312 12.4083 27.53 12.2393 27.163C12.0704 26.796 11.8188 26.473 11.5043 26.2194C11.1898 25.9657 10.8208 25.7883 10.4263 25.7009C10.0318 25.6136 9.62248 25.6187 9.23028 25.7158ZM43.2807 24.6419C43.0502 24.9583 42.7518 25.219 42.4073 25.4048C42.0628 25.5907 41.681 25.6969 41.2901 25.7158H15.0974C14.6996 25.718 14.3065 25.6294 13.9479 25.457C13.5894 25.2845 13.2749 25.0327 13.0282 24.7205C12.7698 24.4125 12.5857 24.049 12.4903 23.6584C12.395 23.2678 12.3908 22.8604 12.4782 22.468L13.1068 19.8487C13.8319 17.0157 15.4844 14.507 17.8009 12.7222C20.1174 10.9374 22.9645 9.97919 25.8888 10.0003H30.4987C33.42 10.0011 36.2571 10.9786 38.559 12.7774C40.8608 14.5761 42.4952 17.0928 43.2021 19.9273L43.8307 22.5465C43.9165 22.9213 43.9187 23.3103 43.8373 23.6861C43.7558 24.0618 43.5926 24.4149 43.3593 24.7205L43.2807 24.6419ZM37.9112 20.4773C37.3693 18.9447 36.3654 17.6178 35.0378 16.6796C33.7102 15.7413 32.1243 15.238 30.4987 15.2388H25.8888C24.2631 15.238 22.6772 15.7413 21.3497 16.6796C20.0221 17.6178 19.0182 18.9447 18.4763 20.4773H37.9112Z" fill="#2CA9BC"></path>
  <path d="M43.9104 20.4774H12.4792C11.0899 20.4774 9.75747 21.0293 8.77505 22.0117C7.79264 22.9941 7.24072 24.3266 7.24072 25.7159V41.4314C7.24072 42.8207 7.79264 44.1531 8.77505 45.1355C9.75747 46.118 11.0899 46.6699 12.4792 46.6699H17.063C18.4862 46.6699 19.8898 46.3385 21.1628 45.702C22.4357 45.0656 23.543 44.1415 24.3969 43.0029C24.7614 42.5135 25.2357 42.1163 25.7816 41.8434C26.3274 41.5704 26.9297 41.4293 27.54 41.4314H28.8496C29.4599 41.4293 30.0622 41.5704 30.6081 41.8434C31.154 42.1163 31.6282 42.5135 31.9928 43.0029C32.8467 44.1415 33.954 45.0656 35.2269 45.702C36.4998 46.3385 37.9035 46.6699 39.3267 46.6699H43.9104C45.2997 46.6699 46.6322 46.118 47.6146 45.1355C48.597 44.1531 49.1489 42.8207 49.1489 41.4314V25.7159C49.1489 24.3266 48.597 22.9941 47.6146 22.0117C46.6322 21.0293 45.2997 20.4774 43.9104 20.4774Z" fill="black"></path>
</svg>
