<svg width="56" height="56" viewBox="0 0 56 56" fill="none" xmlns="http://www.w3.org/2000/svg">
<path opacity="0.8" d="M35 40.1239L28 28L21 40.1239L28 52.2482L35 40.1239Z" fill="black"/>
<path opacity="0.6" d="M42 28.0002L35 15.876L28 28.0002L35 40.1242L42 28.0002Z" fill="black"/>
<path opacity="0.6" d="M28 28.0002L21 15.876L14 28.0002L21 40.1242L28 28.0002Z" fill="black"/>
<path opacity="0.45" d="M49 15.876L42 3.75146L35 15.876L42 28.0002L49 15.876Z" fill="black"/>
<path opacity="0.45" d="M21 15.8759L28 28.0001L35 15.8759L31.5 9.81348H24.5L21 15.8759Z" fill="black"/>
<path opacity="0.45" d="M21 15.876L14 3.75146L7 15.876L14 28.0002L21 15.876Z" fill="black"/>
<path opacity="0.3" d="M56 3.75146H42L49 15.8757L56 3.75146Z" fill="black"/>
<path opacity="0.3" d="M14 3.75146H0L7 15.8757L14 3.75146Z" fill="black"/>
</svg>
