<svg width="56" height="56" viewBox="0 0 56 56" fill="none" xmlns="http://www.w3.org/2000/svg">
<rect width="56" height="56" fill="#0E1218"/>
<path d="M47.9173 27.9035L44.8584 26.1392C43.9903 18.2412 37.721 11.9559 29.8257 11.0875L28.0758 8.0827C28.0069 7.97243 27.8553 7.97243 27.7864 8.0827L26.064 11.0875C18.1275 11.9421 11.8305 18.2688 10.99 26.2219L8.08267 27.9035C7.97244 27.9724 7.97244 28.124 8.08267 28.1792L11.0038 29.8608C11.8581 37.7863 18.155 44.0855 26.0778 44.94L27.8002 47.9173C27.8691 48.0276 28.0206 48.0276 28.0895 47.9173L29.8119 44.94C37.7072 44.0855 43.9766 37.8277 44.8584 29.9435L47.9173 28.1654C48.0276 28.124 48.0276 27.9586 47.9173 27.9035ZM27.9242 13.417C28.4202 13.7753 28.93 14.1475 29.4399 14.5059C29.4261 15.0848 29.4261 15.6499 29.4123 16.2288C28.4616 16.2288 27.497 16.2288 26.5463 16.2426C26.5463 15.6637 26.5325 15.0848 26.5325 14.5197C26.9872 14.1475 27.4557 13.7891 27.9242 13.417ZM12.8226 28.0138C12.8226 26.8008 12.9604 25.6292 13.236 24.4852C14.0076 22.1695 15.2339 20.543 16.0606 19.6058C15.854 20.1984 15.2339 22.1833 16.0606 24.4576C17.0803 27.297 19.5467 28.441 19.9876 28.6478C17.6039 28.634 15.2201 28.6065 12.8364 28.5927C12.8364 28.3997 12.8226 28.2067 12.8226 28.0138ZM24.8102 30.7567C24.4244 31.5424 23.6114 31.7215 23.5012 31.7491C23.0189 32.1626 22.0819 33.0861 21.6961 34.561C20.8695 37.7312 23.4598 40.295 23.5838 40.4052C22.6607 40.2812 18.7337 39.6333 16.0606 36.1599C14.6139 34.2853 14.1316 32.3556 13.9525 31.2529C14.4485 31.6388 15.165 32.0799 16.1158 32.2729C19.1195 32.8656 21.5032 30.3294 21.6961 30.1089C21.6824 30.0262 21.5446 29.1578 22.1508 28.5789C22.7571 28 23.7905 28.0689 24.4106 28.6202C25.0444 29.1854 25.1409 30.0951 24.8102 30.7567ZM29.4399 42.1971C28.9989 42.8449 28.2135 42.8725 28.0895 42.8863C27.9655 42.8863 27.0561 42.9138 26.5601 42.1695C26.2156 41.6458 26.2018 40.9704 26.5187 40.4052C26.5325 40.3777 26.6428 40.2674 26.6152 40.0882C26.6014 39.9779 26.5463 39.909 26.5187 39.8677V23.5479C27.4833 23.5479 28.4478 23.5616 29.4123 23.5616C29.4123 28.9786 29.3985 34.3956 29.3985 39.8125C29.3847 39.8125 29.2607 39.909 29.2607 40.0606C29.2607 40.226 29.3847 40.3225 29.3985 40.3225C29.7843 40.929 29.7981 41.6595 29.4399 42.1971ZM29.495 21.6182C28.5029 21.6182 27.497 21.6044 26.505 21.6044C26.3258 21.5906 26.064 21.5906 25.7609 21.6182C24.2177 21.7973 23.2118 22.8173 22.95 23.0792C21.9442 24.1268 21.6824 25.326 21.6135 25.8084C21.3103 25.5327 18.8302 23.2308 19.0644 19.592C19.2436 16.8766 20.8143 15.1123 21.6961 14.2991C22.3024 16.4631 24.2866 18.062 26.6428 18.062H29.2332C31.6031 18.062 33.6011 16.4631 34.1936 14.2715C34.6069 14.6437 36.6049 16.5183 36.784 19.6334C36.9907 23.1481 34.7034 25.4362 34.3727 25.767C34.3176 25.3535 34.1109 24.0441 32.9948 22.9552C32.0027 21.9903 30.8729 21.7698 30.5146 21.7009C30.115 21.6182 29.7568 21.6044 29.495 21.6182ZM39.9531 36.1737C39.6638 36.5596 38.217 38.3653 35.599 39.5231C34.3451 40.0744 33.2153 40.3087 32.4299 40.419C32.8846 39.9917 33.7526 39.0544 34.1798 37.5796C34.3451 37.0282 34.6621 35.9256 34.3176 34.561C33.918 33.0034 32.9121 32.0799 32.5126 31.7491C31.6858 31.5424 31.0933 30.867 31.0244 30.1089C31.0244 30.0537 30.9555 29.2129 31.6031 28.6478C32.1543 28.1654 33.105 27.9862 33.7526 28.51C34.2074 28.8821 34.414 29.5024 34.3038 30.1226C34.5105 30.357 36.8805 32.8656 39.8842 32.2867C40.835 32.1075 41.5653 31.6664 42.0475 31.2805C41.896 32.2867 41.4413 34.244 39.9531 36.1737ZM43.012 28.634C40.6145 28.634 38.217 28.634 35.8195 28.6202C36.2466 28.441 38.7682 27.297 39.7878 24.43C40.587 22.1695 39.9669 20.226 39.7602 19.6334C40.5456 20.4466 41.8546 22.0317 42.5987 24.43C42.5987 24.43 42.5987 24.43 42.5987 24.4438C42.8743 25.6016 43.0258 26.8008 43.0258 28.0138C43.0258 28.2205 43.0258 28.4273 43.012 28.634Z" fill="white"/>
</svg>
