<?xml version="1.0" encoding="UTF-8"?>
<svg xmlns="http://www.w3.org/2000/svg" width="25" height="25" viewBox="0 0 25 25" fill="none">
  <path d="M7.08939 0.0395508C3.18299 0.0395508 0 3.22048 0 7.13101C0 11.0415 3.18299 14.2245 7.08939 14.2245C7.54411 14.2245 7.99882 14.1811 8.43286 14.0923C8.26751 14.733 8.18484 15.4109 8.18484 16.1013C8.18484 20.5471 11.8019 24.1621 16.2436 24.1621C20.6895 24.1621 24.3044 20.5471 24.3044 16.1013C24.3044 11.6595 20.6895 8.04457 16.2436 8.04457C15.4892 8.04457 14.7575 8.14791 14.0754 8.34013C14.1374 7.94123 14.1788 7.53612 14.1788 7.13101C14.1788 3.22048 10.9958 0.0395508 7.08939 0.0395508ZM7.08939 1.35202C10.2724 1.35202 12.856 3.93148 12.856 7.13101C12.856 7.74487 12.7733 8.35047 12.5666 8.93126C11.0165 9.72288 9.75566 11.0147 8.99092 12.5834C8.37086 12.8025 7.73013 12.9121 7.08939 12.9121C3.88573 12.9121 1.30213 10.3305 1.30213 7.13101C1.30213 3.93148 3.88573 1.35202 7.08939 1.35202ZM16.2436 9.35704C19.9784 9.35704 22.992 12.3705 22.992 16.1013C22.992 19.8361 19.9784 22.8496 16.2436 22.8496C12.5046 22.8496 9.50764 19.8361 9.50764 16.1013C9.50764 12.3705 12.5046 9.35704 16.2436 9.35704Z" fill="white"></path>
  <path d="M16.2436 11.5664C16.1572 11.5663 16.0717 11.5832 15.9919 11.6162C15.9121 11.6491 15.8396 11.6976 15.7785 11.7586C15.7174 11.8197 15.669 11.8922 15.636 11.972C15.6031 12.0518 15.5862 12.1373 15.5863 12.2237V12.5833C14.7368 12.8623 14.0961 13.6726 14.0961 14.6171C14.0961 15.7932 15.0675 16.7563 16.2436 16.7563C16.7086 16.7563 17.0682 17.118 17.0682 17.5872C17.0682 18.0523 16.7086 18.414 16.2436 18.414C16.0141 18.414 15.8116 18.321 15.6586 18.1722C15.5358 18.051 15.3702 17.983 15.1977 17.983C15.0252 17.983 14.8596 18.051 14.7368 18.1722C14.615 18.295 14.5467 18.4611 14.5467 18.6341C14.5467 18.8071 14.615 18.9731 14.7368 19.096C15.0055 19.3647 15.3362 19.5611 15.7186 19.6603V19.9827C15.7184 20.0689 15.7353 20.1543 15.7681 20.2339C15.801 20.3136 15.8492 20.386 15.91 20.4471C15.9709 20.5081 16.0432 20.5566 16.1227 20.5897C16.2023 20.6228 16.2876 20.6399 16.3738 20.64C16.4601 20.6401 16.5457 20.6232 16.6255 20.5902C16.7053 20.5573 16.7778 20.5089 16.8388 20.4478C16.8999 20.3867 16.9483 20.3142 16.9813 20.2344C17.0143 20.1546 17.0312 20.0691 17.031 19.9827V19.5735C17.8185 19.2552 18.3807 18.4842 18.3807 17.5872C18.3807 16.4112 17.4196 15.4439 16.2436 15.4439C15.7785 15.4439 15.4189 15.0822 15.4189 14.6171C15.4189 14.1541 15.7785 13.7924 16.2436 13.7924C16.4771 13.7924 16.6797 13.8854 16.8285 14.0322C16.8895 14.0934 16.9619 14.142 17.0417 14.1752C17.1215 14.2084 17.2071 14.2254 17.2935 14.2254C17.38 14.2254 17.4655 14.2084 17.5453 14.1752C17.6251 14.142 17.6976 14.0934 17.7586 14.0322C17.8816 13.9091 17.9508 13.7422 17.9508 13.5682C17.9508 13.3941 17.8816 13.2272 17.7586 13.1042C17.5179 12.8641 17.223 12.6854 16.8988 12.5833V12.2237C16.8989 12.1375 16.8821 12.0521 16.8492 11.9725C16.8163 11.8928 16.7681 11.8204 16.7073 11.7593C16.6464 11.6983 16.5742 11.6499 16.4946 11.6168C16.415 11.5837 16.3297 11.5665 16.2436 11.5664Z" fill="white"></path>
  <path d="M7.44081 3.71631C5.68396 3.71631 4.31982 5.28507 4.31982 7.12459C4.31982 8.96205 5.68396 10.5308 7.44081 10.5308C8.08154 10.5308 8.70161 10.3159 9.21833 9.92728C9.28686 9.87503 9.34444 9.80979 9.38776 9.73529C9.43109 9.66079 9.45931 9.57849 9.47083 9.49308C9.48234 9.40767 9.47692 9.32083 9.45488 9.23752C9.43283 9.15421 9.39459 9.07605 9.34234 9.00752C9.23765 8.87143 9.08379 8.7818 8.91378 8.75784C8.74376 8.73389 8.57113 8.77752 8.43291 8.87937C8.12288 9.10466 7.79218 9.21834 7.44081 9.21834C6.46938 9.21834 5.62196 8.32545 5.62196 7.12459C5.62196 5.92167 6.46938 5.02878 7.44081 5.02878C7.79218 5.02878 8.12288 5.14245 8.43291 5.36981C8.57138 5.47144 8.74418 5.51473 8.91421 5.49039C9.08424 5.46604 9.23795 5.376 9.34234 5.2396C9.44722 5.10132 9.49305 4.92713 9.46981 4.75515C9.44657 4.58316 9.35614 4.42738 9.21833 4.3219C8.70161 3.93126 8.08154 3.71631 7.44081 3.71631Z" fill="white"></path>
  <path d="M4.15441 6.46774C4.06771 6.46706 3.98174 6.48356 3.90145 6.5163C3.82117 6.54904 3.74817 6.59736 3.68667 6.65847C3.62517 6.71959 3.5764 6.79228 3.54315 6.87236C3.50991 6.95244 3.49287 7.0383 3.49301 7.12501C3.49314 7.21153 3.51039 7.29718 3.54375 7.37702C3.57711 7.45685 3.62593 7.52931 3.68741 7.5902C3.74888 7.6511 3.82179 7.69923 3.90193 7.73184C3.98208 7.76445 4.06789 7.78089 4.15441 7.78021H7.29607C7.38259 7.78089 7.4684 7.76445 7.54854 7.73184C7.62869 7.69923 7.7016 7.6511 7.76307 7.5902C7.82454 7.52931 7.87336 7.45685 7.90673 7.37702C7.94009 7.29718 7.95733 7.21153 7.95747 7.12501C7.95761 7.0383 7.94056 6.95244 7.90732 6.87236C7.87408 6.79228 7.8253 6.71959 7.7638 6.65847C7.70231 6.59736 7.62931 6.54904 7.54902 6.5163C7.46874 6.48356 7.38277 6.46706 7.29607 6.46774H4.15441ZM14.4888 0.000476268C14.3932 0.00284893 14.2993 0.026092 14.2136 0.0685782C14.1279 0.111064 14.0525 0.171767 13.9928 0.246435C13.9399 0.315093 13.9011 0.393549 13.8787 0.477272C13.8563 0.560996 13.8507 0.648328 13.8622 0.734228C13.8737 0.820127 13.9022 0.902892 13.9459 0.977744C13.9896 1.05259 14.0476 1.11805 14.1168 1.17033L18.234 4.436L17.1613 4.4856C16.9875 4.49442 16.8244 4.57188 16.7077 4.70095C16.5911 4.83001 16.5304 5.00012 16.5391 5.17387C16.5475 5.34687 16.6238 5.50956 16.7516 5.62649C16.8794 5.74341 17.0482 5.80509 17.2212 5.79807L20.0487 5.66579C20.1418 5.66122 20.2329 5.63686 20.3159 5.59433C20.3989 5.55179 20.4719 5.49206 20.5299 5.41911C20.588 5.34616 20.6299 5.26167 20.6528 5.17127C20.6756 5.08087 20.679 4.98664 20.6626 4.89484L20.1479 2.11076C20.1321 2.02588 20.0998 1.94496 20.0527 1.87261C20.0056 1.80026 19.9447 1.73792 19.8734 1.68915C19.8022 1.64038 19.7221 1.60615 19.6376 1.58841C19.5531 1.57067 19.4659 1.56977 19.3811 1.58577C19.2108 1.61905 19.0607 1.7184 18.9634 1.8621C18.8662 2.0058 18.8299 2.18215 18.8623 2.35258L19.0545 3.41289L14.9228 0.143091C14.7999 0.0450975 14.6459 -0.00550996 14.4888 0.000476268ZM4.91916 18.4019C4.8846 18.4012 4.85004 18.4033 4.81581 18.4081L2.00486 18.6541C1.912 18.6628 1.82207 18.6912 1.74107 18.7374C1.66006 18.7836 1.58983 18.8466 1.53507 18.9221C1.48031 18.9976 1.44227 19.0839 1.42348 19.1752C1.4047 19.2666 1.4056 19.3609 1.42613 19.4519L2.0462 22.2091C2.06489 22.2935 2.10006 22.3733 2.1497 22.444C2.19933 22.5148 2.26245 22.575 2.33542 22.6213C2.4084 22.6676 2.4898 22.699 2.57495 22.7137C2.6601 22.7285 2.74732 22.7263 2.83161 22.7072C2.91601 22.6883 2.99584 22.6529 3.06651 22.603C3.13717 22.5531 3.19728 22.4898 3.24338 22.4166C3.28948 22.3434 3.32066 22.2619 3.33513 22.1766C3.34959 22.0913 3.34705 22.004 3.32766 21.9197L3.07963 20.847L7.25473 24.1499C7.32267 24.2045 7.40082 24.2451 7.48462 24.2692C7.56841 24.2933 7.65617 24.3004 7.74276 24.2902C7.82935 24.28 7.91304 24.2527 7.98894 24.2098C8.06485 24.1669 8.13144 24.1093 8.18482 24.0403C8.23772 23.9717 8.27649 23.8932 8.29889 23.8095C8.3213 23.7258 8.3269 23.6384 8.31537 23.5525C8.30384 23.4666 8.27541 23.3839 8.23172 23.309C8.18802 23.2342 8.12994 23.1687 8.06081 23.1164L3.88572 19.8074L4.93983 19.7144C5.02593 19.7072 5.10978 19.6831 5.18655 19.6435C5.26332 19.6038 5.33151 19.5494 5.3872 19.4834C5.44289 19.4173 5.48499 19.3409 5.51108 19.2585C5.53717 19.1761 5.54673 19.0894 5.53922 19.0034C5.52617 18.845 5.45614 18.6968 5.34211 18.5862C5.22808 18.4756 5.0778 18.4101 4.91916 18.4019Z" fill="white"></path>
</svg>
