<?xml version="1.0" encoding="UTF-8"?>
<svg xmlns="http://www.w3.org/2000/svg" width="32" height="32" viewBox="0 0 32 32" fill="none">
  <path d="M5.83325 6.5625C6.43731 6.5625 6.927 6.07281 6.927 5.46875C6.927 4.86469 6.43731 4.375 5.83325 4.375C5.22919 4.375 4.7395 4.86469 4.7395 5.46875C4.7395 6.07281 5.22919 6.5625 5.83325 6.5625Z" fill="#9810FA"></path>
  <path d="M9.47925 6.5625C10.0833 6.5625 10.573 6.07281 10.573 5.46875C10.573 4.86469 10.0833 4.375 9.47925 4.375C8.87519 4.375 8.3855 4.86469 8.3855 5.46875C8.3855 6.07281 8.87519 6.5625 9.47925 6.5625Z" fill="#9810FA"></path>
  <path d="M13.125 6.5625C13.7291 6.5625 14.2188 6.07281 14.2188 5.46875C14.2188 4.86469 13.7291 4.375 13.125 4.375C12.5209 4.375 12.0312 4.86469 12.0312 5.46875C12.0312 6.07281 12.5209 6.5625 13.125 6.5625Z" fill="#9810FA"></path>
  <path fill-rule="evenodd" clip-rule="evenodd" d="M31.3542 17.1354V4.73958C31.3542 3.48257 30.8548 2.27704 29.966 1.38819C29.0771 0.499347 27.8716 0 26.6146 0H4.73958C3.48257 0 2.27704 0.499347 1.38819 1.38819C0.499347 2.27704 0 3.48257 0 4.73958V26.6146C0 27.8716 0.499347 29.0771 1.38819 29.966C2.27704 30.8548 3.48257 31.3542 4.73958 31.3542H15.6771C15.9672 31.3542 16.2454 31.2389 16.4505 31.0338C16.6556 30.8287 16.7708 30.5505 16.7708 30.2604C16.7708 29.9703 16.6556 29.6921 16.4505 29.487C16.2454 29.2819 15.9672 29.1667 15.6771 29.1667H4.73958C4.06273 29.1667 3.4136 28.8978 2.93499 28.4192C2.45638 27.9406 2.1875 27.2914 2.1875 26.6146V4.73958C2.1875 3.32938 3.32938 2.1875 4.73958 2.1875H26.6146C28.0248 2.1875 29.1667 3.32938 29.1667 4.73958V17.1354C29.1667 17.4255 29.2819 17.7037 29.487 17.9088C29.6921 18.1139 29.9703 18.2292 30.2604 18.2292C30.5505 18.2292 30.8287 18.1139 31.0338 17.9088C31.2389 17.7037 31.3542 17.4255 31.3542 17.1354Z" fill="#9810FA"></path>
  <path fill-rule="evenodd" clip-rule="evenodd" d="M30.2604 8.75H1.09375C0.80367 8.75 0.52547 8.86523 0.320352 9.07035C0.115234 9.27547 0 9.55367 0 9.84375C0 10.1338 0.115234 10.412 0.320352 10.6171C0.52547 10.8223 0.80367 10.9375 1.09375 10.9375H30.2604C30.5505 10.9375 30.8287 10.8223 31.0338 10.6171C31.2389 10.412 31.3542 10.1338 31.3542 9.84375C31.3542 9.55367 31.2389 9.27547 31.0338 9.07035C30.8287 8.86523 30.5505 8.75 30.2604 8.75ZM29.4685 29.6333L26.4046 25.2583C26.3244 25.1355 26.2204 25.0301 26.0987 24.9483C25.977 24.8665 25.8401 24.81 25.6961 24.7822C25.5521 24.7543 25.404 24.7558 25.2605 24.7864C25.1171 24.8169 24.9813 24.876 24.8612 24.9602C24.7411 25.0443 24.6391 25.1517 24.5613 25.276C24.4835 25.4004 24.4316 25.5391 24.4085 25.6839C24.3854 25.8287 24.3917 25.9767 24.4269 26.119C24.4622 26.2614 24.5257 26.3952 24.6138 26.5125L27.6763 30.8875C27.7586 31.0052 27.8633 31.1055 27.9844 31.1827C28.1056 31.2599 28.2407 31.3125 28.3821 31.3375C28.5236 31.3625 28.6686 31.3594 28.8088 31.3283C28.949 31.2973 29.0818 31.2389 29.1995 31.1566C29.3172 31.0742 29.4175 30.9695 29.4947 30.8484C29.5719 30.7273 29.6245 30.5921 29.6495 30.4507C29.6745 30.3092 29.6713 30.1642 29.6403 30.024C29.6093 29.8838 29.5509 29.751 29.4685 29.6333Z" fill="#9810FA"></path>
  <path fill-rule="evenodd" clip-rule="evenodd" d="M30.3582 21.6329L20.9228 16.189C20.5944 16.0007 20.2193 15.9098 19.8413 15.9268C19.4632 15.9439 19.0978 16.0682 18.7878 16.2852C18.4777 16.5022 18.2359 16.8031 18.0905 17.1525C17.9451 17.5019 17.9022 17.8854 17.9667 18.2584L19.8553 28.9873C19.9221 29.368 20.0984 29.7211 20.3626 30.0033C20.6267 30.2855 20.9673 30.4847 21.3428 30.5766C21.7183 30.6684 22.1124 30.649 22.477 30.5206C22.8417 30.3922 23.161 30.1604 23.3961 29.8536L25.954 26.5198L29.9615 25.2569C30.3299 25.1404 30.6564 24.9194 30.9014 24.6206C31.1464 24.3218 31.2992 23.9583 31.3413 23.5742C31.3833 23.1902 31.3127 22.8022 31.1382 22.4575C30.9636 22.1128 30.6926 21.8263 30.3582 21.6329ZM28.878 23.3042L24.9667 24.5379C24.7527 24.6046 24.5647 24.7361 24.4286 24.9142L21.9319 28.1692L20.1936 18.2934L28.878 23.3042Z" fill="#9810FA"></path>
</svg>
