<?xml version="1.0" encoding="UTF-8"?>
<svg xmlns="http://www.w3.org/2000/svg" width="56" height="56" viewBox="0 0 56 56" fill="none">
  <g clip-path="url(#clip0_151_1029)">
    <path d="M3.97998 27.9993C3.97998 37.507 9.50548 45.7235 17.5179 49.6172L6.05964 18.2238C4.72683 21.2111 3.97998 24.517 3.97998 27.9993Z" fill="#21759B"></path>
    <path d="M44.2169 26.7872C44.2169 23.8187 43.1505 21.7628 42.236 20.1627C41.0183 18.1841 39.877 16.5085 39.877 14.5299C39.877 12.3219 41.5517 10.2665 43.9107 10.2665C44.0172 10.2665 44.1182 10.2797 44.2219 10.2857C39.9483 6.37051 34.2546 3.9801 28.001 3.9801C19.6092 3.9801 12.2262 8.28558 7.93115 14.8069C8.49472 14.8238 9.02583 14.8357 9.47696 14.8357C11.9895 14.8357 15.8787 14.5308 15.8787 14.5308C17.1735 14.4545 17.3262 16.3563 16.0327 16.5094C16.0327 16.5094 14.7314 16.6625 13.2834 16.7384L22.0308 42.7564L27.2875 26.9911L23.5451 16.7375C22.2516 16.6616 21.0262 16.5085 21.0262 16.5085C19.7317 16.4326 19.8835 14.4536 21.1779 14.5299C21.1779 14.5299 25.1448 14.8348 27.5051 14.8348C30.0171 14.8348 33.9068 14.5299 33.9068 14.5299C35.2026 14.4536 35.3548 16.3554 34.0608 16.5085C34.0608 16.5085 32.7568 16.6616 31.3116 16.7375L39.9922 42.5585L42.3882 34.5522C43.4266 31.2298 44.2169 28.8435 44.2169 26.7872Z" fill="#21759B"></path>
    <path d="M28.4224 30.1005L21.2153 51.0424C23.3672 51.6749 25.643 52.0209 28.001 52.0209C30.7982 52.0209 33.4808 51.5373 35.9777 50.6593C35.9133 50.5565 35.8548 50.4473 35.8068 50.3284L28.4224 30.1005Z" fill="#21759B"></path>
    <path d="M49.0781 16.4751C49.1814 17.2402 49.2399 18.0615 49.2399 18.945C49.2399 21.3825 48.7847 24.1226 47.4135 27.5487L40.0762 48.7621C47.2174 44.5978 52.0207 36.8612 52.0207 27.9998C52.0212 23.8237 50.9544 19.8966 49.0781 16.4751Z" fill="#21759B"></path>
    <path d="M28.0009 0C12.5616 0 0 12.5604 0 27.9993C0 43.4401 12.5616 56 28.0009 56C43.4398 56 56.0032 43.4401 56.0032 27.9993C56.0027 12.5604 43.4398 0 28.0009 0ZM28.0009 54.7166C13.2696 54.7166 1.2839 42.7312 1.2839 27.9993C1.2839 13.2684 13.2691 1.28387 28.0009 1.28387C42.7318 1.28387 54.7166 13.2684 54.7166 27.9993C54.7166 42.7312 42.7318 54.7166 28.0009 54.7166Z" fill="#21759B"></path>
  </g>
  <defs>
    <clipPath id="clip0_151_1029">
      <rect width="56" height="56" fill="white"></rect>
    </clipPath>
  </defs>
</svg>
