<svg width="56" height="56" viewBox="0 0 56 56" fill="none" xmlns="http://www.w3.org/2000/svg">
<g clip-path="url(#clip0_4006_858)">
<path d="M28 56C20.5821 55.992 13.4615 53.0471 8.21355 47.7994C2.96556 42.5517 0.00803674 35.4263 0 28.004C0.00803674 20.5737 2.96556 13.4564 8.21355 8.20863C13.4615 2.96088 20.5821 0.00802407 28 0C35.4179 0.00802407 42.5385 2.96088 47.7865 8.20863C53.0344 13.4564 55.992 20.5737 56 28.004C55.992 35.4343 53.0344 42.5517 47.7865 47.7994C42.5385 53.0471 35.4179 56 28 56ZM28 2.15848C21.1527 2.1665 14.5867 4.88666 9.74053 9.7332C4.89437 14.5717 2.16188 21.1434 2.15385 28.004C2.16188 34.8566 4.88634 41.4363 9.73249 46.2828C14.5786 51.1294 21.1447 53.8495 28 53.8495C34.8473 53.8495 41.4214 51.1294 46.2675 46.2828C51.1137 41.4283 53.8381 34.8566 53.8462 28.004C53.8381 21.1515 51.1056 14.5797 46.2675 9.7332C41.4133 4.88666 34.8473 2.15848 28 2.15848Z" fill="url(#paint0_linear_4006_858)"/>
<path d="M31.5362 51.5705C25.3881 51.5625 19.4972 49.1231 15.1493 44.7741C10.8014 40.425 8.3502 34.5273 8.34216 28.3729C8.3502 22.2184 10.8014 16.3207 15.1493 11.9717C19.4972 7.62263 25.3881 5.17529 31.5362 5.17529C37.6843 5.18332 43.5752 7.62263 47.9231 11.9717C52.271 16.3207 54.7222 22.2184 54.7302 28.3729C54.7222 34.5273 52.271 40.425 47.9231 44.7741C43.5833 49.1231 37.6843 51.5705 31.5362 51.5705ZM31.5362 6.8443C25.8301 6.85232 20.3651 9.11511 16.3307 13.1512C12.2962 17.1873 10.0299 22.6597 10.0138 28.3649C10.0218 34.07 12.2962 39.5424 16.3307 43.5785C20.3651 47.6146 25.8301 49.8774 31.5362 49.8854C37.2423 49.8774 42.7073 47.6146 46.7417 43.5785C50.7761 39.5424 53.0505 34.07 53.0586 28.3649C53.0505 22.6597 50.7761 17.1873 46.7417 13.1512C42.7073 9.12314 37.2423 6.85232 31.5362 6.8443Z" fill="url(#paint1_linear_4006_858)"/>
<path d="M35.0804 47.1417C30.2021 47.1417 25.5327 45.1998 22.085 41.7495C18.6372 38.2991 16.6923 33.6211 16.6923 28.7425C16.7004 23.8638 18.6372 19.1858 22.085 15.7354C25.5327 12.2851 30.2101 10.3513 35.0804 10.3433C39.9587 10.3433 44.628 12.2851 48.0758 15.7354C51.5236 19.1858 53.4604 23.8638 53.4684 28.7425C53.4604 33.6211 51.5236 38.2991 48.0758 41.7495C44.628 45.1998 39.9506 47.1417 35.0804 47.1417ZM35.0804 11.5549C30.5236 11.5549 26.1516 13.3683 22.9288 16.594C19.7061 19.8197 17.8898 24.1928 17.8818 28.7505C17.8898 33.3082 19.7061 37.6813 22.9288 40.907C26.1516 44.1326 30.5236 45.9461 35.0804 45.9461C39.6372 45.9461 44.0092 44.1326 47.2319 40.907C50.4547 37.6813 52.271 33.3082 52.279 28.7505C52.271 24.1848 50.4547 19.8117 47.2319 16.594C44.0012 13.3683 39.6372 11.5549 35.0804 11.5549Z" fill="url(#paint2_linear_4006_858)"/>
<path d="M38.6166 42.7119C35.0161 42.7119 31.5603 41.2756 29.0127 38.732C26.465 36.1803 25.0345 32.73 25.0264 29.1272C25.0345 25.5244 26.465 22.066 29.0127 19.5143C31.5603 16.9627 35.0161 15.5344 38.6166 15.5264C42.217 15.5264 45.6728 16.9627 48.2205 19.5143C50.7681 22.066 52.1986 25.5163 52.2067 29.1272C52.1986 32.73 50.7681 36.1884 48.2205 38.732C45.6728 41.2756 42.217 42.7119 38.6166 42.7119ZM38.6166 16.2485C35.2009 16.2485 31.93 17.6126 29.519 20.0198C27.1079 22.4351 25.7497 25.7089 25.7417 29.1191C25.7497 32.5374 27.1079 35.8032 29.519 38.2184C31.93 40.6337 35.2009 41.9898 38.6166 41.9898C42.0241 41.9898 45.2951 40.6337 47.7141 38.2184C50.1252 35.8032 51.4834 32.5294 51.4914 29.1191C51.4834 25.7009 50.1252 22.4271 47.7141 20.0198C45.3031 17.6046 42.0322 16.2485 38.6166 16.2485Z" fill="url(#paint3_linear_4006_858)"/>
</g>
<defs>
<linearGradient id="paint0_linear_4006_858" x1="57.5643" y1="47.943" x2="-4.12001" y2="6.20742" gradientUnits="userSpaceOnUse">
<stop stop-color="#0F0C48"/>
<stop offset="1" stop-color="#262769"/>
</linearGradient>
<linearGradient id="paint1_linear_4006_858" x1="56.0338" y1="44.8927" x2="4.92874" y2="10.3172" gradientUnits="userSpaceOnUse">
<stop stop-color="#0F0C48"/>
<stop offset="1" stop-color="#262769"/>
</linearGradient>
<linearGradient id="paint2_linear_4006_858" x1="54.5006" y1="41.8492" x2="13.9773" y2="14.4328" gradientUnits="userSpaceOnUse">
<stop stop-color="#0F0C48"/>
<stop offset="1" stop-color="#262769"/>
</linearGradient>
<linearGradient id="paint3_linear_4006_858" x1="52.9691" y1="38.8" x2="23.0254" y2="18.5435" gradientUnits="userSpaceOnUse">
<stop stop-color="#0F0C48"/>
<stop offset="1" stop-color="#262769"/>
</linearGradient>
<clipPath id="clip0_4006_858">
<rect width="56" height="56" fill="white"/>
</clipPath>
</defs>
</svg>
