<svg width="56" height="56" viewBox="0 0 56 56" fill="none" xmlns="http://www.w3.org/2000/svg">
<rect width="56" height="56" fill="white"/>
<path d="M33.4728 28H48.8606L40.5652 48.3256C39.4101 51.1626 36.6808 53 33.6344 53H18.2406L26.536 32.6744C27.6971 29.7836 30.4264 28 33.4728 28Z" fill="#94C5FF"/>
<path d="M48.8605 28L39.5117 39.8686C38.0932 41.7599 35.9385 42.9689 33.4188 42.9689H22.2325L26.488 32.6205C27.6431 29.8374 30.3723 28 33.4188 28H48.8605Z" fill="#1A32AF"/>
<path d="M28.3255 15.4966H43.7133L35.4179 35.8222C34.2627 38.6591 31.5335 40.4966 28.4871 40.4966H13.0933L21.3887 20.171C22.5498 17.334 25.3329 15.4966 28.3255 15.4966Z" fill="#0092FF"/>
<path d="M43.7671 15.4966L34.4183 27.3651C32.9998 29.2565 30.8451 30.4655 28.3254 30.4655H17.1392L21.3946 20.1171C22.5497 17.334 25.279 15.4966 28.3254 15.4966H43.7671Z" fill="#1A32AF"/>
<path d="M23.2322 3H38.62L30.3186 23.3256C29.1635 26.1626 26.4343 28 23.3878 28H8L16.2954 7.67441C17.4565 4.83744 20.1858 3 23.2322 3Z" fill="#0055FF"/>
</svg>
