<svg width="56" height="56" viewBox="0 0 56 56" fill="none" xmlns="http://www.w3.org/2000/svg">
<path d="M28 0C12.5433 0 0 12.5433 0 28C0 43.4567 12.5433 56 28 56C43.4567 56 56 43.4567 56 28C56 12.5433 43.4567 0 28 0ZM24.6878 13.2895C21.0895 14.5878 20.4352 16.0905 20.4352 18.7076C20.4352 21.3246 20.4659 19.7503 20.5068 20.3636C20.5374 20.9566 20.5783 21.5495 20.5783 22.0197C20.5783 24.8003 19.3311 26.395 16.3972 27.3662L14.4651 28L16.3972 28.6338C19.3209 29.5947 20.5783 31.1997 20.5783 33.9803C20.5783 36.7609 20.5476 35.0434 20.5068 35.6364C20.4761 36.2497 20.4352 36.8222 20.4352 37.2924C20.4352 39.9095 21.0792 41.4224 24.6878 42.7105V46.3089C17.1333 44.8266 15.5896 42.1278 15.5896 38.2738C15.5896 34.4199 15.6203 37.4151 15.651 36.8529C15.6816 36.2395 15.7225 35.5955 15.7225 35.1866C15.7225 31.4451 14.1073 29.9116 10.1409 29.9116H9.66046V26.0781H10.1409C14.0971 26.0781 15.7225 24.5549 15.7225 20.8032C15.7225 17.0515 15.6919 19.7503 15.651 19.1369C15.6203 18.5849 15.5896 18.0431 15.5896 17.716C15.5896 13.8722 17.1333 11.1734 24.6878 9.69113V13.31V13.2895ZM28 36.5053C26.7222 36.5053 25.6794 35.4626 25.6794 34.1847C25.6794 32.9069 26.7222 31.8642 28 31.8642C29.2778 31.8642 30.3206 32.9069 30.3206 34.1847C30.3206 35.4626 29.2778 36.5053 28 36.5053ZM28 24.1256C26.7222 24.1256 25.6794 23.0829 25.6794 21.805C25.6794 20.5272 26.7222 19.4845 28 19.4845C29.2778 19.4845 30.3206 20.5272 30.3206 21.805C30.3206 23.0829 29.2778 24.1256 28 24.1256ZM46.3498 29.9116H45.8693C41.9131 29.9116 40.2877 31.4348 40.2877 35.1866C40.2877 38.9383 40.3184 36.2395 40.3593 36.8529C40.3899 37.4049 40.4206 37.9467 40.4206 38.2738C40.4206 42.1176 38.877 44.8368 31.3224 46.3089V42.7105C34.9208 41.4122 35.575 39.9095 35.575 37.2924C35.575 34.6754 35.5444 36.2497 35.5035 35.6364C35.4728 35.0434 35.4319 34.4403 35.4319 33.9803C35.4319 31.1997 36.6791 29.605 39.613 28.6338L41.5451 28L39.613 27.3662C36.6893 26.395 35.4319 24.8003 35.4319 22.0197C35.4319 19.2391 35.4626 20.9566 35.5035 20.3636C35.5341 19.7503 35.575 19.1778 35.575 18.7076C35.575 16.0905 34.931 14.5776 31.3224 13.2895V9.67068C38.877 11.153 40.4206 13.8518 40.4206 17.6955C40.4206 21.5392 40.3899 18.5542 40.3593 19.1165C40.3286 19.7298 40.2877 20.3739 40.2877 20.7828C40.2877 24.5243 41.9029 26.0577 45.8693 26.0577H46.3498V29.8912V29.9116Z" fill="url(#paint0_linear_4014_1200)"/>
<defs>
<linearGradient id="paint0_linear_4014_1200" x1="0" y1="27.9898" x2="55.3662" y2="28.0102" gradientUnits="userSpaceOnUse">
<stop stop-color="#2C82FF"/>
<stop offset="1" stop-color="#12C6E3"/>
</linearGradient>
</defs>
</svg>
