<svg width="56" height="56" viewBox="0 0 56 56" fill="none" xmlns="http://www.w3.org/2000/svg">
<path d="M28 49C25.2422 49 22.5115 48.4568 19.9636 47.4015C17.4158 46.3461 15.1008 44.7993 13.1508 42.8492C11.2007 40.8992 9.65388 38.5842 8.59853 36.0364C7.54318 33.4885 7 30.7578 7 28C7 25.2422 7.54318 22.5115 8.59853 19.9636C9.65388 17.4158 11.2007 15.1008 13.1508 13.1508C15.1008 11.2007 17.4158 9.65388 19.9636 8.59853C22.5115 7.54318 25.2422 7 28 7C33.5695 7 38.911 9.21249 42.8492 13.1508C46.7875 17.089 49 22.4305 49 28C49 33.5695 46.7875 38.911 42.8492 42.8492C38.911 46.7875 33.5695 49 28 49Z" fill="url(#paint0_radial_4014_1350)"/>
<defs>
<radialGradient id="paint0_radial_4014_1350" cx="0" cy="0" r="1" gradientUnits="userSpaceOnUse" gradientTransform="translate(37.534 18.2933) rotate(180) scale(35.4734)">
<stop offset="0.007" stop-color="#F2CEFE"/>
<stop offset="0.191" stop-color="#AFBAF1"/>
<stop offset="0.498" stop-color="#4281D3"/>
<stop offset="0.667" stop-color="#2E427D"/>
<stop offset="0.823" stop-color="#230101"/>
<stop offset="1" stop-color="#8F6B40"/>
</radialGradient>
</defs>
</svg>
